G04 Layer_Physical_Order=1*
G04 Layer_Color=255*
%FSAX25Y25*%
%MOIN*%
G70*
G01*
G75*
%ADD10R,0.04134X0.02165*%
%ADD11R,0.03543X0.02756*%
%ADD12R,0.03150X0.03150*%
%ADD13R,0.02756X0.03543*%
%ADD14C,0.01181*%
%ADD15C,0.00591*%
%ADD16C,0.00787*%
%ADD17C,0.00984*%
%ADD18C,0.01600*%
%ADD19C,0.02781*%
%ADD20C,0.05906*%
%ADD21C,0.02600*%
D10*
X0120158Y0122342D02*
D03*
Y0117421D02*
D03*
Y0107579D02*
D03*
Y0112500D02*
D03*
X0111496Y0107579D02*
D03*
Y0122342D02*
D03*
Y0117421D02*
D03*
Y0112500D02*
D03*
X0119882Y0153838D02*
D03*
Y0148917D02*
D03*
Y0139075D02*
D03*
Y0143996D02*
D03*
X0111220Y0139075D02*
D03*
Y0153838D02*
D03*
Y0148917D02*
D03*
Y0143996D02*
D03*
X0119882Y0185334D02*
D03*
Y0180413D02*
D03*
Y0170571D02*
D03*
Y0175492D02*
D03*
X0111220Y0170571D02*
D03*
Y0185334D02*
D03*
Y0180413D02*
D03*
Y0175492D02*
D03*
X0119882Y0216830D02*
D03*
Y0211909D02*
D03*
Y0202067D02*
D03*
Y0206988D02*
D03*
X0111220Y0202067D02*
D03*
Y0216830D02*
D03*
Y0211909D02*
D03*
Y0206988D02*
D03*
Y0238484D02*
D03*
Y0243405D02*
D03*
Y0248326D02*
D03*
Y0233563D02*
D03*
X0119882Y0238484D02*
D03*
Y0233563D02*
D03*
Y0243405D02*
D03*
Y0248326D02*
D03*
X0111220Y0269980D02*
D03*
Y0274901D02*
D03*
Y0279822D02*
D03*
Y0265059D02*
D03*
X0119882Y0269980D02*
D03*
Y0265059D02*
D03*
Y0274901D02*
D03*
Y0279822D02*
D03*
D11*
X0125003Y0117520D02*
D03*
Y0112402D02*
D03*
X0124803Y0149016D02*
D03*
Y0143898D02*
D03*
X0125022Y0133268D02*
D03*
Y0128150D02*
D03*
X0125197Y0180315D02*
D03*
Y0175197D02*
D03*
X0124803Y0211811D02*
D03*
Y0206693D02*
D03*
X0125591Y0275197D02*
D03*
Y0270079D02*
D03*
X0124803Y0243504D02*
D03*
Y0238386D02*
D03*
D12*
X0118780Y0129528D02*
D03*
X0112874D02*
D03*
D13*
X0118740Y0162008D02*
D03*
X0123858D02*
D03*
D14*
X0124902Y0215374D02*
X0125276Y0215748D01*
X0129410Y0202165D02*
Y0219488D01*
X0120650Y0216831D02*
X0123307Y0219488D01*
X0125492Y0269980D02*
X0125591Y0270079D01*
X0119882Y0269980D02*
X0125492D01*
X0124705Y0238484D02*
X0124803Y0238386D01*
X0119882Y0238484D02*
X0124705D01*
X0119370Y0128110D02*
X0124922Y0128150D01*
X0115827Y0120669D02*
X0118189Y0118110D01*
X0115827Y0120669D02*
Y0125000D01*
X0112874Y0127756D02*
X0115827Y0125000D01*
X0112874Y0127756D02*
Y0129528D01*
X0119882Y0148917D02*
X0124902D01*
X0118485D02*
X0119882D01*
X0124803Y0149016D02*
X0124902Y0148917D01*
X0124803Y0120512D02*
X0125197Y0120906D01*
X0124803Y0117520D02*
Y0120512D01*
X0124705Y0117421D02*
X0124803Y0117520D01*
X0120158Y0117421D02*
X0124705D01*
X0125099Y0182500D02*
X0126260Y0184055D01*
X0125099Y0180413D02*
Y0182500D01*
Y0180413D02*
X0125197Y0180315D01*
X0119882Y0180413D02*
X0124902D01*
X0124803Y0215276D02*
X0124902Y0215374D01*
X0124803Y0211811D02*
Y0215276D01*
X0124705Y0211909D02*
X0124803Y0211811D01*
X0119882Y0211909D02*
X0124705D01*
X0124902D02*
Y0215374D01*
X0124803Y0246299D02*
X0124961Y0246850D01*
X0124803Y0243504D02*
Y0246299D01*
X0124705Y0243406D02*
X0124803Y0243504D01*
X0119882Y0243406D02*
X0124705D01*
X0125296Y0274902D02*
X0125591Y0275197D01*
X0119882Y0274902D02*
X0125296D01*
X0125591Y0275197D02*
Y0279055D01*
X0124902Y0211909D02*
X0125492D01*
X0125099Y0180413D02*
X0125611D01*
X0124902D02*
X0125099D01*
X0124902D02*
X0125197Y0180315D01*
X0124803Y0211811D02*
X0124902Y0211909D01*
X0125296Y0274902D02*
X0125591Y0274606D01*
X0124705Y0206988D02*
X0124803Y0206693D01*
X0119882Y0206988D02*
X0124705D01*
Y0175492D02*
X0125197Y0175197D01*
X0119882Y0175492D02*
X0124705D01*
Y0143996D02*
X0124803Y0143898D01*
X0119882Y0143996D02*
X0124705D01*
Y0112500D02*
X0124803Y0112402D01*
X0120158Y0112500D02*
X0124705D01*
X0116516Y0265059D02*
X0119882D01*
Y0153839D02*
X0129410D01*
X0115591Y0272205D02*
Y0279291D01*
X0122520Y0172047D02*
X0129410D01*
X0121221Y0170748D02*
X0122520Y0172047D01*
X0120059Y0170748D02*
X0121221D01*
X0129134Y0250315D02*
X0129410Y0250591D01*
X0122717Y0250315D02*
X0129134D01*
X0129311Y0233563D02*
X0129410Y0233661D01*
X0119882Y0233563D02*
X0129311D01*
Y0202067D02*
X0129410Y0202165D01*
X0125079Y0133268D02*
X0129410D01*
X0129311Y0139075D02*
X0129410Y0142126D01*
X0119882Y0139075D02*
X0129311D01*
X0129016Y0124213D02*
X0129410Y0124606D01*
X0122914Y0124213D02*
X0129016D01*
X0127835Y0107480D02*
X0129410Y0109055D01*
Y0124606D01*
Y0133268D01*
Y0142126D01*
Y0153839D01*
Y0172047D01*
Y0187402D01*
Y0202165D01*
Y0219488D02*
Y0233661D01*
Y0250591D01*
Y0264370D01*
X0128721Y0265059D02*
X0129410Y0264370D01*
X0116339Y0109961D02*
X0118307Y0107992D01*
X0115906Y0109961D02*
X0116339D01*
X0115591Y0110079D02*
X0115906Y0109961D01*
X0118307Y0107992D02*
X0119292D01*
X0119036Y0107736D02*
X0119292Y0107992D01*
X0119036Y0107579D02*
Y0107736D01*
X0119882Y0202067D02*
X0129311D01*
X0122914Y0187402D02*
X0129410D01*
X0120847Y0185335D02*
X0122914Y0187402D01*
X0119882Y0185335D02*
X0120847D01*
X0121044Y0122343D02*
X0122914Y0124213D01*
X0120158Y0122343D02*
X0121044D01*
X0119981Y0107480D02*
X0120158Y0107579D01*
X0119981Y0107480D02*
X0127835D01*
X0118760Y0216831D02*
X0119882D01*
X0115591Y0213661D02*
X0118760Y0216831D01*
X0115591Y0209409D02*
Y0213661D01*
X0123307Y0219488D02*
X0129410D01*
X0119882Y0216831D02*
X0120650D01*
X0118366Y0248327D02*
X0119882D01*
X0120729D02*
X0122717Y0250315D01*
X0119882Y0248327D02*
X0120729D01*
X0115512Y0240906D02*
X0115551Y0240945D01*
X0115512Y0240984D02*
X0115551Y0240945D01*
X0115512Y0240984D02*
Y0245354D01*
X0115748Y0245591D01*
Y0245709D01*
X0115551Y0240945D02*
X0115709Y0240906D01*
X0115551D02*
X0115709D01*
X0115551D02*
X0115709Y0240748D01*
X0115748Y0245709D02*
X0118366Y0248327D01*
X0119882Y0265059D02*
X0128721D01*
X0115551Y0272362D02*
X0115591Y0272205D01*
X0115551D02*
Y0272362D01*
Y0272205D02*
X0115630Y0272126D01*
Y0265945D02*
Y0272126D01*
Y0265945D02*
X0116516Y0265059D01*
X0115591Y0279291D02*
X0116221Y0279921D01*
X0119981D01*
X0119882Y0185335D02*
X0119981Y0185236D01*
X0119882Y0170571D02*
X0120059Y0170748D01*
X0119882Y0202067D02*
X0119981Y0201969D01*
X0119784Y0279724D02*
X0119882Y0279823D01*
X0119981Y0279921D01*
D15*
X0105788Y0168898D02*
X0105985Y0168701D01*
X0103819Y0168898D02*
X0105788D01*
X0103032Y0228740D02*
X0104803Y0230512D01*
X0103032Y0170079D02*
Y0228740D01*
Y0170079D02*
X0103819Y0168898D01*
Y0229528D02*
X0104803Y0230512D01*
X0103882Y0231433D02*
X0104803Y0230512D01*
X0103882Y0231433D02*
Y0247709D01*
X0104500Y0248327D01*
X0111221D01*
X0101488Y0259843D02*
X0103457Y0261811D01*
X0101488Y0141732D02*
Y0259843D01*
Y0263780D02*
X0103457Y0261811D01*
X0115512D01*
X0101488Y0141732D02*
X0103063Y0139567D01*
X0105591Y0139370D01*
X0101488Y0263780D02*
Y0276772D01*
X0104559Y0279843D01*
X0111201D02*
X0111221Y0279823D01*
X0104559Y0279843D02*
X0111201D01*
X0118780Y0129528D02*
X0119370Y0128110D01*
X0111221Y0153839D02*
Y0162126D01*
X0116221Y0167126D01*
Y0175197D01*
X0115433Y0175984D02*
X0116221Y0175197D01*
X0115433Y0175984D02*
Y0177953D01*
X0116418Y0199606D02*
X0120355Y0195669D01*
X0115630Y0113189D02*
Y0115236D01*
X0114941Y0112500D02*
X0115630Y0113189D01*
X0111496Y0112500D02*
X0114941D01*
X0106378Y0153740D02*
Y0161024D01*
X0114055Y0167323D02*
X0114646Y0167913D01*
X0112677Y0167323D02*
X0114055D01*
X0106378Y0161024D02*
X0112677Y0167323D01*
X0111221Y0206988D02*
X0111516Y0206693D01*
X0114449D01*
X0116418Y0204724D01*
Y0199606D02*
Y0204724D01*
X0120355Y0191142D02*
Y0195669D01*
X0118189Y0188976D02*
X0120355Y0191142D01*
X0109134Y0188976D02*
X0118189D01*
X0107756Y0187598D02*
X0109134Y0188976D01*
X0107756Y0178543D02*
Y0187598D01*
Y0178543D02*
X0108347Y0177953D01*
X0110512D01*
X0110906Y0177559D01*
Y0175787D02*
Y0177559D01*
Y0175787D02*
X0111201Y0175492D01*
X0112185D01*
X0114646Y0173032D01*
Y0167913D02*
Y0173032D01*
X0106378Y0147441D02*
Y0153740D01*
X0102441Y0123032D02*
X0105591Y0126181D01*
Y0132283D01*
X0108937Y0135630D01*
X0113662D01*
X0114843Y0136811D01*
X0102441Y0117047D02*
Y0123032D01*
Y0117047D02*
X0104095Y0115354D01*
X0114843Y0136811D02*
Y0143504D01*
X0114351Y0143996D02*
X0114843Y0143504D01*
X0111221Y0143996D02*
X0114351D01*
X0103701Y0115157D02*
X0104095Y0115354D01*
X0103701Y0115157D02*
X0104370Y0115472D01*
X0104095Y0115354D02*
X0104370Y0115472D01*
X0106378Y0147441D02*
X0109823Y0144193D01*
X0111221Y0143996D01*
X0117008Y0230276D02*
X0125630D01*
X0115748Y0231535D02*
X0117008Y0230276D01*
X0115748Y0231535D02*
Y0235079D01*
X0107008Y0207008D02*
X0107028Y0206988D01*
X0111221D01*
X0112343Y0238484D02*
X0115748Y0235079D01*
X0107264Y0238484D02*
X0112343D01*
X0106929Y0270000D02*
X0106949Y0269980D01*
X0111221D01*
X0107166Y0238465D02*
X0107264Y0238484D01*
X0110512Y0195472D02*
X0114055Y0199016D01*
X0108740Y0195472D02*
X0110512D01*
X0106181Y0192913D02*
X0108740Y0195472D01*
X0106181Y0176575D02*
Y0192913D01*
Y0176575D02*
X0106969Y0175787D01*
Y0175591D02*
Y0175787D01*
X0107008Y0216850D02*
X0107028Y0216831D01*
X0111221D01*
X0111122Y0202165D02*
X0111221Y0202067D01*
X0107953Y0202165D02*
X0111122D01*
X0106969Y0201181D02*
X0107953Y0202165D01*
X0106969Y0198701D02*
Y0201181D01*
X0104607Y0196535D02*
X0106969Y0198701D01*
X0110906Y0138957D02*
X0111221Y0139075D01*
X0109331Y0138780D02*
X0110906Y0138957D01*
X0105000Y0134843D02*
X0109331Y0138780D01*
X0102244Y0132283D02*
X0105000Y0134843D01*
X0102244Y0132283D02*
X0102441Y0127165D01*
X0103622Y0160827D02*
X0109725Y0166929D01*
Y0170453D02*
X0111221Y0170571D01*
X0109725Y0166929D02*
Y0170453D01*
X0104607Y0173032D02*
X0105591Y0172047D01*
X0108544D01*
X0109321Y0171270D01*
X0110522D01*
X0104607Y0173032D02*
Y0196535D01*
X0110522Y0171270D02*
X0111221Y0170571D01*
X0111299Y0170492D01*
X0103622Y0145472D02*
X0109725Y0139370D01*
X0109548Y0139350D02*
X0109725Y0139370D01*
X0109548Y0139350D02*
X0110532Y0139075D01*
X0103622Y0145472D02*
Y0160827D01*
X0110512Y0170669D02*
X0111122D01*
X0107087Y0120276D02*
X0107520Y0119843D01*
Y0108583D02*
Y0119843D01*
X0106851Y0198110D02*
X0106969Y0198701D01*
X0107087Y0120276D02*
X0107520Y0120236D01*
Y0108583D02*
X0108524Y0107579D01*
X0111496D01*
X0110532Y0139075D02*
X0111221D01*
X0111122Y0170669D02*
X0111221Y0170571D01*
X0111122Y0201969D02*
X0111221Y0202067D01*
X0109882Y0201969D02*
X0111122D01*
X0110099Y0202067D02*
X0111221D01*
X0109882Y0201614D02*
Y0201969D01*
X0111122Y0233465D02*
X0111221Y0233563D01*
X0107126Y0233465D02*
X0107225Y0233563D01*
X0111221D01*
X0104685Y0264961D02*
X0111122D01*
Y0233465D02*
X0111181D01*
X0115630Y0182874D02*
X0115729Y0182776D01*
X0115630Y0182874D02*
Y0184843D01*
X0115236Y0185236D02*
X0115630Y0184843D01*
X0110197Y0185236D02*
X0115236D01*
X0107756Y0131102D02*
X0110118Y0133465D01*
X0114449D01*
X0116614Y0135630D01*
X0107756Y0131102D02*
X0107953Y0124311D01*
X0109922Y0122441D01*
Y0122343D02*
Y0122441D01*
Y0122343D02*
X0111496D01*
X0122914Y0167717D02*
X0124488Y0169291D01*
X0119567Y0167717D02*
X0122914D01*
X0114646Y0162795D02*
X0119567Y0167717D01*
X0114646Y0149606D02*
Y0162795D01*
X0116614Y0135630D02*
Y0147638D01*
X0114646Y0149606D02*
X0116614Y0147638D01*
X0111240Y0122323D02*
X0111496Y0122343D01*
X0119469Y0118110D02*
X0120158Y0117421D01*
X0118189Y0118110D02*
X0119469D01*
X0124843Y0133268D02*
X0125079D01*
X0100000Y0100000D02*
Y0287402D01*
X0131496D01*
Y0100000D02*
Y0287402D01*
X0100000Y0100000D02*
X0131496D01*
D16*
X0111122Y0264961D02*
X0111221Y0265059D01*
X0110197Y0185236D02*
X0111122D01*
X0111221Y0185335D01*
X0119036Y0107579D02*
X0120158D01*
D17*
X0121733Y0165748D02*
X0126457D01*
X0118977Y0162992D02*
X0121733Y0165748D01*
X0118740Y0162008D02*
X0118977Y0162244D01*
Y0162402D01*
Y0162992D01*
X0116457Y0159882D02*
X0118977Y0162402D01*
X0116418Y0159882D02*
X0116457D01*
X0116418Y0150984D02*
Y0159882D01*
Y0150984D02*
X0118485Y0148917D01*
X0119882Y0153839D02*
Y0156299D01*
X0119961Y0156496D01*
X0123859Y0162008D02*
X0126811Y0159055D01*
X0126851D01*
X0121339Y0158504D02*
X0123859Y0162008D01*
X0119961Y0156496D02*
X0121339Y0158504D01*
X0126457Y0165748D02*
X0126654Y0165945D01*
D18*
X0125591Y0274902D02*
Y0275197D01*
D19*
X0125276Y0215748D02*
D03*
X0125197Y0120906D02*
D03*
X0126260Y0184055D02*
D03*
X0124961Y0246850D02*
D03*
X0125591Y0279055D02*
D03*
X0115591Y0110079D02*
D03*
Y0209409D02*
D03*
X0115551Y0240945D02*
D03*
X0115591Y0272205D02*
D03*
D20*
X0115827Y0193504D02*
D03*
Y0225000D02*
D03*
D21*
X0127244Y0102953D02*
D03*
X0115630Y0256299D02*
D03*
X0105985Y0168701D02*
D03*
X0104803Y0230512D02*
D03*
X0105591Y0139370D02*
D03*
X0115512Y0261811D02*
D03*
X0115433Y0177953D02*
D03*
X0106378Y0153740D02*
D03*
X0104095Y0115354D02*
D03*
X0115630Y0115236D02*
D03*
X0125630Y0230276D02*
D03*
X0107008Y0207008D02*
D03*
X0106929Y0270000D02*
D03*
X0107166Y0238465D02*
D03*
X0114055Y0199016D02*
D03*
X0106969Y0175591D02*
D03*
X0107008Y0216850D02*
D03*
X0102441Y0127165D02*
D03*
X0105591Y0172047D02*
D03*
X0107087Y0120276D02*
D03*
X0106969Y0198701D02*
D03*
X0107126Y0233465D02*
D03*
X0104685Y0264961D02*
D03*
X0115729Y0182776D02*
D03*
X0124488Y0169291D02*
D03*
X0126851Y0159055D02*
D03*
X0126654Y0165945D02*
D03*
M02*
