G04 Layer_Color=128*
%FSAX25Y25*%
%MOIN*%
G70*
G01*
G75*
%ADD15C,0.00591*%
%ADD22R,0.05000X0.05000*%
%ADD23R,0.03400X0.01200*%
%ADD24R,0.01200X0.03400*%
%ADD25R,0.04331X0.01969*%
%ADD26R,0.11811X0.02598*%
D15*
X0100000Y0100000D02*
Y0287402D01*
X0131496D01*
Y0100000D02*
Y0287402D01*
X0100000Y0100000D02*
X0131496D01*
D22*
X0115355Y0161811D02*
D03*
D23*
X0107955Y0165711D02*
D03*
Y0163811D02*
D03*
Y0161811D02*
D03*
Y0159811D02*
D03*
Y0157911D02*
D03*
X0122755D02*
D03*
Y0159811D02*
D03*
Y0161811D02*
D03*
Y0163811D02*
D03*
Y0165711D02*
D03*
D24*
X0111455Y0154411D02*
D03*
X0113355D02*
D03*
X0115355D02*
D03*
X0117355D02*
D03*
X0119255D02*
D03*
Y0169211D02*
D03*
X0117355D02*
D03*
X0115355D02*
D03*
X0113355D02*
D03*
X0111455D02*
D03*
D25*
X0117205Y0146457D02*
D03*
Y0143406D02*
D03*
X0124292Y0146457D02*
D03*
Y0143406D02*
D03*
X0110118Y0146457D02*
D03*
Y0143406D02*
D03*
D26*
X0115551Y0282598D02*
D03*
Y0277402D02*
D03*
Y0272205D02*
D03*
Y0267008D02*
D03*
Y0261811D02*
D03*
X0115630Y0125984D02*
D03*
X0115355Y0219803D02*
D03*
Y0214607D02*
D03*
Y0209410D02*
D03*
Y0204213D02*
D03*
Y0199016D02*
D03*
X0115551Y0251299D02*
D03*
Y0246103D02*
D03*
Y0240906D02*
D03*
Y0235709D02*
D03*
Y0230512D02*
D03*
X0115630Y0131299D02*
D03*
X0115551Y0120512D02*
D03*
Y0115315D02*
D03*
Y0110118D02*
D03*
Y0104921D02*
D03*
X0115630Y0136500D02*
D03*
M02*
