<?xml version="1.0" encoding="UTF-8" standalone="no"?>
<!-- Created with Inkscape (http://www.inkscape.org/) -->

<svg
   xmlns:dc="http://purl.org/dc/elements/1.1/"
   xmlns:cc="http://creativecommons.org/ns#"
   xmlns:rdf="http://www.w3.org/1999/02/22-rdf-syntax-ns#"
   xmlns:svg="http://www.w3.org/2000/svg"
   xmlns="http://www.w3.org/2000/svg"
   xmlns:sodipodi="http://sodipodi.sourceforge.net/DTD/sodipodi-0.dtd"
   xmlns:inkscape="http://www.inkscape.org/namespaces/inkscape"
   width="90.481415mm"
   height="212.31067mm"
   viewBox="0 0 320.60344 752.28189"
   id="svg4877"
   version="1.1"
   inkscape:version="0.91 r13725"
   sodipodi:docname="barrett_board_bottom.svg">
  <defs
     id="defs4879">
    <clipPath
       id="clipPath5443"
       clipPathUnits="userSpaceOnUse">
      <path
         inkscape:connector-curvature="0"
         id="path5445"
         d="M 0,0 395,0 395,457 0,457 0,0 Z" />
    </clipPath>
  </defs>
  <sodipodi:namedview
     id="base"
     pagecolor="#ffffff"
     bordercolor="#666666"
     borderopacity="1.0"
     inkscape:pageopacity="0.0"
     inkscape:pageshadow="2"
     inkscape:zoom="0.98994949"
     inkscape:cx="61.563009"
     inkscape:cy="399.6908"
     inkscape:document-units="px"
     inkscape:current-layer="layer1"
     showgrid="false"
     fit-margin-top="0"
     fit-margin-left="0"
     fit-margin-right="0"
     fit-margin-bottom="0"
     inkscape:window-width="1920"
     inkscape:window-height="1018"
     inkscape:window-x="-8"
     inkscape:window-y="-8"
     inkscape:window-maximized="1" />
  <metadata
     id="metadata4882">
    <rdf:RDF>
      <cc:Work
         rdf:about="">
        <dc:format>image/svg+xml</dc:format>
        <dc:type
           rdf:resource="http://purl.org/dc/dcmitype/StillImage" />
        <dc:title></dc:title>
      </cc:Work>
    </rdf:RDF>
  </metadata>
  <g
     inkscape:label="Layer 1"
     inkscape:groupmode="layer"
     id="layer1"
     transform="translate(-902.55543,-613.36406)">
    <g
       transform="matrix(1.25,0,0,-1.25,568.61703,1372.6134)"
       inkscape:label="barrett_board_bottom"
       id="g5433">
      <g
         id="g5435">
        <g
           id="g5437">
          <g
             transform="matrix(1.3333,0,0,1.3333,0,2.6667)"
             id="g5439">
            <g
               clip-path="url(#clipPath5443)"
               id="g5441">
              <g
                 id="g5447">
                <path
                   inkscape:connector-curvature="0"
                   id="path5449"
                   style="fill:none;stroke:#000000;stroke-width:0.0035;stroke-linecap:round;stroke-linejoin:miter;stroke-miterlimit:10;stroke-dasharray:none;stroke-opacity:1"
                   d="m 201.0542,350.6011 0.1317,1.3301 1.0153,2.4592 1.8851,1.8808 2.4569,1.0184 1.3306,0.1281 0,0 -6.8196,0 0,-6.8166 z" />
                <path
                   inkscape:connector-curvature="0"
                   id="path5451"
                   style="fill:none;stroke:#000000;stroke-width:0.0035;stroke-linecap:round;stroke-linejoin:miter;stroke-miterlimit:10;stroke-dasharray:none;stroke-opacity:1"
                   d="m 201.0542,371.0544 6.8196,0 -1.3306,0.1317 -2.4569,1.0183 -1.8851,1.8808 -1.0153,2.4593 -0.1317,1.33 0,0 0,-6.8201 z" />
                <path
                   inkscape:connector-curvature="0"
                   id="path5453"
                   style="fill:none;stroke:#000000;stroke-width:0.0035;stroke-linecap:round;stroke-linejoin:miter;stroke-miterlimit:10;stroke-dasharray:none;stroke-opacity:1"
                   d="m 392.0522,350.6011 -0.1317,1.3301 -1.0188,2.4592 -1.8816,1.8808 -2.4603,1.0184 -1.3307,0.1281 0,0 6.8231,0 0,-6.8166 z" />
                <path
                   inkscape:connector-curvature="0"
                   id="path5455"
                   style="fill:none;stroke:#000000;stroke-width:0.0035;stroke-linecap:round;stroke-linejoin:miter;stroke-miterlimit:10;stroke-dasharray:none;stroke-opacity:1"
                   d="m 385.2291,371.0544 1.3307,0.1317 2.4603,1.0183 1.8816,1.8808 1.0188,2.4593 0.1317,1.33 0,0 0,-6.8201 -6.8231,0 z" />
                <path
                   inkscape:connector-curvature="0"
                   id="path5457"
                   style="fill:none;stroke:#000000;stroke-width:0.0035;stroke-linecap:round;stroke-linejoin:miter;stroke-miterlimit:10;stroke-dasharray:none;stroke-opacity:1"
                   d="m 201.0542,2.8632 6.8196,0 -1.3306,0.1316 -2.4569,1.0184 -1.8851,1.8808 -1.0153,2.4592 -0.1317,1.3301 0,0 0,-6.8201 z" />
                <path
                   inkscape:connector-curvature="0"
                   id="path5459"
                   style="fill:none;stroke:#000000;stroke-width:0.0035;stroke-linecap:round;stroke-linejoin:miter;stroke-miterlimit:10;stroke-dasharray:none;stroke-opacity:1"
                   d="m 201.0542,452.8747 0,-5.4519 0.1039,1.0634 0.8144,1.9674 1.5074,1.5032 1.9648,0.814 1.0673,0.1039 0,0 -5.4578,0 z" />
                <path
                   inkscape:connector-curvature="0"
                   id="path5461"
                   style="fill:none;stroke:#000000;stroke-width:0.0035;stroke-linecap:round;stroke-linejoin:miter;stroke-miterlimit:10;stroke-dasharray:none;stroke-opacity:1"
                   d="m 276.0874,371.0544 -1.3549,0 -2.5089,-1.0356 -1.9197,-1.9189 -1.0361,-2.5078 0,-1.3543 0,0 0,-1.3578 1.0361,-2.5042 1.9197,-1.919 2.5089,-1.0391 1.3549,0 0,0 6.8231,0 1.3549,0 2.5088,1.0391 1.9198,1.919 1.0361,2.5042 0,1.3578 0,0 0,1.3543 -1.0361,2.5078 -1.9198,1.9189 -2.5088,1.0356 -1.3549,0 0,0 -6.8231,0 z" />
                <path
                   inkscape:connector-curvature="0"
                   id="path5463"
                   style="fill:none;stroke:#000000;stroke-width:0.0035;stroke-linecap:round;stroke-linejoin:miter;stroke-miterlimit:10;stroke-dasharray:none;stroke-opacity:1"
                   d="m 310.1959,371.0544 -1.3584,0 -2.5054,-1.0356 -1.9197,-1.9189 -1.0396,-2.5078 0,-1.3543 0,0 0,-1.3578 1.0396,-2.5042 1.9197,-1.919 2.5054,-1.0391 1.3584,0 0,0 6.8196,0 1.3584,0 2.5054,1.0391 1.9197,1.919 1.0396,2.5042 0,1.3578 0,0 0,1.3543 -1.0396,2.5078 -1.9197,1.9189 -2.5054,1.0356 -1.3584,0 0,0 -6.8196,0 z" />
                <path
                   inkscape:connector-curvature="0"
                   id="path5465"
                   style="fill:none;stroke:#000000;stroke-width:0.0035;stroke-linecap:round;stroke-linejoin:miter;stroke-miterlimit:10;stroke-dasharray:none;stroke-opacity:1"
                   d="m 392.0522,2.8632 0,6.8201 -0.1317,-1.3301 -1.0188,-2.4592 -1.8816,-1.8808 -2.4603,-1.0184 -1.3307,-0.1316 0,0 6.8231,0 z" />
                <path
                   inkscape:connector-curvature="0"
                   id="path5467"
                   style="fill:none;stroke:#000000;stroke-width:0.0035;stroke-linecap:round;stroke-linejoin:miter;stroke-miterlimit:10;stroke-dasharray:none;stroke-opacity:1"
                   d="m 385.2291,452.8747 1.3307,-0.1281 2.4603,-1.0184 1.8816,-1.8808 1.0188,-2.4592 0.1317,-1.3301 0,0 0,6.8166 -6.8231,0 z" />
                <path
                   inkscape:connector-curvature="0"
                   id="path5469"
                   style="fill:none;stroke:#000000;stroke-width:0.0035;stroke-linecap:round;stroke-linejoin:miter;stroke-miterlimit:10;stroke-dasharray:none;stroke-opacity:1"
                   d="m 201.0542,371.0544 47.7478,0 1.3583,0 2.5054,-1.0356 1.9198,-1.9189 1.0395,-2.5078 0,-1.3543 0,0 0,-1.3578 -1.0395,-2.5042 -1.9198,-1.919 -2.5054,-1.0391 -1.3583,0 0,0 -47.7478,0 0,13.6367 z" />
                <path
                   inkscape:connector-curvature="0"
                   id="path5471"
                   style="fill:none;stroke:#000000;stroke-width:0.0035;stroke-linecap:round;stroke-linejoin:miter;stroke-miterlimit:10;stroke-dasharray:none;stroke-opacity:1"
                   d="m 392.0522,371.0544 -47.7512,0 -1.355,0 -2.5088,-1.0356 -1.9198,-1.9189 -1.0361,-2.5078 0,-1.3543 0,0 0,-1.3578 1.0361,-2.5042 1.9198,-1.919 2.5088,-1.0391 1.355,0 0,0 47.7512,0 0,13.6367 z" />
                <path
                   inkscape:connector-curvature="0"
                   id="path5473"
                   style="fill:#000000;fill-opacity:1;fill-rule:evenodd;stroke:none"
                   d="m 228.3396,94.0252 0,12.272 -9.5502,0 0,-12.272 9.5502,0 z" />
                <path
                   inkscape:connector-curvature="0"
                   id="path5475"
                   style="fill:#000000;fill-opacity:1;fill-rule:evenodd;stroke:none"
                   d="m 228.3396,234.0604 0,12.272 -9.5502,0 0,-12.272 9.5502,0 z" />
                <path
                   inkscape:connector-curvature="0"
                   id="path5477"
                   style="fill:#000000;fill-opacity:1;fill-rule:evenodd;stroke:none"
                   d="m 287.5435,51.2758 0,-11.7767 4.1583,0 0,11.7767 -4.1583,0 z" />
                <path
                   inkscape:connector-curvature="0"
                   id="path5479"
                   style="fill:#000000;fill-opacity:1;fill-rule:evenodd;stroke:none"
                   d="m 280.9595,51.2758 0,-11.7767 4.1583,0 0,11.7767 -4.1583,0 z" />
                <path
                   inkscape:connector-curvature="0"
                   id="path5481"
                   style="fill:#000000;fill-opacity:1;fill-rule:evenodd;stroke:none"
                   d="m 294.779,182.1875 0,10.3635 -5.184,0 0,-10.3635 5.184,0 z" />
                <path
                   inkscape:connector-curvature="0"
                   id="path5483"
                   style="fill:#000000;fill-opacity:1;fill-rule:evenodd;stroke:none"
                   d="m 292.4607,289.8923 0,12.272 -9.5502,0 0,-12.272 9.5502,0 z" />
                <path
                   inkscape:connector-curvature="0"
                   id="path5485"
                   style="fill:#000000;fill-opacity:1;fill-rule:evenodd;stroke:none"
                   d="m 307.9885,51.2758 0,-11.7767 4.1583,0 0,11.7767 -4.1583,0 z" />
                <path
                   inkscape:connector-curvature="0"
                   id="path5487"
                   style="fill:#000000;fill-opacity:1;fill-rule:evenodd;stroke:none"
                   d="m 301.4045,51.2758 0,-11.7767 4.1584,0 0,11.7767 -4.1584,0 z" />
                <path
                   inkscape:connector-curvature="0"
                   id="path5489"
                   style="fill:#000000;fill-opacity:1;fill-rule:evenodd;stroke:none"
                   d="m 303.5114,182.1875 0,10.3635 -5.184,0 0,-10.3635 5.184,0 z" />
                <path
                   inkscape:connector-curvature="0"
                   id="path5491"
                   style="fill:#000000;fill-opacity:1;fill-rule:evenodd;stroke:none"
                   d="m 310.1959,289.8923 0,12.272 -9.5502,0 0,-12.272 9.5502,0 z" />
                <path
                   inkscape:connector-curvature="0"
                   id="path5493"
                   style="fill:#000000;fill-opacity:1;fill-rule:evenodd;stroke:none"
                   d="m 364.5381,106.1898 0,-12.2755 9.5502,0 0,12.2755 -9.5502,0 z" />
                <path
                   inkscape:connector-curvature="0"
                   id="path5495"
                   style="fill:#000000;fill-opacity:1;fill-rule:evenodd;stroke:none"
                   d="m 364.5381,246.3359 0,-12.2721 9.5502,0 0,12.2721 -9.5502,0 z" />
                <path
                   inkscape:connector-curvature="0"
                   id="path5497"
                   style="fill:#000000;fill-opacity:1;fill-rule:evenodd;stroke:none"
                   d="m 228.3396,23.9989 0,12.272 -9.5502,0 0,-12.272 9.5502,0 z" />
                <path
                   inkscape:connector-curvature="0"
                   id="path5499"
                   style="fill:#000000;fill-opacity:1;fill-rule:evenodd;stroke:none"
                   d="m 228.3396,164.0445 0,12.272 -9.5502,0 0,-12.272 9.5502,0 z" />
                <path
                   inkscape:connector-curvature="0"
                   id="path5501"
                   style="fill:#000000;fill-opacity:1;fill-rule:evenodd;stroke:none"
                   d="m 228.3396,304.0797 0,12.272 -9.5502,0 0,-12.272 9.5502,0 z" />
                <path
                   inkscape:connector-curvature="0"
                   id="path5503"
                   style="fill:#000000;fill-opacity:1;fill-rule:evenodd;stroke:none"
                   d="m 228.3396,418.0988 0,12.272 -9.5502,0 0,-12.272 9.5502,0 z" />
                <path
                   inkscape:connector-curvature="0"
                   id="path5505"
                   style="fill:#000000;fill-opacity:1;fill-rule:evenodd;stroke:none"
                   d="m 282.9105,36.2744 0,-12.272 9.5502,0 0,12.272 -9.5502,0 z" />
                <path
                   inkscape:connector-curvature="0"
                   id="path5507"
                   style="fill:#000000;fill-opacity:1;fill-rule:evenodd;stroke:none"
                   d="m 280.9595,102.539 0,-11.7767 4.1583,0 0,11.7767 -4.1583,0 z" />
                <path
                   inkscape:connector-curvature="0"
                   id="path5509"
                   style="fill:#000000;fill-opacity:1;fill-rule:evenodd;stroke:none"
                   d="m 287.5435,102.539 0,-11.7767 4.1583,0 0,11.7767 -4.1583,0 z" />
                <path
                   inkscape:connector-curvature="0"
                   id="path5511"
                   style="fill:#000000;fill-opacity:1;fill-rule:evenodd;stroke:none"
                   d="m 285.1178,223.6242 0,11.7766 -4.1583,0 0,-11.7766 4.1583,0 z" />
                <path
                   inkscape:connector-curvature="0"
                   id="path5513"
                   style="fill:#000000;fill-opacity:1;fill-rule:evenodd;stroke:none"
                   d="m 291.7018,223.6242 0,11.7766 -4.1583,0 0,-11.7766 4.1583,0 z" />
                <path
                   inkscape:connector-curvature="0"
                   id="path5515"
                   style="fill:#000000;fill-opacity:1;fill-rule:evenodd;stroke:none"
                   d="m 294.779,195.9593 0,13.9104 -5.184,0 0,-13.9104 5.184,0 z" />
                <path
                   inkscape:connector-curvature="0"
                   id="path5517"
                   style="fill:#000000;fill-opacity:1;fill-rule:evenodd;stroke:none"
                   d="m 291.7018,274.8874 0,11.7767 -4.1583,0 0,-11.7767 4.1583,0 z" />
                <path
                   inkscape:connector-curvature="0"
                   id="path5519"
                   style="fill:#000000;fill-opacity:1;fill-rule:evenodd;stroke:none"
                   d="m 285.1178,274.8874 0,11.7767 -4.1583,0 0,-11.7767 4.1583,0 z" />
                <path
                   inkscape:connector-curvature="0"
                   id="path5521"
                   style="fill:#000000;fill-opacity:1;fill-rule:evenodd;stroke:none"
                   d="m 300.6457,36.2744 0,-12.272 9.5502,0 0,12.272 -9.5502,0 z" />
                <path
                   inkscape:connector-curvature="0"
                   id="path5523"
                   style="fill:#000000;fill-opacity:1;fill-rule:evenodd;stroke:none"
                   d="m 301.4045,102.539 0,-11.7767 4.1584,0 0,11.7767 -4.1584,0 z" />
                <path
                   inkscape:connector-curvature="0"
                   id="path5525"
                   style="fill:#000000;fill-opacity:1;fill-rule:evenodd;stroke:none"
                   d="m 307.9885,102.539 0,-11.7767 4.1583,0 0,11.7767 -4.1583,0 z" />
                <path
                   inkscape:connector-curvature="0"
                   id="path5527"
                   style="fill:#000000;fill-opacity:1;fill-rule:evenodd;stroke:none"
                   d="m 305.5629,223.6242 0,11.7766 -4.1584,0 0,-11.7766 4.1584,0 z" />
                <path
                   inkscape:connector-curvature="0"
                   id="path5529"
                   style="fill:#000000;fill-opacity:1;fill-rule:evenodd;stroke:none"
                   d="m 312.1468,223.6242 0,11.7766 -4.1583,0 0,-11.7766 4.1583,0 z" />
                <path
                   inkscape:connector-curvature="0"
                   id="path5531"
                   style="fill:#000000;fill-opacity:1;fill-rule:evenodd;stroke:none"
                   d="m 303.5114,195.9593 0,13.9104 -5.184,0 0,-13.9104 5.184,0 z" />
                <path
                   inkscape:connector-curvature="0"
                   id="path5533"
                   style="fill:#000000;fill-opacity:1;fill-rule:evenodd;stroke:none"
                   d="m 312.1468,274.8874 0,11.7767 -4.1583,0 0,-11.7767 4.1583,0 z" />
                <path
                   inkscape:connector-curvature="0"
                   id="path5535"
                   style="fill:#000000;fill-opacity:1;fill-rule:evenodd;stroke:none"
                   d="m 305.5629,274.8874 0,11.7767 -4.1584,0 0,-11.7767 4.1584,0 z" />
                <path
                   inkscape:connector-curvature="0"
                   id="path5537"
                   style="fill:#000000;fill-opacity:1;fill-rule:evenodd;stroke:none"
                   d="m 364.5381,36.2744 0,-12.272 9.5502,0 0,12.272 -9.5502,0 z" />
                <path
                   inkscape:connector-curvature="0"
                   id="path5539"
                   style="fill:#000000;fill-opacity:1;fill-rule:evenodd;stroke:none"
                   d="m 364.5381,176.313 0,-12.272 9.5502,0 0,12.272 -9.5502,0 z" />
                <path
                   inkscape:connector-curvature="0"
                   id="path5541"
                   style="fill:#000000;fill-opacity:1;fill-rule:evenodd;stroke:none"
                   d="m 364.5381,316.3552 0,-12.272 9.5502,0 0,12.272 -9.5502,0 z" />
                <path
                   inkscape:connector-curvature="0"
                   id="path5543"
                   style="fill:#000000;fill-opacity:1;fill-rule:evenodd;stroke:none"
                   d="m 364.5381,430.3743 0,-12.272 9.5502,0 0,12.272 -9.5502,0 z" />
                <path
                   inkscape:connector-curvature="0"
                   id="path5545"
                   style="fill:#000000;fill-opacity:1;fill-rule:evenodd;stroke:none"
                   d="m 328.087,59.5888 -11.7818,0 0,-4.1565 11.7818,0 0,4.1565 z" />
                <path
                   inkscape:connector-curvature="0"
                   id="path5547"
                   style="fill:#000000;fill-opacity:1;fill-rule:evenodd;stroke:none"
                   d="m 294.474,51.2758 0,-11.7767 4.1583,0 0,11.7767 -4.1583,0 z" />
                <path
                   inkscape:connector-curvature="0"
                   id="path5549"
                   style="fill:#000000;fill-opacity:1;fill-rule:evenodd;stroke:none"
                   d="m 276.8012,59.5888 -11.7818,0 0,-4.1565 11.7818,0 0,4.1565 z" />
                <path
                   inkscape:connector-curvature="0"
                   id="path5551"
                   style="fill:#000000;fill-opacity:1;fill-rule:evenodd;stroke:none"
                   d="m 328.087,86.6059 -11.7818,0 0,-4.1565 11.7818,0 0,4.1565 z" />
                <path
                   inkscape:connector-curvature="0"
                   id="path5553"
                   style="fill:#000000;fill-opacity:1;fill-rule:evenodd;stroke:none"
                   d="m 328.087,80.0248 -11.7818,0 0,-4.1565 11.7818,0 0,4.1565 z" />
                <path
                   inkscape:connector-curvature="0"
                   id="path5555"
                   style="fill:#000000;fill-opacity:1;fill-rule:evenodd;stroke:none"
                   d="m 328.087,73.0973 -11.7818,0 0,-4.1565 11.7818,0 0,4.1565 z" />
                <path
                   inkscape:connector-curvature="0"
                   id="path5557"
                   style="fill:#000000;fill-opacity:1;fill-rule:evenodd;stroke:none"
                   d="m 276.8012,73.0973 -11.7818,0 0,-4.1565 11.7818,0 0,4.1565 z" />
                <path
                   inkscape:connector-curvature="0"
                   id="path5559"
                   style="fill:#000000;fill-opacity:1;fill-rule:evenodd;stroke:none"
                   d="m 276.8012,80.0248 -11.7818,0 0,-4.1565 11.7818,0 0,4.1565 z" />
                <path
                   inkscape:connector-curvature="0"
                   id="path5561"
                   style="fill:#000000;fill-opacity:1;fill-rule:evenodd;stroke:none"
                   d="m 276.8012,86.6059 -11.7818,0 0,-4.1565 11.7818,0 0,4.1565 z" />
                <path
                   inkscape:connector-curvature="0"
                   id="path5563"
                   style="fill:#000000;fill-opacity:1;fill-rule:evenodd;stroke:none"
                   d="m 246.0748,94.0252 0,12.272 -9.5502,0 0,-12.272 9.5502,0 z" />
                <path
                   inkscape:connector-curvature="0"
                   id="path5565"
                   style="fill:#000000;fill-opacity:1;fill-rule:evenodd;stroke:none"
                   d="m 316.3052,239.5573 11.7818,0 0,4.1565 -11.7818,0 0,-4.1565 z" />
                <path
                   inkscape:connector-curvature="0"
                   id="path5567"
                   style="fill:#000000;fill-opacity:1;fill-rule:evenodd;stroke:none"
                   d="m 316.3052,246.1384 11.7818,0 0,4.1565 -11.7818,0 0,-4.1565 z" />
                <path
                   inkscape:connector-curvature="0"
                   id="path5569"
                   style="fill:#000000;fill-opacity:1;fill-rule:evenodd;stroke:none"
                   d="m 265.0194,246.1384 11.7818,0 0,4.1565 -11.7818,0 0,-4.1565 z" />
                <path
                   inkscape:connector-curvature="0"
                   id="path5571"
                   style="fill:#000000;fill-opacity:1;fill-rule:evenodd;stroke:none"
                   d="m 265.0194,239.5573 11.7818,0 0,4.1565 -11.7818,0 0,-4.1565 z" />
                <path
                   inkscape:connector-curvature="0"
                   id="path5573"
                   style="fill:#000000;fill-opacity:1;fill-rule:evenodd;stroke:none"
                   d="m 246.0748,234.0604 0,12.272 -9.5502,0 0,-12.272 9.5502,0 z" />
                <path
                   inkscape:connector-curvature="0"
                   id="path5575"
                   style="fill:#000000;fill-opacity:1;fill-rule:evenodd;stroke:none"
                   d="m 316.3052,259.9933 11.7818,0 0,4.1565 -11.7818,0 0,-4.1565 z" />
                <path
                   inkscape:connector-curvature="0"
                   id="path5577"
                   style="fill:#000000;fill-opacity:1;fill-rule:evenodd;stroke:none"
                   d="m 316.3052,266.5744 11.7818,0 0,4.1565 -11.7818,0 0,-4.1565 z" />
                <path
                   inkscape:connector-curvature="0"
                   id="path5579"
                   style="fill:#000000;fill-opacity:1;fill-rule:evenodd;stroke:none"
                   d="m 265.0194,266.5744 11.7818,0 0,4.1565 -11.7818,0 0,-4.1565 z" />
                <path
                   inkscape:connector-curvature="0"
                   id="path5581"
                   style="fill:#000000;fill-opacity:1;fill-rule:evenodd;stroke:none"
                   d="m 265.0194,259.9933 11.7818,0 0,4.1565 -11.7818,0 0,-4.1565 z" />
                <path
                   inkscape:connector-curvature="0"
                   id="path5583"
                   style="fill:#000000;fill-opacity:1;fill-rule:evenodd;stroke:none"
                   d="m 346.8029,106.1898 0,-12.2755 9.5502,0 0,12.2755 -9.5502,0 z" />
                <path
                   inkscape:connector-curvature="0"
                   id="path5585"
                   style="fill:#000000;fill-opacity:1;fill-rule:evenodd;stroke:none"
                   d="m 346.8029,246.3359 0,-12.2721 9.5502,0 0,12.2721 -9.5502,0 z" />
                <path
                   inkscape:connector-curvature="0"
                   id="path5587"
                   style="fill:#000000;fill-opacity:1;fill-rule:evenodd;stroke:none"
                   d="m 246.0748,23.9989 0,12.272 -9.5502,0 0,-12.272 9.5502,0 z" />
                <path
                   inkscape:connector-curvature="0"
                   id="path5589"
                   style="fill:#000000;fill-opacity:1;fill-rule:evenodd;stroke:none"
                   d="m 328.087,66.1698 -11.7818,0 0,-4.1564 11.7818,0 0,4.1564 z" />
                <path
                   inkscape:connector-curvature="0"
                   id="path5591"
                   style="fill:#000000;fill-opacity:1;fill-rule:evenodd;stroke:none"
                   d="m 276.8012,66.1698 -11.7818,0 0,-4.1564 11.7818,0 0,4.1564 z" />
                <path
                   inkscape:connector-curvature="0"
                   id="path5593"
                   style="fill:#000000;fill-opacity:1;fill-rule:evenodd;stroke:none"
                   d="m 294.474,102.539 0,-11.7767 4.1583,0 0,11.7767 -4.1583,0 z" />
                <path
                   inkscape:connector-curvature="0"
                   id="path5595"
                   style="fill:#000000;fill-opacity:1;fill-rule:evenodd;stroke:none"
                   d="m 305.2163,62.3597 0,17.3187 -17.3263,0 0,-17.3187 17.3263,0 z" />
                <path
                   inkscape:connector-curvature="0"
                   id="path5597"
                   style="fill:#000000;fill-opacity:1;fill-rule:evenodd;stroke:none"
                   d="m 298.6323,223.6242 0,11.7766 -4.1583,0 0,-11.7766 4.1583,0 z" />
                <path
                   inkscape:connector-curvature="0"
                   id="path5599"
                   style="fill:#000000;fill-opacity:1;fill-rule:evenodd;stroke:none"
                   d="m 246.0748,164.0445 0,12.272 -9.5502,0 0,-12.272 9.5502,0 z" />
                <path
                   inkscape:connector-curvature="0"
                   id="path5601"
                   style="fill:#000000;fill-opacity:1;fill-rule:evenodd;stroke:none"
                   d="m 287.89,263.8034 0,-17.3186 17.3263,0 0,17.3186 -17.3263,0 z" />
                <path
                   inkscape:connector-curvature="0"
                   id="path5603"
                   style="fill:#000000;fill-opacity:1;fill-rule:evenodd;stroke:none"
                   d="m 316.3052,253.0659 11.7818,0 0,4.1565 -11.7818,0 0,-4.1565 z" />
                <path
                   inkscape:connector-curvature="0"
                   id="path5605"
                   style="fill:#000000;fill-opacity:1;fill-rule:evenodd;stroke:none"
                   d="m 298.6323,274.8874 0,11.7767 -4.1583,0 0,-11.7767 4.1583,0 z" />
                <path
                   inkscape:connector-curvature="0"
                   id="path5607"
                   style="fill:#000000;fill-opacity:1;fill-rule:evenodd;stroke:none"
                   d="m 265.0194,253.0659 11.7818,0 0,4.1565 -11.7818,0 0,-4.1565 z" />
                <path
                   inkscape:connector-curvature="0"
                   id="path5609"
                   style="fill:#000000;fill-opacity:1;fill-rule:evenodd;stroke:none"
                   d="m 246.0748,304.0797 0,12.272 -9.5502,0 0,-12.272 9.5502,0 z" />
                <path
                   inkscape:connector-curvature="0"
                   id="path5611"
                   style="fill:#000000;fill-opacity:1;fill-rule:evenodd;stroke:none"
                   d="m 246.0748,418.0988 0,12.272 -9.5502,0 0,-12.272 9.5502,0 z" />
                <path
                   inkscape:connector-curvature="0"
                   id="path5613"
                   style="fill:#000000;fill-opacity:1;fill-rule:evenodd;stroke:none"
                   d="m 346.8029,36.2744 0,-12.272 9.5502,0 0,12.272 -9.5502,0 z" />
                <path
                   inkscape:connector-curvature="0"
                   id="path5615"
                   style="fill:#000000;fill-opacity:1;fill-rule:evenodd;stroke:none"
                   d="m 346.8029,176.313 0,-12.272 9.5502,0 0,12.272 -9.5502,0 z" />
                <path
                   inkscape:connector-curvature="0"
                   id="path5617"
                   style="fill:#000000;fill-opacity:1;fill-rule:evenodd;stroke:none"
                   d="m 346.8029,316.3552 0,-12.272 9.5502,0 0,12.272 -9.5502,0 z" />
                <path
                   inkscape:connector-curvature="0"
                   id="path5619"
                   style="fill:#000000;fill-opacity:1;fill-rule:evenodd;stroke:none"
                   d="m 346.8029,430.3743 0,-12.272 9.5502,0 0,12.272 -9.5502,0 z" />
                <path
                   inkscape:connector-curvature="0"
                   id="path5621"
                   style="fill:none;stroke:#000000;stroke-width:1.36530006;stroke-linecap:round;stroke-linejoin:miter;stroke-miterlimit:10;stroke-dasharray:none;stroke-opacity:1"
                   d="m 209.7485,2.8632 0,0" />
                <path
                   inkscape:connector-curvature="0"
                   id="path5623"
                   style="fill:none;stroke:#000000;stroke-width:1.36530006;stroke-linecap:round;stroke-linejoin:miter;stroke-miterlimit:10;stroke-dasharray:none;stroke-opacity:1"
                   d="m 201.0542,348.7272 0,1.8739" />
                <path
                   inkscape:connector-curvature="0"
                   id="path5625"
                   style="fill:none;stroke:#000000;stroke-width:1.36530006;stroke-linecap:round;stroke-linejoin:miter;stroke-miterlimit:10;stroke-dasharray:none;stroke-opacity:1"
                   d="m 255.625,363.5589 0,0.6789" />
                <path
                   inkscape:connector-curvature="0"
                   id="path5627"
                   style="fill:none;stroke:#000000;stroke-width:1.36530006;stroke-linecap:round;stroke-linejoin:miter;stroke-miterlimit:10;stroke-dasharray:none;stroke-opacity:1"
                   d="m 337.4813,363.5589 0,0.6789" />
                <path
                   inkscape:connector-curvature="0"
                   id="path5629"
                   style="fill:none;stroke:#000000;stroke-width:1.36530006;stroke-linecap:round;stroke-linejoin:miter;stroke-miterlimit:10;stroke-dasharray:none;stroke-opacity:1"
                   d="m 392.0522,9.6833 0,1.8739" />
                <path
                   inkscape:connector-curvature="0"
                   id="path5631"
                   style="fill:none;stroke:#000000;stroke-width:1.36530006;stroke-linecap:round;stroke-linejoin:miter;stroke-miterlimit:10;stroke-dasharray:none;stroke-opacity:1"
                   d="m 383.3544,452.8747 1.8747,0" />
                <path
                   inkscape:connector-curvature="0"
                   id="path5633"
                   style="fill:none;stroke:#000000;stroke-width:1.36530006;stroke-linecap:round;stroke-linejoin:miter;stroke-miterlimit:10;stroke-dasharray:none;stroke-opacity:1"
                   d="m 201.0542,377.8745 0,69.5483" />
                <path
                   inkscape:connector-curvature="0"
                   id="path5635"
                   style="fill:none;stroke:#000000;stroke-width:1.36530006;stroke-linecap:round;stroke-linejoin:miter;stroke-miterlimit:10;stroke-dasharray:none;stroke-opacity:1"
                   d="m 392.0522,377.8745 0,68.1836" />
                <path
                   inkscape:connector-curvature="0"
                   id="path5637"
                   style="fill:none;stroke:#000000;stroke-width:1.36530006;stroke-linecap:round;stroke-linejoin:miter;stroke-miterlimit:10;stroke-dasharray:none;stroke-opacity:1"
                   d="m 201.0542,11.5572 0,337.17" />
                <path
                   inkscape:connector-curvature="0"
                   id="path5639"
                   style="fill:none;stroke:#000000;stroke-width:1.36530006;stroke-linecap:round;stroke-linejoin:miter;stroke-miterlimit:10;stroke-dasharray:none;stroke-opacity:1"
                   d="m 392.0522,11.5572 0,339.0439" />
                <path
                   inkscape:connector-curvature="0"
                   id="path5641"
                   style="fill:none;stroke:#000000;stroke-width:1.36530006;stroke-linecap:round;stroke-linejoin:miter;stroke-miterlimit:10;stroke-dasharray:none;stroke-opacity:1"
                   d="m 343.6218,357.4177 41.6073,0" />
                <path
                   inkscape:connector-curvature="0"
                   id="path5643"
                   style="fill:none;stroke:#000000;stroke-width:1.36530006;stroke-linecap:round;stroke-linejoin:miter;stroke-miterlimit:10;stroke-dasharray:none;stroke-opacity:1"
                   d="m 344.301,371.0544 40.9281,0" />
                <path
                   inkscape:connector-curvature="0"
                   id="path5645"
                   style="fill:none;stroke:#000000;stroke-width:1.36530006;stroke-linecap:round;stroke-linejoin:miter;stroke-miterlimit:10;stroke-dasharray:none;stroke-opacity:1"
                   d="m 209.7485,2.8632 175.4806,0" />
                <path
                   inkscape:connector-curvature="0"
                   id="path5647"
                   style="fill:none;stroke:#000000;stroke-width:1.36530006;stroke-linecap:round;stroke-linejoin:miter;stroke-miterlimit:10;stroke-dasharray:none;stroke-opacity:1"
                   d="m 207.8738,357.4177 41.6073,0" />
                <path
                   inkscape:connector-curvature="0"
                   id="path5649"
                   style="fill:none;stroke:#000000;stroke-width:1.36530006;stroke-linecap:round;stroke-linejoin:miter;stroke-miterlimit:10;stroke-dasharray:none;stroke-opacity:1"
                   d="m 207.8738,371.0544 40.9282,0" />
                <path
                   inkscape:connector-curvature="0"
                   id="path5651"
                   style="fill:none;stroke:#000000;stroke-width:1.36530006;stroke-linecap:round;stroke-linejoin:miter;stroke-miterlimit:10;stroke-dasharray:none;stroke-opacity:1"
                   d="m 206.512,452.8747 176.8424,0" />
                <path
                   inkscape:connector-curvature="0"
                   id="path5653"
                   style="fill:none;stroke:#000000;stroke-width:1.36530006;stroke-linecap:round;stroke-linejoin:miter;stroke-miterlimit:10;stroke-dasharray:none;stroke-opacity:1"
                   d="m 201.0542,350.6011 c 0,3.7647 3.0532,6.8166 6.8196,6.8166" />
                <path
                   inkscape:connector-curvature="0"
                   id="path5655"
                   style="fill:none;stroke:#000000;stroke-width:1.36530006;stroke-linecap:round;stroke-linejoin:miter;stroke-miterlimit:10;stroke-dasharray:none;stroke-opacity:1"
                   d="m 207.8738,371.0579 c -3.7664,0 -6.8196,3.0519 -6.8196,6.8166 0,0 0,0 0,0" />
                <path
                   inkscape:connector-curvature="0"
                   id="path5657"
                   style="fill:none;stroke:#000000;stroke-width:1.36530006;stroke-linecap:round;stroke-linejoin:miter;stroke-miterlimit:10;stroke-dasharray:none;stroke-opacity:1"
                   d="m 255.625,363.5589 c 0,-3.3917 -2.7507,-6.1412 -6.1439,-6.1412" />
                <path
                   inkscape:connector-curvature="0"
                   id="path5659"
                   style="fill:none;stroke:#000000;stroke-width:1.36530006;stroke-linecap:round;stroke-linejoin:miter;stroke-miterlimit:10;stroke-dasharray:none;stroke-opacity:1"
                   d="m 343.6218,357.4177 c -3.3932,0 -6.1439,2.7495 -6.1439,6.1412 0,0 0,0 0,0" />
                <path
                   inkscape:connector-curvature="0"
                   id="path5661"
                   style="fill:none;stroke:#000000;stroke-width:1.36530006;stroke-linecap:round;stroke-linejoin:miter;stroke-miterlimit:10;stroke-dasharray:none;stroke-opacity:1"
                   d="m 385.2291,357.4177 c 3.7664,0 6.8196,-3.0519 6.8196,-6.8166" />
                <path
                   inkscape:connector-curvature="0"
                   id="path5663"
                   style="fill:none;stroke:#000000;stroke-width:1.36530006;stroke-linecap:round;stroke-linejoin:miter;stroke-miterlimit:10;stroke-dasharray:none;stroke-opacity:1"
                   d="m 392.0487,377.8745 c 0,-3.7647 -3.0532,-6.8166 -6.8196,-6.8166" />
                <path
                   inkscape:connector-curvature="0"
                   id="path5665"
                   style="fill:none;stroke:#000000;stroke-width:1.36530006;stroke-linecap:round;stroke-linejoin:miter;stroke-miterlimit:10;stroke-dasharray:none;stroke-opacity:1"
                   d="m 209.7485,2.8632 c -4.8036,0 -8.6978,3.8924 -8.6978,8.694 0,0 0,0 0,0" />
                <path
                   inkscape:connector-curvature="0"
                   id="path5667"
                   style="fill:none;stroke:#000000;stroke-width:1.36530006;stroke-linecap:round;stroke-linejoin:miter;stroke-miterlimit:10;stroke-dasharray:none;stroke-opacity:1"
                   d="m 201.0542,447.4228 c 0,3.0129 2.4435,5.4554 5.4578,5.4554" />
                <path
                   inkscape:connector-curvature="0"
                   id="path5669"
                   style="fill:none;stroke:#000000;stroke-width:1.36530006;stroke-linecap:round;stroke-linejoin:miter;stroke-miterlimit:10;stroke-dasharray:none;stroke-opacity:1"
                   d="m 248.802,371.0544 c 3.7663,0 6.8196,-3.0519 6.8196,-6.8166" />
                <path
                   inkscape:connector-curvature="0"
                   id="path5671"
                   style="fill:none;stroke:#000000;stroke-width:1.36530006;stroke-linecap:round;stroke-linejoin:miter;stroke-miterlimit:10;stroke-dasharray:none;stroke-opacity:1"
                   d="m 337.4813,364.2378 c 0,3.7647 3.0533,6.8166 6.8197,6.8166" />
                <path
                   inkscape:connector-curvature="0"
                   id="path5673"
                   style="fill:none;stroke:#000000;stroke-width:1.36530006;stroke-linecap:round;stroke-linejoin:miter;stroke-miterlimit:10;stroke-dasharray:none;stroke-opacity:1"
                   d="m 392.0487,9.6833 c 0,-3.7647 -3.0532,-6.8166 -6.8196,-6.8166" />
                <path
                   inkscape:connector-curvature="0"
                   id="path5675"
                   style="fill:none;stroke:#000000;stroke-width:1.36530006;stroke-linecap:round;stroke-linejoin:miter;stroke-miterlimit:10;stroke-dasharray:none;stroke-opacity:1"
                   d="m 385.2291,452.8747 c 3.7664,0 6.8196,-3.0519 6.8196,-6.8166" />
              </g>
            </g>
          </g>
        </g>
      </g>
    </g>
  </g>
</svg>
