G04 Layer_Color=8421504*
%FSLAX24Y24*%
%MOIN*%
G70*
G01*
G75*
%ADD10R,0.0512X0.0413*%
%ADD11R,0.2200X0.0830*%
%ADD12R,0.0591X0.1024*%
%ADD13R,0.1000X0.0470*%
%ADD14O,0.0532X0.0120*%
%ADD15R,0.0532X0.0120*%
D10*
X3537Y4500D02*
D03*
X4463D02*
D03*
Y5800D02*
D03*
X3537D02*
D03*
Y3200D02*
D03*
X4463D02*
D03*
X3537Y1900D02*
D03*
X4463D02*
D03*
X3537Y600D02*
D03*
X4463D02*
D03*
Y7100D02*
D03*
X3537D02*
D03*
X4463Y8400D02*
D03*
X3537D02*
D03*
D11*
X4500Y10700D02*
D03*
X8240D02*
D03*
D12*
X909Y4000D02*
D03*
X2091D02*
D03*
X909Y6000D02*
D03*
X2091D02*
D03*
D13*
X17000Y17000D02*
D03*
Y16000D02*
D03*
Y15000D02*
D03*
X14800Y17000D02*
D03*
Y16000D02*
D03*
Y15000D02*
D03*
X13000Y17000D02*
D03*
Y16000D02*
D03*
Y15000D02*
D03*
X10800Y17000D02*
D03*
Y16000D02*
D03*
Y15000D02*
D03*
X9200Y17100D02*
D03*
Y16100D02*
D03*
Y15100D02*
D03*
X7000Y17100D02*
D03*
Y16100D02*
D03*
Y15100D02*
D03*
X5000Y17000D02*
D03*
Y16000D02*
D03*
Y15000D02*
D03*
X2800Y17000D02*
D03*
Y16000D02*
D03*
Y15000D02*
D03*
D14*
X2000Y10012D02*
D03*
Y9756D02*
D03*
Y9500D02*
D03*
Y9244D02*
D03*
D15*
Y8988D02*
D03*
M02*
