G04 Layer_Color=8388736*
%FSLAX24Y24*%
%MOIN*%
G70*
G01*
G75*
%ADD37R,0.0592X0.0493*%
%ADD38R,0.2280X0.0910*%
%ADD39R,0.0671X0.1104*%
%ADD40R,0.1080X0.0550*%
%ADD41O,0.0612X0.0200*%
%ADD42R,0.0612X0.0200*%
%ADD43C,0.0552*%
%ADD44R,0.0671X0.0671*%
%ADD45C,0.0671*%
%ADD46C,0.1261*%
%ADD47C,0.0580*%
%ADD48R,0.0671X0.0671*%
G04:AMPARAMS|DCode=49|XSize=31.6mil|YSize=59.2mil|CornerRadius=15.8mil|HoleSize=0mil|Usage=FLASHONLY|Rotation=270.000|XOffset=0mil|YOffset=0mil|HoleType=Round|Shape=RoundedRectangle|*
%AMROUNDEDRECTD49*
21,1,0.0316,0.0276,0,0,270.0*
21,1,0.0000,0.0592,0,0,270.0*
1,1,0.0316,-0.0138,0.0000*
1,1,0.0316,-0.0138,0.0000*
1,1,0.0316,0.0138,0.0000*
1,1,0.0316,0.0138,0.0000*
%
%ADD49ROUNDEDRECTD49*%
G04:AMPARAMS|DCode=50|XSize=35.6mil|YSize=47.4mil|CornerRadius=17.8mil|HoleSize=0mil|Usage=FLASHONLY|Rotation=0.000|XOffset=0mil|YOffset=0mil|HoleType=Round|Shape=RoundedRectangle|*
%AMROUNDEDRECTD50*
21,1,0.0356,0.0118,0,0,0.0*
21,1,0.0000,0.0474,0,0,0.0*
1,1,0.0356,0.0000,-0.0059*
1,1,0.0356,0.0000,-0.0059*
1,1,0.0356,0.0000,0.0059*
1,1,0.0356,0.0000,0.0059*
%
%ADD50ROUNDEDRECTD50*%
%ADD51C,0.0380*%
D37*
X3537Y4500D02*
D03*
X4463D02*
D03*
Y5800D02*
D03*
X3537D02*
D03*
Y3200D02*
D03*
X4463D02*
D03*
X3537Y1900D02*
D03*
X4463D02*
D03*
X3537Y600D02*
D03*
X4463D02*
D03*
Y7100D02*
D03*
X3537D02*
D03*
X4463Y8400D02*
D03*
X3537D02*
D03*
D38*
X4500Y10700D02*
D03*
X8240D02*
D03*
D39*
X909Y4000D02*
D03*
X2091D02*
D03*
X909Y6000D02*
D03*
X2091D02*
D03*
D40*
X17000Y17000D02*
D03*
Y16000D02*
D03*
Y15000D02*
D03*
X14800Y17000D02*
D03*
Y16000D02*
D03*
Y15000D02*
D03*
X13000Y17000D02*
D03*
Y16000D02*
D03*
Y15000D02*
D03*
X10800Y17000D02*
D03*
Y16000D02*
D03*
Y15000D02*
D03*
X9200Y17100D02*
D03*
Y16100D02*
D03*
Y15100D02*
D03*
X7000Y17100D02*
D03*
Y16100D02*
D03*
Y15100D02*
D03*
X5000Y17000D02*
D03*
Y16000D02*
D03*
Y15000D02*
D03*
X2800Y17000D02*
D03*
Y16000D02*
D03*
Y15000D02*
D03*
D41*
X2000Y10012D02*
D03*
Y9756D02*
D03*
Y9500D02*
D03*
Y9244D02*
D03*
D42*
Y8988D02*
D03*
D43*
X2300Y2500D02*
D03*
X700D02*
D03*
D44*
X12000Y9500D02*
D03*
X13208Y1500D02*
D03*
Y5500D02*
D03*
D45*
X12000Y10500D02*
D03*
X13000Y9500D02*
D03*
Y10500D02*
D03*
X14000Y9500D02*
D03*
Y10500D02*
D03*
X15000Y9500D02*
D03*
Y10500D02*
D03*
X16000Y9500D02*
D03*
Y10500D02*
D03*
X15208Y2500D02*
D03*
Y1500D02*
D03*
X14208Y2500D02*
D03*
Y1500D02*
D03*
X13208Y2500D02*
D03*
X15208Y6500D02*
D03*
Y5500D02*
D03*
X14208Y6500D02*
D03*
Y5500D02*
D03*
X13208Y6500D02*
D03*
X18300Y11650D02*
D03*
Y9650D02*
D03*
Y8650D02*
D03*
Y7650D02*
D03*
Y6650D02*
D03*
Y5650D02*
D03*
Y4650D02*
D03*
Y3650D02*
D03*
Y10650D02*
D03*
D46*
X1000Y18000D02*
D03*
X18000D02*
D03*
X1000Y1000D02*
D03*
X18000D02*
D03*
D47*
X9528Y5500D02*
D03*
X7528D02*
D03*
X9528Y2000D02*
D03*
X7528D02*
D03*
X6400Y13650D02*
D03*
D48*
X18300Y12650D02*
D03*
D49*
X937Y10878D02*
D03*
Y8122D02*
D03*
D50*
X2000Y10484D02*
D03*
Y8516D02*
D03*
D51*
X3537Y2550D02*
D03*
X7140Y11900D02*
D03*
X13040Y12580D02*
D03*
X6610Y6190D02*
D03*
X11590Y8240D02*
D03*
X14250Y7750D02*
D03*
X3220Y12620D02*
D03*
X12358Y12998D02*
D03*
X5750Y3130D02*
D03*
X9640Y9400D02*
D03*
X9200Y12275D02*
D03*
X9050Y11480D02*
D03*
X12405Y11940D02*
D03*
X1800Y7800D02*
D03*
X3450Y9210D02*
D03*
X2850Y3800D02*
D03*
X1050Y9750D02*
D03*
X2935Y9480D02*
D03*
X9850Y13450D02*
D03*
X15938Y17229D02*
D03*
X14700Y12550D02*
D03*
X16763Y13222D02*
D03*
X13600Y13950D02*
D03*
X14550Y14200D02*
D03*
X10700Y17700D02*
D03*
X16850Y9650D02*
D03*
X10800Y15450D02*
D03*
X13250Y15600D02*
D03*
X14800Y15550D02*
D03*
X16900Y14450D02*
D03*
X4400Y9850D02*
D03*
X900Y6900D02*
D03*
X18450Y17100D02*
D03*
X14200Y17550D02*
D03*
X4463Y1090D02*
D03*
X8699Y17905D02*
D03*
X9200Y18400D02*
D03*
X9850Y18300D02*
D03*
X10200Y17750D02*
D03*
X14650Y17550D02*
D03*
X5750Y16550D02*
D03*
X14000Y15600D02*
D03*
X4850Y9860D02*
D03*
X15140Y13900D02*
D03*
X13170Y13830D02*
D03*
X8720Y18580D02*
D03*
X14250Y12550D02*
D03*
X15180Y12540D02*
D03*
M02*
