G04 Layer_Color=128*
%FSLAX24Y24*%
%MOIN*%
G70*
G01*
G75*
%ADD10R,0.0512X0.0413*%
%ADD27R,0.0358X0.0480*%
%ADD28R,0.0413X0.0512*%
%ADD29R,0.1260X0.0748*%
%ADD30R,0.0354X0.0748*%
%ADD31O,0.0217X0.0650*%
%ADD32O,0.0650X0.0217*%
D10*
X4463Y4500D02*
D03*
X3537D02*
D03*
X4463Y5800D02*
D03*
X3537D02*
D03*
D27*
X3356Y7195D02*
D03*
X4644D02*
D03*
X3356Y8495D02*
D03*
X4644D02*
D03*
D28*
X4354Y15309D02*
D03*
Y14384D02*
D03*
X5728Y15309D02*
D03*
Y14384D02*
D03*
X7102Y15309D02*
D03*
Y14384D02*
D03*
X8476Y15309D02*
D03*
Y14384D02*
D03*
X9850Y15309D02*
D03*
Y14384D02*
D03*
X2980Y15309D02*
D03*
Y14384D02*
D03*
D29*
X8500Y9161D02*
D03*
D30*
X7594Y6839D02*
D03*
X8500D02*
D03*
X9406D02*
D03*
D31*
X15277Y16500D02*
D03*
X14962D02*
D03*
X14647D02*
D03*
X14332D02*
D03*
X14017D02*
D03*
X13702D02*
D03*
X13387D02*
D03*
X13073D02*
D03*
Y13193D02*
D03*
X13387D02*
D03*
X13702D02*
D03*
X14017D02*
D03*
X14332D02*
D03*
X14647D02*
D03*
X14962D02*
D03*
X15277D02*
D03*
D32*
X12521Y15949D02*
D03*
Y15634D02*
D03*
Y15319D02*
D03*
Y15004D02*
D03*
Y14689D02*
D03*
Y14374D02*
D03*
Y14059D02*
D03*
Y13744D02*
D03*
X15828D02*
D03*
Y14059D02*
D03*
Y14374D02*
D03*
Y14689D02*
D03*
Y15004D02*
D03*
Y15319D02*
D03*
Y15634D02*
D03*
Y15949D02*
D03*
M02*
