G04 Layer_Color=32896*
%FSLAX24Y24*%
%MOIN*%
G70*
G01*
G75*
%ADD16C,0.0100*%
%ADD33C,0.0063*%
%ADD34C,0.0079*%
%ADD35C,0.0060*%
%ADD58C,0.0098*%
%ADD59C,0.0236*%
D16*
X8900Y10350D02*
Y9750D01*
X8500D01*
X8300D02*
X8100D01*
X8200D01*
Y10350D01*
X8300Y10250D01*
X14500Y17650D02*
Y17150D01*
X14400Y17050D01*
X14200D01*
X14100Y17150D01*
Y17650D01*
X13900Y17050D02*
X13700D01*
X13800D01*
Y17650D01*
X13900Y17550D01*
D33*
X3173Y4185D02*
Y4815D01*
X4827D01*
Y4185D02*
Y4815D01*
X3173Y4185D02*
X4827D01*
X3173Y5485D02*
Y6115D01*
X4827D01*
Y5485D02*
Y6115D01*
X3173Y5485D02*
X4827D01*
X4039Y14020D02*
X4669D01*
X4039D02*
Y15673D01*
X4669D01*
Y14020D02*
Y15673D01*
X5413Y14020D02*
X6043D01*
X5413D02*
Y15673D01*
X6043D01*
Y14020D02*
Y15673D01*
X6787Y14020D02*
X7417D01*
X6787D02*
Y15673D01*
X7417D01*
Y14020D02*
Y15673D01*
X8161Y14020D02*
X8791D01*
X8161D02*
Y15673D01*
X8791D01*
Y14020D02*
Y15673D01*
X9535Y14020D02*
X10165D01*
X9535D02*
Y15673D01*
X10165D01*
Y14020D02*
Y15673D01*
X2665Y14020D02*
X3295D01*
X2665D02*
Y15673D01*
X3295D01*
Y14020D02*
Y15673D01*
D34*
X3693Y6881D02*
Y7510D01*
Y6881D02*
X4307D01*
X3693Y7510D02*
X4307D01*
Y6881D02*
Y7510D01*
X3693Y8181D02*
Y8810D01*
Y8181D02*
X4307D01*
X3693Y8810D02*
X4307D01*
Y8181D02*
Y8810D01*
X7181Y7331D02*
Y8669D01*
X9819Y7331D02*
Y8669D01*
X7181D02*
X9819D01*
X7181Y7331D02*
X9819D01*
X13013Y13685D02*
X15336D01*
X13013Y16008D02*
X15336D01*
X13013Y13685D02*
Y16008D01*
X15336Y13685D02*
Y16008D01*
D35*
X3033Y16133D02*
X3100Y16200D01*
X3233D01*
X3300Y16133D01*
Y15867D01*
X3233Y15800D01*
X3100D01*
X3033Y15867D01*
X2634Y16200D02*
X2900D01*
Y16000D01*
X2767Y16067D01*
X2700D01*
X2634Y16000D01*
Y15867D01*
X2700Y15800D01*
X2833D01*
X2900Y15867D01*
X4233Y8000D02*
Y7600D01*
X4033D01*
X3967Y7667D01*
Y7933D01*
X4033Y8000D01*
X4233D01*
X3833Y7600D02*
X3700D01*
X3767D01*
Y8000D01*
X3833Y7933D01*
X4300Y9300D02*
Y8900D01*
X4100D01*
X4033Y8967D01*
Y9233D01*
X4100Y9300D01*
X4300D01*
X3634Y8900D02*
X3900D01*
X3634Y9167D01*
Y9233D01*
X3700Y9300D01*
X3833D01*
X3900Y9233D01*
X4233Y4900D02*
Y5300D01*
X4033D01*
X3967Y5233D01*
Y5100D01*
X4033Y5033D01*
X4233D01*
X4100D02*
X3967Y4900D01*
X3833D02*
X3700D01*
X3767D01*
Y5300D01*
X3833Y5233D01*
X4300Y6200D02*
Y6600D01*
X4100D01*
X4033Y6533D01*
Y6400D01*
X4100Y6333D01*
X4300D01*
X4167D02*
X4033Y6200D01*
X3634D02*
X3900D01*
X3634Y6467D01*
Y6533D01*
X3700Y6600D01*
X3833D01*
X3900Y6533D01*
X4694Y15800D02*
Y16200D01*
X4494D01*
X4427Y16133D01*
Y16000D01*
X4494Y15933D01*
X4694D01*
X4561D02*
X4427Y15800D01*
X4094D02*
Y16200D01*
X4294Y16000D01*
X4028D01*
X6038Y15800D02*
Y16200D01*
X5838D01*
X5771Y16133D01*
Y16000D01*
X5838Y15933D01*
X6038D01*
X5905D02*
X5771Y15800D01*
X5372Y16200D02*
X5638D01*
Y16000D01*
X5505Y16067D01*
X5438D01*
X5372Y16000D01*
Y15867D01*
X5438Y15800D01*
X5571D01*
X5638Y15867D01*
X7432Y15800D02*
Y16200D01*
X7232D01*
X7165Y16133D01*
Y16000D01*
X7232Y15933D01*
X7432D01*
X7299D02*
X7165Y15800D01*
X6766Y16200D02*
X6899Y16133D01*
X7032Y16000D01*
Y15867D01*
X6965Y15800D01*
X6832D01*
X6766Y15867D01*
Y15933D01*
X6832Y16000D01*
X7032D01*
X8776Y15800D02*
Y16200D01*
X8576D01*
X8509Y16133D01*
Y16000D01*
X8576Y15933D01*
X8776D01*
X8643D02*
X8509Y15800D01*
X8376Y16200D02*
X8110D01*
Y16133D01*
X8376Y15867D01*
Y15800D01*
X10200D02*
Y16200D01*
X10000D01*
X9933Y16133D01*
Y16000D01*
X10000Y15933D01*
X10200D01*
X10067D02*
X9933Y15800D01*
X9800Y16133D02*
X9733Y16200D01*
X9600D01*
X9534Y16133D01*
Y16067D01*
X9600Y16000D01*
X9534Y15933D01*
Y15867D01*
X9600Y15800D01*
X9733D01*
X9800Y15867D01*
Y15933D01*
X9733Y16000D01*
X9800Y16067D01*
Y16133D01*
X9733Y16000D02*
X9600D01*
D58*
X3406Y6739D02*
G03*
X3406Y6739I-49J0D01*
G01*
Y8039D02*
G03*
X3406Y8039I-49J0D01*
G01*
X9848Y6839D02*
G03*
X9848Y6839I-49J0D01*
G01*
X15878Y16274D02*
G03*
X15878Y16274I-49J0D01*
G01*
D59*
X15061Y15614D02*
G03*
X15061Y15614I-118J0D01*
G01*
M02*
