M48
;Layer_Color=9474304
;FILE_FORMAT=2:4
INCH,LZ
;TYPE=PLATED
T1F00S00C0.0160
T2F00S00C0.0276
T3F00S00C0.0280
T4F00S00C0.0354
;TYPE=NON_PLATED
T7F00S00C0.1181
%
T01
X004463Y00109
X003537Y00255
X00285Y0038
X00575Y00313
X00661Y00619
X00714Y0119
X00905Y01148
X0092Y012275
X00985Y01345
X0108Y01545
X0107Y0177
X0102Y01775
X00985Y0183
X0092Y0184
X00872Y01858
X008699Y017905
X00575Y01655
X01325Y0156
X014
X0148Y01555
X01455Y0142
X01514Y0139
X01518Y01254
X0147Y01255
X01425
X01304Y01258
X012358Y012998
X012405Y01194
X01317Y01383
X0136Y01395
X0169Y01445
X016763Y013222
X01685Y00965
X01425Y00775
X01159Y00824
X00964Y0094
X0142Y01755
X01465
X015938Y017229
X01845Y0171
X00322Y01262
X002935Y00948
X00345Y00921
X0044Y00985
X00485Y00986
X00105Y00975
X0018Y0078
X0009Y0069
T02
X0007Y0025
X0023
T03
X007528Y002
X009528
Y0055
X007528
X0064Y01365
T04
X013208Y0015
X014208
X015208
Y0025
X014208
X013208
Y0055
X014208
X015208
X0183Y00465
Y00365
Y00565
Y00665
Y00765
Y00865
Y00965
Y01065
Y01165
Y01265
X016Y0105
X015
X014
X013
X012
Y0095
X013
X014
X015
X016
X015208Y0065
X014208
X013208
T07
X001Y001
X018
Y018
X001
M30
