G04 Layer_Color=16711935*
%FSLAX24Y24*%
%MOIN*%
G70*
G01*
G75*
%ADD37R,0.0592X0.0493*%
%ADD43C,0.0552*%
%ADD44R,0.0671X0.0671*%
%ADD45C,0.0671*%
%ADD46C,0.1261*%
%ADD47C,0.0580*%
%ADD48R,0.0671X0.0671*%
G04:AMPARAMS|DCode=49|XSize=31.6mil|YSize=59.2mil|CornerRadius=15.8mil|HoleSize=0mil|Usage=FLASHONLY|Rotation=270.000|XOffset=0mil|YOffset=0mil|HoleType=Round|Shape=RoundedRectangle|*
%AMROUNDEDRECTD49*
21,1,0.0316,0.0276,0,0,270.0*
21,1,0.0000,0.0592,0,0,270.0*
1,1,0.0316,-0.0138,0.0000*
1,1,0.0316,-0.0138,0.0000*
1,1,0.0316,0.0138,0.0000*
1,1,0.0316,0.0138,0.0000*
%
%ADD49ROUNDEDRECTD49*%
G04:AMPARAMS|DCode=50|XSize=35.6mil|YSize=47.4mil|CornerRadius=17.8mil|HoleSize=0mil|Usage=FLASHONLY|Rotation=0.000|XOffset=0mil|YOffset=0mil|HoleType=Round|Shape=RoundedRectangle|*
%AMROUNDEDRECTD50*
21,1,0.0356,0.0118,0,0,0.0*
21,1,0.0000,0.0474,0,0,0.0*
1,1,0.0356,0.0000,-0.0059*
1,1,0.0356,0.0000,-0.0059*
1,1,0.0356,0.0000,0.0059*
1,1,0.0356,0.0000,0.0059*
%
%ADD50ROUNDEDRECTD50*%
%ADD51C,0.0380*%
%ADD52R,0.0438X0.0560*%
%ADD53R,0.0493X0.0592*%
%ADD54R,0.1340X0.0828*%
%ADD55R,0.0434X0.0828*%
%ADD56O,0.0297X0.0730*%
%ADD57O,0.0730X0.0297*%
D37*
X4463Y4500D02*
D03*
X3537D02*
D03*
X4463Y5800D02*
D03*
X3537D02*
D03*
D43*
X2300Y2500D02*
D03*
X700D02*
D03*
D44*
X12000Y9500D02*
D03*
X13208Y1500D02*
D03*
Y5500D02*
D03*
D45*
X12000Y10500D02*
D03*
X13000Y9500D02*
D03*
Y10500D02*
D03*
X14000Y9500D02*
D03*
Y10500D02*
D03*
X15000Y9500D02*
D03*
Y10500D02*
D03*
X16000Y9500D02*
D03*
Y10500D02*
D03*
X15208Y2500D02*
D03*
Y1500D02*
D03*
X14208Y2500D02*
D03*
Y1500D02*
D03*
X13208Y2500D02*
D03*
X15208Y6500D02*
D03*
Y5500D02*
D03*
X14208Y6500D02*
D03*
Y5500D02*
D03*
X13208Y6500D02*
D03*
X18300Y11650D02*
D03*
Y9650D02*
D03*
Y8650D02*
D03*
Y7650D02*
D03*
Y6650D02*
D03*
Y5650D02*
D03*
Y4650D02*
D03*
Y3650D02*
D03*
Y10650D02*
D03*
D46*
X1000Y18000D02*
D03*
X18000D02*
D03*
X1000Y1000D02*
D03*
X18000D02*
D03*
D47*
X9528Y5500D02*
D03*
X7528D02*
D03*
X9528Y2000D02*
D03*
X7528D02*
D03*
X6400Y13650D02*
D03*
D48*
X18300Y12650D02*
D03*
D49*
X937Y10878D02*
D03*
Y8122D02*
D03*
D50*
X2000Y10484D02*
D03*
Y8516D02*
D03*
D51*
X3537Y2550D02*
D03*
X7140Y11900D02*
D03*
X13040Y12580D02*
D03*
X6610Y6190D02*
D03*
X11590Y8240D02*
D03*
X14250Y7750D02*
D03*
X3220Y12620D02*
D03*
X12358Y12998D02*
D03*
X5750Y3130D02*
D03*
X9640Y9400D02*
D03*
X9200Y12275D02*
D03*
X9050Y11480D02*
D03*
X12405Y11940D02*
D03*
X1800Y7800D02*
D03*
X3450Y9210D02*
D03*
X2850Y3800D02*
D03*
X1050Y9750D02*
D03*
X2935Y9480D02*
D03*
X9850Y13450D02*
D03*
X15938Y17229D02*
D03*
X14700Y12550D02*
D03*
X16763Y13222D02*
D03*
X13600Y13950D02*
D03*
X14550Y14200D02*
D03*
X10700Y17700D02*
D03*
X16850Y9650D02*
D03*
X10800Y15450D02*
D03*
X13250Y15600D02*
D03*
X14800Y15550D02*
D03*
X16900Y14450D02*
D03*
X4400Y9850D02*
D03*
X900Y6900D02*
D03*
X18450Y17100D02*
D03*
X14200Y17550D02*
D03*
X4463Y1090D02*
D03*
X8699Y17905D02*
D03*
X9200Y18400D02*
D03*
X9850Y18300D02*
D03*
X10200Y17750D02*
D03*
X14650Y17550D02*
D03*
X5750Y16550D02*
D03*
X14000Y15600D02*
D03*
X4850Y9860D02*
D03*
X15140Y13900D02*
D03*
X13170Y13830D02*
D03*
X8720Y18580D02*
D03*
X14250Y12550D02*
D03*
X15180Y12540D02*
D03*
D52*
X3356Y7195D02*
D03*
X4644D02*
D03*
X3356Y8495D02*
D03*
X4644D02*
D03*
D53*
X4354Y15309D02*
D03*
Y14384D02*
D03*
X5728Y15309D02*
D03*
Y14384D02*
D03*
X7102Y15309D02*
D03*
Y14384D02*
D03*
X8476Y15309D02*
D03*
Y14384D02*
D03*
X9850Y15309D02*
D03*
Y14384D02*
D03*
X2980Y15309D02*
D03*
Y14384D02*
D03*
D54*
X8500Y9161D02*
D03*
D55*
X7594Y6839D02*
D03*
X8500D02*
D03*
X9406D02*
D03*
D56*
X15277Y16500D02*
D03*
X14962D02*
D03*
X14647D02*
D03*
X14332D02*
D03*
X14017D02*
D03*
X13702D02*
D03*
X13387D02*
D03*
X13073D02*
D03*
Y13193D02*
D03*
X13387D02*
D03*
X13702D02*
D03*
X14017D02*
D03*
X14332D02*
D03*
X14647D02*
D03*
X14962D02*
D03*
X15277D02*
D03*
D57*
X12521Y15949D02*
D03*
Y15634D02*
D03*
Y15319D02*
D03*
Y15004D02*
D03*
Y14689D02*
D03*
Y14374D02*
D03*
Y14059D02*
D03*
Y13744D02*
D03*
X15828D02*
D03*
Y14059D02*
D03*
Y14374D02*
D03*
Y14689D02*
D03*
Y15004D02*
D03*
Y15319D02*
D03*
Y15634D02*
D03*
Y15949D02*
D03*
M02*
