M48
;Layer_Color=9474304
;FILE_FORMAT=2:5
INCH
;TYPE=PLATED
T1F00S00C0.01000
T2F00S00C0.03937
%
T01
X0104095Y0115354
X0107087Y0120276
X0102441Y0127165
X0105591Y0139370
X0106378Y0153740
X0115630Y0115236
X0115591Y0110079
X0127244Y0102953
X0125197Y0120906
X0126851Y0159055
X0126654Y0165945
X0124488Y0169291
X0126260Y0184055
X0115729Y0182776
X0115433Y0177953
X0106969Y0175591
X0105591Y0172047
X0105985Y0168701
X0106969Y0198701
X0114055Y0199016
X0115591Y0209409
X0107008Y0207008
Y0216850
X0104803Y0230512
X0107126Y0233465
X0107166Y0238465
X0115551Y0240945
X0124961Y0246850
X0125630Y0230276
X0125276Y0215748
X0115630Y0256299
X0115512Y0261811
X0115591Y0272205
X0106929Y0270000
X0104685Y0264961
X0125591Y0279055
T02
X0115827Y0193504
Y0225000
M30
