M48
;Layer_Color=9474304
;FILE_FORMAT=2:5
INCH,LZ
;TYPE=PLATED
T1F00S00C0.01000
T2F00S00C0.01200
T3F00S00C0.01300
T4F00S00C0.02900
T5F00S00C0.03150
T6F00S00C0.03500
T7F00S00C0.03543
T8F00S00C0.07874
T9F00S00C0.10000
T10F00S00C0.11400
T11F00S00C0.11800
T12F00S00C0.11811
T13F00S00C0.12598
T14F00S00C0.13800
%
T01
X0242351Y0143399
X0287999Y01545
X0314599
X0322851Y0154899
X041065Y01479
X0435998Y0142899
X0591351Y0135399
X0597351
X0609351Y0136399
X0613351Y0122399
X0626351Y0213524
X0631351Y0220399
X0651351Y0206899
X0669099Y02387
X0437851Y0235399
X0424251Y0234188
Y0231188
X0424751Y0241438
Y0244438
X0423851Y0255399
X0422851Y0260399
X0420351Y0262899
X0413712Y0225438
X0413851Y0210699
Y0207999
X0413751Y0202699
X0413851Y0189899
X0414051Y0185438
X0425851Y0185399
X0436351Y0200399
Y0205399
X0436451Y0210399
X0426951Y0215438
X0427232Y0220418
X0402699Y0204899
X0400851Y0169899
X0362052Y0249843
X0360283Y0256834
X0348111Y0258803
X0344732Y0258999
X0344851Y0255843
X0344732Y0268055
X0348275Y0269236
X0338251Y0267343
X0335051Y0267843
X0336852Y0270143
X0337052Y0275843
X0339951Y0275943
X0329651Y0272943
X0322751Y0280343
X0322352Y0285543
X0318352
X0321652Y0290743
X0327151Y0290943
X0329852Y0296543
X0327463Y0300732
X031567Y0301279
X0313651Y0295943
X0314452Y0307543
X0338039Y0290889
X0362752Y0299743
X0356252Y0309143
X0363851Y0268943
X0351652Y0246443
X0333314Y0257031
X0328151Y0255843
Y0258743
X0325751Y0249543
X0317566Y0247528
X0315951Y0263343
X0447851Y0291589
X0310951Y0292043
X0310152Y0296043
X0308051Y0297943
X0305651Y0294643
X0303651Y0296643
X0293851Y0310943
X0287752Y0306643
X0280152Y0302543
X0280051Y0299743
X0277151Y0298543
X0270551Y0293643
X0267566Y0301628
X0266752Y0305843
X0254341Y0300732
X0254552Y0296843
X0248252Y0303543
X0242271Y0311723
X0242251Y0282143
X0248128Y0282419
X0262551Y0281543
X0264352Y0286743
X028021Y0278685
X0279952Y0275743
X0281951Y0273643
X0289452Y0276743
X0298451Y0277543
X0295851Y0257743
X0287752Y0257643
X0286452Y0263143
X0286752Y0265943
X0281252Y0263043
X0280152Y0259943
X0276151Y0260043
X0271652Y0262143
X0258511Y0260574
X0242763Y0260968
X0310244Y0258451
X0257351Y0181399
X0254851Y0168399
X0239099Y01633
X0234399Y01745
X0235451Y0192499
X0266351Y0158399
X0266752Y0315743
X0268851Y0313743
X0273151Y0322443
X0283708Y0324354
X0288039Y0326855
X0288039Y033774
X0285251Y0341143
X0278984Y0338527
X0275441Y0338232
X0269535Y0337326
X0259752Y0342543
X0254751Y0341043
X0256751Y0347443
X0254351Y0350543
X0263452Y0347643
X0267951Y0351543
Y0354343
X0268151Y0366343
X0268952Y0372643
X0264452Y0372543
X0257951Y0372243
X0256751Y0367543
X0249633Y0372161
X0252852Y0376243
X0243451Y0373689
X0246751Y0363043
X0250014Y0360181
X0256152Y0331443
X0248151Y0316543
X0292352Y0319543
X0294752Y0321543
X0308118Y0325143
X0309299Y0340495
X0303393Y0340102
X0299062Y0339708
X0302999Y0351495
X0287251
X0277409
X0277751Y0372843
X0280552Y0377143
X0284651
X0289651Y0376743
X0294752Y0378643
X0303393Y0372385
X0303952Y0390343
X0299352
X0309651Y0389743
X0308552Y0407843
X0291752Y0407943
X0269652
X0253451Y0408043
X0242763Y0404275
X0304181Y0312543
X0315352Y0320143
X0315992Y0336165
X0317652Y0344243
X0320352Y0356843
X0325851Y0352943
X0329252Y0358843
X0324952Y0364243
X0324751Y0371643
X0317251Y0373043
X0318851Y0377343
X0314633Y0389661
X0334552Y0389943
Y0378843
X0352212Y0372779
X0356051Y0366443
X0358752Y0352643
X0362651Y0352743
X0356351Y0344043
X0356252Y0339043
X0348726Y0345411
X0345926
X0342845Y0355943
X0340245
X0339152Y0333943
Y0324043
X0339551Y0319043
X0330651Y0324143
X0327751Y0326043
X0328852Y0330243
X0358783Y0326043
X036272Y0325974
X0356152Y0314143
X0356937Y0403094
X0347881Y0401519
X0342452Y0407943
X0362351Y0408443
X0648851Y0415399
X0658351Y0410899
X0648351Y0399399
Y0389399
X0646351Y0384399
X0654351Y0376399
X0680351Y0355399
X0673901Y0340349
X0638799Y04429
X0635799Y0449
X0630351Y0453399
X0627351Y0456399
T02
X0229499Y01502
X0249852Y0154399
X0406499Y01452
X0408699Y01408
X0413751Y0146399
X0417151Y0145499
X0422951Y0141999
X0569099Y01187
X0589099
X0613351Y0126399
X0612099Y0142
X0629351Y0143399
X0637499Y01496
X0645773Y0186799
X0645598Y0191099
X0659099Y02587
X0679099Y02787
Y03087
X066091Y02987
X0593351Y0303399
Y0293399
X0482351Y0303399
X0455199Y02926
X0447351Y0306399
X0425099Y0273
X0420799
X0422999Y02706
X0427299Y02705
X0437099Y0195147
X0437851Y0190399
X0425851Y0180899
X0426199Y0175574
X0425599Y0157199
X0429351Y0157189
X0421651Y0157099
X0413299Y0167574
X0399099Y01887
Y02087
X0257599Y01732
X0243599Y01586
X0219099Y01687
X0476099Y04463
X0507799Y04484
X0569099Y04687
X0619099Y04587
X0621499Y03628
X0621299Y03509
X0619599Y03446
X0631299Y03551
X0629099Y03287
X0659099Y03687
Y03887
X0664199Y04147
X0661699Y04173
X0679099Y03687
T03
X0462851Y0152899
X0495351
X0515351Y0160899
X0437151Y0165599
X0436351Y017036
T04
X0249633Y0397614
X0254633
X0259633
X0264633
X0269633
X0274633
X0279633
X0284633
X0289633
X0294633
X0299633
X0304633
X0309633
X0314633
X0319633
X0324633
X0329633
X0334633
T05
X0472774Y028882
X0482674
X0492574
T06
X0241818Y0335771
X0251818
Y0345771
X0241818
T07
X0626715Y0256993
Y0266993
Y0276993
Y0286993
X0616715Y0281993
Y0271993
Y0261993
Y0291993
X0272685Y0269629
X0262685
X0445851Y0440548
X0455694
X0465537
X0488219
X0498062
X0507905
X0540988Y0461007
X0550831
X0560674
X0582738Y0461019
X0592581
X0602424
T08
X0636515Y0243493
Y0305393
T09
X0637687Y0342843
T10
X0669999Y022
X0579499Y02987
X0396399Y02298
X0219299Y01845
X0417951Y0449599
T11
X0651487Y0346793
T12
X0249062Y0270811
T13
X0651715Y0251993
Y0296993
T14
X0651487Y0322393
M30
