G04 Layer_Color=128*
%FSLAX43Y43*%
%MOMM*%
G71*
G01*
G75*
%ADD14C,0.160*%
%ADD16C,0.100*%
%ADD44C,0.051*%
D14*
X637Y0D02*
X13500D01*
X14000Y500D02*
Y637D01*
Y25500D01*
X10450Y26000D02*
X13500D01*
X10000Y26450D02*
Y26500D01*
X10500Y27000D02*
X13500D01*
X14000Y27500D02*
Y32500D01*
X13363Y33000D02*
X13500D01*
X400D02*
X13363D01*
X-0Y27500D02*
Y32600D01*
X500Y27000D02*
X3500D01*
X4000Y26450D02*
Y26500D01*
X500Y26000D02*
X3550D01*
X-0Y25363D02*
Y25500D01*
Y637D02*
Y25363D01*
D16*
X13500Y0D02*
G03*
X14000Y500I0J500D01*
G01*
Y25500D02*
G03*
X13500Y26000I-500J0D01*
G01*
X10000Y26450D02*
G03*
X10450Y26000I450J0D01*
G01*
X10500Y27000D02*
G03*
X10000Y26500I0J-500D01*
G01*
X13500Y27000D02*
G03*
X14000Y27500I0J500D01*
G01*
Y32500D02*
G03*
X13500Y33000I-500J0D01*
G01*
X400D02*
G03*
X0Y32600I0J-400D01*
G01*
Y27500D02*
G03*
X500Y27000I500J0D01*
G01*
X4000Y26500D02*
G03*
X3500Y27000I-500J0D01*
G01*
X3550Y26000D02*
G03*
X4000Y26450I0J450D01*
G01*
X500Y26000D02*
G03*
X0Y25500I0J-500D01*
G01*
Y637D02*
G03*
X637Y0I637J0D01*
G01*
D44*
X3575Y25050D02*
X4075D01*
X3825Y24800D02*
Y25300D01*
X4845Y25050D02*
X5345D01*
X5095Y24800D02*
Y25300D01*
X6115Y25050D02*
X6615D01*
X6365Y24800D02*
Y25300D01*
X7385Y25050D02*
X7885D01*
X7635Y24800D02*
Y25300D01*
X8655Y25050D02*
X9155D01*
X8905Y24800D02*
Y25300D01*
X9925Y25050D02*
X10425D01*
X10175Y24800D02*
Y25300D01*
X9925Y27900D02*
X10425D01*
X10175Y27650D02*
Y28150D01*
X8655Y27900D02*
X9155D01*
X8905Y27650D02*
Y28150D01*
X7385Y27900D02*
X7885D01*
X7635Y27650D02*
Y28150D01*
X6115Y27900D02*
X6615D01*
X6365Y27650D02*
Y28150D01*
X4845Y27900D02*
X5345D01*
X5095Y27650D02*
Y28150D01*
X3575Y27900D02*
X4075D01*
X3825Y27650D02*
Y28150D01*
X8100Y23575D02*
X8400D01*
X8250Y23425D02*
Y23725D01*
X8372Y21776D02*
X8672D01*
X8522Y21626D02*
Y21926D01*
X10850Y19725D02*
X11150D01*
X11000Y19575D02*
Y19875D01*
X4850Y20275D02*
X5150D01*
X5000Y20125D02*
Y20425D01*
X2850Y20351D02*
X3150D01*
X3000Y20201D02*
Y20501D01*
X4241Y10178D02*
X4541D01*
X4391Y10028D02*
Y10328D01*
X3958Y7474D02*
X4258D01*
X4108Y7324D02*
Y7624D01*
X7625Y28975D02*
X7925D01*
X7775Y28825D02*
Y29125D01*
X5875Y29625D02*
X6175D01*
X6025Y29475D02*
Y29775D01*
X800Y14775D02*
X1100D01*
X950Y14625D02*
Y14925D01*
X3625Y17375D02*
X3925D01*
X3775Y17225D02*
Y17525D01*
X12091Y28584D02*
X12391D01*
X12241Y28434D02*
Y28734D01*
X8275Y30900D02*
X8575D01*
X8425Y30750D02*
Y31050D01*
X6180Y30900D02*
X6480D01*
X6330Y30750D02*
Y31050D01*
X1525Y28575D02*
X1825D01*
X1675Y28425D02*
Y28725D01*
X2100Y4258D02*
X2400D01*
X2250Y4108D02*
Y4408D01*
X8275Y29800D02*
X8575D01*
X8425Y29650D02*
Y29950D01*
X5400Y31950D02*
X5700D01*
X5550Y31800D02*
Y32100D01*
X825Y5075D02*
X1125D01*
X975Y4925D02*
Y5225D01*
X850Y10150D02*
X1150D01*
X1000Y10000D02*
Y10300D01*
X2100Y9200D02*
X2400D01*
X2250Y9050D02*
Y9350D01*
X2100Y24550D02*
X2400D01*
X2250Y24400D02*
Y24700D01*
X600Y31052D02*
X900D01*
X750Y30902D02*
Y31202D01*
X3600Y30900D02*
X3900D01*
X3750Y30750D02*
Y31050D01*
X10100Y17400D02*
X10400D01*
X10250Y17250D02*
Y17550D01*
X11250Y9725D02*
X11550D01*
X11400Y9575D02*
Y9875D01*
X10125Y12275D02*
X10425D01*
X10275Y12125D02*
Y12425D01*
X10475Y14575D02*
X10775D01*
X10625Y14425D02*
Y14725D01*
X850Y4100D02*
X1150D01*
X1000Y3950D02*
Y4250D01*
X6375Y23500D02*
X6675D01*
X6525Y23350D02*
Y23650D01*
X4000Y4600D02*
X4300D01*
X4150Y4450D02*
Y4750D01*
X2821Y5000D02*
X3121D01*
X2971Y4850D02*
Y5150D01*
X12050Y19986D02*
X12350D01*
X12200Y19836D02*
Y20136D01*
X8400Y20376D02*
X8700D01*
X8550Y20226D02*
Y20526D01*
X8400Y2825D02*
X8700D01*
X8550Y2675D02*
Y2975D01*
X8282Y1203D02*
X8582D01*
X8432Y1053D02*
Y1353D01*
X12850Y4125D02*
X13150D01*
X13000Y3975D02*
Y4275D01*
X10125Y1850D02*
X10425D01*
X10276Y1700D02*
Y2000D01*
X11625Y24800D02*
X11925D01*
X11775Y24650D02*
Y24950D01*
X2100Y14301D02*
X2400D01*
X2250Y14151D02*
Y14451D01*
X3552Y12442D02*
X3852D01*
X3702Y12292D02*
Y12592D01*
X3575Y22476D02*
X3875D01*
X3725Y22326D02*
Y22626D01*
X2100Y19647D02*
X2400D01*
X2250Y19497D02*
Y19797D01*
X829Y20018D02*
X1129D01*
X979Y19868D02*
Y20168D01*
X3625Y2025D02*
X3925D01*
X3775Y1875D02*
Y2175D01*
X11614Y14875D02*
X11914D01*
X11764Y14725D02*
Y15025D01*
X6961Y1025D02*
X7261D01*
X7111Y875D02*
Y1175D01*
X7375Y7750D02*
X7675D01*
X7525Y7600D02*
Y7900D01*
X12925Y4950D02*
X13225D01*
X13075Y4800D02*
Y5100D01*
X11525Y5025D02*
X11825D01*
X11675Y4875D02*
Y5175D01*
X10551Y5100D02*
X10851D01*
X10701Y4950D02*
Y5250D01*
X8400Y7350D02*
X8700D01*
X8550Y7200D02*
Y7500D01*
X9100Y9175D02*
X9400D01*
X9250Y9025D02*
Y9325D01*
X9800Y9875D02*
X10100D01*
X9950Y9725D02*
Y10025D01*
X5425Y10725D02*
X5725D01*
X5575Y10575D02*
Y10875D01*
X5277Y11378D02*
X5577D01*
X5427Y11228D02*
Y11528D01*
X3675Y14850D02*
X3975D01*
X3825Y14700D02*
Y15000D01*
X5850Y1125D02*
X6150D01*
X6000Y975D02*
Y1275D01*
X4500Y9175D02*
X4800D01*
X4650Y9025D02*
Y9325D01*
X3175Y9975D02*
X3475D01*
X3325Y9825D02*
Y10125D01*
X10125Y22550D02*
X10425D01*
X10275Y22400D02*
Y22700D01*
X5277Y16166D02*
X5577D01*
X5427Y16016D02*
Y16316D01*
X6375Y15776D02*
X6675D01*
X6525Y15626D02*
Y15926D01*
X10125Y30751D02*
X10425D01*
X10276Y30601D02*
Y30902D01*
X12400Y24650D02*
X12700D01*
X12550Y24500D02*
Y24800D01*
X5375Y14175D02*
X5675D01*
X5525Y14025D02*
Y14325D01*
M02*
