G04 Layer_Color=128*
%FSLAX24Y24*%
%MOIN*%
G70*
G01*
G75*
%ADD14C,0.0039*%
%ADD18R,0.0500X0.0500*%
%ADD19R,0.0120X0.0340*%
%ADD20R,0.0340X0.0120*%
%ADD21R,0.0276X0.0354*%
%ADD22R,0.0150X0.0402*%
%ADD23R,0.0150X0.0299*%
D14*
X5315Y0D02*
G03*
X5512Y197I0J197D01*
G01*
Y10039D02*
G03*
X5315Y10236I-197J0D01*
G01*
X3937Y10413D02*
G03*
X4114Y10236I177J0D01*
G01*
X4134Y10630D02*
G03*
X3937Y10433I0J-197D01*
G01*
X5315Y10630D02*
G03*
X5512Y10827I0J197D01*
G01*
Y12795D02*
G03*
X5315Y12992I-197J0D01*
G01*
X157D02*
G03*
X0Y12835I0J-157D01*
G01*
Y10827D02*
G03*
X197Y10630I197J0D01*
G01*
X1575Y10433D02*
G03*
X1378Y10630I-197J0D01*
G01*
X1398Y10236D02*
G03*
X1575Y10413I0J177D01*
G01*
X197Y10236D02*
G03*
X0Y10039I0J-197D01*
G01*
Y251D02*
G03*
X251Y0I251J0D01*
G01*
X251D02*
X5315D01*
X5512Y197D02*
Y251D01*
Y10039D01*
X4114Y10236D02*
X5315D01*
X3937Y10413D02*
Y10433D01*
X4134Y10630D02*
X5315D01*
X5512Y10827D02*
Y12795D01*
X5261Y12992D02*
X5315D01*
X157D02*
X5261D01*
X0Y10827D02*
Y12835D01*
X197Y10630D02*
X1378D01*
X1575Y10413D02*
Y10433D01*
X197Y10236D02*
X1398D01*
X0Y9985D02*
Y10039D01*
Y251D02*
Y9985D01*
X251Y0D02*
X251D01*
D18*
X2756Y1968D02*
D03*
Y7283D02*
D03*
D19*
X3146Y2708D02*
D03*
X2956D02*
D03*
X2756D02*
D03*
X2556D02*
D03*
X2366D02*
D03*
Y1228D02*
D03*
X2556D02*
D03*
X2756D02*
D03*
X2956D02*
D03*
X3146D02*
D03*
X2366Y8023D02*
D03*
X2556D02*
D03*
X2756D02*
D03*
X2956D02*
D03*
X3146D02*
D03*
Y6543D02*
D03*
X2956D02*
D03*
X2756D02*
D03*
X2556D02*
D03*
X2366D02*
D03*
D20*
X2016Y2358D02*
D03*
Y2168D02*
D03*
Y1968D02*
D03*
Y1768D02*
D03*
Y1578D02*
D03*
X3496D02*
D03*
Y1768D02*
D03*
Y1968D02*
D03*
Y2168D02*
D03*
Y2358D02*
D03*
X2016Y6893D02*
D03*
Y7083D02*
D03*
Y7283D02*
D03*
Y7483D02*
D03*
Y7673D02*
D03*
X3496D02*
D03*
Y7483D02*
D03*
Y7283D02*
D03*
Y7083D02*
D03*
Y6893D02*
D03*
D21*
X4856Y6852D02*
D03*
X4344D02*
D03*
X4856Y8874D02*
D03*
X4344D02*
D03*
X4856Y4830D02*
D03*
X4344D02*
D03*
X2500Y8464D02*
D03*
X3012D02*
D03*
X4856Y787D02*
D03*
X4344D02*
D03*
X4856Y12165D02*
D03*
X4344D02*
D03*
X650Y8874D02*
D03*
X1161D02*
D03*
X650Y6852D02*
D03*
X1161D02*
D03*
X650Y4830D02*
D03*
X1161D02*
D03*
X650Y787D02*
D03*
X1161D02*
D03*
X3012D02*
D03*
X2500D02*
D03*
X650Y2809D02*
D03*
X1161D02*
D03*
X650Y12165D02*
D03*
X1161D02*
D03*
X4344Y2806D02*
D03*
X4856D02*
D03*
D22*
X2882Y5776D02*
D03*
X2630D02*
D03*
D23*
X2882Y5327D02*
D03*
X2630D02*
D03*
M02*
