G04 Layer_Color=16711935*
%FSLAX24Y24*%
%MOIN*%
G70*
G01*
G75*
%ADD14C,0.0039*%
%ADD30C,0.0434*%
%ADD31R,0.0434X0.0434*%
%ADD32C,0.0220*%
%ADD33R,0.0540X0.0540*%
%ADD34R,0.0160X0.0380*%
%ADD35R,0.0380X0.0160*%
%ADD36R,0.0316X0.0394*%
%ADD37R,0.0190X0.0442*%
%ADD38R,0.0190X0.0339*%
D14*
X5315Y0D02*
G03*
X5512Y197I0J197D01*
G01*
Y10039D02*
G03*
X5315Y10236I-197J0D01*
G01*
X3937Y10413D02*
G03*
X4114Y10236I177J0D01*
G01*
X4134Y10630D02*
G03*
X3937Y10433I0J-197D01*
G01*
X5315Y10630D02*
G03*
X5512Y10827I0J197D01*
G01*
Y12795D02*
G03*
X5315Y12992I-197J0D01*
G01*
X157D02*
G03*
X0Y12835I0J-157D01*
G01*
Y10827D02*
G03*
X197Y10630I197J0D01*
G01*
X1575Y10433D02*
G03*
X1378Y10630I-197J0D01*
G01*
X1398Y10236D02*
G03*
X1575Y10413I0J177D01*
G01*
X197Y10236D02*
G03*
X0Y10039I0J-197D01*
G01*
Y251D02*
G03*
X251Y0I251J0D01*
G01*
X251D02*
X5315D01*
X5512Y197D02*
Y251D01*
Y10039D01*
X4114Y10236D02*
X5315D01*
X3937Y10413D02*
Y10433D01*
X4134Y10630D02*
X5315D01*
X5512Y10827D02*
Y12795D01*
X5261Y12992D02*
X5315D01*
X157D02*
X5261D01*
X0Y10827D02*
Y12835D01*
X197Y10630D02*
X1378D01*
X1575Y10413D02*
Y10433D01*
X197Y10236D02*
X1398D01*
X0Y9985D02*
Y10039D01*
Y251D02*
Y9985D01*
X251Y0D02*
X251D01*
D30*
X1506Y9982D02*
D03*
X2006D02*
D03*
X2506D02*
D03*
X3006D02*
D03*
X3506D02*
D03*
X3492Y10906D02*
D03*
X2992D02*
D03*
X2492D02*
D03*
X1992D02*
D03*
X1492D02*
D03*
D31*
X4006Y9982D02*
D03*
X3992Y10906D02*
D03*
D32*
X3317Y9341D02*
D03*
X2766Y2382D02*
D03*
X3012Y2392D02*
D03*
X1870Y8012D02*
D03*
X3327Y8779D02*
D03*
X4734Y3553D02*
D03*
Y3790D02*
D03*
X3642Y3888D02*
D03*
X2343Y9321D02*
D03*
X1791Y8868D02*
D03*
X4634Y7676D02*
D03*
X3652Y2815D02*
D03*
X1378Y2018D02*
D03*
X2756Y3130D02*
D03*
X2884Y4961D02*
D03*
X2618Y8789D02*
D03*
X3159Y7254D02*
D03*
X1457Y4803D02*
D03*
X2352Y1959D02*
D03*
X2992Y1545D02*
D03*
X2992Y3130D02*
D03*
X5128Y9685D02*
D03*
X5118Y5669D02*
D03*
X4055Y787D02*
D03*
X394Y787D02*
D03*
X384Y1998D02*
D03*
X394Y3996D02*
D03*
X394Y6053D02*
D03*
X394Y8051D02*
D03*
X4055Y8908D02*
D03*
Y2805D02*
D03*
Y4833D02*
D03*
X1457Y2805D02*
D03*
Y6851D02*
D03*
Y8869D02*
D03*
X1112Y12599D02*
D03*
X4400Y11743D02*
D03*
X2492Y12165D02*
D03*
X3317D02*
D03*
X4055Y6851D02*
D03*
X2501Y6868D02*
D03*
X2968D02*
D03*
X2500Y453D02*
D03*
X2756Y6211D02*
D03*
X3179Y7667D02*
D03*
X2461Y6211D02*
D03*
X1457Y768D02*
D03*
X886Y1585D02*
D03*
X886Y3622D02*
D03*
X886Y5620D02*
D03*
X876Y7657D02*
D03*
X886Y9665D02*
D03*
X4646Y8081D02*
D03*
X4626Y6053D02*
D03*
X4734Y4021D02*
D03*
X2859Y9321D02*
D03*
X5109Y2018D02*
D03*
X5118Y787D02*
D03*
X4879Y1644D02*
D03*
X4705Y11368D02*
D03*
X246Y12175D02*
D03*
X876Y8012D02*
D03*
D33*
X2756Y1968D02*
D03*
Y7283D02*
D03*
D34*
X3146Y2708D02*
D03*
X2956D02*
D03*
X2756D02*
D03*
X2556D02*
D03*
X2366D02*
D03*
Y1228D02*
D03*
X2556D02*
D03*
X2756D02*
D03*
X2956D02*
D03*
X3146D02*
D03*
X2366Y8023D02*
D03*
X2556D02*
D03*
X2756D02*
D03*
X2956D02*
D03*
X3146D02*
D03*
Y6543D02*
D03*
X2956D02*
D03*
X2756D02*
D03*
X2556D02*
D03*
X2366D02*
D03*
D35*
X2016Y2358D02*
D03*
Y2168D02*
D03*
Y1968D02*
D03*
Y1768D02*
D03*
Y1578D02*
D03*
X3496D02*
D03*
Y1768D02*
D03*
Y1968D02*
D03*
Y2168D02*
D03*
Y2358D02*
D03*
X2016Y6893D02*
D03*
Y7083D02*
D03*
Y7283D02*
D03*
Y7483D02*
D03*
Y7673D02*
D03*
X3496D02*
D03*
Y7483D02*
D03*
Y7283D02*
D03*
Y7083D02*
D03*
Y6893D02*
D03*
D36*
X4856Y6852D02*
D03*
X4344D02*
D03*
X4856Y8874D02*
D03*
X4344D02*
D03*
X4856Y4830D02*
D03*
X4344D02*
D03*
X2500Y8464D02*
D03*
X3012D02*
D03*
X4856Y787D02*
D03*
X4344D02*
D03*
X4856Y12165D02*
D03*
X4344D02*
D03*
X650Y8874D02*
D03*
X1161D02*
D03*
X650Y6852D02*
D03*
X1161D02*
D03*
X650Y4830D02*
D03*
X1161D02*
D03*
X650Y787D02*
D03*
X1161D02*
D03*
X3012D02*
D03*
X2500D02*
D03*
X650Y2809D02*
D03*
X1161D02*
D03*
X650Y12165D02*
D03*
X1161D02*
D03*
X4344Y2806D02*
D03*
X4856D02*
D03*
D37*
X2882Y5776D02*
D03*
X2630D02*
D03*
D38*
X2882Y5327D02*
D03*
X2630D02*
D03*
M02*
