G04 Layer_Color=128*
%FSLAX24Y24*%
%MOIN*%
G70*
G01*
G75*
%ADD14C,0.0039*%
%ADD43C,0.0020*%
D14*
X5315Y0D02*
G03*
X5512Y197I0J197D01*
G01*
Y10039D02*
G03*
X5315Y10236I-197J0D01*
G01*
X3937Y10413D02*
G03*
X4114Y10236I177J0D01*
G01*
X4134Y10630D02*
G03*
X3937Y10433I0J-197D01*
G01*
X5315Y10630D02*
G03*
X5512Y10827I0J197D01*
G01*
Y12795D02*
G03*
X5315Y12992I-197J0D01*
G01*
X157D02*
G03*
X0Y12835I0J-157D01*
G01*
Y10827D02*
G03*
X197Y10630I197J0D01*
G01*
X1575Y10433D02*
G03*
X1378Y10630I-197J0D01*
G01*
X1398Y10236D02*
G03*
X1575Y10413I0J177D01*
G01*
X197Y10236D02*
G03*
X0Y10039I0J-197D01*
G01*
Y251D02*
G03*
X251Y0I251J0D01*
G01*
X251D02*
X5315D01*
X5512Y197D02*
Y251D01*
Y10039D01*
X4114Y10236D02*
X5315D01*
X3937Y10413D02*
Y10433D01*
X4134Y10630D02*
X5315D01*
X5512Y10827D02*
Y12795D01*
X5261Y12992D02*
X5315D01*
X157D02*
X5261D01*
X0Y10827D02*
Y12835D01*
X197Y10630D02*
X1378D01*
X1575Y10413D02*
Y10433D01*
X197Y10236D02*
X1398D01*
X0Y9985D02*
Y10039D01*
Y251D02*
Y9985D01*
X251Y0D02*
X251D01*
D43*
X1407Y9982D02*
X1604D01*
X1506Y9883D02*
Y10080D01*
X1907Y9982D02*
X2104D01*
X2006Y9883D02*
Y10080D01*
X2407Y9982D02*
X2604D01*
X2506Y9883D02*
Y10080D01*
X2907Y9982D02*
X3104D01*
X3006Y9883D02*
Y10080D01*
X3407Y9982D02*
X3604D01*
X3506Y9883D02*
Y10080D01*
X3907Y9982D02*
X4104D01*
X4006Y9883D02*
Y10080D01*
X3894Y10906D02*
X4091D01*
X3992Y10807D02*
Y11004D01*
X3394Y10906D02*
X3591D01*
X3492Y10807D02*
Y11004D01*
X2894Y10906D02*
X3091D01*
X2992Y10807D02*
Y11004D01*
X2394Y10906D02*
X2591D01*
X2492Y10807D02*
Y11004D01*
X1894Y10906D02*
X2091D01*
X1992Y10807D02*
Y11004D01*
X1394Y10906D02*
X1591D01*
X1492Y10807D02*
Y11004D01*
X3267Y9341D02*
X3367D01*
X3317Y9291D02*
Y9391D01*
X2716Y2382D02*
X2816D01*
X2766Y2332D02*
Y2432D01*
X2962Y2392D02*
X3062D01*
X3012Y2342D02*
Y2442D01*
X1820Y8012D02*
X1920D01*
X1870Y7962D02*
Y8062D01*
X3277Y8779D02*
X3377D01*
X3327Y8729D02*
Y8829D01*
X4684Y3553D02*
X4784D01*
X4734Y3503D02*
Y3603D01*
X4684Y3790D02*
X4784D01*
X4734Y3740D02*
Y3840D01*
X3592Y3888D02*
X3692D01*
X3642Y3838D02*
Y3938D01*
X2293Y9321D02*
X2393D01*
X2343Y9271D02*
Y9371D01*
X1741Y8868D02*
X1841D01*
X1791Y8818D02*
Y8918D01*
X4584Y7676D02*
X4684D01*
X4634Y7626D02*
Y7726D01*
X3602Y2815D02*
X3702D01*
X3652Y2765D02*
Y2865D01*
X1328Y2018D02*
X1428D01*
X1378Y1968D02*
Y2068D01*
X2706Y3130D02*
X2806D01*
X2756Y3080D02*
Y3180D01*
X2834Y4961D02*
X2934D01*
X2884Y4911D02*
Y5011D01*
X2568Y8789D02*
X2668D01*
X2618Y8739D02*
Y8839D01*
X3109Y7254D02*
X3209D01*
X3159Y7204D02*
Y7304D01*
X1407Y4803D02*
X1507D01*
X1457Y4753D02*
Y4853D01*
X2302Y1959D02*
X2402D01*
X2352Y1909D02*
Y2009D01*
X2942Y1545D02*
X3042D01*
X2992Y1495D02*
Y1595D01*
X2942Y3130D02*
X3042D01*
X2992Y3080D02*
Y3180D01*
X5078Y9685D02*
X5178D01*
X5128Y9635D02*
Y9735D01*
X5068Y5669D02*
X5168D01*
X5118Y5619D02*
Y5719D01*
X4005Y787D02*
X4105D01*
X4055Y737D02*
Y837D01*
X344Y787D02*
X444D01*
X394Y737D02*
Y837D01*
X334Y1998D02*
X434D01*
X384Y1948D02*
Y2048D01*
X344Y3996D02*
X444D01*
X394Y3946D02*
Y4046D01*
X344Y6053D02*
X444D01*
X394Y6003D02*
Y6103D01*
X344Y8051D02*
X444D01*
X394Y8001D02*
Y8101D01*
X4005Y8908D02*
X4105D01*
X4055Y8858D02*
Y8958D01*
X4005Y2805D02*
X4105D01*
X4055Y2755D02*
Y2855D01*
X4005Y4833D02*
X4105D01*
X4055Y4783D02*
Y4883D01*
X1407Y2805D02*
X1507D01*
X1457Y2755D02*
Y2855D01*
X1407Y6851D02*
X1507D01*
X1457Y6801D02*
Y6901D01*
X1407Y8869D02*
X1507D01*
X1457Y8819D02*
Y8919D01*
X1062Y12599D02*
X1162D01*
X1112Y12549D02*
Y12649D01*
X4350Y11743D02*
X4450D01*
X4400Y11693D02*
Y11793D01*
X2442Y12165D02*
X2542D01*
X2492Y12115D02*
Y12215D01*
X3267Y12165D02*
X3367D01*
X3317Y12115D02*
Y12215D01*
X4005Y6851D02*
X4105D01*
X4055Y6801D02*
Y6901D01*
X2451Y6868D02*
X2551D01*
X2501Y6818D02*
Y6918D01*
X2918Y6868D02*
X3018D01*
X2968Y6818D02*
Y6918D01*
X2450Y453D02*
X2550D01*
X2500Y403D02*
Y503D01*
X2706Y6211D02*
X2806D01*
X2756Y6161D02*
Y6261D01*
X3129Y7667D02*
X3229D01*
X3179Y7617D02*
Y7717D01*
X2411Y6211D02*
X2511D01*
X2461Y6161D02*
Y6261D01*
X1407Y768D02*
X1507D01*
X1457Y718D02*
Y818D01*
X836Y1585D02*
X936D01*
X886Y1535D02*
Y1635D01*
X836Y3622D02*
X936D01*
X886Y3572D02*
Y3672D01*
X836Y5620D02*
X936D01*
X886Y5570D02*
Y5670D01*
X826Y7657D02*
X926D01*
X876Y7607D02*
Y7707D01*
X836Y9665D02*
X936D01*
X886Y9615D02*
Y9715D01*
X4596Y8081D02*
X4696D01*
X4646Y8031D02*
Y8131D01*
X4576Y6053D02*
X4676D01*
X4626Y6003D02*
Y6103D01*
X4684Y4021D02*
X4784D01*
X4734Y3971D02*
Y4071D01*
X2809Y9321D02*
X2909D01*
X2859Y9271D02*
Y9371D01*
X5059Y2018D02*
X5159D01*
X5109Y1968D02*
Y2068D01*
X5068Y787D02*
X5168D01*
X5118Y737D02*
Y837D01*
X4829Y1644D02*
X4929D01*
X4879Y1594D02*
Y1694D01*
X4655Y11368D02*
X4755D01*
X4705Y11318D02*
Y11418D01*
X196Y12175D02*
X296D01*
X246Y12125D02*
Y12225D01*
X826Y8012D02*
X926D01*
X876Y7962D02*
Y8062D01*
M02*
