G04 Layer_Physical_Order=2*
G04 Layer_Color=16711680*
%FSLAX24Y24*%
%MOIN*%
G70*
G01*
G75*
%ADD13C,0.0100*%
%ADD14C,0.0039*%
%ADD15C,0.0394*%
%ADD16R,0.0394X0.0394*%
%ADD17C,0.0180*%
%ADD18R,0.0500X0.0500*%
%ADD19R,0.0120X0.0340*%
%ADD20R,0.0340X0.0120*%
%ADD21R,0.0276X0.0354*%
%ADD22R,0.0150X0.0402*%
%ADD23R,0.0150X0.0299*%
G36*
X5268Y12975D02*
X5273Y12958D01*
X5276Y12956D01*
X5277Y12954D01*
X5294Y12947D01*
X5310Y12938D01*
X5340Y12935D01*
X5394Y12913D01*
X5433Y12874D01*
X5455Y12820D01*
X5458Y12790D01*
X5467Y12774D01*
X5474Y12757D01*
X5476Y12756D01*
X5477Y12753D01*
X5495Y12748D01*
X5512Y12741D01*
Y10881D01*
X5495Y10874D01*
X5477Y10869D01*
X5476Y10866D01*
X5474Y10865D01*
X5467Y10848D01*
X5458Y10832D01*
X5455Y10802D01*
X5433Y10748D01*
X5394Y10709D01*
X5340Y10687D01*
X5312Y10684D01*
X4289D01*
Y10856D01*
X3992D01*
Y10906D01*
X3942D01*
Y11202D01*
X3695D01*
Y11127D01*
X3645Y11100D01*
X3588Y11138D01*
X3492Y11157D01*
X3396Y11138D01*
X3314Y11083D01*
X3270Y11017D01*
X3266Y11016D01*
X3218D01*
X3214Y11017D01*
X3170Y11083D01*
X3088Y11138D01*
X2992Y11157D01*
X2896Y11138D01*
X2814Y11083D01*
X2770Y11017D01*
X2766Y11016D01*
X2718D01*
X2714Y11017D01*
X2670Y11083D01*
X2594Y11134D01*
Y12063D01*
X3218D01*
X3262Y12033D01*
X3317Y12023D01*
X3372Y12033D01*
X3418Y12064D01*
X3449Y12111D01*
X3460Y12165D01*
X3449Y12220D01*
X3418Y12266D01*
X3372Y12297D01*
X3317Y12308D01*
X3262Y12297D01*
X3218Y12267D01*
X2592D01*
X2547Y12297D01*
X2492Y12308D01*
X2438Y12297D01*
X2391Y12266D01*
X2360Y12220D01*
X2349Y12165D01*
X2360Y12111D01*
X2390Y12066D01*
Y11134D01*
X2314Y11083D01*
X2270Y11017D01*
X2266Y11016D01*
X2218D01*
X2214Y11017D01*
X2170Y11083D01*
X2088Y11138D01*
X1992Y11157D01*
X1896Y11138D01*
X1814Y11083D01*
X1770Y11017D01*
X1766Y11016D01*
X1718D01*
X1714Y11017D01*
X1670Y11083D01*
X1588Y11138D01*
X1492Y11157D01*
X1396Y11138D01*
X1314Y11083D01*
X1260Y11002D01*
X1240Y10906D01*
X1260Y10809D01*
X1310Y10734D01*
X1296Y10684D01*
X200D01*
X172Y10687D01*
X118Y10709D01*
X79Y10748D01*
X57Y10802D01*
X54Y10832D01*
X45Y10848D01*
X38Y10865D01*
X36Y10866D01*
X34Y10869D01*
X17Y10874D01*
X0Y10881D01*
Y12781D01*
X17Y12788D01*
X34Y12793D01*
X36Y12795D01*
X38Y12796D01*
X45Y12813D01*
X54Y12829D01*
X56Y12852D01*
X72Y12891D01*
X101Y12920D01*
X140Y12936D01*
X163Y12938D01*
X179Y12947D01*
X196Y12954D01*
X197Y12956D01*
X199Y12958D01*
X205Y12975D01*
X212Y12992D01*
X5261D01*
X5268Y12975D01*
D02*
G37*
G36*
X4651Y2020D02*
X4311Y1680D01*
X3716D01*
Y2066D01*
X4632D01*
X4651Y2020D01*
D02*
G37*
G36*
X5340Y10179D02*
X5394Y10157D01*
X5433Y10118D01*
X5455Y10064D01*
X5458Y10034D01*
X5467Y10018D01*
X5474Y10001D01*
X5476Y10000D01*
X5477Y9998D01*
X5495Y9992D01*
X5512Y9985D01*
Y251D01*
X5495Y244D01*
X5477Y239D01*
X5476Y236D01*
X5474Y235D01*
X5467Y218D01*
X5458Y202D01*
X5455Y172D01*
X5433Y118D01*
X5394Y79D01*
X5340Y57D01*
X5310Y54D01*
X5294Y45D01*
X5277Y38D01*
X5276Y36D01*
X5273Y34D01*
X5268Y17D01*
X5261Y0D01*
X251D01*
X244Y17D01*
X239Y34D01*
X236Y36D01*
X235Y38D01*
X218Y45D01*
X202Y54D01*
X172Y57D01*
X118Y79D01*
X79Y118D01*
X57Y172D01*
X54Y202D01*
X45Y218D01*
X38Y235D01*
X36Y236D01*
X34Y239D01*
X17Y244D01*
X0Y251D01*
Y9985D01*
X17Y9992D01*
X34Y9998D01*
X36Y10000D01*
X38Y10001D01*
X45Y10018D01*
X54Y10034D01*
X57Y10064D01*
X79Y10118D01*
X118Y10157D01*
X172Y10179D01*
X200Y10182D01*
X1283D01*
X1309Y10132D01*
X1273Y10078D01*
X1254Y9982D01*
X1273Y9886D01*
X1328Y9804D01*
X1410Y9749D01*
X1506Y9730D01*
X1602Y9749D01*
X1684Y9804D01*
X1728Y9870D01*
X1732Y9872D01*
X1780D01*
X1784Y9870D01*
X1828Y9804D01*
X1910Y9749D01*
X1968Y9738D01*
Y8167D01*
X1940Y8152D01*
X1918Y8145D01*
X1870Y8155D01*
X1815Y8144D01*
X1771Y8114D01*
X975D01*
X931Y8144D01*
X876Y8155D01*
X821Y8144D01*
X775Y8113D01*
X744Y8066D01*
X733Y8012D01*
X744Y7957D01*
X775Y7911D01*
X821Y7880D01*
X876Y7869D01*
X931Y7880D01*
X975Y7910D01*
X1771D01*
X1815Y7880D01*
X1870Y7869D01*
X1918Y7879D01*
X1940Y7872D01*
X1968Y7857D01*
Y7783D01*
X1796D01*
Y7569D01*
X833D01*
X820Y7578D01*
X781Y7585D01*
X496D01*
Y7952D01*
X526Y7997D01*
X536Y8051D01*
X526Y8106D01*
X495Y8152D01*
X448Y8183D01*
X394Y8194D01*
X339Y8183D01*
X293Y8152D01*
X262Y8106D01*
X251Y8051D01*
X262Y7997D01*
X292Y7952D01*
Y7483D01*
X300Y7444D01*
X322Y7411D01*
X322Y7356D01*
X300Y7322D01*
X292Y7283D01*
Y6153D01*
X262Y6108D01*
X251Y6053D01*
X262Y5999D01*
X293Y5953D01*
X339Y5922D01*
X394Y5911D01*
X448Y5922D01*
X495Y5953D01*
X526Y5999D01*
X536Y6053D01*
X526Y6108D01*
X496Y6153D01*
Y6575D01*
X600D01*
Y6852D01*
Y7129D01*
X496D01*
Y7182D01*
X1550D01*
X1577Y7132D01*
X1571Y7122D01*
X1563Y7083D01*
Y7008D01*
X1513Y6982D01*
X1511Y6983D01*
X1457Y6993D01*
X1402Y6983D01*
X1399Y6981D01*
X1349Y7007D01*
Y7079D01*
X974D01*
Y6625D01*
X1292D01*
X1313Y6575D01*
X322Y5584D01*
X300Y5551D01*
X292Y5512D01*
Y4095D01*
X262Y4051D01*
X251Y3996D01*
X262Y3941D01*
X293Y3895D01*
X339Y3864D01*
X394Y3853D01*
X448Y3864D01*
X495Y3895D01*
X526Y3941D01*
X536Y3996D01*
X526Y4051D01*
X496Y4095D01*
Y4553D01*
X600D01*
Y4830D01*
Y5108D01*
X496D01*
Y5470D01*
X1737Y6711D01*
X1759Y6744D01*
X1760Y6749D01*
X1796Y6783D01*
X1982D01*
X1987Y6778D01*
X2020Y6756D01*
X2059Y6748D01*
X2098Y6756D01*
X2131Y6778D01*
X2135Y6783D01*
X2214D01*
X2242Y6770D01*
X2256Y6742D01*
Y6578D01*
X2113Y6435D01*
X2091Y6402D01*
X2083Y6363D01*
Y5150D01*
X847Y3914D01*
X807D01*
X768Y3906D01*
X735Y3884D01*
X312Y3461D01*
X290Y3428D01*
X282Y3389D01*
Y2097D01*
X252Y2053D01*
X241Y1998D01*
X252Y1943D01*
X283Y1897D01*
X329Y1866D01*
X384Y1855D01*
X438Y1866D01*
X485Y1897D01*
X516Y1943D01*
X527Y1998D01*
X516Y2053D01*
X486Y2097D01*
Y2532D01*
X600D01*
Y2809D01*
Y3086D01*
X486D01*
Y3347D01*
X849Y3710D01*
X889D01*
X928Y3718D01*
X961Y3740D01*
X2257Y5036D01*
X2279Y5069D01*
X2287Y5108D01*
Y6320D01*
X2290Y6323D01*
X2603D01*
X2630Y6273D01*
X2624Y6265D01*
X2613Y6211D01*
X2624Y6156D01*
X2644Y6126D01*
X2622Y6076D01*
X2622Y6076D01*
X2455D01*
Y5826D01*
X2630D01*
Y5726D01*
X2455D01*
Y5475D01*
X2505D01*
Y5127D01*
X2528D01*
Y4657D01*
X2536Y4618D01*
X2558Y4585D01*
X2591Y4563D01*
X2630Y4556D01*
X2866D01*
X2905Y4563D01*
X2938Y4585D01*
X3218Y4865D01*
X3240Y4898D01*
X3248Y4937D01*
Y6323D01*
X3256D01*
Y6742D01*
X3269Y6770D01*
X3298Y6783D01*
X3394D01*
Y4503D01*
X1639Y2748D01*
X1593Y2772D01*
X1600Y2805D01*
X1589Y2860D01*
X1558Y2906D01*
X1511Y2937D01*
X1457Y2948D01*
X1402Y2937D01*
X1399Y2935D01*
X1349Y2962D01*
Y3036D01*
X974D01*
Y2582D01*
X1349D01*
Y2649D01*
X1399Y2675D01*
X1402Y2673D01*
X1457Y2663D01*
X1490Y2669D01*
X1514Y2623D01*
X962Y2070D01*
X778D01*
X739Y2063D01*
X705Y2041D01*
X322Y1657D01*
X300Y1624D01*
X292Y1585D01*
Y887D01*
X262Y842D01*
X251Y787D01*
X262Y733D01*
X293Y686D01*
X339Y656D01*
X394Y645D01*
X412Y630D01*
Y510D01*
X600D01*
Y787D01*
Y1065D01*
X496D01*
Y1542D01*
X820Y1867D01*
X1004D01*
X1043Y1874D01*
X1076Y1896D01*
X1186Y2007D01*
X1241Y1990D01*
X1246Y1963D01*
X1277Y1917D01*
X1323Y1886D01*
X1378Y1875D01*
X1433Y1886D01*
X1479Y1917D01*
X1510Y1963D01*
X1521Y2018D01*
X1510Y2072D01*
X1507Y2076D01*
X1750Y2319D01*
X1796Y2300D01*
Y1738D01*
X1746D01*
Y1628D01*
X2016D01*
Y1578D01*
X2066D01*
Y1418D01*
X2256D01*
Y1008D01*
X2312D01*
Y560D01*
X2343D01*
X2370Y510D01*
X2368Y507D01*
X2357Y453D01*
X2368Y398D01*
X2399Y352D01*
X2445Y321D01*
X2500Y310D01*
X2555Y321D01*
X2601Y352D01*
X2632Y398D01*
X2643Y453D01*
X2632Y507D01*
X2630Y510D01*
X2657Y560D01*
X2688D01*
Y958D01*
X2774D01*
Y837D01*
X3250D01*
Y1008D01*
X3256D01*
Y1426D01*
X3269Y1454D01*
X3298Y1468D01*
X3716D01*
Y1476D01*
X4353D01*
X4392Y1484D01*
X4425Y1506D01*
X4919Y1999D01*
X4973Y1982D01*
X4977Y1963D01*
X5008Y1917D01*
X5054Y1886D01*
X5107Y1875D01*
X5164Y1818D01*
Y1002D01*
X5143Y987D01*
X5093Y1012D01*
Y1065D01*
X4906D01*
Y787D01*
Y510D01*
X5093D01*
Y624D01*
X5118Y645D01*
X5173Y656D01*
X5219Y686D01*
X5250Y733D01*
X5260Y786D01*
X5338Y863D01*
X5360Y896D01*
X5368Y935D01*
Y1861D01*
X5360Y1900D01*
X5338Y1933D01*
X5251Y2020D01*
X5240Y2072D01*
X5209Y2119D01*
X5163Y2150D01*
X5144Y2154D01*
X5128Y2208D01*
X5397Y2477D01*
X5419Y2510D01*
X5427Y2549D01*
Y9783D01*
X5419Y9822D01*
X5397Y9856D01*
X5220Y10033D01*
X5187Y10055D01*
X5148Y10063D01*
X4902D01*
X4863Y10055D01*
X4829Y10033D01*
X4584Y9787D01*
X4303D01*
Y9932D01*
X4006D01*
Y10032D01*
X4303D01*
Y10182D01*
X5312D01*
X5340Y10179D01*
D02*
G37*
G36*
X3284Y9870D02*
X3328Y9804D01*
X3404Y9753D01*
Y9685D01*
X3412Y9646D01*
X3434Y9613D01*
X3467Y9591D01*
X3506Y9583D01*
X4626D01*
X4665Y9591D01*
X4698Y9613D01*
X4944Y9859D01*
X5046D01*
X5061Y9809D01*
X5027Y9786D01*
X4996Y9740D01*
X4985Y9685D01*
X4996Y9630D01*
X5026Y9586D01*
Y9151D01*
X4906D01*
Y8874D01*
Y8596D01*
X5026D01*
Y7129D01*
X4906D01*
Y6852D01*
Y6575D01*
X5026D01*
Y6217D01*
X4492Y5683D01*
X4390D01*
X4351Y5675D01*
X4318Y5653D01*
X3794Y5129D01*
X3748Y5148D01*
Y6571D01*
X3838Y6661D01*
X3860Y6694D01*
X3868Y6733D01*
Y6747D01*
X3889Y6764D01*
X3952Y6753D01*
X3954Y6750D01*
X4001Y6719D01*
X4055Y6708D01*
X4106Y6718D01*
X4118Y6717D01*
X4156Y6697D01*
Y6625D01*
X4532D01*
Y7079D01*
X4225D01*
X4205Y7125D01*
X4616Y7536D01*
X4634Y7533D01*
X4689Y7544D01*
X4735Y7575D01*
X4766Y7621D01*
X4777Y7676D01*
X4766Y7730D01*
X4735Y7776D01*
X4689Y7807D01*
X4634Y7818D01*
X4580Y7807D01*
X4533Y7776D01*
X4502Y7730D01*
X4497Y7706D01*
X3766Y6974D01*
X3716Y6995D01*
Y7373D01*
Y7783D01*
X3298D01*
X3269Y7797D01*
X3256Y7825D01*
Y8243D01*
X3200D01*
Y8507D01*
X3329Y8636D01*
X3381Y8647D01*
X3428Y8678D01*
X3459Y8724D01*
X3470Y8779D01*
X3459Y8833D01*
X3429Y8878D01*
Y9256D01*
X3449Y9286D01*
X3460Y9341D01*
X3449Y9395D01*
X3418Y9441D01*
X3372Y9472D01*
X3317Y9483D01*
X3262Y9472D01*
X3216Y9441D01*
X3185Y9395D01*
X3174Y9341D01*
X3185Y9286D01*
X3216Y9240D01*
X3225Y9234D01*
Y8878D01*
X3195Y8833D01*
X3184Y8781D01*
X3095Y8691D01*
X2824D01*
Y8355D01*
X2774Y8334D01*
X2738Y8370D01*
Y8414D01*
X2500D01*
X2262D01*
Y8243D01*
X2256D01*
Y7825D01*
X2242Y7797D01*
X2222Y7787D01*
X2172Y7806D01*
Y9796D01*
X2184Y9804D01*
X2228Y9870D01*
X2232Y9872D01*
X2280D01*
X2284Y9870D01*
X2328Y9804D01*
X2410Y9749D01*
X2506Y9730D01*
X2516Y9722D01*
Y8889D01*
X2486Y8844D01*
X2475Y8789D01*
X2477Y8780D01*
X2446Y8741D01*
X2262D01*
Y8514D01*
X2500D01*
X2738D01*
Y8717D01*
X2750Y8735D01*
X2761Y8789D01*
X2750Y8844D01*
X2720Y8889D01*
Y9190D01*
X2730Y9197D01*
X2770Y9212D01*
X2805Y9189D01*
X2859Y9178D01*
X2914Y9189D01*
X2960Y9220D01*
X2991Y9266D01*
X3002Y9321D01*
X2991Y9375D01*
X2961Y9420D01*
Y9700D01*
X3000Y9731D01*
X3006Y9730D01*
X3102Y9749D01*
X3184Y9804D01*
X3228Y9870D01*
X3232Y9872D01*
X3280D01*
X3284Y9870D01*
D02*
G37*
G36*
X5223Y6055D02*
Y5828D01*
X5173Y5801D01*
X5173Y5801D01*
X5118Y5812D01*
X5063Y5801D01*
X5017Y5770D01*
X4986Y5724D01*
X4975Y5669D01*
X4986Y5615D01*
X5016Y5570D01*
Y5108D01*
X4906D01*
Y4830D01*
Y4553D01*
X5016D01*
Y3083D01*
X4906D01*
Y2806D01*
X4856D01*
Y2756D01*
X4618D01*
Y2529D01*
X4878D01*
X4897Y2483D01*
X4685Y2270D01*
X3716D01*
Y2468D01*
X3598D01*
Y2617D01*
X3653Y2673D01*
X3706Y2683D01*
X3753Y2714D01*
X3783Y2760D01*
X3794Y2815D01*
X3783Y2870D01*
X3753Y2916D01*
X3706Y2947D01*
X3652Y2958D01*
X3597Y2947D01*
X3551Y2916D01*
X3520Y2870D01*
X3509Y2817D01*
X3424Y2731D01*
X3402Y2698D01*
X3394Y2659D01*
Y2468D01*
X3298D01*
X3269Y2481D01*
X3256Y2509D01*
Y2687D01*
X3276Y2717D01*
X3284Y2756D01*
Y3199D01*
X3681Y3596D01*
X3720D01*
X3759Y3604D01*
X3793Y3626D01*
X3854Y3688D01*
X4635D01*
X4680Y3658D01*
X4734Y3647D01*
X4789Y3658D01*
X4835Y3689D01*
X4866Y3735D01*
X4877Y3790D01*
X4866Y3844D01*
X4850Y3869D01*
X4839Y3905D01*
X4850Y3941D01*
X4866Y3966D01*
X4877Y4021D01*
X4866Y4075D01*
X4835Y4122D01*
X4789Y4153D01*
X4734Y4163D01*
X4680Y4153D01*
X4635Y4123D01*
X3797D01*
X3777Y4173D01*
X3868Y4264D01*
X3890Y4297D01*
X3898Y4336D01*
Y4727D01*
X3948Y4742D01*
X3954Y4732D01*
X4001Y4701D01*
X4055Y4690D01*
X4106Y4700D01*
X4112Y4700D01*
X4156Y4672D01*
Y4603D01*
X4532D01*
Y5058D01*
X4156D01*
Y4994D01*
X4112Y4966D01*
X4106Y4966D01*
X4055Y4976D01*
X4001Y4965D01*
X3965Y4941D01*
X3933Y4980D01*
X4432Y5479D01*
X4534D01*
X4573Y5487D01*
X4606Y5509D01*
X5173Y6075D01*
X5223Y6055D01*
D02*
G37*
%LPC*%
G36*
X4806Y12115D02*
X4618D01*
Y11888D01*
X4806D01*
Y12115D01*
D02*
G37*
G36*
X5093D02*
X4906D01*
Y11888D01*
X5093D01*
Y12115D01*
D02*
G37*
G36*
X887Y12115D02*
X700D01*
Y11888D01*
X887D01*
Y12115D01*
D02*
G37*
G36*
X4532Y12392D02*
X4156D01*
Y11938D01*
X4242D01*
Y11743D01*
X4250Y11704D01*
X4272Y11671D01*
X4286Y11661D01*
X4299Y11642D01*
X4345Y11611D01*
X4400Y11600D01*
X4454Y11611D01*
X4501Y11642D01*
X4532Y11688D01*
X4543Y11743D01*
X4532Y11797D01*
X4501Y11844D01*
X4454Y11875D01*
X4446Y11876D01*
Y11938D01*
X4532D01*
Y12392D01*
D02*
G37*
G36*
X600Y12115D02*
X412D01*
Y11888D01*
X600D01*
Y12115D01*
D02*
G37*
G36*
X4806Y12442D02*
X4618D01*
Y12215D01*
X4806D01*
Y12442D01*
D02*
G37*
G36*
X5093D02*
X4906D01*
Y12215D01*
X5093D01*
Y12442D01*
D02*
G37*
G36*
X887Y12442D02*
X700D01*
Y12215D01*
X887D01*
Y12442D01*
D02*
G37*
G36*
X1112Y12742D02*
X1058Y12731D01*
X1011Y12700D01*
X980Y12654D01*
X970Y12599D01*
X980Y12544D01*
X1010Y12500D01*
Y12392D01*
X974D01*
Y11938D01*
X1349D01*
Y12392D01*
X1214D01*
Y12500D01*
X1244Y12544D01*
X1255Y12599D01*
X1244Y12654D01*
X1213Y12700D01*
X1167Y12731D01*
X1112Y12742D01*
D02*
G37*
G36*
X600Y12442D02*
X412D01*
Y12215D01*
X600D01*
Y12442D01*
D02*
G37*
G36*
X4289Y11202D02*
X4042D01*
Y10956D01*
X4289D01*
Y11202D01*
D02*
G37*
G36*
X887Y4780D02*
X700D01*
Y4553D01*
X887D01*
Y4780D01*
D02*
G37*
G36*
Y3086D02*
X700D01*
Y2859D01*
X887D01*
Y3086D01*
D02*
G37*
G36*
Y6802D02*
X700D01*
Y6575D01*
X887D01*
Y6802D01*
D02*
G37*
G36*
Y5108D02*
X700D01*
Y4880D01*
X887D01*
Y5108D01*
D02*
G37*
G36*
X1349Y5058D02*
X974D01*
Y4603D01*
X1349D01*
Y4647D01*
X1399Y4673D01*
X1402Y4672D01*
X1457Y4661D01*
X1511Y4672D01*
X1558Y4702D01*
X1589Y4749D01*
X1600Y4803D01*
X1589Y4858D01*
X1558Y4904D01*
X1511Y4935D01*
X1457Y4946D01*
X1402Y4935D01*
X1399Y4933D01*
X1349Y4960D01*
Y5058D01*
D02*
G37*
G36*
X4806Y737D02*
X4618D01*
Y510D01*
X4806D01*
Y737D01*
D02*
G37*
G36*
X1349Y1015D02*
X974D01*
Y560D01*
X1349D01*
Y611D01*
X1399Y638D01*
X1402Y636D01*
X1457Y625D01*
X1511Y636D01*
X1558Y667D01*
X1589Y713D01*
X1600Y768D01*
X1589Y822D01*
X1558Y869D01*
X1511Y900D01*
X1457Y910D01*
X1402Y900D01*
X1399Y898D01*
X1349Y924D01*
Y1015D01*
D02*
G37*
G36*
X3250Y737D02*
X3062D01*
Y510D01*
X3250D01*
Y737D01*
D02*
G37*
G36*
X887D02*
X700D01*
Y510D01*
X887D01*
Y737D01*
D02*
G37*
G36*
X2962D02*
X2774D01*
Y510D01*
X2962D01*
Y737D01*
D02*
G37*
G36*
X1966Y1528D02*
X1746D01*
Y1418D01*
X1966D01*
Y1528D01*
D02*
G37*
G36*
X887Y2759D02*
X700D01*
Y2532D01*
X887D01*
Y2759D01*
D02*
G37*
G36*
X4532Y1015D02*
X4156D01*
Y949D01*
X4112Y921D01*
X4106Y920D01*
X4055Y930D01*
X4001Y919D01*
X3954Y888D01*
X3923Y842D01*
X3913Y787D01*
X3923Y733D01*
X3954Y686D01*
X4001Y656D01*
X4055Y645D01*
X4106Y655D01*
X4112Y654D01*
X4156Y626D01*
Y560D01*
X4532D01*
Y1015D01*
D02*
G37*
G36*
X4806Y1065D02*
X4618D01*
Y837D01*
X4806D01*
Y1065D01*
D02*
G37*
G36*
X887D02*
X700D01*
Y837D01*
X887D01*
Y1065D01*
D02*
G37*
G36*
Y8824D02*
X700D01*
Y8596D01*
X887D01*
Y8824D01*
D02*
G37*
G36*
X600D02*
X412D01*
Y8596D01*
X600D01*
Y8824D01*
D02*
G37*
G36*
X887Y7129D02*
X700D01*
Y6902D01*
X887D01*
Y7129D01*
D02*
G37*
G36*
Y9151D02*
X700D01*
Y8924D01*
X887D01*
Y9151D01*
D02*
G37*
G36*
X1349Y9101D02*
X974D01*
Y8646D01*
X1349D01*
Y8712D01*
X1399Y8739D01*
X1402Y8737D01*
X1457Y8726D01*
X1511Y8737D01*
X1558Y8768D01*
X1589Y8814D01*
X1600Y8869D01*
X1589Y8923D01*
X1558Y8969D01*
X1511Y9000D01*
X1457Y9011D01*
X1402Y9000D01*
X1399Y8998D01*
X1349Y9025D01*
Y9101D01*
D02*
G37*
G36*
X600Y9151D02*
X412D01*
Y8924D01*
X600D01*
Y9151D01*
D02*
G37*
G36*
X4806Y6802D02*
X4618D01*
Y6575D01*
X4806D01*
Y6802D01*
D02*
G37*
G36*
Y8824D02*
X4618D01*
Y8596D01*
X4806D01*
Y8824D01*
D02*
G37*
G36*
Y7129D02*
X4618D01*
Y6902D01*
X4806D01*
Y7129D01*
D02*
G37*
G36*
X4532Y9101D02*
X4156D01*
Y9069D01*
X4112Y9041D01*
X4106Y9041D01*
X4055Y9051D01*
X4001Y9040D01*
X3954Y9009D01*
X3923Y8963D01*
X3913Y8908D01*
X3923Y8853D01*
X3954Y8807D01*
X4001Y8776D01*
X4055Y8765D01*
X4106Y8775D01*
X4112Y8775D01*
X4156Y8747D01*
Y8646D01*
X4532D01*
Y9101D01*
D02*
G37*
G36*
X4806Y9151D02*
X4618D01*
Y8924D01*
X4806D01*
Y9151D01*
D02*
G37*
G36*
X4532Y3033D02*
X4156D01*
Y2966D01*
X4112Y2938D01*
X4106Y2938D01*
X4055Y2948D01*
X4001Y2937D01*
X3954Y2906D01*
X3923Y2860D01*
X3913Y2805D01*
X3923Y2751D01*
X3954Y2704D01*
X4001Y2673D01*
X4055Y2663D01*
X4106Y2673D01*
X4112Y2672D01*
X4156Y2644D01*
Y2579D01*
X4532D01*
Y3033D01*
D02*
G37*
G36*
X4806Y5108D02*
X4618D01*
Y4880D01*
X4806D01*
Y5108D01*
D02*
G37*
G36*
Y4780D02*
X4618D01*
Y4553D01*
X4806D01*
Y4780D01*
D02*
G37*
G36*
X4806Y3083D02*
X4618D01*
Y2856D01*
X4806D01*
Y3083D01*
D02*
G37*
%LPD*%
D13*
X3317Y9341D02*
X3327Y9331D01*
Y8779D02*
Y9331D01*
X2077Y2358D02*
X2101Y2382D01*
X2766D01*
X2756Y2372D02*
X2766Y2382D01*
X394Y7483D02*
Y8051D01*
X3012Y8464D02*
X3327Y8779D01*
X2866Y4657D02*
X3146Y4937D01*
X2630Y4657D02*
X2866D01*
X2630D02*
Y5327D01*
X4353Y1578D02*
X5325Y2549D01*
X5118Y2559D02*
Y5669D01*
X4727Y2168D02*
X5118Y2559D01*
X3496Y2168D02*
X4727D01*
X5325Y2549D02*
Y9783D01*
X3182Y3241D02*
X3639Y3698D01*
X3720D01*
X3812Y3790D01*
X4734D01*
X3796Y4336D02*
Y4987D01*
X2070Y7728D02*
Y9917D01*
X2006Y9982D02*
X2070Y9917D01*
X2016Y7673D02*
X2070Y7728D01*
X2500Y8464D02*
X2756Y8208D01*
Y8023D02*
Y8208D01*
Y1228D02*
Y1968D01*
X2366Y1578D02*
X2756Y1968D01*
X2016Y1578D02*
X2366D01*
X3146Y4937D02*
Y6543D01*
X2185Y6363D02*
X2366Y6543D01*
X2185Y5108D02*
Y6363D01*
X5148Y9961D02*
X5325Y9783D01*
X4902Y9961D02*
X5148D01*
X3496Y1578D02*
X4353D01*
X4626Y9685D02*
X4902Y9961D01*
X3506Y9685D02*
X4626D01*
X3506D02*
Y9982D01*
X3496Y2358D02*
Y2659D01*
X3652Y2815D01*
X1994Y2708D02*
X2366D01*
X1378Y2091D02*
X1994Y2708D01*
X1378Y2018D02*
Y2091D01*
X2756Y3130D02*
Y3508D01*
X2992Y3140D02*
Y3533D01*
X3182Y2756D02*
Y3241D01*
X2882Y4963D02*
X2884Y4961D01*
X2882Y4963D02*
Y5327D01*
X2016Y6893D02*
X2059Y6850D01*
X2506Y9982D02*
X2618Y9870D01*
X3466Y7254D02*
X3496Y7283D01*
X3159Y7254D02*
X3466D01*
X1161Y4803D02*
X1457D01*
X2343Y1968D02*
X2352Y1959D01*
X2016Y1968D02*
X2343D01*
X3215Y1768D02*
X3496D01*
X2992Y1545D02*
X3215Y1768D01*
X3447Y1978D02*
X3477Y1949D01*
X3169Y1978D02*
X3447D01*
X3169D02*
Y2234D01*
X3012Y2392D02*
X3169Y2234D01*
X3140Y2714D02*
X3182Y2756D01*
X2992Y3533D02*
X3796Y4336D01*
X2756Y3508D02*
X3646Y4398D01*
X3477Y1949D02*
X3496Y1968D01*
X3140Y2714D02*
X3146Y2708D01*
X4055Y787D02*
X4344D01*
X394Y3996D02*
Y5512D01*
X1665Y6783D01*
Y7083D01*
X2016D01*
X394Y6053D02*
Y7283D01*
X2016D01*
X4309Y8908D02*
X4344Y8874D01*
X4055Y8908D02*
X4309D01*
X4055Y2806D02*
X4344D01*
X4055Y2805D02*
Y2806D01*
X4344Y787D02*
Y787D01*
X4344Y4830D02*
Y4833D01*
X4055D02*
X4344D01*
X4055Y6852D02*
X4344D01*
X1161Y768D02*
Y787D01*
Y2805D02*
Y2809D01*
Y2805D02*
X1457D01*
X1161Y4803D02*
Y4830D01*
Y6851D02*
Y6852D01*
Y6851D02*
X1457D01*
X1161Y8869D02*
Y8874D01*
Y8869D02*
X1457D01*
X1112Y12165D02*
X1161D01*
X1112D02*
Y12599D01*
X4344Y11743D02*
Y12165D01*
Y11743D02*
X4400D01*
X2492Y10906D02*
Y12165D01*
X3317D01*
X4611Y7676D02*
X4634D01*
X3496Y4460D02*
Y6893D01*
X3646Y4398D02*
Y6613D01*
X3766Y6733D01*
X4055Y6851D02*
Y6852D01*
X3766Y6733D02*
Y6830D01*
X4611Y7676D01*
X3116Y6573D02*
X3146Y6543D01*
X3116Y6573D02*
Y6813D01*
X2016Y6893D02*
X2476D01*
X2501Y6868D01*
X3022Y6813D02*
X3116D01*
X2968Y6868D02*
X3022Y6813D01*
X2956Y7783D02*
Y8023D01*
X2556Y843D02*
Y1228D01*
X2500Y787D02*
X2556Y843D01*
X2500Y453D02*
Y787D01*
X2500Y453D02*
X2500Y453D01*
X2882Y5776D02*
Y6211D01*
X2756D02*
X2882D01*
X2956Y7783D02*
X3072Y7667D01*
X3179D01*
X2756Y7283D02*
Y8023D01*
X1161Y768D02*
X1457D01*
X394Y787D02*
Y1585D01*
X778Y1969D01*
X1004D01*
X3496Y4460D01*
X807Y3812D02*
X889D01*
X2185Y5108D01*
X384Y3389D02*
X807Y3812D01*
X384Y1998D02*
Y3389D01*
X394Y7483D02*
X781D01*
X797Y7467D01*
X2000D02*
X2016Y7483D01*
X797Y7467D02*
X2000D01*
X4534Y5581D02*
X5128Y6175D01*
X4390Y5581D02*
X4534D01*
X5128Y6175D02*
Y9685D01*
X3796Y4987D02*
X4390Y5581D01*
X3642Y3888D02*
X3775Y4021D01*
X4734D01*
X2618Y8789D02*
Y9870D01*
X2859Y9321D02*
Y9982D01*
X3006D01*
X5266Y935D02*
Y1861D01*
X5109Y2018D02*
X5266Y1861D01*
X5118Y787D02*
X5266Y935D01*
X915Y8012D02*
X1870D01*
D14*
X5315Y0D02*
G03*
X5512Y197I0J197D01*
G01*
Y10039D02*
G03*
X5315Y10236I-197J0D01*
G01*
X3937Y10413D02*
G03*
X4114Y10236I177J0D01*
G01*
X4134Y10630D02*
G03*
X3937Y10433I0J-197D01*
G01*
X5315Y10630D02*
G03*
X5512Y10827I0J197D01*
G01*
Y12795D02*
G03*
X5315Y12992I-197J0D01*
G01*
X157D02*
G03*
X0Y12835I0J-157D01*
G01*
Y10827D02*
G03*
X197Y10630I197J0D01*
G01*
X1575Y10433D02*
G03*
X1378Y10630I-197J0D01*
G01*
X1398Y10236D02*
G03*
X1575Y10413I0J177D01*
G01*
X197Y10236D02*
G03*
X0Y10039I0J-197D01*
G01*
Y251D02*
G03*
X251Y0I251J0D01*
G01*
X251D02*
X5315D01*
X5512Y197D02*
Y251D01*
Y10039D01*
X4114Y10236D02*
X5315D01*
X3937Y10413D02*
Y10433D01*
X4134Y10630D02*
X5315D01*
X5512Y10827D02*
Y12795D01*
X5261Y12992D02*
X5315D01*
X157D02*
X5261D01*
X0Y10827D02*
Y12835D01*
X197Y10630D02*
X1378D01*
X1575Y10413D02*
Y10433D01*
X197Y10236D02*
X1398D01*
X0Y9985D02*
Y10039D01*
Y251D02*
Y9985D01*
X251Y0D02*
X251D01*
D15*
X1506Y9982D02*
D03*
X2006D02*
D03*
X2506D02*
D03*
X3006D02*
D03*
X3506D02*
D03*
X3492Y10906D02*
D03*
X2992D02*
D03*
X2492D02*
D03*
X1992D02*
D03*
X1492D02*
D03*
D16*
X4006Y9982D02*
D03*
X3992Y10906D02*
D03*
D17*
X3317Y9341D02*
D03*
X2766Y2382D02*
D03*
X3012Y2392D02*
D03*
X1870Y8012D02*
D03*
X3327Y8779D02*
D03*
X4734Y3553D02*
D03*
Y3790D02*
D03*
X3642Y3888D02*
D03*
X2343Y9321D02*
D03*
X1791Y8868D02*
D03*
X4634Y7676D02*
D03*
X3652Y2815D02*
D03*
X1378Y2018D02*
D03*
X2756Y3130D02*
D03*
X2884Y4961D02*
D03*
X2618Y8789D02*
D03*
X3159Y7254D02*
D03*
X1457Y4803D02*
D03*
X2352Y1959D02*
D03*
X2992Y1545D02*
D03*
X2992Y3130D02*
D03*
X5128Y9685D02*
D03*
X5118Y5669D02*
D03*
X4055Y787D02*
D03*
X394Y787D02*
D03*
X384Y1998D02*
D03*
X394Y3996D02*
D03*
X394Y6053D02*
D03*
X394Y8051D02*
D03*
X4055Y8908D02*
D03*
Y2805D02*
D03*
Y4833D02*
D03*
X1457Y2805D02*
D03*
Y6851D02*
D03*
Y8869D02*
D03*
X1112Y12599D02*
D03*
X4400Y11743D02*
D03*
X2492Y12165D02*
D03*
X3317D02*
D03*
X4055Y6851D02*
D03*
X2501Y6868D02*
D03*
X2968D02*
D03*
X2500Y453D02*
D03*
X2756Y6211D02*
D03*
X3179Y7667D02*
D03*
X2461Y6211D02*
D03*
X1457Y768D02*
D03*
X886Y1585D02*
D03*
X886Y3622D02*
D03*
X886Y5620D02*
D03*
X876Y7657D02*
D03*
X886Y9665D02*
D03*
X4646Y8081D02*
D03*
X4626Y6053D02*
D03*
X4734Y4021D02*
D03*
X2859Y9321D02*
D03*
X5109Y2018D02*
D03*
X5118Y787D02*
D03*
X4879Y1644D02*
D03*
X4705Y11368D02*
D03*
X246Y12175D02*
D03*
X876Y8012D02*
D03*
D18*
X2756Y1968D02*
D03*
Y7283D02*
D03*
D19*
X3146Y2708D02*
D03*
X2956D02*
D03*
X2756D02*
D03*
X2556D02*
D03*
X2366D02*
D03*
Y1228D02*
D03*
X2556D02*
D03*
X2756D02*
D03*
X2956D02*
D03*
X3146D02*
D03*
X2366Y8023D02*
D03*
X2556D02*
D03*
X2756D02*
D03*
X2956D02*
D03*
X3146D02*
D03*
Y6543D02*
D03*
X2956D02*
D03*
X2756D02*
D03*
X2556D02*
D03*
X2366D02*
D03*
D20*
X2016Y2358D02*
D03*
Y2168D02*
D03*
Y1968D02*
D03*
Y1768D02*
D03*
Y1578D02*
D03*
X3496D02*
D03*
Y1768D02*
D03*
Y1968D02*
D03*
Y2168D02*
D03*
Y2358D02*
D03*
X2016Y6893D02*
D03*
Y7083D02*
D03*
Y7283D02*
D03*
Y7483D02*
D03*
Y7673D02*
D03*
X3496D02*
D03*
Y7483D02*
D03*
Y7283D02*
D03*
Y7083D02*
D03*
Y6893D02*
D03*
D21*
X4856Y6852D02*
D03*
X4344D02*
D03*
X4856Y8874D02*
D03*
X4344D02*
D03*
X4856Y4830D02*
D03*
X4344D02*
D03*
X2500Y8464D02*
D03*
X3012D02*
D03*
X4856Y787D02*
D03*
X4344D02*
D03*
X4856Y12165D02*
D03*
X4344D02*
D03*
X650Y8874D02*
D03*
X1161D02*
D03*
X650Y6852D02*
D03*
X1161D02*
D03*
X650Y4830D02*
D03*
X1161D02*
D03*
X650Y787D02*
D03*
X1161D02*
D03*
X3012D02*
D03*
X2500D02*
D03*
X650Y2809D02*
D03*
X1161D02*
D03*
X650Y12165D02*
D03*
X1161D02*
D03*
X4344Y2806D02*
D03*
X4856D02*
D03*
D22*
X2882Y5776D02*
D03*
X2630D02*
D03*
D23*
X2882Y5327D02*
D03*
X2630D02*
D03*
M02*
