G04 Layer_Color=2752767*
%FSLAX24Y24*%
%MOIN*%
G70*
G01*
G75*
%ADD14C,0.0039*%
%ADD43C,0.0020*%
%ADD44C,0.0027*%
D14*
X5315Y0D02*
G03*
X5512Y197I0J197D01*
G01*
Y10039D02*
G03*
X5315Y10236I-197J0D01*
G01*
X3937Y10413D02*
G03*
X4114Y10236I177J0D01*
G01*
X4134Y10630D02*
G03*
X3937Y10433I0J-197D01*
G01*
X5315Y10630D02*
G03*
X5512Y10827I0J197D01*
G01*
Y12795D02*
G03*
X5315Y12992I-197J0D01*
G01*
X157D02*
G03*
X0Y12835I0J-157D01*
G01*
Y10827D02*
G03*
X197Y10630I197J0D01*
G01*
X1575Y10433D02*
G03*
X1378Y10630I-197J0D01*
G01*
X1398Y10236D02*
G03*
X1575Y10413I0J177D01*
G01*
X197Y10236D02*
G03*
X0Y10039I0J-197D01*
G01*
Y251D02*
G03*
X251Y0I251J0D01*
G01*
X251D02*
X5315D01*
X5512Y197D02*
Y251D01*
Y10039D01*
X4114Y10236D02*
X5315D01*
X3937Y10413D02*
Y10433D01*
X4134Y10630D02*
X5315D01*
X5512Y10827D02*
Y12795D01*
X5261Y12992D02*
X5315D01*
X157D02*
X5261D01*
X0Y10827D02*
Y12835D01*
X197Y10630D02*
X1378D01*
X1575Y10413D02*
Y10433D01*
X197Y10236D02*
X1398D01*
X0Y9985D02*
Y10039D01*
Y251D02*
Y9985D01*
X251Y0D02*
X251D01*
D43*
X1426Y9902D02*
Y10062D01*
X1586D01*
Y9902D01*
X1426D01*
X1926D02*
Y10062D01*
X2086D01*
Y9902D01*
X1926D01*
X2426D02*
Y10062D01*
X2586D01*
Y9902D01*
X2426D01*
X2926D02*
Y10062D01*
X3086D01*
Y9902D01*
X2926D01*
X3426D02*
Y10062D01*
X3586D01*
Y9902D01*
X3426D01*
X3926D02*
Y10062D01*
X4086D01*
Y9902D01*
X3926D01*
X3912Y10826D02*
Y10986D01*
X4072D01*
Y10826D01*
X3912D01*
X3412D02*
Y10986D01*
X3572D01*
Y10826D01*
X3412D01*
X2912D02*
Y10986D01*
X3072D01*
Y10826D01*
X2912D01*
X2412D02*
Y10986D01*
X2572D01*
Y10826D01*
X2412D01*
X1912D02*
Y10986D01*
X2072D01*
Y10826D01*
X1912D01*
X1412D02*
Y10986D01*
X1572D01*
Y10826D01*
X1412D01*
D44*
X3397Y9341D02*
G03*
X3397Y9341I-80J0D01*
G01*
X2846Y2382D02*
G03*
X2846Y2382I-80J0D01*
G01*
X3092Y2392D02*
G03*
X3092Y2392I-80J0D01*
G01*
X1950Y8012D02*
G03*
X1950Y8012I-80J0D01*
G01*
X3407Y8779D02*
G03*
X3407Y8779I-80J0D01*
G01*
X4814Y3553D02*
G03*
X4814Y3553I-80J0D01*
G01*
Y3790D02*
G03*
X4814Y3790I-80J0D01*
G01*
X3722Y3888D02*
G03*
X3722Y3888I-80J0D01*
G01*
X2423Y9321D02*
G03*
X2423Y9321I-80J0D01*
G01*
X1871Y8868D02*
G03*
X1871Y8868I-80J0D01*
G01*
X4714Y7676D02*
G03*
X4714Y7676I-80J0D01*
G01*
X3732Y2815D02*
G03*
X3732Y2815I-80J0D01*
G01*
X1458Y2018D02*
G03*
X1458Y2018I-80J0D01*
G01*
X2836Y3130D02*
G03*
X2836Y3130I-80J0D01*
G01*
X2964Y4961D02*
G03*
X2964Y4961I-80J0D01*
G01*
X2698Y8789D02*
G03*
X2698Y8789I-80J0D01*
G01*
X3239Y7254D02*
G03*
X3239Y7254I-80J0D01*
G01*
X1537Y4803D02*
G03*
X1537Y4803I-80J0D01*
G01*
X2432Y1959D02*
G03*
X2432Y1959I-80J0D01*
G01*
X3072Y1545D02*
G03*
X3072Y1545I-80J0D01*
G01*
X3072Y3130D02*
G03*
X3072Y3130I-80J0D01*
G01*
X5208Y9685D02*
G03*
X5208Y9685I-80J0D01*
G01*
X5198Y5669D02*
G03*
X5198Y5669I-80J0D01*
G01*
X4135Y787D02*
G03*
X4135Y787I-80J0D01*
G01*
X474Y787D02*
G03*
X474Y787I-80J0D01*
G01*
X464Y1998D02*
G03*
X464Y1998I-80J0D01*
G01*
X474Y3996D02*
G03*
X474Y3996I-80J0D01*
G01*
X474Y6053D02*
G03*
X474Y6053I-80J0D01*
G01*
X474Y8051D02*
G03*
X474Y8051I-80J0D01*
G01*
X4135Y8908D02*
G03*
X4135Y8908I-80J0D01*
G01*
Y2805D02*
G03*
X4135Y2805I-80J0D01*
G01*
Y4833D02*
G03*
X4135Y4833I-80J0D01*
G01*
X1537Y2805D02*
G03*
X1537Y2805I-80J0D01*
G01*
Y6851D02*
G03*
X1537Y6851I-80J0D01*
G01*
Y8869D02*
G03*
X1537Y8869I-80J0D01*
G01*
X1192Y12599D02*
G03*
X1192Y12599I-80J0D01*
G01*
X4480Y11743D02*
G03*
X4480Y11743I-80J0D01*
G01*
X2572Y12165D02*
G03*
X2572Y12165I-80J0D01*
G01*
X3397D02*
G03*
X3397Y12165I-80J0D01*
G01*
X4135Y6851D02*
G03*
X4135Y6851I-80J0D01*
G01*
X2581Y6868D02*
G03*
X2581Y6868I-80J0D01*
G01*
X3048D02*
G03*
X3048Y6868I-80J0D01*
G01*
X2580Y453D02*
G03*
X2580Y453I-80J0D01*
G01*
X2836Y6211D02*
G03*
X2836Y6211I-80J0D01*
G01*
X3259Y7667D02*
G03*
X3259Y7667I-80J0D01*
G01*
X2541Y6211D02*
G03*
X2541Y6211I-80J0D01*
G01*
X1537Y768D02*
G03*
X1537Y768I-80J0D01*
G01*
X966Y1585D02*
G03*
X966Y1585I-80J0D01*
G01*
X966Y3622D02*
G03*
X966Y3622I-80J0D01*
G01*
X966Y5620D02*
G03*
X966Y5620I-80J0D01*
G01*
X956Y7657D02*
G03*
X956Y7657I-80J0D01*
G01*
X966Y9665D02*
G03*
X966Y9665I-80J0D01*
G01*
X4726Y8081D02*
G03*
X4726Y8081I-80J0D01*
G01*
X4706Y6053D02*
G03*
X4706Y6053I-80J0D01*
G01*
X4814Y4021D02*
G03*
X4814Y4021I-80J0D01*
G01*
X2939Y9321D02*
G03*
X2939Y9321I-80J0D01*
G01*
X5189Y2018D02*
G03*
X5189Y2018I-80J0D01*
G01*
X5198Y787D02*
G03*
X5198Y787I-80J0D01*
G01*
X4959Y1644D02*
G03*
X4959Y1644I-80J0D01*
G01*
X4785Y11368D02*
G03*
X4785Y11368I-80J0D01*
G01*
X326Y12175D02*
G03*
X326Y12175I-80J0D01*
G01*
X956Y8012D02*
G03*
X956Y8012I-80J0D01*
G01*
M02*
