G04 Layer_Color=8388736*
%FSLAX24Y24*%
%MOIN*%
G70*
G01*
G75*
%ADD14C,0.0039*%
%ADD27R,0.0257X0.0453*%
%ADD28R,0.0394X0.0316*%
%ADD29R,0.0355X0.0355*%
%ADD30C,0.0434*%
%ADD31R,0.0434X0.0434*%
%ADD32C,0.0220*%
D14*
X5315Y0D02*
G03*
X5512Y197I0J197D01*
G01*
Y10039D02*
G03*
X5315Y10236I-197J0D01*
G01*
X3937Y10413D02*
G03*
X4114Y10236I177J0D01*
G01*
X4134Y10630D02*
G03*
X3937Y10433I0J-197D01*
G01*
X5315Y10630D02*
G03*
X5512Y10827I0J197D01*
G01*
Y12795D02*
G03*
X5315Y12992I-197J0D01*
G01*
X157D02*
G03*
X0Y12835I0J-157D01*
G01*
Y10827D02*
G03*
X197Y10630I197J0D01*
G01*
X1575Y10433D02*
G03*
X1378Y10630I-197J0D01*
G01*
X1398Y10236D02*
G03*
X1575Y10413I0J177D01*
G01*
X197Y10236D02*
G03*
X0Y10039I0J-197D01*
G01*
Y251D02*
G03*
X251Y0I251J0D01*
G01*
X251D02*
X5315D01*
X5512Y197D02*
Y251D01*
Y10039D01*
X4114Y10236D02*
X5315D01*
X3937Y10413D02*
Y10433D01*
X4134Y10630D02*
X5315D01*
X5512Y10827D02*
Y12795D01*
X5261Y12992D02*
X5315D01*
X157D02*
X5261D01*
X0Y10827D02*
Y12835D01*
X197Y10630D02*
X1378D01*
X1575Y10413D02*
Y10433D01*
X197Y10236D02*
X1398D01*
X0Y9985D02*
Y10039D01*
Y251D02*
Y9985D01*
X251Y0D02*
X251D01*
D27*
X5118Y2376D02*
D03*
X4626D02*
D03*
X3642D02*
D03*
X4134D02*
D03*
X3642Y3242D02*
D03*
X5118D02*
D03*
X4626D02*
D03*
X4134D02*
D03*
X5118Y354D02*
D03*
X4626D02*
D03*
X3642D02*
D03*
X4134D02*
D03*
X3642Y1221D02*
D03*
X5118D02*
D03*
X4626D02*
D03*
X4134D02*
D03*
X1378Y6419D02*
D03*
X886D02*
D03*
X394D02*
D03*
X1870D02*
D03*
X1378Y7285D02*
D03*
X1870D02*
D03*
X886D02*
D03*
X394D02*
D03*
X1378Y4397D02*
D03*
X886D02*
D03*
X394D02*
D03*
X1870D02*
D03*
X1378Y5264D02*
D03*
X1870D02*
D03*
X886D02*
D03*
X394D02*
D03*
X1378Y8440D02*
D03*
X886D02*
D03*
X394D02*
D03*
X1870D02*
D03*
X1378Y9307D02*
D03*
X1870D02*
D03*
X886D02*
D03*
X394D02*
D03*
X1378Y11732D02*
D03*
X886D02*
D03*
X394D02*
D03*
X1870D02*
D03*
X1378Y12598D02*
D03*
X1870D02*
D03*
X886D02*
D03*
X394D02*
D03*
X5118Y6419D02*
D03*
X4626D02*
D03*
X3642D02*
D03*
X4134D02*
D03*
X3642Y7285D02*
D03*
X5118D02*
D03*
X4626D02*
D03*
X4134D02*
D03*
X394Y1221D02*
D03*
X886D02*
D03*
X1870D02*
D03*
X1378D02*
D03*
X1870Y354D02*
D03*
X394D02*
D03*
X886D02*
D03*
X1378D02*
D03*
X394Y3242D02*
D03*
X886D02*
D03*
X1870D02*
D03*
X1378D02*
D03*
X1870Y2376D02*
D03*
X394D02*
D03*
X886D02*
D03*
X1378D02*
D03*
X5118Y11732D02*
D03*
X4626D02*
D03*
X3642D02*
D03*
X4134D02*
D03*
X3642Y12598D02*
D03*
X5118D02*
D03*
X4626D02*
D03*
X4134D02*
D03*
X5138Y8440D02*
D03*
X4646D02*
D03*
X3661D02*
D03*
X4154D02*
D03*
X3661Y9307D02*
D03*
X5138D02*
D03*
X4646D02*
D03*
X4154D02*
D03*
X5118Y4397D02*
D03*
X4626D02*
D03*
X3642D02*
D03*
X4134D02*
D03*
X3642Y5264D02*
D03*
X5118D02*
D03*
X4626D02*
D03*
X4134D02*
D03*
D28*
X2756Y4547D02*
D03*
Y4035D02*
D03*
D29*
X2461Y5866D02*
D03*
X3051D02*
D03*
D30*
X1506Y9982D02*
D03*
X2006D02*
D03*
X2506D02*
D03*
X3006D02*
D03*
X3506D02*
D03*
X3492Y10906D02*
D03*
X2992D02*
D03*
X2492D02*
D03*
X1992D02*
D03*
X1492D02*
D03*
D31*
X4006Y9982D02*
D03*
X3992Y10906D02*
D03*
D32*
X3317Y9341D02*
D03*
X2766Y2382D02*
D03*
X3012Y2392D02*
D03*
X1870Y8012D02*
D03*
X3327Y8779D02*
D03*
X4734Y3553D02*
D03*
Y3790D02*
D03*
X3642Y3888D02*
D03*
X2343Y9321D02*
D03*
X1791Y8868D02*
D03*
X4634Y7676D02*
D03*
X3652Y2815D02*
D03*
X1378Y2018D02*
D03*
X2756Y3130D02*
D03*
X2884Y4961D02*
D03*
X2618Y8789D02*
D03*
X3159Y7254D02*
D03*
X1457Y4803D02*
D03*
X2352Y1959D02*
D03*
X2992Y1545D02*
D03*
X2992Y3130D02*
D03*
X5128Y9685D02*
D03*
X5118Y5669D02*
D03*
X4055Y787D02*
D03*
X394Y787D02*
D03*
X384Y1998D02*
D03*
X394Y3996D02*
D03*
X394Y6053D02*
D03*
X394Y8051D02*
D03*
X4055Y8908D02*
D03*
Y2805D02*
D03*
Y4833D02*
D03*
X1457Y2805D02*
D03*
Y6851D02*
D03*
Y8869D02*
D03*
X1112Y12599D02*
D03*
X4400Y11743D02*
D03*
X2492Y12165D02*
D03*
X3317D02*
D03*
X4055Y6851D02*
D03*
X2501Y6868D02*
D03*
X2968D02*
D03*
X2500Y453D02*
D03*
X2756Y6211D02*
D03*
X3179Y7667D02*
D03*
X2461Y6211D02*
D03*
X1457Y768D02*
D03*
X886Y1585D02*
D03*
X886Y3622D02*
D03*
X886Y5620D02*
D03*
X876Y7657D02*
D03*
X886Y9665D02*
D03*
X4646Y8081D02*
D03*
X4626Y6053D02*
D03*
X4734Y4021D02*
D03*
X2859Y9321D02*
D03*
X5109Y2018D02*
D03*
X5118Y787D02*
D03*
X4879Y1644D02*
D03*
X4705Y11368D02*
D03*
X246Y12175D02*
D03*
X876Y8012D02*
D03*
M02*
