G04 Layer_Color=65535*
%FSLAX24Y24*%
%MOIN*%
G70*
G01*
G75*
%ADD13C,0.0100*%
%ADD14C,0.0039*%
%ADD24C,0.0040*%
%ADD25C,0.0050*%
%ADD26R,0.0098X0.0089*%
G36*
X2168Y3341D02*
X2050Y3459D01*
X2168D01*
Y3341D01*
D02*
G37*
G36*
X3461Y4180D02*
X3343D01*
Y4299D01*
X3461Y4180D01*
D02*
G37*
G36*
X2168Y5362D02*
X2050Y5480D01*
X2168D01*
Y5362D01*
D02*
G37*
G36*
X3461Y137D02*
X3343D01*
Y256D01*
X3461Y137D01*
D02*
G37*
G36*
X2168Y1319D02*
X2050Y1437D01*
X2168D01*
Y1319D01*
D02*
G37*
G36*
X3461Y2159D02*
X3343D01*
Y2277D01*
X3461Y2159D01*
D02*
G37*
G36*
X2168Y9405D02*
X2050Y9524D01*
X2168D01*
Y9405D01*
D02*
G37*
G36*
X3461Y11515D02*
X3343D01*
Y11633D01*
X3461Y11515D01*
D02*
G37*
G36*
X2168Y12697D02*
X2050Y12815D01*
X2168D01*
Y12697D01*
D02*
G37*
G36*
X3461Y6202D02*
X3343D01*
Y6320D01*
X3461Y6202D01*
D02*
G37*
G36*
X2168Y7384D02*
X2050Y7502D01*
X2168D01*
Y7384D01*
D02*
G37*
G36*
X3481Y8224D02*
X3363D01*
Y8342D01*
X3481Y8224D01*
D02*
G37*
D13*
X2874Y2399D02*
Y2491D01*
Y2445D01*
X3150D01*
Y2399D01*
Y2491D01*
X2920Y2812D02*
X2874Y2766D01*
Y2674D01*
X2920Y2629D01*
X3104D01*
X3150Y2674D01*
Y2766D01*
X3104Y2812D01*
X3150Y2904D02*
Y2996D01*
Y2950D01*
X2874D01*
X2920Y2904D01*
X3150Y3134D02*
Y3225D01*
Y3180D01*
X2874D01*
X2920Y3134D01*
X2874Y332D02*
Y424D01*
Y378D01*
X3150D01*
Y332D01*
Y424D01*
X2920Y745D02*
X2874Y699D01*
Y607D01*
X2920Y561D01*
X3104D01*
X3150Y607D01*
Y699D01*
X3104Y745D01*
X3150Y837D02*
Y929D01*
Y883D01*
X2874D01*
X2920Y837D01*
X3150Y1250D02*
Y1066D01*
X2966Y1250D01*
X2920D01*
X2874Y1204D01*
Y1112D01*
X2920Y1066D01*
X2598Y3514D02*
Y3789D01*
X2736D01*
X2782Y3743D01*
Y3652D01*
X2736Y3606D01*
X2598D01*
X2690D02*
X2782Y3514D01*
X2874D02*
X2966D01*
X2920D01*
Y3789D01*
X2874Y3743D01*
X2874Y6503D02*
Y6595D01*
Y6549D01*
X3150D01*
Y6503D01*
Y6595D01*
X2920Y6916D02*
X2874Y6871D01*
Y6779D01*
X2920Y6733D01*
X3104D01*
X3150Y6779D01*
Y6871D01*
X3104Y6916D01*
Y7008D02*
X3150Y7054D01*
Y7146D01*
X3104Y7192D01*
X2920D01*
X2874Y7146D01*
Y7054D01*
X2920Y7008D01*
X2966D01*
X3012Y7054D01*
Y7192D01*
X3032Y4528D02*
Y4619D01*
Y4573D01*
X3307D01*
Y4528D01*
Y4619D01*
X3077Y4941D02*
X3032Y4895D01*
Y4803D01*
X3077Y4757D01*
X3261D01*
X3307Y4803D01*
Y4895D01*
X3261Y4941D01*
X3307Y5033D02*
Y5124D01*
Y5079D01*
X3032D01*
X3077Y5033D01*
Y5262D02*
X3032Y5308D01*
Y5400D01*
X3077Y5446D01*
X3261D01*
X3307Y5400D01*
Y5308D01*
X3261Y5262D01*
X3077D01*
X2598Y12480D02*
Y12388D01*
Y12434D01*
X2323D01*
Y12480D01*
Y12388D01*
X2552Y12067D02*
X2598Y12113D01*
Y12205D01*
X2552Y12251D01*
X2369D01*
X2323Y12205D01*
Y12113D01*
X2369Y12067D01*
X2323Y11975D02*
Y11883D01*
Y11929D01*
X2598D01*
X2552Y11975D01*
X2657Y9228D02*
Y9136D01*
Y9182D01*
X2382D01*
Y9228D01*
Y9136D01*
X2611Y8815D02*
X2657Y8861D01*
Y8952D01*
X2611Y8998D01*
X2428D01*
X2382Y8952D01*
Y8861D01*
X2428Y8815D01*
X2382Y8539D02*
Y8723D01*
X2566Y8539D01*
X2611D01*
X2657Y8585D01*
Y8677D01*
X2611Y8723D01*
X2657Y7207D02*
Y7116D01*
Y7162D01*
X2382D01*
Y7207D01*
Y7116D01*
X2611Y6794D02*
X2657Y6840D01*
Y6932D01*
X2611Y6978D01*
X2428D01*
X2382Y6932D01*
Y6840D01*
X2428Y6794D01*
X2611Y6702D02*
X2657Y6656D01*
Y6565D01*
X2611Y6519D01*
X2566D01*
X2520Y6565D01*
Y6611D01*
Y6565D01*
X2474Y6519D01*
X2428D01*
X2382Y6565D01*
Y6656D01*
X2428Y6702D01*
X2470Y5128D02*
Y5036D01*
Y5082D01*
X2195D01*
Y5128D01*
Y5036D01*
X2424Y4715D02*
X2470Y4761D01*
Y4852D01*
X2424Y4898D01*
X2241D01*
X2195Y4852D01*
Y4761D01*
X2241Y4715D01*
X2195Y4485D02*
X2470D01*
X2333Y4623D01*
Y4439D01*
X2598Y3149D02*
Y3057D01*
Y3103D01*
X2323D01*
Y3149D01*
Y3057D01*
X2552Y2736D02*
X2598Y2782D01*
Y2873D01*
X2552Y2919D01*
X2369D01*
X2323Y2873D01*
Y2782D01*
X2369Y2736D01*
X2598Y2460D02*
Y2644D01*
X2461D01*
X2506Y2552D01*
Y2506D01*
X2461Y2460D01*
X2369D01*
X2323Y2506D01*
Y2598D01*
X2369Y2644D01*
X2598Y1132D02*
Y1040D01*
Y1086D01*
X2323D01*
Y1132D01*
Y1040D01*
X2552Y719D02*
X2598Y765D01*
Y856D01*
X2552Y902D01*
X2369D01*
X2323Y856D01*
Y765D01*
X2369Y719D01*
X2598Y443D02*
X2552Y535D01*
X2461Y627D01*
X2369D01*
X2323Y581D01*
Y489D01*
X2369Y443D01*
X2415D01*
X2461Y489D01*
Y627D01*
X2874Y11811D02*
Y11903D01*
Y11857D01*
X3150D01*
Y11811D01*
Y11903D01*
X2920Y12224D02*
X2874Y12178D01*
Y12087D01*
X2920Y12041D01*
X3104D01*
X3150Y12087D01*
Y12178D01*
X3104Y12224D01*
X2874Y12316D02*
Y12500D01*
X2920D01*
X3104Y12316D01*
X3150D01*
X2894Y8530D02*
Y8622D01*
Y8576D01*
X3169D01*
Y8530D01*
Y8622D01*
X2940Y8944D02*
X2894Y8898D01*
Y8806D01*
X2940Y8760D01*
X3123D01*
X3169Y8806D01*
Y8898D01*
X3123Y8944D01*
X2940Y9035D02*
X2894Y9081D01*
Y9173D01*
X2940Y9219D01*
X2986D01*
X3032Y9173D01*
X3077Y9219D01*
X3123D01*
X3169Y9173D01*
Y9081D01*
X3123Y9035D01*
X3077D01*
X3032Y9081D01*
X2986Y9035D01*
X2940D01*
X3032Y9081D02*
Y9173D01*
D14*
X5315Y0D02*
G03*
X5512Y197I0J197D01*
G01*
Y10039D02*
G03*
X5315Y10236I-197J0D01*
G01*
X3937Y10413D02*
G03*
X4114Y10236I177J0D01*
G01*
X4134Y10630D02*
G03*
X3937Y10433I0J-197D01*
G01*
X5315Y10630D02*
G03*
X5512Y10827I0J197D01*
G01*
Y12795D02*
G03*
X5315Y12992I-197J0D01*
G01*
X157D02*
G03*
X0Y12835I0J-157D01*
G01*
Y10827D02*
G03*
X197Y10630I197J0D01*
G01*
X1575Y10433D02*
G03*
X1378Y10630I-197J0D01*
G01*
X1398Y10236D02*
G03*
X1575Y10413I0J177D01*
G01*
X197Y10236D02*
G03*
X0Y10039I0J-197D01*
G01*
Y251D02*
G03*
X251Y0I251J0D01*
G01*
X251D02*
X5315D01*
X5512Y197D02*
Y251D01*
Y10039D01*
X4114Y10236D02*
X5315D01*
X3937Y10413D02*
Y10433D01*
X4134Y10630D02*
X5315D01*
X5512Y10827D02*
Y12795D01*
X5261Y12992D02*
X5315D01*
X157D02*
X5261D01*
X0Y10827D02*
Y12835D01*
X197Y10630D02*
X1378D01*
X1575Y10413D02*
Y10433D01*
X197Y10236D02*
X1398D01*
X0Y9985D02*
Y10039D01*
Y251D02*
Y9985D01*
X251Y0D02*
X251D01*
D24*
X3316Y2360D02*
G03*
X3316Y2360I-50J0D01*
G01*
Y339D02*
G03*
X3316Y339I-50J0D01*
G01*
Y6403D02*
G03*
X3316Y6403I-50J0D01*
G01*
X2296Y12614D02*
G03*
X2296Y12614I-50J0D01*
G01*
X2296Y9322D02*
G03*
X2296Y9322I-50J0D01*
G01*
Y7301D02*
G03*
X2296Y7301I-50J0D01*
G01*
Y5279D02*
G03*
X2296Y5279I-50J0D01*
G01*
Y3258D02*
G03*
X2296Y3258I-50J0D01*
G01*
Y1236D02*
G03*
X2296Y1236I-50J0D01*
G01*
X3316Y11717D02*
G03*
X3316Y11717I-50J0D01*
G01*
X3335Y8425D02*
G03*
X3335Y8425I-50J0D01*
G01*
X3316Y4382D02*
G03*
X3316Y4382I-50J0D01*
G01*
X2677Y5728D02*
X2835D01*
X2677Y6004D02*
X2835D01*
D25*
X5049Y2809D02*
G03*
X5049Y2809I-197J0D01*
G01*
Y787D02*
G03*
X5049Y787I-197J0D01*
G01*
Y6852D02*
G03*
X5049Y6852I-197J0D01*
G01*
X856Y12165D02*
G03*
X856Y12165I-197J0D01*
G01*
X856Y8874D02*
G03*
X856Y8874I-197J0D01*
G01*
Y6852D02*
G03*
X856Y6852I-197J0D01*
G01*
Y4830D02*
G03*
X856Y4830I-197J0D01*
G01*
Y2809D02*
G03*
X856Y2809I-197J0D01*
G01*
Y787D02*
G03*
X856Y787I-197J0D01*
G01*
X5049Y12165D02*
G03*
X5049Y12165I-197J0D01*
G01*
X5069Y8874D02*
G03*
X5069Y8874I-197J0D01*
G01*
X5049Y4830D02*
G03*
X5049Y4830I-197J0D01*
G01*
X3396Y2218D02*
Y3400D01*
X5364Y2218D02*
Y3400D01*
X3396Y197D02*
Y1378D01*
X5364Y197D02*
Y1378D01*
X3396Y6261D02*
Y7443D01*
X5364Y6261D02*
Y7443D01*
X148Y11575D02*
Y12756D01*
X2116Y11575D02*
Y12756D01*
X148Y8283D02*
Y9464D01*
X2116Y8283D02*
Y9464D01*
X148Y6261D02*
Y7443D01*
X2116Y6261D02*
Y7443D01*
X148Y4240D02*
Y5421D01*
X2116Y4240D02*
Y5421D01*
Y2218D02*
Y3400D01*
X148Y2218D02*
Y3400D01*
X2116Y197D02*
Y1378D01*
X148Y197D02*
Y1378D01*
X3396Y11575D02*
Y12756D01*
X5364Y11575D02*
Y12756D01*
X3415Y8283D02*
Y9464D01*
X5384Y8283D02*
Y9464D01*
X3396Y4240D02*
Y5421D01*
X5364Y4240D02*
Y5421D01*
D26*
X2707Y5979D02*
D03*
M02*
