M48
;Layer_Color=9474304
;FILE_FORMAT=4:3
METRIC,LZ
T3F00S00C0.500
%
G90
G05
T03
G00X001375Y002675
M15
G01X001045Y002675
G01X0010358Y0026712
G01X0010288Y0026642
G01X001025Y002655
G01X001025Y002645
G01X0010288Y0026358
G01X0010358Y0026288
G01X001045Y002625
G01X001375Y002625
G01X001375Y002675
M16
G00X0003642Y0026288
M15
G01X0003712Y0026358
G01X000375Y002645
G01X000375Y002655
G01X0003712Y0026642
G01X0003642Y0026712
G01X000355Y002675
G01X000025Y002675
G01X000025Y002625
G01X000355Y002625
G01X0003642Y0026288
M16
G00X0008642Y0026288
M15
G01X0008712Y0026358
G01X000875Y002645
G01X000875Y002655
G01X0008712Y0026642
G01X0008642Y0026712
G01X000855Y002675
G01X000795Y002675
G01X0007858Y0026712
G01X0007788Y0026642
G01X000775Y002655
G01X000775Y002645
G01X0007788Y0026358
G01X0007858Y0026288
G01X000795Y002625
G01X000855Y002625
G01X0008642Y0026288
M16
G00X0006142Y0026288
M15
G01X0006212Y0026358
G01X000625Y002645
G01X000625Y002655
G01X0006212Y0026642
G01X0006142Y0026712
G01X000605Y002675
G01X000545Y002675
G01X0005358Y0026712
G01X0005288Y0026642
G01X000525Y002655
G01X000525Y002645
G01X0005288Y0026358
G01X0005358Y0026288
G01X000545Y002625
G01X000605Y002625
G01X0006142Y0026288
M16
G00X0013444Y-000025
M15
G01X0013549Y-0000255
G01X0013744Y-0000216
G01X0013834Y-0000179
G01X0013999Y-0000068
G01X0014068Y0000001
G01X0014179Y0000166
G01X0014216Y0000256
G01X001426Y00005
G01X001425Y0025443
G01X0014255Y0025549
G01X0014216Y0025744
G01X0014179Y0025834
G01X0014068Y0025999
G01X0013999Y0026068
G01X0013834Y0026179
G01X0013744Y0026216
G01X0013499Y002626
G01X0010449Y002625
G01X0010442Y0026248
G01X0010372Y0026262
G01X0010306Y0026306
G01X0010262Y0026372
G01X0010246Y0026453
G01X0010246Y0026456
G01X0010242Y0026485
G01X0010265Y0026598
G01X001032Y002668
G01X0010402Y0026735
G01X0010524Y002676
G01X0013438Y002675
G01X0013549Y0026745
G01X0013744Y0026784
G01X0013834Y0026821
G01X0013999Y0026932
G01X0014068Y0027001
G01X0014179Y0027166
G01X0014216Y0027256
G01X001426Y00275
G01X001425Y0032445
G01X0014255Y0032549
G01X0014216Y0032744
G01X0014179Y0032834
G01X0014068Y0032999
G01X0013999Y0033068
G01X0013834Y0033179
G01X0013744Y0033216
G01X00135Y003326
G01X0000415Y003325
G01X0000351Y0033253
G01X0000195Y0033222
G01X0000105Y0033185
G01X-0000027Y0033096
G01X-0000096Y0033027
G01X-0000185Y0032895
G01X-0000222Y0032805
G01X-0000258Y00326
G01X-000025Y0027556
G01X-0000255Y0027451
G01X-0000216Y0027256
G01X-0000179Y0027166
G01X-0000068Y0027001
G01X0000001Y0026932
G01X0000166Y0026821
G01X0000256Y0026784
G01X0000501Y002674
G01X0003501Y002675
G01X000351Y0026753
G01X0003598Y0026735
G01X000368Y002668
G01X0003735Y0026598
G01X0003755Y00265
G01X0003755Y0026499
G01X0003758Y0026471
G01X0003738Y0026372
G01X0003694Y0026306
G01X0003628Y0026262
G01X0003525Y0026241
G01X0000561Y002625
G01X0000451Y0026255
G01X0000256Y0026216
G01X0000166Y0026179
G01X0000001Y0026068
G01X-0000068Y0025999
G01X-0000179Y0025834
G01X-0000216Y0025744
G01X-000026Y00255
G01X-000025Y0000712
G01X-0000252Y0000709
G01X-0000258Y0000589
G01X-0000208Y000034
G01X-0000171Y000025
G01X-000003Y0000039
G01X0000039Y-000003
G01X000025Y-0000171
G01X000034Y-0000208
G01X0000638Y-0000262
G01X0013444Y-000025
M16
M17
M30
