G04 Layer_Physical_Order=1*
G04 Layer_Color=255*
%FSLAX24Y24*%
%MOIN*%
G70*
G01*
G75*
%ADD10R,0.0217X0.0413*%
%ADD11R,0.0354X0.0276*%
%ADD12R,0.0315X0.0315*%
%ADD13C,0.0100*%
%ADD14C,0.0039*%
%ADD15C,0.0394*%
%ADD16R,0.0394X0.0394*%
%ADD17C,0.0180*%
G36*
X5268Y12975D02*
X5273Y12958D01*
X5276Y12956D01*
X5277Y12954D01*
X5294Y12947D01*
X5310Y12938D01*
X5340Y12935D01*
X5394Y12913D01*
X5433Y12874D01*
X5455Y12820D01*
X5458Y12790D01*
X5467Y12774D01*
X5474Y12757D01*
X5476Y12756D01*
X5477Y12753D01*
X5495Y12748D01*
X5512Y12741D01*
Y10881D01*
X5495Y10874D01*
X5477Y10869D01*
X5476Y10866D01*
X5474Y10865D01*
X5467Y10848D01*
X5458Y10832D01*
X5455Y10802D01*
X5433Y10748D01*
X5394Y10709D01*
X5340Y10687D01*
X5312Y10684D01*
X4239D01*
Y11012D01*
X4285Y11031D01*
X4433Y10883D01*
X4466Y10861D01*
X4506Y10853D01*
X5148D01*
X5187Y10861D01*
X5220Y10883D01*
X5398Y11061D01*
X5421Y11094D01*
X5428Y11133D01*
Y12598D01*
X5421Y12637D01*
X5398Y12671D01*
X5365Y12693D01*
X5326Y12700D01*
X5276D01*
Y12855D01*
X4960D01*
Y12342D01*
X5224D01*
Y12039D01*
X5168D01*
Y11732D01*
Y11426D01*
X5224D01*
Y11176D01*
X5105Y11057D01*
X4548D01*
X4265Y11339D01*
X4232Y11362D01*
X4193Y11369D01*
X3492D01*
X3453Y11362D01*
X3420Y11339D01*
X3398Y11306D01*
X3390Y11267D01*
Y11134D01*
X3314Y11083D01*
X3270Y11017D01*
X3266Y11016D01*
X3218D01*
X3214Y11017D01*
X3170Y11083D01*
X3094Y11134D01*
Y11713D01*
Y12496D01*
X3483D01*
Y12342D01*
X3796D01*
Y12267D01*
X3416D01*
X3372Y12297D01*
X3317Y12308D01*
X3262Y12297D01*
X3216Y12266D01*
X3185Y12220D01*
X3174Y12165D01*
X3185Y12111D01*
X3216Y12064D01*
X3262Y12033D01*
X3317Y12023D01*
X3372Y12033D01*
X3385Y12042D01*
X3433Y12015D01*
Y11782D01*
X3642D01*
X3850D01*
Y12013D01*
X3850Y12039D01*
X3890Y12063D01*
X3898D01*
X3937Y12071D01*
X3970Y12093D01*
X3992Y12126D01*
X4000Y12165D01*
Y12342D01*
X4292D01*
Y12855D01*
X3976D01*
Y12700D01*
X3898D01*
X3859Y12693D01*
X3850Y12687D01*
X3800Y12714D01*
Y12855D01*
X3483D01*
Y12700D01*
X2992D01*
X2953Y12693D01*
X2920Y12671D01*
X2898Y12637D01*
X2890Y12598D01*
Y11815D01*
X2028D01*
Y11989D01*
X1712D01*
Y11476D01*
X2028D01*
Y11611D01*
X2890D01*
Y11134D01*
X2814Y11083D01*
X2770Y11017D01*
X2766Y11016D01*
X2718D01*
X2714Y11017D01*
X2670Y11083D01*
X2588Y11138D01*
X2492Y11157D01*
X2396Y11138D01*
X2314Y11083D01*
X2270Y11017D01*
X2266Y11016D01*
X2218D01*
X2214Y11017D01*
X2170Y11083D01*
X2094Y11134D01*
Y11240D01*
X2086Y11279D01*
X2064Y11312D01*
X2031Y11334D01*
X1992Y11342D01*
X496D01*
Y11476D01*
X552D01*
Y11989D01*
X283D01*
X279Y12039D01*
X301Y12043D01*
X345Y12073D01*
X463D01*
X502Y12081D01*
X535Y12103D01*
X773Y12342D01*
X1044D01*
Y12421D01*
X1094Y12460D01*
X1112Y12456D01*
X1167Y12467D01*
X1170Y12469D01*
X1220Y12442D01*
Y12342D01*
X1536D01*
Y12855D01*
X1220D01*
Y12756D01*
X1170Y12729D01*
X1167Y12731D01*
X1112Y12742D01*
X1094Y12738D01*
X1044Y12777D01*
Y12855D01*
X728D01*
Y12584D01*
X648Y12505D01*
X602Y12524D01*
Y12548D01*
X394D01*
X185D01*
Y12303D01*
X145Y12276D01*
X114Y12230D01*
X103Y12175D01*
X114Y12121D01*
X145Y12074D01*
X191Y12043D01*
X228Y12036D01*
X236Y11989D01*
X236Y11984D01*
Y11476D01*
X292D01*
Y11240D01*
X300Y11201D01*
X322Y11168D01*
X355Y11146D01*
X394Y11138D01*
X1233D01*
X1258Y11088D01*
X1233Y11055D01*
X1203Y10983D01*
X1199Y10956D01*
X1492D01*
Y10856D01*
X1199D01*
X1203Y10828D01*
X1233Y10756D01*
X1250Y10734D01*
X1225Y10684D01*
X200D01*
X172Y10687D01*
X118Y10709D01*
X79Y10748D01*
X57Y10802D01*
X54Y10832D01*
X45Y10848D01*
X38Y10865D01*
X36Y10866D01*
X34Y10869D01*
X17Y10874D01*
X0Y10881D01*
Y12781D01*
X17Y12788D01*
X34Y12793D01*
X36Y12795D01*
X38Y12796D01*
X45Y12813D01*
X54Y12829D01*
X56Y12852D01*
X72Y12891D01*
X101Y12920D01*
X140Y12936D01*
X149Y12937D01*
X181Y12903D01*
X185Y12894D01*
Y12648D01*
X344D01*
Y12905D01*
X217D01*
X199Y12951D01*
X225Y12992D01*
X5261D01*
X5268Y12975D01*
D02*
G37*
G36*
X5340Y10179D02*
X5394Y10157D01*
X5433Y10118D01*
X5455Y10064D01*
X5458Y10034D01*
X5467Y10018D01*
X5474Y10001D01*
X5476Y10000D01*
X5477Y9998D01*
X5495Y9992D01*
X5512Y9985D01*
Y251D01*
X5495Y244D01*
X5477Y239D01*
X5476Y236D01*
X5474Y235D01*
X5467Y218D01*
X5458Y202D01*
X5455Y172D01*
X5433Y118D01*
X5394Y79D01*
X5376Y72D01*
X5326Y105D01*
Y304D01*
X5118D01*
X4910D01*
Y48D01*
X4910D01*
X4904Y0D01*
X3856D01*
X3850Y48D01*
X3850Y50D01*
Y304D01*
X3642D01*
X3433D01*
Y50D01*
X3433Y48D01*
X3428Y0D01*
X251D01*
X244Y17D01*
X239Y34D01*
X236Y36D01*
X235Y38D01*
X218Y45D01*
X202Y54D01*
X172Y57D01*
X118Y79D01*
X79Y118D01*
X57Y172D01*
X54Y202D01*
X45Y218D01*
X38Y235D01*
X36Y236D01*
X34Y239D01*
X17Y244D01*
X0Y251D01*
Y9985D01*
X17Y9992D01*
X34Y9998D01*
X36Y10000D01*
X38Y10001D01*
X45Y10018D01*
X54Y10034D01*
X57Y10064D01*
X79Y10118D01*
X118Y10157D01*
X172Y10179D01*
X200Y10182D01*
X1229D01*
X1251Y10137D01*
X1247Y10132D01*
X1217Y10059D01*
X1213Y10032D01*
X1506D01*
Y9932D01*
X1213D01*
X1217Y9904D01*
X1247Y9832D01*
X1294Y9770D01*
X1297Y9768D01*
X1280Y9718D01*
X1170D01*
X1131Y9710D01*
X1098Y9688D01*
X1076Y9655D01*
X1029Y9665D01*
X1018Y9720D01*
X987Y9766D01*
X940Y9797D01*
X886Y9808D01*
X831Y9797D01*
X785Y9766D01*
X754Y9720D01*
X743Y9665D01*
X753Y9613D01*
X754Y9610D01*
X728Y9563D01*
X728D01*
Y9050D01*
X1044Y9050D01*
X1068Y9010D01*
Y8737D01*
X1044Y8697D01*
X1018Y8697D01*
X728D01*
Y8184D01*
X1044Y8184D01*
X1068Y8144D01*
Y7667D01*
X1018Y7662D01*
X1008Y7712D01*
X977Y7758D01*
X931Y7789D01*
X876Y7800D01*
X821Y7789D01*
X775Y7758D01*
X744Y7712D01*
X733Y7657D01*
X744Y7603D01*
X751Y7592D01*
X728Y7542D01*
X728D01*
Y7028D01*
X1044Y7028D01*
X1068Y6988D01*
Y6716D01*
X1044Y6676D01*
X1018Y6676D01*
X728D01*
Y6162D01*
X1044Y6162D01*
X1068Y6122D01*
Y5680D01*
X1018Y5675D01*
X987Y5721D01*
X940Y5752D01*
X886Y5763D01*
X831Y5752D01*
X785Y5721D01*
X754Y5675D01*
X743Y5620D01*
X753Y5570D01*
X752Y5562D01*
X728Y5520D01*
X728D01*
Y5007D01*
X1044Y5007D01*
X1068Y4967D01*
Y4694D01*
X1044Y4654D01*
X1018Y4654D01*
X728D01*
Y4141D01*
X1044Y4141D01*
X1068Y4100D01*
Y3681D01*
X1018Y3676D01*
X1018Y3677D01*
X987Y3723D01*
X940Y3754D01*
X886Y3765D01*
X831Y3754D01*
X785Y3723D01*
X754Y3677D01*
X743Y3622D01*
X754Y3567D01*
X766Y3549D01*
X740Y3499D01*
X728D01*
Y2985D01*
X1044Y2985D01*
X1068Y2945D01*
Y2673D01*
X1044Y2633D01*
X1018Y2633D01*
X728D01*
Y2119D01*
X1044Y2119D01*
X1068Y2079D01*
Y1644D01*
X1018Y1639D01*
X987Y1686D01*
X940Y1717D01*
X886Y1727D01*
X831Y1717D01*
X785Y1686D01*
X754Y1639D01*
X743Y1585D01*
X754Y1530D01*
X756Y1527D01*
X729Y1477D01*
X728D01*
Y964D01*
X1044Y964D01*
X1068Y924D01*
Y651D01*
X1044Y611D01*
X1018Y611D01*
X728D01*
Y98D01*
X1044D01*
Y272D01*
X1094Y287D01*
X1098Y282D01*
X1131Y260D01*
X1170Y252D01*
X1220D01*
Y98D01*
X1536D01*
Y272D01*
X1586Y287D01*
X1590Y282D01*
X1623Y260D01*
X1662Y252D01*
X1712D01*
Y98D01*
X2028D01*
Y611D01*
X1764D01*
Y914D01*
X1820D01*
Y1221D01*
Y1527D01*
X1764D01*
Y2119D01*
X2028D01*
Y2633D01*
X1764D01*
Y2935D01*
X1820D01*
Y3242D01*
Y3549D01*
X1764D01*
Y4141D01*
X2028D01*
Y4654D01*
X1764D01*
Y4957D01*
X1820D01*
Y5264D01*
X1870D01*
Y5314D01*
X2078D01*
Y5551D01*
X2127Y5573D01*
X2741Y4959D01*
X2752Y4906D01*
X2783Y4860D01*
X2825Y4831D01*
X2833Y4821D01*
X2845Y4781D01*
X2800Y4735D01*
X2529D01*
Y4359D01*
X2931D01*
Y4273D01*
X2806D01*
Y4035D01*
X2756D01*
Y3985D01*
X2479D01*
Y3798D01*
X2431Y3793D01*
X2343D01*
X2304Y3785D01*
X2270Y3763D01*
X2156Y3648D01*
X2134Y3615D01*
X2126Y3576D01*
Y3555D01*
X2078Y3549D01*
Y3549D01*
X1920D01*
Y3242D01*
Y2935D01*
X2078D01*
Y2935D01*
X2126Y2930D01*
Y2083D01*
X2134Y2044D01*
X2156Y2011D01*
X2210Y1957D01*
X2220Y1904D01*
X2251Y1858D01*
X2298Y1827D01*
X2352Y1816D01*
X2407Y1827D01*
X2453Y1858D01*
X2484Y1904D01*
X2495Y1959D01*
X2484Y2013D01*
X2453Y2060D01*
X2407Y2091D01*
X2354Y2101D01*
X2330Y2125D01*
Y3534D01*
X2385Y3589D01*
X2864D01*
X2903Y3597D01*
X2936Y3619D01*
X3036Y3718D01*
X3047Y3726D01*
X3105Y3784D01*
X3127Y3817D01*
X3135Y3856D01*
Y4495D01*
X3381Y4741D01*
X3403Y4774D01*
X3411Y4813D01*
Y6072D01*
X3433Y6112D01*
X3592D01*
Y6419D01*
Y6726D01*
X3433D01*
X3411Y6766D01*
Y7105D01*
X3403Y7144D01*
X3381Y7177D01*
X3302Y7256D01*
X3291Y7309D01*
X3260Y7355D01*
X3214Y7386D01*
X3159Y7397D01*
X3105Y7386D01*
X3059Y7355D01*
X3028Y7309D01*
X3017Y7254D01*
X3028Y7199D01*
X3059Y7153D01*
X3105Y7122D01*
X3158Y7112D01*
X3207Y7062D01*
Y6074D01*
X2844D01*
Y5659D01*
X2972D01*
Y5126D01*
X2922Y5096D01*
X2886Y5103D01*
X2376Y5612D01*
X2395Y5659D01*
X2668D01*
Y6074D01*
X2590D01*
X2571Y6124D01*
X2593Y6156D01*
X2603Y6211D01*
X2593Y6265D01*
X2562Y6312D01*
X2515Y6343D01*
X2461Y6353D01*
X2406Y6343D01*
X2360Y6312D01*
X2329Y6265D01*
X2318Y6211D01*
X2329Y6156D01*
X2350Y6124D01*
X2332Y6074D01*
X2253D01*
Y5801D01*
X2207Y5782D01*
X1972Y6017D01*
Y6162D01*
X2028D01*
Y6317D01*
X2052D01*
X2091Y6325D01*
X2124Y6347D01*
X2503Y6726D01*
X2556Y6736D01*
X2602Y6767D01*
X2633Y6814D01*
X2644Y6868D01*
X2633Y6923D01*
X2602Y6969D01*
X2556Y7000D01*
X2501Y7011D01*
X2447Y7000D01*
X2400Y6969D01*
X2370Y6923D01*
X2359Y6870D01*
X2075Y6586D01*
X2028Y6605D01*
Y6676D01*
X1764D01*
Y6978D01*
X1820D01*
Y7285D01*
X1870D01*
Y7335D01*
X2078D01*
Y7592D01*
X1972D01*
Y8012D01*
X1972Y8012D01*
X1964Y8051D01*
X1942Y8084D01*
X1909Y8106D01*
X1870Y8114D01*
X1870D01*
X1831Y8106D01*
X1814Y8094D01*
X1765Y8115D01*
X1764Y8117D01*
Y8184D01*
X2028D01*
Y8366D01*
X2032Y8368D01*
X2429Y8765D01*
X2483Y8749D01*
X2486Y8735D01*
X2517Y8688D01*
X2563Y8657D01*
X2616Y8647D01*
X2693Y8570D01*
Y7041D01*
X2701Y7002D01*
X2723Y6968D01*
X2825Y6866D01*
X2836Y6814D01*
X2867Y6767D01*
X2913Y6736D01*
X2968Y6726D01*
X3022Y6736D01*
X3068Y6767D01*
X3099Y6814D01*
X3110Y6868D01*
X3099Y6923D01*
X3068Y6969D01*
X3022Y7000D01*
X2969Y7011D01*
X2897Y7083D01*
Y8612D01*
X2889Y8651D01*
X2867Y8684D01*
X2760Y8791D01*
X2750Y8844D01*
X2747Y8848D01*
X2774Y8898D01*
X3355D01*
X3385Y8904D01*
X3512D01*
X3623Y8793D01*
X3604Y8747D01*
X3453D01*
Y8490D01*
X3661D01*
Y8440D01*
X3711D01*
Y8134D01*
X3768D01*
Y7542D01*
X3483D01*
Y7028D01*
X3748D01*
Y6726D01*
X3692D01*
Y6419D01*
Y6112D01*
X3748D01*
Y5520D01*
X3483D01*
Y5007D01*
X3748D01*
Y4704D01*
X3692D01*
Y4397D01*
Y4091D01*
X3738D01*
X3739Y4041D01*
X3698Y4019D01*
X3696Y4020D01*
X3642Y4031D01*
X3587Y4020D01*
X3541Y3989D01*
X3510Y3942D01*
X3499Y3890D01*
X3032Y3422D01*
X2677D01*
X2638Y3414D01*
X2605Y3392D01*
X2448Y3235D01*
X2426Y3202D01*
X2418Y3163D01*
Y3071D01*
X2426Y3032D01*
X2448Y2999D01*
X2664Y2783D01*
Y2481D01*
X2634Y2437D01*
X2623Y2382D01*
X2634Y2327D01*
X2665Y2281D01*
X2711Y2250D01*
X2766Y2239D01*
X2820Y2250D01*
X2867Y2281D01*
X2926Y2280D01*
X2957Y2260D01*
X3012Y2249D01*
X3063Y2259D01*
X3074Y2258D01*
X3113Y2238D01*
Y1810D01*
X2990Y1688D01*
X2937Y1677D01*
X2891Y1646D01*
X2860Y1600D01*
X2849Y1545D01*
X2860Y1491D01*
X2891Y1444D01*
X2937Y1413D01*
X2992Y1403D01*
X3047Y1413D01*
X3093Y1444D01*
X3124Y1491D01*
X3135Y1543D01*
X3287Y1696D01*
X3309Y1729D01*
X3317Y1768D01*
Y2908D01*
X3309Y2947D01*
X3287Y2980D01*
X3135Y3132D01*
X3124Y3185D01*
X3124Y3186D01*
X3113Y3226D01*
X3146Y3248D01*
X3644Y3745D01*
X3696Y3756D01*
X3698Y3757D01*
X3748Y3730D01*
Y3499D01*
X3483D01*
Y2985D01*
X3540D01*
Y2900D01*
X3520Y2870D01*
X3509Y2815D01*
X3520Y2760D01*
X3538Y2733D01*
X3515Y2683D01*
X3433D01*
Y2426D01*
X3642D01*
Y2376D01*
X3692D01*
Y2069D01*
X3748D01*
Y1477D01*
X3483D01*
Y964D01*
X3800D01*
Y1119D01*
X3850D01*
X3889Y1126D01*
X3922Y1148D01*
X3926Y1154D01*
X3976Y1138D01*
Y964D01*
X3984D01*
X3989Y951D01*
X3992Y914D01*
X3954Y888D01*
X3923Y842D01*
X3913Y787D01*
X3923Y733D01*
X3953Y688D01*
Y433D01*
X3961Y394D01*
X3976Y372D01*
Y98D01*
X4292D01*
Y611D01*
X4157D01*
Y688D01*
X4187Y733D01*
X4198Y787D01*
X4187Y842D01*
X4156Y888D01*
X4118Y914D01*
X4122Y951D01*
X4126Y964D01*
X4292D01*
Y1119D01*
X4362D01*
X4401Y1126D01*
X4418Y1138D01*
X4467Y1116D01*
X4468Y1115D01*
Y964D01*
X4777D01*
Y650D01*
X4738Y611D01*
X4468D01*
Y98D01*
X4784D01*
Y368D01*
X4864Y448D01*
X4910Y429D01*
Y404D01*
X5118D01*
X5326D01*
Y661D01*
X5220D01*
Y787D01*
X5220Y787D01*
X5212Y826D01*
X5190Y860D01*
X5157Y882D01*
X5118Y889D01*
X5079Y882D01*
X5046Y860D01*
X5046Y859D01*
X5031Y838D01*
X4981Y849D01*
Y964D01*
X5276D01*
Y1234D01*
X5407Y1365D01*
X5429Y1398D01*
X5437Y1437D01*
Y3702D01*
X5429Y3741D01*
X5407Y3774D01*
X5137Y4044D01*
X5156Y4091D01*
X5326D01*
Y4347D01*
X5118D01*
X4910D01*
Y4123D01*
X4834D01*
X4789Y4153D01*
X4784Y4153D01*
Y4654D01*
X4468D01*
X4464Y4702D01*
Y4959D01*
X4468Y5007D01*
X4514Y5007D01*
X4784D01*
Y5520D01*
X4468Y5520D01*
X4464Y5569D01*
Y5955D01*
X4514Y5970D01*
X4525Y5953D01*
X4572Y5922D01*
X4626Y5911D01*
X4681Y5922D01*
X4727Y5953D01*
X4758Y5999D01*
X4769Y6053D01*
X4758Y6108D01*
X4755Y6112D01*
X4782Y6162D01*
X4784D01*
Y6676D01*
X4468Y6676D01*
X4464Y6724D01*
Y6980D01*
X4468Y7028D01*
X4514Y7028D01*
X4784D01*
Y7409D01*
X4830Y7429D01*
X4960Y7299D01*
Y7028D01*
X5276D01*
Y7542D01*
X5006D01*
X4800Y7748D01*
X4767Y7770D01*
X4735Y7776D01*
X4735Y7776D01*
X4689Y7807D01*
X4634Y7818D01*
X4580Y7807D01*
X4533Y7776D01*
X4514Y7747D01*
X4464Y7762D01*
Y8023D01*
X4514Y8028D01*
X4514Y8026D01*
X4545Y7980D01*
X4591Y7949D01*
X4646Y7938D01*
X4701Y7949D01*
X4747Y7980D01*
X4778Y8026D01*
X4789Y8081D01*
X4778Y8134D01*
X4778Y8136D01*
X4804Y8184D01*
X4804D01*
Y8697D01*
X4487Y8697D01*
X4464Y8737D01*
Y9010D01*
X4487Y9050D01*
X4514Y9050D01*
X4804D01*
Y9563D01*
X4487D01*
Y9446D01*
X4437Y9421D01*
X4433Y9424D01*
Y9616D01*
X4425Y9655D01*
X4403Y9688D01*
X4370Y9710D01*
X4331Y9718D01*
X4296D01*
X4253Y9735D01*
Y10182D01*
X5312D01*
X5340Y10179D01*
D02*
G37*
G36*
X3503Y9293D02*
X3312Y9102D01*
X2961D01*
Y9221D01*
X2991Y9266D01*
X3002Y9321D01*
X2991Y9375D01*
X2960Y9422D01*
X2914Y9453D01*
X2859Y9464D01*
X2805Y9453D01*
X2758Y9422D01*
X2727Y9375D01*
X2716Y9321D01*
X2727Y9266D01*
X2757Y9221D01*
Y9102D01*
X2520D01*
X2481Y9094D01*
X2462Y9081D01*
X2425Y9117D01*
X2437Y9134D01*
X2444Y9173D01*
Y9221D01*
X2474Y9266D01*
X2485Y9321D01*
X2474Y9375D01*
X2443Y9422D01*
X2397Y9453D01*
X2343Y9464D01*
X2288Y9453D01*
X2242Y9422D01*
X2211Y9375D01*
X2200Y9321D01*
X2211Y9266D01*
X2241Y9221D01*
Y9215D01*
X2124Y9099D01*
X2078Y9119D01*
Y9257D01*
X1870D01*
Y9357D01*
X2078D01*
Y9514D01*
X3503D01*
Y9293D01*
D02*
G37*
%LPC*%
G36*
X3850Y11682D02*
X3692D01*
Y11426D01*
X3850D01*
Y11682D01*
D02*
G37*
G36*
X5068D02*
X4910D01*
Y11426D01*
X5068D01*
Y11682D01*
D02*
G37*
G36*
X1044Y11989D02*
X728D01*
Y11476D01*
X1044D01*
Y11989D01*
D02*
G37*
G36*
X3592Y11682D02*
X3433D01*
Y11426D01*
X3592D01*
Y11682D01*
D02*
G37*
G36*
X1820Y12905D02*
X1662D01*
Y12648D01*
X1820D01*
Y12905D01*
D02*
G37*
G36*
X602D02*
X444D01*
Y12648D01*
X602D01*
Y12905D01*
D02*
G37*
G36*
X2078D02*
X1920D01*
Y12648D01*
X2078D01*
Y12905D01*
D02*
G37*
G36*
X4784Y12855D02*
X4468D01*
Y12342D01*
X4784D01*
Y12855D01*
D02*
G37*
G36*
X5068Y12039D02*
X4910D01*
Y11782D01*
X5068D01*
Y12039D01*
D02*
G37*
G36*
X4784Y11989D02*
X4468D01*
Y11921D01*
X4418Y11882D01*
X4400Y11885D01*
X4345Y11875D01*
X4342Y11873D01*
X4292Y11899D01*
Y11989D01*
X3976D01*
Y11476D01*
X4292D01*
Y11586D01*
X4342Y11613D01*
X4345Y11611D01*
X4400Y11600D01*
X4418Y11604D01*
X4468Y11564D01*
Y11476D01*
X4528D01*
X4532Y11457D01*
X4554Y11424D01*
X4570Y11408D01*
X4562Y11368D01*
X4573Y11313D01*
X4604Y11267D01*
X4650Y11236D01*
X4705Y11225D01*
X4759Y11236D01*
X4806Y11267D01*
X4837Y11313D01*
X4847Y11368D01*
X4837Y11423D01*
X4806Y11469D01*
X4784Y11483D01*
Y11989D01*
D02*
G37*
G36*
X2078Y12548D02*
X1870D01*
X1662D01*
Y12317D01*
X1662Y12292D01*
X1622Y12267D01*
X1378D01*
X1339Y12260D01*
X1306Y12237D01*
X1284Y12204D01*
X1276Y12165D01*
Y11989D01*
X1220D01*
Y11476D01*
X1536D01*
Y11989D01*
X1480D01*
Y12063D01*
X2393D01*
X2438Y12033D01*
X2492Y12023D01*
X2547Y12033D01*
X2593Y12064D01*
X2624Y12111D01*
X2635Y12165D01*
X2624Y12220D01*
X2593Y12266D01*
X2547Y12297D01*
X2492Y12308D01*
X2438Y12297D01*
X2393Y12267D01*
X2118D01*
X2078Y12292D01*
X2078Y12317D01*
Y12548D01*
D02*
G37*
G36*
X5326Y4704D02*
X5168D01*
Y4447D01*
X5326D01*
Y4704D01*
D02*
G37*
G36*
X344Y5214D02*
X185D01*
Y4957D01*
X344D01*
Y5214D01*
D02*
G37*
G36*
X602D02*
X444D01*
Y4957D01*
X602D01*
Y5214D01*
D02*
G37*
G36*
X5068Y4704D02*
X4910D01*
Y4447D01*
X5068D01*
Y4704D01*
D02*
G37*
G36*
X2706Y4273D02*
X2479D01*
Y4085D01*
X2706D01*
Y4273D01*
D02*
G37*
G36*
X3592Y4347D02*
X3433D01*
Y4091D01*
X3592D01*
Y4347D01*
D02*
G37*
G36*
Y4704D02*
X3433D01*
Y4447D01*
X3592D01*
Y4704D01*
D02*
G37*
G36*
X552Y6676D02*
X236D01*
Y6162D01*
X238D01*
X265Y6112D01*
X262Y6108D01*
X251Y6053D01*
X262Y5999D01*
X293Y5953D01*
X339Y5922D01*
X394Y5911D01*
X448Y5922D01*
X495Y5953D01*
X526Y5999D01*
X536Y6053D01*
X526Y6108D01*
X523Y6112D01*
X550Y6162D01*
X552D01*
Y6676D01*
D02*
G37*
G36*
X5068Y6369D02*
X4910D01*
Y6112D01*
X5068D01*
Y6369D01*
D02*
G37*
G36*
X5326D02*
X5168D01*
Y6112D01*
X5326D01*
Y6369D01*
D02*
G37*
G36*
X602Y5570D02*
X444D01*
Y5314D01*
X602D01*
Y5570D01*
D02*
G37*
G36*
X2078Y5214D02*
X1920D01*
Y4957D01*
X2078D01*
Y5214D01*
D02*
G37*
G36*
X5118Y5812D02*
X5063Y5801D01*
X5017Y5770D01*
X4986Y5724D01*
X4975Y5669D01*
X4986Y5615D01*
X5016Y5570D01*
Y5520D01*
X4960D01*
Y5007D01*
X5276D01*
Y5520D01*
X5220D01*
Y5570D01*
X5250Y5615D01*
X5261Y5669D01*
X5250Y5724D01*
X5219Y5770D01*
X5173Y5801D01*
X5118Y5812D01*
D02*
G37*
G36*
X344Y5570D02*
X185D01*
Y5314D01*
X344D01*
Y5570D01*
D02*
G37*
G36*
X2078Y1527D02*
X1920D01*
Y1271D01*
X2078D01*
Y1527D01*
D02*
G37*
G36*
X552Y2633D02*
X236D01*
Y2119D01*
X236D01*
X263Y2069D01*
X252Y2053D01*
X241Y1998D01*
X252Y1943D01*
X283Y1897D01*
X329Y1866D01*
X384Y1855D01*
X438Y1866D01*
X485Y1897D01*
X516Y1943D01*
X527Y1998D01*
X516Y2053D01*
X505Y2069D01*
X524Y2119D01*
X552D01*
Y2633D01*
D02*
G37*
G36*
X3592Y2326D02*
X3433D01*
Y2069D01*
X3592D01*
Y2326D01*
D02*
G37*
G36*
X602Y1527D02*
X444D01*
Y1271D01*
X602D01*
Y1527D01*
D02*
G37*
G36*
X3850Y661D02*
X3692D01*
Y404D01*
X3850D01*
Y661D01*
D02*
G37*
G36*
X2078Y1171D02*
X1920D01*
Y914D01*
X2078D01*
Y1171D01*
D02*
G37*
G36*
X344Y1527D02*
X185D01*
Y1271D01*
X344D01*
Y1527D01*
D02*
G37*
G36*
X602Y3549D02*
X444D01*
Y3292D01*
X602D01*
Y3549D01*
D02*
G37*
G36*
Y1171D02*
X394D01*
X185D01*
Y914D01*
X250D01*
X276Y864D01*
X262Y842D01*
X251Y787D01*
X262Y733D01*
X292Y688D01*
Y611D01*
X236D01*
Y98D01*
X552D01*
Y611D01*
X496D01*
Y688D01*
X526Y733D01*
X536Y787D01*
X526Y842D01*
X511Y864D01*
X538Y914D01*
X602D01*
Y1171D01*
D02*
G37*
G36*
X552Y4654D02*
X236D01*
Y4141D01*
X276D01*
X289Y4091D01*
X262Y4051D01*
X251Y3996D01*
X262Y3941D01*
X293Y3895D01*
X339Y3864D01*
X394Y3853D01*
X448Y3864D01*
X495Y3895D01*
X526Y3941D01*
X536Y3996D01*
X526Y4051D01*
X499Y4091D01*
X511Y4141D01*
X552D01*
Y4654D01*
D02*
G37*
G36*
X344Y3549D02*
X185D01*
Y3292D01*
X344D01*
Y3549D01*
D02*
G37*
G36*
Y3192D02*
X185D01*
Y2935D01*
X344D01*
Y3192D01*
D02*
G37*
G36*
X602D02*
X444D01*
Y2935D01*
X602D01*
Y3192D01*
D02*
G37*
G36*
X3592Y661D02*
X3433D01*
Y404D01*
X3592D01*
Y661D01*
D02*
G37*
G36*
X5068Y6726D02*
X4910D01*
Y6469D01*
X5068D01*
Y6726D01*
D02*
G37*
G36*
X5128Y9828D02*
X5073Y9817D01*
X5027Y9786D01*
X4996Y9740D01*
X4985Y9685D01*
X4996Y9630D01*
X5008Y9613D01*
X4981Y9563D01*
X4979D01*
Y9050D01*
X5296D01*
Y9563D01*
X5268D01*
X5248Y9613D01*
X5260Y9630D01*
X5271Y9685D01*
X5260Y9740D01*
X5229Y9786D01*
X5183Y9817D01*
X5128Y9828D01*
D02*
G37*
G36*
X344Y9613D02*
X185D01*
Y9357D01*
X344D01*
Y9613D01*
D02*
G37*
G36*
X602D02*
X444D01*
Y9357D01*
X602D01*
Y9613D01*
D02*
G37*
G36*
X344Y7592D02*
X185D01*
Y7335D01*
X344D01*
Y7592D01*
D02*
G37*
G36*
X602D02*
X444D01*
Y7335D01*
X602D01*
Y7592D01*
D02*
G37*
G36*
X552Y8697D02*
X236D01*
Y8184D01*
X258D01*
X280Y8134D01*
X262Y8106D01*
X251Y8051D01*
X262Y7997D01*
X293Y7950D01*
X339Y7919D01*
X394Y7908D01*
X448Y7919D01*
X495Y7950D01*
X526Y7997D01*
X536Y8051D01*
X526Y8106D01*
X507Y8134D01*
X529Y8184D01*
X552D01*
Y8697D01*
D02*
G37*
G36*
X2078Y7235D02*
X1920D01*
Y6978D01*
X2078D01*
Y7235D01*
D02*
G37*
G36*
X5326Y6726D02*
X5168D01*
Y6469D01*
X5326D01*
Y6726D01*
D02*
G37*
G36*
X344Y7235D02*
X185D01*
Y6978D01*
X344D01*
Y7235D01*
D02*
G37*
G36*
X602D02*
X444D01*
Y6978D01*
X602D01*
Y7235D01*
D02*
G37*
G36*
X5346Y8747D02*
X5188D01*
Y8490D01*
X5346D01*
Y8747D01*
D02*
G37*
G36*
X344Y9257D02*
X185D01*
Y9000D01*
X344D01*
Y9257D01*
D02*
G37*
G36*
X602D02*
X444D01*
Y9000D01*
X602D01*
Y9257D01*
D02*
G37*
G36*
X5088Y8747D02*
X4929D01*
Y8490D01*
X5088D01*
Y8747D01*
D02*
G37*
G36*
X3611Y8390D02*
X3453D01*
Y8134D01*
X3611D01*
Y8390D01*
D02*
G37*
G36*
X5088D02*
X4929D01*
Y8134D01*
X5088D01*
Y8390D01*
D02*
G37*
G36*
X5346D02*
X5188D01*
Y8134D01*
X5346D01*
Y8390D01*
D02*
G37*
%LPD*%
D10*
X5118Y2376D02*
D03*
X4626D02*
D03*
X3642D02*
D03*
X4134D02*
D03*
X3642Y3242D02*
D03*
X5118D02*
D03*
X4626D02*
D03*
X4134D02*
D03*
X5118Y354D02*
D03*
X4626D02*
D03*
X3642D02*
D03*
X4134D02*
D03*
X3642Y1221D02*
D03*
X5118D02*
D03*
X4626D02*
D03*
X4134D02*
D03*
X1378Y6419D02*
D03*
X886D02*
D03*
X394D02*
D03*
X1870D02*
D03*
X1378Y7285D02*
D03*
X1870D02*
D03*
X886D02*
D03*
X394D02*
D03*
X1378Y4397D02*
D03*
X886D02*
D03*
X394D02*
D03*
X1870D02*
D03*
X1378Y5264D02*
D03*
X1870D02*
D03*
X886D02*
D03*
X394D02*
D03*
X1378Y8440D02*
D03*
X886D02*
D03*
X394D02*
D03*
X1870D02*
D03*
X1378Y9307D02*
D03*
X1870D02*
D03*
X886D02*
D03*
X394D02*
D03*
X1378Y11732D02*
D03*
X886D02*
D03*
X394D02*
D03*
X1870D02*
D03*
X1378Y12598D02*
D03*
X1870D02*
D03*
X886D02*
D03*
X394D02*
D03*
X5118Y6419D02*
D03*
X4626D02*
D03*
X3642D02*
D03*
X4134D02*
D03*
X3642Y7285D02*
D03*
X5118D02*
D03*
X4626D02*
D03*
X4134D02*
D03*
X394Y1221D02*
D03*
X886D02*
D03*
X1870D02*
D03*
X1378D02*
D03*
X1870Y354D02*
D03*
X394D02*
D03*
X886D02*
D03*
X1378D02*
D03*
X394Y3242D02*
D03*
X886D02*
D03*
X1870D02*
D03*
X1378D02*
D03*
X1870Y2376D02*
D03*
X394D02*
D03*
X886D02*
D03*
X1378D02*
D03*
X5118Y11732D02*
D03*
X4626D02*
D03*
X3642D02*
D03*
X4134D02*
D03*
X3642Y12598D02*
D03*
X5118D02*
D03*
X4626D02*
D03*
X4134D02*
D03*
X5138Y8440D02*
D03*
X4646D02*
D03*
X3661D02*
D03*
X4154D02*
D03*
X3661Y9307D02*
D03*
X5138D02*
D03*
X4646D02*
D03*
X4154D02*
D03*
X5118Y4397D02*
D03*
X4626D02*
D03*
X3642D02*
D03*
X4134D02*
D03*
X3642Y5264D02*
D03*
X5118D02*
D03*
X4626D02*
D03*
X4134D02*
D03*
D11*
X2756Y4547D02*
D03*
Y4035D02*
D03*
D12*
X2461Y5866D02*
D03*
X3051D02*
D03*
D13*
X2766Y2382D02*
Y2825D01*
X2520Y3071D02*
X2766Y2825D01*
X2520Y3071D02*
Y3163D01*
X3012Y2392D02*
Y2842D01*
X2756Y3098D02*
X3012Y2842D01*
X2756Y3098D02*
Y3130D01*
X2992Y1545D02*
X3215Y1768D01*
Y2908D01*
X2992Y3130D02*
X3215Y2908D01*
X2228Y2083D02*
X2352Y1959D01*
X2228Y3576D02*
X2343Y3691D01*
X2228Y2083D02*
Y3576D01*
X2343Y3691D02*
X2864D01*
X2971Y3798D01*
X2974D01*
X3033Y3856D01*
Y4537D01*
X1870Y8012D02*
X1870D01*
X1870Y7285D02*
Y8012D01*
X3361Y9006D02*
X3661Y9307D01*
X3555Y9006D02*
X3870Y8691D01*
X3361Y9006D02*
X3555D01*
X4782Y3600D02*
X4910Y3471D01*
X5335Y1437D02*
Y3702D01*
X5118Y1221D02*
X5335Y1437D01*
X4734Y3790D02*
Y3830D01*
X4734Y3831D02*
X4734Y3830D01*
X4988Y3831D02*
X5118Y3701D01*
Y3242D02*
Y3701D01*
X4362Y3242D02*
Y5264D01*
X3074Y3320D02*
X3642Y3888D01*
X2343Y9173D02*
Y9321D01*
X2037Y8868D02*
X2343Y9173D01*
X1791Y8868D02*
X2037D01*
X1170Y9616D02*
X2506D01*
X1960Y8440D02*
X2520Y9000D01*
X1870Y8440D02*
X1960D01*
X4728Y7676D02*
X5118Y7285D01*
X4634Y7676D02*
X4728D01*
X3642Y2825D02*
X3652Y2815D01*
X3642Y2825D02*
Y3242D01*
X1378Y2018D02*
X1378Y2018D01*
X1378Y2018D02*
Y2376D01*
X2520Y3163D02*
X2677Y3320D01*
X3074D01*
X1870Y5974D02*
Y6419D01*
Y5974D02*
X2884Y4961D01*
X2756Y4547D02*
X3074Y4865D01*
Y5843D01*
X3051Y5866D02*
X3074Y5843D01*
X1662Y4397D02*
Y6419D01*
X1378Y4803D02*
X1457D01*
X1662Y2376D02*
Y4397D01*
X2982Y3140D02*
X2992D01*
X5128Y9685D02*
X5138Y9675D01*
Y9307D02*
Y9675D01*
X5118Y5669D02*
X5118Y5669D01*
X5118Y5264D02*
Y5669D01*
Y1221D02*
X5118D01*
X4055Y433D02*
Y787D01*
Y433D02*
X4134Y354D01*
X3850Y1221D02*
Y3242D01*
X3642Y1221D02*
X3850D01*
X394Y787D02*
X394Y787D01*
Y354D02*
Y787D01*
X384Y1998D02*
X394Y2008D01*
Y2376D01*
X394Y3996D02*
Y4397D01*
X394D01*
X394Y6053D02*
X394Y6053D01*
Y6419D01*
X394Y8051D02*
X394D01*
Y8440D01*
X4055Y8908D02*
X4153D01*
X4154Y8907D01*
Y8440D02*
Y8907D01*
X3870Y7285D02*
Y8691D01*
X3355Y9000D02*
X3361Y9006D01*
X2859Y9000D02*
X3355D01*
X4055Y2454D02*
Y2805D01*
Y2454D02*
X4134Y2376D01*
X4055Y4476D02*
Y4833D01*
Y4476D02*
X4134Y4397D01*
Y6419D02*
Y6831D01*
X4362Y1221D02*
Y3242D01*
X4134Y1221D02*
X4362D01*
X4134Y3242D02*
X4362D01*
Y7285D02*
Y9307D01*
X4134Y7285D02*
X4362D01*
X4331Y9307D02*
X4362D01*
X1378Y768D02*
X1378Y768D01*
X1398Y2805D02*
X1457D01*
X1378Y2825D02*
X1398Y2805D01*
X1170Y2376D02*
Y4397D01*
X1378Y2825D02*
Y3242D01*
Y4803D02*
X1378Y4803D01*
X1170Y4397D02*
Y6419D01*
X1457Y6851D02*
Y7206D01*
X1378Y7285D02*
X1457Y7206D01*
X1378Y8869D02*
X1457D01*
X1378Y8868D02*
X1378Y8869D01*
X1170Y8440D02*
Y9616D01*
X3837Y9982D02*
X4006D01*
X3837D02*
Y10906D01*
X3992D01*
X3506Y9982D02*
X3643D01*
Y10906D01*
X3492D02*
X3643D01*
X1868Y9982D02*
X2006D01*
X1868D02*
Y10906D01*
X1992D01*
X2853Y9982D02*
X3006D01*
X2853D02*
Y10906D01*
X2992D01*
X2492D02*
X2659D01*
Y9982D02*
Y10906D01*
X2506Y9982D02*
X2659D01*
X1112Y12599D02*
X1113Y12598D01*
X1378D01*
X4389Y11732D02*
X4400Y11743D01*
X4134Y11732D02*
X4389D01*
X3492Y10906D02*
X3492D01*
X3492D02*
Y11267D01*
X5326Y11133D02*
Y12598D01*
X5118D02*
X5326D01*
X1992Y10906D02*
Y11240D01*
X394D02*
X1992D01*
X394D02*
Y11732D01*
X1378D02*
Y12165D01*
X2492D01*
X3317D02*
X3898D01*
Y12598D01*
X4134D01*
X2992Y11713D02*
Y12598D01*
Y10906D02*
Y11713D01*
X1870D02*
X2992D01*
X1870D02*
Y11732D01*
X2992Y12598D02*
X3642D01*
X1662Y354D02*
X1870D01*
X1662Y2376D02*
X1870D01*
X1662Y4397D02*
X1870D01*
X1662Y6419D02*
X1870D01*
X1662D02*
Y8440D01*
X1870D01*
X3850Y7285D02*
X3870D01*
X3642D02*
X3850D01*
X3642Y5264D02*
X3850D01*
Y3242D02*
Y5264D01*
X3642Y3242D02*
X3850D01*
X4134Y5264D02*
X4362D01*
X4154Y9307D02*
X4331D01*
Y9616D01*
X2506D02*
X4331D01*
X2506D02*
Y9982D01*
X1170Y8440D02*
X1378D01*
X1170Y6419D02*
Y8440D01*
Y6419D02*
X1378D01*
X1170Y4397D02*
X1378D01*
X1170Y2376D02*
X1378D01*
X4114Y6851D02*
X4134Y6831D01*
X4362Y5264D02*
Y7285D01*
X4055Y6851D02*
X4114D01*
X3850Y5264D02*
Y7285D01*
X3033Y4537D02*
X3309Y4813D01*
X3159Y7254D02*
X3309Y7105D01*
Y4813D02*
Y7105D01*
X2052Y6419D02*
X2501Y6868D01*
X1870Y6419D02*
X2052D01*
X2795Y7041D02*
X2968Y6868D01*
X2795Y7041D02*
Y8612D01*
X2618Y8789D02*
X2795Y8612D01*
X1492Y10906D02*
X1675D01*
Y10136D02*
Y10906D01*
X1506Y10136D02*
X1675D01*
X1506Y9982D02*
Y10136D01*
X2461Y5866D02*
Y6191D01*
X2461D01*
X1170Y354D02*
X1378D01*
X1662D02*
Y2376D01*
X1378Y768D02*
X1457D01*
X1170Y354D02*
Y2376D01*
X886Y1585D02*
X886D01*
X886Y1221D02*
Y1585D01*
X886Y1585D01*
X886Y3242D02*
Y3622D01*
X886Y3622D02*
X886Y3622D01*
Y5264D02*
Y5620D01*
X886Y5620D01*
X886Y7285D02*
Y7648D01*
X876Y7657D02*
X886Y7648D01*
Y9307D02*
Y9665D01*
X886Y9665D02*
X886Y9665D01*
X4626Y6054D02*
Y6419D01*
Y6054D02*
X4626Y6053D01*
X5016Y4021D02*
X5335Y3702D01*
X4734Y4021D02*
X5016D01*
X4626Y4181D02*
Y4397D01*
X4512Y4067D02*
X4626Y4181D01*
X4512Y3744D02*
Y4067D01*
Y3744D02*
X4702Y3553D01*
X4734D01*
X4626Y354D02*
X4879Y608D01*
X4626Y2376D02*
X4756D01*
X4910Y2530D01*
Y3471D01*
X4646Y8081D02*
Y8440D01*
Y8081D02*
X4646Y8081D01*
X2859Y9000D02*
Y9321D01*
X2520Y9000D02*
X2859D01*
X5118Y2027D02*
Y2376D01*
X5109Y2018D02*
X5118Y2027D01*
Y354D02*
Y787D01*
X5118Y787D01*
X4879Y1968D02*
X4910Y1999D01*
Y2530D01*
X4879Y608D02*
Y1644D01*
Y1968D01*
X463Y12175D02*
X886Y12598D01*
X5148Y10955D02*
X5326Y11133D01*
X4506Y10955D02*
X5148D01*
X4193Y11267D02*
X4506Y10955D01*
X3492Y11267D02*
X4193D01*
X4626Y11496D02*
Y11732D01*
Y11496D02*
X4705Y11417D01*
Y11368D02*
Y11417D01*
X246Y12175D02*
X463D01*
X1378Y8868D02*
Y9307D01*
Y4803D02*
Y5264D01*
Y768D02*
Y1221D01*
X4734Y3831D02*
X4988D01*
D14*
X5315Y0D02*
G03*
X5512Y197I0J197D01*
G01*
Y10039D02*
G03*
X5315Y10236I-197J0D01*
G01*
X3937Y10413D02*
G03*
X4114Y10236I177J0D01*
G01*
X4134Y10630D02*
G03*
X3937Y10433I0J-197D01*
G01*
X5315Y10630D02*
G03*
X5512Y10827I0J197D01*
G01*
Y12795D02*
G03*
X5315Y12992I-197J0D01*
G01*
X157D02*
G03*
X0Y12835I0J-157D01*
G01*
Y10827D02*
G03*
X197Y10630I197J0D01*
G01*
X1575Y10433D02*
G03*
X1378Y10630I-197J0D01*
G01*
X1398Y10236D02*
G03*
X1575Y10413I0J177D01*
G01*
X197Y10236D02*
G03*
X0Y10039I0J-197D01*
G01*
Y251D02*
G03*
X251Y0I251J0D01*
G01*
X251D02*
X5315D01*
X5512Y197D02*
Y251D01*
Y10039D01*
X4114Y10236D02*
X5315D01*
X3937Y10413D02*
Y10433D01*
X4134Y10630D02*
X5315D01*
X5512Y10827D02*
Y12795D01*
X5261Y12992D02*
X5315D01*
X157D02*
X5261D01*
X0Y10827D02*
Y12835D01*
X197Y10630D02*
X1378D01*
X1575Y10413D02*
Y10433D01*
X197Y10236D02*
X1398D01*
X0Y9985D02*
Y10039D01*
Y251D02*
Y9985D01*
X251Y0D02*
X251D01*
D15*
X1506Y9982D02*
D03*
X2006D02*
D03*
X2506D02*
D03*
X3006D02*
D03*
X3506D02*
D03*
X3492Y10906D02*
D03*
X2992D02*
D03*
X2492D02*
D03*
X1992D02*
D03*
X1492D02*
D03*
D16*
X4006Y9982D02*
D03*
X3992Y10906D02*
D03*
D17*
X3317Y9341D02*
D03*
X2766Y2382D02*
D03*
X3012Y2392D02*
D03*
X1870Y8012D02*
D03*
X3327Y8779D02*
D03*
X4734Y3553D02*
D03*
Y3790D02*
D03*
X3642Y3888D02*
D03*
X2343Y9321D02*
D03*
X1791Y8868D02*
D03*
X4634Y7676D02*
D03*
X3652Y2815D02*
D03*
X1378Y2018D02*
D03*
X2756Y3130D02*
D03*
X2884Y4961D02*
D03*
X2618Y8789D02*
D03*
X3159Y7254D02*
D03*
X1457Y4803D02*
D03*
X2352Y1959D02*
D03*
X2992Y1545D02*
D03*
X2992Y3130D02*
D03*
X5128Y9685D02*
D03*
X5118Y5669D02*
D03*
X4055Y787D02*
D03*
X394Y787D02*
D03*
X384Y1998D02*
D03*
X394Y3996D02*
D03*
X394Y6053D02*
D03*
X394Y8051D02*
D03*
X4055Y8908D02*
D03*
Y2805D02*
D03*
Y4833D02*
D03*
X1457Y2805D02*
D03*
Y6851D02*
D03*
Y8869D02*
D03*
X1112Y12599D02*
D03*
X4400Y11743D02*
D03*
X2492Y12165D02*
D03*
X3317D02*
D03*
X4055Y6851D02*
D03*
X2501Y6868D02*
D03*
X2968D02*
D03*
X2500Y453D02*
D03*
X2756Y6211D02*
D03*
X3179Y7667D02*
D03*
X2461Y6211D02*
D03*
X1457Y768D02*
D03*
X886Y1585D02*
D03*
X886Y3622D02*
D03*
X886Y5620D02*
D03*
X876Y7657D02*
D03*
X886Y9665D02*
D03*
X4646Y8081D02*
D03*
X4626Y6053D02*
D03*
X4734Y4021D02*
D03*
X2859Y9321D02*
D03*
X5109Y2018D02*
D03*
X5118Y787D02*
D03*
X4879Y1644D02*
D03*
X4705Y11368D02*
D03*
X246Y12175D02*
D03*
X876Y8012D02*
D03*
M02*
