G04 Layer_Color=128*
%FSLAX43Y43*%
%MOMM*%
G71*
G01*
G75*
%ADD14C,0.160*%
%ADD16C,0.100*%
%ADD20R,1.270X1.270*%
%ADD21R,0.305X0.864*%
%ADD22R,0.864X0.305*%
%ADD23R,0.700X0.900*%
%ADD24R,0.380X1.020*%
%ADD25R,0.380X0.760*%
D14*
X637Y0D02*
X13500D01*
X14000Y500D02*
Y637D01*
Y25500D01*
X10450Y26000D02*
X13500D01*
X10000Y26450D02*
Y26500D01*
X10500Y27000D02*
X13500D01*
X14000Y27500D02*
Y32500D01*
X13363Y33000D02*
X13500D01*
X400D02*
X13363D01*
X-0Y27500D02*
Y32600D01*
X500Y27000D02*
X3500D01*
X4000Y26450D02*
Y26500D01*
X500Y26000D02*
X3550D01*
X-0Y25363D02*
Y25500D01*
Y637D02*
Y25363D01*
D16*
X13500Y0D02*
G03*
X14000Y500I0J500D01*
G01*
Y25500D02*
G03*
X13500Y26000I-500J0D01*
G01*
X10000Y26450D02*
G03*
X10450Y26000I450J0D01*
G01*
X10500Y27000D02*
G03*
X10000Y26500I0J-500D01*
G01*
X13500Y27000D02*
G03*
X14000Y27500I0J500D01*
G01*
Y32500D02*
G03*
X13500Y33000I-500J0D01*
G01*
X400D02*
G03*
X0Y32600I0J-400D01*
G01*
Y27500D02*
G03*
X500Y27000I500J0D01*
G01*
X4000Y26500D02*
G03*
X3500Y27000I-500J0D01*
G01*
X3550Y26000D02*
G03*
X4000Y26450I0J450D01*
G01*
X500Y26000D02*
G03*
X0Y25500I0J-500D01*
G01*
Y637D02*
G03*
X637Y0I637J0D01*
G01*
D20*
X7000Y4998D02*
D03*
Y18500D02*
D03*
D21*
X7991Y6878D02*
D03*
X7508D02*
D03*
X7000D02*
D03*
X6492D02*
D03*
X6009D02*
D03*
Y3118D02*
D03*
X6492D02*
D03*
X7000D02*
D03*
X7508D02*
D03*
X7991D02*
D03*
X6009Y20380D02*
D03*
X6492D02*
D03*
X7000D02*
D03*
X7508D02*
D03*
X7991D02*
D03*
Y16620D02*
D03*
X7508D02*
D03*
X7000D02*
D03*
X6492D02*
D03*
X6009D02*
D03*
D22*
X5120Y5989D02*
D03*
Y5506D02*
D03*
Y4998D02*
D03*
Y4490D02*
D03*
Y4007D02*
D03*
X8880D02*
D03*
Y4490D02*
D03*
Y4998D02*
D03*
Y5506D02*
D03*
Y5989D02*
D03*
X5120Y17509D02*
D03*
Y17992D02*
D03*
Y18500D02*
D03*
Y19008D02*
D03*
Y19491D02*
D03*
X8880D02*
D03*
Y19008D02*
D03*
Y18500D02*
D03*
Y17992D02*
D03*
Y17509D02*
D03*
D23*
X1650Y12269D02*
D03*
X2950D02*
D03*
X12333Y17404D02*
D03*
X11033D02*
D03*
X12333Y22539D02*
D03*
X11033D02*
D03*
X12333Y12269D02*
D03*
X11033D02*
D03*
X6350Y21498D02*
D03*
X7650D02*
D03*
X12333Y2000D02*
D03*
X11033D02*
D03*
X12333Y30900D02*
D03*
X11033D02*
D03*
X1650Y22539D02*
D03*
X2950D02*
D03*
X1650Y17404D02*
D03*
X2950D02*
D03*
X1650Y2000D02*
D03*
X2950D02*
D03*
X7650D02*
D03*
X6350D02*
D03*
X1650Y7135D02*
D03*
X2950D02*
D03*
X1650Y30900D02*
D03*
X2950D02*
D03*
X11033Y7127D02*
D03*
X12333D02*
D03*
D24*
X7320Y14670D02*
D03*
X6680D02*
D03*
D25*
X7320Y13530D02*
D03*
X6680D02*
D03*
M02*
