G04 Layer_Color=32896*
%FSLAX43Y43*%
%MOMM*%
G71*
G01*
G75*
%ADD14C,0.160*%
%ADD15C,0.200*%
%ADD16C,0.100*%
%ADD28C,0.254*%
%ADD42C,0.180*%
%ADD43C,0.150*%
G36*
X5019Y17320D02*
X5013Y17313D01*
X5007Y17306D01*
X5002Y17300D01*
X4997Y17294D01*
X4992Y17289D01*
X4988Y17284D01*
X4984Y17280D01*
X4980Y17276D01*
X4974Y17270D01*
X4970Y17266D01*
X4968Y17264D01*
X4967Y17263D01*
X4981Y17261D01*
X4994Y17259D01*
X5007Y17256D01*
X5019Y17253D01*
X5024Y17252D01*
X5029Y17250D01*
X5033Y17249D01*
X5036Y17248D01*
X5039Y17247D01*
X5041Y17246D01*
X5042Y17246D01*
X5043D01*
X5029Y17203D01*
X5014Y17208D01*
X5000Y17213D01*
X4988Y17218D01*
X4977Y17222D01*
X4973Y17224D01*
X4969Y17226D01*
X4965Y17228D01*
X4962Y17229D01*
X4960Y17231D01*
X4958Y17231D01*
X4957Y17232D01*
X4956D01*
X4958Y17216D01*
X4960Y17201D01*
X4961Y17194D01*
X4961Y17188D01*
X4962Y17182D01*
Y17177D01*
X4963Y17172D01*
X4963Y17168D01*
Y17164D01*
X4964Y17161D01*
Y17159D01*
Y17157D01*
Y17156D01*
Y17156D01*
X4920D01*
Y17160D01*
X4920Y17165D01*
Y17170D01*
X4921Y17177D01*
X4922Y17189D01*
X4923Y17202D01*
X4923Y17208D01*
X4923Y17214D01*
X4924Y17219D01*
X4924Y17223D01*
X4925Y17227D01*
X4925Y17230D01*
Y17232D01*
Y17232D01*
X4921Y17230D01*
X4916Y17227D01*
X4905Y17222D01*
X4893Y17217D01*
X4882Y17213D01*
X4872Y17208D01*
X4867Y17207D01*
X4863Y17205D01*
X4860Y17204D01*
X4857Y17203D01*
X4856Y17203D01*
X4855D01*
X4841Y17246D01*
X4855Y17249D01*
X4868Y17252D01*
X4880Y17255D01*
X4891Y17258D01*
X4897Y17259D01*
X4902Y17260D01*
X4906Y17261D01*
X4909Y17262D01*
X4912Y17262D01*
X4914Y17263D01*
X4915Y17263D01*
X4916D01*
X4913Y17266D01*
X4909Y17269D01*
X4905Y17273D01*
X4901Y17278D01*
X4893Y17287D01*
X4885Y17297D01*
X4877Y17306D01*
X4874Y17310D01*
X4871Y17313D01*
X4868Y17316D01*
X4866Y17318D01*
X4865Y17320D01*
X4865Y17320D01*
X4901Y17346D01*
X4908Y17337D01*
X4914Y17327D01*
X4921Y17316D01*
X4927Y17305D01*
X4933Y17296D01*
X4935Y17292D01*
X4937Y17288D01*
X4939Y17285D01*
X4939Y17283D01*
X4940Y17282D01*
Y17281D01*
X4949Y17296D01*
X4957Y17309D01*
X4965Y17320D01*
X4971Y17329D01*
X4973Y17333D01*
X4976Y17336D01*
X4978Y17339D01*
X4979Y17342D01*
X4981Y17344D01*
X4982Y17345D01*
X4983Y17346D01*
Y17346D01*
X5019Y17320D01*
D02*
G37*
G36*
X9080Y6338D02*
X9080Y6333D01*
Y6327D01*
X9079Y6321D01*
X9078Y6309D01*
X9078Y6296D01*
X9077Y6290D01*
X9077Y6284D01*
X9076Y6279D01*
X9076Y6275D01*
X9075Y6271D01*
X9075Y6268D01*
Y6266D01*
Y6266D01*
X9079Y6268D01*
X9084Y6271D01*
X9095Y6276D01*
X9107Y6281D01*
X9118Y6285D01*
X9128Y6290D01*
X9133Y6291D01*
X9137Y6293D01*
X9140Y6294D01*
X9143Y6294D01*
X9144Y6295D01*
X9145D01*
X9159Y6252D01*
X9145Y6249D01*
X9132Y6245D01*
X9120Y6243D01*
X9109Y6240D01*
X9103Y6239D01*
X9098Y6238D01*
X9094Y6237D01*
X9091Y6236D01*
X9088Y6236D01*
X9086Y6235D01*
X9085Y6235D01*
X9084D01*
X9087Y6232D01*
X9091Y6228D01*
X9095Y6225D01*
X9099Y6220D01*
X9107Y6211D01*
X9115Y6201D01*
X9123Y6192D01*
X9127Y6188D01*
X9129Y6185D01*
X9132Y6182D01*
X9134Y6180D01*
X9135Y6178D01*
X9135Y6178D01*
X9099Y6152D01*
X9092Y6161D01*
X9086Y6171D01*
X9079Y6182D01*
X9073Y6193D01*
X9067Y6202D01*
X9065Y6206D01*
X9063Y6210D01*
X9061Y6213D01*
X9061Y6215D01*
X9060Y6216D01*
Y6217D01*
X9051Y6202D01*
X9043Y6189D01*
X9035Y6178D01*
X9029Y6169D01*
X9027Y6165D01*
X9024Y6162D01*
X9022Y6159D01*
X9021Y6156D01*
X9019Y6154D01*
X9018Y6153D01*
X9017Y6152D01*
Y6152D01*
X8981Y6178D01*
X8987Y6185D01*
X8993Y6192D01*
X8998Y6198D01*
X9003Y6204D01*
X9008Y6209D01*
X9012Y6214D01*
X9016Y6218D01*
X9020Y6222D01*
X9026Y6228D01*
X9030Y6232D01*
X9032Y6234D01*
X9033Y6235D01*
X9019Y6237D01*
X9006Y6239D01*
X8993Y6242D01*
X8981Y6245D01*
X8976Y6246D01*
X8971Y6248D01*
X8967Y6249D01*
X8964Y6250D01*
X8961Y6251D01*
X8959Y6252D01*
X8958Y6252D01*
X8957D01*
X8971Y6295D01*
X8986Y6290D01*
X9000Y6285D01*
X9012Y6280D01*
X9023Y6276D01*
X9027Y6274D01*
X9031Y6272D01*
X9035Y6270D01*
X9038Y6269D01*
X9040Y6267D01*
X9042Y6267D01*
X9043Y6266D01*
X9044D01*
X9042Y6282D01*
X9040Y6297D01*
X9039Y6304D01*
X9039Y6310D01*
X9038Y6316D01*
Y6321D01*
X9037Y6326D01*
X9037Y6330D01*
Y6334D01*
X9036Y6337D01*
Y6339D01*
Y6341D01*
Y6342D01*
Y6342D01*
X9080D01*
Y6338D01*
D02*
G37*
D14*
X4993Y6471D02*
Y7005D01*
Y2991D02*
X5527D01*
X9007D02*
Y3525D01*
X8473Y2991D02*
X9007D01*
X4993D02*
Y3525D01*
Y7005D02*
X5527D01*
X6040Y10310D02*
X7960D01*
X6040Y8520D02*
Y12850D01*
Y8520D02*
X7960D01*
Y12850D01*
Y15350D01*
X7020D02*
X7960D01*
X6060D02*
X7020D01*
X6040Y12850D02*
Y15350D01*
Y12850D02*
X7960D01*
X8473Y16493D02*
X9007D01*
Y19973D02*
Y20507D01*
X4993D02*
X5527D01*
X4993Y19973D02*
Y20507D01*
X8473D02*
X9007D01*
Y16493D02*
Y17027D01*
X637Y0D02*
X13500D01*
X14000Y500D02*
Y637D01*
Y25500D01*
X10450Y26000D02*
X13500D01*
X10000Y26450D02*
Y26500D01*
X10500Y27000D02*
X13500D01*
X14000Y27500D02*
Y32500D01*
X13363Y33000D02*
X13500D01*
X400D02*
X13363D01*
X-0Y27500D02*
Y32600D01*
X500Y27000D02*
X3500D01*
X4000Y26450D02*
Y26500D01*
X500Y26000D02*
X3550D01*
X-0Y25363D02*
Y25500D01*
Y637D02*
Y25363D01*
D15*
X11742Y18492D02*
X11825Y18575D01*
X11992D01*
X12075Y18492D01*
Y18158D01*
X11992Y18075D01*
X11825D01*
X11742Y18158D01*
X11575D02*
X11492Y18075D01*
X11325D01*
X11242Y18158D01*
Y18492D01*
X11325Y18575D01*
X11492D01*
X11575Y18492D01*
Y18408D01*
X11492Y18325D01*
X11242D01*
X7267Y22567D02*
X7350Y22650D01*
X7517D01*
X7600Y22567D01*
Y22233D01*
X7517Y22150D01*
X7350D01*
X7267Y22233D01*
X7100Y22150D02*
X6934D01*
X7017D01*
Y22650D01*
X7100Y22567D01*
X6684D02*
X6600Y22650D01*
X6434D01*
X6350Y22567D01*
Y22483D01*
X6434Y22400D01*
X6517D01*
X6434D01*
X6350Y22317D01*
Y22233D01*
X6434Y22150D01*
X6600D01*
X6684Y22233D01*
X11842Y3017D02*
X11925Y3100D01*
X12092D01*
X12175Y3017D01*
Y2683D01*
X12092Y2600D01*
X11925D01*
X11842Y2683D01*
X11675Y2600D02*
X11509D01*
X11592D01*
Y3100D01*
X11675Y3017D01*
X10925Y2600D02*
X11259D01*
X10925Y2933D01*
Y3017D01*
X11009Y3100D01*
X11175D01*
X11259Y3017D01*
X11842Y8167D02*
X11925Y8250D01*
X12092D01*
X12175Y8167D01*
Y7833D01*
X12092Y7750D01*
X11925D01*
X11842Y7833D01*
X11675Y7750D02*
X11509D01*
X11592D01*
Y8250D01*
X11675Y8167D01*
X11259Y7750D02*
X11092D01*
X11175D01*
Y8250D01*
X11259Y8167D01*
X11875Y13392D02*
X11958Y13475D01*
X12125D01*
X12208Y13392D01*
Y13058D01*
X12125Y12975D01*
X11958D01*
X11875Y13058D01*
X11708Y12975D02*
X11542D01*
X11625D01*
Y13475D01*
X11708Y13392D01*
X11292D02*
X11209Y13475D01*
X11042D01*
X10959Y13392D01*
Y13058D01*
X11042Y12975D01*
X11209D01*
X11292Y13058D01*
Y13392D01*
X11742Y23617D02*
X11825Y23700D01*
X11992D01*
X12075Y23617D01*
Y23283D01*
X11992Y23200D01*
X11825D01*
X11742Y23283D01*
X11575Y23617D02*
X11492Y23700D01*
X11325D01*
X11242Y23617D01*
Y23533D01*
X11325Y23450D01*
X11242Y23367D01*
Y23283D01*
X11325Y23200D01*
X11492D01*
X11575Y23283D01*
Y23367D01*
X11492Y23450D01*
X11575Y23533D01*
Y23617D01*
X11492Y23450D02*
X11325D01*
X11742Y32017D02*
X11825Y32100D01*
X11992D01*
X12075Y32017D01*
Y31683D01*
X11992Y31600D01*
X11825D01*
X11742Y31683D01*
X11575Y32100D02*
X11242D01*
Y32017D01*
X11575Y31683D01*
Y31600D01*
X7267Y1242D02*
X7350Y1325D01*
X7517D01*
X7600Y1242D01*
Y908D01*
X7517Y825D01*
X7350D01*
X7267Y908D01*
X7100Y825D02*
X6934D01*
X7017D01*
Y1325D01*
X7100Y1242D01*
X6434Y825D02*
Y1325D01*
X6684Y1075D01*
X6350D01*
X2267Y32017D02*
X2350Y32100D01*
X2517D01*
X2600Y32017D01*
Y31683D01*
X2517Y31600D01*
X2350D01*
X2267Y31683D01*
X2100Y31600D02*
X1934D01*
X2017D01*
Y32100D01*
X2100Y32017D01*
D16*
X13500Y0D02*
G03*
X14000Y500I0J500D01*
G01*
Y25500D02*
G03*
X13500Y26000I-500J0D01*
G01*
X10000Y26450D02*
G03*
X10450Y26000I450J0D01*
G01*
X10500Y27000D02*
G03*
X10000Y26500I0J-500D01*
G01*
X13500Y27000D02*
G03*
X14000Y27500I0J500D01*
G01*
Y32500D02*
G03*
X13500Y33000I-500J0D01*
G01*
X400D02*
G03*
X0Y32600I0J-400D01*
G01*
Y27500D02*
G03*
X500Y27000I500J0D01*
G01*
X4000Y26500D02*
G03*
X3500Y27000I-500J0D01*
G01*
X3550Y26000D02*
G03*
X4000Y26450I0J450D01*
G01*
X500Y26000D02*
G03*
X0Y25500I0J-500D01*
G01*
Y637D02*
G03*
X637Y0I637J0D01*
G01*
D28*
X7320Y12530D02*
X6620D01*
Y12180D01*
X6737Y12063D01*
X6970D01*
X7087Y12180D01*
Y12530D01*
X6620Y11830D02*
Y11364D01*
Y11597D01*
X7320D01*
Y11130D02*
X6620D01*
X7320Y10664D01*
X6620D01*
D42*
X2392Y13367D02*
X2475Y13450D01*
X2642D01*
X2725Y13367D01*
Y13033D01*
X2642Y12950D01*
X2475D01*
X2392Y13033D01*
X1975Y12950D02*
Y13450D01*
X2225Y13200D01*
X1892D01*
X2392Y23592D02*
X2475Y23675D01*
X2642D01*
X2725Y23592D01*
Y23258D01*
X2642Y23175D01*
X2475D01*
X2392Y23258D01*
X1892Y23175D02*
X2225D01*
X1892Y23508D01*
Y23592D01*
X1975Y23675D01*
X2142D01*
X2225Y23592D01*
X2392Y18467D02*
X2475Y18550D01*
X2642D01*
X2725Y18467D01*
Y18133D01*
X2642Y18050D01*
X2475D01*
X2392Y18133D01*
X2225Y18467D02*
X2142Y18550D01*
X1975D01*
X1892Y18467D01*
Y18383D01*
X1975Y18300D01*
X2059D01*
X1975D01*
X1892Y18217D01*
Y18133D01*
X1975Y18050D01*
X2142D01*
X2225Y18133D01*
X2392Y8217D02*
X2475Y8300D01*
X2642D01*
X2725Y8217D01*
Y7883D01*
X2642Y7800D01*
X2475D01*
X2392Y7883D01*
X1892Y8300D02*
X2225D01*
Y8050D01*
X2059Y8133D01*
X1975D01*
X1892Y8050D01*
Y7883D01*
X1975Y7800D01*
X2142D01*
X2225Y7883D01*
X2392Y3067D02*
X2475Y3150D01*
X2642D01*
X2725Y3067D01*
Y2733D01*
X2642Y2650D01*
X2475D01*
X2392Y2733D01*
X1892Y3150D02*
X2059Y3067D01*
X2225Y2900D01*
Y2733D01*
X2142Y2650D01*
X1975D01*
X1892Y2733D01*
Y2817D01*
X1975Y2900D01*
X2225D01*
D43*
X4125Y17075D02*
X4625D01*
Y16825D01*
X4542Y16742D01*
X4458D01*
X4375Y16825D01*
Y17075D01*
Y16825D01*
X4292Y16742D01*
X4208D01*
X4125Y16825D01*
Y17075D01*
X4292Y16492D02*
Y16325D01*
X4375Y16242D01*
X4625D01*
Y16492D01*
X4542Y16575D01*
X4458Y16492D01*
Y16242D01*
X4292Y16075D02*
X4625D01*
X4458D01*
X4375Y15992D01*
X4292Y15909D01*
Y15825D01*
Y15575D02*
X4625D01*
X4458D01*
X4375Y15492D01*
X4292Y15409D01*
Y15326D01*
X4625Y14826D02*
Y14992D01*
X4542Y15076D01*
X4375D01*
X4292Y14992D01*
Y14826D01*
X4375Y14742D01*
X4458D01*
Y15076D01*
X4208Y14493D02*
X4292D01*
Y14576D01*
Y14409D01*
Y14493D01*
X4542D01*
X4625Y14409D01*
X4208Y14076D02*
X4292D01*
Y14159D01*
Y13993D01*
Y14076D01*
X4542D01*
X4625Y13993D01*
X4125Y13243D02*
Y12910D01*
Y13076D01*
X4625D01*
X4292Y12660D02*
Y12493D01*
X4375Y12410D01*
X4625D01*
Y12660D01*
X4542Y12743D01*
X4458Y12660D01*
Y12410D01*
X4625Y12243D02*
X4125D01*
X4458D02*
X4292Y11993D01*
X4458Y12243D02*
X4625Y11993D01*
Y11743D02*
X4125D01*
X4458D02*
X4292Y11493D01*
X4458Y11743D02*
X4625Y11493D01*
X4125Y11244D02*
Y10910D01*
Y11077D01*
X4625D01*
Y10744D02*
Y10577D01*
Y10660D01*
X4292D01*
Y10744D01*
X4625Y10327D02*
Y10161D01*
Y10244D01*
X4125D01*
Y10327D01*
X4625Y9661D02*
Y9827D01*
X4542Y9911D01*
X4375D01*
X4292Y9827D01*
Y9661D01*
X4375Y9577D01*
X4458D01*
Y9911D01*
X4292Y8911D02*
X4625D01*
X4458D01*
X4375Y8828D01*
X4292Y8744D01*
Y8661D01*
X4625Y8161D02*
Y8328D01*
X4542Y8411D01*
X4375D01*
X4292Y8328D01*
Y8161D01*
X4375Y8078D01*
X4458D01*
Y8411D01*
X4292Y7911D02*
X4625Y7745D01*
X4292Y7578D01*
X4208Y7411D02*
X4125Y7328D01*
Y7162D01*
X4208Y7078D01*
X4542D01*
X4625Y7162D01*
Y7328D01*
X4542Y7411D01*
X4208D01*
M02*
