M48
;Layer_Color=9474304
;FILE_FORMAT=4:3
METRIC,LZ
;TYPE=PLATED
T1F00S00C0.254
T2F00S00C0.500
%
T01
X0001Y0002
X00037Y000195
X00035Y0005125
X00037Y0007125
X000225Y00092
X0001Y001015
X00037Y0012201
X000225Y0014276
X0001Y0015376
X0007325Y00126
X00103Y0012276
X000925Y0009875
X0009275Y000715
X00103Y0007125
X00076Y000795
X0007
X0007025Y000605
X000765Y0006075
X00076Y0003925
X0005975Y0004975
X000635Y000115
X00103Y0002
X0013Y0002
X0012394Y0004175
X0012976Y0005125
X0012026Y0009025
Y0009625
X0012025Y0010213
X0013Y00144
X0011751Y0015376
X000225Y0004025
X0000975Y0005075
X00037Y0017401
X0006354Y0017445
X0007538
X0008025Y0018425
X0008075Y0019475
X000845Y0022298
X0008425Y0023725
X0007262Y0023675
X000595
X000665Y0022325
X000455Y0022525
X00037Y0022526
X000475Y002035
X0002225
Y001945
X0001Y002045
X000225Y002455
X0000625Y0030925
X0002825Y0032002
X000633Y00309
X0008425
X0011176Y0029826
X001195Y0028875
X0013025Y00246
X00103Y0022626
X0011801Y0020526
X0011771Y0019496
X00103Y0017401
X0007Y0015775
X000625
T02
X0003825Y0025354
X0005095
X0006365
X0007635
X0008905
X0010175
X001014Y00277
X000887
X00076
X000633
X000506
X000379
M30
