<?xml version="1.0" encoding="UTF-8" standalone="no"?>
<!-- Created with Inkscape (http://www.inkscape.org/) -->

<svg
   xmlns:dc="http://purl.org/dc/elements/1.1/"
   xmlns:cc="http://creativecommons.org/ns#"
   xmlns:rdf="http://www.w3.org/1999/02/22-rdf-syntax-ns#"
   xmlns:svg="http://www.w3.org/2000/svg"
   xmlns="http://www.w3.org/2000/svg"
   xmlns:sodipodi="http://sodipodi.sourceforge.net/DTD/sodipodi-0.dtd"
   xmlns:inkscape="http://www.inkscape.org/namespaces/inkscape"
   width="14mm"
   height="32.850388mm"
   viewBox="0 0 49.606299 116.39901"
   id="svg2"
   version="1.1"
   inkscape:version="0.91 r13725"
   sodipodi:docname="barret_board.svg">
  <defs
     id="defs4">
    <clipPath
       id="clipPath4154"
       clipPathUnits="userSpaceOnUse">
      <path
         inkscape:connector-curvature="0"
         id="path4156"
         d="M 0,0 395,0 395,457 0,457 0,0 Z" />
    </clipPath>
  </defs>
  <sodipodi:namedview
     id="base"
     pagecolor="#ffffff"
     bordercolor="#666666"
     borderopacity="1.0"
     inkscape:pageopacity="0.0"
     inkscape:pageshadow="2"
     inkscape:zoom="5.6"
     inkscape:cx="12.192888"
     inkscape:cy="59.492956"
     inkscape:document-units="px"
     inkscape:current-layer="layer1"
     showgrid="false"
     fit-margin-top="0"
     fit-margin-left="0"
     fit-margin-right="0"
     fit-margin-bottom="0"
     inkscape:window-width="1920"
     inkscape:window-height="1018"
     inkscape:window-x="-8"
     inkscape:window-y="-8"
     inkscape:window-maximized="1" />
  <metadata
     id="metadata7">
    <rdf:RDF>
      <cc:Work
         rdf:about="">
        <dc:format>image/svg+xml</dc:format>
        <dc:type
           rdf:resource="http://purl.org/dc/dcmitype/StillImage" />
        <dc:title></dc:title>
      </cc:Work>
    </rdf:RDF>
  </metadata>
  <g
     inkscape:label="Layer 1"
     inkscape:groupmode="layer"
     id="layer1"
     transform="translate(-218.26971,-854.9614)">
    <g
       id="g4146"
       transform="matrix(0.19340989,0,0,-0.19340989,166.60012,972.43843)">
      <g
         id="g4148">
        <g
           id="g4150"
           transform="matrix(1.3333,0,0,1.3333,0,2.6667)">
          <g
             id="g4152"
             clip-path="url(#clipPath4154)">
            <g
               id="g4158">
              <path
                 d="m 209.7485,2.8632 0,0"
                 style="fill:none;stroke:#000000;stroke-width:1.36530006;stroke-linecap:round;stroke-linejoin:miter;stroke-miterlimit:10;stroke-dasharray:none;stroke-opacity:1"
                 id="path4160"
                 inkscape:connector-curvature="0" />
              <path
                 d="m 201.0542,348.7272 0,1.8739"
                 style="fill:none;stroke:#000000;stroke-width:1.36530006;stroke-linecap:round;stroke-linejoin:miter;stroke-miterlimit:10;stroke-dasharray:none;stroke-opacity:1"
                 id="path4162"
                 inkscape:connector-curvature="0" />
              <path
                 d="m 255.625,363.5589 0,0.6789"
                 style="fill:none;stroke:#000000;stroke-width:1.36530006;stroke-linecap:round;stroke-linejoin:miter;stroke-miterlimit:10;stroke-dasharray:none;stroke-opacity:1"
                 id="path4164"
                 inkscape:connector-curvature="0" />
              <path
                 d="m 337.4813,363.5589 0,0.6789"
                 style="fill:none;stroke:#000000;stroke-width:1.36530006;stroke-linecap:round;stroke-linejoin:miter;stroke-miterlimit:10;stroke-dasharray:none;stroke-opacity:1"
                 id="path4166"
                 inkscape:connector-curvature="0" />
              <path
                 d="m 392.0522,9.6833 0,1.8739"
                 style="fill:none;stroke:#000000;stroke-width:1.36530006;stroke-linecap:round;stroke-linejoin:miter;stroke-miterlimit:10;stroke-dasharray:none;stroke-opacity:1"
                 id="path4168"
                 inkscape:connector-curvature="0" />
              <path
                 d="m 383.3544,452.8747 1.8747,0"
                 style="fill:none;stroke:#000000;stroke-width:1.36530006;stroke-linecap:round;stroke-linejoin:miter;stroke-miterlimit:10;stroke-dasharray:none;stroke-opacity:1"
                 id="path4170"
                 inkscape:connector-curvature="0" />
              <path
                 d="m 201.0542,377.8745 0,69.5483"
                 style="fill:none;stroke:#000000;stroke-width:1.36530006;stroke-linecap:round;stroke-linejoin:miter;stroke-miterlimit:10;stroke-dasharray:none;stroke-opacity:1"
                 id="path4172"
                 inkscape:connector-curvature="0" />
              <path
                 d="m 392.0522,377.8745 0,68.1836"
                 style="fill:none;stroke:#000000;stroke-width:1.36530006;stroke-linecap:round;stroke-linejoin:miter;stroke-miterlimit:10;stroke-dasharray:none;stroke-opacity:1"
                 id="path4174"
                 inkscape:connector-curvature="0" />
              <path
                 d="m 201.0542,11.5572 0,337.17"
                 style="fill:none;stroke:#000000;stroke-width:1.36530006;stroke-linecap:round;stroke-linejoin:miter;stroke-miterlimit:10;stroke-dasharray:none;stroke-opacity:1"
                 id="path4176"
                 inkscape:connector-curvature="0" />
              <path
                 d="m 392.0522,11.5572 0,339.0439"
                 style="fill:none;stroke:#000000;stroke-width:1.36530006;stroke-linecap:round;stroke-linejoin:miter;stroke-miterlimit:10;stroke-dasharray:none;stroke-opacity:1"
                 id="path4178"
                 inkscape:connector-curvature="0" />
              <path
                 d="m 343.6218,357.4177 41.6073,0"
                 style="fill:none;stroke:#000000;stroke-width:1.36530006;stroke-linecap:round;stroke-linejoin:miter;stroke-miterlimit:10;stroke-dasharray:none;stroke-opacity:1"
                 id="path4180"
                 inkscape:connector-curvature="0" />
              <path
                 d="m 344.301,371.0544 40.9281,0"
                 style="fill:none;stroke:#000000;stroke-width:1.36530006;stroke-linecap:round;stroke-linejoin:miter;stroke-miterlimit:10;stroke-dasharray:none;stroke-opacity:1"
                 id="path4182"
                 inkscape:connector-curvature="0" />
              <path
                 d="m 209.7485,2.8632 175.4806,0"
                 style="fill:none;stroke:#000000;stroke-width:1.36530006;stroke-linecap:round;stroke-linejoin:miter;stroke-miterlimit:10;stroke-dasharray:none;stroke-opacity:1"
                 id="path4184"
                 inkscape:connector-curvature="0" />
              <path
                 d="m 207.8738,357.4177 41.6073,0"
                 style="fill:none;stroke:#000000;stroke-width:1.36530006;stroke-linecap:round;stroke-linejoin:miter;stroke-miterlimit:10;stroke-dasharray:none;stroke-opacity:1"
                 id="path4186"
                 inkscape:connector-curvature="0" />
              <path
                 d="m 207.8738,371.0544 40.9282,0"
                 style="fill:none;stroke:#000000;stroke-width:1.36530006;stroke-linecap:round;stroke-linejoin:miter;stroke-miterlimit:10;stroke-dasharray:none;stroke-opacity:1"
                 id="path4188"
                 inkscape:connector-curvature="0" />
              <path
                 d="m 206.512,452.8747 176.8424,0"
                 style="fill:none;stroke:#000000;stroke-width:1.36530006;stroke-linecap:round;stroke-linejoin:miter;stroke-miterlimit:10;stroke-dasharray:none;stroke-opacity:1"
                 id="path4190"
                 inkscape:connector-curvature="0" />
              <path
                 d="m 201.0542,350.6011 c 0,3.7647 3.0532,6.8166 6.8196,6.8166"
                 style="fill:none;stroke:#000000;stroke-width:1.36530006;stroke-linecap:round;stroke-linejoin:miter;stroke-miterlimit:10;stroke-dasharray:none;stroke-opacity:1"
                 id="path4192"
                 inkscape:connector-curvature="0" />
              <path
                 d="m 207.8738,371.0579 c -3.7664,0 -6.8196,3.0519 -6.8196,6.8166 0,0 0,0 0,0"
                 style="fill:none;stroke:#000000;stroke-width:1.36530006;stroke-linecap:round;stroke-linejoin:miter;stroke-miterlimit:10;stroke-dasharray:none;stroke-opacity:1"
                 id="path4194"
                 inkscape:connector-curvature="0" />
              <path
                 d="m 255.625,363.5589 c 0,-3.3917 -2.7507,-6.1412 -6.1439,-6.1412"
                 style="fill:none;stroke:#000000;stroke-width:1.36530006;stroke-linecap:round;stroke-linejoin:miter;stroke-miterlimit:10;stroke-dasharray:none;stroke-opacity:1"
                 id="path4196"
                 inkscape:connector-curvature="0" />
              <path
                 d="m 343.6218,357.4177 c -3.3932,0 -6.1439,2.7495 -6.1439,6.1412 0,0 0,0 0,0"
                 style="fill:none;stroke:#000000;stroke-width:1.36530006;stroke-linecap:round;stroke-linejoin:miter;stroke-miterlimit:10;stroke-dasharray:none;stroke-opacity:1"
                 id="path4198"
                 inkscape:connector-curvature="0" />
              <path
                 d="m 385.2291,357.4177 c 3.7664,0 6.8196,-3.0519 6.8196,-6.8166"
                 style="fill:none;stroke:#000000;stroke-width:1.36530006;stroke-linecap:round;stroke-linejoin:miter;stroke-miterlimit:10;stroke-dasharray:none;stroke-opacity:1"
                 id="path4200"
                 inkscape:connector-curvature="0" />
              <path
                 d="m 392.0487,377.8745 c 0,-3.7647 -3.0532,-6.8166 -6.8196,-6.8166"
                 style="fill:none;stroke:#000000;stroke-width:1.36530006;stroke-linecap:round;stroke-linejoin:miter;stroke-miterlimit:10;stroke-dasharray:none;stroke-opacity:1"
                 id="path4202"
                 inkscape:connector-curvature="0" />
              <path
                 d="m 209.7485,2.8632 c -4.8036,0 -8.6978,3.8924 -8.6978,8.694 0,0 0,0 0,0"
                 style="fill:none;stroke:#000000;stroke-width:1.36530006;stroke-linecap:round;stroke-linejoin:miter;stroke-miterlimit:10;stroke-dasharray:none;stroke-opacity:1"
                 id="path4204"
                 inkscape:connector-curvature="0" />
              <path
                 d="m 201.0542,447.4228 c 0,3.0129 2.4435,5.4554 5.4578,5.4554"
                 style="fill:none;stroke:#000000;stroke-width:1.36530006;stroke-linecap:round;stroke-linejoin:miter;stroke-miterlimit:10;stroke-dasharray:none;stroke-opacity:1"
                 id="path4206"
                 inkscape:connector-curvature="0" />
              <path
                 d="m 248.802,371.0544 c 3.7663,0 6.8196,-3.0519 6.8196,-6.8166"
                 style="fill:none;stroke:#000000;stroke-width:1.36530006;stroke-linecap:round;stroke-linejoin:miter;stroke-miterlimit:10;stroke-dasharray:none;stroke-opacity:1"
                 id="path4208"
                 inkscape:connector-curvature="0" />
              <path
                 d="m 337.4813,364.2378 c 0,3.7647 3.0533,6.8166 6.8197,6.8166"
                 style="fill:none;stroke:#000000;stroke-width:1.36530006;stroke-linecap:round;stroke-linejoin:miter;stroke-miterlimit:10;stroke-dasharray:none;stroke-opacity:1"
                 id="path4210"
                 inkscape:connector-curvature="0" />
              <path
                 d="m 392.0487,9.6833 c 0,-3.7647 -3.0532,-6.8166 -6.8196,-6.8166"
                 style="fill:none;stroke:#000000;stroke-width:1.36530006;stroke-linecap:round;stroke-linejoin:miter;stroke-miterlimit:10;stroke-dasharray:none;stroke-opacity:1"
                 id="path4212"
                 inkscape:connector-curvature="0" />
              <path
                 d="m 385.2291,452.8747 c 3.7664,0 6.8196,-3.0519 6.8196,-6.8166"
                 style="fill:none;stroke:#000000;stroke-width:1.36530006;stroke-linecap:round;stroke-linejoin:miter;stroke-miterlimit:10;stroke-dasharray:none;stroke-opacity:1"
                 id="path4214"
                 inkscape:connector-curvature="0" />
              <path
                 d="m 201.0542,350.6011 0.1317,1.3301 1.0153,2.4592 1.8851,1.8808 2.4569,1.0184 1.3306,0.1281 0,0 -6.8196,0 0,-6.8166 z"
                 style="fill:none;stroke:#000000;stroke-width:0.0035;stroke-linecap:round;stroke-linejoin:miter;stroke-miterlimit:10;stroke-dasharray:none;stroke-opacity:1"
                 id="path4216"
                 inkscape:connector-curvature="0" />
              <path
                 d="m 201.0542,371.0544 6.8196,0 -1.3306,0.1317 -2.4569,1.0183 -1.8851,1.8808 -1.0153,2.4593 -0.1317,1.33 0,0 0,-6.8201 z"
                 style="fill:none;stroke:#000000;stroke-width:0.0035;stroke-linecap:round;stroke-linejoin:miter;stroke-miterlimit:10;stroke-dasharray:none;stroke-opacity:1"
                 id="path4218"
                 inkscape:connector-curvature="0" />
              <path
                 d="m 392.0522,350.6011 -0.1317,1.3301 -1.0188,2.4592 -1.8816,1.8808 -2.4603,1.0184 -1.3307,0.1281 0,0 6.8231,0 0,-6.8166 z"
                 style="fill:none;stroke:#000000;stroke-width:0.0035;stroke-linecap:round;stroke-linejoin:miter;stroke-miterlimit:10;stroke-dasharray:none;stroke-opacity:1"
                 id="path4220"
                 inkscape:connector-curvature="0" />
              <path
                 d="m 385.2291,371.0544 1.3307,0.1317 2.4603,1.0183 1.8816,1.8808 1.0188,2.4593 0.1317,1.33 0,0 0,-6.8201 -6.8231,0 z"
                 style="fill:none;stroke:#000000;stroke-width:0.0035;stroke-linecap:round;stroke-linejoin:miter;stroke-miterlimit:10;stroke-dasharray:none;stroke-opacity:1"
                 id="path4222"
                 inkscape:connector-curvature="0" />
              <path
                 d="m 201.0542,2.8632 6.8196,0 -1.3306,0.1316 -2.4569,1.0184 -1.8851,1.8808 -1.0153,2.4592 -0.1317,1.3301 0,0 0,-6.8201 z"
                 style="fill:none;stroke:#000000;stroke-width:0.0035;stroke-linecap:round;stroke-linejoin:miter;stroke-miterlimit:10;stroke-dasharray:none;stroke-opacity:1"
                 id="path4224"
                 inkscape:connector-curvature="0" />
              <path
                 d="m 201.0542,452.8747 0,-5.4519 0.1039,1.0634 0.8144,1.9674 1.5074,1.5032 1.9648,0.814 1.0673,0.1039 0,0 -5.4578,0 z"
                 style="fill:none;stroke:#000000;stroke-width:0.0035;stroke-linecap:round;stroke-linejoin:miter;stroke-miterlimit:10;stroke-dasharray:none;stroke-opacity:1"
                 id="path4226"
                 inkscape:connector-curvature="0" />
              <path
                 d="m 276.0874,371.0544 -1.3549,0 -2.5089,-1.0356 -1.9197,-1.9189 -1.0361,-2.5078 0,-1.3543 0,0 0,-1.3578 1.0361,-2.5042 1.9197,-1.919 2.5089,-1.0391 1.3549,0 0,0 6.8231,0 1.3549,0 2.5088,1.0391 1.9198,1.919 1.0361,2.5042 0,1.3578 0,0 0,1.3543 -1.0361,2.5078 -1.9198,1.9189 -2.5088,1.0356 -1.3549,0 0,0 -6.8231,0 z"
                 style="fill:none;stroke:#000000;stroke-width:0.0035;stroke-linecap:round;stroke-linejoin:miter;stroke-miterlimit:10;stroke-dasharray:none;stroke-opacity:1"
                 id="path4228"
                 inkscape:connector-curvature="0" />
              <path
                 d="m 310.1959,371.0544 -1.3584,0 -2.5054,-1.0356 -1.9197,-1.9189 -1.0396,-2.5078 0,-1.3543 0,0 0,-1.3578 1.0396,-2.5042 1.9197,-1.919 2.5054,-1.0391 1.3584,0 0,0 6.8196,0 1.3584,0 2.5054,1.0391 1.9197,1.919 1.0396,2.5042 0,1.3578 0,0 0,1.3543 -1.0396,2.5078 -1.9197,1.9189 -2.5054,1.0356 -1.3584,0 0,0 -6.8196,0 z"
                 style="fill:none;stroke:#000000;stroke-width:0.0035;stroke-linecap:round;stroke-linejoin:miter;stroke-miterlimit:10;stroke-dasharray:none;stroke-opacity:1"
                 id="path4230"
                 inkscape:connector-curvature="0" />
              <path
                 d="m 392.0522,2.8632 0,6.8201 -0.1317,-1.3301 -1.0188,-2.4592 -1.8816,-1.8808 -2.4603,-1.0184 -1.3307,-0.1316 0,0 6.8231,0 z"
                 style="fill:none;stroke:#000000;stroke-width:0.0035;stroke-linecap:round;stroke-linejoin:miter;stroke-miterlimit:10;stroke-dasharray:none;stroke-opacity:1"
                 id="path4232"
                 inkscape:connector-curvature="0" />
              <path
                 d="m 385.2291,452.8747 1.3307,-0.1281 2.4603,-1.0184 1.8816,-1.8808 1.0188,-2.4592 0.1317,-1.3301 0,0 0,6.8166 -6.8231,0 z"
                 style="fill:none;stroke:#000000;stroke-width:0.0035;stroke-linecap:round;stroke-linejoin:miter;stroke-miterlimit:10;stroke-dasharray:none;stroke-opacity:1"
                 id="path4234"
                 inkscape:connector-curvature="0" />
              <path
                 d="m 201.0542,371.0544 47.7478,0 1.3583,0 2.5054,-1.0356 1.9198,-1.9189 1.0395,-2.5078 0,-1.3543 0,0 0,-1.3578 -1.0395,-2.5042 -1.9198,-1.919 -2.5054,-1.0391 -1.3583,0 0,0 -47.7478,0 0,13.6367 z"
                 style="fill:none;stroke:#000000;stroke-width:0.0035;stroke-linecap:round;stroke-linejoin:miter;stroke-miterlimit:10;stroke-dasharray:none;stroke-opacity:1"
                 id="path4236"
                 inkscape:connector-curvature="0" />
              <path
                 d="m 392.0522,371.0544 -47.7512,0 -1.355,0 -2.5088,-1.0356 -1.9198,-1.9189 -1.0361,-2.5078 0,-1.3543 0,0 0,-1.3578 1.0361,-2.5042 1.9198,-1.919 2.5088,-1.0391 1.355,0 0,0 47.7512,0 0,13.6367 z"
                 style="fill:none;stroke:#000000;stroke-width:0.0035;stroke-linecap:round;stroke-linejoin:miter;stroke-miterlimit:10;stroke-dasharray:none;stroke-opacity:1"
                 id="path4238"
                 inkscape:connector-curvature="0" />
              <path
                 d="m 235.5023,52.2976 -7.5023,0 0,-14.3191 7.5023,0 0,14.3191 z"
                 style="fill:#000000;fill-opacity:1;fill-rule:evenodd;stroke:none"
                 id="path4240"
                 inkscape:connector-curvature="0" />
              <path
                 d="m 235.5023,192.3397 -7.5057,0 0,-14.319 7.5057,0 0,14.319 z"
                 style="fill:#000000;fill-opacity:1;fill-rule:evenodd;stroke:none"
                 id="path4242"
                 inkscape:connector-curvature="0" />
              <path
                 d="m 235.5023,302.3756 -7.5023,0 0,-14.3191 7.5023,0 0,14.3191 z"
                 style="fill:#000000;fill-opacity:1;fill-rule:evenodd;stroke:none"
                 id="path4244"
                 inkscape:connector-curvature="0" />
              <path
                 d="m 235.5023,332.3784 -7.5023,0 0,-14.3191 7.5023,0 0,14.3191 z"
                 style="fill:#000000;fill-opacity:1;fill-rule:evenodd;stroke:none"
                 id="path4246"
                 inkscape:connector-curvature="0" />
              <path
                 d="m 235.5023,416.3947 -7.5023,0 0,-14.3191 7.5023,0 0,14.3191 z"
                 style="fill:#000000;fill-opacity:1;fill-rule:evenodd;stroke:none"
                 id="path4248"
                 inkscape:connector-curvature="0" />
              <path
                 d="m 235.5023,446.3975 -7.5023,0 0,-14.319 7.5023,0 0,14.319 z"
                 style="fill:#000000;fill-opacity:1;fill-rule:evenodd;stroke:none"
                 id="path4250"
                 inkscape:connector-curvature="0" />
              <path
                 d="m 252.5548,52.2976 -7.5023,0 0,-14.3191 7.5023,0 0,14.3191 z"
                 style="fill:#000000;fill-opacity:1;fill-rule:evenodd;stroke:none"
                 id="path4252"
                 inkscape:connector-curvature="0" />
              <path
                 d="m 252.5548,192.3397 -7.5057,0 0,-14.319 7.5057,0 0,14.319 z"
                 style="fill:#000000;fill-opacity:1;fill-rule:evenodd;stroke:none"
                 id="path4254"
                 inkscape:connector-curvature="0" />
              <path
                 d="m 252.5548,302.3756 -7.5023,0 0,-14.3191 7.5023,0 0,14.3191 z"
                 style="fill:#000000;fill-opacity:1;fill-rule:evenodd;stroke:none"
                 id="path4256"
                 inkscape:connector-curvature="0" />
              <path
                 d="m 252.5548,332.3784 -7.5023,0 0,-14.3191 7.5023,0 0,14.3191 z"
                 style="fill:#000000;fill-opacity:1;fill-rule:evenodd;stroke:none"
                 id="path4258"
                 inkscape:connector-curvature="0" />
              <path
                 d="m 252.5548,416.3947 -7.5023,0 0,-14.3191 7.5023,0 0,14.3191 z"
                 style="fill:#000000;fill-opacity:1;fill-rule:evenodd;stroke:none"
                 id="path4260"
                 inkscape:connector-curvature="0" />
              <path
                 d="m 252.5548,446.3975 -7.5023,0 0,-14.319 7.5023,0 0,14.319 z"
                 style="fill:#000000;fill-opacity:1;fill-rule:evenodd;stroke:none"
                 id="path4262"
                 inkscape:connector-curvature="0" />
              <path
                 d="m 340.5481,37.9785 7.5023,0 0,14.3191 -7.5023,0 0,-14.3191 z"
                 style="fill:#000000;fill-opacity:1;fill-rule:evenodd;stroke:none"
                 id="path4264"
                 inkscape:connector-curvature="0" />
              <path
                 d="m 340.5481,178.0207 7.5057,0 0,14.319 -7.5057,0 0,-14.319 z"
                 style="fill:#000000;fill-opacity:1;fill-rule:evenodd;stroke:none"
                 id="path4266"
                 inkscape:connector-curvature="0" />
              <path
                 d="m 341.2307,288.0565 7.5023,0 0,14.3191 -7.5023,0 0,-14.3191 z"
                 style="fill:#000000;fill-opacity:1;fill-rule:evenodd;stroke:none"
                 id="path4268"
                 inkscape:connector-curvature="0" />
              <path
                 d="m 341.2307,318.0593 7.5023,0 0,14.3191 -7.5023,0 0,-14.3191 z"
                 style="fill:#000000;fill-opacity:1;fill-rule:evenodd;stroke:none"
                 id="path4270"
                 inkscape:connector-curvature="0" />
              <path
                 d="m 340.5481,402.0756 7.5023,0 0,14.3191 -7.5023,0 0,-14.3191 z"
                 style="fill:#000000;fill-opacity:1;fill-rule:evenodd;stroke:none"
                 id="path4272"
                 inkscape:connector-curvature="0" />
              <path
                 d="m 340.5481,432.0785 7.5023,0 0,14.319 -7.5023,0 0,-14.319 z"
                 style="fill:#000000;fill-opacity:1;fill-rule:evenodd;stroke:none"
                 id="path4274"
                 inkscape:connector-curvature="0" />
              <path
                 d="m 357.6006,37.9785 7.5023,0 0,14.3191 -7.5023,0 0,-14.3191 z"
                 style="fill:#000000;fill-opacity:1;fill-rule:evenodd;stroke:none"
                 id="path4276"
                 inkscape:connector-curvature="0" />
              <path
                 d="m 357.6006,178.0207 7.5058,0 0,14.319 -7.5058,0 0,-14.319 z"
                 style="fill:#000000;fill-opacity:1;fill-rule:evenodd;stroke:none"
                 id="path4278"
                 inkscape:connector-curvature="0" />
              <path
                 d="m 358.2833,288.0565 7.5022,0 0,14.3191 -7.5022,0 0,-14.3191 z"
                 style="fill:#000000;fill-opacity:1;fill-rule:evenodd;stroke:none"
                 id="path4280"
                 inkscape:connector-curvature="0" />
              <path
                 d="m 358.2833,318.0593 7.5022,0 0,14.3191 -7.5022,0 0,-14.3191 z"
                 style="fill:#000000;fill-opacity:1;fill-rule:evenodd;stroke:none"
                 id="path4282"
                 inkscape:connector-curvature="0" />
              <path
                 d="m 357.6006,402.0756 7.5023,0 0,14.3191 -7.5023,0 0,-14.3191 z"
                 style="fill:#000000;fill-opacity:1;fill-rule:evenodd;stroke:none"
                 id="path4284"
                 inkscape:connector-curvature="0" />
              <path
                 d="m 357.6006,432.0785 7.5023,0 0,14.319 -7.5023,0 0,-14.319 z"
                 style="fill:#000000;fill-opacity:1;fill-rule:evenodd;stroke:none"
                 id="path4286"
                 inkscape:connector-curvature="0" />
              <path
                 d="m 235.4988,92.3176 -7.5022,0 0,-14.3191 7.5022,0 0,14.3191 z"
                 style="fill:#000000;fill-opacity:1;fill-rule:evenodd;stroke:none"
                 id="path4288"
                 inkscape:connector-curvature="0" />
              <path
                 d="m 235.4988,122.3204 -7.5022,0 0,-14.3191 7.5022,0 0,14.3191 z"
                 style="fill:#000000;fill-opacity:1;fill-rule:evenodd;stroke:none"
                 id="path4290"
                 inkscape:connector-curvature="0" />
              <path
                 d="m 235.4988,162.3369 -7.4988,0 0,-14.3191 7.4988,0 0,14.3191 z"
                 style="fill:#000000;fill-opacity:1;fill-rule:evenodd;stroke:none"
                 id="path4292"
                 inkscape:connector-curvature="0" />
              <path
                 d="m 235.5023,232.3562 -7.5023,0 0,-14.319 7.5023,0 0,14.319 z"
                 style="fill:#000000;fill-opacity:1;fill-rule:evenodd;stroke:none"
                 id="path4294"
                 inkscape:connector-curvature="0" />
              <path
                 d="m 235.5023,262.3591 -7.5023,0 0,-14.3191 7.5023,0 0,14.3191 z"
                 style="fill:#000000;fill-opacity:1;fill-rule:evenodd;stroke:none"
                 id="path4296"
                 inkscape:connector-curvature="0" />
              <path
                 d="m 252.5514,92.3176 -7.5023,0 0,-14.3191 7.5023,0 0,14.3191 z"
                 style="fill:#000000;fill-opacity:1;fill-rule:evenodd;stroke:none"
                 id="path4298"
                 inkscape:connector-curvature="0" />
              <path
                 d="m 252.5514,122.3204 -7.5023,0 0,-14.3191 7.5023,0 0,14.3191 z"
                 style="fill:#000000;fill-opacity:1;fill-rule:evenodd;stroke:none"
                 id="path4300"
                 inkscape:connector-curvature="0" />
              <path
                 d="m 252.5514,162.3369 -7.4989,0 0,-14.3191 7.4989,0 0,14.3191 z"
                 style="fill:#000000;fill-opacity:1;fill-rule:evenodd;stroke:none"
                 id="path4302"
                 inkscape:connector-curvature="0" />
              <path
                 d="m 252.5548,232.3562 -7.5023,0 0,-14.319 7.5023,0 0,14.319 z"
                 style="fill:#000000;fill-opacity:1;fill-rule:evenodd;stroke:none"
                 id="path4304"
                 inkscape:connector-curvature="0" />
              <path
                 d="m 252.5548,262.3591 -7.5023,0 0,-14.3191 7.5023,0 0,14.3191 z"
                 style="fill:#000000;fill-opacity:1;fill-rule:evenodd;stroke:none"
                 id="path4306"
                 inkscape:connector-curvature="0" />
              <path
                 d="m 280.8625,211.508 0,-10.9107 10.9156,0 0,10.9107 -10.9156,0 z"
                 style="fill:#000000;fill-opacity:1;fill-rule:evenodd;stroke:none"
                 id="path4308"
                 inkscape:connector-curvature="0" />
              <path
                 d="m 301.3283,211.508 0,-10.9107 10.9156,0 0,10.9107 -10.9156,0 z"
                 style="fill:#000000;fill-opacity:1;fill-rule:evenodd;stroke:none"
                 id="path4310"
                 inkscape:connector-curvature="0" />
              <path
                 d="m 340.5516,108.0013 7.5022,0 0,14.3191 -7.5022,0 0,-14.3191 z"
                 style="fill:#000000;fill-opacity:1;fill-rule:evenodd;stroke:none"
                 id="path4312"
                 inkscape:connector-curvature="0" />
              <path
                 d="m 340.5516,77.9985 7.5022,0 0,14.3191 -7.5022,0 0,-14.3191 z"
                 style="fill:#000000;fill-opacity:1;fill-rule:evenodd;stroke:none"
                 id="path4314"
                 inkscape:connector-curvature="0" />
              <path
                 d="m 340.5516,148.0178 7.4988,0 0,14.3191 -7.4988,0 0,-14.3191 z"
                 style="fill:#000000;fill-opacity:1;fill-rule:evenodd;stroke:none"
                 id="path4316"
                 inkscape:connector-curvature="0" />
              <path
                 d="m 340.5481,218.0372 7.5023,0 0,14.319 -7.5023,0 0,-14.319 z"
                 style="fill:#000000;fill-opacity:1;fill-rule:evenodd;stroke:none"
                 id="path4318"
                 inkscape:connector-curvature="0" />
              <path
                 d="m 340.5481,248.04 7.5023,0 0,14.3191 -7.5023,0 0,-14.3191 z"
                 style="fill:#000000;fill-opacity:1;fill-rule:evenodd;stroke:none"
                 id="path4320"
                 inkscape:connector-curvature="0" />
              <path
                 d="m 357.6041,108.0013 7.5023,0 0,14.3191 -7.5023,0 0,-14.3191 z"
                 style="fill:#000000;fill-opacity:1;fill-rule:evenodd;stroke:none"
                 id="path4322"
                 inkscape:connector-curvature="0" />
              <path
                 d="m 357.6041,77.9985 7.5023,0 0,14.3191 -7.5023,0 0,-14.3191 z"
                 style="fill:#000000;fill-opacity:1;fill-rule:evenodd;stroke:none"
                 id="path4324"
                 inkscape:connector-curvature="0" />
              <path
                 d="m 357.6041,148.0178 7.4988,0 0,14.3191 -7.4988,0 0,-14.3191 z"
                 style="fill:#000000;fill-opacity:1;fill-rule:evenodd;stroke:none"
                 id="path4326"
                 inkscape:connector-curvature="0" />
              <path
                 d="m 357.6006,218.0372 7.5023,0 0,14.319 -7.5023,0 0,-14.319 z"
                 style="fill:#000000;fill-opacity:1;fill-rule:evenodd;stroke:none"
                 id="path4328"
                 inkscape:connector-curvature="0" />
              <path
                 d="m 357.6006,248.04 7.5023,0 0,14.3191 -7.5023,0 0,-14.3191 z"
                 style="fill:#000000;fill-opacity:1;fill-rule:evenodd;stroke:none"
                 id="path4330"
                 inkscape:connector-curvature="0" />
              <path
                 d="m 235.5023,22.2948 -7.5023,0 0,-14.3191 7.5023,0 0,14.3191 z"
                 style="fill:#000000;fill-opacity:1;fill-rule:evenodd;stroke:none"
                 id="path4332"
                 inkscape:connector-curvature="0" />
              <path
                 d="m 252.5548,22.2948 -7.5023,0 0,-14.3191 7.5023,0 0,14.3191 z"
                 style="fill:#000000;fill-opacity:1;fill-rule:evenodd;stroke:none"
                 id="path4334"
                 inkscape:connector-curvature="0" />
              <path
                 d="m 340.5481,7.9757 7.5023,0 0,14.3191 -7.5023,0 0,-14.3191 z"
                 style="fill:#000000;fill-opacity:1;fill-rule:evenodd;stroke:none"
                 id="path4336"
                 inkscape:connector-curvature="0" />
              <path
                 d="m 357.6006,7.9757 7.5023,0 0,14.3191 -7.5023,0 0,-14.3191 z"
                 style="fill:#000000;fill-opacity:1;fill-rule:evenodd;stroke:none"
                 id="path4338"
                 inkscape:connector-curvature="0" />
              <path
                 d="m 218.4498,52.2976 -7.5023,0 0,-14.3191 7.5023,0 0,14.3191 z"
                 style="fill:#000000;fill-opacity:1;fill-rule:evenodd;stroke:none"
                 id="path4340"
                 inkscape:connector-curvature="0" />
              <path
                 d="m 218.4498,192.3397 -7.5058,0 0,-14.319 7.5058,0 0,14.319 z"
                 style="fill:#000000;fill-opacity:1;fill-rule:evenodd;stroke:none"
                 id="path4342"
                 inkscape:connector-curvature="0" />
              <path
                 d="m 218.4498,302.3756 -7.5023,0 0,-14.3191 7.5023,0 0,14.3191 z"
                 style="fill:#000000;fill-opacity:1;fill-rule:evenodd;stroke:none"
                 id="path4344"
                 inkscape:connector-curvature="0" />
              <path
                 d="m 218.4498,332.3784 -7.5023,0 0,-14.3191 7.5023,0 0,14.3191 z"
                 style="fill:#000000;fill-opacity:1;fill-rule:evenodd;stroke:none"
                 id="path4346"
                 inkscape:connector-curvature="0" />
              <path
                 d="m 218.4498,416.3947 -7.5023,0 0,-14.3191 7.5023,0 0,14.3191 z"
                 style="fill:#000000;fill-opacity:1;fill-rule:evenodd;stroke:none"
                 id="path4348"
                 inkscape:connector-curvature="0" />
              <path
                 d="m 218.4498,446.3975 -7.5023,0 0,-14.319 7.5023,0 0,14.319 z"
                 style="fill:#000000;fill-opacity:1;fill-rule:evenodd;stroke:none"
                 id="path4350"
                 inkscape:connector-curvature="0" />
              <path
                 d="m 269.6074,52.2976 -7.5023,0 0,-14.3191 7.5023,0 0,14.3191 z"
                 style="fill:#000000;fill-opacity:1;fill-rule:evenodd;stroke:none"
                 id="path4352"
                 inkscape:connector-curvature="0" />
              <path
                 d="m 323.4956,37.9785 7.5022,0 0,14.3191 -7.5022,0 0,-14.3191 z"
                 style="fill:#000000;fill-opacity:1;fill-rule:evenodd;stroke:none"
                 id="path4354"
                 inkscape:connector-curvature="0" />
              <path
                 d="m 302.6902,165.1425 -12.2774,0 0,-9.546 12.2774,0 0,9.546 z"
                 style="fill:#000000;fill-opacity:1;fill-rule:evenodd;stroke:none"
                 id="path4356"
                 inkscape:connector-curvature="0" />
              <path
                 d="m 323.4956,178.0207 7.5057,0 0,14.319 -7.5057,0 0,-14.319 z"
                 style="fill:#000000;fill-opacity:1;fill-rule:evenodd;stroke:none"
                 id="path4358"
                 inkscape:connector-curvature="0" />
              <path
                 d="m 269.6074,192.3397 -7.5058,0 0,-14.319 7.5058,0 0,14.319 z"
                 style="fill:#000000;fill-opacity:1;fill-rule:evenodd;stroke:none"
                 id="path4360"
                 inkscape:connector-curvature="0" />
              <path
                 d="m 324.1782,288.0565 7.5023,0 0,14.3191 -7.5023,0 0,-14.3191 z"
                 style="fill:#000000;fill-opacity:1;fill-rule:evenodd;stroke:none"
                 id="path4362"
                 inkscape:connector-curvature="0" />
              <path
                 d="m 269.6074,302.3756 -7.5023,0 0,-14.3191 7.5023,0 0,14.3191 z"
                 style="fill:#000000;fill-opacity:1;fill-rule:evenodd;stroke:none"
                 id="path4364"
                 inkscape:connector-curvature="0" />
              <path
                 d="m 324.1782,318.0593 7.5023,0 0,14.3191 -7.5023,0 0,-14.3191 z"
                 style="fill:#000000;fill-opacity:1;fill-rule:evenodd;stroke:none"
                 id="path4366"
                 inkscape:connector-curvature="0" />
              <path
                 d="m 269.6074,332.3784 -7.5023,0 0,-14.3191 7.5023,0 0,14.3191 z"
                 style="fill:#000000;fill-opacity:1;fill-rule:evenodd;stroke:none"
                 id="path4368"
                 inkscape:connector-curvature="0" />
              <path
                 d="m 323.4956,402.0756 7.5022,0 0,14.3191 -7.5022,0 0,-14.3191 z"
                 style="fill:#000000;fill-opacity:1;fill-rule:evenodd;stroke:none"
                 id="path4370"
                 inkscape:connector-curvature="0" />
              <path
                 d="m 269.6074,416.3947 -7.5023,0 0,-14.3191 7.5023,0 0,14.3191 z"
                 style="fill:#000000;fill-opacity:1;fill-rule:evenodd;stroke:none"
                 id="path4372"
                 inkscape:connector-curvature="0" />
              <path
                 d="m 323.4956,432.0785 7.5022,0 0,14.319 -7.5022,0 0,-14.319 z"
                 style="fill:#000000;fill-opacity:1;fill-rule:evenodd;stroke:none"
                 id="path4374"
                 inkscape:connector-curvature="0" />
              <path
                 d="m 269.6074,446.3975 -7.5023,0 0,-14.319 7.5023,0 0,14.319 z"
                 style="fill:#000000;fill-opacity:1;fill-rule:evenodd;stroke:none"
                 id="path4376"
                 inkscape:connector-curvature="0" />
              <path
                 d="m 374.6531,37.9785 7.5023,0 0,14.3191 -7.5023,0 0,-14.3191 z"
                 style="fill:#000000;fill-opacity:1;fill-rule:evenodd;stroke:none"
                 id="path4378"
                 inkscape:connector-curvature="0" />
              <path
                 d="m 374.6531,178.0207 7.5058,0 0,14.319 -7.5058,0 0,-14.319 z"
                 style="fill:#000000;fill-opacity:1;fill-rule:evenodd;stroke:none"
                 id="path4380"
                 inkscape:connector-curvature="0" />
              <path
                 d="m 375.3358,288.0565 7.5023,0 0,14.3191 -7.5023,0 0,-14.3191 z"
                 style="fill:#000000;fill-opacity:1;fill-rule:evenodd;stroke:none"
                 id="path4382"
                 inkscape:connector-curvature="0" />
              <path
                 d="m 375.3358,318.0593 7.5023,0 0,14.3191 -7.5023,0 0,-14.3191 z"
                 style="fill:#000000;fill-opacity:1;fill-rule:evenodd;stroke:none"
                 id="path4384"
                 inkscape:connector-curvature="0" />
              <path
                 d="m 374.6531,402.0756 7.5023,0 0,14.3191 -7.5023,0 0,-14.3191 z"
                 style="fill:#000000;fill-opacity:1;fill-rule:evenodd;stroke:none"
                 id="path4386"
                 inkscape:connector-curvature="0" />
              <path
                 d="m 374.6531,432.0785 7.5023,0 0,14.319 -7.5023,0 0,-14.319 z"
                 style="fill:#000000;fill-opacity:1;fill-rule:evenodd;stroke:none"
                 id="path4388"
                 inkscape:connector-curvature="0" />
              <path
                 d="m 218.4463,92.3176 -7.5023,0 0,-14.3191 7.5023,0 0,14.3191 z"
                 style="fill:#000000;fill-opacity:1;fill-rule:evenodd;stroke:none"
                 id="path4390"
                 inkscape:connector-curvature="0" />
              <path
                 d="m 218.4463,122.3204 -7.5023,0 0,-14.3191 7.5023,0 0,14.3191 z"
                 style="fill:#000000;fill-opacity:1;fill-rule:evenodd;stroke:none"
                 id="path4392"
                 inkscape:connector-curvature="0" />
              <path
                 d="m 218.4463,162.3369 -7.4988,0 0,-14.3191 7.4988,0 0,14.3191 z"
                 style="fill:#000000;fill-opacity:1;fill-rule:evenodd;stroke:none"
                 id="path4394"
                 inkscape:connector-curvature="0" />
              <path
                 d="m 218.4498,232.3562 -7.5023,0 0,-14.319 7.5023,0 0,14.319 z"
                 style="fill:#000000;fill-opacity:1;fill-rule:evenodd;stroke:none"
                 id="path4396"
                 inkscape:connector-curvature="0" />
              <path
                 d="m 218.4498,262.3591 -7.5023,0 0,-14.3191 7.5023,0 0,14.3191 z"
                 style="fill:#000000;fill-opacity:1;fill-rule:evenodd;stroke:none"
                 id="path4398"
                 inkscape:connector-curvature="0" />
              <path
                 d="m 269.6039,92.3176 -7.5023,0 0,-14.3191 7.5023,0 0,14.3191 z"
                 style="fill:#000000;fill-opacity:1;fill-rule:evenodd;stroke:none"
                 id="path4400"
                 inkscape:connector-curvature="0" />
              <path
                 d="m 269.6039,122.3204 -7.5023,0 0,-14.3191 7.5023,0 0,14.3191 z"
                 style="fill:#000000;fill-opacity:1;fill-rule:evenodd;stroke:none"
                 id="path4402"
                 inkscape:connector-curvature="0" />
              <path
                 d="m 323.499,108.0013 7.5023,0 0,14.3191 -7.5023,0 0,-14.3191 z"
                 style="fill:#000000;fill-opacity:1;fill-rule:evenodd;stroke:none"
                 id="path4404"
                 inkscape:connector-curvature="0" />
              <path
                 d="m 323.499,77.9985 7.5023,0 0,14.3191 -7.5023,0 0,-14.3191 z"
                 style="fill:#000000;fill-opacity:1;fill-rule:evenodd;stroke:none"
                 id="path4406"
                 inkscape:connector-curvature="0" />
              <path
                 d="m 323.499,148.0178 7.4988,0 0,14.3191 -7.4988,0 0,-14.3191 z"
                 style="fill:#000000;fill-opacity:1;fill-rule:evenodd;stroke:none"
                 id="path4408"
                 inkscape:connector-curvature="0" />
              <path
                 d="m 302.6902,147.4151 -12.2774,0 0,-9.546 12.2774,0 0,9.546 z"
                 style="fill:#000000;fill-opacity:1;fill-rule:evenodd;stroke:none"
                 id="path4410"
                 inkscape:connector-curvature="0" />
              <path
                 d="m 323.4956,218.0372 7.5022,0 0,14.319 -7.5022,0 0,-14.319 z"
                 style="fill:#000000;fill-opacity:1;fill-rule:evenodd;stroke:none"
                 id="path4412"
                 inkscape:connector-curvature="0" />
              <path
                 d="m 269.6039,162.3369 -7.4988,0 0,-14.3191 7.4988,0 0,14.3191 z"
                 style="fill:#000000;fill-opacity:1;fill-rule:evenodd;stroke:none"
                 id="path4414"
                 inkscape:connector-curvature="0" />
              <path
                 d="m 269.6074,232.3562 -7.5023,0 0,-14.319 7.5023,0 0,14.319 z"
                 style="fill:#000000;fill-opacity:1;fill-rule:evenodd;stroke:none"
                 id="path4416"
                 inkscape:connector-curvature="0" />
              <path
                 d="m 323.4956,248.04 7.5022,0 0,14.3191 -7.5022,0 0,-14.3191 z"
                 style="fill:#000000;fill-opacity:1;fill-rule:evenodd;stroke:none"
                 id="path4418"
                 inkscape:connector-curvature="0" />
              <path
                 d="m 269.6074,262.3591 -7.5023,0 0,-14.3191 7.5023,0 0,14.3191 z"
                 style="fill:#000000;fill-opacity:1;fill-rule:evenodd;stroke:none"
                 id="path4420"
                 inkscape:connector-curvature="0" />
              <path
                 d="m 374.6566,108.0013 7.5023,0 0,14.3191 -7.5023,0 0,-14.3191 z"
                 style="fill:#000000;fill-opacity:1;fill-rule:evenodd;stroke:none"
                 id="path4422"
                 inkscape:connector-curvature="0" />
              <path
                 d="m 374.6566,77.9985 7.5023,0 0,14.3191 -7.5023,0 0,-14.3191 z"
                 style="fill:#000000;fill-opacity:1;fill-rule:evenodd;stroke:none"
                 id="path4424"
                 inkscape:connector-curvature="0" />
              <path
                 d="m 374.6566,148.0178 7.4988,0 0,14.3191 -7.4988,0 0,-14.3191 z"
                 style="fill:#000000;fill-opacity:1;fill-rule:evenodd;stroke:none"
                 id="path4426"
                 inkscape:connector-curvature="0" />
              <path
                 d="m 374.6531,218.0372 7.5023,0 0,14.319 -7.5023,0 0,-14.319 z"
                 style="fill:#000000;fill-opacity:1;fill-rule:evenodd;stroke:none"
                 id="path4428"
                 inkscape:connector-curvature="0" />
              <path
                 d="m 374.6531,248.04 7.5023,0 0,14.3191 -7.5023,0 0,-14.3191 z"
                 style="fill:#000000;fill-opacity:1;fill-rule:evenodd;stroke:none"
                 id="path4430"
                 inkscape:connector-curvature="0" />
              <path
                 d="m 218.4498,22.2948 -7.5023,0 0,-14.3191 7.5023,0 0,14.3191 z"
                 style="fill:#000000;fill-opacity:1;fill-rule:evenodd;stroke:none"
                 id="path4432"
                 inkscape:connector-curvature="0" />
              <path
                 d="m 269.6074,22.2948 -7.5023,0 0,-14.3191 7.5023,0 0,14.3191 z"
                 style="fill:#000000;fill-opacity:1;fill-rule:evenodd;stroke:none"
                 id="path4434"
                 inkscape:connector-curvature="0" />
              <path
                 d="m 323.4956,7.9757 7.5022,0 0,14.3191 -7.5022,0 0,-14.3191 z"
                 style="fill:#000000;fill-opacity:1;fill-rule:evenodd;stroke:none"
                 id="path4436"
                 inkscape:connector-curvature="0" />
              <path
                 d="m 374.6531,7.9757 7.5023,0 0,14.3191 -7.5023,0 0,-14.3191 z"
                 style="fill:#000000;fill-opacity:1;fill-rule:evenodd;stroke:none"
                 id="path4438"
                 inkscape:connector-curvature="0" />
            </g>
          </g>
        </g>
      </g>
    </g>
  </g>
</svg>
