G04 Layer_Color=65535*
%FSLAX24Y24*%
%MOIN*%
G70*
G01*
G75*
%ADD10C,0.0100*%
%ADD15C,0.0040*%
%ADD22C,0.0050*%
%ADD23C,0.0060*%
G36*
X4159Y4550D02*
X4041D01*
Y4668D01*
X4159Y4550D01*
D02*
G37*
G36*
X2459Y5732D02*
X2341Y5850D01*
X2459D01*
Y5732D01*
D02*
G37*
G36*
X4159Y800D02*
X4041D01*
Y918D01*
X4159Y800D01*
D02*
G37*
G36*
X2459Y1982D02*
X2341Y2100D01*
X2459D01*
Y1982D01*
D02*
G37*
G36*
X4159Y12050D02*
X4041D01*
Y12168D01*
X4159Y12050D01*
D02*
G37*
G36*
X2459Y13232D02*
X2341Y13350D01*
X2459D01*
Y13232D01*
D02*
G37*
G36*
X4159Y8300D02*
X4041D01*
Y8418D01*
X4159Y8300D01*
D02*
G37*
G36*
X2459Y9482D02*
X2341Y9600D01*
X2459D01*
Y9482D01*
D02*
G37*
D10*
X5621Y1450D02*
G03*
X5621Y1450I-71J0D01*
G01*
Y5200D02*
G03*
X5621Y5200I-71J0D01*
G01*
Y8950D02*
G03*
X5621Y8950I-71J0D01*
G01*
Y12700D02*
G03*
X5621Y12700I-71J0D01*
G01*
X1021Y1450D02*
G03*
X1021Y1450I-71J0D01*
G01*
Y5200D02*
G03*
X1021Y5200I-71J0D01*
G01*
Y8950D02*
G03*
X1021Y8950I-71J0D01*
G01*
Y12700D02*
G03*
X1021Y12700I-71J0D01*
G01*
D15*
X4013Y1001D02*
G03*
X4013Y1001I-50J0D01*
G01*
Y4751D02*
G03*
X4013Y4751I-50J0D01*
G01*
Y8501D02*
G03*
X4013Y8501I-50J0D01*
G01*
Y12251D02*
G03*
X4013Y12251I-50J0D01*
G01*
X2587Y1899D02*
G03*
X2587Y1899I-50J0D01*
G01*
Y5649D02*
G03*
X2587Y5649I-50J0D01*
G01*
Y9399D02*
G03*
X2587Y9399I-50J0D01*
G01*
Y13149D02*
G03*
X2587Y13149I-50J0D01*
G01*
X2450Y7060D02*
X2650D01*
X2550Y6960D02*
Y7160D01*
X288Y13845D02*
G03*
X0Y13150I695J-695D01*
G01*
X1012Y14150D02*
G03*
X296Y13854I0J-1012D01*
G01*
X6262Y13845D02*
G03*
X5527Y14150I-735J-735D01*
G01*
X6550Y13150D02*
G03*
X6262Y13845I-984J0D01*
G01*
X6254Y296D02*
G03*
X6550Y1012I-715J715D01*
G01*
X5538Y0D02*
G03*
X6254Y296I0J1012D01*
G01*
X301Y285D02*
G03*
X990Y0I689J689D01*
G01*
X0Y1001D02*
G03*
X293Y293I1001J0D01*
G01*
X0Y2060D02*
Y13150D01*
X288Y13845D02*
X296Y13854D01*
X1012Y14150D02*
X5527D01*
X6550Y1012D02*
Y13150D01*
X990Y0D02*
X5538D01*
X293Y293D02*
X301Y285D01*
X0Y1001D02*
Y2060D01*
D22*
X6062Y859D02*
Y2041D01*
X4093Y859D02*
Y2041D01*
X6062Y4609D02*
Y5791D01*
X4093Y4609D02*
Y5791D01*
X6062Y8359D02*
Y9541D01*
X4093Y8359D02*
Y9541D01*
X6062Y12109D02*
Y13291D01*
X4093Y12109D02*
Y13291D01*
X438Y859D02*
Y2041D01*
X2407Y859D02*
Y2041D01*
X438Y4609D02*
Y5791D01*
X2407Y4609D02*
Y5791D01*
X438Y8359D02*
Y9541D01*
X2407Y8359D02*
Y9541D01*
X438Y12109D02*
Y13291D01*
X2407Y12109D02*
Y13291D01*
D23*
X3177Y11293D02*
X3110Y11360D01*
X2977D01*
X2910Y11293D01*
Y11027D01*
X2977Y10960D01*
X3110D01*
X3177Y11027D01*
X3310D02*
X3377Y10960D01*
X3510D01*
X3576Y11027D01*
Y11293D01*
X3510Y11360D01*
X3377D01*
X3310Y11293D01*
Y11227D01*
X3377Y11160D01*
X3576D01*
X3017Y4653D02*
X2950Y4720D01*
X2817D01*
X2750Y4653D01*
Y4387D01*
X2817Y4320D01*
X2950D01*
X3017Y4387D01*
X3150Y4320D02*
X3283D01*
X3217D01*
Y4720D01*
X3150Y4653D01*
X3483D02*
X3550Y4720D01*
X3683D01*
X3750Y4653D01*
Y4387D01*
X3683Y4320D01*
X3550D01*
X3483Y4387D01*
Y4653D01*
X4097Y583D02*
X4030Y650D01*
X3897D01*
X3830Y583D01*
Y317D01*
X3897Y250D01*
X4030D01*
X4097Y317D01*
X4230Y583D02*
X4297Y650D01*
X4430D01*
X4496Y583D01*
Y517D01*
X4430Y450D01*
X4496Y383D01*
Y317D01*
X4430Y250D01*
X4297D01*
X4230Y317D01*
Y383D01*
X4297Y450D01*
X4230Y517D01*
Y583D01*
X4297Y450D02*
X4430D01*
X5007Y7536D02*
X4940Y7603D01*
X4807D01*
X4740Y7536D01*
Y7270D01*
X4807Y7203D01*
X4940D01*
X5007Y7270D01*
X5406Y7603D02*
X5273Y7536D01*
X5140Y7403D01*
Y7270D01*
X5207Y7203D01*
X5340D01*
X5406Y7270D01*
Y7336D01*
X5340Y7403D01*
X5140D01*
X4390Y10147D02*
X4523D01*
X4457D01*
Y9747D01*
X4390D01*
X4523D01*
X4990Y10080D02*
X4923Y10147D01*
X4790D01*
X4723Y10080D01*
Y9813D01*
X4790Y9747D01*
X4923D01*
X4990Y9813D01*
X5390Y10147D02*
X5256Y10080D01*
X5123Y9947D01*
Y9813D01*
X5190Y9747D01*
X5323D01*
X5390Y9813D01*
Y9880D01*
X5323Y9947D01*
X5123D01*
X5007Y11273D02*
X4940Y11340D01*
X4807D01*
X4740Y11273D01*
Y11007D01*
X4807Y10940D01*
X4940D01*
X5007Y11007D01*
X5406Y11340D02*
X5140D01*
Y11140D01*
X5273Y11207D01*
X5340D01*
X5406Y11140D01*
Y11007D01*
X5340Y10940D01*
X5207D01*
X5140Y11007D01*
X4390Y13900D02*
X4523D01*
X4457D01*
Y13500D01*
X4390D01*
X4523D01*
X4990Y13833D02*
X4923Y13900D01*
X4790D01*
X4723Y13833D01*
Y13567D01*
X4790Y13500D01*
X4923D01*
X4990Y13567D01*
X5390Y13900D02*
X5123D01*
Y13700D01*
X5256Y13767D01*
X5323D01*
X5390Y13700D01*
Y13567D01*
X5323Y13500D01*
X5190D01*
X5123Y13567D01*
X1367Y10653D02*
X1300Y10720D01*
X1167D01*
X1100Y10653D01*
Y10387D01*
X1167Y10320D01*
X1300D01*
X1367Y10387D01*
X1766Y10320D02*
X1500D01*
X1766Y10587D01*
Y10653D01*
X1700Y10720D01*
X1567D01*
X1500Y10653D01*
X2287Y13843D02*
X2220Y13910D01*
X2087D01*
X2020Y13843D01*
Y13577D01*
X2087Y13510D01*
X2220D01*
X2287Y13577D01*
X2420Y13510D02*
X2553D01*
X2487D01*
Y13910D01*
X2420Y13843D01*
X2750Y7790D02*
Y7390D01*
X3017D01*
X3416Y7790D02*
X3150D01*
Y7390D01*
X3416D01*
X3150Y7590D02*
X3283D01*
X3550Y7790D02*
Y7390D01*
X3750D01*
X3816Y7457D01*
Y7723D01*
X3750Y7790D01*
X3550D01*
X2980Y5770D02*
Y6170D01*
X3180D01*
X3247Y6103D01*
Y5970D01*
X3180Y5903D01*
X2980D01*
X3113D02*
X3247Y5770D01*
X3380D02*
X3513D01*
X3447D01*
Y6170D01*
X3380Y6103D01*
X4390Y6393D02*
X4523D01*
X4457D01*
Y5993D01*
X4390D01*
X4523D01*
X4990Y6327D02*
X4923Y6393D01*
X4790D01*
X4723Y6327D01*
Y6060D01*
X4790Y5993D01*
X4923D01*
X4990Y6060D01*
X5123Y6393D02*
X5390D01*
Y6327D01*
X5123Y6060D01*
Y5993D01*
X4390Y2640D02*
X4523D01*
X4457D01*
Y2240D01*
X4390D01*
X4523D01*
X4990Y2573D02*
X4923Y2640D01*
X4790D01*
X4723Y2573D01*
Y2307D01*
X4790Y2240D01*
X4923D01*
X4990Y2307D01*
X5123Y2573D02*
X5190Y2640D01*
X5323D01*
X5390Y2573D01*
Y2507D01*
X5323Y2440D01*
X5390Y2373D01*
Y2307D01*
X5323Y2240D01*
X5190D01*
X5123Y2307D01*
Y2373D01*
X5190Y2440D01*
X5123Y2507D01*
Y2573D01*
X5190Y2440D02*
X5323D01*
X1367Y3133D02*
X1300Y3200D01*
X1167D01*
X1100Y3133D01*
Y2867D01*
X1167Y2800D01*
X1300D01*
X1367Y2867D01*
X1700Y2800D02*
Y3200D01*
X1500Y3000D01*
X1766D01*
X1040Y650D02*
X1173D01*
X1107D01*
Y250D01*
X1040D01*
X1173D01*
X1640Y583D02*
X1573Y650D01*
X1440D01*
X1373Y583D01*
Y317D01*
X1440Y250D01*
X1573D01*
X1640Y317D01*
X1973Y250D02*
Y650D01*
X1773Y450D01*
X2040D01*
X1040Y4403D02*
X1173D01*
X1107D01*
Y4003D01*
X1040D01*
X1173D01*
X1640Y4337D02*
X1573Y4403D01*
X1440D01*
X1373Y4337D01*
Y4070D01*
X1440Y4003D01*
X1573D01*
X1640Y4070D01*
X1773Y4337D02*
X1840Y4403D01*
X1973D01*
X2040Y4337D01*
Y4270D01*
X1973Y4203D01*
X1906D01*
X1973D01*
X2040Y4137D01*
Y4070D01*
X1973Y4003D01*
X1840D01*
X1773Y4070D01*
X1040Y8157D02*
X1173D01*
X1107D01*
Y7757D01*
X1040D01*
X1173D01*
X1640Y8090D02*
X1573Y8157D01*
X1440D01*
X1373Y8090D01*
Y7823D01*
X1440Y7757D01*
X1573D01*
X1640Y7823D01*
X2040Y7757D02*
X1773D01*
X2040Y8023D01*
Y8090D01*
X1973Y8157D01*
X1840D01*
X1773Y8090D01*
X1107Y11910D02*
X1240D01*
X1173D01*
Y11510D01*
X1107D01*
X1240D01*
X1706Y11843D02*
X1640Y11910D01*
X1507D01*
X1440Y11843D01*
Y11577D01*
X1507Y11510D01*
X1640D01*
X1706Y11577D01*
X1840Y11510D02*
X1973D01*
X1906D01*
Y11910D01*
X1840Y11843D01*
X1367Y6893D02*
X1300Y6960D01*
X1167D01*
X1100Y6893D01*
Y6627D01*
X1167Y6560D01*
X1300D01*
X1367Y6627D01*
X1500Y6893D02*
X1567Y6960D01*
X1700D01*
X1766Y6893D01*
Y6827D01*
X1700Y6760D01*
X1633D01*
X1700D01*
X1766Y6693D01*
Y6627D01*
X1700Y6560D01*
X1567D01*
X1500Y6627D01*
X5007Y3791D02*
X4940Y3858D01*
X4807D01*
X4740Y3791D01*
Y3525D01*
X4807Y3458D01*
X4940D01*
X5007Y3525D01*
X5140Y3858D02*
X5406D01*
Y3791D01*
X5140Y3525D01*
Y3458D01*
M02*
