G04 Layer_Color=32896*
%FSLAX24Y24*%
%MOIN*%
G70*
G01*
G75*
%ADD10C,0.0100*%
%ADD15C,0.0040*%
%ADD23C,0.0060*%
D10*
X4120Y4510D02*
G03*
X4120Y4510I-100J0D01*
G01*
X2620Y9640D02*
G03*
X2620Y9640I-100J0D01*
G01*
D15*
X5355Y3872D02*
X6105D01*
X5355Y2072D02*
Y3872D01*
Y2072D02*
X6105D01*
Y3872D01*
X5355Y12078D02*
X6105D01*
X5355Y10278D02*
Y12078D01*
Y10278D02*
X6105D01*
Y12078D01*
X288Y13845D02*
G03*
X0Y13150I695J-695D01*
G01*
X1012Y14150D02*
G03*
X296Y13854I0J-1012D01*
G01*
X6262Y13845D02*
G03*
X5527Y14150I-735J-735D01*
G01*
X6550Y13150D02*
G03*
X6262Y13845I-984J0D01*
G01*
X6254Y296D02*
G03*
X6550Y1012I-715J715D01*
G01*
X5538Y0D02*
G03*
X6254Y296I0J1012D01*
G01*
X301Y285D02*
G03*
X990Y0I689J689D01*
G01*
X0Y1001D02*
G03*
X293Y293I1001J0D01*
G01*
X0Y2060D02*
Y13150D01*
X288Y13845D02*
X296Y13854D01*
X1012Y14150D02*
X5527D01*
X6550Y1012D02*
Y13150D01*
X990Y0D02*
X5538D01*
X293Y293D02*
X301Y285D01*
X0Y1001D02*
Y2060D01*
D23*
X2480Y4340D02*
Y4550D01*
Y2970D02*
X2690D01*
X4060D02*
Y3180D01*
X3850Y2970D02*
X4060D01*
X2480D02*
Y3180D01*
Y4550D02*
X2690D01*
X4060Y9600D02*
Y9810D01*
X3850Y11180D02*
X4060D01*
X2480Y10970D02*
Y11180D01*
X2690D01*
X4060Y10970D02*
Y11180D01*
X3850Y9600D02*
X4060D01*
X5790Y4440D02*
X5923D01*
X5857D01*
Y4107D01*
X5923Y4040D01*
X5990D01*
X6057Y4107D01*
X5390Y4040D02*
X5657D01*
X5390Y4307D01*
Y4373D01*
X5457Y4440D01*
X5590D01*
X5657Y4373D01*
X5723Y12640D02*
X5857D01*
X5790D01*
Y12307D01*
X5857Y12240D01*
X5923D01*
X5990Y12307D01*
X5590Y12240D02*
X5457D01*
X5523D01*
Y12640D01*
X5590Y12573D01*
X3520Y11850D02*
Y11517D01*
X3453Y11450D01*
X3320D01*
X3253Y11517D01*
Y11850D01*
X3120Y11450D02*
X2987D01*
X3053D01*
Y11850D01*
X3120Y11783D01*
X3590Y5230D02*
Y4897D01*
X3523Y4830D01*
X3390D01*
X3323Y4897D01*
Y5230D01*
X2924Y4830D02*
X3190D01*
X2924Y5097D01*
Y5163D01*
X2990Y5230D01*
X3123D01*
X3190Y5163D01*
M02*
