M48
;Layer_Color=9474304
;FILE_FORMAT=2:4
INCH,LZ
;TYPE=PLATED
T1F00S00C0.0140
;TYPE=NON_PLATED
T2F00S00C0.0590
%
T01
X00119Y00282
X00095Y00371
X00059Y003479
X00261Y00301
X00327Y00245
X00351Y0007
X00386Y00068
X00518Y00304
X00536Y00383
X004009Y00512
X00363Y004924
X00248Y00449
X00585Y00408
X00568Y00045
X00557Y00745
X00471Y00687
X00355Y0075
X00288Y00841
X0029Y00875
X00269Y00921
X00118Y01036
X00068Y01138
X000853Y013697
X00312Y0116
X00346
X0037Y01206
X00435Y01178
X005346Y011286
X00481Y0106
X00504Y00981
X00552Y01369
X000684Y007754
X00117Y00657
T02
X00327Y00157
X00328Y01257
M30
