G04 Layer_Physical_Order=2*
G04 Layer_Color=16711680*
%FSLAX24Y24*%
%MOIN*%
G70*
G01*
G75*
%ADD10C,0.0100*%
%ADD15C,0.0040*%
%ADD16C,0.0590*%
%ADD17C,0.0260*%
%ADD18R,0.0500X0.0500*%
%ADD19R,0.0120X0.0340*%
%ADD20R,0.0340X0.0120*%
%ADD21R,0.0150X0.0600*%
G36*
X5546Y13987D02*
X5628Y13983D01*
X5793Y13950D01*
X5944Y13887D01*
X6080Y13796D01*
X6196Y13680D01*
X6287Y13544D01*
X6350Y13393D01*
X6383Y13228D01*
X6387Y13146D01*
Y1004D01*
X6383Y922D01*
X6350Y757D01*
X6287Y606D01*
X6196Y470D01*
X6080Y354D01*
X5944Y263D01*
X5793Y200D01*
X5628Y167D01*
X5546Y163D01*
X994Y163D01*
X913Y167D01*
X750Y199D01*
X601Y261D01*
X466Y351D01*
X351Y466D01*
X261Y601D01*
X200Y750D01*
X167Y913D01*
X163Y994D01*
Y13146D01*
X167Y13228D01*
X200Y13393D01*
X263Y13544D01*
X354Y13680D01*
X470Y13796D01*
X606Y13887D01*
X757Y13950D01*
X922Y13983D01*
X1004Y13987D01*
X5546Y13987D01*
D02*
G37*
%LPC*%
G36*
X680Y11594D02*
X598Y11578D01*
X529Y11531D01*
X482Y11462D01*
X466Y11380D01*
X482Y11298D01*
X529Y11229D01*
X598Y11182D01*
X680Y11166D01*
X762Y11182D01*
X831Y11229D01*
X844Y11247D01*
X1875D01*
X2280Y10843D01*
Y10713D01*
X2111D01*
X2060Y10702D01*
X2017Y10674D01*
X1776Y10433D01*
X1748Y10390D01*
X1737Y10339D01*
Y8995D01*
X707Y7964D01*
X684Y7968D01*
X602Y7952D01*
X533Y7906D01*
X486Y7836D01*
X470Y7754D01*
X486Y7672D01*
X533Y7603D01*
X599Y7559D01*
X606Y7549D01*
X619Y7508D01*
X496Y7386D01*
X468Y7343D01*
X457Y7292D01*
Y3643D01*
X439Y3631D01*
X392Y3561D01*
X376Y3479D01*
X392Y3397D01*
X439Y3328D01*
X508Y3281D01*
X590Y3265D01*
X672Y3281D01*
X741Y3328D01*
X788Y3397D01*
X804Y3479D01*
X801Y3497D01*
X846Y3527D01*
X868Y3512D01*
X950Y3496D01*
X1032Y3512D01*
X1101Y3559D01*
X1148Y3628D01*
X1164Y3710D01*
X1148Y3792D01*
X1101Y3861D01*
X1053Y3894D01*
Y6452D01*
X1043Y6503D01*
Y7303D01*
X2324Y8584D01*
X2352Y8627D01*
X2363Y8678D01*
Y8844D01*
X2409Y8863D01*
X2615Y8656D01*
X2658Y8628D01*
X2709Y8617D01*
X2730Y8570D01*
X2729Y8561D01*
X2682Y8492D01*
X2666Y8410D01*
X2682Y8328D01*
X2729Y8259D01*
X2798Y8212D01*
X2880Y8196D01*
X2962Y8212D01*
X3031Y8259D01*
X3044Y8277D01*
X3083D01*
X3133Y8288D01*
X3176Y8316D01*
X4404Y9544D01*
X4432Y9587D01*
X4443Y9637D01*
Y10380D01*
X4432Y10431D01*
X4404Y10474D01*
X4361Y10502D01*
X4310Y10513D01*
X4260D01*
Y10530D01*
X3760D01*
Y10250D01*
Y9900D01*
X2780D01*
Y10450D01*
Y10880D01*
X3210D01*
Y11380D01*
X2740D01*
Y10920D01*
X2577D01*
X2024Y11474D01*
X1981Y11502D01*
X1930Y11513D01*
X844D01*
X831Y11531D01*
X762Y11578D01*
X680Y11594D01*
D02*
G37*
G36*
X3210Y3270D02*
X2740D01*
Y3234D01*
X2699Y3207D01*
X2690Y3208D01*
X2610Y3224D01*
X2528Y3208D01*
X2459Y3161D01*
X2412Y3092D01*
X2396Y3010D01*
X2412Y2928D01*
X2459Y2859D01*
X2528Y2812D01*
X2557Y2806D01*
Y2796D01*
X2568Y2745D01*
X2596Y2702D01*
X2672Y2626D01*
X2715Y2598D01*
X2766Y2587D01*
X2994D01*
X3045Y2598D01*
X3088Y2626D01*
X3164Y2702D01*
X3192Y2745D01*
X3197Y2770D01*
X3210D01*
Y3270D01*
D02*
G37*
G36*
X3700Y12274D02*
X3618Y12258D01*
X3549Y12211D01*
X3502Y12142D01*
X3486Y12060D01*
X3502Y11978D01*
X3549Y11909D01*
X3618Y11862D01*
X3700Y11846D01*
X3734Y11853D01*
X3972Y11614D01*
X3996Y11579D01*
X4149Y11426D01*
X4192Y11398D01*
X4193Y11397D01*
X4744Y10846D01*
X4732Y10806D01*
X4724Y10795D01*
X4659Y10751D01*
X4612Y10682D01*
X4596Y10600D01*
X4612Y10518D01*
X4659Y10449D01*
X4728Y10402D01*
X4810Y10386D01*
X4892Y10402D01*
X4915Y10417D01*
X5167Y10165D01*
Y10030D01*
X5130Y10011D01*
X5117Y10009D01*
X5040Y10024D01*
X4958Y10008D01*
X4889Y9961D01*
X4842Y9892D01*
X4826Y9810D01*
X4842Y9728D01*
X4889Y9659D01*
X4958Y9612D01*
X4987Y9606D01*
Y6961D01*
X4956Y6935D01*
X4908Y6951D01*
X4908Y6952D01*
X4861Y7021D01*
X4792Y7068D01*
X4710Y7084D01*
X4628Y7068D01*
X4559Y7021D01*
X4512Y6952D01*
X4508Y6933D01*
X3160D01*
X3109Y6922D01*
X3066Y6894D01*
X1356Y5184D01*
X1328Y5141D01*
X1317Y5090D01*
Y2758D01*
X1308Y2743D01*
X1297Y2692D01*
Y2420D01*
X1308Y2370D01*
X1336Y2327D01*
X2792Y871D01*
X2835Y843D01*
X2885Y832D01*
X3293D01*
X3316Y788D01*
X3312Y782D01*
X3296Y700D01*
X3312Y618D01*
X3359Y549D01*
X3428Y502D01*
X3510Y486D01*
X3592Y502D01*
X3643Y536D01*
X3706Y532D01*
X3709Y529D01*
X3778Y482D01*
X3860Y466D01*
X3942Y482D01*
X4011Y529D01*
X4058Y598D01*
X4074Y680D01*
X4058Y762D01*
X4040Y788D01*
X4374Y1122D01*
X4379Y1123D01*
X4422Y1152D01*
X5423Y2153D01*
X5450Y2142D01*
Y2142D01*
X6010D01*
Y2902D01*
X5937D01*
X5932Y2927D01*
X5904Y2970D01*
X5877Y2996D01*
X5897Y3042D01*
X6010D01*
Y3802D01*
X5988D01*
Y3919D01*
X6001Y3929D01*
X6048Y3998D01*
X6064Y4080D01*
X6048Y4162D01*
X6001Y4231D01*
X5932Y4278D01*
X5850Y4294D01*
X5768Y4278D01*
X5699Y4231D01*
X5652Y4162D01*
X5636Y4080D01*
X5652Y3998D01*
X5699Y3929D01*
X5722Y3913D01*
Y3802D01*
X5700D01*
Y3085D01*
X5476D01*
X5425Y3074D01*
X5384Y3092D01*
X5378Y3122D01*
X5331Y3191D01*
X5313Y3204D01*
Y3324D01*
X5302Y3374D01*
X5274Y3417D01*
X4637Y4054D01*
X4594Y4082D01*
X4544Y4093D01*
X4260D01*
Y4290D01*
X4143D01*
Y4564D01*
X4132Y4615D01*
X4104Y4658D01*
X3874Y4888D01*
X3876Y4896D01*
X3927Y4922D01*
X4009Y4906D01*
X4091Y4922D01*
X4160Y4969D01*
X4206Y5038D01*
X4223Y5120D01*
X4206Y5202D01*
X4160Y5271D01*
X4091Y5318D01*
X4009Y5334D01*
X3927Y5318D01*
X3924Y5316D01*
X3340D01*
X3289Y5306D01*
X3246Y5277D01*
X2786Y4818D01*
X2758Y4775D01*
X2753Y4750D01*
X2740D01*
Y4563D01*
X2735Y4515D01*
X2735Y4515D01*
Y4515D01*
X2690Y4511D01*
X2689Y4517D01*
X2678Y4572D01*
X2631Y4641D01*
X2562Y4688D01*
X2480Y4704D01*
X2398Y4688D01*
X2329Y4641D01*
X2282Y4572D01*
X2267Y4494D01*
X2136Y4364D01*
X2108Y4321D01*
X2097Y4270D01*
Y3846D01*
X2108Y3795D01*
X2136Y3752D01*
X2212Y3676D01*
X2255Y3648D01*
X2280Y3643D01*
Y3620D01*
X2780D01*
Y3820D01*
Y4250D01*
X3760D01*
Y4010D01*
Y3620D01*
Y3270D01*
X3330D01*
Y2770D01*
X3800D01*
Y3230D01*
X4260D01*
Y3237D01*
X4315D01*
X4387Y3165D01*
Y2528D01*
X4002Y2143D01*
X2415D01*
X1943Y2615D01*
Y4886D01*
X3354Y6297D01*
X4905D01*
X4955Y6308D01*
X4998Y6336D01*
X5394Y6732D01*
X5422Y6775D01*
X5433Y6825D01*
Y10135D01*
X5471Y10166D01*
X5476Y10165D01*
X5810D01*
X5861Y10176D01*
X5904Y10204D01*
X5932Y10247D01*
X5943Y10298D01*
Y10348D01*
X6010D01*
Y11108D01*
X5450D01*
Y10963D01*
X5404Y10944D01*
X4563Y11784D01*
X4548Y11862D01*
X4501Y11931D01*
X4432Y11978D01*
X4350Y11994D01*
X4268Y11978D01*
X4199Y11931D01*
X4159Y11873D01*
X4104Y11857D01*
X3912Y12050D01*
X3914Y12060D01*
X3898Y12142D01*
X3851Y12211D01*
X3782Y12258D01*
X3700Y12274D01*
D02*
G37*
G36*
X3280Y12948D02*
X3182Y12935D01*
X3091Y12898D01*
X3013Y12837D01*
X2952Y12759D01*
X2915Y12668D01*
X2902Y12570D01*
X2915Y12472D01*
X2952Y12381D01*
X3013Y12303D01*
X3091Y12242D01*
X3182Y12205D01*
X3280Y12192D01*
X3378Y12205D01*
X3469Y12242D01*
X3547Y12303D01*
X3608Y12381D01*
X3645Y12472D01*
X3658Y12570D01*
X3645Y12668D01*
X3608Y12759D01*
X3547Y12837D01*
X3469Y12898D01*
X3378Y12935D01*
X3280Y12948D01*
D02*
G37*
G36*
X5520Y13904D02*
X5438Y13888D01*
X5369Y13841D01*
X5322Y13772D01*
X5306Y13690D01*
X5322Y13608D01*
X5369Y13539D01*
X5438Y13492D01*
X5520Y13476D01*
X5542Y13480D01*
X5722Y13300D01*
Y12008D01*
X5700D01*
Y11248D01*
X6010D01*
Y12008D01*
X5988D01*
Y13355D01*
X5977Y13406D01*
X5949Y13449D01*
X5730Y13668D01*
X5734Y13690D01*
X5718Y13772D01*
X5671Y13841D01*
X5602Y13888D01*
X5520Y13904D01*
D02*
G37*
G36*
X3460Y11814D02*
X3378Y11798D01*
X3309Y11751D01*
X3262Y11682D01*
X3246Y11600D01*
X3262Y11518D01*
X3309Y11449D01*
X3337Y11429D01*
Y11380D01*
X3330D01*
Y10880D01*
X3760D01*
Y10640D01*
X4260D01*
Y10920D01*
X3800D01*
Y11380D01*
X3603D01*
Y11443D01*
X3611Y11449D01*
X3658Y11518D01*
X3674Y11600D01*
X3658Y11682D01*
X3611Y11751D01*
X3542Y11798D01*
X3460Y11814D01*
D02*
G37*
%LPD*%
D10*
X5520Y13690D02*
X5855Y13355D01*
Y11628D02*
Y13355D01*
X4242Y11520D02*
X4258D01*
X5037Y10741D02*
Y10741D01*
X4258Y11520D02*
X5037Y10741D01*
X5100Y10675D02*
X5190Y10584D01*
X5100Y10675D02*
Y10675D01*
X5070Y10704D02*
X5100Y10675D01*
X5070Y10704D02*
Y10708D01*
X5037Y10741D02*
X5070Y10708D01*
X5190Y10584D02*
X5190D01*
X4920Y10600D02*
X5300Y10220D01*
X4810Y10600D02*
X4920D01*
X1450Y5090D02*
X3160Y6800D01*
X1450Y2712D02*
Y5090D01*
X1630Y5015D02*
X3225Y6610D01*
X1630Y2638D02*
Y5015D01*
X1810Y4941D02*
X3299Y6430D01*
X1810Y2563D02*
Y4941D01*
X3160Y6800D02*
X4640D01*
X4710Y6870D01*
X5040Y9810D02*
X5120Y9730D01*
X5300Y6825D02*
Y10220D01*
X5120Y6900D02*
Y9730D01*
X4970Y6750D02*
X5120Y6900D01*
X4958Y6750D02*
X4970D01*
X4905Y6430D02*
X5300Y6825D01*
X4499Y3750D02*
X4880Y3369D01*
Y2324D02*
Y3369D01*
X3521Y965D02*
X4880Y2324D01*
X4642Y3352D02*
Y3352D01*
Y3352D02*
X4700Y3295D01*
X4642Y3352D02*
X4642D01*
X4435Y3560D02*
X4642Y3352D01*
X3446Y1145D02*
X4700Y2399D01*
Y3295D01*
X4370Y3370D02*
X4520Y3220D01*
Y2474D02*
Y3220D01*
X4056Y2010D02*
X4520Y2474D01*
X4544Y3960D02*
X5180Y3324D01*
Y3040D02*
Y3324D01*
X2360Y2010D02*
X4056D01*
X5400Y2590D02*
Y2876D01*
X3595Y785D02*
X5400Y2590D01*
X4350Y11810D02*
X5432Y10728D01*
X4328Y1245D02*
X5605Y2522D01*
X4310Y1245D02*
X4328D01*
X4310Y9637D02*
Y10380D01*
X3083Y8410D02*
X4310Y9637D01*
X2880Y8410D02*
X3083D01*
X590Y7292D02*
X2050Y8752D01*
X590Y3479D02*
Y7292D01*
X2050Y8752D02*
Y10265D01*
X840Y3710D02*
X920Y3790D01*
X2230Y8678D02*
Y10190D01*
X910Y7358D02*
X2230Y8678D01*
X910Y6462D02*
Y7358D01*
Y6462D02*
X920Y6452D01*
Y3790D02*
Y6452D01*
X1808Y2562D02*
X2360Y2010D01*
X1808Y2562D02*
X1808D01*
X1808D02*
X1810Y2563D01*
X1610Y2618D02*
X1630Y2638D01*
X1610Y2505D02*
Y2618D01*
X1430Y2692D02*
X1450Y2712D01*
X1430Y2420D02*
Y2692D01*
X840Y3710D02*
X950D01*
X3070Y2796D02*
Y3020D01*
X2994Y2720D02*
X3070Y2796D01*
X2766Y2720D02*
X2994D01*
X2690Y2796D02*
X2766Y2720D01*
X3299Y6430D02*
X4905D01*
X4818Y6610D02*
X4958Y6750D01*
X3225Y6610D02*
X4818D01*
X2610Y3010D02*
X2620D01*
X2690Y2940D01*
Y2796D02*
Y2940D01*
X2885Y965D02*
X3521D01*
X1430Y2420D02*
X2885Y965D01*
X2960Y1145D02*
X3446D01*
X2960D02*
Y1164D01*
X2294Y1830D02*
X2960Y1164D01*
X2285Y1830D02*
X2294D01*
X1610Y2505D02*
X2285Y1830D01*
X3860Y795D02*
X4310Y1245D01*
X3860Y680D02*
Y795D01*
X3521Y785D02*
X3595D01*
X3510Y774D02*
X3521Y785D01*
X3510Y700D02*
Y774D01*
X2880Y4500D02*
Y4724D01*
X3340Y5184D01*
X3945D01*
X4009Y5120D01*
X4010Y4150D02*
Y4564D01*
X3650Y4924D02*
X4010Y4564D01*
X3630Y4924D02*
X3650D01*
X5190Y10584D02*
X5476Y10298D01*
X3660Y9426D02*
Y9650D01*
X3444Y9210D02*
X3660Y9426D01*
X2690Y9210D02*
X3444D01*
X2410Y9049D02*
Y9880D01*
X1870Y8940D02*
Y10339D01*
X684Y7754D02*
X1870Y8940D01*
X2410Y9049D02*
X2709Y8750D01*
X2900D01*
X2050Y10265D02*
X2165Y10380D01*
X1870Y10339D02*
X2111Y10580D01*
X2410Y9880D02*
X2530Y10000D01*
X4010Y10380D02*
Y10390D01*
Y10380D02*
X4310D01*
X2450Y4490D02*
X2480D01*
X2230Y4270D02*
X2450Y4490D01*
X2230Y3846D02*
Y4270D01*
Y3846D02*
X2306Y3770D01*
X2520D01*
X2530Y3760D01*
X3460Y11600D02*
X3470Y11590D01*
Y11130D02*
Y11590D01*
X3700Y12060D02*
X3714D01*
X4090Y11684D01*
Y11672D02*
Y11684D01*
Y11672D02*
X4242Y11520D01*
X5476Y10298D02*
X5810D01*
Y10683D01*
X5855Y10728D01*
X5432D02*
X5605D01*
X4350Y11780D02*
Y11810D01*
X5400Y2876D02*
X5476Y2952D01*
X5734D01*
X5810Y2522D02*
X5855D01*
X5810D02*
Y2876D01*
X5734Y2952D02*
X5810Y2876D01*
X5850Y4080D02*
X5855Y4075D01*
Y3422D02*
Y4075D01*
X4010Y3960D02*
X4544D01*
X4010Y3760D02*
X4020Y3750D01*
X4499D01*
X4010Y3560D02*
X4435D01*
X4010Y3370D02*
X4370D01*
X2230Y10190D02*
X2530D01*
X1930Y11380D02*
X2530Y10780D01*
X680Y11380D02*
X1930D01*
X2530Y10580D02*
Y10590D01*
X2111Y10580D02*
X2530D01*
Y10380D02*
Y10390D01*
X2165Y10380D02*
X2530D01*
D15*
X288Y13845D02*
G03*
X0Y13150I695J-695D01*
G01*
X1012Y14150D02*
G03*
X296Y13854I0J-1012D01*
G01*
X6262Y13845D02*
G03*
X5527Y14150I-735J-735D01*
G01*
X6550Y13150D02*
G03*
X6262Y13845I-984J0D01*
G01*
X6254Y296D02*
G03*
X6550Y1012I-715J715D01*
G01*
X5538Y0D02*
G03*
X6254Y296I0J1012D01*
G01*
X301Y285D02*
G03*
X990Y0I689J689D01*
G01*
X0Y1001D02*
G03*
X293Y293I1001J0D01*
G01*
X0Y2060D02*
Y13150D01*
X288Y13845D02*
X296Y13854D01*
X1012Y14150D02*
X5527D01*
X6550Y1012D02*
Y13150D01*
X990Y0D02*
X5538D01*
X293Y293D02*
X301Y285D01*
X0Y1001D02*
Y2060D01*
D16*
X3270Y1570D02*
D03*
X3280Y12570D02*
D03*
D17*
X4810Y10600D02*
D03*
X5040Y9810D02*
D03*
X5570Y7450D02*
D03*
X1190Y2820D02*
D03*
X950Y3710D02*
D03*
X590Y3479D02*
D03*
X5680Y450D02*
D03*
X3270Y2450D02*
D03*
X2610Y3010D02*
D03*
X3860Y680D02*
D03*
X3510Y700D02*
D03*
X4009Y5120D02*
D03*
X3630Y4924D02*
D03*
X3550Y7500D02*
D03*
X2690Y9210D02*
D03*
X2900Y8750D02*
D03*
X2880Y8410D02*
D03*
X2480Y4490D02*
D03*
X3120Y11600D02*
D03*
X3460D02*
D03*
X3700Y12060D02*
D03*
X5346Y11286D02*
D03*
X4350Y11780D02*
D03*
X5180Y3040D02*
D03*
X5850Y4080D02*
D03*
X5520Y13690D02*
D03*
X853Y13697D02*
D03*
X1180Y10360D02*
D03*
X1170Y6570D02*
D03*
X5360Y3830D02*
D03*
X4710Y6870D02*
D03*
X680Y11380D02*
D03*
X684Y7754D02*
D03*
D18*
X3270Y3760D02*
D03*
Y10390D02*
D03*
D19*
X3660Y4500D02*
D03*
X3470D02*
D03*
X3270D02*
D03*
X3070D02*
D03*
X2880D02*
D03*
Y3020D02*
D03*
X3070D02*
D03*
X3270D02*
D03*
X3470D02*
D03*
X3660D02*
D03*
X2880Y9650D02*
D03*
X3070D02*
D03*
X3270D02*
D03*
X3470D02*
D03*
X3660D02*
D03*
Y11130D02*
D03*
X3470D02*
D03*
X3270D02*
D03*
X3070D02*
D03*
X2880D02*
D03*
D20*
X2530Y4150D02*
D03*
Y3960D02*
D03*
Y3760D02*
D03*
Y3560D02*
D03*
Y3370D02*
D03*
X4010D02*
D03*
Y3560D02*
D03*
Y3760D02*
D03*
Y3960D02*
D03*
Y4150D02*
D03*
Y10000D02*
D03*
Y10190D02*
D03*
Y10390D02*
D03*
Y10590D02*
D03*
Y10780D02*
D03*
X2530D02*
D03*
Y10590D02*
D03*
Y10390D02*
D03*
Y10190D02*
D03*
Y10000D02*
D03*
D21*
X5605Y3422D02*
D03*
X5855D02*
D03*
Y2522D02*
D03*
X5605D02*
D03*
Y11628D02*
D03*
X5855D02*
D03*
Y10728D02*
D03*
X5605D02*
D03*
M02*
