G04 Layer_Color=16711935*
%FSLAX24Y24*%
%MOIN*%
G70*
G01*
G75*
%ADD15C,0.0040*%
D15*
X288Y13845D02*
G03*
X0Y13150I695J-695D01*
G01*
X1012Y14150D02*
G03*
X296Y13854I0J-1012D01*
G01*
X6262Y13845D02*
G03*
X5527Y14150I-735J-735D01*
G01*
X6550Y13150D02*
G03*
X6262Y13845I-984J0D01*
G01*
X6254Y296D02*
G03*
X6550Y1012I-715J715D01*
G01*
X5538Y0D02*
G03*
X6254Y296I0J1012D01*
G01*
X301Y285D02*
G03*
X990Y0I689J689D01*
G01*
X0Y1001D02*
G03*
X293Y293I1001J0D01*
G01*
X0Y2060D02*
Y13150D01*
X288Y13845D02*
X296Y13854D01*
X1012Y14150D02*
X5527D01*
X6550Y1012D02*
Y13150D01*
X990Y0D02*
X5538D01*
X293Y293D02*
X301Y285D01*
X0Y1001D02*
Y2060D01*
X288Y13845D02*
G03*
X0Y13150I695J-695D01*
G01*
X1012Y14150D02*
G03*
X296Y13854I0J-1012D01*
G01*
X6262Y13845D02*
G03*
X5527Y14150I-735J-735D01*
G01*
X6550Y13150D02*
G03*
X6262Y13845I-984J0D01*
G01*
X6254Y296D02*
G03*
X6550Y1012I-715J715D01*
G01*
X5538Y0D02*
G03*
X6254Y296I0J1012D01*
G01*
X301Y285D02*
G03*
X990Y0I689J689D01*
G01*
X0Y1001D02*
G03*
X293Y293I1001J0D01*
G01*
X0Y2060D02*
Y13150D01*
X288Y13845D02*
X296Y13854D01*
X1012Y14150D02*
X5527D01*
X6550Y1012D02*
Y13150D01*
X990Y0D02*
X5538D01*
X293Y293D02*
X301Y285D01*
X0Y1001D02*
Y2060D01*
M02*
