G04 Layer_Color=16711935*
%FSLAX24Y24*%
%MOIN*%
G70*
G01*
G75*
%ADD15C,0.0040*%
%ADD16C,0.0590*%
%ADD28C,0.0340*%
%ADD29R,0.0580X0.0580*%
%ADD30R,0.0200X0.0420*%
%ADD31R,0.0420X0.0200*%
%ADD32R,0.0230X0.0680*%
D15*
X288Y13845D02*
G03*
X0Y13150I695J-695D01*
G01*
X1012Y14150D02*
G03*
X296Y13854I0J-1012D01*
G01*
X6262Y13845D02*
G03*
X5527Y14150I-735J-735D01*
G01*
X6550Y13150D02*
G03*
X6262Y13845I-984J0D01*
G01*
X6254Y296D02*
G03*
X6550Y1012I-715J715D01*
G01*
X5538Y0D02*
G03*
X6254Y296I0J1012D01*
G01*
X301Y285D02*
G03*
X990Y0I689J689D01*
G01*
X0Y1001D02*
G03*
X293Y293I1001J0D01*
G01*
X0Y2060D02*
Y13150D01*
X288Y13845D02*
X296Y13854D01*
X1012Y14150D02*
X5527D01*
X6550Y1012D02*
Y13150D01*
X990Y0D02*
X5538D01*
X293Y293D02*
X301Y285D01*
X0Y1001D02*
Y2060D01*
D16*
X3270Y1570D02*
D03*
X3280Y12570D02*
D03*
D28*
X4810Y10600D02*
D03*
X5040Y9810D02*
D03*
X5570Y7450D02*
D03*
X1190Y2820D02*
D03*
X950Y3710D02*
D03*
X590Y3479D02*
D03*
X5680Y450D02*
D03*
X3270Y2450D02*
D03*
X2610Y3010D02*
D03*
X3860Y680D02*
D03*
X3510Y700D02*
D03*
X4009Y5120D02*
D03*
X3630Y4924D02*
D03*
X3550Y7500D02*
D03*
X2690Y9210D02*
D03*
X2900Y8750D02*
D03*
X2880Y8410D02*
D03*
X2480Y4490D02*
D03*
X3120Y11600D02*
D03*
X3460D02*
D03*
X3700Y12060D02*
D03*
X5346Y11286D02*
D03*
X4350Y11780D02*
D03*
X5180Y3040D02*
D03*
X5850Y4080D02*
D03*
X5520Y13690D02*
D03*
X853Y13697D02*
D03*
X1180Y10360D02*
D03*
X1170Y6570D02*
D03*
X5360Y3830D02*
D03*
X4710Y6870D02*
D03*
X680Y11380D02*
D03*
X684Y7754D02*
D03*
D29*
X3270Y3760D02*
D03*
Y10390D02*
D03*
D30*
X3660Y4500D02*
D03*
X3470D02*
D03*
X3270D02*
D03*
X3070D02*
D03*
X2880D02*
D03*
Y3020D02*
D03*
X3070D02*
D03*
X3270D02*
D03*
X3470D02*
D03*
X3660D02*
D03*
X2880Y9650D02*
D03*
X3070D02*
D03*
X3270D02*
D03*
X3470D02*
D03*
X3660D02*
D03*
Y11130D02*
D03*
X3470D02*
D03*
X3270D02*
D03*
X3070D02*
D03*
X2880D02*
D03*
D31*
X2530Y4150D02*
D03*
Y3960D02*
D03*
Y3760D02*
D03*
Y3560D02*
D03*
Y3370D02*
D03*
X4010D02*
D03*
Y3560D02*
D03*
Y3760D02*
D03*
Y3960D02*
D03*
Y4150D02*
D03*
Y10000D02*
D03*
Y10190D02*
D03*
Y10390D02*
D03*
Y10590D02*
D03*
Y10780D02*
D03*
X2530D02*
D03*
Y10590D02*
D03*
Y10390D02*
D03*
Y10190D02*
D03*
Y10000D02*
D03*
D32*
X5605Y3422D02*
D03*
X5855D02*
D03*
Y2522D02*
D03*
X5605D02*
D03*
Y11628D02*
D03*
X5855D02*
D03*
Y10728D02*
D03*
X5605D02*
D03*
M02*
