G04 Layer_Color=32896*
%FSAX25Y25*%
%MOIN*%
G70*
G01*
G75*
%ADD15C,0.00591*%
%ADD47C,0.00900*%
D15*
X0100000Y0100000D02*
Y0287402D01*
X0131496D01*
Y0100000D02*
Y0287402D01*
X0100000Y0100000D02*
X0131496D01*
D47*
X0180066Y0276690D02*
X0177400D01*
Y0274690D01*
X0178733D01*
X0177400D01*
Y0272691D01*
X0182065Y0275357D02*
X0183398D01*
X0184064Y0274690D01*
Y0272691D01*
X0182065D01*
X0181399Y0273357D01*
X0182065Y0274024D01*
X0184064D01*
X0185397Y0276690D02*
Y0272691D01*
X0187397D01*
X0188063Y0273357D01*
Y0274024D01*
Y0274690D01*
X0187397Y0275357D01*
X0185397D01*
X0189396D02*
Y0272691D01*
Y0274024D01*
X0190063Y0274690D01*
X0190729Y0275357D01*
X0191395D01*
X0193395Y0272691D02*
X0194728D01*
X0194061D01*
Y0275357D01*
X0193395D01*
X0199393D02*
X0197394D01*
X0196727Y0274690D01*
Y0273357D01*
X0197394Y0272691D01*
X0199393D01*
X0201392Y0275357D02*
X0202725D01*
X0203392Y0274690D01*
Y0272691D01*
X0201392D01*
X0200726Y0273357D01*
X0201392Y0274024D01*
X0203392D01*
X0205391Y0276023D02*
Y0275357D01*
X0204725D01*
X0206057D01*
X0205391D01*
Y0273357D01*
X0206057Y0272691D01*
X0208057D02*
X0209390D01*
X0208723D01*
Y0275357D01*
X0208057D01*
X0212055Y0272691D02*
X0213388D01*
X0214055Y0273357D01*
Y0274690D01*
X0213388Y0275357D01*
X0212055D01*
X0211389Y0274690D01*
Y0273357D01*
X0212055Y0272691D01*
X0215388D02*
Y0275357D01*
X0217387D01*
X0218054Y0274690D01*
Y0272691D01*
X0223385D02*
Y0276690D01*
X0226051Y0272691D01*
Y0276690D01*
X0228050Y0272691D02*
X0229383D01*
X0230050Y0273357D01*
Y0274690D01*
X0229383Y0275357D01*
X0228050D01*
X0227384Y0274690D01*
Y0273357D01*
X0228050Y0272691D01*
X0232049Y0276023D02*
Y0275357D01*
X0231383D01*
X0232716D01*
X0232049D01*
Y0273357D01*
X0232716Y0272691D01*
X0236714D02*
X0235381D01*
X0234715Y0273357D01*
Y0274690D01*
X0235381Y0275357D01*
X0236714D01*
X0237381Y0274690D01*
Y0274024D01*
X0234715D01*
X0238714Y0272691D02*
X0240713D01*
X0241379Y0273357D01*
X0240713Y0274024D01*
X0239380D01*
X0238714Y0274690D01*
X0239380Y0275357D01*
X0241379D01*
X0242712D02*
X0243379D01*
Y0274690D01*
X0242712D01*
Y0275357D01*
Y0273357D02*
X0243379D01*
Y0272691D01*
X0242712D01*
Y0273357D01*
X0177400Y0265066D02*
X0178733D01*
X0178067D01*
Y0269065D01*
X0177400Y0268398D01*
X0180732Y0265066D02*
Y0265733D01*
X0181399D01*
Y0265066D01*
X0180732D01*
X0188063Y0269065D02*
Y0265066D01*
X0190063D01*
X0190729Y0265733D01*
Y0266399D01*
X0190063Y0267065D01*
X0188063D01*
X0190063D01*
X0190729Y0267732D01*
Y0268398D01*
X0190063Y0269065D01*
X0188063D01*
X0192728Y0265066D02*
X0194061D01*
X0194728Y0265733D01*
Y0267065D01*
X0194061Y0267732D01*
X0192728D01*
X0192062Y0267065D01*
Y0265733D01*
X0192728Y0265066D01*
X0196727Y0267732D02*
X0198060D01*
X0198726Y0267065D01*
Y0265066D01*
X0196727D01*
X0196061Y0265733D01*
X0196727Y0266399D01*
X0198726D01*
X0200059Y0267732D02*
Y0265066D01*
Y0266399D01*
X0200726Y0267065D01*
X0201392Y0267732D01*
X0202059D01*
X0206724Y0269065D02*
Y0265066D01*
X0204725D01*
X0204058Y0265733D01*
Y0267065D01*
X0204725Y0267732D01*
X0206724D01*
X0212055Y0265066D02*
X0214055D01*
X0214721Y0265733D01*
X0214055Y0266399D01*
X0212722D01*
X0212055Y0267065D01*
X0212722Y0267732D01*
X0214721D01*
X0216054Y0269065D02*
Y0265066D01*
Y0267065D01*
X0216721Y0267732D01*
X0218054D01*
X0218720Y0267065D01*
Y0265066D01*
X0220719D02*
X0222052D01*
X0222719Y0265733D01*
Y0267065D01*
X0222052Y0267732D01*
X0220719D01*
X0220053Y0267065D01*
Y0265733D01*
X0220719Y0265066D01*
X0224052Y0267732D02*
Y0265733D01*
X0224718Y0265066D01*
X0226717D01*
Y0267732D01*
X0228050Y0265066D02*
X0229383D01*
X0228717D01*
Y0269065D01*
X0228050D01*
X0234048D02*
Y0265066D01*
X0232049D01*
X0231383Y0265733D01*
Y0267065D01*
X0232049Y0267732D01*
X0234048D01*
X0239380Y0269065D02*
Y0265066D01*
X0241379D01*
X0242046Y0265733D01*
Y0266399D01*
Y0267065D01*
X0241379Y0267732D01*
X0239380D01*
X0245378Y0265066D02*
X0244045D01*
X0243379Y0265733D01*
Y0267065D01*
X0244045Y0267732D01*
X0245378D01*
X0246044Y0267065D01*
Y0266399D01*
X0243379D01*
X0251376Y0268398D02*
X0252043Y0269065D01*
X0253376D01*
X0254042Y0268398D01*
Y0265733D01*
X0253376Y0265066D01*
X0252043D01*
X0251376Y0265733D01*
Y0268398D01*
X0255375Y0265066D02*
Y0265733D01*
X0256041D01*
Y0265066D01*
X0255375D01*
X0258707Y0268398D02*
X0259374Y0269065D01*
X0260706D01*
X0261373Y0268398D01*
Y0265733D01*
X0260706Y0265066D01*
X0259374D01*
X0258707Y0265733D01*
Y0268398D01*
X0265372Y0269065D02*
X0264039Y0268398D01*
X0262706Y0267065D01*
Y0265733D01*
X0263372Y0265066D01*
X0264705D01*
X0265372Y0265733D01*
Y0266399D01*
X0264705Y0267065D01*
X0262706D01*
X0269370Y0265066D02*
X0266705D01*
X0269370Y0267732D01*
Y0268398D01*
X0268704Y0269065D01*
X0267371D01*
X0266705Y0268398D01*
X0271370Y0269731D02*
Y0268398D01*
X0270703Y0267732D01*
X0274036Y0269731D02*
Y0268398D01*
X0273369Y0267732D01*
X0280700Y0268398D02*
Y0267732D01*
X0280034D01*
X0281366D01*
X0280700D01*
Y0265733D01*
X0281366Y0265066D01*
X0283366Y0269065D02*
Y0265066D01*
Y0267065D01*
X0284032Y0267732D01*
X0285365D01*
X0286032Y0267065D01*
Y0265066D01*
X0287365D02*
X0288697D01*
X0288031D01*
Y0267732D01*
X0287365D01*
X0293363D02*
X0291363D01*
X0290697Y0267065D01*
Y0265733D01*
X0291363Y0265066D01*
X0293363D01*
X0294695D02*
Y0269065D01*
Y0266399D02*
X0296695Y0267732D01*
X0294695Y0266399D02*
X0296695Y0265066D01*
X0180066Y0258108D02*
X0177400D01*
X0180066Y0260773D01*
Y0261440D01*
X0179399Y0262106D01*
X0178067D01*
X0177400Y0261440D01*
X0181399Y0258108D02*
Y0258774D01*
X0182065D01*
Y0258108D01*
X0181399D01*
X0191395Y0261440D02*
X0190729Y0262106D01*
X0189396D01*
X0188730Y0261440D01*
Y0258774D01*
X0189396Y0258108D01*
X0190729D01*
X0191395Y0258774D01*
Y0260107D01*
X0190063D01*
X0192728Y0260773D02*
Y0258108D01*
Y0259440D01*
X0193395Y0260107D01*
X0194061Y0260773D01*
X0194728D01*
X0198726Y0258108D02*
X0197394D01*
X0196727Y0258774D01*
Y0260107D01*
X0197394Y0260773D01*
X0198726D01*
X0199393Y0260107D01*
Y0259440D01*
X0196727D01*
X0202725Y0258108D02*
X0201392D01*
X0200726Y0258774D01*
Y0260107D01*
X0201392Y0260773D01*
X0202725D01*
X0203392Y0260107D01*
Y0259440D01*
X0200726D01*
X0204725Y0258108D02*
Y0260773D01*
X0206724D01*
X0207390Y0260107D01*
Y0258108D01*
X0215388Y0261440D02*
X0214721Y0262106D01*
X0213388D01*
X0212722Y0261440D01*
Y0260773D01*
X0213388Y0260107D01*
X0214721D01*
X0215388Y0259440D01*
Y0258774D01*
X0214721Y0258108D01*
X0213388D01*
X0212722Y0258774D01*
X0217387Y0258108D02*
X0218720D01*
X0219387Y0258774D01*
Y0260107D01*
X0218720Y0260773D01*
X0217387D01*
X0216721Y0260107D01*
Y0258774D01*
X0217387Y0258108D01*
X0220719D02*
X0222052D01*
X0221386D01*
Y0262106D01*
X0220719D01*
X0226717D02*
Y0258108D01*
X0224718D01*
X0224052Y0258774D01*
Y0260107D01*
X0224718Y0260773D01*
X0226717D01*
X0230050Y0258108D02*
X0228717D01*
X0228050Y0258774D01*
Y0260107D01*
X0228717Y0260773D01*
X0230050D01*
X0230716Y0260107D01*
Y0259440D01*
X0228050D01*
X0232049Y0260773D02*
Y0258108D01*
Y0259440D01*
X0232716Y0260107D01*
X0233382Y0260773D01*
X0234048D01*
X0240047Y0258108D02*
Y0260773D01*
X0240713D01*
X0241379Y0260107D01*
Y0258108D01*
Y0260107D01*
X0242046Y0260773D01*
X0242712Y0260107D01*
Y0258108D01*
X0244712Y0260773D02*
X0246044D01*
X0246711Y0260107D01*
Y0258108D01*
X0244712D01*
X0244045Y0258774D01*
X0244712Y0259440D01*
X0246711D01*
X0248044Y0258108D02*
X0250043D01*
X0250710Y0258774D01*
X0250043Y0259440D01*
X0248710D01*
X0248044Y0260107D01*
X0248710Y0260773D01*
X0250710D01*
X0252043Y0258108D02*
Y0262106D01*
Y0259440D02*
X0254042Y0260773D01*
X0252043Y0259440D02*
X0254042Y0258108D01*
X0260706D02*
X0262039D01*
X0262706Y0258774D01*
Y0260107D01*
X0262039Y0260773D01*
X0260706D01*
X0260040Y0260107D01*
Y0258774D01*
X0260706Y0258108D01*
X0264039D02*
Y0260773D01*
X0266038D01*
X0266705Y0260107D01*
Y0258108D01*
X0272703Y0261440D02*
Y0260773D01*
X0272036D01*
X0273369D01*
X0272703D01*
Y0258774D01*
X0273369Y0258108D01*
X0276035D02*
X0277368D01*
X0278034Y0258774D01*
Y0260107D01*
X0277368Y0260773D01*
X0276035D01*
X0275368Y0260107D01*
Y0258774D01*
X0276035Y0258108D01*
X0279367Y0256775D02*
Y0260773D01*
X0281366D01*
X0282033Y0260107D01*
Y0258774D01*
X0281366Y0258108D01*
X0279367D01*
X0288031Y0260773D02*
X0289364D01*
X0290030Y0260107D01*
Y0258108D01*
X0288031D01*
X0287365Y0258774D01*
X0288031Y0259440D01*
X0290030D01*
X0291363Y0258108D02*
Y0260773D01*
X0293363D01*
X0294029Y0260107D01*
Y0258108D01*
X0298028Y0262106D02*
Y0258108D01*
X0296028D01*
X0295362Y0258774D01*
Y0260107D01*
X0296028Y0260773D01*
X0298028D01*
X0303359Y0262106D02*
Y0258108D01*
X0305359D01*
X0306025Y0258774D01*
Y0259440D01*
Y0260107D01*
X0305359Y0260773D01*
X0303359D01*
X0308025Y0258108D02*
X0309357D01*
X0310024Y0258774D01*
Y0260107D01*
X0309357Y0260773D01*
X0308025D01*
X0307358Y0260107D01*
Y0258774D01*
X0308025Y0258108D01*
X0312023Y0261440D02*
Y0260773D01*
X0311357D01*
X0312690D01*
X0312023D01*
Y0258774D01*
X0312690Y0258108D01*
X0315355Y0261440D02*
Y0260773D01*
X0314689D01*
X0316022D01*
X0315355D01*
Y0258774D01*
X0316022Y0258108D01*
X0318688D02*
X0320021D01*
X0320687Y0258774D01*
Y0260107D01*
X0320021Y0260773D01*
X0318688D01*
X0318021Y0260107D01*
Y0258774D01*
X0318688Y0258108D01*
X0322020D02*
Y0260773D01*
X0322687D01*
X0323353Y0260107D01*
Y0258108D01*
Y0260107D01*
X0324019Y0260773D01*
X0324686Y0260107D01*
Y0258108D01*
X0177400Y0253149D02*
X0178067Y0253815D01*
X0179399D01*
X0180066Y0253149D01*
Y0252482D01*
X0179399Y0251816D01*
X0178733D01*
X0179399D01*
X0180066Y0251149D01*
Y0250483D01*
X0179399Y0249816D01*
X0178067D01*
X0177400Y0250483D01*
X0181399Y0249816D02*
Y0250483D01*
X0182065D01*
Y0249816D01*
X0181399D01*
X0188730Y0253815D02*
Y0249816D01*
X0190063Y0251149D01*
X0191395Y0249816D01*
Y0253815D01*
X0192728D02*
Y0249816D01*
Y0251816D01*
X0193395Y0252482D01*
X0194728D01*
X0195394Y0251816D01*
Y0249816D01*
X0196727D02*
X0198060D01*
X0197394D01*
Y0252482D01*
X0196727D01*
X0200726Y0253149D02*
Y0252482D01*
X0200059D01*
X0201392D01*
X0200726D01*
Y0250483D01*
X0201392Y0249816D01*
X0205391D02*
X0204058D01*
X0203392Y0250483D01*
Y0251816D01*
X0204058Y0252482D01*
X0205391D01*
X0206057Y0251816D01*
Y0251149D01*
X0203392D01*
X0211389Y0249816D02*
X0213388D01*
X0214055Y0250483D01*
X0213388Y0251149D01*
X0212055D01*
X0211389Y0251816D01*
X0212055Y0252482D01*
X0214055D01*
X0215388Y0249816D02*
X0216721D01*
X0216054D01*
Y0252482D01*
X0215388D01*
X0218720Y0249816D02*
X0220053D01*
X0219387D01*
Y0253815D01*
X0218720D01*
X0222052Y0249816D02*
Y0253815D01*
Y0251149D02*
X0224052Y0252482D01*
X0222052Y0251149D02*
X0224052Y0249816D01*
X0230050D02*
X0232049D01*
X0232716Y0250483D01*
X0232049Y0251149D01*
X0230716D01*
X0230050Y0251816D01*
X0230716Y0252482D01*
X0232716D01*
X0236714D02*
X0234715D01*
X0234048Y0251816D01*
Y0250483D01*
X0234715Y0249816D01*
X0236714D01*
X0238047Y0252482D02*
Y0249816D01*
Y0251149D01*
X0238714Y0251816D01*
X0239380Y0252482D01*
X0240047D01*
X0244045Y0249816D02*
X0242712D01*
X0242046Y0250483D01*
Y0251816D01*
X0242712Y0252482D01*
X0244045D01*
X0244712Y0251816D01*
Y0251149D01*
X0242046D01*
X0248044Y0249816D02*
X0246711D01*
X0246044Y0250483D01*
Y0251816D01*
X0246711Y0252482D01*
X0248044D01*
X0248710Y0251816D01*
Y0251149D01*
X0246044D01*
X0250043Y0249816D02*
Y0252482D01*
X0252043D01*
X0252709Y0251816D01*
Y0249816D01*
X0258707D02*
X0260040D01*
X0260706Y0250483D01*
Y0251816D01*
X0260040Y0252482D01*
X0258707D01*
X0258041Y0251816D01*
Y0250483D01*
X0258707Y0249816D01*
X0262039D02*
Y0252482D01*
X0264039D01*
X0264705Y0251816D01*
Y0249816D01*
X0270703Y0253149D02*
Y0252482D01*
X0270037D01*
X0271370D01*
X0270703D01*
Y0250483D01*
X0271370Y0249816D01*
X0274036D02*
X0275368D01*
X0276035Y0250483D01*
Y0251816D01*
X0275368Y0252482D01*
X0274036D01*
X0273369Y0251816D01*
Y0250483D01*
X0274036Y0249816D01*
X0277368Y0248483D02*
Y0252482D01*
X0279367D01*
X0280034Y0251816D01*
Y0250483D01*
X0279367Y0249816D01*
X0277368D01*
X0286032Y0252482D02*
X0287365D01*
X0288031Y0251816D01*
Y0249816D01*
X0286032D01*
X0285365Y0250483D01*
X0286032Y0251149D01*
X0288031D01*
X0289364Y0249816D02*
Y0252482D01*
X0291363D01*
X0292030Y0251816D01*
Y0249816D01*
X0296028Y0253815D02*
Y0249816D01*
X0294029D01*
X0293363Y0250483D01*
Y0251816D01*
X0294029Y0252482D01*
X0296028D01*
X0301360Y0253815D02*
Y0249816D01*
X0303359D01*
X0304026Y0250483D01*
Y0251149D01*
Y0251816D01*
X0303359Y0252482D01*
X0301360D01*
X0306025Y0249816D02*
X0307358D01*
X0308025Y0250483D01*
Y0251816D01*
X0307358Y0252482D01*
X0306025D01*
X0305359Y0251816D01*
Y0250483D01*
X0306025Y0249816D01*
X0310024Y0253149D02*
Y0252482D01*
X0309357D01*
X0310690D01*
X0310024D01*
Y0250483D01*
X0310690Y0249816D01*
X0313356Y0253149D02*
Y0252482D01*
X0312690D01*
X0314023D01*
X0313356D01*
Y0250483D01*
X0314023Y0249816D01*
X0316688D02*
X0318021D01*
X0318688Y0250483D01*
Y0251816D01*
X0318021Y0252482D01*
X0316688D01*
X0316022Y0251816D01*
Y0250483D01*
X0316688Y0249816D01*
X0320021D02*
Y0252482D01*
X0320687D01*
X0321354Y0251816D01*
Y0249816D01*
Y0251816D01*
X0322020Y0252482D01*
X0322687Y0251816D01*
Y0249816D01*
X0179399Y0241525D02*
Y0245524D01*
X0177400Y0243524D01*
X0180066D01*
X0181399Y0241525D02*
Y0242191D01*
X0182065D01*
Y0241525D01*
X0181399D01*
X0188730Y0245524D02*
Y0241525D01*
Y0243524D01*
X0191395D01*
Y0245524D01*
Y0241525D01*
X0192728D02*
Y0244191D01*
X0194061Y0245524D01*
X0195394Y0244191D01*
Y0241525D01*
Y0243524D01*
X0192728D01*
X0199393Y0244857D02*
X0198726Y0245524D01*
X0197394D01*
X0196727Y0244857D01*
Y0244191D01*
X0197394Y0243524D01*
X0198726D01*
X0199393Y0242858D01*
Y0242191D01*
X0198726Y0241525D01*
X0197394D01*
X0196727Y0242191D01*
X0200726Y0245524D02*
Y0241525D01*
X0203392D01*
X0209390D02*
Y0244857D01*
Y0243524D01*
X0208723D01*
X0210056D01*
X0209390D01*
Y0244857D01*
X0210056Y0245524D01*
X0212055Y0241525D02*
X0213388D01*
X0212722D01*
Y0244191D01*
X0212055D01*
X0215388Y0241525D02*
Y0244191D01*
X0217387D01*
X0218054Y0243524D01*
Y0241525D01*
X0219387D02*
X0220719D01*
X0220053D01*
Y0244191D01*
X0219387D01*
X0222719Y0241525D02*
X0224718D01*
X0225384Y0242191D01*
X0224718Y0242858D01*
X0223385D01*
X0222719Y0243524D01*
X0223385Y0244191D01*
X0225384D01*
X0226717Y0245524D02*
Y0241525D01*
Y0243524D01*
X0227384Y0244191D01*
X0228717D01*
X0229383Y0243524D01*
Y0241525D01*
X0180066Y0237899D02*
X0177400D01*
Y0235899D01*
X0178733Y0236566D01*
X0179399D01*
X0180066Y0235899D01*
Y0234566D01*
X0179399Y0233900D01*
X0178067D01*
X0177400Y0234566D01*
X0181399Y0233900D02*
Y0234566D01*
X0182065D01*
Y0233900D01*
X0181399D01*
X0188730Y0237899D02*
Y0233900D01*
X0190729D01*
X0191395Y0234566D01*
Y0235233D01*
X0190729Y0235899D01*
X0188730D01*
X0190729D01*
X0191395Y0236566D01*
Y0237232D01*
X0190729Y0237899D01*
X0188730D01*
X0193395Y0233900D02*
X0194728D01*
X0195394Y0234566D01*
Y0235899D01*
X0194728Y0236566D01*
X0193395D01*
X0192728Y0235899D01*
Y0234566D01*
X0193395Y0233900D01*
X0197394Y0236566D02*
X0198726D01*
X0199393Y0235899D01*
Y0233900D01*
X0197394D01*
X0196727Y0234566D01*
X0197394Y0235233D01*
X0199393D01*
X0200726Y0236566D02*
Y0233900D01*
Y0235233D01*
X0201392Y0235899D01*
X0202059Y0236566D01*
X0202725D01*
X0207390Y0237899D02*
Y0233900D01*
X0205391D01*
X0204725Y0234566D01*
Y0235899D01*
X0205391Y0236566D01*
X0207390D01*
X0215388Y0237899D02*
Y0233900D01*
X0213388D01*
X0212722Y0234566D01*
Y0235899D01*
X0213388Y0236566D01*
X0215388D01*
X0216721Y0233900D02*
X0218054D01*
X0217387D01*
Y0236566D01*
X0216721D01*
X0220053Y0233900D02*
Y0236566D01*
X0220719D01*
X0221386Y0235899D01*
Y0233900D01*
Y0235899D01*
X0222052Y0236566D01*
X0222719Y0235899D01*
Y0233900D01*
X0226051D02*
X0224718D01*
X0224052Y0234566D01*
Y0235899D01*
X0224718Y0236566D01*
X0226051D01*
X0226717Y0235899D01*
Y0235233D01*
X0224052D01*
X0228050Y0233900D02*
Y0236566D01*
X0230050D01*
X0230716Y0235899D01*
Y0233900D01*
X0232049D02*
X0234048D01*
X0234715Y0234566D01*
X0234048Y0235233D01*
X0232716D01*
X0232049Y0235899D01*
X0232716Y0236566D01*
X0234715D01*
X0236048Y0233900D02*
X0237381D01*
X0236714D01*
Y0236566D01*
X0236048D01*
X0240047Y0233900D02*
X0241379D01*
X0242046Y0234566D01*
Y0235899D01*
X0241379Y0236566D01*
X0240047D01*
X0239380Y0235899D01*
Y0234566D01*
X0240047Y0233900D01*
X0243379D02*
Y0236566D01*
X0245378D01*
X0246044Y0235899D01*
Y0233900D01*
X0247377D02*
X0249377D01*
X0250043Y0234566D01*
X0249377Y0235233D01*
X0248044D01*
X0247377Y0235899D01*
X0248044Y0236566D01*
X0250043D01*
X0256041D02*
X0257374D01*
X0258041Y0235899D01*
Y0233900D01*
X0256041D01*
X0255375Y0234566D01*
X0256041Y0235233D01*
X0258041D01*
X0259374Y0236566D02*
Y0233900D01*
Y0235233D01*
X0260040Y0235899D01*
X0260706Y0236566D01*
X0261373D01*
X0265372Y0233900D02*
X0264039D01*
X0263372Y0234566D01*
Y0235899D01*
X0264039Y0236566D01*
X0265372D01*
X0266038Y0235899D01*
Y0235233D01*
X0263372D01*
X0271370Y0237232D02*
X0272036Y0237899D01*
X0273369D01*
X0274036Y0237232D01*
Y0234566D01*
X0273369Y0233900D01*
X0272036D01*
X0271370Y0234566D01*
Y0237232D01*
X0275368Y0233900D02*
Y0234566D01*
X0276035D01*
Y0233900D01*
X0275368D01*
X0278701Y0237232D02*
X0279367Y0237899D01*
X0280700D01*
X0281366Y0237232D01*
Y0236566D01*
X0280700Y0235899D01*
X0280034D01*
X0280700D01*
X0281366Y0235233D01*
Y0234566D01*
X0280700Y0233900D01*
X0279367D01*
X0278701Y0234566D01*
X0282699Y0233900D02*
X0284032D01*
X0283366D01*
Y0237899D01*
X0282699Y0237232D01*
X0288031Y0233900D02*
Y0237899D01*
X0286032Y0235899D01*
X0288697D01*
X0290697Y0238565D02*
Y0237232D01*
X0290030Y0236566D01*
X0293363Y0238565D02*
Y0237232D01*
X0292696Y0236566D01*
X0299361D02*
X0302027Y0233900D01*
X0300694Y0235233D01*
X0302027Y0236566D01*
X0299361Y0233900D01*
X0307358D02*
X0308691D01*
X0308025D01*
Y0237899D01*
X0307358Y0237232D01*
X0310690Y0233900D02*
Y0234566D01*
X0311357D01*
Y0233900D01*
X0310690D01*
X0314023Y0237232D02*
X0314689Y0237899D01*
X0316022D01*
X0316688Y0237232D01*
Y0236566D01*
X0316022Y0235899D01*
X0316688Y0235233D01*
Y0234566D01*
X0316022Y0233900D01*
X0314689D01*
X0314023Y0234566D01*
Y0235233D01*
X0314689Y0235899D01*
X0314023Y0236566D01*
Y0237232D01*
X0314689Y0235899D02*
X0316022D01*
X0318021Y0237899D02*
X0320687D01*
Y0237232D01*
X0318021Y0234566D01*
Y0233900D01*
X0324019D02*
Y0237899D01*
X0322020Y0235899D01*
X0324686D01*
X0326685Y0238565D02*
Y0237232D01*
X0326019Y0236566D01*
X0329351Y0238565D02*
Y0237232D01*
X0328684Y0236566D01*
M02*
