G04 Layer_Color=65535*
%FSAX25Y25*%
%MOIN*%
G70*
G01*
G75*
%ADD15C,0.00591*%
%ADD27C,0.00500*%
%ADD28C,0.00400*%
%ADD29C,0.00669*%
%ADD30C,0.00736*%
%ADD31C,0.00502*%
%ADD32R,0.00984X0.00886*%
G36*
X0122051Y0262074D02*
X0120870D01*
X0122051Y0263256D01*
Y0262074D01*
D02*
G37*
G36*
Y0230578D02*
X0120870D01*
X0122051Y0231760D01*
Y0230578D01*
D02*
G37*
G36*
X0119094Y0203346D02*
X0117913D01*
X0119094Y0204527D01*
Y0203346D01*
D02*
G37*
G36*
Y0171850D02*
X0117913D01*
X0119094Y0173031D01*
Y0171850D01*
D02*
G37*
G36*
Y0140354D02*
X0117913D01*
X0119094Y0141535D01*
Y0140354D01*
D02*
G37*
G36*
X0119370Y0108858D02*
X0118189D01*
X0119370Y0110039D01*
Y0108858D01*
D02*
G37*
D15*
X0100670Y0259843D02*
X0130788D01*
X0100670Y0253150D02*
X0130788D01*
X0100670Y0228150D02*
X0130788D01*
X0100670Y0221850D02*
X0130788D01*
X0100670Y0196654D02*
X0130788D01*
X0100670Y0190354D02*
X0130788D01*
X0100000Y0100000D02*
Y0287402D01*
X0131496D01*
Y0100000D02*
Y0287402D01*
X0100000Y0100000D02*
X0131496D01*
D27*
X0117796Y0119685D02*
G03*
X0117796Y0119685I-0001969J0000000D01*
G01*
X0117520Y0151181D02*
G03*
X0117520Y0151181I-0001969J0000000D01*
G01*
Y0182677D02*
G03*
X0117520Y0182677I-0001969J0000000D01*
G01*
Y0214173D02*
G03*
X0117520Y0214173I-0001969J0000000D01*
G01*
Y0245669D02*
G03*
X0117520Y0245669I-0001969J0000000D01*
G01*
Y0277165D02*
G03*
X0117520Y0277165I-0001969J0000000D01*
G01*
X0109921Y0105118D02*
Y0124803D01*
X0121733D01*
Y0105118D02*
Y0124803D01*
X0109921Y0105118D02*
X0121733D01*
X0109645Y0136614D02*
Y0156299D01*
X0121457D01*
Y0136614D02*
Y0156299D01*
X0109645Y0136614D02*
X0121457D01*
X0109645Y0168110D02*
Y0187795D01*
X0121457D01*
Y0168110D02*
Y0187795D01*
X0109645Y0168110D02*
X0121457D01*
X0109645Y0199606D02*
Y0219291D01*
X0121457D01*
Y0199606D02*
Y0219291D01*
X0109645Y0199606D02*
X0121457D01*
X0109645Y0231102D02*
X0121457D01*
X0109645Y0250787D02*
X0121457D01*
X0109645Y0262598D02*
X0121457D01*
X0109645Y0282283D02*
X0121457D01*
D28*
X0120815Y0103819D02*
G03*
X0120815Y0103819I-0000500J0000000D01*
G01*
X0120539Y0135315D02*
G03*
X0120539Y0135315I-0000500J0000000D01*
G01*
Y0166811D02*
G03*
X0120539Y0166811I-0000500J0000000D01*
G01*
Y0198307D02*
G03*
X0120539Y0198307I-0000500J0000000D01*
G01*
Y0229803D02*
G03*
X0120539Y0229803I-0000500J0000000D01*
G01*
Y0261299D02*
G03*
X0120539Y0261299I-0000500J0000000D01*
G01*
X0115040Y0128150D02*
X0116614D01*
X0115040Y0130906D02*
X0116614D01*
D29*
X0103687Y0194127D02*
X0103130Y0194684D01*
X0102015D01*
X0101457Y0194127D01*
Y0191897D01*
X0102015Y0191339D01*
X0103130D01*
X0103687Y0191897D01*
X0104802Y0193569D02*
Y0191897D01*
X0105360Y0191339D01*
X0107033D01*
Y0193569D01*
X0108705Y0194127D02*
Y0193569D01*
X0108148D01*
X0109263D01*
X0108705D01*
Y0191897D01*
X0109263Y0191339D01*
X0104868Y0257316D02*
X0104311Y0257873D01*
X0103196D01*
X0102638Y0257316D01*
Y0255086D01*
X0103196Y0254528D01*
X0104311D01*
X0104868Y0255086D01*
X0105983Y0256758D02*
Y0255086D01*
X0106541Y0254528D01*
X0108214D01*
Y0256758D01*
X0109886Y0257316D02*
Y0256758D01*
X0109329D01*
X0110444D01*
X0109886D01*
Y0255086D01*
X0110444Y0254528D01*
X0104868Y0225819D02*
X0104311Y0226376D01*
X0103196D01*
X0102638Y0225819D01*
Y0223589D01*
X0103196Y0223031D01*
X0104311D01*
X0104868Y0223589D01*
X0105983Y0225261D02*
Y0223589D01*
X0106541Y0223031D01*
X0108214D01*
Y0225261D01*
X0109886Y0225819D02*
Y0225261D01*
X0109329D01*
X0110444D01*
X0109886D01*
Y0223589D01*
X0110444Y0223031D01*
X0107030Y0277045D02*
X0105915Y0276488D01*
X0104800Y0275373D01*
Y0274258D01*
X0105358Y0273700D01*
X0106473D01*
X0107030Y0274258D01*
Y0274815D01*
X0106473Y0275373D01*
X0104800D01*
X0107130Y0245145D02*
X0104900D01*
Y0243473D01*
X0106015Y0244030D01*
X0106573D01*
X0107130Y0243473D01*
Y0242358D01*
X0106573Y0241800D01*
X0105458D01*
X0104900Y0242358D01*
X0106773Y0210100D02*
Y0213445D01*
X0105100Y0211773D01*
X0107330D01*
X0105100Y0181688D02*
X0105658Y0182245D01*
X0106773D01*
X0107330Y0181688D01*
Y0181130D01*
X0106773Y0180573D01*
X0106215D01*
X0106773D01*
X0107330Y0180015D01*
Y0179458D01*
X0106773Y0178900D01*
X0105658D01*
X0105100Y0179458D01*
X0108608Y0147441D02*
X0106378D01*
X0108608Y0149671D01*
Y0150229D01*
X0108051Y0150786D01*
X0106936D01*
X0106378Y0150229D01*
X0106400Y0114500D02*
X0107515D01*
X0106958D01*
Y0117845D01*
X0106400Y0117288D01*
X0123372Y0257316D02*
X0122815Y0257873D01*
X0121700D01*
X0121142Y0257316D01*
Y0255086D01*
X0121700Y0254528D01*
X0122815D01*
X0123372Y0255086D01*
X0124487Y0256758D02*
Y0255086D01*
X0125045Y0254528D01*
X0126718D01*
Y0256758D01*
X0128390Y0257316D02*
Y0256758D01*
X0127833D01*
X0128948D01*
X0128390D01*
Y0255086D01*
X0128948Y0254528D01*
X0123766Y0225623D02*
X0123209Y0226180D01*
X0122094D01*
X0121536Y0225623D01*
Y0223393D01*
X0122094Y0222835D01*
X0123209D01*
X0123766Y0223393D01*
X0124881Y0225065D02*
Y0223393D01*
X0125439Y0222835D01*
X0127112D01*
Y0225065D01*
X0128784Y0225623D02*
Y0225065D01*
X0128227D01*
X0129342D01*
X0128784D01*
Y0223393D01*
X0129342Y0222835D01*
X0123569Y0194323D02*
X0123012Y0194880D01*
X0121897D01*
X0121339Y0194323D01*
Y0192093D01*
X0121897Y0191535D01*
X0123012D01*
X0123569Y0192093D01*
X0124684Y0193765D02*
Y0192093D01*
X0125242Y0191535D01*
X0126915D01*
Y0193765D01*
X0128587Y0194323D02*
Y0193765D01*
X0128030D01*
X0129145D01*
X0128587D01*
Y0192093D01*
X0129145Y0191535D01*
D30*
X0101420Y0122400D02*
Y0124853D01*
Y0123627D01*
X0105100D01*
X0102647Y0126693D02*
Y0127920D01*
X0103260Y0128534D01*
X0105100D01*
Y0126693D01*
X0104487Y0126080D01*
X0103873Y0126693D01*
Y0128534D01*
X0105100Y0129760D02*
X0101420D01*
X0103873D02*
X0102647Y0131600D01*
X0103873Y0129760D02*
X0105100Y0131600D01*
Y0133440D02*
X0101420D01*
X0103873D02*
X0102647Y0135281D01*
X0103873Y0133440D02*
X0105100Y0135281D01*
X0101420Y0137121D02*
Y0139574D01*
Y0138347D01*
X0105100D01*
Y0140801D02*
Y0142027D01*
Y0141414D01*
X0102647D01*
Y0140801D01*
X0105100Y0143868D02*
Y0145094D01*
Y0144481D01*
X0101420D01*
Y0143868D01*
X0105100Y0148775D02*
Y0147548D01*
X0104487Y0146934D01*
X0103260D01*
X0102647Y0147548D01*
Y0148775D01*
X0103260Y0149388D01*
X0103873D01*
Y0146934D01*
X0105100Y0154295D02*
Y0155521D01*
Y0154908D01*
X0101420D01*
X0102033Y0154295D01*
Y0157361D02*
X0101420Y0157975D01*
Y0159202D01*
X0102033Y0159815D01*
X0104487D01*
X0105100Y0159202D01*
Y0157975D01*
X0104487Y0157361D01*
X0102033D01*
X0105100Y0161042D02*
X0104487D01*
Y0161655D01*
X0105100D01*
Y0161042D01*
X0102647Y0164722D02*
Y0165949D01*
X0103260Y0166562D01*
X0105100D01*
Y0164722D01*
X0104487Y0164109D01*
X0103873Y0164722D01*
Y0166562D01*
D31*
X0124009Y0108673D02*
X0123591Y0108255D01*
Y0107418D01*
X0124009Y0107000D01*
X0125682D01*
X0126100Y0107418D01*
Y0108255D01*
X0125682Y0108673D01*
X0126100Y0109509D02*
Y0110346D01*
Y0109927D01*
X0123591D01*
X0124009Y0109509D01*
X0111600Y0134409D02*
Y0131900D01*
X0113273D01*
X0115782Y0134409D02*
X0114109D01*
Y0131900D01*
X0115782D01*
X0114109Y0133155D02*
X0114946D01*
X0116619Y0134409D02*
Y0131900D01*
X0117873D01*
X0118291Y0132318D01*
Y0133991D01*
X0117873Y0134409D01*
X0116619D01*
X0123809Y0139473D02*
X0123391Y0139055D01*
Y0138218D01*
X0123809Y0137800D01*
X0125482D01*
X0125900Y0138218D01*
Y0139055D01*
X0125482Y0139473D01*
X0125900Y0141982D02*
Y0140309D01*
X0124227Y0141982D01*
X0123809D01*
X0123391Y0141564D01*
Y0140727D01*
X0123809Y0140309D01*
X0126809Y0170373D02*
X0126391Y0169955D01*
Y0169118D01*
X0126809Y0168700D01*
X0128482D01*
X0128900Y0169118D01*
Y0169955D01*
X0128482Y0170373D01*
X0126809Y0171209D02*
X0126391Y0171627D01*
Y0172464D01*
X0126809Y0172882D01*
X0127227D01*
X0127645Y0172464D01*
Y0172046D01*
Y0172464D01*
X0128064Y0172882D01*
X0128482D01*
X0128900Y0172464D01*
Y0171627D01*
X0128482Y0171209D01*
X0124169Y0233366D02*
X0123751Y0232948D01*
Y0232111D01*
X0124169Y0231693D01*
X0125842D01*
X0126260Y0232111D01*
Y0232948D01*
X0125842Y0233366D01*
X0123751Y0235875D02*
Y0234202D01*
X0125005D01*
X0124587Y0235039D01*
Y0235457D01*
X0125005Y0235875D01*
X0125842D01*
X0126260Y0235457D01*
Y0234620D01*
X0125842Y0234202D01*
X0124366Y0201476D02*
X0123948Y0201058D01*
Y0200221D01*
X0124366Y0199803D01*
X0126039D01*
X0126457Y0200221D01*
Y0201058D01*
X0126039Y0201476D01*
X0126457Y0203567D02*
X0123948D01*
X0125202Y0202312D01*
Y0203985D01*
X0124957Y0264468D02*
X0124539Y0264050D01*
Y0263213D01*
X0124957Y0262795D01*
X0126630D01*
X0127048Y0263213D01*
Y0264050D01*
X0126630Y0264468D01*
X0124539Y0266977D02*
X0124957Y0266141D01*
X0125793Y0265304D01*
X0126630D01*
X0127048Y0265722D01*
Y0266559D01*
X0126630Y0266977D01*
X0126212D01*
X0125793Y0266559D01*
Y0265304D01*
X0113712Y0162968D02*
X0113294Y0163386D01*
X0112457D01*
X0112039Y0162968D01*
Y0161295D01*
X0112457Y0160877D01*
X0113294D01*
X0113712Y0161295D01*
X0114548Y0163386D02*
X0116221D01*
Y0162968D01*
X0114548Y0161295D01*
Y0160877D01*
X0126200Y0123000D02*
X0123691D01*
Y0124255D01*
X0124109Y0124673D01*
X0124945D01*
X0125364Y0124255D01*
Y0123000D01*
Y0123836D02*
X0126200Y0124673D01*
Y0125509D02*
Y0126346D01*
Y0125927D01*
X0123691D01*
X0124109Y0125509D01*
D32*
X0115335Y0130660D02*
D03*
M02*
