G04 Layer_Color=32896*
%FSAX25Y25*%
%MOIN*%
G70*
G01*
G75*
%ADD15C,0.00591*%
%ADD29C,0.00669*%
%ADD43C,0.00600*%
%ADD44C,0.00394*%
%ADD45C,0.00502*%
%ADD46C,0.00377*%
G36*
X0107872Y0170017D02*
X0107902Y0169874D01*
X0107932Y0169746D01*
X0107955Y0169641D01*
X0107977Y0169558D01*
X0107985Y0169528D01*
Y0169505D01*
X0107992Y0169490D01*
Y0169483D01*
X0108022Y0169513D01*
X0108060Y0169558D01*
X0108158Y0169641D01*
X0108256Y0169731D01*
X0108361Y0169829D01*
X0108466Y0169912D01*
X0108549Y0169980D01*
X0108579Y0170010D01*
X0108602Y0170032D01*
X0108617Y0170040D01*
X0108625Y0170047D01*
X0108911Y0169648D01*
X0108805Y0169573D01*
X0108692Y0169498D01*
X0108572Y0169422D01*
X0108459Y0169355D01*
X0108353Y0169295D01*
X0108263Y0169249D01*
X0108233Y0169227D01*
X0108211Y0169212D01*
X0108195Y0169204D01*
X0108188D01*
X0108353Y0169106D01*
X0108497Y0169023D01*
X0108617Y0168940D01*
X0108722Y0168873D01*
X0108805Y0168820D01*
X0108866Y0168782D01*
X0108896Y0168752D01*
X0108911Y0168745D01*
X0108625Y0168338D01*
X0108466Y0168474D01*
X0108331Y0168587D01*
X0108226Y0168684D01*
X0108135Y0168767D01*
X0108067Y0168835D01*
X0108030Y0168880D01*
X0108000Y0168910D01*
X0107992Y0168918D01*
X0107969Y0168760D01*
X0107939Y0168609D01*
X0107909Y0168466D01*
X0107872Y0168338D01*
X0107842Y0168233D01*
X0107819Y0168150D01*
X0107811Y0168120D01*
X0107804Y0168097D01*
X0107796Y0168082D01*
Y0168075D01*
X0107322Y0168233D01*
X0107375Y0168398D01*
X0107435Y0168549D01*
X0107488Y0168684D01*
X0107540Y0168798D01*
X0107578Y0168895D01*
X0107616Y0168971D01*
X0107638Y0169016D01*
X0107646Y0169023D01*
Y0169031D01*
X0107465Y0169008D01*
X0107299Y0168986D01*
X0107156Y0168978D01*
X0107036Y0168963D01*
X0106938Y0168956D01*
X0106863Y0168948D01*
X0106802D01*
Y0169438D01*
X0106908D01*
X0107036Y0169430D01*
X0107171Y0169415D01*
X0107314Y0169407D01*
X0107442Y0169392D01*
X0107495D01*
X0107548Y0169385D01*
X0107586D01*
X0107616Y0169377D01*
X0107646D01*
X0107593Y0169483D01*
X0107540Y0169603D01*
X0107480Y0169731D01*
X0107435Y0169859D01*
X0107390Y0169972D01*
X0107367Y0170025D01*
X0107352Y0170070D01*
X0107337Y0170108D01*
X0107329Y0170138D01*
X0107322Y0170153D01*
Y0170160D01*
X0107796Y0170311D01*
X0107872Y0170017D01*
D02*
G37*
D15*
X0107166Y0181496D02*
G03*
X0107166Y0181496I-0001969J0000000D01*
G01*
X0112481D02*
G03*
X0112481Y0181496I-0001969J0000000D01*
G01*
X0100670Y0227953D02*
X0130788D01*
X0100670Y0221850D02*
X0130788D01*
X0100670Y0259843D02*
X0130788D01*
X0100670Y0253150D02*
X0130788D01*
X0115630Y0253543D02*
Y0259449D01*
X0112677Y0256299D02*
X0118583D01*
X0127244Y0100197D02*
Y0106102D01*
X0124095Y0102953D02*
X0130000D01*
X0100670Y0190354D02*
X0130788D01*
X0100670Y0196654D02*
X0130788D01*
X0100670Y0228150D02*
X0130788D01*
X0100670Y0221850D02*
X0130788D01*
X0100000Y0100000D02*
Y0287402D01*
X0131496D01*
Y0100000D02*
Y0287402D01*
X0100000Y0100000D02*
X0131496D01*
D29*
X0106510Y0136532D02*
X0107067Y0137089D01*
X0108182D01*
X0108740Y0136532D01*
Y0135974D01*
X0108182Y0135417D01*
X0107067D01*
X0106510Y0134859D01*
Y0134302D01*
X0107067Y0133744D01*
X0108182D01*
X0108740Y0134302D01*
X0103164Y0137089D02*
X0104279Y0136532D01*
X0105395Y0135417D01*
Y0134302D01*
X0104837Y0133744D01*
X0103722D01*
X0103164Y0134302D01*
Y0134859D01*
X0103722Y0135417D01*
X0105395D01*
X0126589Y0136532D02*
X0127146Y0137089D01*
X0128261D01*
X0128819Y0136532D01*
Y0135974D01*
X0128261Y0135417D01*
X0127146D01*
X0126589Y0134859D01*
Y0134302D01*
X0127146Y0133744D01*
X0128261D01*
X0128819Y0134302D01*
X0123243Y0137089D02*
X0124358Y0136532D01*
X0125474Y0135417D01*
Y0134302D01*
X0124916Y0133744D01*
X0123801D01*
X0123243Y0134302D01*
Y0134859D01*
X0123801Y0135417D01*
X0125474D01*
X0105985Y0110432D02*
Y0108202D01*
X0104870Y0107087D01*
X0103755Y0108202D01*
Y0110432D01*
X0127638D02*
Y0108202D01*
X0126523Y0107087D01*
X0125408Y0108202D01*
Y0110432D01*
X0105985Y0273817D02*
Y0271587D01*
X0104870Y0270472D01*
X0103755Y0271587D01*
Y0273817D01*
X0127638D02*
Y0271587D01*
X0126523Y0270472D01*
X0125408Y0271587D01*
Y0273817D01*
X0105985Y0242321D02*
Y0240091D01*
X0104870Y0238976D01*
X0103755Y0240091D01*
Y0242321D01*
X0105591Y0210628D02*
Y0208398D01*
X0104476Y0207283D01*
X0103361Y0208398D01*
Y0210628D01*
X0127638Y0242518D02*
Y0240288D01*
X0126523Y0239173D01*
X0125408Y0240288D01*
Y0242518D01*
Y0236449D02*
X0125965Y0237006D01*
X0127080D01*
X0127638Y0236449D01*
Y0234219D01*
X0127080Y0233661D01*
X0125965D01*
X0125408Y0234219D01*
Y0235334D01*
X0126523D01*
X0103755Y0236646D02*
X0104312Y0237203D01*
X0105427D01*
X0105985Y0236646D01*
Y0234416D01*
X0105427Y0233858D01*
X0104312D01*
X0103755Y0234416D01*
Y0235531D01*
X0104870D01*
X0103755Y0268142D02*
X0104312Y0268699D01*
X0105427D01*
X0105985Y0268142D01*
Y0265912D01*
X0105427Y0265354D01*
X0104312D01*
X0103755Y0265912D01*
Y0267027D01*
X0104870D01*
X0125408Y0268142D02*
X0125965Y0268699D01*
X0127080D01*
X0127638Y0268142D01*
Y0265912D01*
X0127080Y0265354D01*
X0125965D01*
X0125408Y0265912D01*
Y0267027D01*
X0126523D01*
X0103755Y0104953D02*
X0104312Y0105510D01*
X0105427D01*
X0105985Y0104953D01*
Y0102723D01*
X0105427Y0102165D01*
X0104312D01*
X0103755Y0102723D01*
Y0103838D01*
X0104870D01*
X0103361Y0205150D02*
X0103918Y0205707D01*
X0105033D01*
X0105591Y0205150D01*
Y0202920D01*
X0105033Y0202362D01*
X0103918D01*
X0103361Y0202920D01*
Y0204035D01*
X0104476D01*
X0125605Y0205150D02*
X0126162Y0205707D01*
X0127277D01*
X0127835Y0205150D01*
Y0202920D01*
X0127277Y0202362D01*
X0126162D01*
X0125605Y0202920D01*
Y0204035D01*
X0126720D01*
X0127638Y0211022D02*
Y0208792D01*
X0126523Y0207677D01*
X0125408Y0208792D01*
Y0211022D01*
X0105985Y0115747D02*
Y0112402D01*
X0104312D01*
X0103755Y0112960D01*
Y0115190D01*
X0104312Y0115747D01*
X0105985D01*
X0127638D02*
Y0112402D01*
X0125965D01*
X0125408Y0112960D01*
Y0115190D01*
X0125965Y0115747D01*
X0127638D01*
Y0215943D02*
Y0212598D01*
X0125965D01*
X0125408Y0213156D01*
Y0215386D01*
X0125965Y0215943D01*
X0127638D01*
X0105591D02*
Y0212598D01*
X0103918D01*
X0103361Y0213156D01*
Y0215386D01*
X0103918Y0215943D01*
X0105591D01*
X0103755Y0120308D02*
X0104312Y0120865D01*
X0105427D01*
X0105985Y0120308D01*
Y0118078D01*
X0105427Y0117520D01*
X0104312D01*
X0103755Y0118078D01*
X0125014Y0120701D02*
X0125571Y0121258D01*
X0126686D01*
X0127244Y0120701D01*
Y0118471D01*
X0126686Y0117913D01*
X0125571D01*
X0125014Y0118471D01*
X0125408Y0220505D02*
X0125965Y0221062D01*
X0127080D01*
X0127638Y0220505D01*
Y0218275D01*
X0127080Y0217717D01*
X0125965D01*
X0125408Y0218275D01*
X0103558Y0220701D02*
X0104115Y0221258D01*
X0105230D01*
X0105788Y0220701D01*
Y0218471D01*
X0105230Y0217913D01*
X0104115D01*
X0103558Y0218471D01*
X0103755Y0252394D02*
X0104312Y0252951D01*
X0105427D01*
X0105985Y0252394D01*
Y0250164D01*
X0105427Y0249606D01*
X0104312D01*
X0103755Y0250164D01*
X0125408Y0252394D02*
X0125965Y0252951D01*
X0127080D01*
X0127638Y0252394D01*
Y0250164D01*
X0127080Y0249606D01*
X0125965D01*
X0125408Y0250164D01*
Y0283890D02*
X0125965Y0284447D01*
X0127080D01*
X0127638Y0283890D01*
Y0281660D01*
X0127080Y0281102D01*
X0125965D01*
X0125408Y0281660D01*
X0103755Y0283300D02*
X0104312Y0283857D01*
X0105427D01*
X0105985Y0283300D01*
Y0281070D01*
X0105427Y0280512D01*
X0104312D01*
X0103755Y0281070D01*
X0105985Y0278739D02*
Y0275394D01*
X0104312D01*
X0103755Y0275952D01*
Y0278182D01*
X0104312Y0278739D01*
X0105985D01*
X0127638Y0278936D02*
Y0275591D01*
X0125965D01*
X0125408Y0276149D01*
Y0278379D01*
X0125965Y0278936D01*
X0127638D01*
X0105985Y0247439D02*
Y0244094D01*
X0104312D01*
X0103755Y0244652D01*
Y0246882D01*
X0104312Y0247439D01*
X0105985D01*
X0127638Y0247833D02*
Y0244488D01*
X0125965D01*
X0125408Y0245046D01*
Y0247276D01*
X0125965Y0247833D01*
X0127638D01*
X0106170Y0231688D02*
X0106727Y0232245D01*
X0107842D01*
X0108400Y0231688D01*
Y0231130D01*
X0107842Y0230573D01*
X0106727D01*
X0106170Y0230015D01*
Y0229458D01*
X0106727Y0228900D01*
X0107842D01*
X0108400Y0229458D01*
X0102824Y0232245D02*
X0105055D01*
Y0230573D01*
X0103939Y0231130D01*
X0103382D01*
X0102824Y0230573D01*
Y0229458D01*
X0103382Y0228900D01*
X0104497D01*
X0105055Y0229458D01*
X0125770Y0231788D02*
X0126327Y0232345D01*
X0127442D01*
X0128000Y0231788D01*
Y0231230D01*
X0127442Y0230673D01*
X0126327D01*
X0125770Y0230115D01*
Y0229558D01*
X0126327Y0229000D01*
X0127442D01*
X0128000Y0229558D01*
X0122424Y0232345D02*
X0124655D01*
Y0230673D01*
X0123539Y0231230D01*
X0122982D01*
X0122424Y0230673D01*
Y0229558D01*
X0122982Y0229000D01*
X0124097D01*
X0124655Y0229558D01*
X0105770Y0263288D02*
X0106327Y0263845D01*
X0107442D01*
X0108000Y0263288D01*
Y0262730D01*
X0107442Y0262173D01*
X0106327D01*
X0105770Y0261615D01*
Y0261058D01*
X0106327Y0260500D01*
X0107442D01*
X0108000Y0261058D01*
X0102424Y0263845D02*
X0103540Y0263288D01*
X0104655Y0262173D01*
Y0261058D01*
X0104097Y0260500D01*
X0102982D01*
X0102424Y0261058D01*
Y0261615D01*
X0102982Y0262173D01*
X0104655D01*
X0126470Y0263488D02*
X0127027Y0264045D01*
X0128142D01*
X0128700Y0263488D01*
Y0262930D01*
X0128142Y0262373D01*
X0127027D01*
X0126470Y0261815D01*
Y0261258D01*
X0127027Y0260700D01*
X0128142D01*
X0128700Y0261258D01*
X0123124Y0264045D02*
X0124240Y0263488D01*
X0125355Y0262373D01*
Y0261258D01*
X0124797Y0260700D01*
X0123682D01*
X0123124Y0261258D01*
Y0261815D01*
X0123682Y0262373D01*
X0125355D01*
X0125605Y0199835D02*
X0126162Y0200392D01*
X0127277D01*
X0127835Y0199835D01*
Y0199277D01*
X0127277Y0198720D01*
X0126162D01*
X0125605Y0198162D01*
Y0197605D01*
X0126162Y0197047D01*
X0127277D01*
X0127835Y0197605D01*
X0122817Y0197047D02*
Y0200392D01*
X0124490Y0198720D01*
X0122259D01*
X0104770Y0200288D02*
X0105327Y0200845D01*
X0106442D01*
X0107000Y0200288D01*
Y0199730D01*
X0106442Y0199173D01*
X0105327D01*
X0104770Y0198615D01*
Y0198058D01*
X0105327Y0197500D01*
X0106442D01*
X0107000Y0198058D01*
X0101982Y0197500D02*
Y0200845D01*
X0103655Y0199173D01*
X0101424D01*
X0106904Y0125820D02*
X0107461Y0126377D01*
X0108576D01*
X0109134Y0125820D01*
Y0125262D01*
X0108576Y0124705D01*
X0107461D01*
X0106904Y0124147D01*
Y0123590D01*
X0107461Y0123032D01*
X0108576D01*
X0109134Y0123590D01*
X0104116Y0123032D02*
Y0126377D01*
X0105789Y0124705D01*
X0103558D01*
X0126589Y0125820D02*
X0127146Y0126377D01*
X0128261D01*
X0128819Y0125820D01*
Y0125262D01*
X0128261Y0124705D01*
X0127146D01*
X0126589Y0124147D01*
Y0123590D01*
X0127146Y0123032D01*
X0128261D01*
X0128819Y0123590D01*
X0123801Y0123032D02*
Y0126377D01*
X0125474Y0124705D01*
X0123243D01*
X0126589Y0131331D02*
X0127146Y0131888D01*
X0128261D01*
X0128819Y0131331D01*
Y0130773D01*
X0128261Y0130216D01*
X0127146D01*
X0126589Y0129658D01*
Y0129101D01*
X0127146Y0128543D01*
X0128261D01*
X0128819Y0129101D01*
X0123243Y0131888D02*
X0125474D01*
Y0130216D01*
X0124358Y0130773D01*
X0123801D01*
X0123243Y0130216D01*
Y0129101D01*
X0123801Y0128543D01*
X0124916D01*
X0125474Y0129101D01*
X0106510Y0131331D02*
X0107067Y0131888D01*
X0108182D01*
X0108740Y0131331D01*
Y0130773D01*
X0108182Y0130216D01*
X0107067D01*
X0106510Y0129658D01*
Y0129101D01*
X0107067Y0128543D01*
X0108182D01*
X0108740Y0129101D01*
X0103164Y0131888D02*
X0105395D01*
Y0130216D01*
X0104279Y0130773D01*
X0103722D01*
X0103164Y0130216D01*
Y0129101D01*
X0103722Y0128543D01*
X0104837D01*
X0105395Y0129101D01*
X0125800Y0138670D02*
Y0140900D01*
X0123570Y0138670D01*
X0123012D01*
X0122455Y0139227D01*
Y0140342D01*
X0123012Y0140900D01*
X0118500Y0140300D02*
Y0139185D01*
Y0139742D01*
X0115155D01*
X0115712Y0140300D01*
X0108712Y0140800D02*
X0108155Y0140242D01*
Y0139127D01*
X0108712Y0138570D01*
X0110942D01*
X0111500Y0139127D01*
Y0140242D01*
X0110942Y0140800D01*
X0108712D01*
X0126786Y0257316D02*
X0127343Y0257873D01*
X0128458D01*
X0129016Y0257316D01*
Y0255086D01*
X0128458Y0254528D01*
X0127343D01*
X0126786Y0255086D01*
X0125671Y0256758D02*
Y0255086D01*
X0125113Y0254528D01*
X0123440D01*
Y0256758D01*
X0121768Y0257316D02*
Y0256758D01*
X0122325D01*
X0121210D01*
X0121768D01*
Y0255086D01*
X0121210Y0254528D01*
X0126983Y0225819D02*
X0127540Y0226376D01*
X0128655D01*
X0129213Y0225819D01*
Y0223589D01*
X0128655Y0223031D01*
X0127540D01*
X0126983Y0223589D01*
X0125868Y0225261D02*
Y0223589D01*
X0125310Y0223031D01*
X0123637D01*
Y0225261D01*
X0121965Y0225819D02*
Y0225261D01*
X0122522D01*
X0121407D01*
X0121965D01*
Y0223589D01*
X0121407Y0223031D01*
X0127573Y0194323D02*
X0128130Y0194880D01*
X0129245D01*
X0129803Y0194323D01*
Y0192093D01*
X0129245Y0191535D01*
X0128130D01*
X0127573Y0192093D01*
X0126458Y0193765D02*
Y0192093D01*
X0125900Y0191535D01*
X0124227D01*
Y0193765D01*
X0122555Y0194323D02*
Y0193765D01*
X0123112D01*
X0121997D01*
X0122555D01*
Y0192093D01*
X0121997Y0191535D01*
X0108085Y0225819D02*
X0108642Y0226376D01*
X0109757D01*
X0110315Y0225819D01*
Y0223589D01*
X0109757Y0223031D01*
X0108642D01*
X0108085Y0223589D01*
X0106970Y0225261D02*
Y0223589D01*
X0106412Y0223031D01*
X0104739D01*
Y0225261D01*
X0103067Y0225819D02*
Y0225261D01*
X0103624D01*
X0102509D01*
X0103067D01*
Y0223589D01*
X0102509Y0223031D01*
X0107692Y0194323D02*
X0108249Y0194880D01*
X0109364D01*
X0109922Y0194323D01*
Y0192093D01*
X0109364Y0191535D01*
X0108249D01*
X0107692Y0192093D01*
X0106577Y0193765D02*
Y0192093D01*
X0106019Y0191535D01*
X0104346D01*
Y0193765D01*
X0102674Y0194323D02*
Y0193765D01*
X0103231D01*
X0102116D01*
X0102674D01*
Y0192093D01*
X0102116Y0191535D01*
X0108085Y0257316D02*
X0108642Y0257873D01*
X0109757D01*
X0110315Y0257316D01*
Y0255086D01*
X0109757Y0254528D01*
X0108642D01*
X0108085Y0255086D01*
X0106970Y0256758D02*
Y0255086D01*
X0106412Y0254528D01*
X0104739D01*
Y0256758D01*
X0103067Y0257316D02*
Y0256758D01*
X0103624D01*
X0102509D01*
X0103067D01*
Y0255086D01*
X0102509Y0254528D01*
D43*
X0107455Y0153911D02*
Y0156011D01*
X0121155Y0153911D02*
X0123255D01*
Y0167611D02*
Y0169711D01*
X0121155D02*
X0123255D01*
Y0153911D02*
Y0156011D01*
X0107455Y0153911D02*
X0109555D01*
D44*
X0114607Y0145591D02*
Y0147973D01*
X0119803D01*
Y0145591D02*
Y0147973D01*
X0114607Y0141910D02*
Y0144508D01*
Y0141910D02*
X0119803D01*
Y0144292D01*
X0121694Y0145591D02*
Y0147973D01*
X0126890D01*
Y0145591D02*
Y0147973D01*
X0121694Y0141910D02*
Y0144508D01*
Y0141910D02*
X0126890D01*
Y0144292D01*
X0107520Y0145591D02*
Y0147973D01*
X0112716D01*
Y0145591D02*
Y0147973D01*
X0107520Y0141910D02*
Y0144508D01*
Y0141910D02*
X0112716D01*
Y0144292D01*
D45*
X0127338Y0179743D02*
X0126223D01*
X0126780D01*
Y0183088D01*
X0127338Y0182531D01*
X0124550D02*
X0123993Y0183088D01*
X0122878D01*
X0122320Y0182531D01*
Y0180301D01*
X0122878Y0179743D01*
X0123993D01*
X0124550Y0180301D01*
Y0182531D01*
X0121205Y0179743D02*
Y0180301D01*
X0120647D01*
Y0179743D01*
X0121205D01*
X0117859Y0181973D02*
X0116744D01*
X0116187Y0181416D01*
Y0179743D01*
X0117859D01*
X0118417Y0180301D01*
X0117859Y0180858D01*
X0116187D01*
X0127638Y0188188D02*
X0125408D01*
X0126523D01*
Y0184843D01*
X0123735Y0187073D02*
X0122620D01*
X0122062Y0186516D01*
Y0184843D01*
X0123735D01*
X0124293Y0185401D01*
X0123735Y0185958D01*
X0122062D01*
X0120947Y0184843D02*
Y0188188D01*
Y0185958D02*
X0119275Y0187073D01*
X0120947Y0185958D02*
X0119275Y0184843D01*
X0117602D02*
Y0188188D01*
Y0185958D02*
X0115929Y0187073D01*
X0117602Y0185958D02*
X0115929Y0184843D01*
X0114257Y0188188D02*
X0112026D01*
X0113141D01*
Y0184843D01*
X0110911D02*
X0109796D01*
X0110354D01*
Y0187073D01*
X0110911D01*
X0108123Y0184843D02*
X0107008D01*
X0107566D01*
Y0188188D01*
X0108123D01*
X0103663Y0184843D02*
X0104778D01*
X0105335Y0185401D01*
Y0186516D01*
X0104778Y0187073D01*
X0103663D01*
X0103105Y0186516D01*
Y0185958D01*
X0105335D01*
D46*
X0103427Y0148182D02*
Y0147345D01*
X0103845Y0146927D01*
X0105100D01*
Y0148182D01*
X0104682Y0148600D01*
X0104264Y0148182D01*
Y0146927D01*
X0102591Y0144418D02*
X0105100D01*
Y0145673D01*
X0104682Y0146091D01*
X0103845D01*
X0103427Y0145673D01*
Y0144418D01*
X0102591Y0141909D02*
X0105100D01*
Y0143163D01*
X0104682Y0143581D01*
X0103845D01*
X0103427Y0143163D01*
Y0141909D01*
Y0141072D02*
X0105100D01*
X0104264D01*
X0103845Y0140654D01*
X0103427Y0140236D01*
Y0139818D01*
M02*
