G04 Layer_Color=65535*
%FSLAX44Y44*%
%MOMM*%
G71*
G01*
G75*
%ADD13C,0.2540*%
%ADD26C,0.1016*%
%ADD27C,0.1270*%
%ADD28R,0.2499X0.2250*%
G36*
X55080Y84858D02*
X52080Y87857D01*
X55080D01*
Y84858D01*
D02*
G37*
G36*
X87920Y106184D02*
X84920D01*
Y109184D01*
X87920Y106184D01*
D02*
G37*
G36*
X55080Y136204D02*
X52080Y139204D01*
X55080D01*
Y136204D01*
D02*
G37*
G36*
X87920Y3491D02*
X84920D01*
Y6490D01*
X87920Y3491D01*
D02*
G37*
G36*
X55080Y33511D02*
X52080Y36511D01*
X55080D01*
Y33511D01*
D02*
G37*
G36*
X87920Y54837D02*
X84920D01*
Y57837D01*
X87920Y54837D01*
D02*
G37*
G36*
X55080Y238897D02*
X52080Y241897D01*
X55080D01*
Y238897D01*
D02*
G37*
G36*
X87920Y292489D02*
X84920D01*
Y295489D01*
X87920Y292489D01*
D02*
G37*
G36*
X55080Y322509D02*
X52080Y325509D01*
X55080D01*
Y322509D01*
D02*
G37*
G36*
X87920Y157531D02*
X84920D01*
Y160530D01*
X87920Y157531D01*
D02*
G37*
G36*
X55080Y187551D02*
X52080Y190551D01*
X55080D01*
Y187551D01*
D02*
G37*
G36*
X88419Y208877D02*
X85419D01*
Y211877D01*
X88419Y208877D01*
D02*
G37*
D13*
X73002Y60933D02*
Y63266D01*
Y62099D01*
X80000D01*
Y60933D01*
Y63266D01*
X74169Y71430D02*
X73002Y70263D01*
Y67931D01*
X74169Y66764D01*
X78834D01*
X80000Y67931D01*
Y70263D01*
X78834Y71430D01*
X80000Y73762D02*
Y76095D01*
Y74928D01*
X73002D01*
X74169Y73762D01*
X80000Y79594D02*
Y81926D01*
Y80760D01*
X73002D01*
X74169Y79594D01*
X73002Y8428D02*
Y10761D01*
Y9594D01*
X80000D01*
Y8428D01*
Y10761D01*
X74169Y18925D02*
X73002Y17758D01*
Y15426D01*
X74169Y14259D01*
X78834D01*
X80000Y15426D01*
Y17758D01*
X78834Y18925D01*
X80000Y21257D02*
Y23590D01*
Y22424D01*
X73002D01*
X74169Y21257D01*
X80000Y31754D02*
Y27089D01*
X75335Y31754D01*
X74169D01*
X73002Y30587D01*
Y28255D01*
X74169Y27089D01*
X66000Y89250D02*
Y96248D01*
X69499D01*
X70665Y95082D01*
Y92749D01*
X69499Y91583D01*
X66000D01*
X68333D02*
X70665Y89250D01*
X72998D02*
X75330D01*
X74164D01*
Y96248D01*
X72998Y95082D01*
X73002Y165181D02*
Y167513D01*
Y166347D01*
X80000D01*
Y165181D01*
Y167513D01*
X74169Y175677D02*
X73002Y174511D01*
Y172179D01*
X74169Y171012D01*
X78834D01*
X80000Y172179D01*
Y174511D01*
X78834Y175677D01*
Y178010D02*
X80000Y179176D01*
Y181509D01*
X78834Y182675D01*
X74169D01*
X73002Y181509D01*
Y179176D01*
X74169Y178010D01*
X75335D01*
X76501Y179176D01*
Y182675D01*
X73002Y111152D02*
Y113484D01*
Y112318D01*
X80000D01*
Y111152D01*
Y113484D01*
X74169Y121649D02*
X73002Y120482D01*
Y118150D01*
X74169Y116983D01*
X78834D01*
X80000Y118150D01*
Y120482D01*
X78834Y121649D01*
X80000Y123981D02*
Y126314D01*
Y125147D01*
X73002D01*
X74169Y123981D01*
Y129812D02*
X73002Y130979D01*
Y133311D01*
X74169Y134478D01*
X78834D01*
X80000Y133311D01*
Y130979D01*
X78834Y129812D01*
X74169D01*
X65998Y317000D02*
Y314667D01*
Y315834D01*
X59000D01*
Y317000D01*
Y314667D01*
X64832Y306503D02*
X65998Y307670D01*
Y310002D01*
X64832Y311169D01*
X60166D01*
X59000Y310002D01*
Y307670D01*
X60166Y306503D01*
X59000Y304171D02*
Y301838D01*
Y303004D01*
X65998D01*
X64832Y304171D01*
X67498Y234387D02*
Y232055D01*
Y233221D01*
X60500D01*
Y234387D01*
Y232055D01*
X66332Y223891D02*
X67498Y225057D01*
Y227390D01*
X66332Y228556D01*
X61666D01*
X60500Y227390D01*
Y225057D01*
X61666Y223891D01*
X60500Y216893D02*
Y221558D01*
X65165Y216893D01*
X66332D01*
X67498Y218059D01*
Y220392D01*
X66332Y221558D01*
X67498Y183070D02*
Y180737D01*
Y181903D01*
X60500D01*
Y183070D01*
Y180737D01*
X66332Y172573D02*
X67498Y173739D01*
Y176072D01*
X66332Y177238D01*
X61666D01*
X60500Y176072D01*
Y173739D01*
X61666Y172573D01*
X66332Y170241D02*
X67498Y169074D01*
Y166742D01*
X66332Y165575D01*
X65165D01*
X63999Y166742D01*
Y167908D01*
Y166742D01*
X62833Y165575D01*
X61666D01*
X60500Y166742D01*
Y169074D01*
X61666Y170241D01*
X67498Y131562D02*
Y129230D01*
Y130396D01*
X60500D01*
Y131562D01*
Y129230D01*
X66332Y121066D02*
X67498Y122232D01*
Y124565D01*
X66332Y125731D01*
X61666D01*
X60500Y124565D01*
Y122232D01*
X61666Y121066D01*
X60500Y115234D02*
X67498D01*
X63999Y118733D01*
Y114068D01*
X65998Y79984D02*
Y77652D01*
Y78818D01*
X59000D01*
Y79984D01*
Y77652D01*
X64832Y69488D02*
X65998Y70654D01*
Y72986D01*
X64832Y74153D01*
X60166D01*
X59000Y72986D01*
Y70654D01*
X60166Y69488D01*
X65998Y62490D02*
Y67155D01*
X62499D01*
X63665Y64822D01*
Y63656D01*
X62499Y62490D01*
X60166D01*
X59000Y63656D01*
Y65989D01*
X60166Y67155D01*
X65998Y28749D02*
Y26417D01*
Y27583D01*
X59000D01*
Y28749D01*
Y26417D01*
X64832Y18253D02*
X65998Y19419D01*
Y21752D01*
X64832Y22918D01*
X60166D01*
X59000Y21752D01*
Y19419D01*
X60166Y18253D01*
X65998Y11255D02*
X64832Y13588D01*
X62499Y15920D01*
X60166D01*
X59000Y14754D01*
Y12421D01*
X60166Y11255D01*
X61333D01*
X62499Y12421D01*
Y15920D01*
X73002Y300000D02*
Y302333D01*
Y301166D01*
X80000D01*
Y300000D01*
Y302333D01*
X74169Y310497D02*
X73002Y309330D01*
Y306998D01*
X74169Y305832D01*
X78834D01*
X80000Y306998D01*
Y309330D01*
X78834Y310497D01*
X73002Y312829D02*
Y317494D01*
X74169D01*
X78834Y312829D01*
X80000D01*
X73502Y216670D02*
Y219002D01*
Y217836D01*
X80499D01*
Y216670D01*
Y219002D01*
X74668Y227166D02*
X73502Y226000D01*
Y223668D01*
X74668Y222501D01*
X79333D01*
X80499Y223668D01*
Y226000D01*
X79333Y227166D01*
X74668Y229499D02*
X73502Y230665D01*
Y232998D01*
X74668Y234164D01*
X75834D01*
X77000Y232998D01*
X78167Y234164D01*
X79333D01*
X80499Y232998D01*
Y230665D01*
X79333Y229499D01*
X78167D01*
X77000Y230665D01*
X75834Y229499D01*
X74668D01*
X77000Y230665D02*
Y232998D01*
D26*
X84220Y59948D02*
G03*
X84220Y59948I-1270J0D01*
G01*
Y8601D02*
G03*
X84220Y8601I-1270J0D01*
G01*
Y162641D02*
G03*
X84220Y162641I-1270J0D01*
G01*
X58320Y320399D02*
G03*
X58320Y320399I-1270J0D01*
G01*
X58320Y236787D02*
G03*
X58320Y236787I-1270J0D01*
G01*
Y185440D02*
G03*
X58320Y185440I-1270J0D01*
G01*
Y134094D02*
G03*
X58320Y134094I-1270J0D01*
G01*
Y82747D02*
G03*
X58320Y82747I-1270J0D01*
G01*
Y31400D02*
G03*
X58320Y31400I-1270J0D01*
G01*
X84220Y297600D02*
G03*
X84220Y297600I-1270J0D01*
G01*
X84720Y213988D02*
G03*
X84720Y213988I-1270J0D01*
G01*
X84220Y111294D02*
G03*
X84220Y111294I-1270J0D01*
G01*
X68001Y145500D02*
X71999D01*
X68001Y152500D02*
X71999D01*
D27*
X128251Y71347D02*
G03*
X128251Y71347I-5001J0D01*
G01*
Y20001D02*
G03*
X128251Y20001I-5001J0D01*
G01*
Y174041D02*
G03*
X128251Y174041I-5001J0D01*
G01*
X21751Y308999D02*
G03*
X21751Y308999I-5001J0D01*
G01*
X21751Y225387D02*
G03*
X21751Y225387I-5001J0D01*
G01*
Y174041D02*
G03*
X21751Y174041I-5001J0D01*
G01*
Y122694D02*
G03*
X21751Y122694I-5001J0D01*
G01*
Y71347D02*
G03*
X21751Y71347I-5001J0D01*
G01*
Y20001D02*
G03*
X21751Y20001I-5001J0D01*
G01*
X128251Y308999D02*
G03*
X128251Y308999I-5001J0D01*
G01*
X128750Y225387D02*
G03*
X128750Y225387I-5001J0D01*
G01*
X128251Y122694D02*
G03*
X128251Y122694I-5001J0D01*
G01*
X86250Y56346D02*
Y86349D01*
X136249Y56346D02*
Y86349D01*
X86250Y4999D02*
Y35002D01*
X136249Y4999D02*
Y35002D01*
X86250Y159040D02*
Y189042D01*
X136249Y159040D02*
Y189042D01*
X3750Y293998D02*
Y324000D01*
X53750Y293998D02*
Y324000D01*
X3750Y210386D02*
Y240389D01*
X53750Y210386D02*
Y240389D01*
X3750Y159040D02*
Y189042D01*
X53750Y159040D02*
Y189042D01*
X3750Y107693D02*
Y137696D01*
X53750Y107693D02*
Y137696D01*
Y56346D02*
Y86349D01*
X3750Y56346D02*
Y86349D01*
X53750Y4999D02*
Y35002D01*
X3750Y4999D02*
Y35002D01*
X86250Y293998D02*
Y324000D01*
X136249Y293998D02*
Y324000D01*
X86749Y210386D02*
Y240389D01*
X136749Y210386D02*
Y240389D01*
X86250Y107693D02*
Y137696D01*
X136249Y107693D02*
Y137696D01*
D28*
X68750Y151875D02*
D03*
M02*
