G04 Layer_Color=2752767*
%FSLAX44Y44*%
%MOMM*%
G71*
G01*
G75*
%ADD46C,0.0508*%
%ADD47C,0.0677*%
D46*
X36218Y251507D02*
Y255571D01*
X40282D01*
Y251507D01*
X36218D01*
X48918D02*
Y255571D01*
X52982D01*
Y251507D01*
X48918D01*
X61618D02*
Y255571D01*
X65682D01*
Y251507D01*
X61618D01*
X74318D02*
Y255571D01*
X78382D01*
Y251507D01*
X74318D01*
X87018D02*
Y255571D01*
X91082D01*
Y251507D01*
X87018D01*
X99718D02*
Y255571D01*
X103782D01*
Y251507D01*
X99718D01*
X99368Y274968D02*
Y279032D01*
X103432D01*
Y274968D01*
X99368D01*
X86668D02*
Y279032D01*
X90732D01*
Y274968D01*
X86668D01*
X73968D02*
Y279032D01*
X78032D01*
Y274968D01*
X73968D01*
X61268D02*
Y279032D01*
X65332D01*
Y274968D01*
X61268D01*
X48568D02*
Y279032D01*
X52632D01*
Y274968D01*
X48568D01*
X35868D02*
Y279032D01*
X39932D01*
Y274968D01*
X35868D01*
D47*
X65282Y78000D02*
G03*
X65282Y78000I-2032J0D01*
G01*
X56782Y30500D02*
G03*
X56782Y30500I-2032J0D01*
G01*
X30032Y254000D02*
G03*
X30032Y254000I-2032J0D01*
G01*
X20032D02*
G03*
X20032Y254000I-2032J0D01*
G01*
X12032D02*
G03*
X12032Y254000I-2032J0D01*
G01*
X57032Y20000D02*
G03*
X57032Y20000I-2032J0D01*
G01*
X87786Y111756D02*
G03*
X87786Y111756I-2032J0D01*
G01*
X49531Y203000D02*
G03*
X49531Y203000I-2032J0D01*
G01*
X125782Y152500D02*
G03*
X125782Y152500I-2032J0D01*
G01*
X126288Y163008D02*
G03*
X126288Y163008I-2032J0D01*
G01*
X105037Y174009D02*
G03*
X105037Y174009I-2032J0D01*
G01*
X94032Y147250D02*
G03*
X94032Y147250I-2032J0D01*
G01*
X71532Y94750D02*
G03*
X71532Y94750I-2032J0D01*
G01*
X61785Y141007D02*
G03*
X61785Y141007I-2032J0D01*
G01*
X125782Y143500D02*
G03*
X125782Y143500I-2032J0D01*
G01*
X131782Y194250D02*
G03*
X131782Y194250I-2032J0D01*
G01*
X49532Y124250D02*
G03*
X49532Y124250I-2032J0D01*
G01*
X56091Y169760D02*
G03*
X56091Y169760I-2032J0D01*
G01*
X105037Y122756D02*
G03*
X105037Y122756I-2032J0D01*
G01*
X62282Y59886D02*
G03*
X62282Y59886I-2032J0D01*
G01*
X112787Y9251D02*
G03*
X112787Y9251I-2032J0D01*
G01*
X5032Y163000D02*
G03*
X5032Y163000I-2032J0D01*
G01*
X39032Y174000D02*
G03*
X39032Y174000I-2032J0D01*
G01*
X5032Y60347D02*
G03*
X5032Y60347I-2032J0D01*
G01*
X31032Y135300D02*
G03*
X31032Y135300I-2032J0D01*
G01*
X25032Y147000D02*
G03*
X25032Y147000I-2032J0D01*
G01*
X12032Y195000D02*
G03*
X12032Y195000I-2032J0D01*
G01*
X39032Y123000D02*
G03*
X39032Y123000I-2032J0D01*
G01*
X113032Y254000D02*
G03*
X113032Y254000I-2032J0D01*
G01*
X134032D02*
G03*
X134032Y254000I-2032J0D01*
G01*
X128032D02*
G03*
X128032Y254000I-2032J0D01*
G01*
X120032D02*
G03*
X120032Y254000I-2032J0D01*
G01*
X57032Y319999D02*
G03*
X57032Y319999I-2032J0D01*
G01*
X107531Y203000D02*
G03*
X107531Y203000I-2032J0D01*
G01*
X120032D02*
G03*
X120032Y203000I-2032J0D01*
G01*
X132530D02*
G03*
X132530Y203000I-2032J0D01*
G01*
X95032D02*
G03*
X95032Y203000I-2032J0D01*
G01*
X81938Y175268D02*
G03*
X81938Y175268I-2032J0D01*
G01*
X61032Y231000D02*
G03*
X61032Y231000I-2032J0D01*
G01*
X81938D02*
G03*
X81938Y231000I-2032J0D01*
G01*
X71032D02*
G03*
X71032Y231000I-2032J0D01*
G01*
X12032Y48000D02*
G03*
X12032Y48000I-2032J0D01*
G01*
X19032D02*
G03*
X19032Y48000I-2032J0D01*
G01*
X31032D02*
G03*
X31032Y48000I-2032J0D01*
G01*
X37032D02*
G03*
X37032Y48000I-2032J0D01*
G01*
X5032D02*
G03*
X5032Y48000I-2032J0D01*
G01*
X12032Y97000D02*
G03*
X12032Y97000I-2032J0D01*
G01*
X18032D02*
G03*
X18032Y97000I-2032J0D01*
G01*
X12032Y203000D02*
G03*
X12032Y203000I-2032J0D01*
G01*
X30032Y282000D02*
G03*
X30032Y282000I-2032J0D01*
G01*
X10032D02*
G03*
X10032Y282000I-2032J0D01*
G01*
X83032Y309000D02*
G03*
X83032Y309000I-2032J0D01*
G01*
Y298500D02*
G03*
X83032Y298500I-2032J0D01*
G01*
X127032Y281500D02*
G03*
X127032Y281500I-2032J0D01*
G01*
X137282D02*
G03*
X137282Y281500I-2032J0D01*
G01*
X117532D02*
G03*
X117532Y281500I-2032J0D01*
G01*
X25032Y195000D02*
G03*
X25032Y195000I-2032J0D01*
G01*
X5032Y146750D02*
G03*
X5032Y146750I-2032J0D01*
G01*
Y97000D02*
G03*
X5032Y97000I-2032J0D01*
G01*
X37032Y96500D02*
G03*
X37032Y96500I-2032J0D01*
G01*
X88282Y97500D02*
G03*
X88282Y97500I-2032J0D01*
G01*
X100032Y9000D02*
G03*
X100032Y9000I-2032J0D01*
G01*
X105037Y71253D02*
G03*
X105037Y71253I-2032J0D01*
G01*
X90532Y71000D02*
G03*
X90532Y71000I-2032J0D01*
G01*
X88032Y31000D02*
G03*
X88032Y31000I-2032J0D01*
G01*
X82532Y40074D02*
G03*
X82532Y40074I-2032J0D01*
G01*
X101092Y31000D02*
G03*
X101092Y31000I-2032J0D01*
G01*
X82536Y56253D02*
G03*
X82536Y56253I-2032J0D01*
G01*
Y50000D02*
G03*
X82536Y50000I-2032J0D01*
G01*
X119532Y49000D02*
G03*
X119532Y49000I-2032J0D01*
G01*
X57032Y9000D02*
G03*
X57032Y9000I-2032J0D01*
G01*
X128221Y91409D02*
G03*
X128221Y91409I-2032J0D01*
G01*
X128032Y98500D02*
G03*
X128032Y98500I-2032J0D01*
G01*
X119282D02*
G03*
X119282Y98500I-2032J0D01*
G01*
X57032Y310750D02*
G03*
X57032Y310750I-2032J0D01*
G01*
X129282Y48250D02*
G03*
X129282Y48250I-2032J0D01*
G01*
X19032Y282000D02*
G03*
X19032Y282000I-2032J0D01*
G01*
M02*
