G04 Layer_Color=16711935*
%FSLAX43Y43*%
%MOMM*%
G71*
G01*
G75*
%ADD14C,0.160*%
%ADD16C,0.100*%
D14*
X637Y0D02*
X13500D01*
X14000Y500D02*
Y637D01*
Y25500D01*
X10450Y26000D02*
X13500D01*
X10000Y26450D02*
Y26500D01*
X10500Y27000D02*
X13500D01*
X14000Y27500D02*
Y32500D01*
X13363Y33000D02*
X13500D01*
X400D02*
X13363D01*
X-0Y27500D02*
Y32600D01*
X500Y27000D02*
X3500D01*
X4000Y26450D02*
Y26500D01*
X500Y26000D02*
X3550D01*
X-0Y25363D02*
Y25500D01*
Y637D02*
Y25363D01*
D16*
X13500Y0D02*
G03*
X14000Y500I0J500D01*
G01*
Y25500D02*
G03*
X13500Y26000I-500J0D01*
G01*
X10000Y26450D02*
G03*
X10450Y26000I450J0D01*
G01*
X10500Y27000D02*
G03*
X10000Y26500I0J-500D01*
G01*
X13500Y27000D02*
G03*
X14000Y27500I0J500D01*
G01*
Y32500D02*
G03*
X13500Y33000I-500J0D01*
G01*
X400D02*
G03*
X0Y32600I0J-400D01*
G01*
Y27500D02*
G03*
X500Y27000I500J0D01*
G01*
X4000Y26500D02*
G03*
X3500Y27000I-500J0D01*
G01*
X3550Y26000D02*
G03*
X4000Y26450I0J450D01*
G01*
X500Y26000D02*
G03*
X0Y25500I0J-500D01*
G01*
Y637D02*
G03*
X637Y0I637J0D01*
G01*
M02*
