G04 Layer_Color=8388736*
%FSLAX44Y44*%
%MOMM*%
G71*
G01*
G75*
%ADD29R,0.6515X1.1516*%
%ADD30R,0.9017X0.9017*%
%ADD31R,1.0015X0.8016*%
%ADD32C,1.1016*%
%ADD33R,1.1016X1.1016*%
%ADD34C,0.5588*%
D29*
X129999Y60347D02*
D03*
X117499D02*
D03*
X92500D02*
D03*
X105000D02*
D03*
X92500Y82348D02*
D03*
X129999D02*
D03*
X117499D02*
D03*
X105000D02*
D03*
X129999Y9000D02*
D03*
X117499D02*
D03*
X92500D02*
D03*
X105000D02*
D03*
X92500Y31001D02*
D03*
X129999D02*
D03*
X117499D02*
D03*
X105000D02*
D03*
X35000Y163040D02*
D03*
X22501D02*
D03*
X10001D02*
D03*
X47499D02*
D03*
X35000Y185042D02*
D03*
X47499D02*
D03*
X22501D02*
D03*
X10001D02*
D03*
X35000Y111693D02*
D03*
X22501D02*
D03*
X10001D02*
D03*
X47499D02*
D03*
X35000Y133695D02*
D03*
X47499D02*
D03*
X22501D02*
D03*
X10001D02*
D03*
X35000Y214387D02*
D03*
X22501D02*
D03*
X10001D02*
D03*
X47499D02*
D03*
X35000Y236388D02*
D03*
X47499D02*
D03*
X22501D02*
D03*
X10001D02*
D03*
X35000Y297998D02*
D03*
X22501D02*
D03*
X10001D02*
D03*
X47499D02*
D03*
X35000Y320000D02*
D03*
X47499D02*
D03*
X22501D02*
D03*
X10001D02*
D03*
X129999Y163040D02*
D03*
X117499D02*
D03*
X92500D02*
D03*
X105000D02*
D03*
X92500Y185042D02*
D03*
X129999D02*
D03*
X117499D02*
D03*
X105000D02*
D03*
X10001Y31001D02*
D03*
X22501D02*
D03*
X47499D02*
D03*
X35000D02*
D03*
X47499Y9000D02*
D03*
X10001D02*
D03*
X22501D02*
D03*
X35000D02*
D03*
X10001Y82348D02*
D03*
X22501D02*
D03*
X47499D02*
D03*
X35000D02*
D03*
X47499Y60347D02*
D03*
X10001D02*
D03*
X22501D02*
D03*
X35000D02*
D03*
X129999Y297998D02*
D03*
X117499D02*
D03*
X92500D02*
D03*
X105000D02*
D03*
X92500Y320000D02*
D03*
X129999D02*
D03*
X117499D02*
D03*
X105000D02*
D03*
X130498Y214387D02*
D03*
X117999D02*
D03*
X93000D02*
D03*
X105499D02*
D03*
X93000Y236388D02*
D03*
X130498D02*
D03*
X117999D02*
D03*
X105499D02*
D03*
X129999Y111693D02*
D03*
X117499D02*
D03*
X92500D02*
D03*
X105000D02*
D03*
X92500Y133695D02*
D03*
X129999D02*
D03*
X117499D02*
D03*
X105000D02*
D03*
D30*
X62499Y149000D02*
D03*
X77501D02*
D03*
D31*
X70000Y115500D02*
D03*
Y102500D02*
D03*
D32*
X38250Y253539D02*
D03*
X50950D02*
D03*
X63650D02*
D03*
X76350D02*
D03*
X89050D02*
D03*
X88700Y277000D02*
D03*
X76000D02*
D03*
X63300D02*
D03*
X50600D02*
D03*
X37900D02*
D03*
D33*
X101750Y253539D02*
D03*
X101400Y277000D02*
D03*
D34*
X63250Y78000D02*
D03*
X54750Y30500D02*
D03*
X28000Y254000D02*
D03*
X18000D02*
D03*
X10000D02*
D03*
X55000Y20000D02*
D03*
X85754Y111756D02*
D03*
X47499Y203000D02*
D03*
X123750Y152500D02*
D03*
X124256Y163008D02*
D03*
X103005Y174009D02*
D03*
X92000Y147250D02*
D03*
X69500Y94750D02*
D03*
X59753Y141007D02*
D03*
X123750Y143500D02*
D03*
X129750Y194250D02*
D03*
X47500Y124250D02*
D03*
X54059Y169760D02*
D03*
X103005Y122756D02*
D03*
X60250Y59886D02*
D03*
X110755Y9251D02*
D03*
X3000Y163000D02*
D03*
X37000Y174000D02*
D03*
X3000Y60347D02*
D03*
X29000Y135300D02*
D03*
X23000Y147000D02*
D03*
X10000Y195000D02*
D03*
X37000Y123000D02*
D03*
X111000Y254000D02*
D03*
X132000D02*
D03*
X126000D02*
D03*
X118000D02*
D03*
X55000Y319999D02*
D03*
X105499Y203000D02*
D03*
X118000D02*
D03*
X130498D02*
D03*
X93000D02*
D03*
X79906Y175268D02*
D03*
X59000Y231000D02*
D03*
X79906D02*
D03*
X69000D02*
D03*
X10000Y48000D02*
D03*
X17000D02*
D03*
X29000D02*
D03*
X35000D02*
D03*
X3000D02*
D03*
X10000Y97000D02*
D03*
X16000D02*
D03*
X10000Y203000D02*
D03*
X28000Y282000D02*
D03*
X8000D02*
D03*
X81000Y309000D02*
D03*
Y298500D02*
D03*
X125000Y281500D02*
D03*
X135250D02*
D03*
X115500D02*
D03*
X23000Y195000D02*
D03*
X3000Y146750D02*
D03*
Y97000D02*
D03*
X35000Y96500D02*
D03*
X86250Y97500D02*
D03*
X98000Y9000D02*
D03*
X103005Y71253D02*
D03*
X88500Y71000D02*
D03*
X86000Y31000D02*
D03*
X80500Y40074D02*
D03*
X99060Y31000D02*
D03*
X80504Y56253D02*
D03*
Y50000D02*
D03*
X117500Y49000D02*
D03*
X55000Y9000D02*
D03*
X126188Y91409D02*
D03*
X126000Y98500D02*
D03*
X117250D02*
D03*
X55000Y310750D02*
D03*
X127250Y48250D02*
D03*
X17000Y282000D02*
D03*
M02*
