G04 Layer_Color=8388736*
%FSLAX43Y43*%
%MOMM*%
G71*
G01*
G75*
%ADD14C,0.160*%
%ADD16C,0.100*%
%ADD30R,0.652X1.152*%
%ADD31R,1.002X0.802*%
%ADD32R,0.902X0.902*%
%ADD33C,1.102*%
%ADD34R,1.102X1.102*%
%ADD35C,0.602*%
D14*
X637Y0D02*
X13500D01*
X14000Y500D02*
Y637D01*
Y25500D01*
X10450Y26000D02*
X13500D01*
X10000Y26450D02*
Y26500D01*
X10500Y27000D02*
X13500D01*
X14000Y27500D02*
Y32500D01*
X13363Y33000D02*
X13500D01*
X400D02*
X13363D01*
X-0Y27500D02*
Y32600D01*
X500Y27000D02*
X3500D01*
X4000Y26450D02*
Y26500D01*
X500Y26000D02*
X3550D01*
X-0Y25363D02*
Y25500D01*
Y637D02*
Y25363D01*
D16*
X13500Y0D02*
G03*
X14000Y500I0J500D01*
G01*
Y25500D02*
G03*
X13500Y26000I-500J0D01*
G01*
X10000Y26450D02*
G03*
X10450Y26000I450J0D01*
G01*
X10500Y27000D02*
G03*
X10000Y26500I0J-500D01*
G01*
X13500Y27000D02*
G03*
X14000Y27500I0J500D01*
G01*
Y32500D02*
G03*
X13500Y33000I-500J0D01*
G01*
X400D02*
G03*
X0Y32600I0J-400D01*
G01*
Y27500D02*
G03*
X500Y27000I500J0D01*
G01*
X4000Y26500D02*
G03*
X3500Y27000I-500J0D01*
G01*
X3550Y26000D02*
G03*
X4000Y26450I0J450D01*
G01*
X500Y26000D02*
G03*
X0Y25500I0J-500D01*
G01*
Y637D02*
G03*
X637Y0I637J0D01*
G01*
D30*
X13000Y6035D02*
D03*
X11750D02*
D03*
X9250D02*
D03*
X10500D02*
D03*
X9250Y8235D02*
D03*
X13000D02*
D03*
X11750D02*
D03*
X10500D02*
D03*
X13000Y900D02*
D03*
X11750D02*
D03*
X9250D02*
D03*
X10500D02*
D03*
X9250Y3100D02*
D03*
X13000D02*
D03*
X11750D02*
D03*
X10500D02*
D03*
X3500Y16304D02*
D03*
X2250D02*
D03*
X1000D02*
D03*
X4750D02*
D03*
X3500Y18504D02*
D03*
X4750D02*
D03*
X2250D02*
D03*
X1000D02*
D03*
X3500Y11169D02*
D03*
X2250D02*
D03*
X1000D02*
D03*
X4750D02*
D03*
X3500Y13370D02*
D03*
X4750D02*
D03*
X2250D02*
D03*
X1000D02*
D03*
X3500Y21350D02*
D03*
X2250D02*
D03*
X1000D02*
D03*
X4750D02*
D03*
X3500Y23550D02*
D03*
X4750D02*
D03*
X2250D02*
D03*
X1000D02*
D03*
X3500Y29800D02*
D03*
X2250D02*
D03*
X1000D02*
D03*
X4750D02*
D03*
X3500Y32000D02*
D03*
X4750D02*
D03*
X2250D02*
D03*
X1000D02*
D03*
X13000Y16304D02*
D03*
X11750D02*
D03*
X9250D02*
D03*
X10500D02*
D03*
X9250Y18504D02*
D03*
X13000D02*
D03*
X11750D02*
D03*
X10500D02*
D03*
X1000Y3150D02*
D03*
X2250D02*
D03*
X4750D02*
D03*
X3500D02*
D03*
X4750Y950D02*
D03*
X1000D02*
D03*
X2250D02*
D03*
X3500D02*
D03*
X1000Y8235D02*
D03*
X2250D02*
D03*
X4750D02*
D03*
X3500D02*
D03*
X4750Y6035D02*
D03*
X1000D02*
D03*
X2250D02*
D03*
X3500D02*
D03*
X13000Y29800D02*
D03*
X11750D02*
D03*
X9250D02*
D03*
X10500D02*
D03*
X9250Y32000D02*
D03*
X13000D02*
D03*
X11750D02*
D03*
X10500D02*
D03*
X13000Y11125D02*
D03*
X11750D02*
D03*
X9250D02*
D03*
X10500D02*
D03*
X9250Y13325D02*
D03*
X13000D02*
D03*
X11750D02*
D03*
X10500D02*
D03*
X13050Y21350D02*
D03*
X11800D02*
D03*
X9300D02*
D03*
X10550D02*
D03*
X9300Y23550D02*
D03*
X13050D02*
D03*
X11800D02*
D03*
X10550D02*
D03*
D31*
X7000Y11550D02*
D03*
Y10250D02*
D03*
D32*
X6250Y14900D02*
D03*
X7750D02*
D03*
D33*
X3825Y25050D02*
D03*
X5095D02*
D03*
X6365D02*
D03*
X7635D02*
D03*
X8905D02*
D03*
Y27900D02*
D03*
X7635D02*
D03*
X6365D02*
D03*
X5095D02*
D03*
X3825D02*
D03*
D34*
X10175Y25050D02*
D03*
Y27900D02*
D03*
D35*
X8250Y23575D02*
D03*
X8522Y21776D02*
D03*
X11000Y19725D02*
D03*
X5000Y20275D02*
D03*
X3000Y20351D02*
D03*
X4391Y10178D02*
D03*
X4108Y7474D02*
D03*
X7775Y28975D02*
D03*
X6025Y29625D02*
D03*
X950Y14775D02*
D03*
X3775Y17375D02*
D03*
X12241Y28584D02*
D03*
X8425Y30900D02*
D03*
X6330D02*
D03*
X1675Y28575D02*
D03*
X2250Y4258D02*
D03*
X8425Y29800D02*
D03*
X5550Y31950D02*
D03*
X975Y5075D02*
D03*
X1000Y10150D02*
D03*
X2250Y9200D02*
D03*
Y24550D02*
D03*
X750Y31052D02*
D03*
X3750Y30900D02*
D03*
X10250Y17400D02*
D03*
X11400Y9725D02*
D03*
X10275Y12275D02*
D03*
X10625Y14575D02*
D03*
X1000Y4100D02*
D03*
X6525Y23500D02*
D03*
X4150Y4600D02*
D03*
X2971Y5000D02*
D03*
X12200Y19986D02*
D03*
X8550Y20376D02*
D03*
Y2825D02*
D03*
X8432Y1203D02*
D03*
X13000Y4125D02*
D03*
X10276Y1850D02*
D03*
X11775Y24800D02*
D03*
X2250Y14301D02*
D03*
X3702Y12442D02*
D03*
X3725Y22476D02*
D03*
X2250Y19647D02*
D03*
X979Y20018D02*
D03*
X3775Y2025D02*
D03*
X11764Y14875D02*
D03*
X7111Y1025D02*
D03*
X7525Y7750D02*
D03*
X13075Y4950D02*
D03*
X11675Y5025D02*
D03*
X10701Y5100D02*
D03*
X8550Y7350D02*
D03*
X9250Y9175D02*
D03*
X9950Y9875D02*
D03*
X5575Y10725D02*
D03*
X5427Y11378D02*
D03*
X3825Y14850D02*
D03*
X6000Y1125D02*
D03*
X4650Y9175D02*
D03*
X3325Y9975D02*
D03*
X10275Y22550D02*
D03*
X5427Y16166D02*
D03*
X6525Y15776D02*
D03*
X10276Y30751D02*
D03*
X12550Y24650D02*
D03*
X5525Y14175D02*
D03*
M02*
