M48
;Layer_Color=9474304
;FILE_FORMAT=4:3
METRIC,LZ
T3F00S00C0.200
%
G90
G05
T03
G00X00139Y00269
M15
G01X001042Y00269
G01X0010273Y0026839
G01X0010161Y0026727
G01X00101Y002658
G01X00101Y002642
G01X0010161Y0026273
G01X0010273Y0026161
G01X001042Y00261
G01X00139Y00261
G01X00139Y00269
M16
G00X0003727Y0026161
M15
G01X0003839Y0026273
G01X00039Y002642
G01X00039Y002658
G01X0003839Y0026727
G01X0003727Y0026839
G01X000358Y00269
G01X00001Y00269
G01X00001Y00261
G01X000358Y00261
G01X0003727Y0026161
M16
G00X0008727Y0026161
M15
G01X0008839Y0026273
G01X00089Y002642
G01X00089Y002658
G01X0008839Y0026727
G01X0008727Y0026839
G01X000858Y00269
G01X000792Y00269
G01X0007773Y0026839
G01X0007661Y0026727
G01X00076Y002658
G01X00076Y002642
G01X0007661Y0026273
G01X0007773Y0026161
G01X000792Y00261
G01X000858Y00261
G01X0008727Y0026161
M16
G00X0006227Y0026161
M15
G01X0006339Y0026273
G01X00064Y002642
G01X00064Y002658
G01X0006339Y0026727
G01X0006227Y0026839
G01X000608Y00269
G01X000542Y00269
G01X0005273Y0026839
G01X0005161Y0026727
G01X00051Y002658
G01X00051Y002642
G01X0005161Y0026273
G01X0005273Y0026161
G01X000542Y00261
G01X000608Y00261
G01X0006227Y0026161
M16
G00X0013476Y-00001
M15
G01X001352Y-0000108
G01X0013751Y-0000054
G01X0013944Y0000084
G01X0014069Y0000285
G01X001411Y00005
G01X00141Y0025476
G01X0014108Y002552
G01X0014054Y0025751
G01X0013916Y0025944
G01X0013715Y0026069
G01X00135Y002611
G01X001045Y00261
G01X0010441Y0026095
G01X0010314Y002612
G01X0010198Y0026198
G01X001012Y0026314
G01X0010093Y0026451
G01X0010098Y0026483
G01X0010092Y00265
G01X0010123Y0026656
G01X0010212Y0026788
G01X0010344Y0026877
G01X001051Y002691
G01X0013475Y00269
G01X001352Y0026892
G01X0013751Y0026946
G01X0013944Y0027084
G01X0014069Y0027285
G01X001411Y00275
G01X00141Y0032476
G01X0014108Y003252
G01X0014054Y0032751
G01X0013916Y0032944
G01X0013715Y0033069
G01X00135Y003311
G01X0000413Y00331
G01X000038Y0033106
G01X0000188Y003306
G01X0000028Y0032944
G01X-0000075Y0032776
G01X-0000108Y00326
G01X-00001Y0027524
G01X-0000108Y002748
G01X-0000054Y0027249
G01X0000084Y0027056
G01X0000285Y0026931
G01X00005Y002689
G01X00035Y00269
G01X0003511Y0026906
G01X0003656Y0026877
G01X0003788Y0026788
G01X0003877Y0026656
G01X0003908Y00265
G01X0003902Y002647
G01X0003907Y0026453
G01X000388Y0026314
G01X0003802Y0026198
G01X0003686Y002612
G01X000354Y0026091
G01X0000525Y00261
G01X000048Y0026108
G01X0000249Y0026054
G01X0000056Y0025916
G01X-0000069Y0025715
G01X-000011Y00255
G01X-00001Y0000677
G01X-0000111Y0000618
G01X-0000046Y0000333
G01X0000122Y0000095
G01X0000369Y-0000061
G01X0000638Y-0000112
G01X0013476Y-00001
M16
M17
M30
