M48
;Layer_Color=9474304
;FILE_FORMAT=4:3
METRIC,LZ
;TYPE=PLATED
T1F00S00C0.300
T2F00S00C0.500
%
T01
X0001Y00041
X0000975Y0005075
X0002971Y0005
X000225Y0004258
X000415Y00046
X0004108Y0007474
X000465Y0009175
X0004391Y0010178
X0003325Y0009975
X000225Y00092
X0001Y001015
X000095Y0014775
X000225Y0014301
X0003825Y001485
X0005525Y0014175
X0005427Y0011378
X0005575Y0010725
X0003702Y0012442
X0010275Y0012275
X0010625Y0014575
X0011764Y0014875
X00114Y0009725
X000995Y0009875
X000925Y0009175
X000855Y000735
X0007525Y000775
X0010701Y00051
X0011675Y0005025
X0013075Y000495
X0013Y0004125
X0010276Y000185
X0008432Y0001203
X0007111Y0001025
X0006Y0001125
X0003775Y0002025
X000855Y0002825
X0006525Y0015776
X0005427Y0016166
X0003775Y0017375
X0003Y0020351
X000225Y0019647
X0000979Y0020018
X0005Y0020275
X0003725Y0022476
X000225Y002455
X0001675Y0028575
X000075Y0031052
X000375Y00309
X000633Y00309
X0006025Y0029625
X0007775Y0028975
X0008425Y00298
Y00309
X0010276Y0030751
X0012241Y0028584
X001255Y002465
X0011775Y00248
X0010275Y002255
X0008522Y0021776
X000855Y0020376
X0011Y0019725
X00122Y0019986
X001025Y00174
X000825Y0023575
X0006525Y00235
X000555Y003195
T02
X0003825Y002505
X0005095
X0006365
X0007635
X0008905
X0010175
Y00279
X0008905
X0007635
X0006365
X0005095
X0003825
M30
