G04 Layer_Physical_Order=2*
G04 Layer_Color=32768*
%FSLAX44Y44*%
%MOMM*%
G71*
G01*
G75*
%ADD17C,1.0160*%
%ADD18C,1.5160*%
%ADD19C,1.2700*%
G36*
X96Y274025D02*
X843Y272222D01*
X2222Y270843D01*
X4024Y270096D01*
X5000Y270000D01*
X35995D01*
X37832Y269239D01*
X39239Y267832D01*
X40000Y265994D01*
Y265000D01*
Y264005D01*
X39239Y262168D01*
X37832Y260761D01*
X35995Y260000D01*
X5000D01*
X4024Y259904D01*
X2222Y259157D01*
X843Y257778D01*
X96Y255975D01*
X0Y255000D01*
Y260000D01*
Y270000D01*
Y275000D01*
X96Y274025D01*
D02*
G37*
G36*
X140000Y270000D02*
Y260000D01*
Y255000D01*
X139904Y255975D01*
X139157Y257778D01*
X137778Y259157D01*
X135975Y259904D01*
X135000Y260000D01*
X104005D01*
X102168Y260761D01*
X100761Y262168D01*
X100000Y264005D01*
Y265000D01*
Y265994D01*
X100761Y267832D01*
X102168Y269239D01*
X104005Y270000D01*
X135000D01*
X135975Y270096D01*
X137778Y270843D01*
X139157Y272222D01*
X139904Y274025D01*
X140000Y275000D01*
Y270000D01*
D02*
G37*
G36*
X96Y4024D02*
X843Y2222D01*
X2222Y843D01*
X4024Y96D01*
X5000Y0D01*
X0D01*
Y5000D01*
X96Y4024D01*
D02*
G37*
G36*
X140000Y0D02*
X135000D01*
X135975Y96D01*
X137778Y843D01*
X139157Y2222D01*
X139904Y4024D01*
X140000Y5000D01*
Y0D01*
D02*
G37*
G36*
Y325000D02*
X139904Y325975D01*
X139157Y327778D01*
X137778Y329157D01*
X135975Y329904D01*
X135000Y330000D01*
X140000D01*
Y325000D01*
D02*
G37*
G36*
X3220Y329923D02*
X1778Y329326D01*
X674Y328222D01*
X77Y326780D01*
X0Y326000D01*
Y330000D01*
X4000D01*
X3220Y329923D01*
D02*
G37*
G36*
X62832Y269239D02*
X64239Y267832D01*
X65000Y265994D01*
Y265000D01*
Y264005D01*
X64239Y262168D01*
X62832Y260761D01*
X60995Y260000D01*
X54005D01*
X52168Y260761D01*
X50761Y262168D01*
X50000Y264005D01*
Y265000D01*
Y265994D01*
X50761Y267832D01*
X52168Y269239D01*
X54005Y270000D01*
X60995D01*
X62832Y269239D01*
D02*
G37*
G36*
X87832D02*
X89239Y267832D01*
X90000Y265994D01*
Y265000D01*
Y264005D01*
X89239Y262168D01*
X87832Y260761D01*
X85995Y260000D01*
X79005D01*
X77168Y260761D01*
X75761Y262168D01*
X75000Y264005D01*
Y265000D01*
Y265994D01*
X75761Y267832D01*
X77168Y269239D01*
X79005Y270000D01*
X85995D01*
X87832Y269239D01*
D02*
G37*
D17*
X60995Y270000D02*
X62832Y269239D01*
X64239Y267832D01*
X65000Y265994D01*
Y265000D02*
Y265994D01*
Y264005D02*
Y265000D01*
X64239Y262168D02*
X65000Y264005D01*
X62832Y260761D02*
X64239Y262168D01*
X60995Y260000D02*
X62832Y260761D01*
X54005Y260000D02*
X60995D01*
X52168Y260761D02*
X54005Y260000D01*
X50761Y262168D02*
X52168Y260761D01*
X50000Y264005D02*
X50761Y262168D01*
X50000Y264005D02*
Y265000D01*
Y265994D01*
X50761Y267832D01*
X52168Y269239D01*
X54005Y270000D01*
X60995D01*
X85995D02*
X87832Y269239D01*
X89239Y267832D01*
X90000Y265994D01*
Y265000D02*
Y265994D01*
Y264005D02*
Y265000D01*
X89239Y262168D02*
X90000Y264005D01*
X87832Y260761D02*
X89239Y262168D01*
X85995Y260000D02*
X87832Y260761D01*
X79005Y260000D02*
X85995D01*
X77168Y260761D02*
X79005Y260000D01*
X75761Y262168D02*
X77168Y260761D01*
X75000Y264005D02*
X75761Y262168D01*
X75000Y264005D02*
Y265000D01*
Y265994D01*
X75761Y267832D01*
X77168Y269239D01*
X79005Y270000D01*
X85995D01*
X135000Y330000D02*
X135975Y329904D01*
X4000Y330000D02*
X135000D01*
X3220Y329923D02*
X4000Y330000D01*
X1778Y329326D02*
X3220Y329923D01*
X674Y328222D02*
X1778Y329326D01*
X77Y326780D02*
X674Y328222D01*
X0Y326000D02*
X77Y326780D01*
X0Y275000D02*
Y326000D01*
Y275000D02*
X96Y274025D01*
X843Y272222D01*
X2222Y270843D01*
X4024Y270096D01*
X5000Y270000D01*
X35995D01*
X37832Y269239D01*
X39239Y267832D01*
X40000Y265994D01*
Y265000D02*
Y265994D01*
Y264005D02*
Y265000D01*
X39239Y262168D02*
X40000Y264005D01*
X37832Y260761D02*
X39239Y262168D01*
X35995Y260000D02*
X37832Y260761D01*
X5000Y260000D02*
X35995D01*
X4024Y259904D02*
X5000Y260000D01*
X2222Y259157D02*
X4024Y259904D01*
X843Y257778D02*
X2222Y259157D01*
X96Y255975D02*
X843Y257778D01*
X0Y255000D02*
X96Y255975D01*
X0Y5000D02*
Y255000D01*
Y5000D02*
X96Y4024D01*
X843Y2222D01*
X2222Y843D01*
X4024Y96D01*
X5000Y0D01*
X135000D01*
X135975Y96D01*
X137778Y843D01*
X139157Y2222D01*
X139904Y4024D01*
X140000Y5000D01*
Y255000D01*
X139904Y255975D02*
X140000Y255000D01*
X139157Y257778D02*
X139904Y255975D01*
X137778Y259157D02*
X139157Y257778D01*
X135975Y259904D02*
X137778Y259157D01*
X135000Y260000D02*
X135975Y259904D01*
X104005Y260000D02*
X135000D01*
X102168Y260761D02*
X104005Y260000D01*
X100761Y262168D02*
X102168Y260761D01*
X100000Y264005D02*
X100761Y262168D01*
X100000Y264005D02*
Y265000D01*
Y265994D01*
X100761Y267832D01*
X102168Y269239D01*
X104005Y270000D01*
X135000D01*
X135975Y270096D01*
X137778Y270843D01*
X139157Y272222D01*
X139904Y274025D01*
X140000Y275000D01*
Y325000D01*
X139904Y325975D02*
X140000Y325000D01*
X139157Y327778D02*
X139904Y325975D01*
X137778Y329157D02*
X139157Y327778D01*
X135975Y329904D02*
X137778Y329157D01*
D18*
X38250Y253539D02*
D03*
X50950D02*
D03*
X63650D02*
D03*
X76350D02*
D03*
X89050D02*
D03*
X88700Y277000D02*
D03*
X76000D02*
D03*
X63300D02*
D03*
X50600D02*
D03*
X37900D02*
D03*
D19*
X63250Y78000D02*
D03*
X54750Y30500D02*
D03*
X28000Y254000D02*
D03*
X10000D02*
D03*
X55000Y20000D02*
D03*
X85754Y111756D02*
D03*
X47499Y203000D02*
D03*
X123750Y152500D02*
D03*
X103005Y174009D02*
D03*
X92000Y147250D02*
D03*
X69500Y94750D02*
D03*
X123750Y143500D02*
D03*
X129750Y194250D02*
D03*
X47500Y124250D02*
D03*
X54059Y169760D02*
D03*
X103005Y122756D02*
D03*
X60250Y59886D02*
D03*
X3000Y163000D02*
D03*
X37000Y174000D02*
D03*
X3000Y60347D02*
D03*
X29000Y135300D02*
D03*
X10000Y195000D02*
D03*
X37000Y123000D02*
D03*
X132000Y254000D02*
D03*
X126000D02*
D03*
X118000D02*
D03*
X55000Y319999D02*
D03*
X105499Y203000D02*
D03*
X130498D02*
D03*
X93000D02*
D03*
X79906Y175268D02*
D03*
Y231000D02*
D03*
X69000D02*
D03*
X10000Y48000D02*
D03*
X29000D02*
D03*
X35000D02*
D03*
X3000D02*
D03*
X10000Y97000D02*
D03*
Y203000D02*
D03*
X28000Y282000D02*
D03*
X8000D02*
D03*
X81000Y309000D02*
D03*
Y298500D02*
D03*
X125000Y281500D02*
D03*
X135250D02*
D03*
X3000Y146750D02*
D03*
Y97000D02*
D03*
X35000Y96500D02*
D03*
X86250Y97500D02*
D03*
X98000Y9000D02*
D03*
X103005Y71253D02*
D03*
X88500Y71000D02*
D03*
X86000Y31000D02*
D03*
X80500Y40074D02*
D03*
X99060Y31000D02*
D03*
X80504Y56253D02*
D03*
X55000Y9000D02*
D03*
X126188Y91409D02*
D03*
X126000Y98500D02*
D03*
X55000Y310750D02*
D03*
X127250Y48250D02*
D03*
M02*
