G04 Layer_Color=32768*
%FSLAX25Y25*%
%MOIN*%
G70*
G01*
G75*
%ADD32C,0.01000*%
%ADD34C,0.00600*%
%ADD56C,0.00800*%
%ADD59C,0.00500*%
D32*
X530656Y195399D02*
X524658D01*
Y198398D01*
X525657Y199397D01*
X527657D01*
X528656Y198398D01*
Y195399D01*
X524658Y201397D02*
X530656D01*
Y205396D01*
X524658Y211393D02*
Y207395D01*
X530656D01*
Y211393D01*
X527657Y207395D02*
Y209394D01*
X530656Y213393D02*
X526657D01*
X524658Y215392D01*
X526657Y217392D01*
X530656D01*
X527657D01*
Y213393D01*
X525657Y223390D02*
X524658Y222390D01*
Y220391D01*
X525657Y219391D01*
X526657D01*
X527657Y220391D01*
Y222390D01*
X528656Y223390D01*
X529656D01*
X530656Y222390D01*
Y220391D01*
X529656Y219391D01*
X524658Y229388D02*
Y225389D01*
X530656D01*
Y229388D01*
X527657Y225389D02*
Y227388D01*
X530656Y237385D02*
X524658D01*
X526657Y239385D01*
X524658Y241384D01*
X530656D01*
Y243383D02*
X526657D01*
X524658Y245382D01*
X526657Y247382D01*
X530656D01*
X527657D01*
Y243383D01*
X524658Y249381D02*
X530656D01*
X528656D01*
X524658Y253380D01*
X527657Y250381D01*
X530656Y253380D01*
X524658Y259378D02*
Y255379D01*
X530656D01*
Y259378D01*
X527657Y255379D02*
Y257379D01*
X525657Y271374D02*
X524658Y270374D01*
Y268375D01*
X525657Y267375D01*
X526657D01*
X527657Y268375D01*
Y270374D01*
X528656Y271374D01*
X529656D01*
X530656Y270374D01*
Y268375D01*
X529656Y267375D01*
X524658Y273374D02*
X529656D01*
X530656Y274373D01*
Y276373D01*
X529656Y277372D01*
X524658D01*
X530656Y279372D02*
X524658D01*
Y282371D01*
X525657Y283370D01*
X527657D01*
X528656Y282371D01*
Y279372D01*
Y281371D02*
X530656Y283370D01*
X524658Y289368D02*
Y285370D01*
X530656D01*
Y289368D01*
X527657Y285370D02*
Y287369D01*
X534255Y195399D02*
Y199397D01*
Y197398D01*
X540253D01*
X534255Y201397D02*
X540253D01*
X537254D01*
Y205396D01*
X534255D01*
X540253D01*
X534255Y207395D02*
Y209394D01*
Y208395D01*
X540253D01*
Y207395D01*
Y209394D01*
X535255Y216392D02*
X534255Y215392D01*
Y213393D01*
X535255Y212393D01*
X536255D01*
X537254Y213393D01*
Y215392D01*
X538254Y216392D01*
X539254D01*
X540253Y215392D01*
Y213393D01*
X539254Y212393D01*
X535255Y228388D02*
X534255Y227388D01*
Y225389D01*
X535255Y224389D01*
X536255D01*
X537254Y225389D01*
Y227388D01*
X538254Y228388D01*
X539254D01*
X540253Y227388D01*
Y225389D01*
X539254Y224389D01*
X534255Y234386D02*
Y230387D01*
X540253D01*
Y234386D01*
X537254Y230387D02*
Y232387D01*
X535255Y240384D02*
X534255Y239385D01*
Y237385D01*
X535255Y236385D01*
X539254D01*
X540253Y237385D01*
Y239385D01*
X539254Y240384D01*
X534255Y242384D02*
Y246382D01*
Y244383D01*
X540253D01*
X534255Y248382D02*
Y250381D01*
Y249381D01*
X540253D01*
Y248382D01*
Y250381D01*
X534255Y256379D02*
Y254380D01*
X535255Y253380D01*
X539254D01*
X540253Y254380D01*
Y256379D01*
X539254Y257379D01*
X535255D01*
X534255Y256379D01*
X540253Y259378D02*
X534255D01*
X540253Y263377D01*
X534255D01*
Y271374D02*
Y273374D01*
Y272374D01*
X540253D01*
Y271374D01*
Y273374D01*
X535255Y280371D02*
X534255Y279372D01*
Y277372D01*
X535255Y276373D01*
X536255D01*
X537254Y277372D01*
Y279372D01*
X538254Y280371D01*
X539254D01*
X540253Y279372D01*
Y277372D01*
X539254Y276373D01*
X544853Y199397D02*
X543853Y198398D01*
Y196398D01*
X544853Y195399D01*
X548851D01*
X549851Y196398D01*
Y198398D01*
X548851Y199397D01*
X543853Y201397D02*
X548851D01*
X549851Y202396D01*
Y204396D01*
X548851Y205396D01*
X543853D01*
Y207395D02*
Y211393D01*
Y209394D01*
X549851D01*
X543853Y216392D02*
Y214393D01*
X544853Y213393D01*
X548851D01*
X549851Y214393D01*
Y216392D01*
X548851Y217392D01*
X544853D01*
X543853Y216392D01*
Y219391D02*
X548851D01*
X549851Y220391D01*
Y222390D01*
X548851Y223390D01*
X543853D01*
Y225389D02*
Y229388D01*
Y227388D01*
X549851D01*
X543853Y241384D02*
Y237385D01*
X546852D01*
Y239385D01*
Y237385D01*
X549851D01*
Y243383D02*
X543853D01*
Y246382D01*
X544853Y247382D01*
X546852D01*
X547852Y246382D01*
Y243383D01*
Y245382D02*
X549851Y247382D01*
X543853Y252380D02*
Y250381D01*
X544853Y249381D01*
X548851D01*
X549851Y250381D01*
Y252380D01*
X548851Y253380D01*
X544853D01*
X543853Y252380D01*
X549851Y255379D02*
X543853D01*
X545852Y257379D01*
X543853Y259378D01*
X549851D01*
X543853Y267375D02*
Y271374D01*
Y269375D01*
X549851D01*
X543853Y273374D02*
X549851D01*
X546852D01*
Y277372D01*
X543853D01*
X549851D01*
X543853Y283370D02*
Y279372D01*
X549851D01*
Y283370D01*
X546852Y279372D02*
Y281371D01*
X543853Y291368D02*
X549851D01*
Y294367D01*
X548851Y295366D01*
X547852D01*
X546852Y294367D01*
Y291368D01*
Y294367D01*
X545852Y295366D01*
X544853D01*
X543853Y294367D01*
Y291368D01*
Y300365D02*
Y298365D01*
X544853Y297366D01*
X548851D01*
X549851Y298365D01*
Y300365D01*
X548851Y301364D01*
X544853D01*
X543853Y300365D01*
X549851Y303364D02*
X545852D01*
X543853Y305363D01*
X545852Y307363D01*
X549851D01*
X546852D01*
Y303364D01*
X549851Y309362D02*
X543853D01*
Y312361D01*
X544853Y313361D01*
X546852D01*
X547852Y312361D01*
Y309362D01*
Y311361D02*
X549851Y313361D01*
X543853Y315360D02*
X549851D01*
Y318359D01*
X548851Y319359D01*
X544853D01*
X543853Y318359D01*
Y315360D01*
X567953Y349397D02*
X566953Y348398D01*
Y346398D01*
X567953Y345399D01*
X571951D01*
X572951Y346398D01*
Y348398D01*
X571951Y349397D01*
X568952Y351397D02*
X571951D01*
X572951Y352396D01*
Y355396D01*
X568952D01*
X567953Y358395D02*
X568952D01*
Y357395D01*
Y359394D01*
Y358395D01*
X571951D01*
X572951Y359394D01*
Y363393D02*
Y365392D01*
X571951Y366392D01*
X569952D01*
X568952Y365392D01*
Y363393D01*
X569952Y362393D01*
X571951D01*
X572951Y363393D01*
X568952Y368391D02*
X571951D01*
X572951Y369391D01*
Y372390D01*
X568952D01*
X567953Y375389D02*
X568952D01*
Y374389D01*
Y376389D01*
Y375389D01*
X571951D01*
X572951Y376389D01*
X368523Y412543D02*
X399552D01*
X368523Y243251D02*
X399552D01*
X398552Y337894D02*
Y412543D01*
Y243251D02*
Y314700D01*
X396551Y406543D02*
X398552Y412543D01*
X400552Y406543D01*
X398552Y243251D02*
X400552Y249252D01*
X396551D02*
X398552Y243251D01*
X367273Y215243D02*
Y242002D01*
X237351Y215243D02*
Y242002D01*
X312309Y216243D02*
X367273D01*
X237351D02*
X289115D01*
X361273Y218243D02*
X367273Y216243D01*
X361273Y214243D02*
X367273Y216243D01*
X237351D02*
X243352Y214243D01*
X237351Y216243D02*
X243352Y218243D01*
X368523Y412543D02*
X382552D01*
X368523Y243251D02*
X382552D01*
X381552Y341393D02*
Y412543D01*
Y243251D02*
Y311202D01*
X379552Y406543D02*
X381552Y412543D01*
X383552Y406543D01*
X381552Y243251D02*
X383552Y249252D01*
X379552D02*
X381552Y243251D01*
X367273Y229043D02*
Y242002D01*
X237351Y229043D02*
Y242002D01*
X315808Y230043D02*
X367273D01*
X237351D02*
X285616D01*
X361273Y232043D02*
X367273Y230043D01*
X361273Y228043D02*
X367273Y230043D01*
X237351D02*
X243352Y228043D01*
X237351Y230043D02*
X243352Y232043D01*
X159451Y269741D02*
Y263743D01*
X162451D01*
X163450Y264742D01*
Y268741D01*
X162451Y269741D01*
X159451D01*
X165450Y263743D02*
X167449D01*
X166449D01*
Y267742D01*
X165450D01*
X170448Y263743D02*
Y267742D01*
X171448D01*
X172447Y266742D01*
Y263743D01*
Y266742D01*
X173447Y267742D01*
X174447Y266742D01*
Y263743D01*
X179445D02*
X177446D01*
X176446Y264742D01*
Y266742D01*
X177446Y267742D01*
X179445D01*
X180445Y266742D01*
Y265742D01*
X176446D01*
X182444Y263743D02*
Y267742D01*
X185443D01*
X186443Y266742D01*
Y263743D01*
X188442D02*
X191441D01*
X192441Y264742D01*
X191441Y265742D01*
X189442D01*
X188442Y266742D01*
X189442Y267742D01*
X192441D01*
X194440Y263743D02*
X196440D01*
X195440D01*
Y267742D01*
X194440D01*
X200438Y263743D02*
X202438D01*
X203437Y264742D01*
Y266742D01*
X202438Y267742D01*
X200438D01*
X199439Y266742D01*
Y264742D01*
X200438Y263743D01*
X205437D02*
Y267742D01*
X208436D01*
X209435Y266742D01*
Y263743D01*
X211435D02*
X214434D01*
X215433Y264742D01*
X214434Y265742D01*
X212434D01*
X211435Y266742D01*
X212434Y267742D01*
X215433D01*
X556453Y348398D02*
Y346398D01*
X557453Y345399D01*
X561451D01*
X562451Y346398D01*
Y348398D01*
X561451Y349397D01*
X557453D01*
X556453Y348398D01*
X558452Y351397D02*
X561451D01*
X562451Y352396D01*
Y355396D01*
X558452D01*
X557453Y358395D02*
X558452D01*
Y357395D01*
Y359394D01*
Y358395D01*
X561451D01*
X562451Y359394D01*
Y362393D02*
Y364393D01*
Y363393D01*
X556453D01*
Y362393D01*
X562451Y367392D02*
Y369391D01*
Y368391D01*
X558452D01*
Y367392D01*
X562451Y372390D02*
X558452D01*
Y375389D01*
X559452Y376389D01*
X562451D01*
Y381387D02*
Y379388D01*
X561451Y378388D01*
X559452D01*
X558452Y379388D01*
Y381387D01*
X559452Y382387D01*
X560452D01*
Y378388D01*
X172744Y297358D02*
X170744D01*
X169745Y296358D01*
Y292360D01*
X170744Y291360D01*
X172744D01*
X173743Y292360D01*
Y296358D01*
X172744Y297358D01*
X175743Y295359D02*
Y292360D01*
X176742Y291360D01*
X179742D01*
Y295359D01*
X182740Y296358D02*
Y295359D01*
X181741D01*
X183740D01*
X182740D01*
Y292360D01*
X183740Y291360D01*
X186739D02*
X188739D01*
X187739D01*
Y297358D01*
X186739D01*
X191738Y291360D02*
X193737D01*
X192737D01*
Y295359D01*
X191738D01*
X196736Y291360D02*
Y295359D01*
X199735D01*
X200735Y294359D01*
Y291360D01*
X205733D02*
X203734D01*
X202734Y292360D01*
Y294359D01*
X203734Y295359D01*
X205733D01*
X206733Y294359D01*
Y293359D01*
X202734D01*
D34*
X607999Y247500D02*
G03*
X605723Y251694I-5000J1D01*
G01*
X607999Y213200D02*
G03*
X612999Y208200I5000J0D01*
G01*
X631645Y203939D02*
G03*
X626699Y208200I-4946J-740D01*
G01*
X575037Y145561D02*
G03*
X631737Y203968I6063J50840D01*
G01*
X574991Y145565D02*
G03*
X574399Y145600I-591J-4965D01*
G01*
X522599Y150600D02*
G03*
X527599Y145600I5000J0D01*
G01*
X522599Y162600D02*
G03*
X517599Y167600I-5000J0D01*
G01*
X440899Y172600D02*
G03*
X445899Y167600I5000J0D01*
G01*
Y281000D02*
G03*
X440899Y276000I0J-5000D01*
G01*
Y321400D02*
G03*
X445899Y316400I5000J0D01*
G01*
Y429800D02*
G03*
X440899Y424800I0J-5000D01*
G01*
X517599Y429800D02*
G03*
X522599Y434800I0J5000D01*
G01*
X527599Y451900D02*
G03*
X522599Y446900I0J-5000D01*
G01*
X574399Y451900D02*
G03*
X574991Y451936I-7J5000D01*
G01*
X631737Y393533D02*
G03*
X575037Y451940I-50637J7568D01*
G01*
X626699Y389300D02*
G03*
X631645Y393561I0J5001D01*
G01*
X612999Y389300D02*
G03*
X607999Y384300I0J-5000D01*
G01*
X605723Y346507D02*
G03*
X607999Y350700I-2723J4192D01*
G01*
X570430Y306286D02*
G03*
X571599Y309500I-3831J3213D01*
G01*
X570460Y306285D02*
G03*
X570447Y291131I9039J-7585D01*
G01*
X571599Y287900D02*
G03*
X570430Y291114I-5000J1D01*
G01*
X607999Y213200D02*
Y247500D01*
X612999Y208200D02*
X626699D01*
X527599Y145600D02*
X574399D01*
X522599Y150600D02*
Y162600D01*
X445899Y167600D02*
X517599D01*
X440899Y172600D02*
Y276000D01*
X445899Y281000D02*
X507799D01*
Y316400D01*
X445899D02*
X507799D01*
X440899Y321400D02*
Y424800D01*
X445899Y429800D02*
X517599D01*
X522599Y434800D02*
Y446900D01*
X527599Y451900D02*
X574399D01*
X612999Y389300D02*
X626699D01*
X607999Y350700D02*
Y384300D01*
X599716Y257724D02*
X605716Y251724D01*
X599716Y257724D02*
Y287824D01*
X571616D02*
X599716D01*
X571616Y309524D02*
X599716D01*
Y340524D02*
X605716Y346524D01*
X599716Y309524D02*
Y340524D01*
X402150Y316300D02*
Y318300D01*
Y317300D01*
X396152D01*
X397152Y316300D01*
X402150Y321299D02*
X401151D01*
Y322299D01*
X402150D01*
Y321299D01*
X396152Y330296D02*
X397152Y328296D01*
X399151Y326297D01*
X401151D01*
X402150Y327297D01*
Y329296D01*
X401151Y330296D01*
X400151D01*
X399151Y329296D01*
Y326297D01*
X401151Y332295D02*
X402150Y333295D01*
Y335294D01*
X401151Y336294D01*
X397152D01*
X396152Y335294D01*
Y333295D01*
X397152Y332295D01*
X398152D01*
X399151Y333295D01*
Y336294D01*
X290715Y212644D02*
X292715D01*
X291715D01*
Y218642D01*
X290715Y217642D01*
X295714Y212644D02*
Y213644D01*
X296713D01*
Y212644D01*
X295714D01*
X300712Y217642D02*
X301712Y218642D01*
X303711D01*
X304711Y217642D01*
Y216642D01*
X303711Y215643D01*
X302712D01*
X303711D01*
X304711Y214643D01*
Y213644D01*
X303711Y212644D01*
X301712D01*
X300712Y213644D01*
X306710Y217642D02*
X307710Y218642D01*
X309709D01*
X310709Y217642D01*
Y213644D01*
X309709Y212644D01*
X307710D01*
X306710Y213644D01*
Y217642D01*
X385151Y315801D02*
X379152D01*
X382152Y312802D01*
Y316800D01*
X380152Y318800D02*
X379152Y319799D01*
Y321799D01*
X380152Y322798D01*
X381152D01*
X382152Y321799D01*
Y320799D01*
Y321799D01*
X383151Y322798D01*
X384151D01*
X385151Y321799D01*
Y319799D01*
X384151Y318800D01*
X385151Y324798D02*
X384151D01*
Y325797D01*
X385151D01*
Y324798D01*
X380152Y329796D02*
X379152Y330796D01*
Y332795D01*
X380152Y333795D01*
X384151D01*
X385151Y332795D01*
Y330796D01*
X384151Y329796D01*
X380152D01*
Y335794D02*
X379152Y336794D01*
Y338793D01*
X380152Y339793D01*
X384151D01*
X385151Y338793D01*
Y336794D01*
X384151Y335794D01*
X380152D01*
X287216Y231442D02*
X288216Y232442D01*
X290215D01*
X291215Y231442D01*
Y230443D01*
X290215Y229443D01*
X289216D01*
X290215D01*
X291215Y228443D01*
Y227444D01*
X290215Y226444D01*
X288216D01*
X287216Y227444D01*
X293215Y231442D02*
X294214Y232442D01*
X296214D01*
X297213Y231442D01*
Y230443D01*
X296214Y229443D01*
X295214D01*
X296214D01*
X297213Y228443D01*
Y227444D01*
X296214Y226444D01*
X294214D01*
X293215Y227444D01*
X299213Y226444D02*
Y227444D01*
X300212D01*
Y226444D01*
X299213D01*
X304211Y231442D02*
X305211Y232442D01*
X307210D01*
X308210Y231442D01*
Y227444D01*
X307210Y226444D01*
X305211D01*
X304211Y227444D01*
Y231442D01*
X310209D02*
X311209Y232442D01*
X313208D01*
X314208Y231442D01*
Y227444D01*
X313208Y226444D01*
X311209D01*
X310209Y227444D01*
Y231442D01*
X271199Y197100D02*
G03*
X265331Y202024I-5000J0D01*
G01*
X211131Y192424D02*
G03*
X207351Y185660I868J-4923D01*
G01*
X207365Y185649D02*
G03*
X221998Y154053I285528J113050D01*
G01*
X222012Y154064D02*
G03*
X248120Y137445I27788J14837D01*
G01*
X248123Y137498D02*
G03*
X374671Y137370I64179J895306D01*
G01*
X494138Y129335D02*
G03*
X375560Y137364I-89279J-438871D01*
G01*
X578946Y112082D02*
G03*
X661773Y154430I17054J68818D01*
G01*
X662305Y155917D02*
G03*
X662238Y441653I-358406J142783D01*
G01*
X661737Y443060D02*
G03*
X581986Y486002I-65737J-26559D01*
G01*
X429099Y308500D02*
G03*
X429836Y305888I4999J1D01*
G01*
X415703Y285110D02*
G03*
X429866Y305911I2396J13590D01*
G01*
X415668Y285124D02*
G03*
X409799Y280200I-869J-4924D01*
G01*
X404799Y240200D02*
G03*
X409799Y245200I0J5000D01*
G01*
X392799Y240200D02*
G03*
X387799Y235200I0J-5000D01*
G01*
X382799Y158500D02*
G03*
X387799Y163500I0J5000D01*
G01*
X271199D02*
G03*
X276199Y158500I5000J0D01*
G01*
X417516Y459294D02*
G03*
X494633Y468209I-12450J445697D01*
G01*
X417516Y459294D02*
G03*
X411452Y442036I300J-9800D01*
G01*
X429216Y424594D02*
G03*
X427437Y428419I-5000J1D01*
G01*
X494146Y129372D02*
X578955Y112119D01*
X494543Y468209D02*
X581999Y486000D01*
X271199Y163500D02*
Y197100D01*
X211099Y192400D02*
X265399Y202000D01*
X409799Y245200D02*
Y280200D01*
X392799Y240200D02*
X404799D01*
X387799Y163500D02*
Y235200D01*
X276199Y158500D02*
X382799D01*
X411416Y441994D02*
X427416Y428394D01*
X429117Y309399D02*
X429216Y424624D01*
X374671Y137370D02*
X375554D01*
X661773Y154430D02*
X662305Y155917D01*
X661737Y443060D02*
X662238Y441653D01*
X494543Y468209D02*
X494633D01*
X429099Y308500D02*
Y309381D01*
X429117Y309399D01*
D56*
X176000Y87000D02*
Y515000D01*
X709000D01*
Y87000D02*
Y515000D01*
X176000Y87000D02*
X709000D01*
D59*
X237351Y243251D02*
X367273D01*
Y412543D01*
X237351D02*
X367273D01*
X237351Y243251D02*
Y412543D01*
M02*
