G04 Layer_Physical_Order=3*
G04 Layer_Color=16440176*
%FSLAX25Y25*%
%MOIN*%
G70*
G01*
G75*
%ADD32C,0.01000*%
%ADD34C,0.00600*%
%ADD35C,0.01500*%
%ADD39C,0.02000*%
%ADD56C,0.00800*%
%ADD59C,0.00500*%
%ADD60C,0.12800*%
%ADD61C,0.06299*%
%ADD62C,0.05315*%
%ADD65R,0.04725X0.04725*%
%ADD66C,0.15000*%
%ADD67C,0.20700*%
%ADD68C,0.17700*%
%ADD69C,0.02400*%
%ADD70C,0.02500*%
%ADD71C,0.04400*%
%ADD72C,0.05500*%
%ADD75C,0.02200*%
G36*
X600993Y486317D02*
X605961Y485783D01*
X610878Y484895D01*
X615719Y483660D01*
X620460Y482082D01*
X625076Y480170D01*
X629544Y477933D01*
X633842Y475384D01*
X637946Y472534D01*
X641836Y469399D01*
X645493Y465994D01*
X648898Y462337D01*
X652033Y458447D01*
X654883Y454342D01*
X657433Y450045D01*
X659669Y445577D01*
X660859Y442705D01*
X660859Y442705D01*
X660859Y442705D01*
X660895Y442688D01*
X661219Y441778D01*
X661373Y441346D01*
X661386Y441314D01*
X661386Y441314D01*
X661768Y440391D01*
X666042Y429080D01*
X669959Y417640D01*
X673514Y406083D01*
X676705Y394421D01*
X679528Y382663D01*
X681980Y370823D01*
X684059Y358912D01*
X685762Y346941D01*
X687089Y334922D01*
X688038Y322868D01*
X688607Y310790D01*
X688614Y310377D01*
X688263Y310020D01*
X680983D01*
X680757Y310358D01*
X679997Y310866D01*
X679099Y311045D01*
X678202Y310866D01*
X677441Y310358D01*
X677215Y310020D01*
X643071D01*
X642936Y309993D01*
X642798Y309987D01*
X642723Y309951D01*
X642642Y309935D01*
X642527Y309858D01*
X642403Y309800D01*
X641991Y309858D01*
X641844Y309942D01*
X641493Y310370D01*
X640426Y311246D01*
X639209Y311896D01*
X637888Y312297D01*
X636515Y312432D01*
X635142Y312297D01*
X633821Y311896D01*
X632604Y311246D01*
X631537Y310370D01*
X631186Y309942D01*
X631039Y309858D01*
X630627Y309800D01*
X630503Y309858D01*
X630389Y309935D01*
X630307Y309951D01*
X630232Y309987D01*
X630094Y309993D01*
X629959Y310020D01*
X600634D01*
Y340144D01*
X605892Y345402D01*
X606225Y345734D01*
X606293Y345770D01*
X606610Y346030D01*
X607192Y346508D01*
X607929Y347406D01*
X608476Y348431D01*
X608814Y349543D01*
X608880Y350215D01*
X608928Y350699D01*
X608928Y350700D01*
X608928D01*
X608917Y350711D01*
Y384300D01*
X608915Y384308D01*
X609053Y385357D01*
X609461Y386342D01*
X610111Y387188D01*
X610957Y387837D01*
X611942Y388246D01*
X612991Y388384D01*
X612999Y388382D01*
X626203D01*
X626699Y388371D01*
X626700Y388371D01*
X627179Y388418D01*
X627856Y388485D01*
X628968Y388823D01*
X629994Y389370D01*
X630892Y390108D01*
X631629Y391006D01*
X632177Y392031D01*
X632478Y393021D01*
X632585Y393182D01*
X632628Y393400D01*
X632635Y393398D01*
X633051Y396555D01*
X633249Y401100D01*
X633051Y405645D01*
X632457Y410156D01*
X631472Y414597D01*
X630104Y418936D01*
X628363Y423139D01*
X626262Y427175D01*
X623818Y431012D01*
X621048Y434621D01*
X617975Y437975D01*
X614621Y441049D01*
X611011Y443818D01*
X607174Y446263D01*
X603139Y448364D01*
X598936Y450105D01*
X594597Y451473D01*
X590155Y452457D01*
X585645Y453051D01*
X581100Y453250D01*
X576555Y453051D01*
X575379Y452896D01*
X574877Y452879D01*
X574877Y452879D01*
X574404Y452816D01*
X574399Y452817D01*
X527599D01*
Y452828D01*
X526442Y452714D01*
X525330Y452377D01*
X524305Y451829D01*
X523407Y451092D01*
X522670Y450193D01*
X522122Y449168D01*
X521784Y448056D01*
X521671Y446900D01*
X521681D01*
Y434800D01*
X521683Y434792D01*
X521545Y433743D01*
X521137Y432757D01*
X520488Y431911D01*
X519642Y431262D01*
X518656Y430854D01*
X517607Y430716D01*
X517599Y430717D01*
X445899D01*
Y430728D01*
X444742Y430614D01*
X443630Y430277D01*
X442605Y429729D01*
X441707Y428992D01*
X440970Y428093D01*
X440422Y427069D01*
X440085Y425956D01*
X439971Y424800D01*
X439982D01*
Y321400D01*
X439971D01*
X440085Y320243D01*
X440422Y319131D01*
X440970Y318106D01*
X441707Y317208D01*
X442605Y316470D01*
X443630Y315922D01*
X444742Y315585D01*
X445899Y315471D01*
Y315482D01*
X506882D01*
Y281917D01*
X445899D01*
Y281928D01*
X444742Y281814D01*
X443630Y281477D01*
X442605Y280929D01*
X441707Y280192D01*
X440970Y279293D01*
X440422Y278269D01*
X440085Y277156D01*
X439971Y276000D01*
X439982D01*
Y248520D01*
X421851D01*
X421422Y248435D01*
X421058Y248192D01*
X420815Y247828D01*
X420730Y247399D01*
Y238520D01*
X418351D01*
X418351Y238520D01*
X417922Y238435D01*
X417558Y238192D01*
X417558Y238192D01*
X413058Y233692D01*
X413058Y233692D01*
X409058Y229692D01*
X408815Y229328D01*
X408730Y228899D01*
X408730Y228899D01*
Y226899D01*
Y222863D01*
X406558Y220692D01*
X406558Y220692D01*
X401558Y215692D01*
X401315Y215328D01*
X401230Y214899D01*
X401230Y214899D01*
Y212020D01*
X398851D01*
X398851Y212020D01*
X398422Y211935D01*
X398058Y211692D01*
X396558Y210192D01*
X396315Y209828D01*
X396230Y209399D01*
X396230Y209399D01*
Y206899D01*
X396230Y206899D01*
X396315Y206469D01*
X396558Y206106D01*
X398058Y204606D01*
X398422Y204363D01*
X398851Y204277D01*
X398851Y204277D01*
X400658D01*
X400681Y204282D01*
X400721Y204079D01*
X401185Y203385D01*
X401362Y203001D01*
X401346Y202947D01*
X401315Y202901D01*
X401283Y202740D01*
X401235Y202582D01*
X401240Y202526D01*
X401230Y202472D01*
Y191520D01*
X398351D01*
X397922Y191435D01*
X397558Y191192D01*
X397558Y191192D01*
X396558Y190192D01*
X396315Y189828D01*
X396230Y189399D01*
X396230Y189399D01*
Y187399D01*
X396315Y186969D01*
X396558Y186606D01*
X396558Y186606D01*
X397558Y185606D01*
X397922Y185363D01*
X398351Y185277D01*
X398351Y185277D01*
X401230D01*
Y173363D01*
X400986Y173119D01*
X400928Y173033D01*
X400854Y172961D01*
X400808Y172853D01*
X400743Y172756D01*
X400722Y172654D01*
X400681Y172558D01*
X400680Y172441D01*
X400657Y172326D01*
X400316Y171933D01*
X400032Y171877D01*
X399337Y171413D01*
X398873Y170718D01*
X398710Y169899D01*
X398873Y169079D01*
X399070Y168784D01*
X399058Y168279D01*
X398981Y168164D01*
X398889Y168062D01*
X398861Y167984D01*
X398815Y167915D01*
X398788Y167780D01*
X398742Y167649D01*
X398746Y167567D01*
X398730Y167486D01*
Y159899D01*
X398815Y159469D01*
X399058Y159106D01*
X399058Y159106D01*
X406558Y151606D01*
X406558Y151606D01*
X408982Y149182D01*
X408672Y148719D01*
X408509Y147900D01*
X408672Y147080D01*
X409136Y146386D01*
X409831Y145922D01*
X410650Y145759D01*
X411470Y145922D01*
X411566Y145596D01*
X411585Y145501D01*
X412093Y144740D01*
X412854Y144232D01*
X413751Y144054D01*
X414649Y144232D01*
X415051Y144501D01*
X415493Y143841D01*
X416142Y143407D01*
X416038Y143195D01*
X416029Y143161D01*
X416010Y143133D01*
X415974Y142951D01*
X415927Y142772D01*
X415932Y142737D01*
X415925Y142703D01*
X415961Y142522D01*
X415986Y142338D01*
X416003Y142308D01*
X416010Y142274D01*
X416113Y142120D01*
X416207Y141960D01*
X416234Y141939D01*
X416253Y141910D01*
X418648Y139516D01*
X418447Y139058D01*
X417913Y139081D01*
X410913Y139183D01*
X410681Y139626D01*
X410866Y139902D01*
X411044Y140800D01*
X410866Y141697D01*
X410357Y142458D01*
X409597Y142966D01*
X408699Y143145D01*
X408364Y143078D01*
X408168Y143518D01*
X408161Y143548D01*
X408666Y144302D01*
X408844Y145200D01*
X408666Y146097D01*
X408157Y146858D01*
X407397Y147366D01*
X406499Y147545D01*
X405602Y147366D01*
X404841Y146858D01*
X404333Y146097D01*
X404154Y145200D01*
X404333Y144302D01*
X404841Y143542D01*
X405602Y143033D01*
X406499Y142855D01*
X406835Y142921D01*
X407030Y142481D01*
X407037Y142452D01*
X406533Y141697D01*
X406354Y140800D01*
X406533Y139902D01*
X406676Y139687D01*
X406437Y139248D01*
X404859Y139271D01*
X391806Y139081D01*
X378763Y138512D01*
X375589Y138280D01*
X375554Y138287D01*
X375097D01*
X374605Y138314D01*
X374605Y138314D01*
X374605Y138314D01*
X367866Y137826D01*
X349358Y136869D01*
X330834Y136294D01*
X312302Y136102D01*
X293770Y136294D01*
X275246Y136869D01*
X256738Y137826D01*
X248191Y138445D01*
X248191Y138445D01*
Y138445D01*
X247713Y138419D01*
X246374Y138494D01*
X242991Y139069D01*
X239694Y140019D01*
X236523Y141332D01*
X233520Y142992D01*
X230722Y144978D01*
X228163Y147264D01*
X225877Y149823D01*
X223891Y152621D01*
X222847Y154510D01*
X222847Y154510D01*
X222847Y154510D01*
X222813Y154520D01*
X219088Y161641D01*
X214371Y171501D01*
X210008Y181524D01*
X208248Y185998D01*
X208248D01*
X208054Y186443D01*
X207915Y187500D01*
X208054Y188557D01*
X208462Y189542D01*
X209111Y190388D01*
X209957Y191037D01*
X210942Y191446D01*
X211296Y191492D01*
X211294Y191502D01*
X265559Y201096D01*
X265575Y201102D01*
X266199Y201185D01*
X267256Y201045D01*
X268242Y200637D01*
X269088Y199988D01*
X269737Y199142D01*
X270145Y198157D01*
X270221Y197575D01*
X270282Y197100D01*
D01*
X270282Y196606D01*
Y163500D01*
X270271D01*
X270385Y162343D01*
X270722Y161231D01*
X271270Y160206D01*
X272007Y159308D01*
X272905Y158570D01*
X273930Y158022D01*
X275043Y157685D01*
X276199Y157571D01*
Y157582D01*
X382799D01*
Y157571D01*
X383956Y157685D01*
X385068Y158022D01*
X386093Y158570D01*
X386991Y159308D01*
X387729Y160206D01*
X388276Y161231D01*
X388614Y162343D01*
X388728Y163500D01*
X388717D01*
Y227566D01*
X389217Y227640D01*
X389437Y226916D01*
X390133Y225613D01*
X391070Y224471D01*
X392212Y223534D01*
X393515Y222837D01*
X394929Y222408D01*
X396399Y222263D01*
X397869Y222408D01*
X399283Y222837D01*
X400586Y223534D01*
X401728Y224471D01*
X402665Y225613D01*
X403362Y226916D01*
X403791Y228329D01*
X403935Y229800D01*
X403791Y231270D01*
X403362Y232684D01*
X402665Y233987D01*
X401728Y235129D01*
X400586Y236066D01*
X399283Y236762D01*
X397869Y237191D01*
X396399Y237336D01*
X394929Y237191D01*
X393515Y236762D01*
X392212Y236066D01*
X391070Y235129D01*
X390133Y233987D01*
X389437Y232684D01*
X389217Y231959D01*
X388717Y232033D01*
Y235200D01*
X388715Y235208D01*
X388853Y236257D01*
X389262Y237242D01*
X389911Y238088D01*
X390757Y238737D01*
X391742Y239145D01*
X392791Y239284D01*
X392799Y239282D01*
X404799D01*
Y239271D01*
X405956Y239385D01*
X407068Y239722D01*
X408093Y240270D01*
X408991Y241008D01*
X409728Y241906D01*
X410276Y242931D01*
X410614Y244043D01*
X410728Y245200D01*
X410717D01*
Y280200D01*
X410715Y280207D01*
X410853Y281257D01*
X411262Y282242D01*
X411911Y283088D01*
X412757Y283737D01*
X413742Y284145D01*
X414799Y284285D01*
X415504Y284192D01*
X415793Y284136D01*
X415793Y284136D01*
X416036Y284117D01*
X418100Y283955D01*
X420406Y284136D01*
X422656Y284676D01*
X424794Y285562D01*
X426767Y286771D01*
X428526Y288274D01*
X430029Y290033D01*
X431238Y292006D01*
X432124Y294144D01*
X432664Y296393D01*
X432845Y298700D01*
X432664Y301007D01*
X432124Y303257D01*
X431238Y305395D01*
X430633Y306381D01*
X430634Y306381D01*
X430527Y306542D01*
X430153Y307443D01*
X430015Y308492D01*
X430017Y308500D01*
Y309310D01*
X430034Y309398D01*
X430134Y424594D01*
X430145D01*
X430145Y424594D01*
X430097Y425078D01*
X430031Y425751D01*
X429693Y426863D01*
X429145Y427888D01*
X428408Y428787D01*
X428398Y428795D01*
X428020Y429111D01*
D01*
X427632Y429414D01*
X412379Y442379D01*
X412068Y442757D01*
Y442757D01*
X411525Y443203D01*
X410419Y444551D01*
X409596Y446089D01*
X409090Y447758D01*
X408919Y449494D01*
X409090Y451230D01*
X409596Y452899D01*
X410419Y454437D01*
X411525Y455785D01*
X412873Y456892D01*
X414411Y457714D01*
X416081Y458220D01*
X417532Y458363D01*
X417542Y458354D01*
Y458354D01*
X417542Y458354D01*
X418061Y458362D01*
X431046Y458928D01*
X444008Y459873D01*
X456938Y461194D01*
X469824Y462890D01*
X482655Y464961D01*
X494822Y467289D01*
Y467289D01*
X495304Y467427D01*
X582156Y485095D01*
X582171Y485085D01*
X582171Y485085D01*
X582171Y485085D01*
X586038Y485783D01*
X591006Y486317D01*
X596000Y486495D01*
X600993Y486317D01*
D02*
G37*
G36*
X366204Y244220D02*
X238220D01*
Y334659D01*
X238720Y334759D01*
X238980Y334132D01*
X239194Y333853D01*
X241111Y335771D01*
X239194Y337689D01*
X238980Y337410D01*
X238720Y336784D01*
X238220Y336883D01*
Y343151D01*
X238720Y343320D01*
X239001Y342954D01*
X239826Y342321D01*
X240787Y341923D01*
X241818Y341787D01*
X242850Y341923D01*
X243811Y342321D01*
X244636Y342954D01*
X245269Y343779D01*
X245667Y344740D01*
X245802Y345771D01*
X245667Y346802D01*
X245269Y347763D01*
X244636Y348588D01*
X243811Y349221D01*
X242850Y349620D01*
X241818Y349755D01*
X240787Y349620D01*
X239826Y349221D01*
X239001Y348588D01*
X238720Y348222D01*
X238220Y348392D01*
Y411574D01*
X366204D01*
Y244220D01*
D02*
G37*
G36*
X688797Y298700D02*
X688607Y286610D01*
X688038Y274532D01*
X687089Y262478D01*
X685762Y250460D01*
X684059Y238489D01*
X681980Y226578D01*
X679528Y214738D01*
X676705Y202980D01*
X673514Y191317D01*
X669959Y179761D01*
X666042Y168321D01*
X661768Y157010D01*
X661456Y156255D01*
X661455Y156256D01*
X661441Y156226D01*
X661285Y155791D01*
X660931Y154799D01*
X660895Y154783D01*
X660895D01*
X660895Y154783D01*
X659669Y151823D01*
X657433Y147355D01*
X654883Y143058D01*
X652033Y138954D01*
X648898Y135063D01*
X645493Y131406D01*
X641836Y128002D01*
X637946Y124866D01*
X633842Y122017D01*
X629544Y119467D01*
X625076Y117231D01*
X620460Y115319D01*
X615719Y113741D01*
X610878Y112505D01*
X605961Y111618D01*
X600993Y111084D01*
X596000Y110905D01*
X591006Y111084D01*
X586038Y111618D01*
X581121Y112505D01*
X579181Y113000D01*
X579138Y113018D01*
X494329Y130271D01*
X494193Y130271D01*
X482794Y132453D01*
X469906Y134532D01*
X456963Y136236D01*
X443975Y137563D01*
X430955Y138512D01*
X420794Y138955D01*
X417046Y142703D01*
X417278Y143179D01*
X418049Y143332D01*
X418809Y143841D01*
X419318Y144601D01*
X419496Y145499D01*
X419318Y146396D01*
X418809Y147157D01*
X418049Y147665D01*
X417151Y147844D01*
X416254Y147665D01*
X415851Y147396D01*
X415409Y148057D01*
X414649Y148565D01*
X413751Y148744D01*
X413157Y148626D01*
X412628Y148719D01*
X412164Y149414D01*
X411470Y149878D01*
X410650Y150041D01*
X409865Y149885D01*
X407351Y152399D01*
X399851Y159899D01*
Y167486D01*
X400351Y167857D01*
X400851Y167758D01*
X401671Y167921D01*
X402365Y168385D01*
X402829Y169079D01*
X402992Y169899D01*
X402829Y170718D01*
X402365Y171413D01*
X401890Y171730D01*
X401779Y172326D01*
X402351Y172899D01*
Y186399D01*
X398351D01*
X397351Y187399D01*
Y189399D01*
X398351Y190399D01*
X402351D01*
Y202472D01*
X402699Y202758D01*
X403518Y202921D01*
X404213Y203385D01*
X404275Y203477D01*
X404775Y203325D01*
Y160163D01*
X404880Y159636D01*
X405178Y159190D01*
X415142Y149225D01*
X415142Y149225D01*
X415589Y148927D01*
X416116Y148822D01*
X437581D01*
X441978Y144425D01*
X441978Y144425D01*
X442424Y144127D01*
X442951Y144022D01*
X442951Y144022D01*
X499981D01*
X515278Y128725D01*
X515724Y128427D01*
X516251Y128322D01*
X611269D01*
X611536Y127822D01*
X611185Y127296D01*
X611006Y126399D01*
X611185Y125501D01*
X611693Y124741D01*
X612010Y124528D01*
Y124028D01*
X611837Y123913D01*
X611373Y123218D01*
X611210Y122399D01*
X611373Y121579D01*
X611837Y120885D01*
X612532Y120421D01*
X613351Y120258D01*
X614171Y120421D01*
X614865Y120885D01*
X615329Y121579D01*
X615492Y122399D01*
X615329Y123218D01*
X614865Y123913D01*
X614692Y124028D01*
Y124528D01*
X615009Y124741D01*
X615518Y125501D01*
X615696Y126399D01*
X615518Y127296D01*
X615166Y127822D01*
X615433Y128322D01*
X628687D01*
X629213Y128427D01*
X629660Y128725D01*
X656124Y155190D01*
X656423Y155636D01*
X656528Y156163D01*
X656528Y156163D01*
Y187529D01*
X661524Y192525D01*
X661524Y192525D01*
X661823Y192972D01*
X661928Y193499D01*
Y239729D01*
X671224Y249025D01*
X671523Y249472D01*
X671628Y249999D01*
Y265734D01*
X671523Y266261D01*
X671224Y266707D01*
X654860Y283072D01*
X654413Y283370D01*
X653887Y283475D01*
X629124D01*
X628955Y283975D01*
X629395Y284313D01*
X629997Y285098D01*
X630376Y286012D01*
X630505Y286993D01*
X630376Y287973D01*
X629997Y288888D01*
X629395Y289672D01*
X628610Y290275D01*
X627696Y290653D01*
X626715Y290782D01*
X625734Y290653D01*
X624820Y290275D01*
X624035Y289672D01*
X623433Y288888D01*
X623055Y287973D01*
X622926Y286993D01*
X623055Y286012D01*
X623433Y285098D01*
X624035Y284313D01*
X624476Y283975D01*
X624306Y283475D01*
X620168D01*
X619997Y283888D01*
X619395Y284672D01*
X618610Y285275D01*
X617696Y285653D01*
X616715Y285782D01*
X615734Y285653D01*
X614820Y285275D01*
X614035Y284672D01*
X613433Y283888D01*
X613055Y282974D01*
X612925Y281993D01*
X613055Y281012D01*
X613433Y280098D01*
X614035Y279313D01*
X614820Y278711D01*
X615734Y278332D01*
X616715Y278203D01*
X617696Y278332D01*
X618610Y278711D01*
X619395Y279313D01*
X619997Y280098D01*
X620256Y280722D01*
X624615D01*
X624729Y280474D01*
X624752Y280222D01*
X624035Y279672D01*
X623433Y278888D01*
X623055Y277974D01*
X622926Y276993D01*
X623055Y276012D01*
X623433Y275098D01*
X624035Y274313D01*
X624820Y273711D01*
X625734Y273332D01*
X626715Y273203D01*
X627696Y273332D01*
X628610Y273711D01*
X629395Y274313D01*
X629997Y275098D01*
X630376Y276012D01*
X630875Y275972D01*
Y273099D01*
X628214Y270439D01*
X627696Y270653D01*
X626715Y270782D01*
X625734Y270653D01*
X624820Y270275D01*
X624035Y269672D01*
X623433Y268888D01*
X623055Y267973D01*
X622926Y266993D01*
X623055Y266012D01*
X623433Y265098D01*
X624035Y264313D01*
X624820Y263711D01*
X625734Y263332D01*
X626715Y263203D01*
X627696Y263332D01*
X628610Y263711D01*
X629395Y264313D01*
X629997Y265098D01*
X630376Y266012D01*
X630505Y266993D01*
X630376Y267973D01*
X630161Y268492D01*
X633224Y271555D01*
X633224Y271555D01*
X633523Y272002D01*
X633628Y272529D01*
X633628Y272529D01*
Y276829D01*
X635021Y278222D01*
X652281D01*
X666375Y264129D01*
Y251604D01*
X657078Y242307D01*
X656779Y241861D01*
X656675Y241334D01*
Y195104D01*
X651678Y190108D01*
X651379Y189661D01*
X651275Y189134D01*
Y157769D01*
X627081Y133575D01*
X599233D01*
X598992Y134075D01*
X599329Y134579D01*
X599492Y135399D01*
X599329Y136218D01*
X598865Y136913D01*
X598402Y137222D01*
X598554Y137722D01*
X604887D01*
X605413Y137827D01*
X605860Y138125D01*
X609326Y141591D01*
X609868Y141426D01*
X609933Y141102D01*
X610441Y140341D01*
X611202Y139833D01*
X612099Y139655D01*
X612997Y139833D01*
X613757Y140341D01*
X614266Y141102D01*
X614444Y142000D01*
X614266Y142897D01*
X613982Y143322D01*
X614249Y143822D01*
X617387D01*
X617913Y143927D01*
X618360Y144225D01*
X637324Y163190D01*
X637324Y163190D01*
X637623Y163636D01*
X637728Y164163D01*
X637728Y164163D01*
Y172829D01*
X640824Y175925D01*
X641123Y176372D01*
X641228Y176899D01*
X641228Y176899D01*
Y227234D01*
X641123Y227761D01*
X640824Y228207D01*
X621228Y247804D01*
Y254329D01*
X622421Y255522D01*
X623257D01*
X623433Y255098D01*
X624035Y254313D01*
X624820Y253711D01*
X625734Y253332D01*
X626715Y253203D01*
X627696Y253332D01*
X628610Y253711D01*
X629395Y254313D01*
X629997Y255098D01*
X630376Y256012D01*
X630505Y256993D01*
X630376Y257974D01*
X629997Y258888D01*
X629395Y259672D01*
X628610Y260275D01*
X627696Y260653D01*
X626715Y260782D01*
X625734Y260653D01*
X624820Y260275D01*
X624035Y259672D01*
X623433Y258888D01*
X623179Y258275D01*
X621851D01*
X621851Y258275D01*
X621324Y258170D01*
X620878Y257872D01*
X620360Y257354D01*
X619860Y257561D01*
Y259919D01*
X619997Y260098D01*
X620376Y261012D01*
X620505Y261993D01*
X620376Y262973D01*
X619997Y263888D01*
X619395Y264672D01*
X618610Y265275D01*
X617696Y265653D01*
X616715Y265782D01*
X615734Y265653D01*
X614820Y265275D01*
X614035Y264672D01*
X613433Y263888D01*
X613055Y262973D01*
X612925Y261993D01*
X613055Y261012D01*
X613433Y260098D01*
X614035Y259313D01*
X614820Y258711D01*
X615734Y258332D01*
X616715Y258203D01*
X616912Y257776D01*
X616921Y257451D01*
X616378Y256908D01*
X616080Y256461D01*
X615975Y255934D01*
Y246199D01*
X616080Y245672D01*
X616378Y245225D01*
X635975Y225629D01*
Y178504D01*
X632878Y175408D01*
X632580Y174961D01*
X632475Y174434D01*
Y165769D01*
X615781Y149075D01*
X609951D01*
X609424Y148970D01*
X608978Y148672D01*
X603281Y142975D01*
X521657D01*
X502760Y161872D01*
X502313Y162170D01*
X501787Y162275D01*
X435021D01*
X431528Y165769D01*
Y169493D01*
X434424Y172390D01*
X434424Y172390D01*
X434723Y172836D01*
X434828Y173363D01*
Y187499D01*
X434723Y188025D01*
X434424Y188472D01*
X431128Y191769D01*
Y208093D01*
X435624Y212590D01*
X435624Y212590D01*
X435923Y213036D01*
X436028Y213563D01*
X436028Y213563D01*
Y242099D01*
X435923Y242625D01*
X435624Y243072D01*
X433224Y245472D01*
X432778Y245770D01*
X432251Y245875D01*
X426316D01*
X426265Y245952D01*
X425570Y246416D01*
X424751Y246579D01*
X423932Y246416D01*
X423237Y245952D01*
X422773Y245257D01*
X422610Y244438D01*
X422773Y243618D01*
X423228Y242938D01*
X422773Y242257D01*
X422610Y241438D01*
X422773Y240618D01*
X423237Y239924D01*
X423932Y239459D01*
X424751Y239297D01*
X425570Y239459D01*
X426265Y239924D01*
X426652Y240503D01*
X426771Y240622D01*
X430181D01*
X430775Y240029D01*
Y215169D01*
X426278Y210672D01*
X425980Y210226D01*
X425875Y209699D01*
Y190163D01*
X425980Y189636D01*
X426278Y189190D01*
X429575Y185893D01*
Y174969D01*
X428333Y173727D01*
X427944Y174046D01*
X428038Y174186D01*
X428366Y174676D01*
X428544Y175574D01*
X428366Y176471D01*
X427857Y177232D01*
X427097Y177740D01*
X426199Y177919D01*
X425302Y177740D01*
X424541Y177232D01*
X424033Y176471D01*
X423854Y175574D01*
X424033Y174676D01*
X424541Y173916D01*
X425302Y173407D01*
X426199Y173229D01*
X427097Y173407D01*
X427587Y173735D01*
X427727Y173829D01*
X428046Y173440D01*
X426678Y172072D01*
X426379Y171625D01*
X426275Y171099D01*
Y164163D01*
X426379Y163636D01*
X426678Y163190D01*
X429942Y159926D01*
X429695Y159465D01*
X429351Y159534D01*
X428454Y159355D01*
X427693Y158847D01*
X427147Y158930D01*
X426497Y159365D01*
X425599Y159544D01*
X424702Y159365D01*
X423941Y158857D01*
X423842Y158709D01*
X423342D01*
X423309Y158757D01*
X422549Y159265D01*
X421651Y159444D01*
X420754Y159265D01*
X419993Y158757D01*
X419485Y157996D01*
X419306Y157099D01*
X419485Y156201D01*
X419993Y155440D01*
X420754Y154932D01*
X421651Y154754D01*
X422549Y154932D01*
X423309Y155440D01*
X423409Y155589D01*
X423909D01*
X423941Y155541D01*
X424702Y155032D01*
X425599Y154854D01*
X426497Y155032D01*
X427257Y155541D01*
X427803Y155457D01*
X428454Y155022D01*
X429351Y154844D01*
X430249Y155022D01*
X431009Y155531D01*
X431518Y156291D01*
X431696Y157189D01*
X431628Y157533D01*
X432089Y157779D01*
X432442Y157425D01*
X432889Y157127D01*
X433416Y157022D01*
X433416Y157022D01*
X500181D01*
X519078Y138125D01*
X519524Y137827D01*
X520051Y137722D01*
X590149D01*
X590300Y137222D01*
X589837Y136913D01*
X589373Y136218D01*
X589210Y135399D01*
X589373Y134579D01*
X589710Y134075D01*
X589469Y133575D01*
X517857D01*
X502560Y148872D01*
X502113Y149170D01*
X501587Y149275D01*
X444557D01*
X440160Y153672D01*
X439713Y153970D01*
X439187Y154075D01*
X417721D01*
X410028Y161769D01*
Y211793D01*
X419824Y221590D01*
X420123Y222036D01*
X420228Y222563D01*
X420228Y222563D01*
Y228429D01*
X421610Y229811D01*
X422645D01*
X422737Y229674D01*
X423432Y229209D01*
X424251Y229047D01*
X425070Y229209D01*
X425765Y229674D01*
X426229Y230368D01*
X426392Y231188D01*
X426229Y232007D01*
X425774Y232688D01*
X426229Y233368D01*
X426392Y234188D01*
X426229Y235007D01*
X425765Y235702D01*
X425070Y236166D01*
X424251Y236329D01*
X423432Y236166D01*
X422737Y235702D01*
X422452Y235275D01*
X420216D01*
X419689Y235170D01*
X419242Y234872D01*
X415478Y231107D01*
X415179Y230661D01*
X415075Y230134D01*
Y224269D01*
X405178Y214372D01*
X404880Y213926D01*
X404775Y213399D01*
Y206472D01*
X404275Y206321D01*
X404213Y206413D01*
X403518Y206877D01*
X402699Y207040D01*
X401880Y206877D01*
X401185Y206413D01*
X400721Y205718D01*
X400658Y205399D01*
X398851D01*
X397351Y206899D01*
Y209399D01*
X398851Y210899D01*
X402351D01*
Y214899D01*
X407351Y219899D01*
X409851Y222399D01*
Y226899D01*
Y228899D01*
X413851Y232899D01*
X418351Y237399D01*
X421851D01*
Y247399D01*
X439982D01*
Y192200D01*
X439779Y192139D01*
X439481Y192076D01*
X438749Y192565D01*
X438384Y192638D01*
X438278Y193169D01*
X438757Y193489D01*
X439266Y194249D01*
X439444Y195147D01*
X439266Y196044D01*
X438757Y196805D01*
X437997Y197313D01*
X437099Y197492D01*
X436202Y197313D01*
X435441Y196805D01*
X434933Y196044D01*
X434754Y195147D01*
X434933Y194249D01*
X435441Y193489D01*
X436202Y192980D01*
X436566Y192908D01*
X436672Y192377D01*
X436193Y192057D01*
X435685Y191296D01*
X435506Y190399D01*
X435685Y189501D01*
X436193Y188741D01*
X436954Y188232D01*
X437851Y188054D01*
X438749Y188232D01*
X439481Y188722D01*
X439779Y188659D01*
X439982Y188597D01*
Y172600D01*
X439971D01*
X440085Y171443D01*
X440422Y170331D01*
X440970Y169306D01*
X441707Y168408D01*
X442605Y167670D01*
X443630Y167122D01*
X444742Y166785D01*
X445899Y166671D01*
Y166682D01*
X517599D01*
X517607Y166684D01*
X518656Y166545D01*
X519642Y166137D01*
X520488Y165488D01*
X521137Y164642D01*
X521545Y163657D01*
X521683Y162608D01*
X521681Y162600D01*
Y150600D01*
X521671D01*
X521784Y149443D01*
X522122Y148331D01*
X522670Y147306D01*
X523407Y146408D01*
X524305Y145670D01*
X525330Y145122D01*
X526442Y144785D01*
X527599Y144671D01*
Y144682D01*
X573923D01*
X574399Y144682D01*
X574399Y144682D01*
X574399Y144682D01*
X574879Y144622D01*
X574881Y144622D01*
X574891Y144621D01*
X575380Y144604D01*
X576555Y144449D01*
X581100Y144251D01*
X585645Y144449D01*
X590155Y145043D01*
X594597Y146028D01*
X598936Y147396D01*
X603139Y149137D01*
X607174Y151238D01*
X611011Y153682D01*
X614621Y156451D01*
X617975Y159525D01*
X621048Y162879D01*
X623818Y166489D01*
X626262Y170326D01*
X628363Y174361D01*
X630104Y178564D01*
X631472Y182903D01*
X632457Y187345D01*
X633051Y191855D01*
X633249Y196400D01*
X633051Y200945D01*
X632635Y204102D01*
X632628Y204101D01*
X632585Y204319D01*
X632477Y204480D01*
X632177Y205468D01*
X631629Y206493D01*
X630892Y207392D01*
X629994Y208129D01*
X628968Y208677D01*
X627856Y209014D01*
X627184Y209081D01*
X626700Y209128D01*
X626699Y209128D01*
X626203Y209117D01*
X612999D01*
X612991Y209116D01*
X611942Y209254D01*
X610957Y209662D01*
X610111Y210311D01*
X609461Y211157D01*
X609053Y212142D01*
X608915Y213192D01*
X608917Y213200D01*
Y247004D01*
X608928Y247499D01*
X608928Y247501D01*
X608881Y247980D01*
X608814Y248657D01*
X608476Y249770D01*
X607929Y250795D01*
X607191Y251693D01*
X606367Y252369D01*
X606365Y252373D01*
X600634Y258104D01*
Y287824D01*
X600564Y288175D01*
X600365Y288473D01*
X600067Y288671D01*
X599716Y288741D01*
X572445D01*
X572414Y289057D01*
X572076Y290170D01*
X571529Y291194D01*
X571296Y291478D01*
X571295Y291482D01*
X571142Y291711D01*
X571175Y291740D01*
X570695Y292303D01*
X569802Y293759D01*
X569149Y295337D01*
X568750Y296997D01*
X568616Y298700D01*
X568750Y300402D01*
X569149Y302063D01*
X569802Y303641D01*
X570695Y305097D01*
X571188Y305674D01*
X571154Y305703D01*
X571308Y305934D01*
X571309Y305937D01*
X571529Y306205D01*
X572076Y307230D01*
X572414Y308342D01*
X572440Y308606D01*
X599716D01*
X600067Y308676D01*
X600365Y308875D01*
X600381Y308899D01*
X629959D01*
X630216Y308470D01*
X630012Y308087D01*
X629611Y306766D01*
X629476Y305393D01*
X629611Y304019D01*
X630012Y302699D01*
X630662Y301482D01*
X631537Y300415D01*
X632604Y299540D01*
X633821Y298889D01*
X635142Y298489D01*
X636515Y298353D01*
X637888Y298489D01*
X639209Y298889D01*
X640426Y299540D01*
X641493Y300415D01*
X642368Y301482D01*
X643019Y302699D01*
X643419Y304019D01*
X643554Y305393D01*
X643419Y306766D01*
X643019Y308087D01*
X642814Y308470D01*
X643071Y308899D01*
X688637D01*
X688797Y298700D01*
D02*
G37*
%LPC*%
G36*
X569099Y471045D02*
X568202Y470866D01*
X567441Y470358D01*
X566933Y469597D01*
X566754Y468700D01*
X566933Y467802D01*
X567441Y467041D01*
X568202Y466533D01*
X569099Y466355D01*
X569997Y466533D01*
X570757Y467041D01*
X571266Y467802D01*
X571444Y468700D01*
X571266Y469597D01*
X570757Y470358D01*
X569997Y470866D01*
X569099Y471045D01*
D02*
G37*
G36*
X593081Y465138D02*
Y461519D01*
X596701D01*
X596624Y462102D01*
X596206Y463111D01*
X595541Y463978D01*
X594674Y464643D01*
X593664Y465061D01*
X593081Y465138D01*
D02*
G37*
G36*
X592081D02*
X591498Y465061D01*
X590488Y464643D01*
X589622Y463978D01*
X588957Y463111D01*
X588538Y462102D01*
X588462Y461519D01*
X592081D01*
Y465138D01*
D02*
G37*
G36*
X551331Y465126D02*
Y461507D01*
X554951D01*
X554874Y462090D01*
X554456Y463099D01*
X553791Y463966D01*
X552924Y464631D01*
X551914Y465049D01*
X551331Y465126D01*
D02*
G37*
G36*
X550331D02*
X549748Y465049D01*
X548738Y464631D01*
X547872Y463966D01*
X547207Y463099D01*
X546788Y462090D01*
X546712Y461507D01*
X550331D01*
Y465126D01*
D02*
G37*
G36*
X596701Y460519D02*
X593081D01*
Y456899D01*
X593664Y456976D01*
X594674Y457394D01*
X595541Y458059D01*
X596206Y458926D01*
X596624Y459936D01*
X596701Y460519D01*
D02*
G37*
G36*
X592081D02*
X588462D01*
X588538Y459936D01*
X588957Y458926D01*
X589622Y458059D01*
X590488Y457394D01*
X591498Y456976D01*
X592081Y456899D01*
Y460519D01*
D02*
G37*
G36*
X554951Y460507D02*
X551331D01*
Y456887D01*
X551914Y456964D01*
X552924Y457382D01*
X553791Y458047D01*
X554456Y458914D01*
X554874Y459924D01*
X554951Y460507D01*
D02*
G37*
G36*
X550331D02*
X546712D01*
X546788Y459924D01*
X547207Y458914D01*
X547872Y458047D01*
X548738Y457382D01*
X549748Y456964D01*
X550331Y456887D01*
Y460507D01*
D02*
G37*
G36*
X602424Y465305D02*
X601315Y465159D01*
X600281Y464731D01*
X599393Y464049D01*
X598712Y463162D01*
X598284Y462128D01*
X598138Y461019D01*
X598284Y459909D01*
X598712Y458876D01*
X599393Y457988D01*
X600281Y457307D01*
X601315Y456879D01*
X602424Y456733D01*
X603534Y456879D01*
X604567Y457307D01*
X605455Y457988D01*
X606136Y458876D01*
X606564Y459909D01*
X606710Y461019D01*
X606564Y462128D01*
X606136Y463162D01*
X605455Y464049D01*
X604567Y464731D01*
X603534Y465159D01*
X602424Y465305D01*
D02*
G37*
G36*
X582738D02*
X581629Y465159D01*
X580595Y464731D01*
X579707Y464049D01*
X579026Y463162D01*
X578598Y462128D01*
X578452Y461019D01*
X578598Y459909D01*
X579026Y458876D01*
X579707Y457988D01*
X580595Y457307D01*
X581629Y456879D01*
X582738Y456733D01*
X583848Y456879D01*
X584881Y457307D01*
X585769Y457988D01*
X586450Y458876D01*
X586878Y459909D01*
X587024Y461019D01*
X586878Y462128D01*
X586450Y463162D01*
X585769Y464049D01*
X584881Y464731D01*
X583848Y465159D01*
X582738Y465305D01*
D02*
G37*
G36*
X560674Y465293D02*
X559565Y465147D01*
X558531Y464719D01*
X557643Y464038D01*
X556962Y463150D01*
X556534Y462116D01*
X556388Y461007D01*
X556534Y459897D01*
X556962Y458864D01*
X557643Y457976D01*
X558531Y457295D01*
X559565Y456867D01*
X560674Y456720D01*
X561784Y456867D01*
X562817Y457295D01*
X563705Y457976D01*
X564386Y458864D01*
X564814Y459897D01*
X564960Y461007D01*
X564814Y462116D01*
X564386Y463150D01*
X563705Y464038D01*
X562817Y464719D01*
X561784Y465147D01*
X560674Y465293D01*
D02*
G37*
G36*
X540988D02*
X539879Y465147D01*
X538845Y464719D01*
X537957Y464038D01*
X537276Y463150D01*
X536848Y462116D01*
X536702Y461007D01*
X536848Y459897D01*
X537276Y458864D01*
X537957Y457976D01*
X538845Y457295D01*
X539879Y456867D01*
X540988Y456720D01*
X542098Y456867D01*
X543131Y457295D01*
X544019Y457976D01*
X544700Y458864D01*
X545128Y459897D01*
X545274Y461007D01*
X545128Y462116D01*
X544700Y463150D01*
X544019Y464038D01*
X543131Y464719D01*
X542098Y465147D01*
X540988Y465293D01*
D02*
G37*
G36*
X619099Y461045D02*
X618202Y460866D01*
X617441Y460358D01*
X616933Y459597D01*
X616754Y458700D01*
X616933Y457802D01*
X617441Y457042D01*
X618202Y456533D01*
X619099Y456355D01*
X619997Y456533D01*
X620757Y457042D01*
X621266Y457802D01*
X621444Y458700D01*
X621266Y459597D01*
X620757Y460358D01*
X619997Y460866D01*
X619099Y461045D01*
D02*
G37*
G36*
X627351Y458540D02*
X626532Y458377D01*
X625837Y457913D01*
X625373Y457218D01*
X625210Y456399D01*
X625373Y455579D01*
X625837Y454885D01*
X626532Y454421D01*
X627351Y454258D01*
X627919Y454371D01*
X628323Y453967D01*
X628210Y453399D01*
X628373Y452579D01*
X628837Y451885D01*
X629532Y451421D01*
X630351Y451258D01*
X631171Y451421D01*
X631865Y451885D01*
X632329Y452579D01*
X632492Y453399D01*
X632329Y454218D01*
X631865Y454913D01*
X631171Y455377D01*
X630351Y455540D01*
X629783Y455427D01*
X629379Y455831D01*
X629492Y456399D01*
X629329Y457218D01*
X628865Y457913D01*
X628170Y458377D01*
X627351Y458540D01*
D02*
G37*
G36*
X635799Y451141D02*
X634980Y450978D01*
X634285Y450514D01*
X633821Y449819D01*
X633658Y449000D01*
X633821Y448180D01*
X634285Y447486D01*
X634980Y447022D01*
X635799Y446859D01*
X636619Y447022D01*
X637313Y447486D01*
X637777Y448180D01*
X637940Y449000D01*
X637777Y449819D01*
X637313Y450514D01*
X636619Y450978D01*
X635799Y451141D01*
D02*
G37*
G36*
X507799Y450745D02*
X506902Y450566D01*
X506141Y450058D01*
X505633Y449297D01*
X505454Y448400D01*
X505633Y447502D01*
X506141Y446741D01*
X506902Y446233D01*
X507799Y446055D01*
X508697Y446233D01*
X509457Y446741D01*
X509966Y447502D01*
X510144Y448400D01*
X509966Y449297D01*
X509457Y450058D01*
X508697Y450566D01*
X507799Y450745D01*
D02*
G37*
G36*
X476099Y448645D02*
X475202Y448466D01*
X474441Y447958D01*
X473933Y447197D01*
X473754Y446300D01*
X473933Y445402D01*
X474441Y444641D01*
X475202Y444133D01*
X476099Y443955D01*
X476997Y444133D01*
X477757Y444641D01*
X478266Y445402D01*
X478444Y446300D01*
X478266Y447197D01*
X477757Y447958D01*
X476997Y448466D01*
X476099Y448645D01*
D02*
G37*
G36*
X417951Y457135D02*
X416481Y456990D01*
X415067Y456561D01*
X413764Y455865D01*
X412622Y454928D01*
X411685Y453786D01*
X410989Y452483D01*
X410560Y451069D01*
X410415Y449599D01*
X410560Y448128D01*
X410989Y446715D01*
X411685Y445412D01*
X412622Y444270D01*
X413764Y443332D01*
X415067Y442636D01*
X416481Y442207D01*
X417951Y442062D01*
X419421Y442207D01*
X420835Y442636D01*
X422138Y443332D01*
X423280Y444270D01*
X424217Y445412D01*
X424914Y446715D01*
X425343Y448128D01*
X425487Y449599D01*
X425343Y451069D01*
X424914Y452483D01*
X424217Y453786D01*
X423280Y454928D01*
X422138Y455865D01*
X420835Y456561D01*
X419421Y456990D01*
X417951Y457135D01*
D02*
G37*
G36*
X456194Y444667D02*
Y441048D01*
X459814D01*
X459737Y441631D01*
X459319Y442640D01*
X458654Y443507D01*
X457787Y444172D01*
X456777Y444590D01*
X456194Y444667D01*
D02*
G37*
G36*
X498562D02*
Y441048D01*
X502182D01*
X502105Y441631D01*
X501687Y442640D01*
X501022Y443507D01*
X500155Y444172D01*
X499145Y444590D01*
X498562Y444667D01*
D02*
G37*
G36*
X497562D02*
X496979Y444590D01*
X495969Y444172D01*
X495103Y443507D01*
X494438Y442640D01*
X494019Y441631D01*
X493943Y441048D01*
X497562D01*
Y444667D01*
D02*
G37*
G36*
X455194D02*
X454611Y444590D01*
X453602Y444172D01*
X452735Y443507D01*
X452070Y442640D01*
X451651Y441631D01*
X451575Y441048D01*
X455194D01*
Y444667D01*
D02*
G37*
G36*
X638799Y445041D02*
X637980Y444878D01*
X637285Y444414D01*
X636821Y443719D01*
X636658Y442900D01*
X636821Y442080D01*
X637285Y441386D01*
X637980Y440922D01*
X638799Y440759D01*
X639618Y440922D01*
X640313Y441386D01*
X640777Y442080D01*
X640940Y442900D01*
X640777Y443719D01*
X640313Y444414D01*
X639618Y444878D01*
X638799Y445041D01*
D02*
G37*
G36*
X502182Y440048D02*
X498562D01*
Y436428D01*
X499145Y436505D01*
X500155Y436923D01*
X501022Y437588D01*
X501687Y438455D01*
X502105Y439465D01*
X502182Y440048D01*
D02*
G37*
G36*
X459814D02*
X456194D01*
Y436428D01*
X456777Y436505D01*
X457787Y436923D01*
X458654Y437588D01*
X459319Y438455D01*
X459737Y439465D01*
X459814Y440048D01*
D02*
G37*
G36*
X497562D02*
X493943D01*
X494019Y439465D01*
X494438Y438455D01*
X495103Y437588D01*
X495969Y436923D01*
X496979Y436505D01*
X497562Y436428D01*
Y440048D01*
D02*
G37*
G36*
X455194D02*
X451575D01*
X451651Y439465D01*
X452070Y438455D01*
X452735Y437588D01*
X453602Y436923D01*
X454611Y436505D01*
X455194Y436428D01*
Y440048D01*
D02*
G37*
G36*
X507905Y444834D02*
X506796Y444688D01*
X505762Y444260D01*
X504874Y443578D01*
X504193Y442691D01*
X503765Y441657D01*
X503619Y440548D01*
X503765Y439438D01*
X504193Y438405D01*
X504874Y437517D01*
X505762Y436836D01*
X506796Y436408D01*
X507905Y436262D01*
X509015Y436408D01*
X510048Y436836D01*
X510936Y437517D01*
X511617Y438405D01*
X512045Y439438D01*
X512191Y440548D01*
X512045Y441657D01*
X511617Y442691D01*
X510936Y443578D01*
X510048Y444260D01*
X509015Y444688D01*
X507905Y444834D01*
D02*
G37*
G36*
X488219D02*
X487110Y444688D01*
X486076Y444260D01*
X485188Y443578D01*
X484507Y442691D01*
X484079Y441657D01*
X483933Y440548D01*
X484079Y439438D01*
X484507Y438405D01*
X485188Y437517D01*
X486076Y436836D01*
X487110Y436408D01*
X488219Y436262D01*
X489328Y436408D01*
X490362Y436836D01*
X491250Y437517D01*
X491931Y438405D01*
X492359Y439438D01*
X492505Y440548D01*
X492359Y441657D01*
X491931Y442691D01*
X491250Y443578D01*
X490362Y444260D01*
X489328Y444688D01*
X488219Y444834D01*
D02*
G37*
G36*
X465537D02*
X464428Y444688D01*
X463394Y444260D01*
X462506Y443578D01*
X461825Y442691D01*
X461397Y441657D01*
X461251Y440548D01*
X461397Y439438D01*
X461825Y438405D01*
X462506Y437517D01*
X463394Y436836D01*
X464428Y436408D01*
X465537Y436262D01*
X466646Y436408D01*
X467680Y436836D01*
X468568Y437517D01*
X469249Y438405D01*
X469677Y439438D01*
X469823Y440548D01*
X469677Y441657D01*
X469249Y442691D01*
X468568Y443578D01*
X467680Y444260D01*
X466646Y444688D01*
X465537Y444834D01*
D02*
G37*
G36*
X445851D02*
X444742Y444688D01*
X443708Y444260D01*
X442820Y443578D01*
X442139Y442691D01*
X441711Y441657D01*
X441565Y440548D01*
X441711Y439438D01*
X442139Y438405D01*
X442820Y437517D01*
X443708Y436836D01*
X444742Y436408D01*
X445851Y436262D01*
X446960Y436408D01*
X447994Y436836D01*
X448882Y437517D01*
X449563Y438405D01*
X449991Y439438D01*
X450137Y440548D01*
X449991Y441657D01*
X449563Y442691D01*
X448882Y443578D01*
X447994Y444260D01*
X446960Y444688D01*
X445851Y444834D01*
D02*
G37*
G36*
X648851Y417540D02*
X648032Y417377D01*
X647337Y416913D01*
X646873Y416218D01*
X646710Y415399D01*
X646873Y414579D01*
X647337Y413885D01*
X648032Y413421D01*
X648851Y413258D01*
X649671Y413421D01*
X650365Y413885D01*
X650829Y414579D01*
X650992Y415399D01*
X650829Y416218D01*
X650365Y416913D01*
X649671Y417377D01*
X648851Y417540D01*
D02*
G37*
G36*
X661699Y419645D02*
X660802Y419466D01*
X660041Y418958D01*
X659533Y418197D01*
X659354Y417300D01*
X659533Y416402D01*
X660041Y415641D01*
X660802Y415133D01*
X661699Y414955D01*
X661871Y414783D01*
X661854Y414700D01*
X662033Y413802D01*
X662541Y413041D01*
X663302Y412533D01*
X664199Y412355D01*
X665097Y412533D01*
X665857Y413041D01*
X666366Y413802D01*
X666544Y414700D01*
X666366Y415597D01*
X665857Y416358D01*
X665097Y416866D01*
X664199Y417045D01*
X664028Y417216D01*
X664044Y417300D01*
X663866Y418197D01*
X663357Y418958D01*
X662597Y419466D01*
X661699Y419645D01*
D02*
G37*
G36*
X658351Y413040D02*
X657532Y412877D01*
X656837Y412413D01*
X656373Y411718D01*
X656210Y410899D01*
X656373Y410079D01*
X656837Y409385D01*
X657532Y408921D01*
X658351Y408758D01*
X659170Y408921D01*
X659865Y409385D01*
X660329Y410079D01*
X660492Y410899D01*
X660329Y411718D01*
X659865Y412413D01*
X659170Y412877D01*
X658351Y413040D01*
D02*
G37*
G36*
X648351Y401540D02*
X647532Y401377D01*
X646837Y400913D01*
X646373Y400218D01*
X646210Y399399D01*
X646373Y398579D01*
X646837Y397885D01*
X647532Y397421D01*
X648351Y397258D01*
X649170Y397421D01*
X649865Y397885D01*
X650329Y398579D01*
X650492Y399399D01*
X650329Y400218D01*
X649865Y400913D01*
X649170Y401377D01*
X648351Y401540D01*
D02*
G37*
G36*
Y391540D02*
X647532Y391377D01*
X646837Y390913D01*
X646373Y390218D01*
X646210Y389399D01*
X646373Y388579D01*
X646837Y387885D01*
X647532Y387421D01*
X648351Y387258D01*
X649170Y387421D01*
X649865Y387885D01*
X650329Y388579D01*
X650492Y389399D01*
X650329Y390218D01*
X649865Y390913D01*
X649170Y391377D01*
X648351Y391540D01*
D02*
G37*
G36*
X659099Y391045D02*
X658202Y390866D01*
X657441Y390358D01*
X656933Y389597D01*
X656754Y388700D01*
X656933Y387802D01*
X657441Y387041D01*
X658202Y386533D01*
X659099Y386355D01*
X659997Y386533D01*
X660757Y387041D01*
X661266Y387802D01*
X661444Y388700D01*
X661266Y389597D01*
X660757Y390358D01*
X659997Y390866D01*
X659099Y391045D01*
D02*
G37*
G36*
X646351Y386540D02*
X645532Y386377D01*
X644837Y385913D01*
X644373Y385218D01*
X644210Y384399D01*
X644373Y383579D01*
X644837Y382885D01*
X645532Y382421D01*
X646351Y382258D01*
X647170Y382421D01*
X647865Y382885D01*
X648329Y383579D01*
X648492Y384399D01*
X648329Y385218D01*
X647865Y385913D01*
X647170Y386377D01*
X646351Y386540D01*
D02*
G37*
G36*
X654351Y378540D02*
X653532Y378377D01*
X652837Y377913D01*
X652373Y377218D01*
X652210Y376399D01*
X652373Y375579D01*
X652837Y374885D01*
X653532Y374421D01*
X654351Y374258D01*
X655170Y374421D01*
X655865Y374885D01*
X656329Y375579D01*
X656492Y376399D01*
X656329Y377218D01*
X655865Y377913D01*
X655170Y378377D01*
X654351Y378540D01*
D02*
G37*
G36*
X679099Y371045D02*
X678202Y370866D01*
X677441Y370358D01*
X676933Y369597D01*
X676754Y368700D01*
X676933Y367802D01*
X677441Y367041D01*
X678202Y366533D01*
X679099Y366355D01*
X679997Y366533D01*
X680757Y367041D01*
X681266Y367802D01*
X681444Y368700D01*
X681266Y369597D01*
X680757Y370358D01*
X679997Y370866D01*
X679099Y371045D01*
D02*
G37*
G36*
X659099D02*
X658202Y370866D01*
X657441Y370358D01*
X656933Y369597D01*
X656754Y368700D01*
X656933Y367802D01*
X657441Y367041D01*
X658202Y366533D01*
X659099Y366355D01*
X659997Y366533D01*
X660757Y367041D01*
X661266Y367802D01*
X661444Y368700D01*
X661266Y369597D01*
X660757Y370358D01*
X659997Y370866D01*
X659099Y371045D01*
D02*
G37*
G36*
X621499Y365145D02*
X620602Y364966D01*
X619841Y364458D01*
X619333Y363697D01*
X619154Y362800D01*
X619333Y361902D01*
X619841Y361141D01*
X620602Y360633D01*
X621499Y360455D01*
X622397Y360633D01*
X623157Y361141D01*
X623666Y361902D01*
X623844Y362800D01*
X623666Y363697D01*
X623157Y364458D01*
X622397Y364966D01*
X621499Y365145D01*
D02*
G37*
G36*
X680351Y357540D02*
X679532Y357377D01*
X678837Y356913D01*
X678373Y356218D01*
X678210Y355399D01*
X678373Y354579D01*
X678837Y353885D01*
X679532Y353421D01*
X680351Y353258D01*
X681171Y353421D01*
X681865Y353885D01*
X682329Y354579D01*
X682492Y355399D01*
X682329Y356218D01*
X681865Y356913D01*
X681171Y357377D01*
X680351Y357540D01*
D02*
G37*
G36*
X631299Y357445D02*
X630402Y357266D01*
X629641Y356758D01*
X629133Y355997D01*
X628954Y355100D01*
X629133Y354202D01*
X629641Y353442D01*
X630402Y352933D01*
X631299Y352755D01*
X632197Y352933D01*
X632957Y353442D01*
X633466Y354202D01*
X633644Y355100D01*
X633466Y355997D01*
X632957Y356758D01*
X632197Y357266D01*
X631299Y357445D01*
D02*
G37*
G36*
X651487Y356791D02*
X649537Y356599D01*
X647661Y356030D01*
X645932Y355106D01*
X644417Y353863D01*
X643174Y352347D01*
X642250Y350619D01*
X642243Y350597D01*
X641782Y350406D01*
X640994Y350827D01*
X639373Y351318D01*
X637687Y351484D01*
X636001Y351318D01*
X634380Y350827D01*
X632886Y350028D01*
X631577Y348953D01*
X630502Y347644D01*
X629703Y346150D01*
X629212Y344529D01*
X629045Y342843D01*
X629212Y341157D01*
X629703Y339536D01*
X630502Y338042D01*
X631577Y336732D01*
X632886Y335658D01*
X634380Y334859D01*
X636001Y334367D01*
X637687Y334201D01*
X639373Y334367D01*
X640994Y334859D01*
X642488Y335658D01*
X643798Y336732D01*
X644872Y338042D01*
X645173Y338603D01*
X645663Y338701D01*
X645932Y338480D01*
X647661Y337556D01*
X649537Y336987D01*
X651487Y336795D01*
X653438Y336987D01*
X655313Y337556D01*
X657042Y338480D01*
X658557Y339723D01*
X659800Y341238D01*
X660724Y342967D01*
X661293Y344842D01*
X661485Y346793D01*
X661293Y348743D01*
X660724Y350619D01*
X659800Y352347D01*
X658557Y353863D01*
X657042Y355106D01*
X655313Y356030D01*
X653438Y356599D01*
X651487Y356791D01*
D02*
G37*
G36*
X621299Y353245D02*
X620402Y353066D01*
X619641Y352558D01*
X619133Y351797D01*
X618954Y350900D01*
X619133Y350002D01*
X619641Y349241D01*
X620402Y348733D01*
X621299Y348555D01*
X622197Y348733D01*
X622957Y349241D01*
X623466Y350002D01*
X623644Y350900D01*
X623466Y351797D01*
X622957Y352558D01*
X622197Y353066D01*
X621299Y353245D01*
D02*
G37*
G36*
X619599Y346945D02*
X618702Y346766D01*
X617941Y346258D01*
X617433Y345497D01*
X617254Y344600D01*
X617433Y343702D01*
X617941Y342941D01*
X618702Y342433D01*
X619599Y342255D01*
X620497Y342433D01*
X621257Y342941D01*
X621766Y343702D01*
X621944Y344600D01*
X621766Y345497D01*
X621257Y346258D01*
X620497Y346766D01*
X619599Y346945D01*
D02*
G37*
G36*
X673901Y342490D02*
X673082Y342327D01*
X672387Y341863D01*
X671923Y341168D01*
X671760Y340349D01*
X671923Y339529D01*
X672387Y338835D01*
X673082Y338371D01*
X673901Y338208D01*
X674720Y338371D01*
X675415Y338835D01*
X675879Y339529D01*
X676042Y340349D01*
X675879Y341168D01*
X675415Y341863D01*
X674720Y342327D01*
X673901Y342490D01*
D02*
G37*
G36*
X629099Y331045D02*
X628202Y330866D01*
X627441Y330358D01*
X626933Y329597D01*
X626754Y328700D01*
X626933Y327802D01*
X627441Y327042D01*
X628202Y326533D01*
X629099Y326355D01*
X629997Y326533D01*
X630757Y327042D01*
X631266Y327802D01*
X631444Y328700D01*
X631266Y329597D01*
X630757Y330358D01*
X629997Y330866D01*
X629099Y331045D01*
D02*
G37*
G36*
X651987Y333738D02*
Y322893D01*
X662833D01*
X662732Y324174D01*
X662315Y325911D01*
X661631Y327561D01*
X660698Y329085D01*
X659538Y330443D01*
X658179Y331604D01*
X656656Y332537D01*
X655005Y333221D01*
X653268Y333638D01*
X651987Y333738D01*
D02*
G37*
G36*
X650987D02*
X649706Y333638D01*
X647969Y333221D01*
X646318Y332537D01*
X644795Y331604D01*
X643437Y330443D01*
X642276Y329085D01*
X641343Y327561D01*
X640659Y325911D01*
X640242Y324174D01*
X640141Y322893D01*
X650987D01*
Y333738D01*
D02*
G37*
G36*
X662833Y321893D02*
X651987D01*
Y311047D01*
X653268Y311148D01*
X655005Y311565D01*
X656656Y312248D01*
X658179Y313182D01*
X659538Y314342D01*
X660698Y315701D01*
X661631Y317224D01*
X662315Y318875D01*
X662732Y320612D01*
X662833Y321893D01*
D02*
G37*
G36*
X650987D02*
X640141D01*
X640242Y320612D01*
X640659Y318875D01*
X641343Y317224D01*
X642276Y315701D01*
X643437Y314342D01*
X644795Y313182D01*
X646318Y312248D01*
X647969Y311565D01*
X649706Y311148D01*
X650987Y311047D01*
Y321893D01*
D02*
G37*
G36*
X447351Y308744D02*
X446454Y308565D01*
X445693Y308057D01*
X445185Y307296D01*
X445006Y306399D01*
X445185Y305501D01*
X445693Y304741D01*
X446454Y304232D01*
X447351Y304054D01*
X448249Y304232D01*
X449009Y304741D01*
X449518Y305501D01*
X449696Y306399D01*
X449518Y307296D01*
X449009Y308057D01*
X448249Y308565D01*
X447351Y308744D01*
D02*
G37*
G36*
X482351Y305744D02*
X481454Y305565D01*
X480693Y305057D01*
X480185Y304296D01*
X480006Y303399D01*
X480185Y302501D01*
X480693Y301741D01*
X481454Y301232D01*
X482351Y301054D01*
X483249Y301232D01*
X484009Y301741D01*
X484518Y302501D01*
X484696Y303399D01*
X484518Y304296D01*
X484009Y305057D01*
X483249Y305565D01*
X482351Y305744D01*
D02*
G37*
G36*
X455199Y294945D02*
X454302Y294766D01*
X453541Y294258D01*
X453033Y293497D01*
X452854Y292600D01*
X453033Y291702D01*
X453541Y290942D01*
X454302Y290433D01*
X455199Y290255D01*
X456097Y290433D01*
X456857Y290942D01*
X457366Y291702D01*
X457544Y292600D01*
X457366Y293497D01*
X456857Y294258D01*
X456097Y294766D01*
X455199Y294945D01*
D02*
G37*
G36*
X447851Y293730D02*
X447032Y293567D01*
X446337Y293103D01*
X445873Y292408D01*
X445710Y291589D01*
X445873Y290769D01*
X446337Y290075D01*
X447032Y289611D01*
X447851Y289448D01*
X448670Y289611D01*
X449365Y290075D01*
X449829Y290769D01*
X449992Y291589D01*
X449829Y292408D01*
X449365Y293103D01*
X448670Y293567D01*
X447851Y293730D01*
D02*
G37*
G36*
X476137Y292182D02*
X473274D01*
Y289320D01*
X476137D01*
Y292182D01*
D02*
G37*
G36*
X472274D02*
X469412D01*
Y289320D01*
X472274D01*
Y292182D01*
D02*
G37*
G36*
X476137Y288320D02*
X473274D01*
Y285457D01*
X476137D01*
Y288320D01*
D02*
G37*
G36*
X472274D02*
X469412D01*
Y285457D01*
X472274D01*
Y288320D01*
D02*
G37*
G36*
X496037Y292282D02*
X489112D01*
Y285357D01*
X496037D01*
Y292282D01*
D02*
G37*
G36*
X486137D02*
X479212D01*
Y285357D01*
X486137D01*
Y292282D01*
D02*
G37*
G36*
X425099Y275345D02*
X424202Y275166D01*
X423441Y274658D01*
X423199Y274296D01*
X422699D01*
X422457Y274658D01*
X421697Y275166D01*
X420799Y275345D01*
X419902Y275166D01*
X419141Y274658D01*
X418633Y273897D01*
X418454Y273000D01*
X418633Y272102D01*
X419141Y271341D01*
X419902Y270833D01*
X420670Y270680D01*
X420654Y270600D01*
X420833Y269702D01*
X421341Y268941D01*
X422102Y268433D01*
X422999Y268255D01*
X423897Y268433D01*
X424657Y268941D01*
X424815Y269178D01*
X425416D01*
X425641Y268842D01*
X426402Y268333D01*
X427299Y268155D01*
X428197Y268333D01*
X428957Y268842D01*
X429466Y269602D01*
X429644Y270500D01*
X429466Y271397D01*
X428957Y272158D01*
X428197Y272666D01*
X427409Y272823D01*
X427444Y273000D01*
X427266Y273897D01*
X426757Y274658D01*
X425997Y275166D01*
X425099Y275345D01*
D02*
G37*
G36*
X420351Y265040D02*
X419532Y264877D01*
X418837Y264413D01*
X418373Y263718D01*
X418210Y262899D01*
X418373Y262079D01*
X418837Y261385D01*
X419532Y260921D01*
X420351Y260758D01*
X420358Y260759D01*
X420611Y260506D01*
X420725Y260322D01*
X420873Y259579D01*
X421337Y258885D01*
X422032Y258421D01*
X422851Y258258D01*
X423670Y258421D01*
X424365Y258885D01*
X424829Y259579D01*
X424992Y260399D01*
X424829Y261218D01*
X424365Y261913D01*
X423670Y262377D01*
X422851Y262540D01*
X422845Y262539D01*
X422591Y262792D01*
X422477Y262975D01*
X422329Y263718D01*
X421865Y264413D01*
X421171Y264877D01*
X420351Y265040D01*
D02*
G37*
G36*
X423851Y257540D02*
X423032Y257377D01*
X422337Y256913D01*
X421873Y256218D01*
X421710Y255399D01*
X421873Y254579D01*
X422337Y253885D01*
X423032Y253421D01*
X423851Y253258D01*
X424671Y253421D01*
X425365Y253885D01*
X425829Y254579D01*
X425992Y255399D01*
X425829Y256218D01*
X425365Y256913D01*
X424671Y257377D01*
X423851Y257540D01*
D02*
G37*
G36*
X235451Y194640D02*
X234632Y194477D01*
X233937Y194013D01*
X233473Y193318D01*
X233310Y192499D01*
X233473Y191679D01*
X233937Y190985D01*
X234632Y190521D01*
X235451Y190358D01*
X236270Y190521D01*
X236965Y190985D01*
X237429Y191679D01*
X237592Y192499D01*
X237429Y193318D01*
X236965Y194013D01*
X236270Y194477D01*
X235451Y194640D01*
D02*
G37*
G36*
X257351Y183540D02*
X256532Y183377D01*
X255837Y182913D01*
X255373Y182218D01*
X255210Y181399D01*
X255373Y180579D01*
X255837Y179885D01*
X256532Y179421D01*
X257351Y179258D01*
X258171Y179421D01*
X258865Y179885D01*
X259329Y180579D01*
X259492Y181399D01*
X259329Y182218D01*
X258865Y182913D01*
X258171Y183377D01*
X257351Y183540D01*
D02*
G37*
G36*
X219299Y192036D02*
X217829Y191891D01*
X216415Y191462D01*
X215112Y190766D01*
X213970Y189829D01*
X213033Y188687D01*
X212336Y187384D01*
X211908Y185970D01*
X211763Y184500D01*
X211908Y183029D01*
X212336Y181616D01*
X213033Y180313D01*
X213970Y179171D01*
X215112Y178234D01*
X216415Y177537D01*
X217829Y177108D01*
X219299Y176963D01*
X220769Y177108D01*
X222183Y177537D01*
X223486Y178234D01*
X224628Y179171D01*
X225565Y180313D01*
X226262Y181616D01*
X226691Y183029D01*
X226835Y184500D01*
X226691Y185970D01*
X226262Y187384D01*
X225565Y188687D01*
X224628Y189829D01*
X223486Y190766D01*
X222183Y191462D01*
X220769Y191891D01*
X219299Y192036D01*
D02*
G37*
G36*
X234399Y176641D02*
X233580Y176478D01*
X232885Y176014D01*
X232421Y175319D01*
X232258Y174500D01*
X232421Y173680D01*
X232885Y172986D01*
X233580Y172522D01*
X234399Y172359D01*
X235219Y172522D01*
X235913Y172986D01*
X236377Y173680D01*
X236540Y174500D01*
X236377Y175319D01*
X235913Y176014D01*
X235219Y176478D01*
X234399Y176641D01*
D02*
G37*
G36*
X257599Y175545D02*
X256702Y175366D01*
X255941Y174858D01*
X255433Y174097D01*
X255254Y173200D01*
X255433Y172302D01*
X255941Y171542D01*
X256702Y171033D01*
X257599Y170855D01*
X258497Y171033D01*
X259257Y171542D01*
X259766Y172302D01*
X259944Y173200D01*
X259766Y174097D01*
X259257Y174858D01*
X258497Y175366D01*
X257599Y175545D01*
D02*
G37*
G36*
X219099Y171045D02*
X218202Y170866D01*
X217441Y170358D01*
X216933Y169597D01*
X216754Y168700D01*
X216933Y167802D01*
X217441Y167042D01*
X218202Y166533D01*
X219099Y166355D01*
X219997Y166533D01*
X220757Y167042D01*
X221266Y167802D01*
X221444Y168700D01*
X221266Y169597D01*
X220757Y170358D01*
X219997Y170866D01*
X219099Y171045D01*
D02*
G37*
G36*
X254851Y170540D02*
X254032Y170377D01*
X253337Y169913D01*
X252873Y169218D01*
X252710Y168399D01*
X252873Y167579D01*
X253337Y166885D01*
X254032Y166421D01*
X254851Y166258D01*
X255670Y166421D01*
X256365Y166885D01*
X256829Y167579D01*
X256992Y168399D01*
X256829Y169218D01*
X256365Y169913D01*
X255670Y170377D01*
X254851Y170540D01*
D02*
G37*
G36*
X239099Y165441D02*
X238280Y165278D01*
X237585Y164814D01*
X237121Y164119D01*
X236958Y163300D01*
X237121Y162480D01*
X237585Y161786D01*
X238280Y161322D01*
X239099Y161159D01*
X239918Y161322D01*
X240613Y161786D01*
X241077Y162480D01*
X241240Y163300D01*
X241077Y164119D01*
X240613Y164814D01*
X239918Y165278D01*
X239099Y165441D01*
D02*
G37*
G36*
X266351Y160540D02*
X265532Y160377D01*
X264837Y159913D01*
X264373Y159218D01*
X264210Y158399D01*
X264373Y157579D01*
X264837Y156885D01*
X265532Y156421D01*
X266351Y156258D01*
X267171Y156421D01*
X267865Y156885D01*
X268329Y157579D01*
X268492Y158399D01*
X268329Y159218D01*
X267865Y159913D01*
X267171Y160377D01*
X266351Y160540D01*
D02*
G37*
G36*
X243599Y160945D02*
X242702Y160766D01*
X241941Y160258D01*
X241433Y159497D01*
X241254Y158600D01*
X241433Y157702D01*
X241941Y156941D01*
X242702Y156433D01*
X243599Y156255D01*
X244497Y156433D01*
X245257Y156941D01*
X245766Y157702D01*
X245944Y158600D01*
X245766Y159497D01*
X245257Y160258D01*
X244497Y160766D01*
X243599Y160945D01*
D02*
G37*
G36*
X314599Y156641D02*
X313780Y156478D01*
X313085Y156014D01*
X312621Y155319D01*
X312458Y154500D01*
X312621Y153680D01*
X313085Y152986D01*
X313780Y152522D01*
X314599Y152359D01*
X315419Y152522D01*
X316113Y152986D01*
X316577Y153680D01*
X316740Y154500D01*
X316577Y155319D01*
X316113Y156014D01*
X315419Y156478D01*
X314599Y156641D01*
D02*
G37*
G36*
X287999D02*
X287180Y156478D01*
X286485Y156014D01*
X286021Y155319D01*
X285858Y154500D01*
X286021Y153680D01*
X286485Y152986D01*
X287180Y152522D01*
X287999Y152359D01*
X288819Y152522D01*
X289513Y152986D01*
X289977Y153680D01*
X290140Y154500D01*
X289977Y155319D01*
X289513Y156014D01*
X288819Y156478D01*
X287999Y156641D01*
D02*
G37*
G36*
X249852Y156744D02*
X248955Y156565D01*
X248194Y156057D01*
X247686Y155296D01*
X247507Y154399D01*
X247686Y153501D01*
X248194Y152741D01*
X248955Y152232D01*
X249852Y152054D01*
X250750Y152232D01*
X251510Y152741D01*
X252019Y153501D01*
X252197Y154399D01*
X252019Y155296D01*
X251510Y156057D01*
X250750Y156565D01*
X249852Y156744D01*
D02*
G37*
G36*
X229499Y152545D02*
X228602Y152366D01*
X227841Y151858D01*
X227333Y151097D01*
X227154Y150200D01*
X227333Y149302D01*
X227841Y148541D01*
X228602Y148033D01*
X229499Y147855D01*
X230397Y148033D01*
X231157Y148541D01*
X231666Y149302D01*
X231844Y150200D01*
X231666Y151097D01*
X231157Y151858D01*
X230397Y152366D01*
X229499Y152545D01*
D02*
G37*
G36*
X242351Y145540D02*
X241532Y145377D01*
X240837Y144913D01*
X240373Y144218D01*
X240210Y143399D01*
X240373Y142579D01*
X240837Y141885D01*
X241532Y141421D01*
X242351Y141258D01*
X243170Y141421D01*
X243865Y141885D01*
X244329Y142579D01*
X244492Y143399D01*
X244329Y144218D01*
X243865Y144913D01*
X243170Y145377D01*
X242351Y145540D01*
D02*
G37*
G36*
X319633Y401043D02*
X318746Y400926D01*
X317919Y400584D01*
X317209Y400039D01*
X317058D01*
X316348Y400584D01*
X315521Y400926D01*
X314633Y401043D01*
X313746Y400926D01*
X312919Y400584D01*
X312209Y400039D01*
X311978Y399738D01*
X311330Y399715D01*
X310995Y399972D01*
X310338Y400244D01*
X309633Y400337D01*
X308928Y400244D01*
X308272Y399972D01*
X308108Y399846D01*
X309987Y397967D01*
X309633Y397614D01*
X309987Y397260D01*
X308108Y395381D01*
X308272Y395255D01*
X308928Y394983D01*
X309633Y394890D01*
X310338Y394983D01*
X310995Y395255D01*
X311330Y395512D01*
X311978Y395490D01*
X312209Y395189D01*
X312919Y394644D01*
X313746Y394301D01*
X314633Y394184D01*
X315521Y394301D01*
X316348Y394644D01*
X317058Y395189D01*
X317209D01*
X317919Y394644D01*
X318746Y394301D01*
X319633Y394184D01*
X320521Y394301D01*
X321348Y394644D01*
X322058Y395189D01*
X322289Y395490D01*
X322937Y395512D01*
X323272Y395255D01*
X323928Y394983D01*
X324633Y394890D01*
X325338Y394983D01*
X325995Y395255D01*
X326159Y395381D01*
X324280Y397260D01*
X324633Y397614D01*
X324280Y397967D01*
X326159Y399846D01*
X325995Y399972D01*
X325338Y400244D01*
X324633Y400337D01*
X323928Y400244D01*
X323272Y399972D01*
X322937Y399715D01*
X322289Y399738D01*
X322058Y400039D01*
X321348Y400584D01*
X320521Y400926D01*
X319633Y401043D01*
D02*
G37*
G36*
X299633D02*
X298746Y400926D01*
X297919Y400584D01*
X297208Y400039D01*
X297058D01*
X296348Y400584D01*
X295521Y400926D01*
X294633Y401043D01*
X293746Y400926D01*
X292919Y400584D01*
X292209Y400039D01*
X291978Y399738D01*
X291330Y399715D01*
X290995Y399972D01*
X290338Y400244D01*
X289633Y400337D01*
X288929Y400244D01*
X288272Y399972D01*
X287937Y399715D01*
X287289Y399738D01*
X287058Y400039D01*
X286348Y400584D01*
X285521Y400926D01*
X284633Y401043D01*
X283746Y400926D01*
X282919Y400584D01*
X282208Y400039D01*
X282058D01*
X281348Y400584D01*
X280521Y400926D01*
X279633Y401043D01*
X278746Y400926D01*
X277919Y400584D01*
X277208Y400039D01*
X276978Y399738D01*
X276330Y399715D01*
X275995Y399972D01*
X275338Y400244D01*
X274633Y400337D01*
X273928Y400244D01*
X273272Y399972D01*
X272937Y399715D01*
X272289Y399738D01*
X272058Y400039D01*
X271348Y400584D01*
X270521Y400926D01*
X269633Y401043D01*
X268746Y400926D01*
X267919Y400584D01*
X267209Y400039D01*
X267058D01*
X266348Y400584D01*
X265521Y400926D01*
X264633Y401043D01*
X263746Y400926D01*
X262919Y400584D01*
X262209Y400039D01*
X262058D01*
X261348Y400584D01*
X260521Y400926D01*
X259633Y401043D01*
X258746Y400926D01*
X257919Y400584D01*
X257208Y400039D01*
X257058D01*
X256348Y400584D01*
X255521Y400926D01*
X254633Y401043D01*
X253746Y400926D01*
X252919Y400584D01*
X252208Y400039D01*
X252058D01*
X251348Y400584D01*
X250521Y400926D01*
X249633Y401043D01*
X248746Y400926D01*
X247919Y400584D01*
X247208Y400039D01*
X246663Y399328D01*
X246321Y398501D01*
X246204Y397614D01*
X246321Y396726D01*
X246663Y395899D01*
X247208Y395189D01*
X247919Y394644D01*
X248746Y394301D01*
X249633Y394184D01*
X250521Y394301D01*
X251348Y394644D01*
X252058Y395189D01*
X252208D01*
X252919Y394644D01*
X253746Y394301D01*
X254633Y394184D01*
X255521Y394301D01*
X256348Y394644D01*
X257058Y395189D01*
X257208D01*
X257919Y394644D01*
X258746Y394301D01*
X259633Y394184D01*
X260521Y394301D01*
X261348Y394644D01*
X262058Y395189D01*
X262209D01*
X262919Y394644D01*
X263746Y394301D01*
X264633Y394184D01*
X265521Y394301D01*
X266348Y394644D01*
X267058Y395189D01*
X267209D01*
X267919Y394644D01*
X268746Y394301D01*
X269633Y394184D01*
X270521Y394301D01*
X271348Y394644D01*
X272058Y395189D01*
X272289Y395490D01*
X272937Y395512D01*
X273272Y395255D01*
X273928Y394983D01*
X274633Y394890D01*
X275338Y394983D01*
X275995Y395255D01*
X276330Y395512D01*
X276978Y395490D01*
X277208Y395189D01*
X277919Y394644D01*
X278746Y394301D01*
X279633Y394184D01*
X280521Y394301D01*
X281348Y394644D01*
X282058Y395189D01*
X282208D01*
X282919Y394644D01*
X283746Y394301D01*
X284633Y394184D01*
X285521Y394301D01*
X286348Y394644D01*
X287058Y395189D01*
X287289Y395490D01*
X287937Y395512D01*
X288272Y395255D01*
X288929Y394983D01*
X289633Y394890D01*
X290338Y394983D01*
X290995Y395255D01*
X291330Y395512D01*
X291978Y395490D01*
X292209Y395189D01*
X292919Y394644D01*
X293746Y394301D01*
X294633Y394184D01*
X295521Y394301D01*
X296348Y394644D01*
X297058Y395189D01*
X297208D01*
X297919Y394644D01*
X298746Y394301D01*
X299633Y394184D01*
X300521Y394301D01*
X301348Y394644D01*
X302058Y395189D01*
X302289Y395490D01*
X302937Y395512D01*
X303272Y395255D01*
X303928Y394983D01*
X304633Y394890D01*
X305338Y394983D01*
X305995Y395255D01*
X306159Y395381D01*
X304280Y397260D01*
X304633Y397614D01*
X304280Y397967D01*
X306159Y399846D01*
X305995Y399972D01*
X305338Y400244D01*
X304633Y400337D01*
X303928Y400244D01*
X303272Y399972D01*
X302937Y399715D01*
X302289Y399738D01*
X302058Y400039D01*
X301348Y400584D01*
X300521Y400926D01*
X299633Y401043D01*
D02*
G37*
G36*
X347881Y403355D02*
X347179Y403215D01*
X346584Y402817D01*
X346186Y402221D01*
X346046Y401519D01*
X346186Y400817D01*
X346584Y400221D01*
X347179Y399824D01*
X347881Y399684D01*
X348584Y399824D01*
X349179Y400221D01*
X349577Y400817D01*
X349717Y401519D01*
X349577Y402221D01*
X349179Y402817D01*
X348584Y403215D01*
X347881Y403355D01*
D02*
G37*
G36*
X334633Y400337D02*
X333928Y400244D01*
X333272Y399972D01*
X333108Y399846D01*
X334633Y398321D01*
X336159Y399846D01*
X335995Y399972D01*
X335338Y400244D01*
X334633Y400337D01*
D02*
G37*
G36*
X329633D02*
X328928Y400244D01*
X328272Y399972D01*
X328108Y399846D01*
X329633Y398321D01*
X331159Y399846D01*
X330995Y399972D01*
X330338Y400244D01*
X329633Y400337D01*
D02*
G37*
G36*
X336866Y399139D02*
X335340Y397614D01*
X336866Y396088D01*
X336992Y396252D01*
X337264Y396909D01*
X337357Y397614D01*
X337264Y398319D01*
X336992Y398975D01*
X336866Y399139D01*
D02*
G37*
G36*
X332376Y399164D02*
X331891D01*
X330341Y397614D01*
X331891Y396064D01*
X332376D01*
X333926Y397614D01*
X332376Y399164D01*
D02*
G37*
G36*
X327376D02*
X326891D01*
X325341Y397614D01*
X326891Y396064D01*
X327376D01*
X328926Y397614D01*
X327376Y399164D01*
D02*
G37*
G36*
X307376D02*
X306891D01*
X305341Y397614D01*
X306891Y396064D01*
X307376D01*
X308926Y397614D01*
X307376Y399164D01*
D02*
G37*
G36*
X334633Y396907D02*
X333108Y395381D01*
X333272Y395255D01*
X333928Y394983D01*
X334633Y394890D01*
X335338Y394983D01*
X335995Y395255D01*
X336159Y395381D01*
X334633Y396907D01*
D02*
G37*
G36*
X329633D02*
X328108Y395381D01*
X328272Y395255D01*
X328928Y394983D01*
X329633Y394890D01*
X330338Y394983D01*
X330995Y395255D01*
X331159Y395381D01*
X329633Y396907D01*
D02*
G37*
G36*
X303952Y392178D02*
X303249Y392038D01*
X302654Y391641D01*
X302256Y391045D01*
X302116Y390343D01*
X302256Y389640D01*
X302654Y389045D01*
X303249Y388647D01*
X303952Y388508D01*
X304654Y388647D01*
X305249Y389045D01*
X305647Y389640D01*
X305787Y390343D01*
X305647Y391045D01*
X305249Y391641D01*
X304654Y392038D01*
X303952Y392178D01*
D02*
G37*
G36*
X299352D02*
X298649Y392038D01*
X298054Y391641D01*
X297656Y391045D01*
X297516Y390343D01*
X297656Y389640D01*
X298054Y389045D01*
X298649Y388647D01*
X299352Y388508D01*
X300054Y388647D01*
X300649Y389045D01*
X301047Y389640D01*
X301187Y390343D01*
X301047Y391045D01*
X300649Y391641D01*
X300054Y392038D01*
X299352Y392178D01*
D02*
G37*
G36*
X284651Y378978D02*
X283949Y378838D01*
X283354Y378441D01*
X282956Y377845D01*
X282874Y377434D01*
X282856Y377345D01*
X282347D01*
X282329Y377434D01*
X282247Y377845D01*
X281849Y378441D01*
X281254Y378838D01*
X280552Y378978D01*
X279849Y378838D01*
X279254Y378441D01*
X278856Y377845D01*
X278716Y377143D01*
X278856Y376441D01*
X279254Y375845D01*
X279849Y375447D01*
X280552Y375308D01*
X281254Y375447D01*
X281849Y375845D01*
X282247Y376441D01*
X282329Y376852D01*
X282347Y376941D01*
X282856D01*
X282874Y376852D01*
X282956Y376441D01*
X283354Y375845D01*
X283949Y375447D01*
X284651Y375308D01*
X285354Y375447D01*
X285949Y375845D01*
X286347Y376441D01*
X286487Y377143D01*
X286347Y377845D01*
X285949Y378441D01*
X285354Y378838D01*
X284651Y378978D01*
D02*
G37*
G36*
X289651Y378578D02*
X288949Y378438D01*
X288354Y378041D01*
X287956Y377445D01*
X287816Y376743D01*
X287956Y376041D01*
X288354Y375445D01*
X288949Y375047D01*
X289651Y374908D01*
X290354Y375047D01*
X290949Y375445D01*
X291347Y376041D01*
X291487Y376743D01*
X291347Y377445D01*
X290949Y378041D01*
X290354Y378438D01*
X289651Y378578D01*
D02*
G37*
G36*
X317251Y374878D02*
X316549Y374738D01*
X315954Y374341D01*
X315556Y373745D01*
X315416Y373043D01*
X315556Y372340D01*
X315954Y371745D01*
X316549Y371347D01*
X317251Y371208D01*
X317954Y371347D01*
X318549Y371745D01*
X318947Y372340D01*
X319087Y373043D01*
X318947Y373745D01*
X318549Y374341D01*
X317954Y374738D01*
X317251Y374878D01*
D02*
G37*
G36*
X277751Y374678D02*
X277049Y374538D01*
X276454Y374141D01*
X276056Y373545D01*
X275916Y372843D01*
X276056Y372141D01*
X276454Y371545D01*
X277049Y371147D01*
X277751Y371008D01*
X278454Y371147D01*
X279049Y371545D01*
X279447Y372141D01*
X279587Y372843D01*
X279447Y373545D01*
X279049Y374141D01*
X278454Y374538D01*
X277751Y374678D01*
D02*
G37*
G36*
X268952Y374478D02*
X268249Y374338D01*
X267654Y373941D01*
X267256Y373345D01*
X267116Y372643D01*
X267256Y371940D01*
X267654Y371345D01*
X268249Y370947D01*
X268952Y370808D01*
X269654Y370947D01*
X270249Y371345D01*
X270647Y371940D01*
X270787Y372643D01*
X270647Y373345D01*
X270249Y373941D01*
X269654Y374338D01*
X268952Y374478D01*
D02*
G37*
G36*
X264452Y374378D02*
X263749Y374238D01*
X263154Y373841D01*
X262756Y373245D01*
X262616Y372543D01*
X262756Y371841D01*
X263154Y371245D01*
X263749Y370847D01*
X264452Y370708D01*
X265154Y370847D01*
X265749Y371245D01*
X266147Y371841D01*
X266287Y372543D01*
X266147Y373245D01*
X265749Y373841D01*
X265154Y374238D01*
X264452Y374378D01*
D02*
G37*
G36*
X303393Y374221D02*
X302691Y374081D01*
X302095Y373683D01*
X301697Y373088D01*
X301558Y372385D01*
X301697Y371683D01*
X302095Y371088D01*
X302691Y370690D01*
X303393Y370550D01*
X304095Y370690D01*
X304691Y371088D01*
X305089Y371683D01*
X305228Y372385D01*
X305089Y373088D01*
X304691Y373683D01*
X304095Y374081D01*
X303393Y374221D01*
D02*
G37*
G36*
X257951Y374078D02*
X257249Y373938D01*
X256654Y373541D01*
X256256Y372945D01*
X256116Y372243D01*
X256256Y371540D01*
X256654Y370945D01*
X257249Y370547D01*
X257951Y370408D01*
X258654Y370547D01*
X259249Y370945D01*
X259647Y371540D01*
X259787Y372243D01*
X259647Y372945D01*
X259249Y373541D01*
X258654Y373938D01*
X257951Y374078D01*
D02*
G37*
G36*
X249633Y373996D02*
X248931Y373856D01*
X248336Y373459D01*
X247938Y372863D01*
X247798Y372161D01*
X247938Y371459D01*
X248336Y370863D01*
X248931Y370465D01*
X249633Y370326D01*
X250336Y370465D01*
X250931Y370863D01*
X251329Y371459D01*
X251469Y372161D01*
X251329Y372863D01*
X250931Y373459D01*
X250336Y373856D01*
X249633Y373996D01*
D02*
G37*
G36*
X324751Y373478D02*
X324049Y373338D01*
X323454Y372941D01*
X323056Y372345D01*
X322916Y371643D01*
X323056Y370940D01*
X323454Y370345D01*
X324049Y369947D01*
X324751Y369808D01*
X325454Y369947D01*
X326049Y370345D01*
X326447Y370940D01*
X326587Y371643D01*
X326447Y372345D01*
X326049Y372941D01*
X325454Y373338D01*
X324751Y373478D01*
D02*
G37*
G36*
X256751Y369378D02*
X256049Y369238D01*
X255454Y368841D01*
X255056Y368245D01*
X254916Y367543D01*
X255056Y366841D01*
X255454Y366245D01*
X256049Y365847D01*
X256751Y365708D01*
X257454Y365847D01*
X258049Y366245D01*
X258447Y366841D01*
X258587Y367543D01*
X258447Y368245D01*
X258049Y368841D01*
X257454Y369238D01*
X256751Y369378D01*
D02*
G37*
G36*
X356051Y368278D02*
X355349Y368138D01*
X354754Y367741D01*
X354356Y367145D01*
X354216Y366443D01*
X354356Y365740D01*
X354754Y365145D01*
X355349Y364747D01*
X356051Y364608D01*
X356754Y364747D01*
X357349Y365145D01*
X357747Y365740D01*
X357887Y366443D01*
X357747Y367145D01*
X357349Y367741D01*
X356754Y368138D01*
X356051Y368278D01*
D02*
G37*
G36*
X324952Y365976D02*
X324288Y365844D01*
X323726Y365469D01*
X323350Y364906D01*
X323218Y364243D01*
X323350Y363580D01*
X323726Y363017D01*
X324288Y362642D01*
X324952Y362509D01*
X325615Y362642D01*
X326177Y363017D01*
X326553Y363580D01*
X326685Y364243D01*
X326553Y364906D01*
X326177Y365469D01*
X325615Y365844D01*
X324952Y365976D01*
D02*
G37*
G36*
X250014Y362016D02*
X249311Y361876D01*
X248716Y361478D01*
X248318Y360883D01*
X248178Y360181D01*
X248318Y359478D01*
X248716Y358883D01*
X249311Y358485D01*
X250014Y358345D01*
X250716Y358485D01*
X251311Y358883D01*
X251709Y359478D01*
X251849Y360181D01*
X251709Y360883D01*
X251311Y361478D01*
X250716Y361876D01*
X250014Y362016D01*
D02*
G37*
G36*
X342845Y357676D02*
X342182Y357544D01*
X341933Y357378D01*
X341545Y357202D01*
X341158Y357378D01*
X340909Y357544D01*
X340245Y357676D01*
X339582Y357544D01*
X339020Y357169D01*
X338644Y356606D01*
X338512Y355943D01*
X338644Y355279D01*
X339020Y354717D01*
X339582Y354342D01*
X340245Y354209D01*
X340909Y354342D01*
X341158Y354508D01*
X341545Y354683D01*
X341933Y354508D01*
X342182Y354342D01*
X342845Y354209D01*
X343509Y354342D01*
X344071Y354717D01*
X344447Y355279D01*
X344579Y355943D01*
X344447Y356606D01*
X344071Y357169D01*
X343509Y357544D01*
X342845Y357676D01*
D02*
G37*
G36*
X329252Y360678D02*
X328549Y360538D01*
X327954Y360141D01*
X327556Y359545D01*
X327416Y358843D01*
X327556Y358140D01*
X327954Y357545D01*
X328549Y357147D01*
X329252Y357008D01*
X329954Y357147D01*
X330549Y357545D01*
X330947Y358140D01*
X331087Y358843D01*
X330947Y359545D01*
X330549Y360141D01*
X329954Y360538D01*
X329252Y360678D01*
D02*
G37*
G36*
X320352Y358576D02*
X319688Y358444D01*
X319126Y358068D01*
X318750Y357506D01*
X318618Y356843D01*
X318750Y356179D01*
X319126Y355617D01*
X319688Y355241D01*
X320352Y355110D01*
X321015Y355241D01*
X321577Y355617D01*
X321953Y356179D01*
X322085Y356843D01*
X321953Y357506D01*
X321577Y358068D01*
X321015Y358444D01*
X320352Y358576D01*
D02*
G37*
G36*
X325851Y354676D02*
X325188Y354544D01*
X324626Y354169D01*
X324250Y353606D01*
X324118Y352943D01*
X324250Y352279D01*
X324626Y351717D01*
X325188Y351342D01*
X325851Y351209D01*
X326515Y351342D01*
X327077Y351717D01*
X327453Y352279D01*
X327585Y352943D01*
X327453Y353606D01*
X327077Y354169D01*
X326515Y354544D01*
X325851Y354676D01*
D02*
G37*
G36*
X362651Y354476D02*
X361988Y354344D01*
X361426Y353969D01*
X361050Y353406D01*
X360918Y352743D01*
X361050Y352080D01*
X361426Y351517D01*
X361988Y351142D01*
X362651Y351009D01*
X363315Y351142D01*
X363877Y351517D01*
X364253Y352080D01*
X364385Y352743D01*
X364253Y353406D01*
X363877Y353969D01*
X363315Y354344D01*
X362651Y354476D01*
D02*
G37*
G36*
X267951Y356178D02*
X267249Y356038D01*
X266654Y355641D01*
X266256Y355045D01*
X266116Y354343D01*
X266256Y353641D01*
X266654Y353045D01*
Y352840D01*
X266256Y352245D01*
X266116Y351543D01*
X266256Y350840D01*
X266654Y350245D01*
X267249Y349847D01*
X267951Y349708D01*
X268654Y349847D01*
X269249Y350245D01*
X269647Y350840D01*
X269787Y351543D01*
X269647Y352245D01*
X269249Y352840D01*
Y353045D01*
X269647Y353641D01*
X269787Y354343D01*
X269647Y355045D01*
X269249Y355641D01*
X268654Y356038D01*
X267951Y356178D01*
D02*
G37*
G36*
X302999Y353330D02*
X302297Y353190D01*
X301702Y352793D01*
X301304Y352197D01*
X301164Y351495D01*
X301304Y350793D01*
X301702Y350197D01*
X302297Y349799D01*
X302999Y349659D01*
X303702Y349799D01*
X304297Y350197D01*
X304695Y350793D01*
X304835Y351495D01*
X304695Y352197D01*
X304297Y352793D01*
X303702Y353190D01*
X302999Y353330D01*
D02*
G37*
G36*
X287251D02*
X286549Y353190D01*
X285954Y352793D01*
X285556Y352197D01*
X285416Y351495D01*
X285556Y350793D01*
X285954Y350197D01*
X286549Y349799D01*
X287251Y349659D01*
X287954Y349799D01*
X288549Y350197D01*
X288947Y350793D01*
X289087Y351495D01*
X288947Y352197D01*
X288549Y352793D01*
X287954Y353190D01*
X287251Y353330D01*
D02*
G37*
G36*
X277409D02*
X276707Y353190D01*
X276111Y352793D01*
X275713Y352197D01*
X275574Y351495D01*
X275713Y350793D01*
X276111Y350197D01*
X276707Y349799D01*
X277409Y349659D01*
X278111Y349799D01*
X278707Y350197D01*
X279104Y350793D01*
X279244Y351495D01*
X279104Y352197D01*
X278707Y352793D01*
X278111Y353190D01*
X277409Y353330D01*
D02*
G37*
G36*
X348726Y347247D02*
X348024Y347107D01*
X347429Y346709D01*
X347224D01*
X346629Y347107D01*
X345926Y347247D01*
X345224Y347107D01*
X344629Y346709D01*
X344231Y346114D01*
X344091Y345411D01*
X344231Y344709D01*
X344629Y344114D01*
X345224Y343716D01*
X345926Y343576D01*
X346629Y343716D01*
X347224Y344114D01*
X347429D01*
X348024Y343716D01*
X348726Y343576D01*
X349429Y343716D01*
X350024Y344114D01*
X350422Y344709D01*
X350562Y345411D01*
X350422Y346114D01*
X350024Y346709D01*
X349429Y347107D01*
X348726Y347247D01*
D02*
G37*
G36*
X263452Y349478D02*
X262749Y349338D01*
X262154Y348941D01*
X261756Y348345D01*
X261616Y347643D01*
X261756Y346940D01*
X262154Y346345D01*
X262749Y345947D01*
X263452Y345808D01*
X264154Y345947D01*
X264749Y346345D01*
X265147Y346940D01*
X265287Y347643D01*
X265147Y348345D01*
X264749Y348941D01*
X264154Y349338D01*
X263452Y349478D01*
D02*
G37*
G36*
X251818Y349755D02*
X250787Y349620D01*
X249826Y349221D01*
X249001Y348588D01*
X248368Y347763D01*
X247970Y346802D01*
X247834Y345771D01*
X247970Y344740D01*
X248368Y343779D01*
X249001Y342954D01*
X249826Y342321D01*
X250787Y341923D01*
X251818Y341787D01*
X252850Y341923D01*
X253811Y342321D01*
X254636Y342954D01*
X255269Y343779D01*
X255667Y344740D01*
X255747Y345348D01*
X255798Y345416D01*
X256297Y345698D01*
X256751Y345608D01*
X257454Y345747D01*
X258049Y346145D01*
X258447Y346741D01*
X258587Y347443D01*
X258447Y348145D01*
X258049Y348741D01*
X257454Y349138D01*
X256751Y349278D01*
X256049Y349138D01*
X255454Y348741D01*
X255312Y348528D01*
X254697Y348508D01*
X254636Y348588D01*
X253811Y349221D01*
X252850Y349620D01*
X251818Y349755D01*
D02*
G37*
G36*
X356351Y345776D02*
X355688Y345644D01*
X355126Y345269D01*
X354750Y344706D01*
X354618Y344043D01*
X354750Y343379D01*
X355126Y342817D01*
X355688Y342442D01*
X356351Y342309D01*
X357015Y342442D01*
X357577Y342817D01*
X357953Y343379D01*
X358085Y344043D01*
X357953Y344706D01*
X357577Y345269D01*
X357015Y345644D01*
X356351Y345776D01*
D02*
G37*
G36*
X259752Y344378D02*
X259049Y344238D01*
X258454Y343841D01*
X258056Y343245D01*
X257916Y342543D01*
X258056Y341841D01*
X258454Y341245D01*
X259049Y340847D01*
X259752Y340708D01*
X260454Y340847D01*
X261049Y341245D01*
X261447Y341841D01*
X261587Y342543D01*
X261447Y343245D01*
X261049Y343841D01*
X260454Y344238D01*
X259752Y344378D01*
D02*
G37*
G36*
X309299Y342331D02*
X308596Y342191D01*
X308001Y341793D01*
X307603Y341198D01*
X307463Y340495D01*
X307603Y339793D01*
X308001Y339198D01*
X308596Y338800D01*
X309299Y338660D01*
X310001Y338800D01*
X310596Y339198D01*
X310994Y339793D01*
X311134Y340495D01*
X310994Y341198D01*
X310596Y341793D01*
X310001Y342191D01*
X309299Y342331D01*
D02*
G37*
G36*
X299062Y341543D02*
X298360Y341404D01*
X297765Y341006D01*
X297367Y340410D01*
X297227Y339708D01*
X297367Y339006D01*
X297765Y338410D01*
X298360Y338013D01*
X299062Y337873D01*
X299765Y338013D01*
X300360Y338410D01*
X300758Y339006D01*
X300898Y339708D01*
X300758Y340410D01*
X300360Y341006D01*
X299765Y341404D01*
X299062Y341543D01*
D02*
G37*
G36*
X356252Y340776D02*
X355588Y340644D01*
X355026Y340268D01*
X354650Y339706D01*
X354518Y339043D01*
X354650Y338380D01*
X355026Y337817D01*
X355588Y337441D01*
X356252Y337310D01*
X356915Y337441D01*
X357477Y337817D01*
X357853Y338380D01*
X357985Y339043D01*
X357853Y339706D01*
X357477Y340268D01*
X356915Y340644D01*
X356252Y340776D01*
D02*
G37*
G36*
X278984Y340362D02*
X278281Y340223D01*
X277686Y339825D01*
X277288Y339229D01*
X277149Y338527D01*
X277288Y337825D01*
X277686Y337229D01*
X278281Y336831D01*
X278984Y336692D01*
X279686Y336831D01*
X280281Y337229D01*
X280679Y337825D01*
X280819Y338527D01*
X280679Y339229D01*
X280281Y339825D01*
X279686Y340223D01*
X278984Y340362D01*
D02*
G37*
G36*
X241818Y339049D02*
X240970Y338937D01*
X240179Y338610D01*
X239901Y338396D01*
X241818Y336478D01*
X243736Y338396D01*
X243458Y338610D01*
X242667Y338937D01*
X241818Y339049D01*
D02*
G37*
G36*
X288039Y339575D02*
X287337Y339435D01*
X286741Y339037D01*
X286343Y338442D01*
X286204Y337740D01*
X286343Y337037D01*
X286741Y336442D01*
X287337Y336044D01*
X288039Y335904D01*
X288741Y336044D01*
X289337Y336442D01*
X289735Y337037D01*
X289874Y337740D01*
X289735Y338442D01*
X289337Y339037D01*
X288741Y339435D01*
X288039Y339575D01*
D02*
G37*
G36*
X315992Y338000D02*
X315289Y337860D01*
X314694Y337463D01*
X314296Y336867D01*
X314156Y336165D01*
X314296Y335463D01*
X314694Y334867D01*
X315289Y334469D01*
X315992Y334330D01*
X316694Y334469D01*
X317289Y334867D01*
X317687Y335463D01*
X317827Y336165D01*
X317687Y336867D01*
X317289Y337463D01*
X316694Y337860D01*
X315992Y338000D01*
D02*
G37*
G36*
X244443Y337689D02*
X242526Y335771D01*
X244443Y333853D01*
X244657Y334132D01*
X244985Y334923D01*
X245096Y335771D01*
X244985Y336620D01*
X244657Y337410D01*
X244443Y337689D01*
D02*
G37*
G36*
X241818Y335064D02*
X239901Y333146D01*
X240179Y332932D01*
X240970Y332605D01*
X241818Y332493D01*
X242667Y332605D01*
X243458Y332932D01*
X243736Y333146D01*
X241818Y335064D01*
D02*
G37*
G36*
X339152Y335676D02*
X338488Y335544D01*
X337926Y335169D01*
X337550Y334606D01*
X337418Y333943D01*
X337550Y333279D01*
X337926Y332717D01*
X338488Y332342D01*
X339152Y332209D01*
X339815Y332342D01*
X340377Y332717D01*
X340753Y333279D01*
X340885Y333943D01*
X340753Y334606D01*
X340377Y335169D01*
X339815Y335544D01*
X339152Y335676D01*
D02*
G37*
G36*
X251818Y339755D02*
X250787Y339619D01*
X249826Y339222D01*
X249001Y338588D01*
X248368Y337763D01*
X247970Y336802D01*
X247834Y335771D01*
X247970Y334740D01*
X248368Y333779D01*
X249001Y332954D01*
X249826Y332321D01*
X250787Y331923D01*
X251818Y331787D01*
X252850Y331923D01*
X253811Y332321D01*
X254142Y332575D01*
X254512Y332229D01*
X254456Y332145D01*
X254316Y331443D01*
X254456Y330740D01*
X254854Y330145D01*
X255449Y329747D01*
X256152Y329608D01*
X256854Y329747D01*
X257449Y330145D01*
X257847Y330740D01*
X257987Y331443D01*
X257847Y332145D01*
X257449Y332741D01*
X256854Y333138D01*
X256152Y333278D01*
X255449Y333138D01*
X255363Y333081D01*
X255017Y333451D01*
X255269Y333779D01*
X255667Y334740D01*
X255802Y335771D01*
X255667Y336802D01*
X255269Y337763D01*
X254636Y338588D01*
X253811Y339222D01*
X252850Y339619D01*
X251818Y339755D01*
D02*
G37*
G36*
X328852Y331976D02*
X328188Y331844D01*
X327626Y331469D01*
X327250Y330906D01*
X327118Y330243D01*
X327250Y329579D01*
X327626Y329017D01*
X328188Y328642D01*
X328852Y328509D01*
X329515Y328642D01*
X330077Y329017D01*
X330453Y329579D01*
X330585Y330243D01*
X330453Y330906D01*
X330077Y331469D01*
X329515Y331844D01*
X328852Y331976D01*
D02*
G37*
G36*
X362720Y327708D02*
X362057Y327576D01*
X361494Y327200D01*
X361119Y326638D01*
X360987Y325974D01*
X361119Y325311D01*
X361494Y324749D01*
X362057Y324373D01*
X362720Y324241D01*
X363383Y324373D01*
X363946Y324749D01*
X364321Y325311D01*
X364453Y325974D01*
X364321Y326638D01*
X363946Y327200D01*
X363383Y327576D01*
X362720Y327708D01*
D02*
G37*
G36*
X327751Y327878D02*
X327049Y327738D01*
X326454Y327341D01*
X326056Y326745D01*
X325916Y326043D01*
X326056Y325341D01*
X326454Y324745D01*
X327049Y324347D01*
X327751Y324208D01*
X328454Y324347D01*
X329049Y324745D01*
X329447Y325341D01*
X329587Y326043D01*
X329447Y326745D01*
X329049Y327341D01*
X328454Y327738D01*
X327751Y327878D01*
D02*
G37*
G36*
X283708Y326189D02*
X283006Y326049D01*
X282411Y325652D01*
X282013Y325056D01*
X281873Y324354D01*
X282013Y323652D01*
X282411Y323056D01*
X283006Y322658D01*
X283708Y322519D01*
X284411Y322658D01*
X285006Y323056D01*
X285404Y323652D01*
X285543Y324354D01*
X285404Y325056D01*
X285006Y325652D01*
X284411Y326049D01*
X283708Y326189D01*
D02*
G37*
G36*
X294752Y323378D02*
X294049Y323238D01*
X293454Y322841D01*
X293056Y322245D01*
X292961Y321767D01*
X292483Y321352D01*
X292352Y321378D01*
X291649Y321238D01*
X291054Y320841D01*
X290656Y320245D01*
X290516Y319543D01*
X290656Y318841D01*
X291054Y318245D01*
X291649Y317847D01*
X292352Y317708D01*
X293054Y317847D01*
X293649Y318245D01*
X294047Y318841D01*
X294142Y319319D01*
X294620Y319734D01*
X294752Y319708D01*
X295454Y319847D01*
X296049Y320245D01*
X296447Y320841D01*
X296587Y321543D01*
X296447Y322245D01*
X296049Y322841D01*
X295454Y323238D01*
X294752Y323378D01*
D02*
G37*
G36*
X273151Y324176D02*
X272488Y324044D01*
X271926Y323669D01*
X271550Y323106D01*
X271418Y322443D01*
X271550Y321779D01*
X271926Y321217D01*
X272488Y320842D01*
X273151Y320709D01*
X273815Y320842D01*
X274377Y321217D01*
X274753Y321779D01*
X274885Y322443D01*
X274753Y323106D01*
X274377Y323669D01*
X273815Y324044D01*
X273151Y324176D01*
D02*
G37*
G36*
X315352Y321978D02*
X314649Y321838D01*
X314054Y321441D01*
X313656Y320845D01*
X313516Y320143D01*
X313656Y319441D01*
X314054Y318845D01*
X314649Y318447D01*
X315352Y318308D01*
X316054Y318447D01*
X316649Y318845D01*
X317047Y319441D01*
X317187Y320143D01*
X317047Y320845D01*
X316649Y321441D01*
X316054Y321838D01*
X315352Y321978D01*
D02*
G37*
G36*
X339551Y320776D02*
X338888Y320644D01*
X338326Y320269D01*
X337950Y319706D01*
X337818Y319043D01*
X337950Y318379D01*
X338326Y317817D01*
X338888Y317442D01*
X339551Y317309D01*
X340215Y317442D01*
X340777Y317817D01*
X341153Y318379D01*
X341285Y319043D01*
X341153Y319706D01*
X340777Y320269D01*
X340215Y320644D01*
X339551Y320776D01*
D02*
G37*
G36*
X248151Y318378D02*
X247449Y318238D01*
X246854Y317841D01*
X246456Y317245D01*
X246316Y316543D01*
X246456Y315841D01*
X246854Y315245D01*
X247449Y314847D01*
X248151Y314708D01*
X248854Y314847D01*
X249449Y315245D01*
X249847Y315841D01*
X249987Y316543D01*
X249847Y317245D01*
X249449Y317841D01*
X248854Y318238D01*
X248151Y318378D01*
D02*
G37*
G36*
X356152Y315876D02*
X355488Y315744D01*
X354926Y315369D01*
X354550Y314806D01*
X354418Y314143D01*
X354550Y313479D01*
X354926Y312917D01*
X355488Y312542D01*
X356152Y312409D01*
X356815Y312542D01*
X357377Y312917D01*
X357753Y313479D01*
X357885Y314143D01*
X357753Y314806D01*
X357377Y315369D01*
X356815Y315744D01*
X356152Y315876D01*
D02*
G37*
G36*
X266752Y317578D02*
X266049Y317438D01*
X265454Y317041D01*
X265056Y316445D01*
X264916Y315743D01*
X265056Y315040D01*
X265454Y314445D01*
X266049Y314047D01*
X266547Y313948D01*
X267016Y313743D01*
X267156Y313040D01*
X267554Y312445D01*
X268149Y312047D01*
X268851Y311908D01*
X269554Y312047D01*
X270149Y312445D01*
X270547Y313040D01*
X270687Y313743D01*
X270547Y314445D01*
X270149Y315041D01*
X269554Y315438D01*
X269056Y315538D01*
X268587Y315743D01*
X268447Y316445D01*
X268049Y317041D01*
X267454Y317438D01*
X266752Y317578D01*
D02*
G37*
G36*
X242271Y313558D02*
X241569Y313419D01*
X240973Y313021D01*
X240576Y312425D01*
X240436Y311723D01*
X240576Y311021D01*
X240973Y310425D01*
X241569Y310028D01*
X242271Y309888D01*
X242973Y310028D01*
X243569Y310425D01*
X243967Y311021D01*
X244106Y311723D01*
X243967Y312425D01*
X243569Y313021D01*
X242973Y313419D01*
X242271Y313558D01*
D02*
G37*
G36*
X293851Y312676D02*
X293188Y312544D01*
X292626Y312169D01*
X292250Y311606D01*
X292118Y310943D01*
X292250Y310279D01*
X292626Y309717D01*
X293188Y309342D01*
X293851Y309209D01*
X294515Y309342D01*
X295077Y309717D01*
X295453Y310279D01*
X295585Y310943D01*
X295453Y311606D01*
X295077Y312169D01*
X294515Y312544D01*
X293851Y312676D01*
D02*
G37*
G36*
X356252Y310876D02*
X355588Y310744D01*
X355026Y310368D01*
X354650Y309806D01*
X354518Y309143D01*
X354650Y308479D01*
X355026Y307917D01*
X355588Y307541D01*
X356252Y307410D01*
X356915Y307541D01*
X357477Y307917D01*
X357853Y308479D01*
X357985Y309143D01*
X357853Y309806D01*
X357477Y310368D01*
X356915Y310744D01*
X356252Y310876D01*
D02*
G37*
G36*
X314452Y309276D02*
X313788Y309144D01*
X313226Y308769D01*
X312850Y308206D01*
X312718Y307543D01*
X312850Y306879D01*
X313226Y306317D01*
X313788Y305942D01*
X314452Y305809D01*
X315115Y305942D01*
X315677Y306317D01*
X316053Y306879D01*
X316185Y307543D01*
X316053Y308206D01*
X315677Y308769D01*
X315115Y309144D01*
X314452Y309276D01*
D02*
G37*
G36*
X287752Y308478D02*
X287049Y308338D01*
X286454Y307941D01*
X286056Y307345D01*
X285916Y306643D01*
X286056Y305941D01*
X286454Y305345D01*
X287049Y304947D01*
X287752Y304808D01*
X288454Y304947D01*
X289049Y305345D01*
X289447Y305941D01*
X289587Y306643D01*
X289447Y307345D01*
X289049Y307941D01*
X288454Y308338D01*
X287752Y308478D01*
D02*
G37*
G36*
X266752Y307678D02*
X266049Y307538D01*
X265454Y307141D01*
X265056Y306545D01*
X264916Y305843D01*
X265056Y305140D01*
X265454Y304545D01*
X266049Y304147D01*
X266752Y304008D01*
X267454Y304147D01*
X268049Y304545D01*
X268447Y305140D01*
X268587Y305843D01*
X268447Y306545D01*
X268049Y307141D01*
X267454Y307538D01*
X266752Y307678D01*
D02*
G37*
G36*
X280152Y304378D02*
X279449Y304238D01*
X278854Y303841D01*
X278456Y303245D01*
X278316Y302543D01*
X278456Y301840D01*
X278657Y301539D01*
X278754Y301041D01*
X278383Y300486D01*
X278259Y300371D01*
X277887Y300217D01*
X277854Y300238D01*
X277151Y300378D01*
X276449Y300238D01*
X275854Y299841D01*
X275456Y299245D01*
X275316Y298543D01*
X275456Y297840D01*
X275854Y297245D01*
X276449Y296847D01*
X277151Y296708D01*
X277854Y296847D01*
X278449Y297245D01*
X278820Y297800D01*
X278943Y297915D01*
X279229Y298033D01*
X279396Y298038D01*
X280051Y297908D01*
X280754Y298047D01*
X281349Y298445D01*
X281747Y299041D01*
X281887Y299743D01*
X281747Y300445D01*
X281546Y300746D01*
X281449Y301245D01*
X281847Y301840D01*
X281987Y302543D01*
X281847Y303245D01*
X281449Y303841D01*
X280854Y304238D01*
X280152Y304378D01*
D02*
G37*
G36*
X315670Y303114D02*
X314967Y302974D01*
X314372Y302576D01*
X313974Y301981D01*
X313834Y301279D01*
X313974Y300576D01*
X314372Y299981D01*
X314967Y299583D01*
X315670Y299443D01*
X316372Y299583D01*
X316967Y299981D01*
X317365Y300576D01*
X317505Y301279D01*
X317365Y301981D01*
X316967Y302576D01*
X316372Y302974D01*
X315670Y303114D01*
D02*
G37*
G36*
X327463Y302567D02*
X326760Y302427D01*
X326165Y302029D01*
X325767Y301434D01*
X325627Y300732D01*
X325767Y300029D01*
X326165Y299434D01*
X326760Y299036D01*
X327463Y298897D01*
X328165Y299036D01*
X328760Y299434D01*
X329158Y300029D01*
X329298Y300732D01*
X329158Y301434D01*
X328760Y302029D01*
X328165Y302427D01*
X327463Y302567D01*
D02*
G37*
G36*
X362752Y301476D02*
X362088Y301344D01*
X361526Y300969D01*
X361150Y300406D01*
X361018Y299743D01*
X361150Y299079D01*
X361526Y298517D01*
X362088Y298142D01*
X362752Y298009D01*
X363415Y298142D01*
X363977Y298517D01*
X364353Y299079D01*
X364485Y299743D01*
X364353Y300406D01*
X363977Y300969D01*
X363415Y301344D01*
X362752Y301476D01*
D02*
G37*
G36*
X308051Y299778D02*
X307349Y299638D01*
X306754Y299241D01*
X306356Y298645D01*
X306216Y297943D01*
X306356Y297240D01*
X306754Y296645D01*
X306443Y296279D01*
X306354Y296338D01*
X305651Y296478D01*
X305427Y296943D01*
X305347Y297345D01*
X304949Y297941D01*
X304354Y298338D01*
X303651Y298478D01*
X302949Y298338D01*
X302354Y297941D01*
X301956Y297345D01*
X301816Y296643D01*
X301956Y295940D01*
X302354Y295345D01*
X302949Y294947D01*
X303651Y294808D01*
X303876Y294342D01*
X303956Y293940D01*
X304354Y293345D01*
X304949Y292947D01*
X305651Y292808D01*
X306354Y292947D01*
X306949Y293345D01*
X307347Y293940D01*
X307487Y294643D01*
X307347Y295345D01*
X306949Y295940D01*
X307260Y296307D01*
X307349Y296247D01*
X307828Y296152D01*
X308057Y296101D01*
X308391Y295665D01*
X308456Y295340D01*
X308854Y294745D01*
X309449Y294347D01*
X310152Y294208D01*
X310249Y293738D01*
X309654Y293341D01*
X309256Y292745D01*
X309116Y292043D01*
X309256Y291340D01*
X309654Y290745D01*
X310249Y290347D01*
X310951Y290208D01*
X311654Y290347D01*
X312249Y290745D01*
X312647Y291340D01*
X312787Y292043D01*
X312647Y292745D01*
X312249Y293341D01*
X311654Y293738D01*
X310951Y293878D01*
X310854Y294347D01*
X311449Y294745D01*
X311567Y294922D01*
X312169D01*
X312354Y294645D01*
X312949Y294247D01*
X313651Y294108D01*
X314354Y294247D01*
X314949Y294645D01*
X315347Y295240D01*
X315487Y295943D01*
X315347Y296645D01*
X314949Y297241D01*
X314354Y297638D01*
X313651Y297778D01*
X312949Y297638D01*
X312354Y297241D01*
X312236Y297064D01*
X311634D01*
X311449Y297341D01*
X310854Y297738D01*
X310375Y297834D01*
X310146Y297885D01*
X309812Y298320D01*
X309747Y298645D01*
X309349Y299241D01*
X308754Y299638D01*
X308051Y299778D01*
D02*
G37*
G36*
X254341Y302567D02*
X253638Y302427D01*
X253043Y302029D01*
X252645Y301434D01*
X252505Y300732D01*
X252645Y300029D01*
X253043Y299434D01*
X253638Y299036D01*
X253734Y299017D01*
X253799Y298747D01*
X253787Y298497D01*
X253254Y298141D01*
X252856Y297545D01*
X252716Y296843D01*
X252856Y296141D01*
X253254Y295545D01*
X253849Y295147D01*
X254552Y295008D01*
X255254Y295147D01*
X255849Y295545D01*
X256247Y296141D01*
X256387Y296843D01*
X256247Y297545D01*
X255849Y298141D01*
X255254Y298538D01*
X255158Y298557D01*
X255093Y298827D01*
X255105Y299078D01*
X255638Y299434D01*
X256036Y300029D01*
X256176Y300732D01*
X256036Y301434D01*
X255638Y302029D01*
X255043Y302427D01*
X254341Y302567D01*
D02*
G37*
G36*
X329852Y298378D02*
X329149Y298238D01*
X328554Y297841D01*
X328156Y297245D01*
X328016Y296543D01*
X328156Y295841D01*
X328554Y295245D01*
X329149Y294847D01*
X329852Y294708D01*
X330554Y294847D01*
X331149Y295245D01*
X331547Y295841D01*
X331687Y296543D01*
X331547Y297245D01*
X331149Y297841D01*
X330554Y298238D01*
X329852Y298378D01*
D02*
G37*
G36*
X270551Y295478D02*
X269849Y295338D01*
X269254Y294941D01*
X268856Y294345D01*
X268716Y293643D01*
X268856Y292940D01*
X269254Y292345D01*
X269849Y291947D01*
X270551Y291808D01*
X271254Y291947D01*
X271849Y292345D01*
X272247Y292940D01*
X272387Y293643D01*
X272247Y294345D01*
X271849Y294941D01*
X271254Y295338D01*
X270551Y295478D01*
D02*
G37*
G36*
X327151Y292778D02*
X326449Y292638D01*
X325854Y292241D01*
X325456Y291645D01*
X325316Y290943D01*
X325456Y290241D01*
X325854Y289645D01*
X326449Y289247D01*
X327151Y289108D01*
X327854Y289247D01*
X328449Y289645D01*
X328847Y290241D01*
X328987Y290943D01*
X328847Y291645D01*
X328449Y292241D01*
X327854Y292638D01*
X327151Y292778D01*
D02*
G37*
G36*
X321652Y292578D02*
X320949Y292438D01*
X320354Y292041D01*
X319956Y291445D01*
X319816Y290743D01*
X319956Y290040D01*
X320354Y289445D01*
X320949Y289047D01*
X321652Y288908D01*
X322354Y289047D01*
X322949Y289445D01*
X323347Y290040D01*
X323487Y290743D01*
X323347Y291445D01*
X322949Y292041D01*
X322354Y292438D01*
X321652Y292578D01*
D02*
G37*
G36*
X322352Y287378D02*
X321649Y287238D01*
X321054Y286841D01*
X320656Y286245D01*
X320606Y285996D01*
X320097D01*
X320047Y286245D01*
X319649Y286841D01*
X319054Y287238D01*
X318352Y287378D01*
X317649Y287238D01*
X317054Y286841D01*
X316656Y286245D01*
X316516Y285543D01*
X316656Y284840D01*
X317054Y284245D01*
X317649Y283847D01*
X318352Y283708D01*
X319054Y283847D01*
X319649Y284245D01*
X320047Y284840D01*
X320097Y285090D01*
X320606D01*
X320656Y284840D01*
X321054Y284245D01*
X321649Y283847D01*
X322352Y283708D01*
X323054Y283847D01*
X323649Y284245D01*
X324047Y284840D01*
X324187Y285543D01*
X324047Y286245D01*
X323649Y286841D01*
X323054Y287238D01*
X322352Y287378D01*
D02*
G37*
G36*
X264352Y288578D02*
X263649Y288438D01*
X263054Y288041D01*
X262656Y287445D01*
X262516Y286743D01*
X262656Y286040D01*
X263054Y285445D01*
X263649Y285047D01*
X264352Y284908D01*
X265054Y285047D01*
X265649Y285445D01*
X266047Y286040D01*
X266187Y286743D01*
X266047Y287445D01*
X265649Y288041D01*
X265054Y288438D01*
X264352Y288578D01*
D02*
G37*
G36*
X242251Y283978D02*
X241549Y283838D01*
X240954Y283441D01*
X240556Y282845D01*
X240416Y282143D01*
X240556Y281440D01*
X240954Y280845D01*
X241549Y280447D01*
X242251Y280308D01*
X242954Y280447D01*
X243549Y280845D01*
X243947Y281440D01*
X244087Y282143D01*
X243947Y282845D01*
X243549Y283441D01*
X242954Y283838D01*
X242251Y283978D01*
D02*
G37*
G36*
X322751Y282178D02*
X322049Y282038D01*
X321454Y281641D01*
X321056Y281045D01*
X320916Y280343D01*
X321056Y279641D01*
X321454Y279045D01*
X322049Y278647D01*
X322751Y278508D01*
X323454Y278647D01*
X324049Y279045D01*
X324447Y279641D01*
X324587Y280343D01*
X324447Y281045D01*
X324049Y281641D01*
X323454Y282038D01*
X322751Y282178D01*
D02*
G37*
G36*
X339951Y277778D02*
X339249Y277638D01*
X338813Y277347D01*
X338349Y277141D01*
X337754Y277538D01*
X337052Y277678D01*
X336349Y277538D01*
X335754Y277141D01*
X335356Y276545D01*
X335216Y275843D01*
X335356Y275141D01*
X335754Y274545D01*
X336349Y274147D01*
X337052Y274008D01*
X337754Y274147D01*
X338190Y274439D01*
X338654Y274645D01*
X339249Y274247D01*
X339951Y274108D01*
X340654Y274247D01*
X341249Y274645D01*
X341647Y275240D01*
X341787Y275943D01*
X341647Y276645D01*
X341249Y277241D01*
X340654Y277638D01*
X339951Y277778D01*
D02*
G37*
G36*
X289452Y278578D02*
X288749Y278438D01*
X288154Y278041D01*
X287756Y277445D01*
X287616Y276743D01*
X287756Y276041D01*
X288154Y275445D01*
X288749Y275047D01*
X289452Y274908D01*
X290154Y275047D01*
X290749Y275445D01*
X291147Y276041D01*
X291287Y276743D01*
X291147Y277445D01*
X290749Y278041D01*
X290154Y278438D01*
X289452Y278578D01*
D02*
G37*
G36*
X279952Y277578D02*
X279249Y277438D01*
X278654Y277041D01*
X278256Y276445D01*
X278116Y275743D01*
X278256Y275041D01*
X278654Y274445D01*
X279249Y274047D01*
X279728Y273952D01*
X280116Y273643D01*
X280256Y272940D01*
X280654Y272345D01*
X281249Y271947D01*
X281951Y271808D01*
X282654Y271947D01*
X283249Y272345D01*
X283647Y272940D01*
X283787Y273643D01*
X283647Y274345D01*
X283249Y274941D01*
X282654Y275338D01*
X282175Y275434D01*
X281787Y275743D01*
X281647Y276445D01*
X281249Y277041D01*
X280654Y277438D01*
X279952Y277578D01*
D02*
G37*
G36*
X348275Y271071D02*
X347573Y270931D01*
X346977Y270533D01*
X346580Y269938D01*
X346440Y269236D01*
X346580Y268533D01*
X346977Y267938D01*
X347573Y267540D01*
X348275Y267401D01*
X348977Y267540D01*
X349573Y267938D01*
X349971Y268533D01*
X350110Y269236D01*
X349971Y269938D01*
X349573Y270533D01*
X348977Y270931D01*
X348275Y271071D01*
D02*
G37*
G36*
X336852Y271978D02*
X336149Y271838D01*
X335554Y271441D01*
X335156Y270845D01*
X335016Y270143D01*
X335099Y269726D01*
X335051Y269678D01*
X334349Y269538D01*
X333754Y269141D01*
X333356Y268545D01*
X333216Y267843D01*
X333356Y267141D01*
X333754Y266545D01*
X334349Y266147D01*
X335051Y266008D01*
X335754Y266147D01*
X336152Y266413D01*
X336368Y266535D01*
X336785Y266298D01*
X336954Y266045D01*
X337549Y265647D01*
X338251Y265508D01*
X338954Y265647D01*
X339549Y266045D01*
X339947Y266640D01*
X340087Y267343D01*
X339947Y268045D01*
X339549Y268641D01*
X338954Y269038D01*
X338848Y269059D01*
X338566Y269536D01*
X338687Y270143D01*
X338547Y270845D01*
X338149Y271441D01*
X337554Y271838D01*
X336852Y271978D01*
D02*
G37*
G36*
X272685Y273818D02*
X271601Y273675D01*
X270590Y273257D01*
X269723Y272591D01*
X269057Y271724D01*
X268639Y270713D01*
X268496Y269629D01*
X268639Y268545D01*
X269057Y267535D01*
X269723Y266668D01*
X270590Y266002D01*
X271601Y265584D01*
X272685Y265441D01*
X273769Y265584D01*
X274779Y266002D01*
X275646Y266668D01*
X276312Y267535D01*
X276730Y268545D01*
X276873Y269629D01*
X276730Y270713D01*
X276312Y271724D01*
X275646Y272591D01*
X274779Y273257D01*
X273769Y273675D01*
X272685Y273818D01*
D02*
G37*
G36*
X262685D02*
X261600Y273675D01*
X260590Y273257D01*
X259723Y272591D01*
X259057Y271724D01*
X258639Y270713D01*
X258496Y269629D01*
X258639Y268545D01*
X259057Y267535D01*
X259723Y266668D01*
X260590Y266002D01*
X261600Y265584D01*
X262685Y265441D01*
X263769Y265584D01*
X264779Y266002D01*
X265646Y266668D01*
X266312Y267535D01*
X266730Y268545D01*
X266873Y269629D01*
X266730Y270713D01*
X266312Y271724D01*
X265646Y272591D01*
X264779Y273257D01*
X263769Y273675D01*
X262685Y273818D01*
D02*
G37*
G36*
X286752Y267778D02*
X286049Y267638D01*
X285454Y267241D01*
X285056Y266645D01*
X284916Y265943D01*
X285056Y265241D01*
X285454Y264645D01*
X286049Y264247D01*
X286752Y264108D01*
X287454Y264247D01*
X288049Y264645D01*
X288447Y265241D01*
X288587Y265943D01*
X288447Y266645D01*
X288049Y267241D01*
X287454Y267638D01*
X286752Y267778D01*
D02*
G37*
G36*
X249062Y277951D02*
X247670Y277813D01*
X246330Y277407D01*
X245096Y276747D01*
X244014Y275859D01*
X243126Y274777D01*
X242466Y273543D01*
X242060Y272203D01*
X241923Y270811D01*
X242060Y269418D01*
X242466Y268078D01*
X243126Y266844D01*
X244014Y265762D01*
X245096Y264874D01*
X246330Y264214D01*
X247670Y263808D01*
X249062Y263671D01*
X250455Y263808D01*
X251795Y264214D01*
X253029Y264874D01*
X254111Y265762D01*
X254999Y266844D01*
X255659Y268078D01*
X256065Y269418D01*
X256202Y270811D01*
X256065Y272203D01*
X255659Y273543D01*
X254999Y274777D01*
X254111Y275859D01*
X253029Y276747D01*
X251795Y277407D01*
X250455Y277813D01*
X249062Y277951D01*
D02*
G37*
G36*
X315951Y265178D02*
X315249Y265038D01*
X314654Y264641D01*
X314256Y264045D01*
X314116Y263343D01*
X314256Y262641D01*
X314654Y262045D01*
X315249Y261647D01*
X315951Y261508D01*
X316654Y261647D01*
X317249Y262045D01*
X317647Y262641D01*
X317787Y263343D01*
X317647Y264045D01*
X317249Y264641D01*
X316654Y265038D01*
X315951Y265178D01*
D02*
G37*
G36*
X281252Y264878D02*
X280549Y264738D01*
X279954Y264341D01*
X279556Y263745D01*
X279416Y263043D01*
X279556Y262340D01*
X279657Y262190D01*
X279449Y261638D01*
X278854Y261241D01*
X278456Y260645D01*
X278416Y260446D01*
X277907D01*
X277847Y260745D01*
X277449Y261341D01*
X276854Y261738D01*
X276151Y261878D01*
X275449Y261738D01*
X274854Y261341D01*
X274456Y260745D01*
X274316Y260043D01*
X274456Y259341D01*
X274854Y258745D01*
X275449Y258347D01*
X276151Y258208D01*
X276854Y258347D01*
X277449Y258745D01*
X277847Y259341D01*
X277887Y259540D01*
X278397D01*
X278456Y259241D01*
X278854Y258645D01*
X279449Y258247D01*
X280152Y258108D01*
X280854Y258247D01*
X281449Y258645D01*
X281847Y259241D01*
X281987Y259943D01*
X281847Y260645D01*
X281746Y260796D01*
X281954Y261347D01*
X282549Y261745D01*
X282947Y262340D01*
X283087Y263043D01*
X282947Y263745D01*
X282549Y264341D01*
X281954Y264738D01*
X281252Y264878D01*
D02*
G37*
G36*
X271652Y263978D02*
X270949Y263838D01*
X270354Y263441D01*
X269956Y262845D01*
X269816Y262143D01*
X269956Y261440D01*
X270354Y260845D01*
X270949Y260447D01*
X271652Y260308D01*
X272354Y260447D01*
X272949Y260845D01*
X273347Y261440D01*
X273487Y262143D01*
X273347Y262845D01*
X272949Y263441D01*
X272354Y263838D01*
X271652Y263978D01*
D02*
G37*
G36*
X344732Y260835D02*
X344029Y260695D01*
X343434Y260297D01*
X343036Y259702D01*
X342897Y258999D01*
X343036Y258297D01*
X343434Y257702D01*
X343554Y257622D01*
Y257452D01*
X343498Y257057D01*
X343156Y256545D01*
X343016Y255843D01*
X343156Y255140D01*
X343554Y254545D01*
X344149Y254147D01*
X344851Y254008D01*
X345554Y254147D01*
X346149Y254545D01*
X346547Y255140D01*
X346687Y255843D01*
X346547Y256545D01*
X346149Y257140D01*
X346273Y257527D01*
X346805Y257517D01*
X346814Y257505D01*
X347409Y257107D01*
X348111Y256967D01*
X348814Y257107D01*
X349409Y257505D01*
X349807Y258100D01*
X349947Y258803D01*
X349807Y259505D01*
X349409Y260100D01*
X348814Y260498D01*
X348111Y260638D01*
X347409Y260498D01*
X346814Y260100D01*
X346788Y260062D01*
X346187D01*
X346029Y260297D01*
X345434Y260695D01*
X344732Y260835D01*
D02*
G37*
G36*
X328151Y260578D02*
X327449Y260438D01*
X326854Y260041D01*
X326456Y259445D01*
X326316Y258743D01*
X326456Y258040D01*
X326854Y257445D01*
X327449Y257047D01*
X328151Y256908D01*
X328854Y257047D01*
X329449Y257445D01*
X329847Y258040D01*
X329987Y258743D01*
X329847Y259445D01*
X329449Y260041D01*
X328854Y260438D01*
X328151Y260578D01*
D02*
G37*
G36*
X287752Y259478D02*
X287049Y259338D01*
X286454Y258941D01*
X286056Y258345D01*
X285916Y257643D01*
X286056Y256941D01*
X286454Y256345D01*
X287049Y255947D01*
X287752Y255808D01*
X288454Y255947D01*
X289049Y256345D01*
X289447Y256941D01*
X289587Y257643D01*
X289447Y258345D01*
X289049Y258941D01*
X288454Y259338D01*
X287752Y259478D01*
D02*
G37*
G36*
X333314Y258866D02*
X332612Y258727D01*
X332017Y258329D01*
X331619Y257733D01*
X331479Y257031D01*
X331619Y256329D01*
X332017Y255733D01*
X332612Y255335D01*
X333314Y255196D01*
X334017Y255335D01*
X334612Y255733D01*
X335010Y256329D01*
X335150Y257031D01*
X335010Y257733D01*
X334612Y258329D01*
X334017Y258727D01*
X333314Y258866D01*
D02*
G37*
G36*
X360283Y258669D02*
X359581Y258530D01*
X358985Y258132D01*
X358587Y257537D01*
X358448Y256834D01*
X358587Y256132D01*
X358985Y255537D01*
X359581Y255139D01*
X360283Y254999D01*
X360985Y255139D01*
X361581Y255537D01*
X361979Y256132D01*
X362118Y256834D01*
X361979Y257537D01*
X361581Y258132D01*
X360985Y258530D01*
X360283Y258669D01*
D02*
G37*
G36*
X579499Y306236D02*
X578029Y306091D01*
X576615Y305662D01*
X575312Y304966D01*
X574170Y304029D01*
X573233Y302887D01*
X572537Y301584D01*
X572108Y300170D01*
X571963Y298700D01*
X572108Y297229D01*
X572537Y295816D01*
X573233Y294513D01*
X574170Y293371D01*
X575312Y292434D01*
X576615Y291737D01*
X578029Y291308D01*
X579499Y291163D01*
X580969Y291308D01*
X582383Y291737D01*
X583686Y292434D01*
X584828Y293371D01*
X585765Y294513D01*
X586462Y295816D01*
X586891Y297229D01*
X587035Y298700D01*
X586891Y300170D01*
X586462Y301584D01*
X585765Y302887D01*
X584828Y304029D01*
X583686Y304966D01*
X582383Y305662D01*
X580969Y306091D01*
X579499Y306236D01*
D02*
G37*
G36*
X651715Y304428D02*
X650265Y304285D01*
X648870Y303862D01*
X647585Y303174D01*
X646458Y302250D01*
X645533Y301123D01*
X644846Y299838D01*
X644423Y298443D01*
X644280Y296993D01*
X644423Y295542D01*
X644846Y294147D01*
X645533Y292862D01*
X646458Y291736D01*
X647585Y290811D01*
X648870Y290124D01*
X650265Y289701D01*
X651715Y289558D01*
X653166Y289701D01*
X654560Y290124D01*
X655846Y290811D01*
X656972Y291736D01*
X657897Y292862D01*
X658584Y294147D01*
X659007Y295542D01*
X659150Y296993D01*
X659007Y298443D01*
X658584Y299838D01*
X657897Y301123D01*
X656972Y302250D01*
X655846Y303174D01*
X654560Y303862D01*
X653166Y304285D01*
X651715Y304428D01*
D02*
G37*
G36*
X616715Y295782D02*
X615734Y295653D01*
X614820Y295275D01*
X614035Y294672D01*
X613433Y293888D01*
X613055Y292973D01*
X612925Y291993D01*
X613055Y291012D01*
X613433Y290098D01*
X614035Y289313D01*
X614820Y288711D01*
X615734Y288332D01*
X616715Y288203D01*
X617696Y288332D01*
X618610Y288711D01*
X619395Y289313D01*
X619997Y290098D01*
X620376Y291012D01*
X620505Y291993D01*
X620376Y292973D01*
X619997Y293888D01*
X619395Y294672D01*
X618610Y295275D01*
X617696Y295653D01*
X616715Y295782D01*
D02*
G37*
G36*
Y275782D02*
X615734Y275653D01*
X614820Y275275D01*
X614035Y274672D01*
X613433Y273888D01*
X613055Y272973D01*
X612925Y271993D01*
X613055Y271012D01*
X613433Y270098D01*
X614035Y269313D01*
X614820Y268711D01*
X615734Y268332D01*
X616715Y268203D01*
X617696Y268332D01*
X618610Y268711D01*
X619395Y269313D01*
X619997Y270098D01*
X620376Y271012D01*
X620505Y271993D01*
X620376Y272973D01*
X619997Y273888D01*
X619395Y274672D01*
X618610Y275275D01*
X617696Y275653D01*
X616715Y275782D01*
D02*
G37*
G36*
X651715Y259427D02*
X650265Y259285D01*
X648870Y258862D01*
X647585Y258174D01*
X646458Y257250D01*
X645533Y256123D01*
X644846Y254838D01*
X644423Y253443D01*
X644280Y251993D01*
X644423Y250542D01*
X644846Y249148D01*
X645533Y247862D01*
X646458Y246736D01*
X647585Y245811D01*
X648870Y245124D01*
X650265Y244701D01*
X651715Y244558D01*
X653166Y244701D01*
X654560Y245124D01*
X655846Y245811D01*
X656972Y246736D01*
X657897Y247862D01*
X658584Y249148D01*
X659007Y250542D01*
X659150Y251993D01*
X659007Y253443D01*
X658584Y254838D01*
X657897Y256123D01*
X656972Y257250D01*
X655846Y258174D01*
X654560Y258862D01*
X653166Y259285D01*
X651715Y259427D01*
D02*
G37*
G36*
X636515Y250532D02*
X635142Y250397D01*
X633821Y249996D01*
X632604Y249346D01*
X631537Y248470D01*
X630662Y247404D01*
X630012Y246187D01*
X629611Y244866D01*
X629476Y243493D01*
X629611Y242119D01*
X630012Y240799D01*
X630662Y239582D01*
X631537Y238515D01*
X632604Y237640D01*
X633821Y236989D01*
X635142Y236589D01*
X636515Y236453D01*
X637888Y236589D01*
X639209Y236989D01*
X640426Y237640D01*
X641493Y238515D01*
X642368Y239582D01*
X643019Y240799D01*
X643419Y242119D01*
X643554Y243493D01*
X643419Y244866D01*
X643019Y246187D01*
X642368Y247404D01*
X641493Y248470D01*
X640426Y249346D01*
X639209Y249996D01*
X637888Y250397D01*
X636515Y250532D01*
D02*
G37*
G36*
X427232Y222559D02*
X426412Y222396D01*
X425718Y221932D01*
X425253Y221238D01*
X425091Y220418D01*
X425253Y219599D01*
X425718Y218904D01*
X426412Y218440D01*
X427232Y218277D01*
X428051Y218440D01*
X428746Y218904D01*
X429210Y219599D01*
X429373Y220418D01*
X429210Y221238D01*
X428746Y221932D01*
X428051Y222396D01*
X427232Y222559D01*
D02*
G37*
G36*
X631351Y222540D02*
X630532Y222377D01*
X629837Y221913D01*
X629373Y221218D01*
X629210Y220399D01*
X629373Y219579D01*
X629837Y218885D01*
X630532Y218421D01*
X631351Y218258D01*
X632170Y218421D01*
X632865Y218885D01*
X633329Y219579D01*
X633492Y220399D01*
X633329Y221218D01*
X632865Y221913D01*
X632170Y222377D01*
X631351Y222540D01*
D02*
G37*
G36*
X426951Y217579D02*
X426132Y217416D01*
X425437Y216952D01*
X424973Y216257D01*
X424810Y215438D01*
X424973Y214618D01*
X425437Y213924D01*
X426132Y213459D01*
X426951Y213297D01*
X427771Y213459D01*
X428465Y213924D01*
X428929Y214618D01*
X429092Y215438D01*
X428929Y216257D01*
X428465Y216952D01*
X427771Y217416D01*
X426951Y217579D01*
D02*
G37*
G36*
X669999Y227536D02*
X668529Y227391D01*
X667115Y226962D01*
X665812Y226266D01*
X664670Y225329D01*
X663733Y224187D01*
X663036Y222884D01*
X662608Y221470D01*
X662463Y220000D01*
X662608Y218529D01*
X663036Y217116D01*
X663733Y215813D01*
X664670Y214671D01*
X665812Y213734D01*
X667115Y213037D01*
X668529Y212608D01*
X669999Y212463D01*
X671469Y212608D01*
X672883Y213037D01*
X674186Y213734D01*
X675328Y214671D01*
X676265Y215813D01*
X676962Y217116D01*
X677391Y218529D01*
X677535Y220000D01*
X677391Y221470D01*
X676962Y222884D01*
X676265Y224187D01*
X675328Y225329D01*
X674186Y226266D01*
X672883Y226962D01*
X671469Y227391D01*
X669999Y227536D01*
D02*
G37*
G36*
X626351Y215665D02*
X625532Y215502D01*
X624837Y215038D01*
X624373Y214343D01*
X624210Y213524D01*
X624373Y212704D01*
X624837Y212010D01*
X625532Y211546D01*
X626351Y211383D01*
X627171Y211546D01*
X627865Y212010D01*
X628329Y212704D01*
X628492Y213524D01*
X628329Y214343D01*
X627865Y215038D01*
X627171Y215502D01*
X626351Y215665D01*
D02*
G37*
G36*
X413851Y212840D02*
X413032Y212677D01*
X412337Y212213D01*
X411873Y211518D01*
X411710Y210699D01*
X411873Y209879D01*
X412227Y209349D01*
X411873Y208818D01*
X411710Y207999D01*
X411873Y207179D01*
X412337Y206485D01*
X413032Y206021D01*
X413851Y205858D01*
X414671Y206021D01*
X415365Y206485D01*
X415829Y207179D01*
X415992Y207999D01*
X415829Y208818D01*
X415475Y209349D01*
X415829Y209879D01*
X415992Y210699D01*
X415829Y211518D01*
X415365Y212213D01*
X414671Y212677D01*
X413851Y212840D01*
D02*
G37*
G36*
X436351Y207540D02*
X435532Y207377D01*
X434837Y206913D01*
X434373Y206218D01*
X434210Y205399D01*
X434373Y204579D01*
X434837Y203885D01*
X435532Y203421D01*
X436351Y203258D01*
X437171Y203421D01*
X437865Y203885D01*
X438329Y204579D01*
X438492Y205399D01*
X438329Y206218D01*
X437865Y206913D01*
X437171Y207377D01*
X436351Y207540D01*
D02*
G37*
G36*
Y202540D02*
X435532Y202377D01*
X434837Y201913D01*
X434373Y201218D01*
X434210Y200399D01*
X434373Y199579D01*
X434837Y198885D01*
X435532Y198421D01*
X436351Y198258D01*
X437171Y198421D01*
X437865Y198885D01*
X438329Y199579D01*
X438492Y200399D01*
X438329Y201218D01*
X437865Y201913D01*
X437171Y202377D01*
X436351Y202540D01*
D02*
G37*
G36*
X645598Y193444D02*
X644701Y193265D01*
X643940Y192757D01*
X643432Y191996D01*
X643253Y191099D01*
X643432Y190201D01*
X643940Y189441D01*
X644313Y189191D01*
Y188590D01*
X644115Y188457D01*
X643606Y187696D01*
X643428Y186799D01*
X643606Y185901D01*
X644115Y185141D01*
X644875Y184632D01*
X645773Y184454D01*
X646670Y184632D01*
X647431Y185141D01*
X647939Y185901D01*
X648118Y186799D01*
X647939Y187696D01*
X647431Y188457D01*
X647058Y188706D01*
Y189308D01*
X647256Y189441D01*
X647765Y190201D01*
X647943Y191099D01*
X647765Y191996D01*
X647256Y192757D01*
X646496Y193265D01*
X645598Y193444D01*
D02*
G37*
G36*
X414051Y187579D02*
X413232Y187416D01*
X412537Y186952D01*
X412073Y186257D01*
X411910Y185438D01*
X412073Y184618D01*
X412537Y183924D01*
X413232Y183459D01*
X414051Y183297D01*
X414871Y183459D01*
X415565Y183924D01*
X416029Y184618D01*
X416192Y185438D01*
X416029Y186257D01*
X415565Y186952D01*
X414871Y187416D01*
X414051Y187579D01*
D02*
G37*
G36*
X425851Y187540D02*
X425032Y187377D01*
X424337Y186913D01*
X423873Y186218D01*
X423710Y185399D01*
X423873Y184579D01*
X424337Y183885D01*
X424843Y183547D01*
X424872Y183419D01*
X424838Y182988D01*
X424193Y182557D01*
X423685Y181796D01*
X423506Y180899D01*
X423685Y180001D01*
X424193Y179241D01*
X424954Y178732D01*
X425851Y178554D01*
X426749Y178732D01*
X427509Y179241D01*
X428018Y180001D01*
X428196Y180899D01*
X428018Y181796D01*
X427509Y182557D01*
X426864Y182988D01*
X426830Y183419D01*
X426859Y183547D01*
X427365Y183885D01*
X427829Y184579D01*
X427992Y185399D01*
X427829Y186218D01*
X427365Y186913D01*
X426671Y187377D01*
X425851Y187540D01*
D02*
G37*
G36*
X413299Y169919D02*
X412402Y169740D01*
X411641Y169232D01*
X411133Y168471D01*
X410954Y167574D01*
X411133Y166676D01*
X411641Y165916D01*
X412402Y165407D01*
X413299Y165229D01*
X414197Y165407D01*
X414957Y165916D01*
X415466Y166676D01*
X415644Y167574D01*
X415466Y168471D01*
X414957Y169232D01*
X414197Y169740D01*
X413299Y169919D01*
D02*
G37*
G36*
X437151Y167995D02*
X436234Y167812D01*
X435457Y167293D01*
X434937Y166516D01*
X434755Y165599D01*
X434937Y164682D01*
X435457Y163904D01*
X436234Y163385D01*
X437151Y163203D01*
X438068Y163385D01*
X438845Y163904D01*
X439365Y164682D01*
X439547Y165599D01*
X439365Y166516D01*
X438845Y167293D01*
X438068Y167812D01*
X437151Y167995D01*
D02*
G37*
G36*
X637499Y151945D02*
X636602Y151766D01*
X635841Y151258D01*
X635333Y150497D01*
X635154Y149600D01*
X635333Y148702D01*
X635841Y147942D01*
X636602Y147433D01*
X637499Y147255D01*
X638397Y147433D01*
X639157Y147942D01*
X639666Y148702D01*
X639844Y149600D01*
X639666Y150497D01*
X639157Y151258D01*
X638397Y151766D01*
X637499Y151945D01*
D02*
G37*
G36*
X435998Y145040D02*
X435179Y144877D01*
X434484Y144413D01*
X434020Y143718D01*
X433857Y142899D01*
X434020Y142079D01*
X434484Y141385D01*
X435179Y140921D01*
X435998Y140758D01*
X436818Y140921D01*
X437512Y141385D01*
X437976Y142079D01*
X438139Y142899D01*
X437976Y143718D01*
X437512Y144413D01*
X436818Y144877D01*
X435998Y145040D01*
D02*
G37*
G36*
X422951Y144344D02*
X422054Y144165D01*
X421293Y143657D01*
X420785Y142896D01*
X420606Y141999D01*
X420785Y141101D01*
X421293Y140340D01*
X422054Y139832D01*
X422951Y139654D01*
X423849Y139832D01*
X424609Y140340D01*
X425118Y141101D01*
X425296Y141999D01*
X425118Y142896D01*
X424609Y143657D01*
X423849Y144165D01*
X422951Y144344D01*
D02*
G37*
G36*
X609351Y138540D02*
X608532Y138377D01*
X607837Y137913D01*
X607373Y137218D01*
X607210Y136399D01*
X607373Y135579D01*
X607837Y134885D01*
X608532Y134421D01*
X609351Y134258D01*
X610171Y134421D01*
X610865Y134885D01*
X611329Y135579D01*
X611492Y136399D01*
X611329Y137218D01*
X610865Y137913D01*
X610171Y138377D01*
X609351Y138540D01*
D02*
G37*
%LPD*%
D32*
X274252Y391643D02*
X274633Y392025D01*
Y397614D01*
Y403525D01*
X159548Y358991D02*
X158548Y359991D01*
X156549D01*
X155549Y358991D01*
Y357992D01*
X156549Y356992D01*
X158548D01*
X159548Y355992D01*
Y354993D01*
X158548Y353993D01*
X156549D01*
X155549Y354993D01*
X161547Y353993D02*
X163547D01*
X162547D01*
Y357992D01*
X161547D01*
X168545Y351993D02*
X169545D01*
X170544Y352993D01*
Y357992D01*
X167545D01*
X166546Y356992D01*
Y354993D01*
X167545Y353993D01*
X170544D01*
X172544D02*
X174543D01*
X173543D01*
Y359991D01*
X172544Y358991D01*
X179542Y353993D02*
X177542Y355992D01*
Y357992D01*
X179542Y359991D01*
X182541D02*
Y353993D01*
X186539D01*
X192537D02*
X188539D01*
X192537Y357992D01*
Y358991D01*
X191538Y359991D01*
X189538D01*
X188539Y358991D01*
X195536Y352993D02*
X196536Y353993D01*
Y354993D01*
X195536D01*
Y353993D01*
X196536D01*
X195536Y352993D01*
X194537Y351993D01*
X200535Y353993D02*
Y359991D01*
X203534D01*
X204533Y358991D01*
Y356992D01*
X203534Y355992D01*
X200535D01*
X207532Y353993D02*
X209532D01*
X210531Y354993D01*
Y356992D01*
X209532Y357992D01*
X207532D01*
X206533Y356992D01*
Y354993D01*
X207532Y353993D01*
X212531D02*
X215530D01*
X216529Y354993D01*
X215530Y355992D01*
X213530D01*
X212531Y356992D01*
X213530Y357992D01*
X216529D01*
X218529Y353993D02*
X220528Y355992D01*
Y357992D01*
X218529Y359991D01*
X172744Y297358D02*
X170744D01*
X169745Y296358D01*
Y292360D01*
X170744Y291360D01*
X172744D01*
X173743Y292360D01*
Y296358D01*
X172744Y297358D01*
X175743Y295359D02*
Y292360D01*
X176742Y291360D01*
X179742D01*
Y295359D01*
X182740Y296358D02*
Y295359D01*
X181741D01*
X183740D01*
X182740D01*
Y292360D01*
X183740Y291360D01*
X186739D02*
X188739D01*
X187739D01*
Y297358D01*
X186739D01*
X191738Y291360D02*
X193737D01*
X192737D01*
Y295359D01*
X191738D01*
X196736Y291360D02*
Y295359D01*
X199735D01*
X200735Y294359D01*
Y291360D01*
X205733D02*
X203734D01*
X202734Y292360D01*
Y294359D01*
X203734Y295359D01*
X205733D01*
X206733Y294359D01*
Y293359D01*
X202734D01*
X161747Y272943D02*
Y278941D01*
X163747Y276942D01*
X165746Y278941D01*
Y272943D01*
X167745Y276942D02*
Y273942D01*
X168745Y272943D01*
X171744D01*
Y276942D01*
X173743Y272943D02*
X175743D01*
X174743D01*
Y278941D01*
X173743D01*
X179742Y277941D02*
Y276942D01*
X178742D01*
X180741D01*
X179742D01*
Y273942D01*
X180741Y272943D01*
X183740D02*
X185740D01*
X184740D01*
Y276942D01*
X183740D01*
X188739Y272943D02*
X190738D01*
X189738D01*
Y278941D01*
X188739D01*
X194737Y276942D02*
X196736D01*
X197736Y275942D01*
Y272943D01*
X194737D01*
X193737Y273942D01*
X194737Y274942D01*
X197736D01*
X199735Y276942D02*
Y273942D01*
X200735Y272943D01*
X203734D01*
Y271943D01*
X202734Y270943D01*
X201734D01*
X203734Y272943D02*
Y276942D01*
X208732Y272943D02*
X206733D01*
X205733Y273942D01*
Y275942D01*
X206733Y276942D01*
X208732D01*
X209732Y275942D01*
Y274942D01*
X205733D01*
X211731Y276942D02*
Y272943D01*
Y274942D01*
X212731Y275942D01*
X213731Y276942D01*
X214730D01*
X526953Y348397D02*
X525953Y347398D01*
Y345398D01*
X526953Y344399D01*
X527952D01*
X528952Y345398D01*
Y347398D01*
X529952Y348397D01*
X530951D01*
X531951Y347398D01*
Y345398D01*
X530951Y344399D01*
X531951Y350397D02*
Y352396D01*
Y351396D01*
X527952D01*
Y350397D01*
X533951Y357395D02*
Y358394D01*
X532951Y359394D01*
X527952D01*
Y356395D01*
X528952Y355395D01*
X530951D01*
X531951Y356395D01*
Y359394D01*
Y361393D02*
Y363393D01*
Y362393D01*
X525953D01*
X526953Y361393D01*
X531951Y374389D02*
X529952Y372390D01*
X527952D01*
X525953Y374389D01*
X531951Y377388D02*
X525953D01*
Y380387D01*
X526953Y381387D01*
X528952D01*
X529952Y380387D01*
Y377388D01*
X531951Y384386D02*
Y386385D01*
X530951Y387385D01*
X528952D01*
X527952Y386385D01*
Y384386D01*
X528952Y383386D01*
X530951D01*
X531951Y384386D01*
Y389384D02*
Y392383D01*
X530951Y393383D01*
X529952Y392383D01*
Y390384D01*
X528952Y389384D01*
X527952Y390384D01*
Y393383D01*
X531951Y395382D02*
X529952Y397382D01*
X527952D01*
X525953Y395382D01*
X556453Y348398D02*
Y346398D01*
X557453Y345399D01*
X561451D01*
X562451Y346398D01*
Y348398D01*
X561451Y349397D01*
X557453D01*
X556453Y348398D01*
X558452Y351397D02*
X561451D01*
X562451Y352396D01*
Y355396D01*
X558452D01*
X557453Y358395D02*
X558452D01*
Y357395D01*
Y359394D01*
Y358395D01*
X561451D01*
X562451Y359394D01*
Y362393D02*
Y364393D01*
Y363393D01*
X556453D01*
Y362393D01*
X562451Y367392D02*
Y369391D01*
Y368391D01*
X558452D01*
Y367392D01*
X562451Y372390D02*
X558452D01*
Y375389D01*
X559452Y376389D01*
X562451D01*
Y381387D02*
Y379388D01*
X561451Y378388D01*
X559452D01*
X558452Y379388D01*
Y381387D01*
X559452Y382387D01*
X560452D01*
Y378388D01*
X582951Y345399D02*
X576953D01*
X578952Y347398D01*
X576953Y349397D01*
X582951D01*
X578952Y351397D02*
X581952D01*
X582951Y352396D01*
Y355396D01*
X578952D01*
X582951Y357395D02*
Y359394D01*
Y358395D01*
X576953D01*
Y357395D01*
X577953Y363393D02*
X578952D01*
Y362393D01*
Y364393D01*
Y363393D01*
X581952D01*
X582951Y364393D01*
Y367392D02*
Y369391D01*
Y368391D01*
X578952D01*
Y367392D01*
X576953Y372390D02*
X582951D01*
Y376389D01*
X578952Y379388D02*
Y381387D01*
X579952Y382387D01*
X582951D01*
Y379388D01*
X581952Y378388D01*
X580952Y379388D01*
Y382387D01*
X578952Y384386D02*
X581952D01*
X582951Y385386D01*
Y388385D01*
X583951D01*
X584950Y387385D01*
Y386385D01*
X582951Y388385D02*
X578952D01*
X582951Y393383D02*
Y391384D01*
X581952Y390384D01*
X579952D01*
X578952Y391384D01*
Y393383D01*
X579952Y394383D01*
X580952D01*
Y390384D01*
X578952Y396382D02*
X582951D01*
X580952D01*
X579952Y397382D01*
X578952Y398382D01*
Y399381D01*
D34*
X271199Y197100D02*
G03*
X265331Y202024I-5000J0D01*
G01*
X211131Y192424D02*
G03*
X207351Y185660I868J-4923D01*
G01*
X207365Y185649D02*
G03*
X221998Y154053I285528J113050D01*
G01*
X222012Y154064D02*
G03*
X248120Y137445I27788J14837D01*
G01*
X248123Y137498D02*
G03*
X374671Y137370I64179J895306D01*
G01*
X494138Y129335D02*
G03*
X375560Y137364I-89279J-438871D01*
G01*
X578946Y112082D02*
G03*
X661773Y154430I17054J68818D01*
G01*
X662305Y155917D02*
G03*
X662238Y441653I-358406J142783D01*
G01*
X661737Y443060D02*
G03*
X581986Y486002I-65737J-26559D01*
G01*
X429099Y308500D02*
G03*
X429836Y305888I4999J1D01*
G01*
X415703Y285110D02*
G03*
X429866Y305911I2396J13590D01*
G01*
X415668Y285124D02*
G03*
X409799Y280200I-869J-4924D01*
G01*
X404799Y240200D02*
G03*
X409799Y245200I0J5000D01*
G01*
X392799Y240200D02*
G03*
X387799Y235200I0J-5000D01*
G01*
X382799Y158500D02*
G03*
X387799Y163500I0J5000D01*
G01*
X271199D02*
G03*
X276199Y158500I5000J0D01*
G01*
X417516Y459294D02*
G03*
X494633Y468209I-12450J445697D01*
G01*
X417516Y459294D02*
G03*
X411452Y442036I300J-9800D01*
G01*
X429216Y424594D02*
G03*
X427437Y428419I-5000J1D01*
G01*
X494146Y129372D02*
X578955Y112119D01*
X494543Y468209D02*
X581999Y486000D01*
X271199Y163500D02*
Y197100D01*
X211099Y192400D02*
X265399Y202000D01*
X409799Y245200D02*
Y280200D01*
X392799Y240200D02*
X404799D01*
X387799Y163500D02*
Y235200D01*
X276199Y158500D02*
X382799D01*
X411416Y441994D02*
X427416Y428394D01*
X429117Y309399D02*
X429216Y424624D01*
X374671Y137370D02*
X375554D01*
X661773Y154430D02*
X662305Y155917D01*
X661737Y443060D02*
X662238Y441653D01*
X494543Y468209D02*
X494633D01*
X429099Y308500D02*
Y309381D01*
X429117Y309399D01*
D35*
X434651Y213563D02*
Y242099D01*
X432151Y214599D02*
Y240599D01*
X427651Y164163D02*
Y171099D01*
X427251Y190163D02*
Y209699D01*
X427651Y171099D02*
X430951Y174399D01*
X427651Y164163D02*
X433416Y158399D01*
X430951Y174399D02*
Y186463D01*
X427251Y209699D02*
X432151Y214599D01*
X427251Y190163D02*
X430951Y186463D01*
X520051Y139099D02*
X604887D01*
X433416Y158399D02*
X500751D01*
X520051Y139099D01*
X604887D02*
X610987Y145199D01*
X636351Y164163D02*
Y173399D01*
X619851Y254899D02*
X621851Y256899D01*
X619851Y247234D02*
Y254899D01*
X621851Y256899D02*
X626621D01*
X626715Y256993D01*
X636351Y173399D02*
X639851Y176899D01*
Y227234D01*
X619851Y247234D02*
X639851Y227234D01*
X430151Y165199D02*
Y170063D01*
X429751Y191199D02*
Y208663D01*
X430151Y170063D02*
X433451Y173363D01*
X430151Y165199D02*
X434451Y160899D01*
X501787D01*
X429751Y191199D02*
X433451Y187499D01*
Y173363D02*
Y187499D01*
X429751Y208663D02*
X434651Y213563D01*
X521087Y141599D02*
X603851D01*
X609951Y147699D01*
X501787Y160899D02*
X521087Y141599D01*
X609951Y147699D02*
X616351D01*
X633851Y165199D01*
Y174434D01*
X637351Y177934D01*
Y226199D01*
X617351Y246199D02*
Y255934D01*
X618483Y257066D01*
X617351Y246199D02*
X637351Y226199D01*
X618483Y257066D02*
Y260225D01*
X616715Y261993D02*
X618483Y260225D01*
X430751Y241999D02*
X432151Y240599D01*
X426201Y241999D02*
X430751D01*
X425640Y241438D02*
X426201Y241999D01*
X424751Y241438D02*
X425640D01*
X432251Y244499D02*
X434651Y242099D01*
X424812Y244499D02*
X432251D01*
X424751Y244438D02*
X424812Y244499D01*
X634451Y279599D02*
X652851D01*
X653887Y282099D02*
X670251Y265734D01*
X616821Y282099D02*
X653887D01*
X408651Y161199D02*
X417151Y152699D01*
X408651Y212363D02*
X418851Y222563D01*
X408651Y161199D02*
Y212363D01*
X443987Y147899D02*
X501587D01*
X417151Y152699D02*
X439187D01*
X443987Y147899D01*
X418851Y222563D02*
Y228999D01*
X421040Y231188D01*
X424251D01*
X517287Y132199D02*
X627651D01*
X501587Y147899D02*
X517287Y132199D01*
X627651D02*
X652651Y157199D01*
Y189134D01*
X658051Y194534D01*
Y241334D01*
X667751Y251034D01*
Y264699D01*
X652851Y279599D02*
X667751Y264699D01*
X406151Y160163D02*
X416116Y150199D01*
X406151Y213399D02*
X416451Y223699D01*
X406151Y160163D02*
Y213399D01*
X438151Y150199D02*
X442951Y145399D01*
X416116Y150199D02*
X438151D01*
X416451Y223699D02*
Y230134D01*
X420216Y233899D01*
X516251Y129699D02*
X628687D01*
X442951Y145399D02*
X500551D01*
X516251Y129699D01*
X628687D02*
X655151Y156163D01*
Y188099D01*
X660551Y193499D01*
Y240299D01*
X670251Y249999D01*
Y265734D01*
X420216Y233899D02*
X424251D01*
X632251Y277399D02*
X634451Y279599D01*
X632251Y272529D02*
Y277399D01*
X626715Y266993D02*
X632251Y272529D01*
X616715Y281993D02*
X616821Y282099D01*
X617387Y145199D02*
X636351Y164163D01*
X610987Y145199D02*
X617387D01*
D39*
X330651Y324143D02*
D03*
X358752Y352643D02*
D03*
X358783Y326043D02*
D03*
X339152Y324043D02*
D03*
X413712Y225438D02*
D03*
X437851Y235399D02*
D03*
X413851Y189899D02*
D03*
X322851Y154899D02*
D03*
X669099Y238700D02*
D03*
X651351Y206899D02*
D03*
X436451Y210399D02*
D03*
X424751Y241438D02*
D03*
Y244438D02*
D03*
X413751Y202699D02*
D03*
X424251Y231188D02*
D03*
Y234188D02*
D03*
D56*
X176000Y87000D02*
Y515000D01*
X709000D01*
Y87000D02*
Y515000D01*
X176000Y87000D02*
X709000D01*
D59*
X237351Y243251D02*
X367273D01*
Y412543D01*
X237351D02*
X367273D01*
X237351Y243251D02*
Y412543D01*
D60*
X219299Y184500D02*
D03*
X579499Y298700D02*
D03*
X669999Y220000D02*
D03*
X396399Y229800D02*
D03*
D61*
X455694Y440548D02*
D03*
X498062D02*
D03*
X550831Y461007D02*
D03*
X592581Y461019D02*
D03*
D62*
X616715Y261993D02*
D03*
Y281993D02*
D03*
X626715Y256993D02*
D03*
Y266993D02*
D03*
D65*
X472774Y288820D02*
D03*
D66*
X637687Y342843D02*
D03*
D67*
X651487Y322393D02*
D03*
D68*
Y346793D02*
D03*
D69*
X629351Y143399D02*
D03*
X399099Y188700D02*
D03*
Y208700D02*
D03*
X593351Y293399D02*
D03*
Y303399D02*
D03*
X659099Y258700D02*
D03*
X569099Y118700D02*
D03*
X589099D02*
D03*
X660910Y298700D02*
D03*
X679099Y278700D02*
D03*
Y308700D02*
D03*
D70*
X436351Y170360D02*
D03*
X462851Y152899D02*
D03*
X495351D02*
D03*
X515351Y160899D02*
D03*
D71*
X274633Y397614D02*
D03*
X304633D02*
D03*
X309633D02*
D03*
X329633D02*
D03*
X324633D02*
D03*
X334633D02*
D03*
D72*
X241818Y335771D02*
D03*
D75*
X308118Y325143D02*
D03*
X363851Y268943D02*
D03*
X362052Y249843D02*
D03*
X246751Y363043D02*
D03*
X243451Y373689D02*
D03*
X351652Y246443D02*
D03*
X253451Y408043D02*
D03*
X269652Y407943D02*
D03*
X291752D02*
D03*
X294752Y378643D02*
D03*
X344732Y268055D02*
D03*
X338039Y290889D02*
D03*
X248128Y282419D02*
D03*
X295851Y257743D02*
D03*
X286452Y263143D02*
D03*
X285251Y341143D02*
D03*
X254351Y350543D02*
D03*
X317566Y247528D02*
D03*
X310244Y258451D02*
D03*
X280210Y278685D02*
D03*
X267566Y301628D02*
D03*
X288039Y326855D02*
D03*
X275441Y338232D02*
D03*
X269535Y337326D02*
D03*
X262551Y281543D02*
D03*
X252852Y376243D02*
D03*
X268151Y366343D02*
D03*
X317652Y344243D02*
D03*
X329651Y272943D02*
D03*
X325751Y249543D02*
D03*
X328151Y255843D02*
D03*
X298451Y277543D02*
D03*
X242763Y260968D02*
D03*
X258511Y260574D02*
D03*
X248252Y303543D02*
D03*
X242763Y404275D02*
D03*
X303393Y340102D02*
D03*
X352212Y372779D02*
D03*
X304181Y312543D02*
D03*
X356937Y403094D02*
D03*
X318851Y377343D02*
D03*
X314633Y389661D02*
D03*
X309651Y389743D02*
D03*
X334552Y389943D02*
D03*
Y378843D02*
D03*
X308552Y407843D02*
D03*
X342452Y407943D02*
D03*
X362351Y408443D02*
D03*
X254751Y341043D02*
D03*
M02*
