G04 Layer_Color=8388736*
%FSLAX25Y25*%
%MOIN*%
G70*
G01*
G75*
%ADD20R,0.03600X0.03600*%
%ADD21R,0.05000X0.03600*%
%ADD27R,0.02362X0.01969*%
%ADD32C,0.01000*%
%ADD34C,0.00600*%
%ADD39C,0.02000*%
%ADD48O,0.09449X0.03150*%
%ADD49R,0.09449X0.03150*%
%ADD50R,0.06890X0.05709*%
%ADD51R,0.02953X0.01181*%
G04:AMPARAMS|DCode=52|XSize=11.81mil|YSize=29.53mil|CornerRadius=5.91mil|HoleSize=0mil|Usage=FLASHONLY|Rotation=270.000|XOffset=0mil|YOffset=0mil|HoleType=Round|Shape=RoundedRectangle|*
%AMROUNDEDRECTD52*
21,1,0.01181,0.01772,0,0,270.0*
21,1,0.00000,0.02953,0,0,270.0*
1,1,0.01181,-0.00886,0.00000*
1,1,0.01181,-0.00886,0.00000*
1,1,0.01181,0.00886,0.00000*
1,1,0.01181,0.00886,0.00000*
%
%ADD52ROUNDEDRECTD52*%
%ADD56C,0.00800*%
%ADD59C,0.00500*%
%ADD90R,0.03943X0.02959*%
%ADD91R,0.02959X0.03943*%
%ADD92R,0.02959X0.02565*%
%ADD93R,0.02762X0.02369*%
%ADD94R,0.02565X0.02959*%
%ADD95R,0.12211X0.08668*%
%ADD96R,0.06699X0.03550*%
%ADD97R,0.08668X0.12211*%
%ADD98R,0.03550X0.06699*%
%ADD99R,0.06700X0.03600*%
%ADD100R,0.02369X0.02762*%
G04:AMPARAMS|DCode=101|XSize=122.11mil|YSize=86.68mil|CornerRadius=0mil|HoleSize=0mil|Usage=FLASHONLY|Rotation=138.000|XOffset=0mil|YOffset=0mil|HoleType=Round|Shape=Rectangle|*
%AMROTATEDRECTD101*
4,1,4,0.07437,-0.00865,0.01637,-0.07306,-0.07437,0.00865,-0.01637,0.07306,0.07437,-0.00865,0.0*
%
%ADD101ROTATEDRECTD101*%

G04:AMPARAMS|DCode=102|XSize=35.5mil|YSize=66.99mil|CornerRadius=0mil|HoleSize=0mil|Usage=FLASHONLY|Rotation=48.000|XOffset=0mil|YOffset=0mil|HoleType=Round|Shape=Rectangle|*
%AMROTATEDRECTD102*
4,1,4,0.01302,-0.03560,-0.03677,0.00922,-0.01302,0.03560,0.03677,-0.00922,0.01302,-0.03560,0.0*
%
%ADD102ROTATEDRECTD102*%

G04:AMPARAMS|DCode=103|XSize=122.11mil|YSize=86.68mil|CornerRadius=0mil|HoleSize=0mil|Usage=FLASHONLY|Rotation=163.000|XOffset=0mil|YOffset=0mil|HoleType=Round|Shape=Rectangle|*
%AMROTATEDRECTD103*
4,1,4,0.07106,0.02360,0.04572,-0.05930,-0.07106,-0.02360,-0.04572,0.05930,0.07106,0.02360,0.0*
%
%ADD103ROTATEDRECTD103*%

G04:AMPARAMS|DCode=104|XSize=35.5mil|YSize=66.99mil|CornerRadius=0mil|HoleSize=0mil|Usage=FLASHONLY|Rotation=73.000|XOffset=0mil|YOffset=0mil|HoleType=Round|Shape=Rectangle|*
%AMROTATEDRECTD104*
4,1,4,0.02684,-0.02677,-0.03722,-0.00718,-0.02684,0.02677,0.03722,0.00718,0.02684,-0.02677,0.0*
%
%ADD104ROTATEDRECTD104*%

G04:AMPARAMS|DCode=105|XSize=35.5mil|YSize=66.99mil|CornerRadius=0mil|HoleSize=0mil|Usage=FLASHONLY|Rotation=107.000|XOffset=0mil|YOffset=0mil|HoleType=Round|Shape=Rectangle|*
%AMROTATEDRECTD105*
4,1,4,0.03722,-0.00718,-0.02684,-0.02677,-0.03722,0.00718,0.02684,0.02677,0.03722,-0.00718,0.0*
%
%ADD105ROTATEDRECTD105*%

G04:AMPARAMS|DCode=106|XSize=122.11mil|YSize=86.68mil|CornerRadius=0mil|HoleSize=0mil|Usage=FLASHONLY|Rotation=197.000|XOffset=0mil|YOffset=0mil|HoleType=Round|Shape=Rectangle|*
%AMROTATEDRECTD106*
4,1,4,0.04572,0.05930,0.07106,-0.02360,-0.04572,-0.05930,-0.07106,0.02360,0.04572,0.05930,0.0*
%
%ADD106ROTATEDRECTD106*%

G04:AMPARAMS|DCode=107|XSize=35.5mil|YSize=66.99mil|CornerRadius=0mil|HoleSize=0mil|Usage=FLASHONLY|Rotation=132.000|XOffset=0mil|YOffset=0mil|HoleType=Round|Shape=Rectangle|*
%AMROTATEDRECTD107*
4,1,4,0.03677,0.00922,-0.01302,-0.03560,-0.03677,-0.00922,0.01302,0.03560,0.03677,0.00922,0.0*
%
%ADD107ROTATEDRECTD107*%

G04:AMPARAMS|DCode=108|XSize=122.11mil|YSize=86.68mil|CornerRadius=0mil|HoleSize=0mil|Usage=FLASHONLY|Rotation=222.000|XOffset=0mil|YOffset=0mil|HoleType=Round|Shape=Rectangle|*
%AMROTATEDRECTD108*
4,1,4,0.01637,0.07306,0.07437,0.00865,-0.01637,-0.07306,-0.07437,-0.00865,0.01637,0.07306,0.0*
%
%ADD108ROTATEDRECTD108*%

%ADD109R,0.07920X0.03392*%
%ADD110R,0.05912X0.04534*%
%ADD111R,0.04534X0.04928*%
%ADD112R,0.01345X0.03943*%
%ADD113R,0.03943X0.01345*%
%ADD114R,0.10243X0.10243*%
%ADD115R,0.04337X0.03943*%
%ADD116O,0.01778X0.08274*%
%ADD117R,0.05912X0.05124*%
%ADD118R,0.03392X0.09849*%
%ADD119C,0.13200*%
%ADD120C,0.06699*%
%ADD121C,0.05715*%
%ADD122C,0.12211*%
%ADD123C,0.12998*%
%ADD124R,0.05125X0.05125*%
%ADD125C,0.15400*%
%ADD126C,0.21100*%
%ADD127C,0.18100*%
%ADD128C,0.04800*%
%ADD129C,0.05900*%
%ADD130C,0.06306*%
%ADD131C,0.10900*%
D20*
X448351Y294899D02*
D03*
Y302399D02*
D03*
D21*
X456351Y298599D02*
D03*
D27*
X623219Y336170D02*
D03*
Y332627D02*
D03*
X248013Y246598D02*
D03*
Y250141D02*
D03*
X242763Y246598D02*
D03*
Y250141D02*
D03*
X253262Y246598D02*
D03*
Y250141D02*
D03*
X258511Y246598D02*
D03*
Y250141D02*
D03*
D32*
X493953Y344399D02*
Y348397D01*
Y346398D01*
X499951D01*
Y351396D02*
Y353396D01*
X498951Y354396D01*
X496952D01*
X495952Y353396D01*
Y351396D01*
X496952Y350397D01*
X498951D01*
X499951Y351396D01*
X501951Y356395D02*
X495952D01*
Y359394D01*
X496952Y360394D01*
X498951D01*
X499951Y359394D01*
Y356395D01*
X494953Y372390D02*
X493953Y371390D01*
Y369391D01*
X494953Y368391D01*
X495952D01*
X496952Y369391D01*
Y371390D01*
X497952Y372390D01*
X498951D01*
X499951Y371390D01*
Y369391D01*
X498951Y368391D01*
X499951Y375389D02*
Y377388D01*
X498951Y378388D01*
X496952D01*
X495952Y377388D01*
Y375389D01*
X496952Y374389D01*
X498951D01*
X499951Y375389D01*
Y380387D02*
Y382386D01*
Y381387D01*
X493953D01*
Y380387D01*
Y389384D02*
X499951D01*
Y386385D01*
X498951Y385385D01*
X496952D01*
X495952Y386385D01*
Y389384D01*
X499951Y394383D02*
Y392383D01*
X498951Y391384D01*
X496952D01*
X495952Y392383D01*
Y394383D01*
X496952Y395382D01*
X497952D01*
Y391384D01*
X495952Y397382D02*
X499951D01*
X497952D01*
X496952Y398381D01*
X495952Y399381D01*
Y400381D01*
X160248Y381024D02*
X164246D01*
X162247D01*
Y375026D01*
X167245D02*
X169245D01*
X170245Y376026D01*
Y378025D01*
X169245Y379025D01*
X167245D01*
X166246Y378025D01*
Y376026D01*
X167245Y375026D01*
X172244Y373027D02*
Y379025D01*
X175243D01*
X176243Y378025D01*
Y376026D01*
X175243Y375026D01*
X172244D01*
X188239Y380025D02*
X187239Y381024D01*
X185240D01*
X184240Y380025D01*
Y379025D01*
X185240Y378025D01*
X187239D01*
X188239Y377026D01*
Y376026D01*
X187239Y375026D01*
X185240D01*
X184240Y376026D01*
X191238Y375026D02*
X193237D01*
X194237Y376026D01*
Y378025D01*
X193237Y379025D01*
X191238D01*
X190238Y378025D01*
Y376026D01*
X191238Y375026D01*
X196236D02*
X198235D01*
X197236D01*
Y381024D01*
X196236D01*
X205233D02*
Y375026D01*
X202234D01*
X201235Y376026D01*
Y378025D01*
X202234Y379025D01*
X205233D01*
X210232Y375026D02*
X208232D01*
X207233Y376026D01*
Y378025D01*
X208232Y379025D01*
X210232D01*
X211231Y378025D01*
Y377026D01*
X207233D01*
X213231Y379025D02*
Y375026D01*
Y377026D01*
X214230Y378025D01*
X215230Y379025D01*
X216230D01*
X556453Y348398D02*
Y346398D01*
X557453Y345399D01*
X561451D01*
X562451Y346398D01*
Y348398D01*
X561451Y349397D01*
X557453D01*
X556453Y348398D01*
X558452Y351397D02*
X561451D01*
X562451Y352396D01*
Y355396D01*
X558452D01*
X557453Y358395D02*
X558452D01*
Y357395D01*
Y359394D01*
Y358395D01*
X561451D01*
X562451Y359394D01*
Y362393D02*
Y364393D01*
Y363393D01*
X556453D01*
Y362393D01*
X562451Y367392D02*
Y369391D01*
Y368391D01*
X558452D01*
Y367392D01*
X562451Y372390D02*
X558452D01*
Y375389D01*
X559452Y376389D01*
X562451D01*
Y381387D02*
Y379388D01*
X561451Y378388D01*
X559452D01*
X558452Y379388D01*
Y381387D01*
X559452Y382387D01*
X560452D01*
Y378388D01*
X172744Y297358D02*
X170744D01*
X169745Y296358D01*
Y292360D01*
X170744Y291360D01*
X172744D01*
X173743Y292360D01*
Y296358D01*
X172744Y297358D01*
X175743Y295359D02*
Y292360D01*
X176742Y291360D01*
X179742D01*
Y295359D01*
X182740Y296358D02*
Y295359D01*
X181741D01*
X183740D01*
X182740D01*
Y292360D01*
X183740Y291360D01*
X186739D02*
X188739D01*
X187739D01*
Y297358D01*
X186739D01*
X191738Y291360D02*
X193737D01*
X192737D01*
Y295359D01*
X191738D01*
X196736Y291360D02*
Y295359D01*
X199735D01*
X200735Y294359D01*
Y291360D01*
X205733D02*
X203734D01*
X202734Y292360D01*
Y294359D01*
X203734Y295359D01*
X205733D01*
X206733Y294359D01*
Y293359D01*
X202734D01*
D34*
X271199Y197100D02*
G03*
X265331Y202024I-5000J0D01*
G01*
X211131Y192424D02*
G03*
X207351Y185660I868J-4923D01*
G01*
X207365Y185649D02*
G03*
X221998Y154053I285528J113050D01*
G01*
X222012Y154064D02*
G03*
X248120Y137445I27788J14837D01*
G01*
X248123Y137498D02*
G03*
X374671Y137370I64179J895306D01*
G01*
X494138Y129335D02*
G03*
X375560Y137364I-89279J-438871D01*
G01*
X578946Y112082D02*
G03*
X661773Y154430I17054J68818D01*
G01*
X662305Y155917D02*
G03*
X662238Y441653I-358406J142783D01*
G01*
X661737Y443060D02*
G03*
X581986Y486002I-65737J-26559D01*
G01*
X429099Y308500D02*
G03*
X429836Y305888I4999J1D01*
G01*
X415703Y285110D02*
G03*
X429866Y305911I2396J13590D01*
G01*
X415668Y285124D02*
G03*
X409799Y280200I-869J-4924D01*
G01*
X404799Y240200D02*
G03*
X409799Y245200I0J5000D01*
G01*
X392799Y240200D02*
G03*
X387799Y235200I0J-5000D01*
G01*
X382799Y158500D02*
G03*
X387799Y163500I0J5000D01*
G01*
X271199D02*
G03*
X276199Y158500I5000J0D01*
G01*
X417516Y459294D02*
G03*
X494633Y468209I-12450J445697D01*
G01*
X417516Y459294D02*
G03*
X411452Y442036I300J-9800D01*
G01*
X429216Y424594D02*
G03*
X427437Y428419I-5000J1D01*
G01*
X494146Y129372D02*
X578955Y112119D01*
X494543Y468209D02*
X581999Y486000D01*
X271199Y163500D02*
Y197100D01*
X211099Y192400D02*
X265399Y202000D01*
X409799Y245200D02*
Y280200D01*
X392799Y240200D02*
X404799D01*
X387799Y163500D02*
Y235200D01*
X276199Y158500D02*
X382799D01*
X411416Y441994D02*
X427416Y428394D01*
X429117Y309399D02*
X429216Y424624D01*
X374671Y137370D02*
X375554D01*
X661773Y154430D02*
X662305Y155917D01*
X661737Y443060D02*
X662238Y441653D01*
X494543Y468209D02*
X494633D01*
X429099Y308500D02*
Y309381D01*
X429117Y309399D01*
D39*
X290951Y384543D02*
D03*
X279751Y384843D02*
D03*
X284152Y306243D02*
D03*
X264551Y391843D02*
D03*
X284152Y294743D02*
D03*
X261052Y390143D02*
D03*
X257552Y391843D02*
D03*
X254051Y390143D02*
D03*
X313415Y352043D02*
D03*
X316551Y360154D02*
D03*
D48*
X308400Y355154D02*
D03*
Y360154D02*
D03*
Y365154D02*
D03*
Y370154D02*
D03*
X288715Y355154D02*
D03*
Y360154D02*
D03*
Y365154D02*
D03*
D49*
Y370154D02*
D03*
D50*
X306346Y318251D02*
D03*
D51*
X312055Y321204D02*
D03*
Y319236D02*
D03*
Y317267D02*
D03*
Y315299D02*
D03*
X300637D02*
D03*
Y317267D02*
D03*
Y319236D02*
D03*
D52*
Y321204D02*
D03*
D56*
X176000Y87000D02*
Y515000D01*
X709000D01*
Y87000D02*
Y515000D01*
X176000Y87000D02*
X709000D01*
D59*
X237351Y243251D02*
X367273D01*
Y412543D01*
X237351D02*
X367273D01*
X237351Y243251D02*
Y412543D01*
D90*
X673901Y334600D02*
D03*
Y329482D02*
D03*
X311351Y153399D02*
D03*
Y148281D02*
D03*
X354574Y397976D02*
D03*
Y403094D02*
D03*
X303393Y333015D02*
D03*
Y327897D02*
D03*
X308118Y333015D02*
D03*
Y327897D02*
D03*
X346307Y252307D02*
D03*
Y247188D02*
D03*
X260251Y345225D02*
D03*
Y350343D02*
D03*
X288433Y348763D02*
D03*
Y343645D02*
D03*
X313236Y333015D02*
D03*
Y327897D02*
D03*
X267566Y293645D02*
D03*
Y298763D02*
D03*
X293551Y333015D02*
D03*
Y327897D02*
D03*
X298275Y333015D02*
D03*
Y327897D02*
D03*
X277409Y348567D02*
D03*
Y343448D02*
D03*
X317566Y327897D02*
D03*
Y333015D02*
D03*
D91*
X448233Y287399D02*
D03*
X453351D02*
D03*
X449579Y309399D02*
D03*
X454697D02*
D03*
X308118Y336952D02*
D03*
X313236D02*
D03*
X324653Y263330D02*
D03*
X329771D02*
D03*
X351425Y269236D02*
D03*
X356543D02*
D03*
X330165Y290889D02*
D03*
X335283D02*
D03*
X302606Y346401D02*
D03*
X307724D02*
D03*
X243354Y367661D02*
D03*
X248472D02*
D03*
X248472Y376716D02*
D03*
X243354D02*
D03*
D92*
X619351Y332430D02*
D03*
Y336367D02*
D03*
X596351Y118430D02*
D03*
Y122367D02*
D03*
X606351Y118430D02*
D03*
Y122367D02*
D03*
X644351Y386430D02*
D03*
Y390367D02*
D03*
X277252Y295411D02*
D03*
Y291474D02*
D03*
X350244Y401519D02*
D03*
Y397582D02*
D03*
X344732Y261362D02*
D03*
Y265299D02*
D03*
X248013Y253881D02*
D03*
Y257818D02*
D03*
X242763Y253881D02*
D03*
Y257818D02*
D03*
X288039Y330259D02*
D03*
Y334196D02*
D03*
X269929Y333803D02*
D03*
Y329866D02*
D03*
X325834Y278291D02*
D03*
Y274354D02*
D03*
X319929Y278291D02*
D03*
Y274354D02*
D03*
X335283Y251913D02*
D03*
Y247976D02*
D03*
X329378Y251913D02*
D03*
Y247976D02*
D03*
X341189Y251913D02*
D03*
Y247976D02*
D03*
X358905Y371992D02*
D03*
Y368055D02*
D03*
X362551Y371911D02*
D03*
Y367974D02*
D03*
X253262Y253881D02*
D03*
Y257818D02*
D03*
X258511Y253881D02*
D03*
Y257818D02*
D03*
X276622Y356637D02*
D03*
Y360574D02*
D03*
X311453Y311584D02*
D03*
Y307647D02*
D03*
X307452Y307574D02*
D03*
Y311511D02*
D03*
X280559Y364511D02*
D03*
Y360574D02*
D03*
X296751Y307060D02*
D03*
Y310997D02*
D03*
D93*
X257320Y141399D02*
D03*
X253383D02*
D03*
X249920Y195299D02*
D03*
X245983D02*
D03*
X646383Y372399D02*
D03*
X650320D02*
D03*
D94*
X249320Y142399D02*
D03*
X245383D02*
D03*
X242320Y192599D02*
D03*
X238383D02*
D03*
X646383Y368399D02*
D03*
X650320D02*
D03*
X340007Y262936D02*
D03*
X336070D02*
D03*
X303393Y336952D02*
D03*
X299456D02*
D03*
X287251Y278685D02*
D03*
X283314D02*
D03*
X325834Y268448D02*
D03*
X329771D02*
D03*
X351425Y256244D02*
D03*
X355362D02*
D03*
X351425Y249944D02*
D03*
X355362D02*
D03*
X351425Y262543D02*
D03*
X355362D02*
D03*
X284102Y302700D02*
D03*
X288039D02*
D03*
X284102Y298370D02*
D03*
X288039D02*
D03*
X287645Y321992D02*
D03*
X283708D02*
D03*
X287645Y317661D02*
D03*
X283708D02*
D03*
X336070Y257425D02*
D03*
X340007D02*
D03*
D95*
X238692Y149674D02*
D03*
Y184596D02*
D03*
X260679Y148322D02*
D03*
Y193086D02*
D03*
D96*
X227865Y159753D02*
D03*
Y164674D02*
D03*
Y169596D02*
D03*
Y174517D02*
D03*
X249852Y158401D02*
D03*
Y178086D02*
D03*
Y183007D02*
D03*
Y163322D02*
D03*
Y173165D02*
D03*
Y168243D02*
D03*
D97*
X274973Y151091D02*
D03*
X300051D02*
D03*
D98*
X285051Y140264D02*
D03*
X289973D02*
D03*
D99*
X418937Y165438D02*
D03*
Y185438D02*
D03*
Y190438D02*
D03*
Y170438D02*
D03*
Y180438D02*
D03*
Y175438D02*
D03*
Y215438D02*
D03*
Y220438D02*
D03*
Y195438D02*
D03*
Y210438D02*
D03*
Y225438D02*
D03*
Y230438D02*
D03*
Y200438D02*
D03*
Y205438D02*
D03*
Y235438D02*
D03*
Y240438D02*
D03*
Y245438D02*
D03*
Y250438D02*
D03*
X431337Y165438D02*
D03*
Y170438D02*
D03*
Y175438D02*
D03*
Y180438D02*
D03*
Y200438D02*
D03*
Y205438D02*
D03*
Y185438D02*
D03*
Y195438D02*
D03*
Y190438D02*
D03*
Y210438D02*
D03*
Y220438D02*
D03*
Y225438D02*
D03*
Y215438D02*
D03*
Y245438D02*
D03*
Y250438D02*
D03*
Y230438D02*
D03*
Y240438D02*
D03*
Y235438D02*
D03*
D100*
X600351Y122367D02*
D03*
Y118430D02*
D03*
X610351Y122367D02*
D03*
Y118430D02*
D03*
X644351Y378430D02*
D03*
Y382367D02*
D03*
D101*
X622097Y129610D02*
D03*
X652050Y162876D02*
D03*
D102*
X620795Y144345D02*
D03*
X624088Y148002D02*
D03*
X627380Y151659D02*
D03*
X630674Y155317D02*
D03*
X633967Y158974D02*
D03*
X637259Y162631D02*
D03*
D103*
X658275Y173119D02*
D03*
X668485Y206515D02*
D03*
D104*
X650868Y185923D02*
D03*
X652307Y190629D02*
D03*
X653746Y195336D02*
D03*
X655184Y200042D02*
D03*
D105*
Y397358D02*
D03*
X650868Y411477D02*
D03*
X652307Y406771D02*
D03*
X653746Y402064D02*
D03*
D106*
X658275Y424281D02*
D03*
X668485Y390885D02*
D03*
D107*
X621041Y453069D02*
D03*
X624334Y449412D02*
D03*
X630920Y442097D02*
D03*
X627626Y445755D02*
D03*
X634213Y438440D02*
D03*
X637505Y434783D02*
D03*
D108*
X622343Y467803D02*
D03*
X652296Y434537D02*
D03*
D109*
X327751Y339043D02*
D03*
Y344043D02*
D03*
Y309043D02*
D03*
Y314043D02*
D03*
X361752Y339043D02*
D03*
Y334043D02*
D03*
Y344043D02*
D03*
Y319043D02*
D03*
Y309043D02*
D03*
Y314043D02*
D03*
X327751Y319043D02*
D03*
Y334043D02*
D03*
D110*
X241976Y361559D02*
D03*
Y354078D02*
D03*
X242763Y390692D02*
D03*
Y383212D02*
D03*
D111*
X248128Y299846D02*
D03*
X242271Y299846D02*
D03*
X248128Y286657D02*
D03*
X242271D02*
D03*
X248128Y321106D02*
D03*
X242271Y321106D02*
D03*
X248128Y307917D02*
D03*
X242271D02*
D03*
D112*
X348472Y376519D02*
D03*
X350441D02*
D03*
X352409D02*
D03*
X354378D02*
D03*
X356346D02*
D03*
X358314D02*
D03*
Y392661D02*
D03*
X356346D02*
D03*
X354378D02*
D03*
X352409D02*
D03*
X350441D02*
D03*
X348472D02*
D03*
D113*
X361464Y379669D02*
D03*
Y381637D02*
D03*
Y383606D02*
D03*
Y385574D02*
D03*
Y387543D02*
D03*
Y389511D02*
D03*
X345322D02*
D03*
Y387543D02*
D03*
Y385574D02*
D03*
Y383606D02*
D03*
Y381637D02*
D03*
Y379669D02*
D03*
D114*
X353393Y384590D02*
D03*
D115*
X282724Y334787D02*
D03*
X275441D02*
D03*
Y328685D02*
D03*
X282724D02*
D03*
D116*
X252803Y360181D02*
D03*
X255362D02*
D03*
X257921D02*
D03*
X260480D02*
D03*
X263039D02*
D03*
X265598D02*
D03*
X268157D02*
D03*
X252803Y383015D02*
D03*
X255362D02*
D03*
X257921D02*
D03*
X260480D02*
D03*
X263039D02*
D03*
X265598D02*
D03*
X268157D02*
D03*
D117*
X293551Y286165D02*
D03*
X302999D02*
D03*
Y278685D02*
D03*
X293551D02*
D03*
D118*
X310244Y265889D02*
D03*
Y250535D02*
D03*
X305244Y265889D02*
D03*
Y250535D02*
D03*
X300244Y265889D02*
D03*
Y250535D02*
D03*
X295244Y265889D02*
D03*
Y250535D02*
D03*
X290244D02*
D03*
Y265889D02*
D03*
D119*
X417951Y449599D02*
D03*
X219299Y184500D02*
D03*
X579499Y298700D02*
D03*
X669999Y220000D02*
D03*
X396399Y229800D02*
D03*
D120*
X445851Y440548D02*
D03*
X465537D02*
D03*
X455694D02*
D03*
X488219D02*
D03*
X507905D02*
D03*
X498062D02*
D03*
X540988Y461007D02*
D03*
X560674D02*
D03*
X550831D02*
D03*
X582738Y461019D02*
D03*
X602424D02*
D03*
X592581D02*
D03*
D121*
X616715Y271993D02*
D03*
Y261993D02*
D03*
Y281993D02*
D03*
Y291993D02*
D03*
X626715Y276993D02*
D03*
Y286993D02*
D03*
Y256993D02*
D03*
Y266993D02*
D03*
D122*
X636515Y243493D02*
D03*
Y305393D02*
D03*
D123*
X651715Y251993D02*
D03*
Y296993D02*
D03*
D124*
X482674Y288820D02*
D03*
X472774D02*
D03*
X492574D02*
D03*
D125*
X637687Y342843D02*
D03*
D126*
X651487Y322393D02*
D03*
D127*
Y346793D02*
D03*
D128*
X314633Y397614D02*
D03*
X249633D02*
D03*
X254633D02*
D03*
X259633D02*
D03*
X264633D02*
D03*
X269633D02*
D03*
X274633D02*
D03*
X279633D02*
D03*
X284633D02*
D03*
X289633D02*
D03*
X294633D02*
D03*
X299633D02*
D03*
X304633D02*
D03*
X309633D02*
D03*
X329633D02*
D03*
X324633D02*
D03*
X319633D02*
D03*
X334633D02*
D03*
D129*
X251818Y335771D02*
D03*
X241818D02*
D03*
X251818Y345771D02*
D03*
X241818D02*
D03*
D130*
X272685Y269629D02*
D03*
X262685D02*
D03*
D131*
X249062Y270811D02*
D03*
M02*
