G04 Layer_Physical_Order=1*
G04 Layer_Color=255*
%FSLAX25Y25*%
%MOIN*%
G70*
G01*
G75*
%ADD10R,0.03543X0.02559*%
%ADD11R,0.02559X0.03543*%
%ADD12R,0.02559X0.02165*%
%ADD13R,0.02362X0.01969*%
%ADD14R,0.02165X0.02559*%
%ADD15R,0.11811X0.08268*%
%ADD16R,0.06299X0.03150*%
%ADD17R,0.08268X0.11811*%
%ADD18R,0.03150X0.06299*%
%ADD19R,0.05900X0.02800*%
%ADD20R,0.03600X0.03600*%
%ADD21R,0.05000X0.03600*%
%ADD22R,0.01969X0.02362*%
G04:AMPARAMS|DCode=23|XSize=118.11mil|YSize=82.68mil|CornerRadius=0mil|HoleSize=0mil|Usage=FLASHONLY|Rotation=138.000|XOffset=0mil|YOffset=0mil|HoleType=Round|Shape=Rectangle|*
%AMROTATEDRECTD23*
4,1,4,0.07155,-0.00879,0.01623,-0.07024,-0.07155,0.00879,-0.01623,0.07024,0.07155,-0.00879,0.0*
%
%ADD23ROTATEDRECTD23*%

G04:AMPARAMS|DCode=24|XSize=31.5mil|YSize=62.99mil|CornerRadius=0mil|HoleSize=0mil|Usage=FLASHONLY|Rotation=48.000|XOffset=0mil|YOffset=0mil|HoleType=Round|Shape=Rectangle|*
%AMROTATEDRECTD24*
4,1,4,0.01287,-0.03278,-0.03394,0.00937,-0.01287,0.03278,0.03394,-0.00937,0.01287,-0.03278,0.0*
%
%ADD24ROTATEDRECTD24*%

G04:AMPARAMS|DCode=25|XSize=118.11mil|YSize=82.68mil|CornerRadius=0mil|HoleSize=0mil|Usage=FLASHONLY|Rotation=163.000|XOffset=0mil|YOffset=0mil|HoleType=Round|Shape=Rectangle|*
%AMROTATEDRECTD25*
4,1,4,0.06856,0.02227,0.04439,-0.05680,-0.06856,-0.02227,-0.04439,0.05680,0.06856,0.02227,0.0*
%
%ADD25ROTATEDRECTD25*%

G04:AMPARAMS|DCode=26|XSize=31.5mil|YSize=62.99mil|CornerRadius=0mil|HoleSize=0mil|Usage=FLASHONLY|Rotation=73.000|XOffset=0mil|YOffset=0mil|HoleType=Round|Shape=Rectangle|*
%AMROTATEDRECTD26*
4,1,4,0.02551,-0.02427,-0.03472,-0.00585,-0.02551,0.02427,0.03472,0.00585,0.02551,-0.02427,0.0*
%
%ADD26ROTATEDRECTD26*%

%ADD27R,0.02362X0.01969*%
G04:AMPARAMS|DCode=28|XSize=31.5mil|YSize=62.99mil|CornerRadius=0mil|HoleSize=0mil|Usage=FLASHONLY|Rotation=107.000|XOffset=0mil|YOffset=0mil|HoleType=Round|Shape=Rectangle|*
%AMROTATEDRECTD28*
4,1,4,0.03472,-0.00585,-0.02551,-0.02427,-0.03472,0.00585,0.02551,0.02427,0.03472,-0.00585,0.0*
%
%ADD28ROTATEDRECTD28*%

G04:AMPARAMS|DCode=29|XSize=118.11mil|YSize=82.68mil|CornerRadius=0mil|HoleSize=0mil|Usage=FLASHONLY|Rotation=197.000|XOffset=0mil|YOffset=0mil|HoleType=Round|Shape=Rectangle|*
%AMROTATEDRECTD29*
4,1,4,0.04439,0.05680,0.06856,-0.02227,-0.04439,-0.05680,-0.06856,0.02227,0.04439,0.05680,0.0*
%
%ADD29ROTATEDRECTD29*%

G04:AMPARAMS|DCode=30|XSize=31.5mil|YSize=62.99mil|CornerRadius=0mil|HoleSize=0mil|Usage=FLASHONLY|Rotation=132.000|XOffset=0mil|YOffset=0mil|HoleType=Round|Shape=Rectangle|*
%AMROTATEDRECTD30*
4,1,4,0.03394,0.00937,-0.01287,-0.03278,-0.03394,-0.00937,0.01287,0.03278,0.03394,0.00937,0.0*
%
%ADD30ROTATEDRECTD30*%

G04:AMPARAMS|DCode=31|XSize=118.11mil|YSize=82.68mil|CornerRadius=0mil|HoleSize=0mil|Usage=FLASHONLY|Rotation=222.000|XOffset=0mil|YOffset=0mil|HoleType=Round|Shape=Rectangle|*
%AMROTATEDRECTD31*
4,1,4,0.01623,0.07024,0.07155,0.00879,-0.01623,-0.07024,-0.07155,-0.00879,0.01623,0.07024,0.0*
%
%ADD31ROTATEDRECTD31*%

%ADD32C,0.01000*%
%ADD33C,0.01600*%
%ADD34C,0.00600*%
%ADD35C,0.01500*%
%ADD36C,0.03000*%
%ADD37C,0.01200*%
%ADD38R,0.07520X0.02992*%
%ADD39C,0.02000*%
%ADD40R,0.05512X0.04134*%
%ADD41R,0.04134X0.04528*%
%ADD42R,0.00945X0.03543*%
%ADD43R,0.03543X0.00945*%
%ADD44R,0.09843X0.09843*%
%ADD45R,0.03937X0.03543*%
%ADD46O,0.01378X0.07874*%
%ADD47R,0.05512X0.04724*%
%ADD48O,0.09449X0.03150*%
%ADD49R,0.09449X0.03150*%
%ADD50R,0.06890X0.05709*%
%ADD51R,0.02953X0.01181*%
G04:AMPARAMS|DCode=52|XSize=11.81mil|YSize=29.53mil|CornerRadius=5.91mil|HoleSize=0mil|Usage=FLASHONLY|Rotation=270.000|XOffset=0mil|YOffset=0mil|HoleType=Round|Shape=RoundedRectangle|*
%AMROUNDEDRECTD52*
21,1,0.01181,0.01772,0,0,270.0*
21,1,0.00000,0.02953,0,0,270.0*
1,1,0.01181,-0.00886,0.00000*
1,1,0.01181,-0.00886,0.00000*
1,1,0.01181,0.00886,0.00000*
1,1,0.01181,0.00886,0.00000*
%
%ADD52ROUNDEDRECTD52*%
%ADD53R,0.02992X0.09449*%
%ADD54C,0.00984*%
%ADD55C,0.00787*%
%ADD56C,0.00800*%
%ADD57C,0.02000*%
%ADD58C,0.01575*%
%ADD59C,0.00500*%
%ADD60C,0.12800*%
%ADD61C,0.06299*%
%ADD62C,0.05315*%
%ADD63C,0.11811*%
%ADD64C,0.12598*%
%ADD65R,0.04725X0.04725*%
%ADD66C,0.15000*%
%ADD67C,0.20700*%
%ADD68C,0.17700*%
%ADD69C,0.02400*%
%ADD70C,0.02500*%
%ADD71C,0.04400*%
%ADD72C,0.05500*%
%ADD73C,0.05906*%
%ADD74C,0.10500*%
%ADD75C,0.02200*%
G36*
X600993Y486317D02*
X605961Y485783D01*
X610878Y484895D01*
X615719Y483660D01*
X620460Y482082D01*
X625076Y480170D01*
X629544Y477933D01*
X633842Y475384D01*
X637946Y472534D01*
X641836Y469399D01*
X645493Y465994D01*
X648898Y462337D01*
X652033Y458447D01*
X654883Y454342D01*
X657433Y450045D01*
X659669Y445577D01*
X660859Y442705D01*
X660859Y442705D01*
X660859Y442705D01*
X660895Y442688D01*
X661219Y441778D01*
X661373Y441346D01*
X661386Y441314D01*
X661386Y441314D01*
X661768Y440391D01*
X666042Y429080D01*
X669959Y417640D01*
X673514Y406083D01*
X676705Y394421D01*
X679528Y382663D01*
X681980Y370823D01*
X684059Y358912D01*
X685762Y346941D01*
X687089Y334922D01*
X688038Y322868D01*
X688607Y310790D01*
X688797Y298700D01*
X688607Y286610D01*
X688038Y274532D01*
X687089Y262478D01*
X685762Y250460D01*
X684059Y238489D01*
X681980Y226578D01*
X679528Y214738D01*
X676705Y202980D01*
X673514Y191317D01*
X669959Y179761D01*
X666042Y168321D01*
X661768Y157010D01*
X661456Y156255D01*
X661455Y156256D01*
X661441Y156226D01*
X661285Y155791D01*
X660931Y154799D01*
X660895Y154783D01*
X660895D01*
X660895Y154783D01*
X659669Y151823D01*
X657433Y147355D01*
X654883Y143058D01*
X652033Y138954D01*
X648898Y135063D01*
X645493Y131406D01*
X641836Y128002D01*
X637946Y124866D01*
X633842Y122017D01*
X629544Y119467D01*
X625076Y117231D01*
X620460Y115319D01*
X615719Y113741D01*
X610878Y112505D01*
X605961Y111618D01*
X600993Y111084D01*
X596000Y110905D01*
X591006Y111084D01*
X586038Y111618D01*
X581121Y112505D01*
X579181Y113000D01*
X579138Y113018D01*
X494329Y130271D01*
X494193Y130271D01*
X482794Y132453D01*
X469906Y134532D01*
X456963Y136236D01*
X443975Y137563D01*
X430955Y138512D01*
X417913Y139081D01*
X410913Y139183D01*
X410681Y139626D01*
X410866Y139902D01*
X411044Y140800D01*
X410866Y141697D01*
X410357Y142458D01*
X409617Y142953D01*
Y145509D01*
X410117Y145865D01*
X410650Y145759D01*
X411470Y145922D01*
X411566Y145596D01*
X411585Y145501D01*
X412093Y144740D01*
X412854Y144232D01*
X413751Y144054D01*
X414649Y144232D01*
X415051Y144501D01*
X415493Y143841D01*
X416254Y143332D01*
X417151Y143154D01*
X418049Y143332D01*
X418809Y143841D01*
X418935Y144029D01*
X419571Y144081D01*
X420780Y142872D01*
X420606Y141999D01*
X420785Y141101D01*
X421293Y140340D01*
X422054Y139832D01*
X422951Y139654D01*
X423849Y139832D01*
X424609Y140340D01*
X425118Y141101D01*
X425296Y141999D01*
X425118Y142896D01*
X424609Y143657D01*
X423849Y144165D01*
X422951Y144344D01*
X422078Y144170D01*
X420869Y145379D01*
Y151819D01*
X421831Y152781D01*
X425861D01*
X426212Y152851D01*
X426510Y153050D01*
X428478Y155017D01*
X429351Y154844D01*
X430249Y155022D01*
X431009Y155531D01*
X431518Y156291D01*
X431696Y157189D01*
X431518Y158086D01*
X431009Y158847D01*
X430249Y159355D01*
X429351Y159534D01*
X428454Y159355D01*
X427693Y158847D01*
X427147Y158930D01*
X426497Y159365D01*
X425599Y159544D01*
X424702Y159365D01*
X423941Y158857D01*
X423842Y158709D01*
X423342D01*
X423309Y158757D01*
X422549Y159265D01*
X421651Y159444D01*
X420754Y159265D01*
X419993Y158757D01*
X419634Y158220D01*
X414951D01*
X414951Y158220D01*
X414522Y158135D01*
X414158Y157892D01*
X414158Y157892D01*
X412958Y156692D01*
X412715Y156328D01*
X412630Y155899D01*
X412630Y155899D01*
Y150150D01*
X412130Y149871D01*
X412103Y149888D01*
X412078Y149937D01*
Y164946D01*
X412578Y165154D01*
X413303Y164428D01*
X413303Y164428D01*
X413766Y164119D01*
X414312Y164010D01*
X414312Y164010D01*
X414887D01*
Y162938D01*
X422987D01*
Y167938D01*
Y172938D01*
Y177938D01*
Y182938D01*
Y187579D01*
X422987Y187938D01*
X422887Y188396D01*
Y189938D01*
X418937D01*
X414987D01*
Y188396D01*
X414887Y187938D01*
Y187922D01*
X414387Y187512D01*
X414051Y187579D01*
X413232Y187416D01*
X412537Y186952D01*
X412073Y186257D01*
X411910Y185438D01*
X412073Y184618D01*
X412537Y183924D01*
X412624Y183866D01*
Y171865D01*
X411990D01*
X411990Y171865D01*
X411444Y171756D01*
X410981Y171447D01*
X410981Y171447D01*
X409641Y170107D01*
X409331Y169644D01*
X409317Y169571D01*
X408817Y169620D01*
Y187067D01*
X414487Y192737D01*
X414975Y192535D01*
X414987Y192479D01*
Y190938D01*
X418937D01*
X422887D01*
Y192479D01*
X422987Y192938D01*
X422987Y193296D01*
Y197938D01*
Y202579D01*
X422987Y202938D01*
X422887Y203396D01*
Y204938D01*
X418937D01*
X414987D01*
Y203396D01*
X414887Y202938D01*
X414887Y202579D01*
Y201171D01*
X414702Y201048D01*
X405850Y192196D01*
X405651Y191898D01*
X405582Y191547D01*
Y147353D01*
X404841Y146858D01*
X404333Y146097D01*
X404154Y145200D01*
X404333Y144302D01*
X404841Y143542D01*
X405602Y143033D01*
X406499Y142855D01*
X406835Y142921D01*
X407030Y142481D01*
X407037Y142452D01*
X406533Y141697D01*
X406354Y140800D01*
X406533Y139902D01*
X406676Y139687D01*
X406437Y139248D01*
X404859Y139271D01*
X391806Y139081D01*
X378763Y138512D01*
X375589Y138280D01*
X375554Y138287D01*
X375097D01*
X374605Y138314D01*
X374605Y138314D01*
X374605Y138314D01*
X367866Y137826D01*
X349358Y136869D01*
X330834Y136294D01*
X312302Y136102D01*
X293770Y136294D01*
X292648Y136329D01*
Y140992D01*
X292678Y141022D01*
X308351D01*
X308878Y141127D01*
X309324Y141425D01*
X311120Y143221D01*
X311419Y143668D01*
X311524Y144195D01*
X311524Y144195D01*
Y145901D01*
X314223D01*
Y146125D01*
X315454D01*
X315981Y146230D01*
X316427Y146528D01*
X322310Y152411D01*
X322837Y151885D01*
X323532Y151421D01*
X324351Y151258D01*
X390798D01*
X391617Y151421D01*
X392312Y151885D01*
X395013Y154586D01*
X395477Y155280D01*
X395640Y156100D01*
Y207160D01*
X410865Y222385D01*
X411329Y223079D01*
X411492Y223899D01*
Y226012D01*
X414130Y228650D01*
X414387Y229034D01*
X414887Y228883D01*
X414887Y227938D01*
X414987Y227479D01*
Y225938D01*
X418937D01*
X422887D01*
Y227479D01*
X422987Y227938D01*
X422987Y228296D01*
Y229061D01*
X423501D01*
X423839Y229129D01*
X424251Y229047D01*
X425070Y229209D01*
X425765Y229674D01*
X426229Y230368D01*
X426392Y231188D01*
X426229Y232007D01*
X425774Y232688D01*
X426229Y233368D01*
X426392Y234188D01*
X426229Y235007D01*
X425765Y235702D01*
X425070Y236166D01*
X424251Y236329D01*
X423785Y236236D01*
X423610Y236411D01*
X423164Y236709D01*
X422987Y236744D01*
X422987Y237938D01*
X422887Y238396D01*
Y239616D01*
X423387Y239824D01*
X423932Y239459D01*
X424751Y239297D01*
X425570Y239459D01*
X426265Y239924D01*
X426266Y239926D01*
X426764Y239975D01*
X427094Y239645D01*
X427094Y239645D01*
X427287Y239516D01*
X427287Y237938D01*
X427387Y237479D01*
Y235938D01*
X431337D01*
X435287D01*
Y237479D01*
X435387Y237938D01*
X435387Y238296D01*
Y242938D01*
Y247579D01*
X435387Y247938D01*
X435287Y248396D01*
Y249938D01*
X431337D01*
X427387D01*
Y248396D01*
X427287Y247938D01*
X427287Y247579D01*
Y246360D01*
X427094Y246231D01*
X427094Y246231D01*
X426764Y245901D01*
X426266Y245950D01*
X426265Y245952D01*
X425570Y246416D01*
X424751Y246579D01*
X423932Y246416D01*
X423387Y246052D01*
X422887Y246259D01*
X422887Y247838D01*
X422887Y248338D01*
Y249938D01*
X418937D01*
Y250438D01*
X418437D01*
Y252838D01*
X415257D01*
X414987Y252838D01*
X414757Y253242D01*
Y262277D01*
X417238Y264758D01*
X418522D01*
X418734Y264258D01*
X418373Y263718D01*
X418210Y262899D01*
X418373Y262079D01*
X418837Y261385D01*
X419532Y260921D01*
X420351Y260758D01*
X420358Y260759D01*
X420611Y260506D01*
X420725Y260322D01*
X420873Y259579D01*
X421337Y258885D01*
X422032Y258421D01*
X422851Y258258D01*
X423670Y258421D01*
X424365Y258885D01*
X424423Y258971D01*
X431351D01*
X431351Y258971D01*
X431897Y259080D01*
X432361Y259389D01*
X439481Y266510D01*
X439982Y266303D01*
Y192200D01*
X439779Y192139D01*
X439481Y192076D01*
X438749Y192565D01*
X438384Y192638D01*
X438278Y193169D01*
X438757Y193489D01*
X439266Y194249D01*
X439444Y195147D01*
X439266Y196044D01*
X438757Y196805D01*
X437997Y197313D01*
X437099Y197492D01*
X436202Y197313D01*
X435887Y197103D01*
X435387Y197370D01*
Y197962D01*
X435887Y198350D01*
X436351Y198258D01*
X437171Y198421D01*
X437865Y198885D01*
X438329Y199579D01*
X438492Y200399D01*
X438329Y201218D01*
X437865Y201913D01*
X437171Y202377D01*
X436351Y202540D01*
X436182Y202506D01*
X435714Y202887D01*
Y202910D01*
X436182Y203291D01*
X436351Y203258D01*
X437171Y203421D01*
X437865Y203885D01*
X438329Y204579D01*
X438492Y205399D01*
X438329Y206218D01*
X437865Y206913D01*
X437171Y207377D01*
X436351Y207540D01*
X435887Y207448D01*
X435387Y207836D01*
Y207938D01*
X435287Y208396D01*
Y209938D01*
X431337D01*
X427387D01*
Y208396D01*
X427287Y207938D01*
X427287Y207579D01*
Y202938D01*
Y197938D01*
Y192938D01*
Y187495D01*
X426846Y187259D01*
X426671Y187377D01*
X425851Y187540D01*
X425032Y187377D01*
X424337Y186913D01*
X423873Y186218D01*
X423710Y185399D01*
X423873Y184579D01*
X424337Y183885D01*
X424843Y183547D01*
X424872Y183419D01*
X424838Y182988D01*
X424193Y182557D01*
X423685Y181796D01*
X423506Y180899D01*
X423685Y180001D01*
X424193Y179241D01*
X424954Y178732D01*
X425851Y178554D01*
X426653Y178713D01*
X427087Y178435D01*
X427112Y178413D01*
X427133Y178126D01*
X426738Y177812D01*
X426199Y177919D01*
X425302Y177740D01*
X424541Y177232D01*
X424033Y176471D01*
X423854Y175574D01*
X424033Y174676D01*
X424541Y173916D01*
X425302Y173407D01*
X426199Y173229D01*
X426787Y173346D01*
X427287Y172979D01*
Y172938D01*
X427387Y172479D01*
Y170938D01*
X431337D01*
X435287D01*
Y172479D01*
X435387Y172938D01*
X435387Y173296D01*
Y177938D01*
Y182938D01*
Y189010D01*
X436013D01*
X436193Y188741D01*
X436954Y188232D01*
X437851Y188054D01*
X438749Y188232D01*
X439481Y188722D01*
X439779Y188659D01*
X439982Y188597D01*
Y172600D01*
X439971D01*
X440085Y171443D01*
X440422Y170331D01*
X440970Y169306D01*
X441707Y168408D01*
X442605Y167670D01*
X443630Y167122D01*
X444742Y166785D01*
X445899Y166671D01*
Y166682D01*
X517599D01*
X517607Y166684D01*
X518656Y166545D01*
X519642Y166137D01*
X520488Y165488D01*
X521137Y164642D01*
X521545Y163657D01*
X521683Y162608D01*
X521681Y162600D01*
Y150600D01*
X521671D01*
X521784Y149443D01*
X522122Y148331D01*
X522670Y147306D01*
X523407Y146408D01*
X524305Y145670D01*
X525330Y145122D01*
X526442Y144785D01*
X527599Y144671D01*
Y144682D01*
X573923D01*
X574399Y144682D01*
X574399Y144682D01*
X574399Y144682D01*
X574879Y144622D01*
X574881Y144622D01*
X574891Y144621D01*
X575380Y144604D01*
X576555Y144449D01*
X581100Y144251D01*
X585645Y144449D01*
X590155Y145043D01*
X594597Y146028D01*
X598936Y147396D01*
X603139Y149137D01*
X607174Y151238D01*
X611011Y153682D01*
X614621Y156451D01*
X617975Y159525D01*
X621048Y162879D01*
X623818Y166489D01*
X625394Y168963D01*
X625886Y168899D01*
X625924Y168863D01*
Y161990D01*
X621342Y157408D01*
X621342Y157408D01*
X606760Y142826D01*
X438199D01*
X438139Y142899D01*
X437976Y143718D01*
X437512Y144413D01*
X436818Y144877D01*
X435998Y145040D01*
X435179Y144877D01*
X434484Y144413D01*
X434020Y143718D01*
X433857Y142899D01*
X434020Y142079D01*
X434484Y141385D01*
X435179Y140921D01*
X435998Y140758D01*
X436100Y140778D01*
X436489Y140389D01*
X436952Y140080D01*
X437498Y139971D01*
X437498Y139971D01*
X607351D01*
X607351Y139971D01*
X607897Y140080D01*
X608360Y140389D01*
X609415Y141444D01*
X609894Y141299D01*
X609933Y141102D01*
X610441Y140341D01*
X611202Y139833D01*
X612099Y139655D01*
X612973Y139829D01*
X613727Y139075D01*
X613727Y138575D01*
X612741Y137588D01*
X612542Y137596D01*
X612255Y137679D01*
X612207Y137708D01*
X612199Y137750D01*
X612000Y138048D01*
X611000Y139048D01*
X610702Y139246D01*
X610351Y139316D01*
X600351D01*
X600000Y139246D01*
X599702Y139048D01*
X598055Y137400D01*
X597351Y137540D01*
X596532Y137377D01*
X595837Y136913D01*
X595373Y136218D01*
X595210Y135399D01*
X595373Y134579D01*
X595837Y133885D01*
X596532Y133421D01*
X597351Y133258D01*
X598171Y133421D01*
X598865Y133885D01*
X599329Y134579D01*
X599492Y135399D01*
X599352Y136102D01*
X600731Y137481D01*
X606993D01*
X607326Y136981D01*
X607210Y136399D01*
X607350Y135695D01*
X599702Y128048D01*
X599503Y127750D01*
X599434Y127399D01*
Y124648D01*
X598267D01*
Y124550D01*
X595466D01*
X592269Y127747D01*
Y133486D01*
X592865Y133885D01*
X593329Y134579D01*
X593492Y135399D01*
X593329Y136218D01*
X592865Y136913D01*
X592170Y137377D01*
X591351Y137540D01*
X590532Y137377D01*
X589837Y136913D01*
X589373Y136218D01*
X589210Y135399D01*
X589373Y134579D01*
X589837Y133885D01*
X590434Y133486D01*
Y127367D01*
X590503Y127016D01*
X590702Y126718D01*
X593972Y123449D01*
Y120185D01*
Y116247D01*
X598267D01*
Y116149D01*
X602303D01*
X603702Y114750D01*
X604000Y114551D01*
X604351Y114481D01*
X612351D01*
X612702Y114551D01*
X613000Y114750D01*
X615763Y117513D01*
X623383D01*
X623734Y117582D01*
X624031Y117781D01*
X645000Y138750D01*
X645199Y139048D01*
X645269Y139399D01*
Y155539D01*
X645199Y155890D01*
X645000Y156188D01*
X640883Y160304D01*
X642207Y161775D01*
X635891Y167462D01*
X632639Y163850D01*
X632311Y163486D01*
X631984Y163122D01*
X629019Y159829D01*
X629019Y159829D01*
X626060Y156544D01*
X625726Y156172D01*
X625434Y155848D01*
X624934Y155835D01*
X624370Y156399D01*
X628361Y160389D01*
X628361Y160389D01*
X628670Y160853D01*
X628779Y161399D01*
X628779Y161399D01*
Y168307D01*
X638361Y177889D01*
X638361Y177889D01*
X638670Y178352D01*
X638779Y178899D01*
X638779Y178899D01*
Y191807D01*
X642942Y195971D01*
X647760D01*
X648342Y195389D01*
X648342Y195389D01*
X648805Y195080D01*
X648834Y195074D01*
X649091Y194645D01*
X648594Y193020D01*
X646862D01*
X646496Y193265D01*
X645598Y193444D01*
X644701Y193265D01*
X643940Y192757D01*
X643432Y191996D01*
X643253Y191099D01*
X643432Y190201D01*
X643940Y189441D01*
X644313Y189191D01*
Y188590D01*
X644115Y188457D01*
X643606Y187696D01*
X643428Y186799D01*
X643606Y185901D01*
X644115Y185141D01*
X644875Y184632D01*
X645773Y184454D01*
X646229Y184544D01*
X654150Y182123D01*
X655714Y187239D01*
X656892Y191092D01*
X657027Y191536D01*
X657163Y191979D01*
X658592Y196652D01*
X658496Y196681D01*
X659006Y198351D01*
X655038Y199564D01*
X651070Y200777D01*
X650560Y199108D01*
X650464Y199137D01*
X650279Y198530D01*
X649779Y198605D01*
Y204383D01*
X649670Y204929D01*
X649361Y205393D01*
X649361Y205393D01*
X648879Y205874D01*
Y207923D01*
X650714Y209758D01*
X650761Y209789D01*
X650942Y209971D01*
X657351D01*
X657351Y209971D01*
X657897Y210080D01*
X658360Y210389D01*
X660860Y212889D01*
X660860Y212889D01*
X661170Y213352D01*
X661279Y213899D01*
Y239307D01*
X669861Y247889D01*
X669861Y247889D01*
X670170Y248352D01*
X670279Y248899D01*
X670279Y248899D01*
Y309807D01*
X681360Y320889D01*
X681360Y320889D01*
X681670Y321353D01*
X681779Y321899D01*
X681779Y321899D01*
Y353827D01*
X681865Y353885D01*
X682329Y354579D01*
X682492Y355399D01*
X682329Y356218D01*
X681865Y356913D01*
X681171Y357377D01*
X680351Y357540D01*
X679532Y357377D01*
X678837Y356913D01*
X678373Y356218D01*
X678210Y355399D01*
X678373Y354579D01*
X678837Y353885D01*
X678924Y353827D01*
Y322490D01*
X667842Y311408D01*
X667532Y310945D01*
X667424Y310399D01*
X667424Y310399D01*
Y249490D01*
X658842Y240908D01*
X658532Y240445D01*
X658424Y239899D01*
X658424Y239899D01*
Y214490D01*
X656760Y212826D01*
X650351D01*
X650351Y212826D01*
X649805Y212718D01*
X649342Y212408D01*
X649342Y212408D01*
X648773Y211839D01*
X648726Y211808D01*
X646442Y209524D01*
X646132Y209060D01*
X646024Y208514D01*
X646024Y208514D01*
Y205283D01*
X646024Y205283D01*
X646132Y204737D01*
X646442Y204274D01*
X646924Y203792D01*
Y198826D01*
X642351D01*
X642351Y198826D01*
X641805Y198717D01*
X641342Y198408D01*
X641342Y198408D01*
X636342Y193408D01*
X636032Y192945D01*
X635924Y192399D01*
X635924Y192399D01*
Y179490D01*
X626899Y170465D01*
X626491Y170764D01*
X628363Y174361D01*
X630104Y178564D01*
X631472Y182903D01*
X632457Y187345D01*
X633051Y191855D01*
X633249Y196400D01*
X633051Y200945D01*
X632635Y204102D01*
X632628Y204101D01*
X632585Y204319D01*
X632477Y204480D01*
X632177Y205468D01*
X631629Y206493D01*
X630892Y207392D01*
X629994Y208129D01*
X628968Y208677D01*
X627856Y209014D01*
X627184Y209081D01*
X626700Y209128D01*
X626699Y209128D01*
X626203Y209117D01*
X612999D01*
X612991Y209116D01*
X611942Y209254D01*
X610957Y209662D01*
X610111Y210311D01*
X609461Y211157D01*
X609053Y212142D01*
X608915Y213192D01*
X608917Y213200D01*
Y247004D01*
X608928Y247499D01*
X608928Y247501D01*
X608881Y247980D01*
X608814Y248657D01*
X608476Y249770D01*
X607929Y250795D01*
X607191Y251693D01*
X606367Y252369D01*
X606365Y252373D01*
X600634Y258104D01*
Y287824D01*
X600564Y288175D01*
X600365Y288473D01*
X600067Y288671D01*
X599716Y288741D01*
X572445D01*
X572414Y289057D01*
X572076Y290170D01*
X571529Y291194D01*
X571296Y291478D01*
X571295Y291482D01*
X571142Y291711D01*
X571175Y291740D01*
X570695Y292303D01*
X569802Y293759D01*
X569149Y295337D01*
X568750Y296997D01*
X568616Y298700D01*
X568750Y300402D01*
X569149Y302063D01*
X569802Y303641D01*
X570695Y305097D01*
X571188Y305674D01*
X571154Y305703D01*
X571308Y305934D01*
X571309Y305937D01*
X571529Y306205D01*
X572076Y307230D01*
X572414Y308342D01*
X572440Y308606D01*
X599716D01*
X600067Y308676D01*
X600365Y308875D01*
X600564Y309173D01*
X600634Y309524D01*
Y340144D01*
X605892Y345402D01*
X606225Y345734D01*
X606293Y345770D01*
X606610Y346030D01*
X607192Y346508D01*
X607929Y347406D01*
X608476Y348431D01*
X608814Y349543D01*
X608880Y350215D01*
X608928Y350699D01*
X608928Y350700D01*
X608928D01*
X608917Y350711D01*
Y384300D01*
X608915Y384308D01*
X609053Y385357D01*
X609461Y386342D01*
X610111Y387188D01*
X610957Y387837D01*
X611942Y388246D01*
X612991Y388384D01*
X612999Y388382D01*
X626203D01*
X626699Y388371D01*
X626700Y388371D01*
X627179Y388418D01*
X627856Y388485D01*
X628968Y388823D01*
X629994Y389370D01*
X630892Y390108D01*
X631629Y391006D01*
X632177Y392031D01*
X632478Y393021D01*
X632585Y393182D01*
X632628Y393400D01*
X632635Y393398D01*
X633051Y396555D01*
X633249Y401100D01*
X633051Y405645D01*
X632457Y410156D01*
X631472Y414597D01*
X630104Y418936D01*
X628363Y423139D01*
X626262Y427175D01*
X623818Y431012D01*
X621048Y434621D01*
X617975Y437975D01*
X614621Y441049D01*
X611011Y443818D01*
X607174Y446263D01*
X603139Y448364D01*
X598936Y450105D01*
X594597Y451473D01*
X590601Y452359D01*
X590655Y452859D01*
X592990D01*
X604994Y450496D01*
X618990Y439759D01*
X629409Y426735D01*
X634258Y413519D01*
Y386787D01*
X613685Y366214D01*
X613221Y365519D01*
X613058Y364700D01*
Y336399D01*
Y320300D01*
X613221Y319480D01*
X613685Y318786D01*
X618685Y313786D01*
X619380Y313321D01*
X620199Y313159D01*
X634499D01*
X635319Y313321D01*
X636013Y313786D01*
X640394Y318167D01*
X640885Y318069D01*
X641254Y317178D01*
X642195Y315642D01*
X643366Y314271D01*
X644736Y313101D01*
X646273Y312159D01*
X647938Y311469D01*
X649690Y311049D01*
X651487Y310907D01*
X653284Y311049D01*
X655036Y311469D01*
X656701Y312159D01*
X658238Y313101D01*
X659609Y314271D01*
X660779Y315642D01*
X661721Y317178D01*
X662410Y318844D01*
X662831Y320596D01*
X662876Y321169D01*
X669192D01*
X669660Y321262D01*
X670057Y321528D01*
X674764Y326235D01*
X675030Y326631D01*
X675123Y327100D01*
Y327102D01*
X676773D01*
Y331861D01*
X676772D01*
X676673Y332320D01*
X676673Y332361D01*
Y334100D01*
X673901D01*
X671130D01*
Y332361D01*
X671130Y332320D01*
X671031Y331861D01*
X671030D01*
Y331410D01*
X659128D01*
X659128Y331410D01*
X658667Y331318D01*
X658238Y331685D01*
X656701Y332626D01*
X655036Y333316D01*
X653284Y333737D01*
X651487Y333878D01*
X649690Y333737D01*
X647938Y333316D01*
X646273Y332626D01*
X644736Y331685D01*
X643366Y330514D01*
X642195Y329144D01*
X641254Y327607D01*
X640564Y325942D01*
X640143Y324189D01*
X640121Y323904D01*
X639985Y323814D01*
X633612Y317441D01*
X621086D01*
X617340Y321187D01*
Y330247D01*
X621731D01*
Y330543D01*
X625500D01*
Y334711D01*
X625400D01*
Y335670D01*
X623219D01*
Y336170D01*
X622719D01*
Y338155D01*
X621731D01*
Y338550D01*
X617340D01*
Y342940D01*
X617840Y343092D01*
X617941Y342941D01*
X618702Y342433D01*
X619599Y342255D01*
X620497Y342433D01*
X621257Y342941D01*
X621766Y343702D01*
X621944Y344600D01*
X621799Y345331D01*
X624810Y348015D01*
X624829Y348040D01*
X624855Y348057D01*
X624936Y348182D01*
X625025Y348301D01*
X625033Y348331D01*
X625050Y348357D01*
X625078Y348503D01*
X625115Y348647D01*
X625111Y348678D01*
X625117Y348709D01*
X625021Y358323D01*
X642846Y376149D01*
X646435D01*
Y380086D01*
Y382274D01*
X646934Y382373D01*
X647434Y382041D01*
Y375399D01*
X647503Y375048D01*
X647546Y374983D01*
X647279Y374483D01*
X644101D01*
Y373316D01*
X643351D01*
X643000Y373247D01*
X642702Y373048D01*
X642250Y372596D01*
X642051Y372298D01*
X641982Y371947D01*
Y367080D01*
X632173Y357271D01*
X631299Y357445D01*
X630402Y357266D01*
X629641Y356758D01*
X629133Y355997D01*
X628954Y355100D01*
X629133Y354202D01*
X629641Y353442D01*
X630402Y352933D01*
X631299Y352755D01*
X632197Y352933D01*
X632957Y353442D01*
X633466Y354202D01*
X633644Y355100D01*
X633470Y355973D01*
X643548Y366051D01*
X643700Y366278D01*
X643988Y366267D01*
X644200Y366195D01*
Y366019D01*
X652502D01*
Y367511D01*
X652702Y367551D01*
X653000Y367750D01*
X655000Y369750D01*
X655199Y370048D01*
X655269Y370399D01*
Y374486D01*
X655865Y374885D01*
X656329Y375579D01*
X656492Y376399D01*
X656329Y377218D01*
X655865Y377913D01*
X655170Y378377D01*
X654351Y378540D01*
X653532Y378377D01*
X652837Y377913D01*
X652373Y377218D01*
X652210Y376399D01*
X652373Y375579D01*
X652837Y374885D01*
X652550Y374483D01*
X650565D01*
X649269Y375779D01*
Y387486D01*
X649865Y387885D01*
X650329Y388579D01*
X650492Y389399D01*
X650329Y390218D01*
X649865Y390913D01*
X649170Y391377D01*
X648351Y391540D01*
X647532Y391377D01*
X647231Y391176D01*
X646731Y391443D01*
Y392550D01*
X645344D01*
X645300Y393050D01*
X646731Y394481D01*
X650351D01*
X650702Y394551D01*
X651000Y394750D01*
X651069Y394819D01*
X651554Y394698D01*
X651903Y393558D01*
X660030Y396043D01*
X659501Y397773D01*
X659978Y397926D01*
X660012Y397944D01*
X660050Y397952D01*
X660168Y398030D01*
X660292Y398099D01*
X660316Y398129D01*
X660348Y398151D01*
X664848Y402651D01*
X665047Y402949D01*
X665117Y403300D01*
Y412547D01*
X665857Y413041D01*
X666366Y413802D01*
X666544Y414700D01*
X666366Y415597D01*
X665857Y416358D01*
X665097Y416866D01*
X664199Y417045D01*
X664028Y417216D01*
X664044Y417300D01*
X663866Y418197D01*
X663357Y418958D01*
X662597Y419466D01*
X662319Y419522D01*
X662293Y420037D01*
X666505Y421324D01*
X663444Y431335D01*
X654127Y428486D01*
X653881Y428921D01*
X661004Y435335D01*
X654000Y443115D01*
X643587Y433739D01*
X650356Y426222D01*
X653106Y417228D01*
X659613Y419217D01*
X659930Y418791D01*
X659533Y418197D01*
X659354Y417300D01*
X659533Y416402D01*
X660041Y415641D01*
X660781Y415147D01*
Y411873D01*
X660578Y411803D01*
X660282Y411790D01*
X659865Y412413D01*
X659170Y412877D01*
X658351Y413040D01*
X657532Y412877D01*
X656837Y412413D01*
X656373Y411718D01*
X656213Y410912D01*
X656190Y410882D01*
X655896Y410629D01*
X655418Y410785D01*
X654982Y412212D01*
X651014Y410999D01*
X647046Y409786D01*
X647556Y408116D01*
X647461Y408087D01*
X648889Y403414D01*
X649025Y402971D01*
X649161Y402527D01*
X649400Y401745D01*
X649055Y401400D01*
X648351Y401540D01*
X647532Y401377D01*
X646837Y400913D01*
X646373Y400218D01*
X646210Y399399D01*
X646373Y398579D01*
X646837Y397885D01*
X647532Y397421D01*
X648351Y397258D01*
X649170Y397421D01*
X649865Y397885D01*
X649997Y398082D01*
X650544Y398001D01*
X650805Y397150D01*
X649971Y396316D01*
X646351D01*
X646000Y396247D01*
X645702Y396048D01*
X643702Y394048D01*
X643503Y393750D01*
X643434Y393399D01*
Y392550D01*
X641972D01*
Y388184D01*
Y384247D01*
X642267D01*
Y380086D01*
Y378165D01*
X641907Y377805D01*
X641713Y377842D01*
X641417Y378022D01*
Y433420D01*
X642548Y434551D01*
X642747Y434848D01*
X642817Y435200D01*
Y448500D01*
X642747Y448851D01*
X642548Y449149D01*
X638148Y453549D01*
X637850Y453748D01*
X637499Y453817D01*
X634799D01*
X634448Y453748D01*
X634150Y453549D01*
X632426Y451825D01*
X632038Y452143D01*
X632329Y452579D01*
X632492Y453399D01*
X632329Y454218D01*
X631865Y454913D01*
X631171Y455377D01*
X630351Y455540D01*
X629783Y455427D01*
X629379Y455831D01*
X629492Y456399D01*
X629329Y457218D01*
X628865Y457913D01*
X628170Y458377D01*
X627351Y458540D01*
X626532Y458377D01*
X625837Y457913D01*
X625439Y457316D01*
X624371D01*
X624020Y457246D01*
X623722Y457048D01*
X623692Y457017D01*
X623192Y457030D01*
X622409Y457900D01*
X616093Y452213D01*
X619673Y448237D01*
X622679Y444899D01*
X622679Y444899D01*
X625637Y441613D01*
X625972Y441241D01*
X629552Y437265D01*
X629626Y437332D01*
X630794Y436035D01*
X633878Y438811D01*
X636962Y441588D01*
X635793Y442885D01*
X635868Y442952D01*
X634885Y444044D01*
X636808Y445967D01*
X636808Y445967D01*
X637118Y446430D01*
X637227Y446977D01*
Y447428D01*
X637313Y447486D01*
X637777Y448180D01*
X637940Y449000D01*
X637777Y449819D01*
X637313Y450514D01*
X636619Y450978D01*
X635799Y451141D01*
X634980Y450978D01*
X634686Y450781D01*
X634367Y451170D01*
X635179Y451982D01*
X637119D01*
X640981Y448120D01*
Y437971D01*
X640515Y437791D01*
X638873Y439614D01*
X638799Y439547D01*
X637631Y440845D01*
X634547Y438068D01*
X631463Y435292D01*
X632632Y433994D01*
X632557Y433927D01*
X636137Y429951D01*
X637925Y431561D01*
X638381Y431357D01*
Y416142D01*
X637889Y416055D01*
X633309Y428537D01*
X633130Y428831D01*
X632971Y429137D01*
X622171Y442637D01*
X621973Y442804D01*
X621802Y442999D01*
X607202Y454199D01*
X607137Y454231D01*
X607085Y454282D01*
X606764Y454415D01*
X606453Y454568D01*
X606380Y454573D01*
X606313Y454600D01*
X594914Y456844D01*
X594826Y457058D01*
X594807Y457370D01*
X595612Y457988D01*
X596293Y458876D01*
X596721Y459909D01*
X596867Y461019D01*
X596721Y462128D01*
X596293Y463162D01*
X595612Y464049D01*
X594724Y464731D01*
X593690Y465159D01*
X592581Y465305D01*
X591472Y465159D01*
X590438Y464731D01*
X589550Y464049D01*
X588869Y463162D01*
X588441Y462128D01*
X588295Y461019D01*
X588441Y459909D01*
X588869Y458876D01*
X589550Y457988D01*
X590003Y457641D01*
X589833Y457141D01*
X585486D01*
X585317Y457641D01*
X585769Y457988D01*
X586450Y458876D01*
X586878Y459909D01*
X587024Y461019D01*
X586878Y462128D01*
X586450Y463162D01*
X585769Y464049D01*
X584881Y464731D01*
X583848Y465159D01*
X583834Y465161D01*
Y471924D01*
X583764Y472275D01*
X583565Y472573D01*
X581789Y474349D01*
X581491Y474547D01*
X581140Y474617D01*
X537399D01*
X537048Y474547D01*
X536750Y474349D01*
X527019Y464617D01*
X505899D01*
X505548Y464547D01*
X505250Y464349D01*
X496519Y455617D01*
X438699D01*
X438348Y455548D01*
X438050Y455349D01*
X430550Y447849D01*
X430351Y447551D01*
X430281Y447200D01*
Y426647D01*
X429781Y426573D01*
X429693Y426863D01*
X429145Y427888D01*
X428408Y428787D01*
X428398Y428795D01*
X428020Y429111D01*
D01*
X427632Y429414D01*
X412379Y442379D01*
X412068Y442757D01*
Y442757D01*
X411525Y443203D01*
X410419Y444551D01*
X409596Y446089D01*
X409090Y447758D01*
X408919Y449494D01*
X409090Y451230D01*
X409596Y452899D01*
X410419Y454437D01*
X411525Y455785D01*
X412873Y456892D01*
X414411Y457714D01*
X416081Y458220D01*
X417532Y458363D01*
X417542Y458354D01*
Y458354D01*
X417542Y458354D01*
X418061Y458362D01*
X431046Y458928D01*
X444008Y459873D01*
X456938Y461194D01*
X469824Y462890D01*
X482655Y464961D01*
X494822Y467289D01*
Y467289D01*
X495304Y467427D01*
X582156Y485095D01*
X582171Y485085D01*
X582171Y485085D01*
X582171Y485085D01*
X586038Y485783D01*
X591006Y486317D01*
X596000Y486495D01*
X600993Y486317D01*
D02*
G37*
G36*
X581998Y471544D02*
Y465207D01*
X581629Y465159D01*
X580595Y464731D01*
X579707Y464049D01*
X579026Y463162D01*
X578598Y462128D01*
X578452Y461019D01*
X578598Y459909D01*
X579026Y458876D01*
X579707Y457988D01*
X580160Y457641D01*
X579990Y457141D01*
X563274D01*
X563104Y457641D01*
X563634Y458047D01*
X564299Y458914D01*
X564717Y459924D01*
X564794Y460507D01*
X560674D01*
X556555D01*
X556631Y459924D01*
X557050Y458914D01*
X557715Y458047D01*
X558244Y457641D01*
X558075Y457141D01*
X553595D01*
X553425Y457641D01*
X553862Y457976D01*
X554543Y458864D01*
X554971Y459897D01*
X555117Y461007D01*
X554971Y462116D01*
X554543Y463150D01*
X553862Y464038D01*
X552974Y464719D01*
X551940Y465147D01*
X550831Y465293D01*
X549722Y465147D01*
X548688Y464719D01*
X547800Y464038D01*
X547119Y463150D01*
X546691Y462116D01*
X546545Y461007D01*
X546691Y459897D01*
X547119Y458864D01*
X547800Y457976D01*
X548244Y457636D01*
X548075Y457135D01*
X543722Y457118D01*
X543552Y457617D01*
X544019Y457976D01*
X544700Y458864D01*
X545128Y459897D01*
X545274Y461007D01*
X545128Y462116D01*
X544700Y463150D01*
X544019Y464038D01*
X543131Y464719D01*
X542098Y465147D01*
X540988Y465293D01*
X539879Y465147D01*
X538845Y464719D01*
X537957Y464038D01*
X537481Y463417D01*
X529068D01*
X528876Y463879D01*
X537779Y472782D01*
X580760D01*
X581998Y471544D01*
D02*
G37*
G36*
X536728Y461206D02*
X536702Y461007D01*
X536848Y459897D01*
X537276Y458864D01*
X537957Y457976D01*
X538450Y457598D01*
X538281Y457097D01*
X523791Y457041D01*
X523385Y456958D01*
X522980Y456878D01*
X522976Y456876D01*
X522972Y456875D01*
X522629Y456644D01*
X522285Y456414D01*
X514585Y448714D01*
X514121Y448019D01*
X513958Y447200D01*
Y438116D01*
X510841Y435141D01*
X500203D01*
Y436835D01*
X500205Y436836D01*
X501093Y437517D01*
X501774Y438405D01*
X502202Y439438D01*
X502348Y440548D01*
X502202Y441657D01*
X501774Y442691D01*
X501093Y443578D01*
X500205Y444260D01*
X499171Y444688D01*
X498062Y444834D01*
X496953Y444688D01*
X495919Y444260D01*
X495031Y443578D01*
X494350Y442691D01*
X493922Y441657D01*
X493776Y440548D01*
X493922Y439438D01*
X494350Y438405D01*
X495031Y437517D01*
X495919Y436836D01*
X495921Y436835D01*
Y435141D01*
X458039D01*
X457691Y435499D01*
X457728Y436791D01*
X457837Y436836D01*
X458725Y437517D01*
X459406Y438405D01*
X459834Y439438D01*
X459980Y440548D01*
X459834Y441657D01*
X459406Y442691D01*
X458725Y443578D01*
X457837Y444260D01*
X456804Y444688D01*
X455694Y444834D01*
X454585Y444688D01*
X453551Y444260D01*
X452663Y443578D01*
X451982Y442691D01*
X451554Y441657D01*
X451408Y440548D01*
X451554Y439438D01*
X451982Y438405D01*
X452663Y437517D01*
X453448Y436915D01*
X453396Y435129D01*
X442282Y435041D01*
X441975Y434977D01*
X441662Y434944D01*
X441569Y434893D01*
X441464Y434871D01*
X441204Y434695D01*
X440928Y434545D01*
X436314Y430699D01*
X435814Y430934D01*
X435817Y434099D01*
X435817Y434099D01*
X435817Y434100D01*
Y435327D01*
X439596Y439106D01*
X441849D01*
X442139Y438405D01*
X442820Y437517D01*
X443708Y436836D01*
X444742Y436408D01*
X445851Y436262D01*
X446960Y436408D01*
X447994Y436836D01*
X448882Y437517D01*
X449563Y438405D01*
X449991Y439438D01*
X450137Y440548D01*
X449991Y441657D01*
X449563Y442691D01*
X448882Y443578D01*
X447994Y444260D01*
X446960Y444688D01*
X445851Y444834D01*
X444742Y444688D01*
X443708Y444260D01*
X442820Y443578D01*
X442139Y442691D01*
X441711Y441657D01*
X441617Y440941D01*
X439216D01*
X438865Y440871D01*
X438567Y440673D01*
X434979Y437084D01*
X434517Y437275D01*
Y445020D01*
X440579Y451082D01*
X485260D01*
X487099Y449244D01*
Y444683D01*
X486076Y444260D01*
X485188Y443578D01*
X484507Y442691D01*
X484079Y441657D01*
X483933Y440548D01*
X484079Y439438D01*
X484507Y438405D01*
X485188Y437517D01*
X486076Y436836D01*
X487110Y436408D01*
X488219Y436262D01*
X489328Y436408D01*
X490362Y436836D01*
X491250Y437517D01*
X491931Y438405D01*
X492359Y439438D01*
X492505Y440548D01*
X492359Y441657D01*
X491931Y442691D01*
X491250Y443578D01*
X490362Y444260D01*
X489328Y444688D01*
X488934Y444740D01*
Y449624D01*
X488864Y449975D01*
X488665Y450273D01*
X486817Y452120D01*
X487009Y452582D01*
X497499D01*
X497850Y452652D01*
X498148Y452851D01*
X506879Y461582D01*
X536399D01*
X536728Y461206D01*
D02*
G37*
G36*
X359632Y402106D02*
Y399751D01*
X358008Y398127D01*
X357546Y398318D01*
Y400455D01*
X353814D01*
X353417Y400853D01*
X353608Y401314D01*
X356139D01*
X354713Y402740D01*
X355420Y403448D01*
X356846Y402022D01*
Y404185D01*
X357346Y404392D01*
X359632Y402106D01*
D02*
G37*
G36*
X366204Y393682D02*
X365742Y393490D01*
X364571Y394661D01*
Y403243D01*
X364493Y403633D01*
X364272Y403964D01*
X357673Y410564D01*
X357342Y410785D01*
X356951Y410862D01*
X349326D01*
X348936Y410785D01*
X348605Y410564D01*
X342530Y404489D01*
X342309Y404158D01*
X342232Y403768D01*
Y399262D01*
X339213Y396244D01*
X338752Y396435D01*
Y402043D01*
X245251D01*
Y394043D01*
X247900D01*
Y384945D01*
X246719D01*
Y386479D01*
X238807D01*
Y379945D01*
X245599D01*
X245992Y379688D01*
Y373744D01*
X247932D01*
X248193Y373244D01*
X247938Y372863D01*
X247798Y372161D01*
X247938Y371459D01*
X248156Y371133D01*
X247888Y370633D01*
X245992D01*
Y364689D01*
X250772D01*
X251073Y364239D01*
X251023Y364166D01*
X250877Y363429D01*
Y362324D01*
X250377Y361944D01*
X250014Y362016D01*
X249311Y361876D01*
X249302Y361870D01*
X249171Y361844D01*
X248679Y361515D01*
X248350Y361023D01*
X248324Y360892D01*
X248318Y360883D01*
X248296Y360771D01*
X244870Y357345D01*
X238220D01*
Y358991D01*
X238720Y358992D01*
X238720Y358992D01*
X244525D01*
X242311Y361205D01*
X242665Y361559D01*
X242311Y361912D01*
X244525Y364125D01*
X238720D01*
X238720Y364125D01*
X238220Y364126D01*
Y411574D01*
X366204D01*
Y393682D01*
D02*
G37*
G36*
X297842Y391323D02*
X297656Y391045D01*
X297516Y390343D01*
X297656Y389640D01*
X298054Y389045D01*
X298332Y388859D01*
Y387343D01*
X298410Y386953D01*
X298630Y386622D01*
X311833Y373420D01*
X311599Y372946D01*
X311549Y372953D01*
X307475D01*
X307105Y373323D01*
X306675Y373610D01*
X306168Y373711D01*
X304649D01*
X304095Y374081D01*
X303393Y374221D01*
X302691Y374081D01*
X302095Y373683D01*
X301697Y373088D01*
X301558Y372385D01*
X301697Y371683D01*
X302095Y371088D01*
X302535Y370794D01*
X302451Y370154D01*
X302547Y369429D01*
X302826Y368755D01*
X303271Y368175D01*
X303851Y367730D01*
X304276Y367554D01*
X304288Y367521D01*
X304289Y367007D01*
X304178Y366933D01*
X305603Y365507D01*
X305250Y365154D01*
X305603Y364800D01*
X304178Y363375D01*
X304289Y363300D01*
X304288Y362787D01*
X304276Y362754D01*
X303851Y362578D01*
X303271Y362133D01*
X302826Y361553D01*
X302669Y361174D01*
X302163D01*
X299771Y363565D01*
Y372543D01*
X299693Y372933D01*
X299472Y373264D01*
X296473Y376264D01*
X296142Y376485D01*
X295752Y376562D01*
X291635D01*
X291487Y376743D01*
X291347Y377445D01*
X290949Y378041D01*
X290354Y378438D01*
X289651Y378578D01*
X288949Y378438D01*
X288354Y378041D01*
X287956Y377445D01*
X287816Y376743D01*
X287956Y376041D01*
X288264Y375579D01*
X287876Y375260D01*
X286405Y376731D01*
X286487Y377143D01*
X286347Y377845D01*
X285949Y378441D01*
X285354Y378838D01*
X284651Y378978D01*
X284507Y378949D01*
X284261Y379410D01*
X288374Y383523D01*
X288987D01*
X289365Y382957D01*
X290093Y382470D01*
X290951Y382300D01*
X291810Y382470D01*
X292538Y382957D01*
X293024Y383684D01*
X293195Y384543D01*
X293024Y385401D01*
X292538Y386129D01*
X292027Y386470D01*
X291916Y387065D01*
X296674Y391823D01*
X297574D01*
X297842Y391323D01*
D02*
G37*
G36*
X252066Y377988D02*
X252803Y377841D01*
X253540Y377988D01*
X253850Y378195D01*
X254342Y377923D01*
Y374075D01*
X253447Y373181D01*
X251117D01*
X251048Y373284D01*
X250952Y373744D01*
X250952Y373744D01*
X250952Y373744D01*
Y378238D01*
X251383Y378386D01*
X251451Y378398D01*
X252066Y377988D01*
D02*
G37*
G36*
X259460Y377381D02*
Y375915D01*
X259538Y375524D01*
X259759Y375194D01*
X262667Y372285D01*
X262756Y371841D01*
X263154Y371245D01*
X263749Y370847D01*
X264452Y370708D01*
X265154Y370847D01*
X265749Y371245D01*
X266147Y371841D01*
X266287Y372543D01*
X266147Y373245D01*
X266040Y373405D01*
X266428Y373724D01*
X267181Y372971D01*
X267116Y372643D01*
X267256Y371940D01*
X267654Y371345D01*
X268249Y370947D01*
X268952Y370808D01*
X269232Y370863D01*
X269732Y370453D01*
Y364043D01*
X269502Y363967D01*
X269400Y363965D01*
X268511Y363075D01*
X267804Y363782D01*
X268578Y364557D01*
X268157Y364641D01*
X267693Y364549D01*
X267300Y364286D01*
X267297D01*
X266960Y364791D01*
X266335Y365208D01*
X265598Y365355D01*
X264861Y365208D01*
X264318Y364846D01*
X263776Y365208D01*
X263039Y365355D01*
X262302Y365208D01*
X261759Y364846D01*
X261217Y365208D01*
X260480Y365355D01*
X259743Y365208D01*
X259200Y364846D01*
X258658Y365208D01*
X257921Y365355D01*
X257212Y365214D01*
X257176Y365212D01*
X256659Y365459D01*
X256638Y365574D01*
X256751Y365708D01*
X257454Y365847D01*
X258049Y366245D01*
X258447Y366841D01*
X258587Y367543D01*
X258447Y368245D01*
X258049Y368841D01*
X257454Y369238D01*
X256751Y369378D01*
X256049Y369238D01*
X255454Y368841D01*
X255056Y368245D01*
X254916Y367543D01*
X254981Y367215D01*
X254641Y366874D01*
X254519Y366691D01*
X254330Y366656D01*
X254023Y366674D01*
X253964Y366693D01*
X253740Y367029D01*
X252171Y368598D01*
X251741Y368885D01*
X251233Y368986D01*
X250952D01*
Y370633D01*
X250952Y370633D01*
X251077Y371081D01*
X251117Y371141D01*
X253870D01*
X254260Y371219D01*
X254591Y371440D01*
X255659Y372509D01*
X256120Y372262D01*
X256116Y372243D01*
X256256Y371540D01*
X256654Y370945D01*
X257249Y370547D01*
X257951Y370408D01*
X258654Y370547D01*
X259249Y370945D01*
X259647Y371540D01*
X259787Y372243D01*
X259647Y372945D01*
X259249Y373541D01*
X258940Y373747D01*
Y377381D01*
X259200Y377532D01*
X259460Y377381D01*
D02*
G37*
G36*
X339132Y391675D02*
Y379865D01*
X325195Y365928D01*
X324952Y365976D01*
X324288Y365844D01*
X323726Y365469D01*
X323350Y364906D01*
X323218Y364243D01*
X323350Y363580D01*
X323726Y363017D01*
X324288Y362642D01*
X324466Y362606D01*
X324630Y362064D01*
X321012Y358445D01*
X320352Y358576D01*
X319688Y358444D01*
X319126Y358068D01*
X318750Y357506D01*
X318618Y356843D01*
X318750Y356179D01*
X319126Y355617D01*
X319688Y355241D01*
X320352Y355110D01*
X321015Y355241D01*
X321577Y355617D01*
X321953Y356179D01*
X322033Y356582D01*
X324641Y359191D01*
X325030Y358872D01*
X324909Y358692D01*
X324832Y358302D01*
Y354306D01*
X324626Y354169D01*
X324250Y353606D01*
X324118Y352943D01*
X324250Y352279D01*
X324626Y351717D01*
X325188Y351342D01*
X325671Y351245D01*
X325622Y350745D01*
X324258D01*
X323831Y350660D01*
X323469Y350419D01*
X323469Y350419D01*
X318957Y345906D01*
X318715Y345544D01*
X318630Y345117D01*
X318630Y345117D01*
Y342281D01*
X318630Y342281D01*
X318715Y341854D01*
X318957Y341492D01*
X320388Y340061D01*
X320388Y340061D01*
X320750Y339819D01*
X321177Y339734D01*
X321330D01*
X322792Y338272D01*
Y336736D01*
X322608Y336617D01*
X322292Y336545D01*
X315871Y342965D01*
Y350058D01*
X317272Y351459D01*
X317494Y351790D01*
X317571Y352180D01*
Y358189D01*
X318138Y358568D01*
X318624Y359296D01*
X318795Y360154D01*
X318624Y361012D01*
X318138Y361740D01*
X317410Y362226D01*
X316551Y362397D01*
X315693Y362226D01*
X314965Y361740D01*
X314592Y361181D01*
X314121Y361197D01*
X313973Y361553D01*
X313528Y362133D01*
X312948Y362578D01*
X312523Y362754D01*
X312511Y362787D01*
X312510Y363300D01*
X312621Y363375D01*
X311195Y364800D01*
X311549Y365154D01*
X311195Y365507D01*
X312621Y366933D01*
X312510Y367007D01*
X312511Y367521D01*
X312523Y367554D01*
X312948Y367730D01*
X313528Y368175D01*
X313973Y368755D01*
X314252Y369429D01*
X314348Y370154D01*
X314341Y370204D01*
X314815Y370438D01*
X314931Y370322D01*
X315261Y370101D01*
X315651Y370023D01*
X323936D01*
X324049Y369947D01*
X324751Y369808D01*
X325454Y369947D01*
X326049Y370345D01*
X326447Y370940D01*
X326587Y371643D01*
X326447Y372345D01*
X326049Y372941D01*
X325454Y373338D01*
X324751Y373478D01*
X324049Y373338D01*
X323454Y372941D01*
X323056Y372345D01*
X323000Y372062D01*
X319317D01*
X318991Y372562D01*
X319087Y373043D01*
X318947Y373745D01*
X318549Y374341D01*
X317954Y374738D01*
X317251Y374878D01*
X316923Y374813D01*
X304971Y386765D01*
Y388859D01*
X305249Y389045D01*
X305647Y389640D01*
X305787Y390343D01*
X305647Y391045D01*
X305461Y391323D01*
X305729Y391823D01*
X338951D01*
X339132Y391675D01*
D02*
G37*
G36*
X366204Y365400D02*
Y346739D01*
X356792D01*
Y346083D01*
X356405Y345765D01*
X356351Y345776D01*
X355688Y345644D01*
X355126Y345269D01*
X354750Y344706D01*
X354618Y344043D01*
X354750Y343379D01*
X355126Y342817D01*
X355688Y342442D01*
X356351Y342309D01*
X356405Y342320D01*
X356792Y342003D01*
Y341063D01*
X356405Y340746D01*
X356252Y340776D01*
X355588Y340644D01*
X355026Y340268D01*
X354650Y339706D01*
X354518Y339043D01*
X354650Y338380D01*
X355026Y337817D01*
X355588Y337441D01*
X356252Y337310D01*
X356405Y337340D01*
X356792Y337023D01*
Y331347D01*
X361505D01*
Y327207D01*
X361494Y327200D01*
X361119Y326638D01*
X360987Y325974D01*
X361119Y325311D01*
X361494Y324749D01*
X361505Y324742D01*
Y321739D01*
X356792D01*
Y316143D01*
X356405Y315826D01*
X356152Y315876D01*
X355488Y315744D01*
X354926Y315369D01*
X354550Y314806D01*
X354418Y314143D01*
X354550Y313479D01*
X354926Y312917D01*
X355488Y312542D01*
X356152Y312409D01*
X356405Y312460D01*
X356792Y312143D01*
Y311163D01*
X356405Y310846D01*
X356252Y310876D01*
X355588Y310744D01*
X355026Y310368D01*
X354650Y309806D01*
X354518Y309143D01*
X354650Y308479D01*
X355026Y307917D01*
X355588Y307541D01*
X356252Y307410D01*
X356405Y307440D01*
X356792Y307123D01*
Y306347D01*
X366204D01*
Y244220D01*
X308204D01*
X307940Y244611D01*
X307940Y244720D01*
Y244938D01*
X308248Y245310D01*
X308440Y245311D01*
X311533D01*
X309890Y246953D01*
X310597Y247660D01*
X312240Y246018D01*
Y255052D01*
X310597Y253410D01*
X309890Y254117D01*
X311533Y255759D01*
X308440D01*
X308248Y255759D01*
X307940Y256132D01*
Y256459D01*
X302548D01*
Y256132D01*
X302240Y255759D01*
X302048Y255759D01*
X298955D01*
X300597Y254117D01*
X299890Y253410D01*
X298248Y255052D01*
Y246018D01*
X299890Y247660D01*
X300597Y246953D01*
X298955Y245311D01*
X302048D01*
X302240Y245310D01*
X302548Y244938D01*
X302548Y244611D01*
X302283Y244220D01*
X293204D01*
X292940Y244611D01*
Y244938D01*
X293248Y245310D01*
X293440Y245311D01*
X296533D01*
X294890Y246953D01*
X295597Y247660D01*
X297240Y246018D01*
Y255052D01*
X295597Y253410D01*
X294890Y254117D01*
X296533Y255759D01*
X293440D01*
X293248Y255759D01*
X292940Y256132D01*
Y256459D01*
X292058D01*
X291569Y256551D01*
X291468Y257058D01*
X291181Y257488D01*
X290246Y258423D01*
X290453Y258923D01*
X307552D01*
X307942Y259001D01*
X308273Y259222D01*
X309015Y259965D01*
X312940D01*
Y259965D01*
X313327Y260125D01*
X315430Y258022D01*
X315761Y257801D01*
X316151Y257723D01*
X326668D01*
X326854Y257445D01*
X327449Y257047D01*
X328151Y256908D01*
X328854Y257047D01*
X329449Y257445D01*
X329847Y258040D01*
X329987Y258743D01*
X329847Y259445D01*
X329449Y260041D01*
X328854Y260438D01*
X328250Y260559D01*
X328299Y261058D01*
X327992D01*
X327832Y260625D01*
X327554Y260523D01*
X327207Y260737D01*
X327133Y260828D01*
Y265969D01*
X327670D01*
X327671Y265969D01*
X328117D01*
X328117Y265969D01*
X328117Y266198D01*
X328188Y266669D01*
X328617Y266669D01*
X330647D01*
X329418Y267898D01*
X329968Y268448D01*
X329418Y268999D01*
X330647Y270228D01*
X328188Y270228D01*
X328117Y270698D01*
Y270928D01*
X323552D01*
Y266302D01*
X322174D01*
Y264656D01*
X317227D01*
X316654Y265038D01*
X315951Y265178D01*
X315249Y265038D01*
X315071Y264919D01*
X314571Y265187D01*
Y272743D01*
X314493Y273133D01*
X314272Y273464D01*
X308749Y278987D01*
Y282050D01*
X309211Y282241D01*
X309830Y281622D01*
X310161Y281401D01*
X310552Y281323D01*
X320423D01*
X320721Y280838D01*
X320578Y280574D01*
X317449D01*
Y276008D01*
X317679D01*
X318149Y275937D01*
X318149Y275508D01*
Y273478D01*
X319378Y274707D01*
X319929Y274157D01*
X320479Y274707D01*
X321708Y273478D01*
X321708Y275937D01*
X322179Y276008D01*
X322408D01*
Y276965D01*
X323355D01*
Y276008D01*
X323584D01*
X324055Y275937D01*
X324055Y275508D01*
Y273478D01*
X325284Y274707D01*
X325834Y274157D01*
X326385Y274707D01*
X327614Y273478D01*
X327614Y275937D01*
X328084Y276008D01*
X328175D01*
X328231Y275925D01*
X332632Y271523D01*
Y269243D01*
X332710Y268853D01*
X332930Y268522D01*
X333281Y268171D01*
X333216Y267843D01*
X333356Y267141D01*
X333754Y266545D01*
X334349Y266147D01*
X335051Y266008D01*
X335754Y266147D01*
X336152Y266413D01*
X336368Y266535D01*
X336785Y266298D01*
X336954Y266045D01*
X337147Y265916D01*
X336995Y265416D01*
X333788D01*
Y260457D01*
X334942D01*
Y259904D01*
X333788D01*
Y259166D01*
X333401Y258849D01*
X333314Y258866D01*
X332612Y258727D01*
X332017Y258329D01*
X331619Y257733D01*
X331479Y257031D01*
X331619Y256329D01*
X332017Y255733D01*
X332612Y255335D01*
X333314Y255196D01*
X333413Y255215D01*
X333788Y254945D01*
X333955Y254683D01*
X333672Y254196D01*
X332804D01*
Y253238D01*
X331857D01*
Y254196D01*
X326898D01*
Y249630D01*
X327128D01*
X327598Y249559D01*
X327598Y249130D01*
Y247100D01*
X328827Y248329D01*
X329378Y247779D01*
X329928Y248329D01*
X331157Y247100D01*
X331157Y249559D01*
X331627Y249630D01*
X331857D01*
Y250587D01*
X332804D01*
Y249630D01*
X333033D01*
X333503Y249559D01*
X333504Y249130D01*
Y247100D01*
X334733Y248329D01*
X335283Y247779D01*
X335833Y248329D01*
X337063Y247100D01*
X337063Y249559D01*
X337533Y249630D01*
X337762D01*
Y250587D01*
X338709D01*
Y249630D01*
X338939D01*
X339409Y249559D01*
X339409Y249130D01*
Y247100D01*
X340638Y248329D01*
X341189Y247779D01*
X341739Y248329D01*
X342968Y247100D01*
X342968Y249559D01*
X343438Y249630D01*
X343668D01*
Y249827D01*
X349142D01*
Y247465D01*
X353707D01*
Y247694D01*
X353779Y248165D01*
X354207Y248165D01*
X356237D01*
X355008Y249394D01*
X355559Y249944D01*
X355008Y250495D01*
X356237Y251724D01*
X353779Y251724D01*
X353707Y252194D01*
Y252424D01*
X352750D01*
Y253764D01*
X353707D01*
Y253994D01*
X353779Y254464D01*
X354207Y254464D01*
X356237D01*
X355008Y255693D01*
X355559Y256244D01*
X355008Y256794D01*
X356237Y258023D01*
X353779Y258023D01*
X353707Y258493D01*
Y258723D01*
X352750D01*
Y260063D01*
X353707D01*
Y260293D01*
X353779Y260763D01*
X354207Y260763D01*
X356237D01*
X355008Y261992D01*
X355559Y262543D01*
X355008Y263093D01*
X356237Y264322D01*
X353779Y264322D01*
X353707Y264793D01*
Y265022D01*
X352750D01*
Y266264D01*
X353904D01*
Y272207D01*
X348945D01*
Y271332D01*
X348559Y271015D01*
X348275Y271071D01*
X347573Y270931D01*
X346977Y270533D01*
X346580Y269938D01*
X346440Y269236D01*
X346580Y268533D01*
X346977Y267938D01*
X347573Y267540D01*
X348275Y267401D01*
X348559Y267457D01*
X348945Y267140D01*
Y266264D01*
X350099D01*
Y265022D01*
X349142D01*
Y260834D01*
X348642Y260532D01*
X348111Y260638D01*
X347711Y260558D01*
X347211Y260922D01*
Y263644D01*
X346982D01*
X346511Y263716D01*
X346511Y264144D01*
Y266174D01*
X345282Y264945D01*
X344732Y265496D01*
X344181Y264945D01*
X342952Y266174D01*
X342952Y264195D01*
X342452Y263946D01*
X342290Y264068D01*
Y265416D01*
X341071D01*
Y265543D01*
X340993Y265933D01*
X340773Y266264D01*
X340021Y267015D01*
X340087Y267343D01*
X339947Y268045D01*
X339871Y268159D01*
Y271343D01*
X339793Y271733D01*
X339573Y272064D01*
X337926Y273710D01*
X338019Y274324D01*
X338190Y274439D01*
X338654Y274645D01*
X339249Y274247D01*
X339951Y274108D01*
X340654Y274247D01*
X341249Y274645D01*
X341647Y275240D01*
X341787Y275943D01*
X341647Y276645D01*
X341249Y277241D01*
X340971Y277426D01*
Y280325D01*
X340981Y280340D01*
X341058Y280730D01*
Y292755D01*
X340981Y293146D01*
X340760Y293476D01*
X329772Y304464D01*
X329442Y304685D01*
X329051Y304762D01*
X325474D01*
X324351Y305885D01*
X324543Y306347D01*
X332711D01*
Y308272D01*
X334173Y309734D01*
X344420D01*
X344420Y309734D01*
X344847Y309819D01*
X345208Y310061D01*
X348621Y313473D01*
X348621Y313473D01*
X348621Y313473D01*
X349027Y313880D01*
X349269Y314241D01*
X349354Y314668D01*
X349354Y314668D01*
Y341827D01*
X349515Y341988D01*
X349515Y341988D01*
X349757Y342350D01*
X349841Y342777D01*
Y343992D01*
X350024Y344114D01*
X350422Y344709D01*
X350562Y345411D01*
X350422Y346114D01*
X350024Y346709D01*
X349429Y347107D01*
X348726Y347247D01*
X348024Y347107D01*
X347429Y346709D01*
X347224D01*
X346629Y347107D01*
X345926Y347247D01*
X345899Y347241D01*
X345653Y347702D01*
X353472Y355522D01*
X353694Y355853D01*
X353771Y356243D01*
Y363628D01*
X354233Y363819D01*
X355431Y362622D01*
X355761Y362401D01*
X356152Y362323D01*
X362052D01*
X362442Y362401D01*
X362772Y362622D01*
X365742Y365592D01*
X366204Y365400D01*
D02*
G37*
G36*
X295332Y371229D02*
Y358343D01*
X295409Y357953D01*
X295631Y357622D01*
X298819Y354433D01*
X299150Y354212D01*
X299540Y354134D01*
X302582D01*
X302794Y353686D01*
X302585Y353248D01*
X302297Y353190D01*
X301702Y352793D01*
X301304Y352197D01*
X301164Y351495D01*
X301280Y350911D01*
Y349373D01*
X300126D01*
Y343429D01*
X305085D01*
Y349373D01*
X303931D01*
Y349953D01*
X304297Y350197D01*
X304695Y350793D01*
X304835Y351495D01*
X304751Y351917D01*
X305135Y352370D01*
X305250Y352355D01*
X310915D01*
X311171Y352043D01*
X311342Y351184D01*
X311828Y350457D01*
X312395Y350078D01*
Y341880D01*
X312473Y341490D01*
X312694Y341159D01*
X313467Y340386D01*
X313275Y339924D01*
X311414D01*
X311097Y340310D01*
X311134Y340495D01*
X310994Y341198D01*
X310596Y341793D01*
X310001Y342191D01*
X309299Y342331D01*
X308596Y342191D01*
X308001Y341793D01*
X307603Y341198D01*
X307463Y340495D01*
X307500Y340310D01*
X307183Y339924D01*
X305638D01*
Y339432D01*
X301125D01*
X300898Y339708D01*
X300758Y340410D01*
X300360Y341006D01*
X299765Y341404D01*
X299062Y341543D01*
X298360Y341404D01*
X297765Y341006D01*
X297367Y340410D01*
X297268Y339912D01*
X297264Y339894D01*
X297264Y339891D01*
X297227Y339708D01*
X297174Y339432D01*
X297174Y339432D01*
Y335495D01*
X290579D01*
X290518Y335970D01*
Y336479D01*
X289892D01*
X289656Y336920D01*
X289735Y337037D01*
X289874Y337740D01*
X289735Y338442D01*
X289337Y339037D01*
X288741Y339435D01*
X288039Y339575D01*
X287337Y339435D01*
X286741Y339037D01*
X286343Y338442D01*
X286267Y338060D01*
X285892Y337759D01*
X281176D01*
X280766Y338259D01*
X280819Y338527D01*
X280679Y339229D01*
X280281Y339825D01*
X279686Y340223D01*
X278984Y340362D01*
X278281Y340223D01*
X277686Y339825D01*
X277288Y339229D01*
X277149Y338527D01*
X277288Y337825D01*
X277466Y337559D01*
X277199Y337059D01*
X273679D01*
X275597Y335140D01*
X275244Y334787D01*
X275597Y334433D01*
X273679Y332515D01*
X277659Y332515D01*
X277865Y332015D01*
X277648Y331656D01*
X272408D01*
Y332148D01*
X272179D01*
X271708Y332220D01*
Y334678D01*
X270479Y333449D01*
X269772Y334156D01*
X271001Y335385D01*
X268371D01*
Y338132D01*
X273872Y343634D01*
X274094Y343965D01*
X274171Y344355D01*
Y345697D01*
X274437Y346087D01*
X280381D01*
Y351046D01*
X279549D01*
X279232Y351432D01*
X279244Y351495D01*
X279104Y352197D01*
X278734Y352751D01*
Y353094D01*
X278634Y353601D01*
X278464Y353855D01*
X278694Y354355D01*
X279101D01*
Y358992D01*
X281631D01*
X280402Y360221D01*
X281109Y360928D01*
X282338Y359699D01*
Y362157D01*
X282808Y362229D01*
X283038D01*
Y363067D01*
X283538Y363237D01*
X283586Y363175D01*
X284166Y362730D01*
X284591Y362554D01*
X284603Y362521D01*
X284604Y362007D01*
X284493Y361933D01*
X285918Y360507D01*
X285565Y360154D01*
X285918Y359800D01*
X284493Y358375D01*
X284755Y358199D01*
X285565Y358038D01*
X291864D01*
X292674Y358199D01*
X292936Y358375D01*
X291511Y359800D01*
X291864Y360154D01*
X291511Y360507D01*
X292936Y361933D01*
X292825Y362007D01*
X292826Y362521D01*
X292838Y362554D01*
X293264Y362730D01*
X293843Y363175D01*
X294288Y363755D01*
X294567Y364429D01*
X294663Y365154D01*
X294567Y365878D01*
X294288Y366553D01*
X294038Y366879D01*
X294284Y367379D01*
X294639D01*
Y371129D01*
X295139Y371376D01*
X295332Y371229D01*
D02*
G37*
G36*
X352705Y373548D02*
X353358D01*
Y372539D01*
X350430Y369611D01*
X350209Y369281D01*
X350132Y368890D01*
Y356765D01*
X343821Y350455D01*
X343413Y350641D01*
X343354Y350694D01*
Y354311D01*
X343509Y354342D01*
X344071Y354717D01*
X344447Y355279D01*
X344579Y355943D01*
X344447Y356606D01*
X344071Y357169D01*
X343509Y357544D01*
X342845Y357676D01*
X342182Y357544D01*
X341933Y357378D01*
X341545Y357202D01*
X341158Y357378D01*
X340909Y357544D01*
X340245Y357676D01*
X339582Y357544D01*
X339020Y357169D01*
X338644Y356606D01*
X338512Y355943D01*
X338644Y355279D01*
X339020Y354717D01*
X339582Y354342D01*
X339736Y354311D01*
Y351705D01*
X338777Y350745D01*
X326081D01*
X326032Y351245D01*
X326515Y351342D01*
X327077Y351717D01*
X327453Y352279D01*
X327585Y352943D01*
X327453Y353606D01*
X327077Y354169D01*
X326871Y354306D01*
Y357692D01*
X327199Y357970D01*
X327729Y357882D01*
X327954Y357545D01*
X328549Y357147D01*
X329252Y357008D01*
X329954Y357147D01*
X330549Y357545D01*
X330947Y358140D01*
X331087Y358843D01*
X331016Y359196D01*
X343186Y371366D01*
X349062D01*
X349453Y371443D01*
X349783Y371664D01*
X350933Y372814D01*
X351154Y373145D01*
X351232Y373535D01*
Y373548D01*
X352113D01*
Y374248D01*
X352705D01*
Y373548D01*
D02*
G37*
G36*
X264861Y355153D02*
X265598Y355007D01*
X265744Y355036D01*
X266170Y354610D01*
X266116Y354343D01*
X266177Y354039D01*
X265130Y352992D01*
X264910Y352661D01*
X264832Y352271D01*
Y349487D01*
X264332Y349219D01*
X264154Y349338D01*
X263452Y349478D01*
X263023Y349393D01*
X262523Y349743D01*
Y351415D01*
X261097Y349989D01*
X260390Y350696D01*
X262177Y352483D01*
X262135Y352584D01*
X263760Y354209D01*
X263981Y354540D01*
X264058Y354930D01*
Y355088D01*
X264551Y355360D01*
X264861Y355153D01*
D02*
G37*
G36*
X257980Y349317D02*
X257539Y349082D01*
X257454Y349138D01*
X256751Y349278D01*
X256049Y349138D01*
X255454Y348741D01*
X255312Y348528D01*
X254697Y348508D01*
X254636Y348588D01*
X253811Y349221D01*
X252850Y349620D01*
X251818Y349755D01*
X250787Y349620D01*
X249826Y349221D01*
X249321Y349464D01*
X249290Y349739D01*
X251274Y351723D01*
X257980D01*
Y349317D01*
D02*
G37*
G36*
X255393Y343728D02*
X255732Y343591D01*
Y337952D01*
X255393Y337814D01*
X255232Y337811D01*
X254636Y338588D01*
X253811Y339222D01*
X252850Y339619D01*
X251818Y339755D01*
X250787Y339619D01*
X249826Y339222D01*
X249620Y339063D01*
X249171Y339284D01*
Y342259D01*
X249620Y342480D01*
X249826Y342321D01*
X250787Y341923D01*
X251818Y341787D01*
X252850Y341923D01*
X253811Y342321D01*
X254636Y342954D01*
X255232Y343731D01*
X255393Y343728D01*
D02*
G37*
G36*
X239001Y342954D02*
X239826Y342321D01*
X240787Y341923D01*
X241818Y341787D01*
X242850Y341923D01*
X243811Y342321D01*
X244232Y342644D01*
X244732Y342398D01*
Y338134D01*
X244232Y337965D01*
X244136Y338089D01*
X243458Y338610D01*
X242667Y338937D01*
X241818Y339049D01*
X240970Y338937D01*
X240179Y338610D01*
X239901Y338396D01*
X242172Y336125D01*
X241818Y335771D01*
X242172Y335418D01*
X239901Y333146D01*
X240179Y332932D01*
X240970Y332605D01*
X241818Y332493D01*
X242667Y332605D01*
X243458Y332932D01*
X244136Y333453D01*
X244232Y333578D01*
X244732Y333408D01*
Y330652D01*
X244810Y330261D01*
X245030Y329931D01*
X249930Y325032D01*
X249738Y324570D01*
X244861D01*
Y324570D01*
X239004D01*
Y317642D01*
X240946D01*
Y312979D01*
X240576Y312425D01*
X240436Y311723D01*
X240155Y311381D01*
X239004D01*
Y304453D01*
X251321D01*
Y299054D01*
X251398Y298664D01*
X251620Y298333D01*
X252782Y297171D01*
X252716Y296843D01*
X252856Y296141D01*
X253254Y295545D01*
X253849Y295147D01*
X254552Y295008D01*
X255254Y295147D01*
X255849Y295545D01*
X256247Y296141D01*
X256387Y296843D01*
X256247Y297545D01*
X255849Y298141D01*
X255254Y298538D01*
X255158Y298557D01*
X255093Y298827D01*
X255105Y299078D01*
X255638Y299434D01*
X256036Y300029D01*
X256176Y300732D01*
X256036Y301434D01*
X255638Y302029D01*
X255360Y302215D01*
Y306928D01*
X255822Y307119D01*
X257820Y305122D01*
X258150Y304901D01*
X258541Y304823D01*
X265268D01*
X265454Y304545D01*
X266049Y304147D01*
X266752Y304008D01*
X267454Y304147D01*
X268049Y304545D01*
X268447Y305140D01*
X268587Y305843D01*
X268447Y306545D01*
X268049Y307141D01*
X267454Y307538D01*
X266752Y307678D01*
X266049Y307538D01*
X265454Y307141D01*
X265268Y306862D01*
X258963D01*
X256560Y309265D01*
Y315785D01*
X257060Y315992D01*
X260031Y313022D01*
X260361Y312801D01*
X260752Y312723D01*
X267368D01*
X267554Y312445D01*
X268149Y312047D01*
X268851Y311908D01*
X269554Y312047D01*
X270149Y312445D01*
X270547Y313040D01*
X270606Y313339D01*
X271149Y313504D01*
X271532Y313121D01*
Y295708D01*
X271032Y295382D01*
X270551Y295478D01*
X270538Y295489D01*
Y296125D01*
X264595D01*
Y291962D01*
X262852D01*
X262461Y291885D01*
X262130Y291664D01*
X251529Y281062D01*
X244652D01*
X244261Y280985D01*
X244230Y280964D01*
X243869Y281324D01*
X243947Y281440D01*
X244087Y282143D01*
X243977Y282693D01*
X244270Y283193D01*
X245538D01*
Y283402D01*
X245561Y283893D01*
X246038Y283893D01*
X249987D01*
X247774Y286107D01*
X248324Y286657D01*
X247774Y287207D01*
X249987Y289421D01*
X245561Y289421D01*
X245538Y289912D01*
Y290121D01*
X243291D01*
Y296382D01*
X245538D01*
Y296591D01*
X245561Y297082D01*
X246038Y297082D01*
X249987D01*
X247774Y299296D01*
X248324Y299846D01*
X247774Y300396D01*
X249987Y302610D01*
X245561Y302610D01*
X245538Y303100D01*
Y303310D01*
X239004D01*
Y296382D01*
X241252D01*
Y290121D01*
X239004D01*
Y283193D01*
X240233D01*
X240526Y282693D01*
X240416Y282143D01*
X240556Y281440D01*
X240954Y280845D01*
X241549Y280447D01*
X242251Y280308D01*
X242427Y280343D01*
X242989Y279945D01*
X243005Y279838D01*
X238720Y275553D01*
X238220Y275761D01*
Y334659D01*
X238720Y334759D01*
X238980Y334132D01*
X239194Y333853D01*
X241111Y335771D01*
X239194Y337689D01*
X238980Y337410D01*
X238720Y336784D01*
X238220Y336883D01*
Y343151D01*
X238720Y343320D01*
X239001Y342954D01*
D02*
G37*
G36*
X285759Y331815D02*
X285892Y331815D01*
X286259Y331494D01*
Y329384D01*
X287489Y330613D01*
X288039Y330063D01*
X288589Y330613D01*
X289818Y329384D01*
X289818Y331416D01*
X290318Y331695D01*
X290566Y331541D01*
X290579Y331439D01*
Y330536D01*
X319303D01*
Y329677D01*
X311671D01*
X313097Y328251D01*
X312744Y327897D01*
X313097Y327544D01*
X311671Y326118D01*
X319303D01*
Y325564D01*
X317902Y324162D01*
X315932D01*
X315734Y324202D01*
X314077D01*
X313878Y324162D01*
X307410D01*
X307259Y324192D01*
X301031D01*
X300641Y324115D01*
X300310Y323894D01*
X299861Y323445D01*
X299640Y323114D01*
X299618Y323003D01*
X299053Y322891D01*
X298461Y322495D01*
X297886Y322535D01*
X297878Y322540D01*
X297488Y322618D01*
X296198D01*
X296049Y322841D01*
X295454Y323238D01*
X294752Y323378D01*
X294049Y323238D01*
X293454Y322841D01*
X293268Y322562D01*
X289928D01*
Y324471D01*
X285520D01*
X285404Y325056D01*
X285006Y325652D01*
X284615Y325913D01*
X284701Y326197D01*
X282724Y328174D01*
X280963Y326413D01*
X282650D01*
X282802Y325913D01*
X282411Y325652D01*
X282013Y325056D01*
X281896Y324471D01*
X281425D01*
Y319512D01*
Y316364D01*
X280964Y316173D01*
X274853Y322283D01*
X274885Y322443D01*
X274753Y323106D01*
X274377Y323669D01*
X273815Y324044D01*
X273151Y324176D01*
X272488Y324044D01*
X271926Y323669D01*
X271701Y323331D01*
X271102Y323222D01*
X268371Y325953D01*
Y327583D01*
X272272D01*
Y325713D01*
X278609D01*
Y327758D01*
X278917Y327964D01*
X279705Y328751D01*
X279755Y328827D01*
X280255Y328675D01*
Y327120D01*
X282174Y329038D01*
X282724Y328488D01*
X282921Y328685D01*
X282567Y329038D01*
X284485Y330956D01*
X280337Y330956D01*
X280039Y331367D01*
X280147Y331815D01*
X285759D01*
D02*
G37*
G36*
X344811Y343495D02*
Y343215D01*
X344811Y343215D01*
X344896Y342788D01*
X345138Y342426D01*
X345736Y341827D01*
Y315705D01*
X343383Y313352D01*
X334173D01*
X332711Y314814D01*
Y318023D01*
X338188D01*
X338326Y317817D01*
X338888Y317442D01*
X339551Y317309D01*
X340215Y317442D01*
X340777Y317817D01*
X341153Y318379D01*
X341285Y319043D01*
X341153Y319706D01*
X340777Y320269D01*
X340215Y320644D01*
X339551Y320776D01*
X338888Y320644D01*
X338326Y320269D01*
X338188Y320062D01*
X332711D01*
Y321739D01*
X325543D01*
X325351Y322201D01*
X327423Y324273D01*
X327751Y324208D01*
X328454Y324347D01*
X329049Y324745D01*
X329447Y325341D01*
X329587Y326043D01*
X329447Y326745D01*
X329355Y326882D01*
X329591Y327323D01*
X338049D01*
X338439Y327401D01*
X338770Y327622D01*
X343972Y332825D01*
X344194Y333156D01*
X344271Y333546D01*
Y343257D01*
X344771Y343523D01*
X344811Y343495D01*
D02*
G37*
G36*
X298661Y314915D02*
X299222Y315476D01*
X299574D01*
X300105Y314945D01*
X299368Y314208D01*
X301907D01*
X301170Y314945D01*
X301701Y315476D01*
X302052D01*
X302632Y314897D01*
X309725D01*
X309963Y314659D01*
X309958Y314093D01*
X309720Y313867D01*
X308973D01*
Y313094D01*
X306379D01*
X307608Y311865D01*
X306901Y311158D01*
X305672Y312387D01*
Y309929D01*
X305202Y309857D01*
X305079D01*
X303219Y311718D01*
X302888Y311939D01*
X302498Y312016D01*
X299231D01*
Y313279D01*
X297771D01*
Y315055D01*
X297961Y315477D01*
X298661D01*
Y314915D01*
D02*
G37*
G36*
X506882Y281917D02*
X490417D01*
X490270Y282123D01*
X490176Y282417D01*
X492055Y285357D01*
X496037D01*
Y292282D01*
X489112D01*
Y286053D01*
X488136Y284527D01*
X456089D01*
X455631Y284627D01*
X455631Y285027D01*
Y286899D01*
X453351D01*
Y287399D01*
X452851D01*
Y290170D01*
X451113D01*
X451072Y290170D01*
X450613Y290269D01*
Y290270D01*
X450026D01*
X449790Y290711D01*
X449829Y290769D01*
X449992Y291589D01*
X449988Y291612D01*
X450305Y291999D01*
X451251D01*
Y297799D01*
X445451D01*
Y291999D01*
X445451D01*
X445725Y291665D01*
X445710Y291589D01*
X445873Y290769D01*
X446010Y290564D01*
X445854Y290270D01*
X445854D01*
Y289766D01*
X445084D01*
X444781Y290031D01*
X444665Y290221D01*
X444740Y290600D01*
Y309100D01*
X444577Y309919D01*
X444113Y310614D01*
X442816Y311910D01*
X443008Y312372D01*
X446883D01*
X447299Y312170D01*
X447299Y311872D01*
Y309899D01*
X449579D01*
Y309399D01*
X450079D01*
Y306627D01*
X451818D01*
X451859Y306627D01*
X452318Y306528D01*
Y306527D01*
X457077D01*
Y312270D01*
X457535Y312372D01*
X463908D01*
X465347Y310934D01*
Y300146D01*
X459951D01*
Y301499D01*
X452751D01*
Y295699D01*
X459951D01*
Y297291D01*
X465201D01*
X465349Y294488D01*
X465408Y294253D01*
X465455Y294017D01*
X465464Y294003D01*
X465468Y293988D01*
X465480Y293969D01*
X465486Y293948D01*
X465631Y293754D01*
X465765Y293553D01*
X465778Y293545D01*
X465787Y293531D01*
X469312Y290158D01*
Y285357D01*
X476237D01*
Y292282D01*
X471221D01*
X468202Y295172D01*
Y311526D01*
X468201Y311526D01*
X468202Y311526D01*
X468143Y311818D01*
X468093Y312072D01*
X468093Y312072D01*
X468093Y312072D01*
X467947Y312290D01*
X467783Y312535D01*
X467783Y312535D01*
X467783Y312535D01*
X465509Y314809D01*
X465509Y314809D01*
X465509Y314809D01*
X465508Y314809D01*
X465289Y314956D01*
X465249Y314982D01*
X465401Y315482D01*
X506882D01*
Y281917D01*
D02*
G37*
G36*
X339019Y292333D02*
Y281048D01*
X339009Y281033D01*
X338932Y280643D01*
Y277446D01*
X338514Y277228D01*
X338071Y277519D01*
Y281643D01*
X337994Y282033D01*
X337772Y282364D01*
X332520Y287617D01*
X332644Y287918D01*
X332644D01*
Y293861D01*
X329265D01*
X329074Y294323D01*
X329523Y294773D01*
X329852Y294708D01*
X330554Y294847D01*
X331149Y295245D01*
X331547Y295841D01*
X331687Y296543D01*
X331547Y297245D01*
X331149Y297841D01*
X330554Y298238D01*
X329852Y298378D01*
X329149Y298238D01*
X328554Y297841D01*
X328156Y297245D01*
X328016Y296543D01*
X328081Y296215D01*
X324619Y292753D01*
X323939Y292726D01*
X323001Y293664D01*
X322670Y293885D01*
X322280Y293962D01*
X319958D01*
X319724Y294252D01*
X319931Y294723D01*
X322451D01*
X322842Y294801D01*
X323172Y295022D01*
X327116Y298966D01*
X327463Y298897D01*
X328165Y299036D01*
X328760Y299434D01*
X329158Y300029D01*
X329298Y300732D01*
X329158Y301434D01*
X329051Y301594D01*
X329439Y301913D01*
X339019Y292333D01*
D02*
G37*
G36*
X294030Y302322D02*
X294361Y302101D01*
X294752Y302023D01*
X296684D01*
X296875Y301561D01*
X276199Y280885D01*
X265274D01*
X264884Y280808D01*
X264553Y280587D01*
X256490Y272524D01*
X255979Y272616D01*
X255929Y272651D01*
X255659Y273543D01*
X254999Y274777D01*
X254111Y275859D01*
X253029Y276747D01*
X251952Y277323D01*
X252077Y277823D01*
X252449D01*
X252839Y277901D01*
X253169Y278122D01*
X262060Y287012D01*
X262521Y286766D01*
X262516Y286743D01*
X262656Y286040D01*
X263054Y285445D01*
X263649Y285047D01*
X264352Y284908D01*
X265054Y285047D01*
X265649Y285445D01*
X266047Y286040D01*
X266187Y286743D01*
X266047Y287445D01*
X265649Y288041D01*
X265376Y288223D01*
X265528Y288723D01*
X271177D01*
X271567Y288801D01*
X271898Y289022D01*
X274472Y291596D01*
X274693Y291927D01*
X274771Y292317D01*
Y292629D01*
X274771Y292728D01*
X274972Y292872D01*
X275447Y292641D01*
X275472Y292616D01*
Y290599D01*
X276701Y291828D01*
X277252Y291278D01*
X277802Y291828D01*
X279031Y290599D01*
X279031Y293057D01*
X279501Y293129D01*
X279731D01*
Y297462D01*
X279960Y297780D01*
X280490Y297863D01*
X280704Y297649D01*
X281034Y297428D01*
X281425Y297350D01*
X281819D01*
Y295890D01*
X281819D01*
X282037Y295390D01*
X281908Y294743D01*
X282079Y293884D01*
X282565Y293157D01*
X283293Y292670D01*
X284152Y292500D01*
X285010Y292670D01*
X285738Y293157D01*
X286224Y293884D01*
X286395Y294743D01*
X286266Y295390D01*
X286586Y295890D01*
X290322D01*
Y300221D01*
Y305180D01*
X289540D01*
X289273Y305680D01*
X289447Y305941D01*
X289490Y306155D01*
X290032Y306320D01*
X294030Y302322D01*
D02*
G37*
G36*
X289595Y288803D02*
Y282603D01*
X289595D01*
Y282247D01*
X289595D01*
Y281639D01*
X289534Y281164D01*
X284969D01*
Y280934D01*
X284897Y280464D01*
X284469Y280464D01*
X282439D01*
X283668Y279235D01*
X282961Y278528D01*
X281732Y279757D01*
Y277218D01*
X281336Y277073D01*
X281232Y277052D01*
X280654Y277438D01*
X279952Y277578D01*
X279249Y277438D01*
X278654Y277041D01*
X278468Y276762D01*
X268798D01*
X268408Y276685D01*
X268077Y276464D01*
X264830Y273217D01*
X264779Y273257D01*
X263769Y273675D01*
X263028Y273773D01*
X262848Y274301D01*
X266194Y277646D01*
X277390D01*
X277780Y277724D01*
X278111Y277945D01*
X278931Y278764D01*
X278986Y278848D01*
X289133Y288994D01*
X289595Y288803D01*
D02*
G37*
G36*
X303376Y298423D02*
X302949Y298338D01*
X302354Y297941D01*
X301956Y297345D01*
X301816Y296643D01*
X301956Y295940D01*
X302354Y295345D01*
X302949Y294947D01*
X303651Y294808D01*
X303876Y294342D01*
X303956Y293940D01*
X304354Y293345D01*
X304949Y292947D01*
X305651Y292808D01*
X306063Y292889D01*
X306710Y292243D01*
Y289727D01*
X299044D01*
Y282603D01*
X306710D01*
Y281657D01*
X306255Y281547D01*
X306210Y281547D01*
X300451D01*
X302959Y279038D01*
X302606Y278685D01*
X302959Y278331D01*
X300451Y275822D01*
X305548D01*
X303040Y278331D01*
X303747Y279038D01*
X306255Y276530D01*
Y278287D01*
X306755Y278336D01*
X306787Y278175D01*
X307009Y277844D01*
X312532Y272321D01*
Y271814D01*
X306263D01*
Y271851D01*
X306186Y272241D01*
X305965Y272572D01*
X303902Y274635D01*
X303571Y274856D01*
X303181Y274933D01*
X297928D01*
X297507Y275122D01*
Y282247D01*
X297507D01*
Y282603D01*
X297507D01*
Y289727D01*
X290519D01*
X290328Y290189D01*
X299062Y298923D01*
X303327D01*
X303376Y298423D01*
D02*
G37*
G36*
X285364Y267107D02*
X285056Y266645D01*
X284916Y265943D01*
X285056Y265241D01*
X285454Y264645D01*
X286049Y264247D01*
X286752Y264108D01*
X287048Y264166D01*
X287548Y263756D01*
Y260962D01*
X282278D01*
X282126Y261462D01*
X282549Y261745D01*
X282947Y262340D01*
X283087Y263043D01*
X282947Y263745D01*
X282549Y264340D01*
X282502Y264951D01*
X284976Y267425D01*
X285364Y267107D01*
D02*
G37*
G36*
X260248Y260546D02*
Y259401D01*
X256775D01*
Y262121D01*
X257724Y263069D01*
X260248Y260546D01*
D02*
G37*
G36*
X243004Y274549D02*
X242466Y273543D01*
X242060Y272203D01*
X241923Y270811D01*
X242060Y269418D01*
X242466Y268078D01*
X243126Y266844D01*
X244014Y265762D01*
X245096Y264874D01*
X246330Y264214D01*
X247670Y263808D01*
X249062Y263671D01*
X250455Y263808D01*
X251795Y264214D01*
X253029Y264874D01*
X254111Y265762D01*
X254999Y266844D01*
X255532Y267841D01*
X256032Y267716D01*
Y264261D01*
X255034Y263264D01*
X254814Y262933D01*
X254736Y262543D01*
Y259401D01*
X252190D01*
X253419Y258172D01*
X252712Y257465D01*
X251483Y258694D01*
Y256236D01*
X251266Y256203D01*
X250782Y256164D01*
X250492Y256164D01*
X250008Y256203D01*
X249792Y256236D01*
X249792Y256664D01*
Y258694D01*
X248563Y257465D01*
X248013Y258015D01*
X247462Y257465D01*
X246233Y258694D01*
X246233Y256236D01*
X246017Y256203D01*
X245533Y256164D01*
X245243Y256164D01*
X244759Y256203D01*
X244543Y256236D01*
Y258694D01*
X243314Y257465D01*
X242607Y258172D01*
X243836Y259401D01*
X241421D01*
Y273673D01*
X242598Y274850D01*
X243004Y274549D01*
D02*
G37*
G36*
X410475Y242242D02*
Y231051D01*
X407837Y228413D01*
X407373Y227718D01*
X407210Y226899D01*
Y224786D01*
X391985Y209561D01*
X391521Y208866D01*
X391358Y208047D01*
Y156987D01*
X389911Y155540D01*
X325238D01*
X324365Y156413D01*
X323671Y156877D01*
X322851Y157040D01*
X322032Y156877D01*
X321337Y156413D01*
X320873Y155718D01*
X320710Y154899D01*
X320742Y154736D01*
X314884Y148878D01*
X314223D01*
Y150660D01*
X314222D01*
X314123Y151119D01*
X314123Y151160D01*
Y152899D01*
X311351D01*
X308579D01*
Y151160D01*
X308579Y151119D01*
X308481Y150660D01*
X308479D01*
Y145901D01*
X308771D01*
Y144765D01*
X307781Y143775D01*
X305657D01*
X305285Y144085D01*
Y157582D01*
X382799D01*
Y157571D01*
X383956Y157685D01*
X385068Y158022D01*
X386093Y158570D01*
X386991Y159308D01*
X387729Y160206D01*
X388276Y161231D01*
X388614Y162343D01*
X388728Y163500D01*
X388717D01*
Y227566D01*
X389217Y227640D01*
X389437Y226916D01*
X390133Y225613D01*
X391070Y224471D01*
X392212Y223534D01*
X393515Y222837D01*
X394929Y222408D01*
X396399Y222263D01*
X397869Y222408D01*
X399283Y222837D01*
X400586Y223534D01*
X401728Y224471D01*
X402665Y225613D01*
X403362Y226916D01*
X403791Y228329D01*
X403935Y229800D01*
X403791Y231270D01*
X403362Y232684D01*
X402665Y233987D01*
X401728Y235129D01*
X400586Y236066D01*
X399283Y236762D01*
X397869Y237191D01*
X396399Y237336D01*
X394929Y237191D01*
X393515Y236762D01*
X392212Y236066D01*
X391070Y235129D01*
X390133Y233987D01*
X389437Y232684D01*
X389217Y231959D01*
X388717Y232033D01*
Y235200D01*
X388715Y235208D01*
X388853Y236257D01*
X389262Y237242D01*
X389911Y238088D01*
X390757Y238737D01*
X391742Y239145D01*
X392791Y239284D01*
X392799Y239282D01*
X404799D01*
Y239271D01*
X405956Y239385D01*
X407068Y239722D01*
X408093Y240270D01*
X408991Y241008D01*
X409728Y241906D01*
X409975Y242367D01*
X410475Y242242D01*
D02*
G37*
G36*
X243702Y196843D02*
Y194978D01*
X236200D01*
Y194885D01*
X235813Y194568D01*
X235451Y194640D01*
X234632Y194477D01*
X233937Y194013D01*
X233473Y193318D01*
X233310Y192499D01*
X233473Y191679D01*
X233937Y190985D01*
X234632Y190521D01*
X235451Y190358D01*
X235726Y190412D01*
X235782Y190330D01*
X235518Y189830D01*
X231687D01*
Y179362D01*
X245603D01*
Y175411D01*
Y169627D01*
X244091D01*
X243114Y170605D01*
X243114Y170605D01*
X243113Y170605D01*
X242874Y170765D01*
X242651Y170914D01*
X242651Y170914D01*
X242650Y170914D01*
X242387Y170967D01*
X242105Y171023D01*
X242104Y171023D01*
X242104Y171023D01*
X232115D01*
Y172271D01*
X232015D01*
Y174017D01*
X227865D01*
X223716D01*
Y172271D01*
X223616D01*
Y166921D01*
Y161999D01*
Y157078D01*
X226947D01*
Y151835D01*
X226982Y151663D01*
X227017Y151484D01*
X227017Y151484D01*
X227017Y151484D01*
X227115Y151338D01*
X227216Y151186D01*
X227328Y151074D01*
X227154Y150200D01*
X227333Y149302D01*
X227841Y148541D01*
X228602Y148033D01*
X229499Y147855D01*
X230397Y148033D01*
X231157Y148541D01*
X231187Y148585D01*
X231687Y148434D01*
Y144906D01*
X231187Y144648D01*
X230722Y144978D01*
X228163Y147264D01*
X225877Y149823D01*
X223891Y152621D01*
X222847Y154510D01*
X222847Y154510D01*
X222847Y154510D01*
X222813Y154520D01*
X219088Y161641D01*
X214371Y171501D01*
X210008Y181524D01*
X208248Y185998D01*
X208248D01*
X208054Y186443D01*
X207915Y187500D01*
X208054Y188557D01*
X208462Y189542D01*
X209111Y190388D01*
X209957Y191037D01*
X210942Y191446D01*
X211296Y191492D01*
X211294Y191502D01*
X243318Y197164D01*
X243702Y196843D01*
D02*
G37*
G36*
X260434Y173097D02*
Y161779D01*
X254602Y155947D01*
X254102Y156154D01*
Y161076D01*
X254002D01*
Y162822D01*
X249852D01*
X245703D01*
Y161076D01*
X245603D01*
Y160573D01*
X245103Y160361D01*
X244497Y160766D01*
X243599Y160945D01*
X242702Y160766D01*
X241941Y160258D01*
X241446Y159517D01*
X236479D01*
X236117Y159880D01*
Y162900D01*
X236047Y163251D01*
X235848Y163549D01*
X234074Y165323D01*
X233776Y165522D01*
X233425Y165591D01*
X232115D01*
Y168168D01*
X241513D01*
X242489Y167191D01*
X242490Y167191D01*
X242490Y167190D01*
X242723Y167035D01*
X242952Y166881D01*
X242953Y166881D01*
X242953Y166881D01*
X243206Y166831D01*
X243499Y166772D01*
X243499Y166772D01*
X243499Y166772D01*
X245603D01*
Y165568D01*
X245703D01*
Y163822D01*
X249852D01*
X254002D01*
Y165568D01*
X254102D01*
Y166013D01*
X254488Y166330D01*
X254851Y166258D01*
X255670Y166421D01*
X256365Y166885D01*
X256829Y167579D01*
X256992Y168399D01*
X256829Y169218D01*
X256365Y169913D01*
X255670Y170377D01*
X254851Y170540D01*
X254602Y170490D01*
X254102Y170901D01*
Y172246D01*
X255470D01*
X255941Y171542D01*
X256702Y171033D01*
X257599Y170855D01*
X258497Y171033D01*
X259257Y171542D01*
X259766Y172302D01*
X259933Y173146D01*
X260434Y173097D01*
D02*
G37*
G36*
X641433Y150209D02*
Y139476D01*
X630786Y128829D01*
X620393Y138187D01*
X614736Y131904D01*
X614269Y132084D01*
X614269Y136521D01*
X615924Y138176D01*
X615924Y138176D01*
X615924Y138176D01*
X615924Y138176D01*
X615924Y138176D01*
X619584Y141836D01*
X622163Y139513D01*
X625743Y143489D01*
X625668Y143556D01*
X626837Y144854D01*
X623753Y147630D01*
X620669Y150407D01*
X619501Y149109D01*
X619427Y149176D01*
X615847Y145200D01*
X617948Y143308D01*
X617961Y142808D01*
X615275Y140122D01*
X614270Y141127D01*
X614444Y142000D01*
X614266Y142897D01*
X613757Y143658D01*
X612997Y144166D01*
X612800Y144205D01*
X612655Y144684D01*
X622351Y154380D01*
X623278Y153453D01*
X622433Y152514D01*
X622507Y152447D01*
X621339Y151150D01*
X624422Y148373D01*
X627506Y145597D01*
X628674Y146894D01*
X628749Y146827D01*
X631994Y150432D01*
X632328Y150803D01*
X632825Y151355D01*
X633324Y151368D01*
X635169Y149523D01*
X635333Y148702D01*
X635841Y147942D01*
X636602Y147433D01*
X637499Y147255D01*
X638397Y147433D01*
X639157Y147942D01*
X639666Y148702D01*
X639844Y149600D01*
X639666Y150497D01*
X639157Y151258D01*
X638397Y151766D01*
X637499Y151945D01*
X636602Y151766D01*
X635954Y151333D01*
X634297Y152990D01*
X635622Y154461D01*
X635622Y154461D01*
X636118Y155012D01*
X636618Y155025D01*
X641433Y150209D01*
D02*
G37*
G36*
X294817Y144085D02*
X294446Y143775D01*
X292648D01*
Y144513D01*
X287298D01*
Y144413D01*
X285551D01*
Y140264D01*
X285051D01*
Y139764D01*
X282476D01*
Y137003D01*
X282117Y136655D01*
X275246Y136869D01*
X256738Y137826D01*
X248191Y138445D01*
X248191Y138445D01*
Y138445D01*
X247713Y138419D01*
X246374Y138494D01*
X242991Y139069D01*
X239694Y140019D01*
X236523Y141332D01*
X233520Y142992D01*
X232185Y143940D01*
X232344Y144440D01*
X239966D01*
X240318Y143940D01*
X240210Y143399D01*
X240373Y142579D01*
X240837Y141885D01*
X241532Y141421D01*
X242351Y141258D01*
X242700Y141327D01*
X243200Y140917D01*
Y140019D01*
X251101D01*
Y139314D01*
X259601D01*
Y140481D01*
X265351D01*
X265702Y140551D01*
X266000Y140750D01*
X269000Y143750D01*
X269199Y144047D01*
X269239Y144250D01*
X269739Y144201D01*
Y144085D01*
X280207D01*
Y157582D01*
X294817D01*
Y144085D01*
D02*
G37*
%LPC*%
G36*
X602924Y465138D02*
Y461519D01*
X606544D01*
X606467Y462102D01*
X606049Y463111D01*
X605384Y463978D01*
X604517Y464643D01*
X603507Y465061D01*
X602924Y465138D01*
D02*
G37*
G36*
X601924D02*
X601341Y465061D01*
X600331Y464643D01*
X599465Y463978D01*
X598800Y463111D01*
X598381Y462102D01*
X598305Y461519D01*
X601924D01*
Y465138D01*
D02*
G37*
G36*
X624047Y476381D02*
X613634Y467005D01*
X620639Y459226D01*
X631051Y468601D01*
X624047Y476381D01*
D02*
G37*
G36*
X606544Y460519D02*
X602924D01*
Y456899D01*
X603507Y456976D01*
X604517Y457394D01*
X605384Y458059D01*
X606049Y458926D01*
X606467Y459936D01*
X606544Y460519D01*
D02*
G37*
G36*
X601924D02*
X598305D01*
X598381Y459936D01*
X598800Y458926D01*
X599465Y458059D01*
X600331Y457394D01*
X601341Y456976D01*
X601924Y456899D01*
Y460519D01*
D02*
G37*
G36*
X417951Y457135D02*
X416481Y456990D01*
X415067Y456561D01*
X413764Y455865D01*
X412622Y454928D01*
X411685Y453786D01*
X410989Y452483D01*
X410560Y451069D01*
X410415Y449599D01*
X410560Y448128D01*
X410989Y446715D01*
X411685Y445412D01*
X412622Y444270D01*
X413764Y443332D01*
X415067Y442636D01*
X416481Y442207D01*
X417951Y442062D01*
X419421Y442207D01*
X420835Y442636D01*
X422138Y443332D01*
X423280Y444270D01*
X424217Y445412D01*
X424914Y446715D01*
X425343Y448128D01*
X425487Y449599D01*
X425343Y451069D01*
X424914Y452483D01*
X424217Y453786D01*
X423280Y454928D01*
X422138Y455865D01*
X420835Y456561D01*
X419421Y456990D01*
X417951Y457135D01*
D02*
G37*
G36*
X654083Y415153D02*
X650593Y414086D01*
X651200Y412102D01*
X654690Y413168D01*
X654083Y415153D01*
D02*
G37*
G36*
X649637Y413794D02*
X646147Y412726D01*
X646754Y410742D01*
X650244Y411809D01*
X649637Y413794D01*
D02*
G37*
G36*
X673654Y397939D02*
X660255Y393842D01*
X663316Y383832D01*
X676715Y387928D01*
X673654Y397939D01*
D02*
G37*
G36*
X650987Y356641D02*
X649556Y356500D01*
X647699Y355937D01*
X645988Y355022D01*
X644488Y353791D01*
X643258Y352292D01*
X642343Y350580D01*
X642304Y350451D01*
X641842Y350260D01*
X640956Y350734D01*
X639353Y351220D01*
X638187Y351335D01*
Y342843D01*
Y334351D01*
X639353Y334466D01*
X640956Y334952D01*
X642432Y335741D01*
X643727Y336803D01*
X644789Y338098D01*
X645142Y338758D01*
X645632Y338855D01*
X645988Y338563D01*
X647699Y337649D01*
X649556Y337085D01*
X650987Y336944D01*
Y346793D01*
Y356641D01*
D02*
G37*
G36*
X651987D02*
Y347293D01*
X661336D01*
X661195Y348724D01*
X660631Y350580D01*
X659717Y352292D01*
X658486Y353791D01*
X656986Y355022D01*
X655275Y355937D01*
X653418Y356500D01*
X651987Y356641D01*
D02*
G37*
G36*
X637187Y351335D02*
X636021Y351220D01*
X634419Y350734D01*
X632942Y349944D01*
X631648Y348882D01*
X630585Y347588D01*
X629796Y346111D01*
X629310Y344509D01*
X629195Y343343D01*
X637187D01*
Y351335D01*
D02*
G37*
G36*
X661336Y346293D02*
X651987D01*
Y336944D01*
X653418Y337085D01*
X655275Y337649D01*
X656986Y338563D01*
X658486Y339794D01*
X659717Y341294D01*
X660631Y343005D01*
X661195Y344862D01*
X661336Y346293D01*
D02*
G37*
G36*
X625400Y338155D02*
X623719D01*
Y336670D01*
X625400D01*
Y338155D01*
D02*
G37*
G36*
X676673Y336879D02*
X674401D01*
Y335100D01*
X676673D01*
Y336879D01*
D02*
G37*
G36*
X673401D02*
X671130D01*
Y335100D01*
X673401D01*
Y336879D01*
D02*
G37*
G36*
X637187Y342343D02*
X629195D01*
X629310Y341176D01*
X629796Y339574D01*
X630585Y338098D01*
X631648Y336803D01*
X632942Y335741D01*
X634419Y334952D01*
X636021Y334466D01*
X637187Y334351D01*
Y342343D01*
D02*
G37*
G36*
X636515Y312432D02*
X635142Y312297D01*
X633821Y311896D01*
X632604Y311246D01*
X631537Y310370D01*
X630662Y309304D01*
X630012Y308087D01*
X629611Y306766D01*
X629476Y305393D01*
X629611Y304019D01*
X630012Y302699D01*
X630662Y301482D01*
X631537Y300415D01*
X632604Y299540D01*
X633821Y298889D01*
X635142Y298489D01*
X636515Y298353D01*
X637888Y298489D01*
X639209Y298889D01*
X640426Y299540D01*
X641493Y300415D01*
X642368Y301482D01*
X643019Y302699D01*
X643419Y304019D01*
X643554Y305393D01*
X643419Y306766D01*
X643019Y308087D01*
X642368Y309304D01*
X641493Y310370D01*
X640426Y311246D01*
X639209Y311896D01*
X637888Y312297D01*
X636515Y312432D01*
D02*
G37*
G36*
X579499Y306236D02*
X578029Y306091D01*
X576615Y305662D01*
X575312Y304966D01*
X574170Y304029D01*
X573233Y302887D01*
X572537Y301584D01*
X572108Y300170D01*
X571963Y298700D01*
X572108Y297229D01*
X572537Y295816D01*
X573233Y294513D01*
X574170Y293371D01*
X575312Y292434D01*
X576615Y291737D01*
X578029Y291308D01*
X579499Y291163D01*
X580969Y291308D01*
X582383Y291737D01*
X583686Y292434D01*
X584828Y293371D01*
X585765Y294513D01*
X586462Y295816D01*
X586891Y297229D01*
X587035Y298700D01*
X586891Y300170D01*
X586462Y301584D01*
X585765Y302887D01*
X584828Y304029D01*
X583686Y304966D01*
X582383Y305662D01*
X580969Y306091D01*
X579499Y306236D01*
D02*
G37*
G36*
X651715Y304428D02*
X650265Y304285D01*
X648870Y303862D01*
X647585Y303174D01*
X646458Y302250D01*
X645533Y301123D01*
X644846Y299838D01*
X644423Y298443D01*
X644280Y296993D01*
X644423Y295542D01*
X644846Y294147D01*
X645533Y292862D01*
X646458Y291736D01*
X647585Y290811D01*
X648870Y290124D01*
X650265Y289701D01*
X651715Y289558D01*
X653166Y289701D01*
X654560Y290124D01*
X655846Y290811D01*
X656972Y291736D01*
X657897Y292862D01*
X658584Y294147D01*
X659007Y295542D01*
X659150Y296993D01*
X659007Y298443D01*
X658584Y299838D01*
X657897Y301123D01*
X656972Y302250D01*
X655846Y303174D01*
X654560Y303862D01*
X653166Y304285D01*
X651715Y304428D01*
D02*
G37*
G36*
X616715Y295782D02*
X615734Y295653D01*
X614820Y295275D01*
X614035Y294672D01*
X613433Y293888D01*
X613055Y292973D01*
X612925Y291993D01*
X613055Y291012D01*
X613433Y290098D01*
X614035Y289313D01*
X614820Y288711D01*
X615734Y288332D01*
X616715Y288203D01*
X617696Y288332D01*
X618610Y288711D01*
X619395Y289313D01*
X619997Y290098D01*
X620376Y291012D01*
X620505Y291993D01*
X620376Y292973D01*
X619997Y293888D01*
X619395Y294672D01*
X618610Y295275D01*
X617696Y295653D01*
X616715Y295782D01*
D02*
G37*
G36*
X626715Y290782D02*
X625734Y290653D01*
X624820Y290275D01*
X624035Y289672D01*
X623433Y288888D01*
X623055Y287973D01*
X622926Y286993D01*
X623055Y286012D01*
X623433Y285098D01*
X624035Y284313D01*
X624820Y283711D01*
X625734Y283332D01*
X626715Y283203D01*
X627696Y283332D01*
X628610Y283711D01*
X629395Y284313D01*
X629997Y285098D01*
X630376Y286012D01*
X630505Y286993D01*
X630376Y287973D01*
X629997Y288888D01*
X629395Y289672D01*
X628610Y290275D01*
X627696Y290653D01*
X626715Y290782D01*
D02*
G37*
G36*
X616715Y285782D02*
X615734Y285653D01*
X614820Y285275D01*
X614035Y284672D01*
X613433Y283888D01*
X613055Y282974D01*
X612925Y281993D01*
X613055Y281012D01*
X613433Y280098D01*
X614035Y279313D01*
X614820Y278711D01*
X615734Y278332D01*
X616715Y278203D01*
X617696Y278332D01*
X618610Y278711D01*
X619395Y279313D01*
X619997Y280098D01*
X620376Y281012D01*
X620505Y281993D01*
X620376Y282974D01*
X619997Y283888D01*
X619395Y284672D01*
X618610Y285275D01*
X617696Y285653D01*
X616715Y285782D01*
D02*
G37*
G36*
X626715Y280782D02*
X625734Y280653D01*
X624820Y280275D01*
X624035Y279672D01*
X623433Y278888D01*
X623055Y277974D01*
X622926Y276993D01*
X623055Y276012D01*
X623433Y275098D01*
X624035Y274313D01*
X624820Y273711D01*
X625734Y273332D01*
X626715Y273203D01*
X627696Y273332D01*
X628610Y273711D01*
X629395Y274313D01*
X629997Y275098D01*
X630376Y276012D01*
X630505Y276993D01*
X630376Y277974D01*
X629997Y278888D01*
X629395Y279672D01*
X628610Y280275D01*
X627696Y280653D01*
X626715Y280782D01*
D02*
G37*
G36*
X616715Y275782D02*
X615734Y275653D01*
X614820Y275275D01*
X614035Y274672D01*
X613433Y273888D01*
X613055Y272973D01*
X612925Y271993D01*
X613055Y271012D01*
X613433Y270098D01*
X614035Y269313D01*
X614820Y268711D01*
X615734Y268332D01*
X616715Y268203D01*
X617696Y268332D01*
X618610Y268711D01*
X619395Y269313D01*
X619997Y270098D01*
X620376Y271012D01*
X620505Y271993D01*
X620376Y272973D01*
X619997Y273888D01*
X619395Y274672D01*
X618610Y275275D01*
X617696Y275653D01*
X616715Y275782D01*
D02*
G37*
G36*
X626715Y270782D02*
X625734Y270653D01*
X624820Y270275D01*
X624035Y269672D01*
X623433Y268888D01*
X623055Y267973D01*
X622926Y266993D01*
X623055Y266012D01*
X623433Y265098D01*
X624035Y264313D01*
X624820Y263711D01*
X625734Y263332D01*
X626715Y263203D01*
X627696Y263332D01*
X628610Y263711D01*
X629395Y264313D01*
X629997Y265098D01*
X630376Y266012D01*
X630505Y266993D01*
X630376Y267973D01*
X629997Y268888D01*
X629395Y269672D01*
X628610Y270275D01*
X627696Y270653D01*
X626715Y270782D01*
D02*
G37*
G36*
X616715Y265782D02*
X615734Y265653D01*
X614820Y265275D01*
X614035Y264672D01*
X613433Y263888D01*
X613055Y262973D01*
X612925Y261993D01*
X613055Y261012D01*
X613433Y260098D01*
X614035Y259313D01*
X614820Y258711D01*
X615734Y258332D01*
X616715Y258203D01*
X617696Y258332D01*
X618610Y258711D01*
X619395Y259313D01*
X619997Y260098D01*
X620376Y261012D01*
X620505Y261993D01*
X620376Y262973D01*
X619997Y263888D01*
X619395Y264672D01*
X618610Y265275D01*
X617696Y265653D01*
X616715Y265782D01*
D02*
G37*
G36*
X626715Y260782D02*
X625734Y260653D01*
X624820Y260275D01*
X624035Y259672D01*
X623433Y258888D01*
X623055Y257974D01*
X622926Y256993D01*
X623055Y256012D01*
X623433Y255098D01*
X624035Y254313D01*
X624820Y253711D01*
X625734Y253332D01*
X626715Y253203D01*
X627696Y253332D01*
X628610Y253711D01*
X629395Y254313D01*
X629997Y255098D01*
X630376Y256012D01*
X630505Y256993D01*
X630376Y257974D01*
X629997Y258888D01*
X629395Y259672D01*
X628610Y260275D01*
X627696Y260653D01*
X626715Y260782D01*
D02*
G37*
G36*
X435287Y252838D02*
X431837D01*
Y250938D01*
X435287D01*
Y252838D01*
D02*
G37*
G36*
X419437D02*
Y250938D01*
X422887D01*
Y252838D01*
X419437D01*
D02*
G37*
G36*
X430837D02*
X427387D01*
Y250938D01*
X430837D01*
Y252838D01*
D02*
G37*
G36*
X651715Y259427D02*
X650265Y259285D01*
X648870Y258862D01*
X647585Y258174D01*
X646458Y257250D01*
X645533Y256123D01*
X644846Y254838D01*
X644423Y253443D01*
X644280Y251993D01*
X644423Y250542D01*
X644846Y249148D01*
X645533Y247862D01*
X646458Y246736D01*
X647585Y245811D01*
X648870Y245124D01*
X650265Y244701D01*
X651715Y244558D01*
X653166Y244701D01*
X654560Y245124D01*
X655846Y245811D01*
X656972Y246736D01*
X657897Y247862D01*
X658584Y249148D01*
X659007Y250542D01*
X659150Y251993D01*
X659007Y253443D01*
X658584Y254838D01*
X657897Y256123D01*
X656972Y257250D01*
X655846Y258174D01*
X654560Y258862D01*
X653166Y259285D01*
X651715Y259427D01*
D02*
G37*
G36*
X636515Y250532D02*
X635142Y250397D01*
X633821Y249996D01*
X632604Y249346D01*
X631537Y248470D01*
X630662Y247404D01*
X630012Y246187D01*
X629611Y244866D01*
X629476Y243493D01*
X629611Y242119D01*
X630012Y240799D01*
X630662Y239582D01*
X631537Y238515D01*
X632604Y237640D01*
X633821Y236989D01*
X635142Y236589D01*
X636515Y236453D01*
X637888Y236589D01*
X639209Y236989D01*
X640426Y237640D01*
X641493Y238515D01*
X642368Y239582D01*
X643019Y240799D01*
X643419Y242119D01*
X643554Y243493D01*
X643419Y244866D01*
X643019Y246187D01*
X642368Y247404D01*
X641493Y248470D01*
X640426Y249346D01*
X639209Y249996D01*
X637888Y250397D01*
X636515Y250532D01*
D02*
G37*
G36*
X435287Y234938D02*
X431337D01*
X427387D01*
Y233338D01*
X427387Y233038D01*
X427387Y232538D01*
Y230938D01*
X431337D01*
X435287D01*
Y232538D01*
X435287Y232838D01*
X435287Y233338D01*
Y234938D01*
D02*
G37*
G36*
Y229938D02*
X431337D01*
X427387D01*
Y228338D01*
X427387Y228038D01*
X427387Y227538D01*
Y225938D01*
X431337D01*
X435287D01*
Y227538D01*
X435287Y227838D01*
X435287Y228338D01*
Y229938D01*
D02*
G37*
G36*
X422887Y224938D02*
X418937D01*
X414987D01*
Y223338D01*
X414987Y223038D01*
X414987Y222538D01*
Y220938D01*
X418937D01*
X422887D01*
Y222538D01*
X422887Y222838D01*
X422887Y223338D01*
Y224938D01*
D02*
G37*
G36*
X631351Y222540D02*
X630532Y222377D01*
X629837Y221913D01*
X629373Y221218D01*
X629210Y220399D01*
X629373Y219579D01*
X629837Y218885D01*
X629855Y218872D01*
X629905Y218375D01*
X627055Y215525D01*
X626351Y215665D01*
X625532Y215502D01*
X624837Y215038D01*
X624373Y214343D01*
X624210Y213524D01*
X624373Y212704D01*
X624837Y212010D01*
X625532Y211546D01*
X626351Y211383D01*
X627171Y211546D01*
X627865Y212010D01*
X628329Y212704D01*
X628492Y213524D01*
X628352Y214227D01*
X632000Y217875D01*
X632199Y218173D01*
X632260Y218480D01*
X632865Y218885D01*
X633329Y219579D01*
X633492Y220399D01*
X633329Y221218D01*
X632865Y221913D01*
X632170Y222377D01*
X631351Y222540D01*
D02*
G37*
G36*
X669999Y227536D02*
X668529Y227391D01*
X667115Y226962D01*
X665812Y226266D01*
X664670Y225329D01*
X663733Y224187D01*
X663036Y222884D01*
X662608Y221470D01*
X662463Y220000D01*
X662608Y218529D01*
X663036Y217116D01*
X663733Y215813D01*
X664670Y214671D01*
X665812Y213734D01*
X667115Y213037D01*
X668529Y212608D01*
X669999Y212463D01*
X671469Y212608D01*
X672883Y213037D01*
X674186Y213734D01*
X675328Y214671D01*
X676265Y215813D01*
X676962Y217116D01*
X677391Y218529D01*
X677535Y220000D01*
X677391Y221470D01*
X676962Y222884D01*
X676265Y224187D01*
X675328Y225329D01*
X674186Y226266D01*
X672883Y226962D01*
X671469Y227391D01*
X669999Y227536D01*
D02*
G37*
G36*
X435287Y224938D02*
X431337D01*
X427387D01*
Y223396D01*
X427287Y222938D01*
X427287Y222605D01*
X427232Y222559D01*
X426412Y222396D01*
X425718Y221932D01*
X425253Y221238D01*
X425091Y220418D01*
X425253Y219599D01*
X425718Y218904D01*
X426412Y218440D01*
X426937Y218336D01*
X427034Y218033D01*
X426725Y217534D01*
X426132Y217416D01*
X425437Y216952D01*
X424973Y216257D01*
X424810Y215438D01*
X424973Y214618D01*
X425437Y213924D01*
X426132Y213459D01*
X426951Y213297D01*
X427287Y213021D01*
Y212938D01*
X427387Y212479D01*
Y210938D01*
X431337D01*
X435287D01*
Y212479D01*
X435387Y212938D01*
X435387Y213296D01*
Y217938D01*
Y222579D01*
X435387Y222938D01*
X435287Y223396D01*
Y224938D01*
D02*
G37*
G36*
X422887Y219938D02*
X418937D01*
X414987D01*
Y218396D01*
X414887Y217938D01*
X414887Y217579D01*
Y215832D01*
X413202Y214148D01*
X413003Y213850D01*
X412933Y213499D01*
Y212611D01*
X412337Y212213D01*
X411873Y211518D01*
X411710Y210699D01*
X411873Y209879D01*
X412227Y209349D01*
X411873Y208818D01*
X411710Y207999D01*
X411873Y207179D01*
X412337Y206485D01*
X413032Y206021D01*
X413851Y205858D01*
X414487Y205984D01*
X414563Y205938D01*
X418937D01*
X422887D01*
Y207838D01*
X422987Y207938D01*
X422987D01*
Y212938D01*
Y217579D01*
X422987Y217938D01*
X422887Y218396D01*
Y219938D01*
D02*
G37*
G36*
X651969Y203718D02*
X651362Y201733D01*
X654852Y200666D01*
X655459Y202651D01*
X651969Y203718D01*
D02*
G37*
G36*
X663316Y213569D02*
X660255Y203558D01*
X673654Y199462D01*
X676715Y209472D01*
X663316Y213569D01*
D02*
G37*
G36*
X656415Y202358D02*
X655809Y200374D01*
X659299Y199307D01*
X659905Y201291D01*
X656415Y202358D01*
D02*
G37*
G36*
X402699Y207040D02*
X401880Y206877D01*
X401185Y206413D01*
X400721Y205718D01*
X400558Y204899D01*
X400721Y204079D01*
X401185Y203385D01*
X401476Y203191D01*
Y172339D01*
X401083Y171994D01*
X400851Y172040D01*
X400032Y171877D01*
X399337Y171413D01*
X398873Y170718D01*
X398710Y169899D01*
X398873Y169079D01*
X399337Y168385D01*
X400032Y167921D01*
X400851Y167758D01*
X401671Y167921D01*
X402365Y168385D01*
X402829Y169079D01*
X402992Y169899D01*
X402924Y170241D01*
X403564Y170882D01*
X403829Y171279D01*
X403923Y171747D01*
Y203191D01*
X404213Y203385D01*
X404677Y204079D01*
X404840Y204899D01*
X404677Y205718D01*
X404213Y206413D01*
X403518Y206877D01*
X402699Y207040D01*
D02*
G37*
G36*
X653106Y180173D02*
X650449Y171482D01*
X650346Y171453D01*
X650346D01*
X643341Y163674D01*
X653754Y154299D01*
X660758Y162078D01*
X653530Y168586D01*
X653776Y169021D01*
X663444Y166066D01*
X666505Y176076D01*
X653106Y180173D01*
D02*
G37*
G36*
X435287Y169938D02*
X431337D01*
X427387D01*
Y168396D01*
X427287Y167938D01*
X427287Y167579D01*
Y162938D01*
X435387D01*
Y163350D01*
X435887Y163617D01*
X436234Y163385D01*
X437151Y163203D01*
X438068Y163385D01*
X438845Y163904D01*
X439365Y164682D01*
X439547Y165599D01*
X439365Y166516D01*
X438845Y167293D01*
X438068Y167812D01*
X437151Y167995D01*
X436234Y167812D01*
X435887Y167580D01*
X435387Y167848D01*
Y167938D01*
X435287Y168396D01*
Y169938D01*
D02*
G37*
G36*
X561174Y465126D02*
Y461507D01*
X564794D01*
X564717Y462090D01*
X564299Y463099D01*
X563634Y463966D01*
X562767Y464631D01*
X561757Y465049D01*
X561174Y465126D01*
D02*
G37*
G36*
X560174D02*
X559591Y465049D01*
X558581Y464631D01*
X557715Y463966D01*
X557050Y463099D01*
X556631Y462090D01*
X556555Y461507D01*
X560174D01*
Y465126D01*
D02*
G37*
G36*
X508405Y444667D02*
Y441048D01*
X512025D01*
X511948Y441631D01*
X511530Y442640D01*
X510865Y443507D01*
X509998Y444172D01*
X508988Y444590D01*
X508405Y444667D01*
D02*
G37*
G36*
X466037D02*
Y441048D01*
X469657D01*
X469580Y441631D01*
X469162Y442640D01*
X468497Y443507D01*
X467630Y444172D01*
X466620Y444590D01*
X466037Y444667D01*
D02*
G37*
G36*
X507405D02*
X506822Y444590D01*
X505813Y444172D01*
X504946Y443507D01*
X504281Y442640D01*
X503862Y441631D01*
X503786Y441048D01*
X507405D01*
Y444667D01*
D02*
G37*
G36*
X465037D02*
X464454Y444590D01*
X463445Y444172D01*
X462578Y443507D01*
X461913Y442640D01*
X461494Y441631D01*
X461418Y441048D01*
X465037D01*
Y444667D01*
D02*
G37*
G36*
X512025Y440048D02*
X508405D01*
Y436428D01*
X508988Y436505D01*
X509998Y436923D01*
X510865Y437588D01*
X511530Y438455D01*
X511948Y439465D01*
X512025Y440048D01*
D02*
G37*
G36*
X469657D02*
X466037D01*
Y436428D01*
X466620Y436505D01*
X467630Y436923D01*
X468497Y437588D01*
X469162Y438455D01*
X469580Y439465D01*
X469657Y440048D01*
D02*
G37*
G36*
X507405D02*
X503786D01*
X503862Y439465D01*
X504281Y438455D01*
X504946Y437588D01*
X505813Y436923D01*
X506822Y436505D01*
X507405Y436428D01*
Y440048D01*
D02*
G37*
G36*
X465037D02*
X461418D01*
X461494Y439465D01*
X461913Y438455D01*
X462578Y437588D01*
X463445Y436923D01*
X464454Y436505D01*
X465037Y436428D01*
Y440048D01*
D02*
G37*
G36*
X246019Y392552D02*
X244159Y390692D01*
X246019Y388833D01*
Y392552D01*
D02*
G37*
G36*
X239507Y392552D02*
Y388833D01*
X241367Y390692D01*
X239507Y392552D01*
D02*
G37*
G36*
X245312Y393259D02*
X240214D01*
X242428Y391046D01*
X242074Y390692D01*
X242428Y390339D01*
X240214Y388125D01*
X245312D01*
X243099Y390339D01*
X243452Y390692D01*
X243099Y391046D01*
X245312Y393259D01*
D02*
G37*
G36*
X244426Y378988D02*
X242281D01*
X243354Y377915D01*
X244426Y378988D01*
D02*
G37*
G36*
X241574Y378281D02*
Y375151D01*
X243000Y376577D01*
X243354Y376224D01*
X243707Y376577D01*
X245133Y375151D01*
Y378281D01*
X243707Y376855D01*
X243354Y377208D01*
X243000Y376855D01*
X241574Y378281D01*
D02*
G37*
G36*
X243354Y375517D02*
X242281Y374444D01*
X244426D01*
X243354Y375517D01*
D02*
G37*
G36*
X244426Y369933D02*
X242281D01*
X243354Y368860D01*
X244426Y369933D01*
D02*
G37*
G36*
X245133Y369226D02*
X243707Y367799D01*
X243354Y368153D01*
X243000Y367799D01*
X241574Y369226D01*
Y366096D01*
X243000Y367522D01*
X243354Y367169D01*
X243707Y367522D01*
X245133Y366096D01*
Y369226D01*
D02*
G37*
G36*
X243354Y366462D02*
X242281Y365389D01*
X244426D01*
X243354Y366462D01*
D02*
G37*
G36*
X245232Y363418D02*
X243372Y361559D01*
X245232Y359699D01*
Y363418D01*
D02*
G37*
G36*
X303471Y366226D02*
X303295Y365963D01*
X303134Y365154D01*
X303295Y364344D01*
X303471Y364082D01*
X304543Y365154D01*
X303471Y366226D01*
D02*
G37*
G36*
X313328Y366226D02*
X312256Y365154D01*
X313328Y364082D01*
X313504Y364344D01*
X313665Y365154D01*
X313504Y365963D01*
X313328Y366226D01*
D02*
G37*
G36*
X362651Y354476D02*
X361988Y354344D01*
X361426Y353969D01*
X361050Y353406D01*
X360918Y352743D01*
X361050Y352080D01*
X361426Y351517D01*
X361988Y351142D01*
X362651Y351009D01*
X363315Y351142D01*
X363877Y351517D01*
X364253Y352080D01*
X364385Y352743D01*
X364253Y353406D01*
X363877Y353969D01*
X363315Y354344D01*
X362651Y354476D01*
D02*
G37*
G36*
X362752Y301476D02*
X362088Y301344D01*
X361526Y300969D01*
X361150Y300406D01*
X361018Y299743D01*
X361150Y299079D01*
X361526Y298517D01*
X362088Y298142D01*
X362752Y298009D01*
X363415Y298142D01*
X363977Y298517D01*
X364353Y299079D01*
X364485Y299743D01*
X364353Y300406D01*
X363977Y300969D01*
X363415Y301344D01*
X362752Y301476D01*
D02*
G37*
G36*
X325834Y273844D02*
X324762Y272771D01*
X326907D01*
X325834Y273844D01*
D02*
G37*
G36*
X319929D02*
X318856Y272771D01*
X321001D01*
X319929Y273844D01*
D02*
G37*
G36*
X357615Y271507D02*
X355470D01*
X356543Y270435D01*
X357615Y271507D01*
D02*
G37*
G36*
X358322Y270800D02*
X356896Y269374D01*
X356543Y269728D01*
X356189Y269374D01*
X354763Y270800D01*
Y267671D01*
X356189Y269097D01*
X356543Y268744D01*
X356896Y269097D01*
X358322Y267671D01*
Y270800D01*
D02*
G37*
G36*
X331354Y269521D02*
X330281Y268448D01*
X331354Y267376D01*
Y269521D01*
D02*
G37*
G36*
X356543Y268037D02*
X355470Y266964D01*
X357615D01*
X356543Y268037D01*
D02*
G37*
G36*
X345804Y266881D02*
X343659D01*
X344732Y265809D01*
X345804Y266881D01*
D02*
G37*
G36*
X330844Y265602D02*
X328699D01*
X329771Y264529D01*
X330844Y265602D01*
D02*
G37*
G36*
X331551Y264895D02*
X330125Y263469D01*
X329771Y263822D01*
X329418Y263469D01*
X327992Y264895D01*
Y261766D01*
X329418Y263192D01*
X329771Y262838D01*
X330125Y263192D01*
X331551Y261766D01*
Y264895D01*
D02*
G37*
G36*
X356944Y263615D02*
X355872Y262543D01*
X356944Y261470D01*
Y263615D01*
D02*
G37*
G36*
X329771Y262131D02*
X328699Y261059D01*
X330844D01*
X329771Y262131D01*
D02*
G37*
G36*
X356944Y257316D02*
X355872Y256244D01*
X356944Y255171D01*
Y257316D01*
D02*
G37*
G36*
X360283Y258669D02*
X359581Y258530D01*
X358985Y258132D01*
X358587Y257537D01*
X358448Y256834D01*
X358587Y256132D01*
X358985Y255537D01*
X359581Y255139D01*
X360283Y254999D01*
X360985Y255139D01*
X361581Y255537D01*
X361979Y256132D01*
X362118Y256834D01*
X361979Y257537D01*
X361581Y258132D01*
X360985Y258530D01*
X360283Y258669D01*
D02*
G37*
G36*
X356944Y251017D02*
X355872Y249944D01*
X356944Y248872D01*
Y251017D01*
D02*
G37*
G36*
X341189Y247466D02*
X340116Y246393D01*
X342261D01*
X341189Y247466D01*
D02*
G37*
G36*
X335283D02*
X334211Y246393D01*
X336355D01*
X335283Y247466D01*
D02*
G37*
G36*
X329378D02*
X328305Y246393D01*
X330450D01*
X329378Y247466D01*
D02*
G37*
G36*
X348578Y248261D02*
X347506Y247188D01*
X348578Y246116D01*
Y248261D01*
D02*
G37*
G36*
X344035Y248261D02*
Y246116D01*
X345107Y247188D01*
X344035Y248261D01*
D02*
G37*
G36*
X347871Y248968D02*
X344742D01*
X346168Y247542D01*
X345814Y247188D01*
X346168Y246835D01*
X344742Y245409D01*
X347871D01*
X346445Y246835D01*
X346799Y247188D01*
X346445Y247542D01*
X347871Y248968D01*
D02*
G37*
G36*
X293643Y361226D02*
X292571Y360154D01*
X293643Y359082D01*
X293818Y359344D01*
X293980Y360154D01*
X293818Y360963D01*
X293643Y361226D01*
D02*
G37*
G36*
X283786Y361226D02*
X283611Y360963D01*
X283449Y360154D01*
X283611Y359344D01*
X283786Y359082D01*
X284858Y360154D01*
X283786Y361226D01*
D02*
G37*
G36*
X293643Y356226D02*
X292571Y355154D01*
X293643Y354082D01*
X293818Y354344D01*
X293980Y355154D01*
X293818Y355963D01*
X293643Y356226D01*
D02*
G37*
G36*
X283786Y356226D02*
X283611Y355963D01*
X283449Y355154D01*
X283611Y354344D01*
X283786Y354082D01*
X284858Y355154D01*
X283786Y356226D01*
D02*
G37*
G36*
X308796Y348673D02*
X306651D01*
X307724Y347600D01*
X308796Y348673D01*
D02*
G37*
G36*
X291864Y357269D02*
X285565D01*
X284755Y357108D01*
X284493Y356933D01*
X285918Y355507D01*
X285565Y355154D01*
X285918Y354800D01*
X284493Y353375D01*
X284755Y353199D01*
X285522Y353047D01*
X285616Y352922D01*
X285784Y352538D01*
X285556Y352197D01*
X285465Y351741D01*
X285416Y351495D01*
X285461Y351243D01*
X285461D01*
Y346284D01*
X291404D01*
Y351243D01*
X289546D01*
X289087Y351495D01*
X288947Y352197D01*
X288719Y352538D01*
X288986Y353038D01*
X291864D01*
X292674Y353199D01*
X292936Y353375D01*
X291511Y354800D01*
X291864Y355154D01*
X291511Y355507D01*
X292936Y356933D01*
X292674Y357108D01*
X291864Y357269D01*
D02*
G37*
G36*
X305944Y347966D02*
Y344836D01*
X307370Y346263D01*
X307724Y345909D01*
X308078Y346263D01*
X309504Y344837D01*
Y347966D01*
X308078Y346540D01*
X307724Y346893D01*
X307370Y346540D01*
X305944Y347966D01*
D02*
G37*
G36*
X307724Y345202D02*
X306651Y344129D01*
X308796D01*
X307724Y345202D01*
D02*
G37*
G36*
X286161Y344718D02*
Y342573D01*
X287233Y343645D01*
X286161Y344718D01*
D02*
G37*
G36*
X290704Y344718D02*
X289632Y343645D01*
X290704Y342573D01*
Y344718D01*
D02*
G37*
G36*
X279681Y344521D02*
X278608Y343448D01*
X279681Y342376D01*
Y344521D01*
D02*
G37*
G36*
X275137Y344521D02*
Y342376D01*
X276210Y343448D01*
X275137Y344521D01*
D02*
G37*
G36*
X289997Y345425D02*
X286868D01*
X288294Y343999D01*
X287941Y343645D01*
X288294Y343292D01*
X286868Y341866D01*
X289997D01*
X288571Y343292D01*
X288925Y343645D01*
X288571Y343999D01*
X289997Y345425D01*
D02*
G37*
G36*
X278974Y345228D02*
X275844D01*
X277270Y343802D01*
X276917Y343448D01*
X277270Y343095D01*
X275844Y341669D01*
X278974D01*
X277548Y343095D01*
X277901Y343448D01*
X277548Y343802D01*
X278974Y345228D01*
D02*
G37*
G36*
X272972Y336351D02*
Y333222D01*
X274536Y334787D01*
X272972Y336351D01*
D02*
G37*
G36*
X250694Y301903D02*
X248638Y299846D01*
X250694Y297789D01*
Y301903D01*
D02*
G37*
G36*
X269838Y299836D02*
X268766Y298763D01*
X269838Y297691D01*
Y299836D01*
D02*
G37*
G36*
X265295Y299836D02*
Y297691D01*
X266367Y298763D01*
X265295Y299836D01*
D02*
G37*
G36*
X269131Y300543D02*
X266002D01*
X267428Y299117D01*
X267074Y298763D01*
X267428Y298410D01*
X266002Y296984D01*
X269131D01*
X267705Y298410D01*
X268059Y298763D01*
X267705Y299117D01*
X269131Y300543D01*
D02*
G37*
G36*
X250694Y288714D02*
X248638Y286657D01*
X250694Y284600D01*
Y288714D01*
D02*
G37*
G36*
X288039Y329749D02*
X286966Y328677D01*
X289111D01*
X288039Y329749D01*
D02*
G37*
G36*
X285192Y330249D02*
X283628Y328685D01*
X285192Y327120D01*
Y330249D01*
D02*
G37*
G36*
X310964Y328970D02*
Y326825D01*
X312036Y327897D01*
X310964Y328970D01*
D02*
G37*
G36*
X291279D02*
Y326825D01*
X292352Y327897D01*
X291279Y328970D01*
D02*
G37*
G36*
X301122D02*
Y326825D01*
X302194Y327897D01*
X301122Y328970D01*
D02*
G37*
G36*
X310389Y328970D02*
X309317Y327897D01*
X310389Y326825D01*
Y328970D01*
D02*
G37*
G36*
X300547D02*
X299474Y327897D01*
X300547Y326825D01*
Y328970D01*
D02*
G37*
G36*
X305846Y329677D02*
X305346Y329677D01*
X301829D01*
X303255Y328251D01*
X302901Y327897D01*
X303255Y327544D01*
X301829Y326118D01*
X305346D01*
X305665Y326118D01*
X306165Y326118D01*
X309682D01*
X308256Y327544D01*
X308610Y327897D01*
X308256Y328251D01*
X309682Y329677D01*
X306165D01*
X305846Y329677D01*
D02*
G37*
G36*
X296004D02*
X295503Y329677D01*
X291986D01*
X293412Y328251D01*
X293059Y327897D01*
X293412Y327544D01*
X291986Y326118D01*
X295503D01*
X295822Y326118D01*
X296322Y326118D01*
X299840D01*
X298414Y327544D01*
X298767Y327897D01*
X298414Y328251D01*
X299840Y329677D01*
X296322D01*
X296004Y329677D01*
D02*
G37*
G36*
X449079Y308899D02*
X447299D01*
Y306627D01*
X449079D01*
Y308899D01*
D02*
G37*
G36*
X451151Y305199D02*
X448851D01*
Y302899D01*
X451151D01*
Y305199D01*
D02*
G37*
G36*
X447851D02*
X445551D01*
Y302899D01*
X447851D01*
Y305199D01*
D02*
G37*
G36*
X451151Y301899D02*
X448851D01*
Y299599D01*
X451151D01*
Y301899D01*
D02*
G37*
G36*
X447851D02*
X445551D01*
Y299599D01*
X447851D01*
Y301899D01*
D02*
G37*
G36*
X486037Y292182D02*
X483174D01*
Y289320D01*
X486037D01*
Y292182D01*
D02*
G37*
G36*
X482174D02*
X479312D01*
Y289320D01*
X482174D01*
Y292182D01*
D02*
G37*
G36*
X453851Y290170D02*
Y287899D01*
X455631D01*
Y290170D01*
X453851D01*
D02*
G37*
G36*
X486037Y288320D02*
X483174D01*
Y285457D01*
X486037D01*
Y288320D01*
D02*
G37*
G36*
X482174D02*
X479312D01*
Y285457D01*
X482174D01*
Y288320D01*
D02*
G37*
G36*
X336355Y293161D02*
X334211D01*
X335283Y292089D01*
X336355Y293161D01*
D02*
G37*
G36*
X337063Y292454D02*
X335636Y291028D01*
X335283Y291381D01*
X334929Y291028D01*
X333504Y292454D01*
Y289325D01*
X334929Y290751D01*
X335283Y290397D01*
X335636Y290751D01*
X337063Y289325D01*
Y292454D01*
D02*
G37*
G36*
X335283Y289690D02*
X334210Y288618D01*
X336355D01*
X335283Y289690D01*
D02*
G37*
G36*
X277252Y290964D02*
X276179Y289892D01*
X278324D01*
X277252Y290964D01*
D02*
G37*
G36*
X299744Y280840D02*
Y276530D01*
X301899Y278685D01*
X299744Y280840D01*
D02*
G37*
G36*
X249085Y259401D02*
X246940D01*
X248013Y258329D01*
X249085Y259401D01*
D02*
G37*
G36*
X314123Y155678D02*
X311851D01*
Y153899D01*
X314123D01*
Y155678D01*
D02*
G37*
G36*
X310851D02*
X308579D01*
Y153899D01*
X310851D01*
Y155678D01*
D02*
G37*
G36*
X219299Y192036D02*
X217829Y191891D01*
X216415Y191462D01*
X215112Y190766D01*
X213970Y189829D01*
X213033Y188687D01*
X212336Y187384D01*
X211908Y185970D01*
X211763Y184500D01*
X211908Y183029D01*
X212336Y181616D01*
X213033Y180313D01*
X213970Y179171D01*
X215112Y178234D01*
X216415Y177537D01*
X217829Y177108D01*
X219299Y176963D01*
X220769Y177108D01*
X222183Y177537D01*
X223486Y178234D01*
X224628Y179171D01*
X225565Y180313D01*
X226262Y181616D01*
X226691Y183029D01*
X226835Y184500D01*
X226691Y185970D01*
X226262Y187384D01*
X225565Y188687D01*
X224628Y189829D01*
X223486Y190766D01*
X222183Y191462D01*
X220769Y191891D01*
X219299Y192036D01*
D02*
G37*
G36*
X232015Y177092D02*
X228365D01*
Y175017D01*
X232015D01*
Y177092D01*
D02*
G37*
G36*
X227365D02*
X223716D01*
Y175017D01*
X227365D01*
Y177092D01*
D02*
G37*
G36*
X284551Y144413D02*
X282476D01*
Y140764D01*
X284551D01*
Y144413D01*
D02*
G37*
%LPD*%
D10*
X673901Y334600D02*
D03*
Y329482D02*
D03*
X311351Y153399D02*
D03*
Y148281D02*
D03*
X354574Y397976D02*
D03*
Y403094D02*
D03*
X303393Y333015D02*
D03*
Y327897D02*
D03*
X308118Y333015D02*
D03*
Y327897D02*
D03*
X346307Y252307D02*
D03*
Y247188D02*
D03*
X260251Y345225D02*
D03*
Y350343D02*
D03*
X288433Y348763D02*
D03*
Y343645D02*
D03*
X313236Y333015D02*
D03*
Y327897D02*
D03*
X267566Y293645D02*
D03*
Y298763D02*
D03*
X293551Y333015D02*
D03*
Y327897D02*
D03*
X298275Y333015D02*
D03*
Y327897D02*
D03*
X277409Y348567D02*
D03*
Y343448D02*
D03*
X317566Y327897D02*
D03*
Y333015D02*
D03*
D11*
X448233Y287399D02*
D03*
X453351D02*
D03*
X449579Y309399D02*
D03*
X454697D02*
D03*
X308118Y336952D02*
D03*
X313236D02*
D03*
X324653Y263330D02*
D03*
X329771D02*
D03*
X351425Y269236D02*
D03*
X356543D02*
D03*
X330165Y290889D02*
D03*
X335283D02*
D03*
X302606Y346401D02*
D03*
X307724D02*
D03*
X243354Y367661D02*
D03*
X248472D02*
D03*
X248472Y376716D02*
D03*
X243354D02*
D03*
D12*
X619351Y332430D02*
D03*
Y336367D02*
D03*
X596351Y118430D02*
D03*
Y122367D02*
D03*
X606351Y118430D02*
D03*
Y122367D02*
D03*
X644351Y386430D02*
D03*
Y390367D02*
D03*
X277252Y295411D02*
D03*
Y291474D02*
D03*
X350244Y401519D02*
D03*
Y397582D02*
D03*
X344732Y261362D02*
D03*
Y265299D02*
D03*
X248013Y253881D02*
D03*
Y257818D02*
D03*
X242763Y253881D02*
D03*
Y257818D02*
D03*
X288039Y330259D02*
D03*
Y334196D02*
D03*
X269929Y333803D02*
D03*
Y329866D02*
D03*
X325834Y278291D02*
D03*
Y274354D02*
D03*
X319929Y278291D02*
D03*
Y274354D02*
D03*
X335283Y251913D02*
D03*
Y247976D02*
D03*
X329378Y251913D02*
D03*
Y247976D02*
D03*
X341189Y251913D02*
D03*
Y247976D02*
D03*
X358905Y371992D02*
D03*
Y368055D02*
D03*
X362551Y371911D02*
D03*
Y367974D02*
D03*
X253262Y253881D02*
D03*
Y257818D02*
D03*
X258511Y253881D02*
D03*
Y257818D02*
D03*
X276622Y356637D02*
D03*
Y360574D02*
D03*
X311453Y311584D02*
D03*
Y307647D02*
D03*
X307452Y307574D02*
D03*
Y311511D02*
D03*
X280559Y364511D02*
D03*
Y360574D02*
D03*
X296751Y307060D02*
D03*
Y310997D02*
D03*
D13*
X257320Y141399D02*
D03*
X253383D02*
D03*
X249920Y195299D02*
D03*
X245983D02*
D03*
X646383Y372399D02*
D03*
X650320D02*
D03*
D14*
X249320Y142399D02*
D03*
X245383D02*
D03*
X242320Y192599D02*
D03*
X238383D02*
D03*
X646383Y368399D02*
D03*
X650320D02*
D03*
X340007Y262936D02*
D03*
X336070D02*
D03*
X303393Y336952D02*
D03*
X299456D02*
D03*
X287251Y278685D02*
D03*
X283314D02*
D03*
X325834Y268448D02*
D03*
X329771D02*
D03*
X351425Y256244D02*
D03*
X355362D02*
D03*
X351425Y249944D02*
D03*
X355362D02*
D03*
X351425Y262543D02*
D03*
X355362D02*
D03*
X284102Y302700D02*
D03*
X288039D02*
D03*
X284102Y298370D02*
D03*
X288039D02*
D03*
X287645Y321992D02*
D03*
X283708D02*
D03*
X287645Y317661D02*
D03*
X283708D02*
D03*
X336070Y257425D02*
D03*
X340007D02*
D03*
D15*
X238692Y149674D02*
D03*
Y184596D02*
D03*
X260679Y148322D02*
D03*
Y193086D02*
D03*
D16*
X227865Y159753D02*
D03*
Y164674D02*
D03*
Y169596D02*
D03*
Y174517D02*
D03*
X249852Y158401D02*
D03*
Y178086D02*
D03*
Y183007D02*
D03*
Y163322D02*
D03*
Y173165D02*
D03*
Y168243D02*
D03*
D17*
X274973Y151091D02*
D03*
X300051D02*
D03*
D18*
X285051Y140264D02*
D03*
X289973D02*
D03*
D19*
X418937Y165438D02*
D03*
Y185438D02*
D03*
Y190438D02*
D03*
Y170438D02*
D03*
Y180438D02*
D03*
Y175438D02*
D03*
Y215438D02*
D03*
Y220438D02*
D03*
Y195438D02*
D03*
Y210438D02*
D03*
Y225438D02*
D03*
Y230438D02*
D03*
Y200438D02*
D03*
Y205438D02*
D03*
Y235438D02*
D03*
Y240438D02*
D03*
Y245438D02*
D03*
Y250438D02*
D03*
X431337Y165438D02*
D03*
Y170438D02*
D03*
Y175438D02*
D03*
Y180438D02*
D03*
Y200438D02*
D03*
Y205438D02*
D03*
Y185438D02*
D03*
Y195438D02*
D03*
Y190438D02*
D03*
Y210438D02*
D03*
Y220438D02*
D03*
Y225438D02*
D03*
Y215438D02*
D03*
Y245438D02*
D03*
Y250438D02*
D03*
Y230438D02*
D03*
Y240438D02*
D03*
Y235438D02*
D03*
D20*
X448351Y294899D02*
D03*
Y302399D02*
D03*
D21*
X456351Y298599D02*
D03*
D22*
X600351Y122367D02*
D03*
Y118430D02*
D03*
X610351Y122367D02*
D03*
Y118430D02*
D03*
X644351Y378430D02*
D03*
Y382367D02*
D03*
D23*
X622097Y129610D02*
D03*
X652050Y162876D02*
D03*
D24*
X620795Y144345D02*
D03*
X624088Y148002D02*
D03*
X627380Y151659D02*
D03*
X630674Y155317D02*
D03*
X633967Y158974D02*
D03*
X637259Y162631D02*
D03*
D25*
X658275Y173119D02*
D03*
X668485Y206515D02*
D03*
D26*
X650868Y185923D02*
D03*
X652307Y190629D02*
D03*
X653746Y195336D02*
D03*
X655184Y200042D02*
D03*
D27*
X623219Y336170D02*
D03*
Y332627D02*
D03*
X248013Y246598D02*
D03*
Y250141D02*
D03*
X242763Y246598D02*
D03*
Y250141D02*
D03*
X253262Y246598D02*
D03*
Y250141D02*
D03*
X258511Y246598D02*
D03*
Y250141D02*
D03*
D28*
X655184Y397358D02*
D03*
X650868Y411477D02*
D03*
X652307Y406771D02*
D03*
X653746Y402064D02*
D03*
D29*
X658275Y424281D02*
D03*
X668485Y390885D02*
D03*
D30*
X621041Y453069D02*
D03*
X624334Y449412D02*
D03*
X630920Y442097D02*
D03*
X627626Y445755D02*
D03*
X634213Y438440D02*
D03*
X637505Y434783D02*
D03*
D31*
X622343Y467803D02*
D03*
X652296Y434537D02*
D03*
D32*
X313498Y153399D02*
X314599Y154500D01*
X311351Y153399D02*
X313498D01*
X437851Y228099D02*
Y235399D01*
X435190Y225438D02*
X437851Y228099D01*
X431337Y225438D02*
X435190D01*
X413712Y222538D02*
Y225438D01*
Y222538D02*
X415812Y220438D01*
X624748Y148002D02*
X629351Y143399D01*
X624088Y148002D02*
X624748D01*
X431337Y230438D02*
X437851D01*
X431337Y235438D02*
X437851D01*
X418937Y225438D02*
X431337D01*
Y210438D02*
X436412D01*
X436451Y210399D01*
X431337Y170438D02*
X436273D01*
X436351Y170360D01*
X649921Y190629D02*
X652307D01*
X648651Y191899D02*
X649921Y190629D01*
X646398Y191899D02*
X648651D01*
X645598Y191099D02*
X646398Y191899D01*
X645773Y186799D02*
X649992D01*
X650868Y185923D01*
X431337Y250438D02*
Y252113D01*
X428051Y255399D02*
X431337Y252113D01*
X423851Y255399D02*
X428051D01*
X418937Y250438D02*
Y252285D01*
X422051Y255399D01*
X423851D01*
X418937Y240438D02*
Y245438D01*
Y250438D01*
X426887Y241438D02*
X427887Y240438D01*
X431337D01*
X424751Y241438D02*
X426887D01*
X424751Y244438D02*
X426887D01*
X427887Y245438D01*
X431337D01*
X413751Y147399D02*
Y155899D01*
X414951Y157099D01*
X421651D01*
X413712Y225438D02*
X418937D01*
X415812Y220438D02*
X418937D01*
X413751Y202699D02*
Y204299D01*
X414890Y205438D01*
X418937D01*
X615231Y336367D02*
X619351D01*
X615199Y336399D02*
X615231Y336367D01*
X619351Y332430D02*
X623022D01*
X623219Y332627D01*
X252351Y141399D02*
X253383D01*
X251351Y142399D02*
X252351Y141399D01*
X249320Y142399D02*
X251351D01*
X244351D02*
X245383D01*
X243351Y143399D02*
X244351Y142399D01*
X242351Y143399D02*
X243351D01*
X447351Y303399D02*
Y306399D01*
Y303399D02*
X448351Y302399D01*
X447351Y306399D02*
Y307171D01*
X449579Y309399D01*
X453351Y287399D02*
Y289399D01*
X455199Y291247D01*
Y292600D01*
X504453Y344399D02*
Y348397D01*
Y346398D01*
X510451D01*
Y351396D02*
Y353396D01*
X509451Y354396D01*
X507452D01*
X506452Y353396D01*
Y351396D01*
X507452Y350397D01*
X509451D01*
X510451Y351396D01*
X512451Y356395D02*
X506452D01*
Y359394D01*
X507452Y360394D01*
X509451D01*
X510451Y359394D01*
Y356395D01*
X304181Y312543D02*
X305212Y311511D01*
X307452D01*
X258511Y257818D02*
Y260574D01*
X355362Y256244D02*
Y262543D01*
X362551Y267643D02*
X363851Y268943D01*
X360552Y267643D02*
X362551D01*
X355362Y249944D02*
X362052D01*
X350451Y246443D02*
X351652D01*
X344732Y265299D02*
Y268055D01*
X335283Y290889D02*
X338039D01*
X328240Y274354D02*
X329651Y272943D01*
X319929Y274354D02*
X328240D01*
X355362Y249944D02*
Y256244D01*
X346307Y247073D02*
X349822D01*
X335283Y247976D02*
X341189D01*
X329378D02*
X335283D01*
X343944Y247188D02*
X346307D01*
X343157Y247976D02*
X343944Y247188D01*
X341189Y247976D02*
X343157D01*
X327318D02*
X329378D01*
X325751Y249543D02*
X327318Y247976D01*
X248013Y257818D02*
X253262D01*
X242763D02*
X248013D01*
X242763D02*
Y260968D01*
X356543Y269236D02*
X358959D01*
X360552Y267643D01*
Y263943D02*
Y267643D01*
X356543Y262543D02*
X359152D01*
X360552Y263943D01*
X346307Y247073D02*
Y247188D01*
X349822Y247073D02*
X350451Y246443D01*
X302999Y277495D02*
Y278685D01*
X298451Y277543D02*
X298499Y277495D01*
X302999D01*
X329771Y263330D02*
Y272823D01*
X329651Y272943D02*
X329771Y272823D01*
X277409Y341677D02*
Y343448D01*
X275441Y339708D02*
X277409Y341677D01*
X275441Y338232D02*
Y339708D01*
X288433Y342070D02*
Y343645D01*
X287505Y341143D02*
X288433Y342070D01*
X285251Y341143D02*
X287505D01*
X283170Y365154D02*
X288715D01*
X282527Y364511D02*
X283170Y365154D01*
X280559Y364511D02*
X282527D01*
X280559Y364511D02*
X280559Y364511D01*
X278590Y364511D02*
X280559D01*
X276622Y362543D02*
X278590Y364511D01*
X276622Y360574D02*
Y362543D01*
X280559Y360574D02*
X288294D01*
X288715Y360154D01*
Y355154D02*
Y360154D01*
X282527Y343867D02*
X285251Y341143D01*
X282527Y343867D02*
Y353881D01*
X283800Y355154D01*
X288715D01*
X162747Y370816D02*
X166746D01*
X164746D01*
Y364818D01*
X169745D02*
X171744D01*
X172744Y365817D01*
Y367817D01*
X171744Y368816D01*
X169745D01*
X168745Y367817D01*
Y365817D01*
X169745Y364818D01*
X174743Y362819D02*
Y368816D01*
X177742D01*
X178742Y367817D01*
Y365817D01*
X177742Y364818D01*
X174743D01*
X186739Y370816D02*
Y364818D01*
X190738D01*
X193737Y368816D02*
X195736D01*
X196736Y367817D01*
Y364818D01*
X193737D01*
X192737Y365817D01*
X193737Y366817D01*
X196736D01*
X198735Y368816D02*
Y365817D01*
X199735Y364818D01*
X202734D01*
Y363818D01*
X201734Y362819D01*
X200735D01*
X202734Y364818D02*
Y368816D01*
X207732Y364818D02*
X205733D01*
X204733Y365817D01*
Y367817D01*
X205733Y368816D01*
X207732D01*
X208732Y367817D01*
Y366817D01*
X204733D01*
X210731Y368816D02*
Y364818D01*
Y366817D01*
X211731Y367817D01*
X212731Y368816D01*
X213731D01*
X556453Y348398D02*
Y346398D01*
X557453Y345399D01*
X561451D01*
X562451Y346398D01*
Y348398D01*
X561451Y349397D01*
X557453D01*
X556453Y348398D01*
X558452Y351397D02*
X561451D01*
X562451Y352396D01*
Y355396D01*
X558452D01*
X557453Y358395D02*
X558452D01*
Y357395D01*
Y359394D01*
Y358395D01*
X561451D01*
X562451Y359394D01*
Y362393D02*
Y364393D01*
Y363393D01*
X556453D01*
Y362393D01*
X562451Y367392D02*
Y369391D01*
Y368391D01*
X558452D01*
Y367392D01*
X562451Y372390D02*
X558452D01*
Y375389D01*
X559452Y376389D01*
X562451D01*
Y381387D02*
Y379388D01*
X561451Y378388D01*
X559452D01*
X558452Y379388D01*
Y381387D01*
X559452Y382387D01*
X560452D01*
Y378388D01*
X172744Y297358D02*
X170744D01*
X169745Y296358D01*
Y292360D01*
X170744Y291360D01*
X172744D01*
X173743Y292360D01*
Y296358D01*
X172744Y297358D01*
X175743Y295359D02*
Y292360D01*
X176742Y291360D01*
X179742D01*
Y295359D01*
X182740Y296358D02*
Y295359D01*
X181741D01*
X183740D01*
X182740D01*
Y292360D01*
X183740Y291360D01*
X186739D02*
X188739D01*
X187739D01*
Y297358D01*
X186739D01*
X191738Y291360D02*
X193737D01*
X192737D01*
Y295359D01*
X191738D01*
X196736Y291360D02*
Y295359D01*
X199735D01*
X200735Y294359D01*
Y291360D01*
X205733D02*
X203734D01*
X202734Y292360D01*
Y294359D01*
X203734Y295359D01*
X205733D01*
X206733Y294359D01*
Y293359D01*
X202734D01*
X582951Y345399D02*
X576953D01*
X578952Y347398D01*
X576953Y349397D01*
X582951D01*
X578952Y351397D02*
X581952D01*
X582951Y352396D01*
Y355396D01*
X578952D01*
X582951Y357395D02*
Y359394D01*
Y358395D01*
X576953D01*
Y357395D01*
X577953Y363393D02*
X578952D01*
Y362393D01*
Y364393D01*
Y363393D01*
X581952D01*
X582951Y364393D01*
Y367392D02*
Y369391D01*
Y368391D01*
X578952D01*
Y367392D01*
X576953Y372390D02*
X582951D01*
Y376389D01*
X578952Y379388D02*
Y381387D01*
X579952Y382387D01*
X582951D01*
Y379388D01*
X581952Y378388D01*
X580952Y379388D01*
Y382387D01*
X578952Y384386D02*
X581952D01*
X582951Y385386D01*
Y388385D01*
X583951D01*
X584950Y387385D01*
Y386385D01*
X582951Y388385D02*
X578952D01*
X582951Y393383D02*
Y391384D01*
X581952Y390384D01*
X579952D01*
X578952Y391384D01*
Y393383D01*
X579952Y394383D01*
X580952D01*
Y390384D01*
X578952Y396382D02*
X582951D01*
X580952D01*
X579952Y397382D01*
X578952Y398382D01*
Y399381D01*
X161747Y272943D02*
Y278941D01*
X163747Y276942D01*
X165746Y278941D01*
Y272943D01*
X167745Y276942D02*
Y273942D01*
X168745Y272943D01*
X171744D01*
Y276942D01*
X173743Y272943D02*
X175743D01*
X174743D01*
Y278941D01*
X173743D01*
X179742Y277941D02*
Y276942D01*
X178742D01*
X180741D01*
X179742D01*
Y273942D01*
X180741Y272943D01*
X183740D02*
X185740D01*
X184740D01*
Y276942D01*
X183740D01*
X188739Y272943D02*
X190738D01*
X189738D01*
Y278941D01*
X188739D01*
X194737Y276942D02*
X196736D01*
X197736Y275942D01*
Y272943D01*
X194737D01*
X193737Y273942D01*
X194737Y274942D01*
X197736D01*
X199735Y276942D02*
Y273942D01*
X200735Y272943D01*
X203734D01*
Y271943D01*
X202734Y270943D01*
X201734D01*
X203734Y272943D02*
Y276942D01*
X208732Y272943D02*
X206733D01*
X205733Y273942D01*
Y275942D01*
X206733Y276942D01*
X208732D01*
X209732Y275942D01*
Y274942D01*
X205733D01*
X211731Y276942D02*
Y272943D01*
Y274942D01*
X212731Y275942D01*
X213731Y276942D01*
X214730D01*
D33*
X410650Y147900D02*
Y169098D01*
X436808Y195438D02*
X437099Y195147D01*
X431337Y195438D02*
X436808D01*
X437812Y190438D02*
X437851Y190399D01*
X431337Y190438D02*
X437812D01*
X249852Y168243D02*
X254695D01*
X254699Y168200D02*
X254862Y168209D01*
X654224Y406771D02*
X658351Y410899D01*
X652307Y406771D02*
X654224D01*
X651934Y406399D02*
X652307Y406771D01*
X680351Y321899D02*
Y355399D01*
X668851Y310399D02*
X680351Y321899D01*
X668851Y248899D02*
Y310399D01*
X659851Y239899D02*
X668851Y248899D01*
X659851Y213899D02*
Y239899D01*
X657351Y211399D02*
X659851Y213899D01*
X650351Y211399D02*
X657351D01*
X649751Y210799D02*
X650351Y211399D01*
X649736Y210799D02*
X649751D01*
X647451Y208514D02*
X649736Y210799D01*
X647451Y205283D02*
Y208514D01*
Y205283D02*
X648351Y204383D01*
Y197399D02*
Y204383D01*
X652683Y196399D02*
X653746Y195336D01*
X649351Y196399D02*
X652683D01*
X648351Y197399D02*
X649351Y196399D01*
X642351Y197399D02*
X648351D01*
X637351Y192399D02*
X642351Y197399D01*
X637351Y178899D02*
Y192399D01*
X627351Y168899D02*
X637351Y178899D01*
X627351Y161399D02*
Y168899D01*
X622351Y156399D02*
X627351Y161399D01*
X627091Y151659D02*
X627380D01*
X622351Y156399D02*
X627091Y151659D01*
X413299Y166451D02*
X414312Y165438D01*
X422851Y260399D02*
X431351D01*
X438699Y267747D01*
X227865Y169596D02*
X242104D01*
X243499Y168200D01*
X249810D02*
X249852Y168243D01*
X488918Y283100D02*
X492574Y288820D01*
X438699Y267747D02*
Y278900D01*
X442899Y283100D01*
X488918D01*
X630919Y442097D02*
X635799Y446977D01*
X627381Y151659D02*
X627441D01*
X437899Y313800D02*
X464499D01*
X466774Y294563D02*
X472774Y288820D01*
X466774Y294563D02*
Y311526D01*
X464499Y313800D02*
X466774Y311526D01*
X437399Y313800D02*
X437899D01*
X437299Y314500D02*
X437399Y313800D01*
X456668Y298719D02*
X466555D01*
X466774Y294563D01*
X635799Y446977D02*
Y449000D01*
X243499Y168200D02*
X249810D01*
X426312Y180438D02*
X431337D01*
X425851Y180899D02*
X426312Y180438D01*
X414312Y165438D02*
X418937D01*
X254695Y168243D02*
X254851Y168399D01*
X616715Y261993D02*
X617216Y261493D01*
X414051Y185438D02*
X418937D01*
X414051Y171099D02*
X414712Y170438D01*
X418937D01*
X414190Y180438D02*
X418937D01*
X414312Y175438D02*
X418937D01*
X414051Y171099D02*
Y185438D01*
X411990Y170438D02*
X414712D01*
X410650Y169098D02*
X411990Y170438D01*
X616715Y281993D02*
X616885Y281824D01*
X435998Y142899D02*
X437498Y141399D01*
X607351D01*
X622351Y156399D01*
X354574Y403094D02*
X356937D01*
D34*
X408699Y140800D02*
Y146100D01*
X407899Y146900D02*
X408699Y146100D01*
X406499Y145200D02*
Y191547D01*
X416290Y210438D02*
X418937D01*
X425851Y185399D02*
X425890Y185438D01*
X431337D01*
X436312Y200438D02*
X436351Y200399D01*
X431337Y200438D02*
X436312D01*
X431337Y205438D02*
X431376Y205399D01*
X436351D01*
X418398Y194899D02*
X418937Y195438D01*
X415351Y194899D02*
X418398D01*
X418898Y200399D02*
X418937Y200438D01*
X407899Y187447D02*
X415351Y194899D01*
X427299Y270500D02*
Y278700D01*
X425099Y273000D02*
Y278500D01*
X422999Y270600D02*
Y278300D01*
X420799Y273000D02*
Y278100D01*
X436299Y293600D01*
X621499Y362800D02*
X639299Y380600D01*
Y432500D01*
X637505Y434295D02*
X639299Y432500D01*
X637505Y434295D02*
Y434783D01*
X615275Y138825D02*
X620795Y144345D01*
X613351Y136901D02*
X615275Y138825D01*
X631299Y355100D02*
X642899Y366700D01*
X619599Y344600D02*
X624199Y348700D01*
X624099Y358700D02*
X624199Y348700D01*
X621299Y350900D02*
Y358700D01*
X640499Y377900D01*
Y433800D01*
X637499Y452900D02*
X641899Y448500D01*
Y435200D02*
Y448500D01*
X640499Y433800D02*
X641899Y435200D01*
X634799Y452900D02*
X637499D01*
X627653Y445754D02*
X634799Y452900D01*
X627626Y445754D02*
X627653D01*
X630674Y155316D02*
X636390Y149600D01*
X637499D01*
X257563Y173164D02*
X257599Y173200D01*
X249852Y173164D02*
X257563D01*
X445475Y440024D02*
X445851Y440548D01*
X439216Y440024D02*
X445475D01*
X434899Y435707D02*
X439216Y440024D01*
X434899Y434100D02*
Y435707D01*
X439899Y291300D02*
Y307700D01*
X434799Y312800D02*
X439899Y307700D01*
X434799Y312800D02*
X434899Y434100D01*
X427299Y278700D02*
X439899Y291300D01*
X488016Y440151D02*
X488219Y440548D01*
X488016Y440151D02*
Y449624D01*
X485640Y452000D02*
X488016Y449624D01*
X440199Y452000D02*
X485640D01*
X438699Y292100D02*
Y307200D01*
X433599Y312300D02*
X438699Y307200D01*
X433599Y312300D02*
Y445400D01*
X425099Y278500D02*
X438699Y292100D01*
X433599Y445400D02*
X440199Y452000D01*
X236099Y158600D02*
X243599D01*
X235199Y159500D02*
X236099Y158600D01*
X235199Y159500D02*
Y162900D01*
X233425Y164674D02*
X235199Y162900D01*
X227865Y164674D02*
X233425D01*
X653746Y402065D02*
X658499Y403600D01*
X661699Y406800D02*
Y417300D01*
X407899Y146900D02*
Y187447D01*
X227865Y151835D02*
X229499Y150200D01*
X227865Y151835D02*
Y159753D01*
X539495Y462500D02*
X540988Y461007D01*
X506499Y462500D02*
X539495D01*
X431201Y175574D02*
X431337Y175438D01*
X426399Y175574D02*
X431201D01*
X422999Y278300D02*
X437499Y292800D01*
Y306700D01*
X432399Y311800D02*
X437499Y306700D01*
X432399Y311800D02*
Y446300D01*
X439599Y453500D01*
X497499D01*
X506499Y462500D01*
X582738Y461019D02*
X582916Y461197D01*
Y471924D01*
X581140Y473700D02*
X582916Y471924D01*
X537399Y473700D02*
X581140D01*
X431201Y165574D02*
X431337Y165438D01*
X436299Y293600D02*
Y306200D01*
X431199Y311300D02*
X436299Y306200D01*
X431199Y311300D02*
Y447200D01*
X438699Y454700D01*
X496899D01*
X505899Y463700D01*
X527399D01*
X537399Y473700D01*
X426951Y215438D02*
X431337D01*
X427232Y220438D02*
X431337D01*
Y165438D02*
X437151D01*
X423399Y154999D02*
X425599Y157199D01*
X418651Y154999D02*
X423399D01*
X417151Y153499D02*
X418651Y154999D01*
X417151Y145999D02*
Y153499D01*
X419951Y144999D02*
X422951Y141999D01*
X419951Y144999D02*
Y152199D01*
X421451Y153699D01*
X425861D01*
X429351Y157189D01*
X406499Y191547D02*
X415351Y200399D01*
X418898D01*
X413851Y207999D02*
X416290Y210438D01*
X413851Y210699D02*
Y213499D01*
X415790Y215438D01*
X418937D01*
X249852Y154399D02*
Y158400D01*
X249320Y142399D02*
X249351Y142430D01*
Y149399D01*
X261351Y161399D01*
Y175399D01*
X258664Y178086D02*
X261351Y175399D01*
X249852Y178086D02*
X258664D01*
X245983Y190767D02*
X249852Y186898D01*
Y183007D02*
Y186898D01*
X257351Y181399D02*
Y182399D01*
X266351Y158399D02*
X268351Y156399D01*
Y144399D02*
Y156399D01*
X265351Y141399D02*
X268351Y144399D01*
X257320Y141399D02*
X265351D01*
X596351Y118430D02*
X600351D01*
X606351D02*
X610351D01*
X613351Y126399D02*
X613351Y136901D01*
X637259Y162631D02*
X644351Y155539D01*
X633967Y158974D02*
X642351Y150589D01*
X623383Y118430D02*
X644351Y139399D01*
Y155539D01*
X642351Y139096D02*
Y150589D01*
X623654Y120399D02*
X642351Y139096D01*
X614351Y120399D02*
X623654D01*
X600351Y127399D02*
X609351Y136399D01*
X600351Y122367D02*
Y127399D01*
X612383Y118430D02*
X614351Y120399D01*
X610351Y118430D02*
X612383D01*
X615383D02*
X623383D01*
X612351Y115399D02*
X615383Y118430D01*
X604351Y115399D02*
X612351D01*
X601320Y118430D02*
X604351Y115399D01*
X600351Y118430D02*
X601320D01*
X612099Y142000D02*
X615275Y138825D01*
X626351Y213524D02*
X631351Y218524D01*
Y220399D01*
X610383Y122399D02*
X613351D01*
X610351Y122367D02*
X610383Y122399D01*
X591351Y127367D02*
Y135399D01*
Y127367D02*
X596351Y122367D01*
X597351Y135399D02*
X600351Y138399D01*
X610351D01*
X611351Y137399D01*
Y133399D02*
Y137399D01*
X606351Y128399D02*
X611351Y133399D01*
X606351Y122367D02*
Y128399D01*
X642899Y366700D02*
Y371947D01*
X643351Y372399D01*
X646383D01*
X646383Y368399D02*
X650320Y372336D01*
Y372399D01*
Y373430D01*
X648351Y375399D02*
X650320Y373430D01*
X648351Y375399D02*
Y389399D01*
X624099Y358700D02*
X643830Y378430D01*
X644351D01*
Y386430D02*
X644351Y386430D01*
X644351Y382367D02*
Y384399D01*
Y386430D01*
X644351Y390367D02*
Y393399D01*
X655184Y397358D02*
X659699Y398800D01*
X621041Y453069D02*
X624371Y456399D01*
X644351Y393399D02*
X646351Y395399D01*
X650351D01*
X652310Y397358D01*
X655184D01*
X624371Y456399D02*
X627351D01*
X628351Y453399D02*
X630351D01*
X624364Y449412D02*
X628351Y453399D01*
X624334Y449412D02*
X624364D01*
X644351Y384399D02*
X646351D01*
X658499Y403600D02*
X661699Y406800D01*
X659699Y398800D02*
X664199Y403300D01*
Y414700D01*
X648351Y399399D02*
X651017Y402064D01*
X654351Y370399D02*
Y376399D01*
X652351Y368399D02*
X654351Y370399D01*
X650320Y368399D02*
X652351D01*
X651017Y402064D02*
X653746D01*
X250051Y189699D02*
X257351Y182399D01*
X250051Y189699D02*
Y194399D01*
X235551Y192599D02*
X238383D01*
X235451Y192499D02*
X235551Y192599D01*
X242320D02*
X245983D01*
X245983Y192599D01*
Y190767D02*
Y192599D01*
Y195299D01*
X273151Y322443D02*
Y322543D01*
X267352Y325531D02*
X280152Y312731D01*
X266151Y325034D02*
X276151Y315034D01*
X264951Y324537D02*
X274952Y314537D01*
X263752Y324040D02*
X273751Y314040D01*
X262551Y323543D02*
X272551Y313543D01*
X267352Y325531D02*
Y338555D01*
X266151Y325034D02*
Y339052D01*
X264951Y324537D02*
Y339549D01*
X263752Y324040D02*
Y340046D01*
X262551Y323543D02*
Y340543D01*
X273151Y322543D02*
X281452Y314243D01*
X283552D01*
X294752Y303043D01*
X314336D01*
X315436Y304143D01*
X298199Y301443D02*
X298363Y301279D01*
X278210Y279513D02*
X298640Y299943D01*
X308152Y298043D02*
X314180D01*
X308051Y297943D02*
X308152Y298043D01*
X314180D02*
X314280Y298143D01*
X309480Y299343D02*
X314777D01*
X308880Y299943D02*
X309480Y299343D01*
X298640Y299943D02*
X308880D01*
X298363Y301279D02*
X315670D01*
X314777Y299343D02*
X318377Y295743D01*
X305651Y294643D02*
X305751D01*
X305852Y294543D01*
X310152Y296043D02*
X318352Y287843D01*
X303651Y296643D02*
X306523D01*
X305852Y294543D02*
X307730Y292665D01*
X307280Y295943D02*
X308951Y294271D01*
X307223Y295943D02*
X307280D01*
X306523Y296643D02*
X307223Y295943D01*
X310852Y292043D02*
X310951D01*
X313651Y294243D02*
Y295943D01*
X308951Y283943D02*
Y294271D01*
X315436Y304143D02*
X315452D01*
X322451Y295743D02*
X327451Y300743D01*
X318377Y295743D02*
X322451D01*
X319480Y292943D02*
X322280D01*
X314280Y298143D02*
X319480Y292943D01*
X322280D02*
X323851Y291371D01*
X315452Y304143D02*
X320251Y308943D01*
Y320240D01*
X323352Y323340D01*
Y324843D01*
X326852Y328343D01*
X338049D01*
X343251Y333546D01*
Y346743D01*
X352751Y356243D01*
X351151Y356343D02*
Y368890D01*
X342052Y347243D02*
X351151Y356343D01*
X342052Y334043D02*
Y347243D01*
X338251Y330243D02*
X342052Y334043D01*
X328852Y330243D02*
X338251D01*
X276622Y279866D02*
X298199Y301443D01*
X313551Y261343D02*
Y272743D01*
X307730Y278565D02*
X313551Y272743D01*
X307730Y278565D02*
Y286165D01*
X313551Y261343D02*
X316151Y258743D01*
X325051Y291743D02*
X329852Y296543D01*
X325051Y289143D02*
Y291743D01*
X327451Y300743D02*
X327463Y300732D01*
X290470Y309225D02*
Y317661D01*
Y309225D02*
X295352Y304343D01*
X313938D01*
X318652Y309056D01*
X277390Y278666D02*
X278210Y279485D01*
X265771Y278666D02*
X277390D01*
X312983Y305543D02*
X314951Y307511D01*
X305351Y305543D02*
X312983D01*
X304751Y306143D02*
X305351Y305543D01*
X314452Y307543D02*
X314920D01*
X314951Y307511D01*
X323851Y288646D02*
Y291371D01*
X307730Y286165D02*
Y292665D01*
X313493Y311584D02*
X314951Y313043D01*
X311453Y311584D02*
X313493D01*
X325051Y303743D02*
X329051D01*
X321952Y306843D02*
X325051Y303743D01*
X321952Y306843D02*
Y320243D01*
X327751Y326043D01*
X318652Y309056D02*
Y321773D01*
X321652Y324773D01*
Y335743D01*
X314851Y342543D02*
X321652Y335743D01*
X314851Y342543D02*
Y350480D01*
X316551Y352180D01*
Y360154D01*
X352751Y356243D02*
Y368793D01*
X320352Y356843D02*
X320851D01*
X308400Y360154D02*
X316551D01*
X352751Y368793D02*
X356346Y372388D01*
X324952Y364243D02*
X340152Y379443D01*
X320851Y356843D02*
X341452Y377443D01*
X325851Y352943D02*
Y358302D01*
X344069Y376519D01*
X320322Y325141D02*
Y334972D01*
X313415Y341880D02*
X320322Y334972D01*
X313415Y341880D02*
Y352043D01*
X310303Y355154D02*
X313415Y352043D01*
X308400Y355154D02*
X310303D01*
X327751Y334043D02*
X327852Y333943D01*
X339152D01*
X327751Y319043D02*
X339551D01*
X329051Y303743D02*
X340039Y292755D01*
Y280730D02*
Y292755D01*
X339951Y280643D02*
X340039Y280730D01*
X313484Y319182D02*
X314951Y317714D01*
Y313043D02*
Y317714D01*
X312055Y319182D02*
X313484D01*
X315352Y320143D02*
Y320736D01*
X314883Y321204D02*
X315352Y320736D01*
X312055Y321204D02*
X314883D01*
X307289Y323143D02*
X314037D01*
X307259Y323173D02*
X307289Y323143D01*
X314037D02*
X314077Y323182D01*
X318352Y285543D02*
Y287843D01*
X296751Y310997D02*
X302498D01*
X304751Y308743D01*
Y306143D02*
Y308743D01*
X307452Y307574D02*
Y307583D01*
X311453Y311584D01*
X307330Y317267D02*
X309299Y315299D01*
X312055Y319182D02*
Y319236D01*
X296751Y310997D02*
Y315744D01*
X298275Y317267D01*
X239201Y274592D02*
X244652Y280043D01*
X251952D02*
X262852Y290943D01*
X244652Y280043D02*
X251952D01*
X252449Y278843D02*
X263349Y289743D01*
X245148Y278843D02*
X252449D01*
X240401Y274095D02*
X245148Y278843D01*
X239201Y246593D02*
Y274592D01*
X240401Y247188D02*
Y274095D01*
X248013Y245504D02*
Y246598D01*
X247160Y244652D02*
X248013Y245504D01*
X241143Y244652D02*
X247160D01*
X239201Y246593D02*
X241143Y244652D01*
X240401Y247188D02*
X240795Y246795D01*
X242566D01*
X356152Y363343D02*
X362052D01*
X365551Y366843D01*
Y392239D01*
X364352Y381637D02*
Y391742D01*
X361464Y381637D02*
X364352D01*
Y373501D02*
Y381637D01*
X362657Y371806D02*
X364352Y373501D01*
X354051Y367926D02*
X358118Y371992D01*
X354051Y365443D02*
X356152Y363343D01*
X354051Y365443D02*
Y367926D01*
X257921Y383015D02*
Y389373D01*
X257552Y389743D02*
X257921Y389373D01*
X257552Y389743D02*
Y391843D01*
X261052Y388343D02*
Y390143D01*
X260480Y387771D02*
X261052Y388343D01*
X260480Y383015D02*
Y387771D01*
X264551Y389843D02*
Y391843D01*
X263039Y388330D02*
X264551Y389843D01*
X263039Y383015D02*
Y388330D01*
X254051Y390143D02*
X255362Y388833D01*
Y383015D02*
Y388833D01*
X284102Y294792D02*
X284152Y294743D01*
X284102Y294792D02*
Y298370D01*
Y302700D02*
X284152Y302750D01*
X283944Y302543D02*
X284102Y302700D01*
X284152Y302750D02*
Y306243D01*
X276751Y373843D02*
X277751Y372843D01*
X276751Y373843D02*
Y378443D01*
X284633Y395325D02*
Y397614D01*
X274451Y385143D02*
X284633Y395325D01*
X274451Y363949D02*
Y385143D01*
X273151Y362649D02*
X274451Y363949D01*
X273252Y364446D02*
Y388543D01*
X271952Y363146D02*
X273252Y364446D01*
Y388543D02*
X279751Y395043D01*
Y397496D01*
X270752Y373671D02*
X270952Y373471D01*
Y371814D02*
Y373471D01*
X270752Y371614D02*
X270952Y371814D01*
X289651Y376743D02*
X290851Y375543D01*
X295752D01*
X298751Y372543D01*
Y363143D02*
Y372543D01*
Y363143D02*
X301741Y360154D01*
X308400D01*
X284651Y377043D02*
Y377143D01*
Y377043D02*
X287951Y373743D01*
X294451D01*
X296352Y371843D01*
Y358343D02*
Y371843D01*
Y358343D02*
X299540Y355154D01*
X308400D01*
X270752Y373671D02*
Y380421D01*
X268157Y383015D02*
X270752Y380421D01*
X274683Y291474D02*
X277252D01*
X264752Y281543D02*
X274683Y291474D01*
X262551Y281543D02*
X264752D01*
X277151Y295511D02*
X277252Y295411D01*
X277151Y295511D02*
Y298543D01*
X279633Y397614D02*
X279751Y397496D01*
X263039Y378555D02*
X268952Y372643D01*
X263039Y378555D02*
Y383015D01*
X260480Y375915D02*
X263851Y372543D01*
X264452D01*
X308118Y336952D02*
Y338527D01*
X309299Y339708D01*
X299062Y333015D02*
Y339708D01*
X257051Y263839D02*
Y271643D01*
X255755Y262543D02*
X257051Y263839D01*
X255755Y247582D02*
Y262543D01*
X258511Y246598D02*
X260283D01*
X261267Y247582D01*
Y260968D01*
X258252Y263984D02*
X261267Y260968D01*
X258252Y263984D02*
Y271146D01*
X253262Y246598D02*
X254771D01*
X255755Y247582D01*
X258511Y250141D02*
Y253881D01*
X253262Y250141D02*
Y253881D01*
X248013Y250141D02*
Y253881D01*
X242763Y250141D02*
Y253881D01*
X274952Y300743D02*
X277151Y298543D01*
X274952Y300743D02*
Y314537D01*
X276151Y303643D02*
X280051Y299743D01*
X276151Y303643D02*
Y315034D01*
X280152Y302543D02*
Y312731D01*
X285522Y273914D02*
X303181D01*
X273751Y262143D02*
X285522Y273914D01*
X271652Y262143D02*
X273751D01*
X303181Y273914D02*
X305244Y271851D01*
Y265889D02*
Y271851D01*
X276151Y260043D02*
Y262240D01*
X286752Y265889D02*
X290244D01*
X276151Y262240D02*
X286625Y272714D01*
X298681D01*
X300244Y271151D01*
Y265889D02*
Y271151D01*
X272885Y269629D02*
X276898Y273643D01*
X272685Y269629D02*
X272885D01*
X276898Y273643D02*
X281951D01*
X268798Y275743D02*
X279952D01*
X252341Y299054D02*
X254552Y296843D01*
X252341Y299054D02*
Y324063D01*
X245752Y330652D02*
X252341Y324063D01*
X294781Y271514D02*
X295244Y271051D01*
Y265889D02*
Y271051D01*
X262685Y269629D02*
X268798Y275743D01*
X307552Y259943D02*
X310244Y262635D01*
X280152Y259943D02*
X307552D01*
X242271Y286657D02*
X242271Y286657D01*
Y299846D01*
X242251Y282143D02*
X242271Y282162D01*
Y286657D01*
X310244Y262635D02*
Y265889D01*
X263351Y347543D02*
X263452Y347643D01*
X263351Y343314D02*
Y347543D01*
X261351Y341314D02*
X263351Y343314D01*
X267352Y338555D02*
X273151Y344355D01*
X271952Y344852D02*
Y363146D01*
X266151Y339052D02*
X271952Y344852D01*
X270752Y345349D02*
Y371614D01*
X264951Y339549D02*
X270752Y345349D01*
X273151Y344355D02*
Y362649D01*
X267951Y344246D02*
Y351543D01*
X263752Y340046D02*
X267951Y344246D01*
X265851Y343843D02*
Y352271D01*
X262551Y340543D02*
X265851Y343843D01*
X261351Y333443D02*
Y341314D01*
X259351Y331443D02*
X261351Y333443D01*
X256152Y331443D02*
X259351D01*
X254152Y329443D02*
Y332443D01*
X259152Y318443D02*
Y324443D01*
X254152Y329443D02*
X259152Y324443D01*
X245752Y330652D02*
Y351037D01*
X246952Y331149D02*
Y350540D01*
X248151Y331646D02*
Y350043D01*
Y331646D02*
X255540Y324257D01*
X246952Y331149D02*
X254341Y323760D01*
Y300732D02*
Y323760D01*
X255540Y308843D02*
Y324257D01*
X257552Y316943D02*
Y323943D01*
X251818Y329676D02*
X257552Y323943D01*
X251818Y329676D02*
Y335771D01*
X248151Y350043D02*
X250851Y352743D01*
X246952Y350540D02*
X250354Y353943D01*
X245752Y351037D02*
X249857Y355143D01*
X272551Y292814D02*
Y313543D01*
X273751Y292317D02*
Y314040D01*
X271177Y289743D02*
X273751Y292317D01*
X263349Y289743D02*
X271177D01*
X270680Y290943D02*
X272551Y292814D01*
X262852Y290943D02*
X270680D01*
X265851Y352271D02*
X267923Y354343D01*
X267951D01*
X263039Y354930D02*
Y360181D01*
X260852Y352743D02*
X263039Y354930D01*
X250851Y352743D02*
X260852D01*
X257921Y355812D02*
Y360181D01*
X257252Y355143D02*
X257921Y355812D01*
X249857Y355143D02*
X257252D01*
X250354Y353943D02*
X259051D01*
X260480Y355371D02*
Y360181D01*
X259051Y353943D02*
X260480Y355371D01*
X260752Y313743D02*
X268851D01*
X261852Y315743D02*
X266752D01*
X255540Y308843D02*
X258541Y305843D01*
X266752D01*
X259152Y318443D02*
X261852Y315743D01*
X257552Y316943D02*
X260752Y313743D01*
X255362Y366153D02*
X256751Y367543D01*
X255362Y360181D02*
Y366153D01*
X260480Y375915D02*
Y383015D01*
X257921Y372273D02*
X257951Y372243D01*
X257921Y372273D02*
Y383015D01*
X255362Y373653D02*
Y383015D01*
X253870Y372161D02*
X255362Y373653D01*
X249633Y372161D02*
X253870D01*
X268151Y366343D02*
X268157Y366337D01*
Y360181D02*
Y366337D01*
X344732Y258999D02*
Y260771D01*
X288039Y334590D02*
Y337740D01*
X288039Y337740D02*
X288039Y337740D01*
X275441Y328685D02*
X278196D01*
X278984Y329472D01*
Y338527D01*
X269535Y329472D02*
X271503D01*
X272291Y328685D01*
X275441D01*
X282921Y334590D02*
X288039D01*
X282724Y334787D02*
X282921Y334590D01*
X293551Y333015D02*
X299062D01*
X303393D02*
Y336952D01*
X308118Y333015D02*
Y336952D01*
X309299Y339708D02*
Y340495D01*
X303393Y333015D02*
X308118D01*
X326751Y287443D02*
X331252D01*
X325051Y289143D02*
X326751Y287443D01*
X340992Y257425D02*
X343270D01*
X344851Y255843D01*
X316151Y258743D02*
X328151D01*
X302999Y286165D02*
X307730D01*
X330152Y277143D02*
Y281240D01*
X339951Y275943D02*
Y280643D01*
X337052Y275843D02*
Y281643D01*
X331252Y287443D02*
X337052Y281643D01*
X331351Y277840D02*
X335648Y273543D01*
X331351Y277840D02*
Y281737D01*
X326846Y286243D02*
X331351Y281737D01*
X328952Y276646D02*
Y280743D01*
X335648Y273543D02*
X336651D01*
X333651Y269243D02*
X335051Y267843D01*
X333651Y269243D02*
Y271946D01*
X328952Y276646D02*
X333651Y271946D01*
X338251Y267343D02*
X340052Y265543D01*
Y263877D02*
Y265543D01*
X323851Y288646D02*
X326254Y286243D01*
X326846D01*
X310852Y285043D02*
Y292043D01*
Y285043D02*
X312351Y283543D01*
X327849D01*
X330152Y281240D01*
X327351Y282343D02*
X328952Y280743D01*
X310552Y282343D02*
X327351D01*
X308951Y283943D02*
X310552Y282343D01*
X313651Y294243D02*
X322352Y285543D01*
X330152Y277143D02*
X336852Y270443D01*
Y270143D02*
Y270443D01*
X338851Y267943D02*
Y271343D01*
X338251Y267343D02*
X338851Y267943D01*
X336651Y273543D02*
X338851Y271343D01*
X281252Y263043D02*
Y265143D01*
X287622Y271514D01*
X294781D01*
X248128Y307917D02*
Y321106D01*
X356346Y392661D02*
Y395023D01*
X290470Y317661D02*
X292352Y319543D01*
X287645Y317661D02*
X290470D01*
X287645Y317661D02*
X287645Y317661D01*
X288094Y321543D02*
X294752D01*
X287645Y321992D02*
X288094Y321543D01*
X278210Y279485D02*
Y279513D01*
X257051Y271643D02*
X265274Y279866D01*
X276622D01*
X258252Y271146D02*
X265771Y278666D01*
X280152Y302543D02*
X283944D01*
X280051Y299743D02*
X281425Y298370D01*
X284102D01*
X358314Y374157D02*
Y376519D01*
X350441Y392661D02*
Y397385D01*
X350244Y397582D02*
X350441Y397385D01*
Y374551D02*
Y376519D01*
X350212Y374322D02*
X350441Y374551D01*
X350212Y373535D02*
Y374322D01*
X342763Y372385D02*
X349062D01*
X350212Y373535D01*
X351151Y368890D02*
X354378Y372116D01*
Y376519D01*
X356346Y372388D02*
Y376519D01*
X358314Y374157D02*
X358905Y373566D01*
Y371992D02*
Y373566D01*
X292352Y319543D02*
X297968D01*
X298275Y319236D01*
X300637D01*
X300637Y319236D01*
X300582Y321543D02*
Y322724D01*
X301031Y323173D01*
X307259D01*
X297881Y321204D02*
X300637D01*
X297488Y321598D02*
X297881Y321204D01*
X294807Y321598D02*
X297488D01*
X298275Y317267D02*
X300637D01*
Y315299D02*
X303393D01*
X307330Y317267D02*
X312055D01*
X309299Y315299D02*
X312055D01*
X306346Y318251D02*
X307330Y317267D01*
X306346Y314708D02*
Y318251D01*
X304181Y312543D02*
X306346Y314708D01*
X318324Y323143D02*
X320322Y325141D01*
X314077Y323182D02*
X315734D01*
X315773Y323143D01*
X318324D01*
X313236Y333015D02*
X317566D01*
X313236Y327897D02*
X317566D01*
X347891Y397582D02*
X350244D01*
X341452Y377443D02*
Y391143D01*
X347891Y397582D01*
X340152Y379443D02*
Y392043D01*
X345752Y397643D01*
Y402218D01*
X344451Y398343D02*
Y403143D01*
X343251Y398840D02*
Y403768D01*
X363551Y394239D02*
X365551Y392239D01*
X363551Y394239D02*
Y403243D01*
X362052Y394042D02*
X364352Y391742D01*
X362052Y394042D02*
Y403046D01*
X356346Y395023D02*
X360651Y399329D01*
Y402529D01*
X296252Y392843D02*
X338951D01*
X344451Y398343D01*
X338454Y394043D02*
X343251Y398840D01*
X292352Y394043D02*
X338454D01*
X303952Y386343D02*
X317251Y373043D01*
X303952Y386343D02*
Y390343D01*
X324151Y371043D02*
X324751Y371643D01*
X315651Y371043D02*
X324151D01*
X299352Y387343D02*
X315651Y371043D01*
X299352Y387343D02*
Y390343D01*
X343251Y403768D02*
X349326Y409843D01*
X356951D01*
X363551Y403243D01*
X344451Y403143D02*
X349952Y408643D01*
X356454D01*
X362052Y403046D01*
X345752Y402218D02*
X350977Y407443D01*
X355737D01*
X360651Y402529D01*
X344069Y376519D02*
X348472D01*
X329252Y358874D02*
X342763Y372385D01*
X329252Y358843D02*
Y358874D01*
X279751Y384843D02*
X283152D01*
X276751Y378443D02*
X283152Y384843D01*
X292352Y394043D01*
X287951Y384543D02*
X290951D01*
X280552Y377143D02*
X287951Y384543D01*
X296252Y392843D01*
X254152Y332443D02*
X256751Y335043D01*
Y347443D01*
X271199Y197100D02*
G03*
X265331Y202024I-5000J0D01*
G01*
X211131Y192424D02*
G03*
X207351Y185660I868J-4923D01*
G01*
X207365Y185649D02*
G03*
X221998Y154053I285528J113050D01*
G01*
X222012Y154064D02*
G03*
X248120Y137445I27788J14837D01*
G01*
X248123Y137498D02*
G03*
X374671Y137370I64179J895306D01*
G01*
X494138Y129335D02*
G03*
X375560Y137364I-89279J-438871D01*
G01*
X578946Y112082D02*
G03*
X661773Y154430I17054J68818D01*
G01*
X662305Y155917D02*
G03*
X662238Y441653I-358406J142783D01*
G01*
X661737Y443060D02*
G03*
X581986Y486002I-65737J-26559D01*
G01*
X429099Y308500D02*
G03*
X429836Y305888I4999J1D01*
G01*
X415703Y285110D02*
G03*
X429866Y305911I2396J13590D01*
G01*
X415668Y285124D02*
G03*
X409799Y280200I-869J-4924D01*
G01*
X404799Y240200D02*
G03*
X409799Y245200I0J5000D01*
G01*
X392799Y240200D02*
G03*
X387799Y235200I0J-5000D01*
G01*
X382799Y158500D02*
G03*
X387799Y163500I0J5000D01*
G01*
X271199D02*
G03*
X276199Y158500I5000J0D01*
G01*
X417516Y459294D02*
G03*
X494633Y468209I-12450J445697D01*
G01*
X417516Y459294D02*
G03*
X411452Y442036I300J-9800D01*
G01*
X429216Y424594D02*
G03*
X427437Y428419I-5000J1D01*
G01*
X494146Y129372D02*
X578955Y112119D01*
X494543Y468209D02*
X581999Y486000D01*
X271199Y163500D02*
Y197100D01*
X211099Y192400D02*
X265399Y202000D01*
X409799Y245200D02*
Y280200D01*
X392799Y240200D02*
X404799D01*
X387799Y163500D02*
Y235200D01*
X276199Y158500D02*
X382799D01*
X411416Y441994D02*
X427416Y428394D01*
X429117Y309399D02*
X429216Y424624D01*
X374671Y137370D02*
X375554D01*
X661773Y154430D02*
X662305Y155917D01*
X661737Y443060D02*
X662238Y441653D01*
X494543Y468209D02*
X494633D01*
X429099Y308500D02*
Y309381D01*
X429117Y309399D01*
D35*
X285051Y151599D02*
X287999Y154547D01*
X285051Y140264D02*
Y151599D01*
X413851Y189899D02*
X414390Y190438D01*
X418937D01*
X648851Y413494D02*
X650868Y411477D01*
X648851Y413494D02*
Y415399D01*
X289973Y140264D02*
X292108Y142399D01*
X308351D01*
X310147Y144195D01*
Y147502D01*
X315454D02*
X322851Y154899D01*
X454697Y309399D02*
Y313454D01*
X227865Y174517D02*
X234382D01*
X239099Y163300D02*
X249830D01*
X654328Y200899D02*
X655184Y200042D01*
X651851Y200899D02*
X654328D01*
X651351Y201399D02*
X651851Y200899D01*
X651351Y201399D02*
Y206899D01*
X673901Y334600D02*
Y340349D01*
X310147Y147502D02*
X315454D01*
X448006Y291744D02*
Y295479D01*
X447851Y291589D02*
X448006Y291744D01*
X447851Y287553D02*
Y291589D01*
X659128Y330034D02*
X673901D01*
X651487Y322393D02*
X659128Y330034D01*
X418937Y230438D02*
X423501D01*
X424251Y231188D01*
X418937Y235438D02*
X422637D01*
X423887Y234188D02*
X424251D01*
X422637Y235438D02*
X423887Y234188D01*
X623194Y337105D02*
X626488Y340399D01*
X635243D01*
X637687Y342843D01*
X243354Y364843D02*
Y367661D01*
Y362937D02*
Y364843D01*
X244952D01*
X246751Y363043D01*
X241976Y361559D02*
X243354Y362937D01*
X243354Y376716D02*
X243451Y376618D01*
Y373689D02*
Y376618D01*
X356051Y366443D02*
Y367143D01*
X356963Y368055D01*
X358905D01*
D36*
X409351Y226899D02*
X412616Y230164D01*
X409351Y223899D02*
Y226899D01*
X393499Y208047D02*
X409351Y223899D01*
X393499Y156100D02*
Y208047D01*
X322851Y154899D02*
X324351Y153399D01*
X390798D02*
X393499Y156100D01*
X324351Y153399D02*
X390798D01*
X429099Y266899D02*
X431099Y268899D01*
X416351Y266899D02*
X429099D01*
X412616Y263164D02*
X416351Y266899D01*
X431099Y268899D02*
Y279100D01*
X523799Y454900D02*
X549599Y455000D01*
X550516D01*
X593199D01*
X605899Y452500D01*
X620499Y441300D01*
X631299Y427800D01*
X636399Y413900D01*
X437299Y314500D02*
X437499Y428900D01*
X442299Y432900D01*
X454899Y433000D01*
X498316D01*
X511699D01*
X516099Y437200D01*
Y447200D01*
X523799Y454900D01*
X431099Y279100D02*
X442599Y290600D01*
Y309100D01*
X437899Y313800D02*
X442599Y309100D01*
X636399Y385900D02*
Y413900D01*
X615199Y364700D02*
X636399Y385900D01*
X615199Y320300D02*
X620199Y315300D01*
X634499D01*
X641499Y322300D01*
X651394D01*
X651487Y322393D01*
X455494Y433595D02*
X455694Y440548D01*
X454899Y433000D02*
X455494Y433595D01*
X498062Y433255D02*
Y440548D01*
Y433255D02*
X498316Y433000D01*
X550831Y455315D02*
Y461007D01*
X550516Y455000D02*
X550831Y455315D01*
X592581Y455619D02*
Y461019D01*
Y455619D02*
X593199Y455000D01*
X412616Y230164D02*
Y263164D01*
X615199Y320300D02*
Y336399D01*
Y364700D01*
D37*
X402699Y171747D02*
Y204899D01*
X413299Y166451D02*
Y167574D01*
Y166174D02*
Y166451D01*
X420351Y262899D02*
X429851D01*
X435599Y268647D01*
Y279200D01*
X413299Y166174D02*
X413999Y165474D01*
X418901D01*
X418937Y165438D01*
X448007Y289044D02*
Y294979D01*
X651487Y322393D02*
X669192D01*
X673899Y327100D01*
Y330032D01*
X673901Y330033D01*
X435599Y279200D02*
X444942Y288543D01*
X448508D01*
X400851Y169899D02*
X402699Y171747D01*
X351425Y258843D02*
Y269236D01*
X325834Y266480D02*
Y268448D01*
X324653Y265299D02*
X325834Y266480D01*
X343157Y252307D02*
X346307D01*
X342763Y251913D02*
X343157Y252307D01*
X341189Y251913D02*
X342763D01*
X335283D02*
X341189D01*
X336267Y257425D02*
Y262936D01*
X329378Y251913D02*
X335283D01*
Y253881D01*
X336070Y254669D01*
Y257425D01*
X333708D02*
X336070D01*
X290244Y250535D02*
X290551Y250843D01*
X288039Y326855D02*
Y329472D01*
X285581D02*
X288039D01*
X284793Y328685D02*
X285581Y329472D01*
X282724Y328685D02*
X284793D01*
X259752Y344725D02*
X260251Y345225D01*
X259752Y342543D02*
Y344725D01*
X293392Y278843D02*
X293551Y278685D01*
X293551Y278685D02*
X293551Y278685D01*
Y286165D01*
X293551Y278685D02*
X293551Y278685D01*
X267569Y293643D02*
X270551D01*
X267566Y293645D02*
X267569Y293643D01*
X242251Y311743D02*
X242271Y311763D01*
Y321106D01*
X242251Y311743D02*
X242271Y311723D01*
Y307917D02*
Y311723D01*
X252803Y360181D02*
Y366092D01*
X251233Y367661D02*
X252803Y366092D01*
X248472Y367661D02*
X251233D01*
X249751Y360443D02*
X250014Y360181D01*
X252803D01*
X313236Y333015D02*
Y336952D01*
X314023Y336165D02*
X315992D01*
X313236Y336952D02*
X314023Y336165D01*
X330111Y290943D02*
X330165Y290889D01*
X327151Y290943D02*
X330111D01*
X322751Y278291D02*
Y280343D01*
X319929Y278291D02*
X322751D01*
X325834D01*
X348111Y258803D02*
X351385D01*
X351425Y258843D01*
X291292Y276743D02*
X293392Y278843D01*
X289452Y276743D02*
Y278685D01*
X287055D02*
X293551D01*
X324653Y263330D02*
Y265299D01*
X315964Y263330D02*
X324653D01*
X315951Y263343D02*
X315964Y263330D01*
X351188Y252307D02*
X351425Y252543D01*
X346307Y252307D02*
X351188D01*
X351425Y249944D02*
Y252543D01*
Y258843D01*
X287752Y257643D02*
X289152D01*
X290244Y256551D01*
Y250535D02*
Y256551D01*
X348275Y269236D02*
X351425D01*
X302606Y351101D02*
X302999Y351495D01*
X302606Y346401D02*
Y351101D01*
X276622Y353881D02*
Y356637D01*
Y353881D02*
X277409Y353094D01*
Y351495D02*
Y353094D01*
X303393Y372385D02*
X306168D01*
X308400Y370154D01*
D38*
X327751Y339043D02*
D03*
Y344043D02*
D03*
Y309043D02*
D03*
Y314043D02*
D03*
X361752Y339043D02*
D03*
Y334043D02*
D03*
Y344043D02*
D03*
Y319043D02*
D03*
Y309043D02*
D03*
Y314043D02*
D03*
X327751Y319043D02*
D03*
Y334043D02*
D03*
D39*
X290951Y384543D02*
D03*
X279751Y384843D02*
D03*
X284152Y306243D02*
D03*
X264551Y391843D02*
D03*
X284152Y294743D02*
D03*
X261052Y390143D02*
D03*
X257552Y391843D02*
D03*
X254051Y390143D02*
D03*
X313415Y352043D02*
D03*
X316551Y360154D02*
D03*
X314599Y154500D02*
D03*
X410650Y147900D02*
D03*
X413712Y225438D02*
D03*
X402699Y204899D02*
D03*
X423851Y255399D02*
D03*
X437851Y235399D02*
D03*
X425851Y185399D02*
D03*
X436351Y200399D02*
D03*
Y205399D02*
D03*
X413851Y189899D02*
D03*
X658351Y410899D02*
D03*
X648851Y415399D02*
D03*
X322851Y154899D02*
D03*
X422851Y260399D02*
D03*
X420351Y262899D02*
D03*
X635799Y449000D02*
D03*
X669099Y238700D02*
D03*
X638799Y442900D02*
D03*
X234399Y174500D02*
D03*
X239099Y163300D02*
D03*
X287999Y154500D02*
D03*
X651351Y206899D02*
D03*
X673901Y340349D02*
D03*
X447851Y291589D02*
D03*
X254851Y168399D02*
D03*
X436451Y210399D02*
D03*
X427232Y220418D02*
D03*
X426951Y215438D02*
D03*
X424751Y241438D02*
D03*
Y244438D02*
D03*
X435998Y142899D02*
D03*
X414051Y185438D02*
D03*
X413751Y202699D02*
D03*
X413851Y207999D02*
D03*
Y210699D02*
D03*
X424251Y231188D02*
D03*
Y234188D02*
D03*
X242351Y143399D02*
D03*
X257351Y181399D02*
D03*
X266351Y158399D02*
D03*
X609351Y136399D02*
D03*
X626351Y213524D02*
D03*
X631351Y220399D02*
D03*
X613351Y122399D02*
D03*
X591351Y135399D02*
D03*
X597351D02*
D03*
X680351Y355399D02*
D03*
X648351Y389399D02*
D03*
X627351Y456399D02*
D03*
X646351Y384399D02*
D03*
X630351Y453399D02*
D03*
X648351Y399399D02*
D03*
X654351Y376399D02*
D03*
X400851Y169899D02*
D03*
X235451Y192499D02*
D03*
X330651Y324143D02*
D03*
X362720Y325974D02*
D03*
X273151Y322443D02*
D03*
X328852Y330243D02*
D03*
X314452Y307543D02*
D03*
X293851Y310943D02*
D03*
X324952Y364243D02*
D03*
X325851Y352943D02*
D03*
X320352Y356843D02*
D03*
X342845Y355943D02*
D03*
X340245D02*
D03*
X356152Y314143D02*
D03*
X356252Y309143D02*
D03*
Y339043D02*
D03*
X356351Y344043D02*
D03*
X358752Y352643D02*
D03*
X362752Y299743D02*
D03*
X362651Y352743D02*
D03*
X358783Y326043D02*
D03*
X339152Y324043D02*
D03*
Y333943D02*
D03*
X339551Y319043D02*
D03*
D40*
X241976Y361559D02*
D03*
Y354078D02*
D03*
X242763Y390692D02*
D03*
Y383212D02*
D03*
D41*
X248128Y299846D02*
D03*
X242271Y299846D02*
D03*
X248128Y286657D02*
D03*
X242271D02*
D03*
X248128Y321106D02*
D03*
X242271Y321106D02*
D03*
X248128Y307917D02*
D03*
X242271D02*
D03*
D42*
X348472Y376519D02*
D03*
X350441D02*
D03*
X352409D02*
D03*
X354378D02*
D03*
X356346D02*
D03*
X358314D02*
D03*
Y392661D02*
D03*
X356346D02*
D03*
X354378D02*
D03*
X352409D02*
D03*
X350441D02*
D03*
X348472D02*
D03*
D43*
X361464Y379669D02*
D03*
Y381637D02*
D03*
Y383606D02*
D03*
Y385574D02*
D03*
Y387543D02*
D03*
Y389511D02*
D03*
X345322D02*
D03*
Y387543D02*
D03*
Y385574D02*
D03*
Y383606D02*
D03*
Y381637D02*
D03*
Y379669D02*
D03*
D44*
X353393Y384590D02*
D03*
D45*
X282724Y334787D02*
D03*
X275441D02*
D03*
Y328685D02*
D03*
X282724D02*
D03*
D46*
X252803Y360181D02*
D03*
X255362D02*
D03*
X257921D02*
D03*
X260480D02*
D03*
X263039D02*
D03*
X265598D02*
D03*
X268157D02*
D03*
X252803Y383015D02*
D03*
X255362D02*
D03*
X257921D02*
D03*
X260480D02*
D03*
X263039D02*
D03*
X265598D02*
D03*
X268157D02*
D03*
D47*
X293551Y286165D02*
D03*
X302999D02*
D03*
Y278685D02*
D03*
X293551D02*
D03*
D48*
X308400Y355154D02*
D03*
Y360154D02*
D03*
Y365154D02*
D03*
Y370154D02*
D03*
X288715Y355154D02*
D03*
Y360154D02*
D03*
Y365154D02*
D03*
D49*
Y370154D02*
D03*
D50*
X306346Y318251D02*
D03*
D51*
X312055Y321204D02*
D03*
Y319236D02*
D03*
Y317267D02*
D03*
Y315299D02*
D03*
X300637D02*
D03*
Y317267D02*
D03*
Y319236D02*
D03*
D52*
Y321204D02*
D03*
D53*
X310244Y265889D02*
D03*
Y250535D02*
D03*
X305244Y265889D02*
D03*
Y250535D02*
D03*
X300244Y265889D02*
D03*
Y250535D02*
D03*
X295244Y265889D02*
D03*
Y250535D02*
D03*
X290244D02*
D03*
Y265889D02*
D03*
D54*
X362720Y320011D02*
Y325974D01*
X361752Y334043D02*
X362720Y333074D01*
Y325974D02*
Y333074D01*
X287752Y303775D02*
Y306643D01*
Y303775D02*
X288433Y303094D01*
X288039Y302700D02*
X288433Y303094D01*
X311524Y307647D02*
X316344Y312466D01*
X293851Y308243D02*
Y310943D01*
Y308243D02*
X295035Y307060D01*
X296751D01*
X315352Y320143D02*
X315945D01*
X316344Y319744D01*
Y312466D02*
Y319744D01*
X311453Y307647D02*
X311524D01*
X359693Y368055D02*
X362551D01*
X354378Y392661D02*
Y397779D01*
X354574Y397976D01*
X351031Y401519D02*
X354574Y397976D01*
X350244Y401519D02*
X351031D01*
X347881D02*
X350244D01*
X283708Y317661D02*
Y321992D01*
Y324354D01*
X288039Y298370D02*
Y302700D01*
D55*
X342239Y355336D02*
X342845Y355943D01*
X342239Y350668D02*
Y355336D01*
X340245Y355943D02*
X340851Y355336D01*
X339814Y348243D02*
X342239Y350668D01*
X340851Y351243D02*
Y355336D01*
X339239Y349630D02*
X340851Y351243D01*
X324833Y348243D02*
X339814D01*
X324258Y349630D02*
X339239D01*
X319745Y345117D02*
X324258Y349630D01*
X319745Y342281D02*
Y345117D01*
X321133Y344543D02*
X324833Y348243D01*
X319745Y342281D02*
X321177Y340849D01*
X321133Y342856D02*
Y344543D01*
Y342856D02*
X321751Y342236D01*
X321792D01*
X323598Y344043D01*
X327751D01*
X321177Y340849D02*
X321792D01*
X323598Y339043D01*
X327751D01*
X348239Y342289D02*
X348726Y342777D01*
Y345411D01*
X345926Y343215D02*
X346851Y342289D01*
X345926Y343215D02*
Y345411D01*
X348239Y314668D02*
Y342289D01*
X346851Y315243D02*
Y342289D01*
X347832Y314262D02*
X348239Y314668D01*
X347832Y314262D02*
Y314262D01*
X344420Y310849D02*
X347832Y314262D01*
X333711Y310849D02*
X344420D01*
X343845Y312236D02*
X346851Y315243D01*
X333711Y312236D02*
X343845D01*
X331905Y314043D02*
X333711Y312236D01*
X327751Y314043D02*
X331905D01*
Y309043D02*
X333711Y310849D01*
X327751Y309043D02*
X331905D01*
X356152Y314143D02*
X356252Y314043D01*
X361752D01*
X361651Y309143D02*
X361752Y309043D01*
X356252Y309143D02*
X361651D01*
X356252Y339043D02*
X361752D01*
X356351Y344043D02*
X361752D01*
X352409Y372582D02*
X352409D01*
X352212Y372779D02*
X352409Y372582D01*
X352409D02*
Y376519D01*
D56*
X308118Y325143D02*
Y327897D01*
Y324677D02*
Y325143D01*
X248128Y286657D02*
Y299846D01*
X247952Y282243D02*
X248128Y282419D01*
Y286657D01*
X300252Y257743D02*
X307252D01*
X295851D02*
X300252D01*
X300244Y257735D02*
X300252Y257743D01*
X300244Y250535D02*
Y257735D01*
X308152Y258643D02*
X310051D01*
X307252Y257743D02*
X308152Y258643D01*
X295851Y251143D02*
Y257743D01*
X295244Y250535D02*
X295851Y251143D01*
X254351Y350543D02*
X260251D01*
X254252Y350443D02*
X254351Y350543D01*
X260251Y350343D02*
Y350543D01*
X308118Y324677D02*
X308152Y324643D01*
X298275Y327897D02*
X303393D01*
X310051Y258643D02*
X310244Y258451D01*
Y250535D02*
Y258451D01*
X300151Y250627D02*
X300244Y250535D01*
X280210Y278685D02*
X283511D01*
X267551Y301643D02*
X267566Y301628D01*
Y298763D02*
Y301628D01*
X308118Y327897D02*
X313236D01*
X303393D02*
X308118D01*
X293551D02*
X298275D01*
X275441Y334787D02*
Y338232D01*
X269535Y337326D02*
X269652Y337443D01*
X269535Y334590D02*
Y337326D01*
X277409Y348567D02*
Y351495D01*
X287251D02*
X287276D01*
X288433Y350338D01*
Y348763D02*
Y350338D01*
X358118Y371992D02*
X358905D01*
X176000Y87000D02*
Y515000D01*
X709000D01*
Y87000D02*
Y515000D01*
X176000Y87000D02*
X709000D01*
D57*
X248882Y383212D02*
X252252D01*
X248472Y382802D02*
X248882Y383212D01*
X248472Y376716D02*
Y382802D01*
X249633Y383963D02*
Y397614D01*
X242763Y383212D02*
X248882D01*
D58*
X242763Y390692D02*
X242763Y390692D01*
Y404275D01*
X241976Y354078D02*
X243748D01*
X249751Y360082D01*
Y360443D01*
D59*
X237351Y243251D02*
X367273D01*
Y412543D01*
X237351D02*
X367273D01*
X237351Y243251D02*
Y412543D01*
D60*
X417951Y449599D02*
D03*
X219299Y184500D02*
D03*
X579499Y298700D02*
D03*
X669999Y220000D02*
D03*
X396399Y229800D02*
D03*
D61*
X445851Y440548D02*
D03*
X465537D02*
D03*
X455694D02*
D03*
X488219D02*
D03*
X507905D02*
D03*
X498062D02*
D03*
X540988Y461007D02*
D03*
X560674D02*
D03*
X550831D02*
D03*
X582738Y461019D02*
D03*
X602424D02*
D03*
X592581D02*
D03*
D62*
X616715Y271993D02*
D03*
Y261993D02*
D03*
Y281993D02*
D03*
Y291993D02*
D03*
X626715Y276993D02*
D03*
Y286993D02*
D03*
Y256993D02*
D03*
Y266993D02*
D03*
D63*
X636515Y243493D02*
D03*
Y305393D02*
D03*
D64*
X651715Y251993D02*
D03*
Y296993D02*
D03*
D65*
X482674Y288820D02*
D03*
X472774D02*
D03*
X492574D02*
D03*
D66*
X637687Y342843D02*
D03*
D67*
X651487Y322393D02*
D03*
D68*
Y346793D02*
D03*
D69*
X406499Y145200D02*
D03*
X629351Y143399D02*
D03*
X437099Y195147D02*
D03*
X437851Y190399D02*
D03*
X427299Y270500D02*
D03*
X425099Y273000D02*
D03*
X420799D02*
D03*
X621499Y362800D02*
D03*
X631299Y355100D02*
D03*
X619599Y344600D02*
D03*
X621299Y350900D02*
D03*
X637499Y149600D02*
D03*
X257599Y173200D02*
D03*
X243599Y158600D02*
D03*
X413299Y167574D02*
D03*
X664199Y414700D02*
D03*
X661699Y417300D02*
D03*
X408699Y140800D02*
D03*
X229499Y150200D02*
D03*
X426199Y175574D02*
D03*
X422999Y270600D02*
D03*
X476099Y446300D02*
D03*
X507799Y448400D02*
D03*
X399099Y188700D02*
D03*
Y208700D02*
D03*
X219099Y168700D02*
D03*
X593351Y293399D02*
D03*
Y303399D02*
D03*
X659099Y258700D02*
D03*
X569099Y118700D02*
D03*
X589099D02*
D03*
X482351Y303399D02*
D03*
X569099Y468700D02*
D03*
X619099Y458700D02*
D03*
X659099Y388700D02*
D03*
X660910Y298700D02*
D03*
X679099Y278700D02*
D03*
Y308700D02*
D03*
Y368700D02*
D03*
X659099D02*
D03*
X447351Y306399D02*
D03*
X455199Y292600D02*
D03*
X629099Y328700D02*
D03*
X425851Y180899D02*
D03*
X421651Y157099D02*
D03*
X425599Y157199D02*
D03*
X429351Y157189D02*
D03*
X645773Y186799D02*
D03*
X645598Y191099D02*
D03*
X413751Y146399D02*
D03*
X417151Y145499D02*
D03*
X422951Y141999D02*
D03*
X249852Y154399D02*
D03*
X613351Y126399D02*
D03*
X612099Y142000D02*
D03*
D70*
X437151Y165599D02*
D03*
X436351Y170360D02*
D03*
X462851Y152899D02*
D03*
X495351D02*
D03*
X515351Y160899D02*
D03*
D71*
X314633Y397614D02*
D03*
X249633D02*
D03*
X254633D02*
D03*
X259633D02*
D03*
X264633D02*
D03*
X269633D02*
D03*
X274633D02*
D03*
X279633D02*
D03*
X284633D02*
D03*
X289633D02*
D03*
X294633D02*
D03*
X299633D02*
D03*
X304633D02*
D03*
X309633D02*
D03*
X329633D02*
D03*
X324633D02*
D03*
X319633D02*
D03*
X334633D02*
D03*
D72*
X251818Y335771D02*
D03*
X241818D02*
D03*
X251818Y345771D02*
D03*
X241818D02*
D03*
D73*
X272685Y269629D02*
D03*
X262685D02*
D03*
D74*
X249062Y270811D02*
D03*
D75*
X315670Y301279D02*
D03*
X305651Y294643D02*
D03*
X308051Y297943D02*
D03*
X310152Y296043D02*
D03*
X303651Y296643D02*
D03*
X310951Y292043D02*
D03*
X313651Y295943D02*
D03*
X329852Y296543D02*
D03*
X327463Y300732D02*
D03*
X287752Y306643D02*
D03*
X315352Y320143D02*
D03*
X308118Y325143D02*
D03*
X327751Y326043D02*
D03*
X363851Y268943D02*
D03*
X362052Y249843D02*
D03*
X246751Y363043D02*
D03*
X243451Y373689D02*
D03*
X351652Y246443D02*
D03*
X356051Y366443D02*
D03*
X253451Y408043D02*
D03*
X269652Y407943D02*
D03*
X291752D02*
D03*
X277751Y372843D02*
D03*
X280552Y377143D02*
D03*
X289651Y376743D02*
D03*
X284651Y377143D02*
D03*
X294752Y378643D02*
D03*
X268952Y372643D02*
D03*
X264452Y372543D02*
D03*
X348275Y269236D02*
D03*
X344732Y268055D02*
D03*
X338039Y290889D02*
D03*
X333314Y257031D02*
D03*
X299062Y339708D02*
D03*
X248128Y282419D02*
D03*
X277151Y298543D02*
D03*
X280051Y299743D02*
D03*
X280152Y302543D02*
D03*
X271652Y262143D02*
D03*
X286752Y265943D02*
D03*
X276151Y260043D02*
D03*
X281951Y273643D02*
D03*
X279952Y275743D02*
D03*
X254552Y296843D02*
D03*
X287752Y257643D02*
D03*
X280152Y259943D02*
D03*
X242251Y282143D02*
D03*
X295851Y257743D02*
D03*
X286452Y263143D02*
D03*
X285251Y341143D02*
D03*
X263452Y347643D02*
D03*
X256152Y331443D02*
D03*
X254351Y350543D02*
D03*
X259752Y342543D02*
D03*
X267951Y351543D02*
D03*
Y354343D02*
D03*
X268851Y313743D02*
D03*
X266752Y315743D02*
D03*
Y305843D02*
D03*
X294752Y321543D02*
D03*
X292352Y319543D02*
D03*
X317566Y247528D02*
D03*
X310244Y258451D02*
D03*
X280210Y278685D02*
D03*
X267566Y301628D02*
D03*
X288039Y326855D02*
D03*
X275441Y338232D02*
D03*
X269535Y337326D02*
D03*
X262551Y281543D02*
D03*
X256751Y367543D02*
D03*
Y347443D02*
D03*
X270551Y293643D02*
D03*
X264352Y286743D02*
D03*
X254341Y300732D02*
D03*
X248151Y316543D02*
D03*
X242271Y311723D02*
D03*
X250014Y360181D02*
D03*
X257951Y372243D02*
D03*
X252852Y376243D02*
D03*
X249633Y372161D02*
D03*
X268151Y366343D02*
D03*
X344732Y258999D02*
D03*
X360283Y256834D02*
D03*
X288039Y337740D02*
D03*
X278984Y338527D02*
D03*
X309299Y340495D02*
D03*
X315992Y336165D02*
D03*
X277409Y351495D02*
D03*
X287251D02*
D03*
X302999D02*
D03*
X317652Y344243D02*
D03*
X327151Y290943D02*
D03*
X322751Y280343D02*
D03*
X329651Y272943D02*
D03*
X348111Y258803D02*
D03*
X344851Y255843D02*
D03*
X338251Y267343D02*
D03*
X335051Y267843D02*
D03*
X325751Y249543D02*
D03*
X328151Y255843D02*
D03*
Y258743D02*
D03*
X289452Y276743D02*
D03*
X298451Y277543D02*
D03*
X315951Y263343D02*
D03*
X339951Y275943D02*
D03*
X337052Y275843D02*
D03*
X321652Y290743D02*
D03*
X322352Y285543D02*
D03*
X318352D02*
D03*
X242763Y260968D02*
D03*
X258511Y260574D02*
D03*
X248252Y303543D02*
D03*
X242763Y404275D02*
D03*
X336852Y270143D02*
D03*
X281252Y263043D02*
D03*
X303393Y340102D02*
D03*
X303393Y372385D02*
D03*
X347881Y401519D02*
D03*
X283708Y324354D02*
D03*
X352212Y372779D02*
D03*
X304181Y312543D02*
D03*
X356937Y403094D02*
D03*
X317251Y373043D02*
D03*
X303952Y390343D02*
D03*
X324751Y371643D02*
D03*
X299352Y390343D02*
D03*
X318851Y377343D02*
D03*
X314633Y389661D02*
D03*
X309651Y389743D02*
D03*
X334552Y389943D02*
D03*
Y378843D02*
D03*
X345926Y345411D02*
D03*
X348726D02*
D03*
X308552Y407843D02*
D03*
X342452Y407943D02*
D03*
X362351Y408443D02*
D03*
X329252Y358843D02*
D03*
X254751Y341043D02*
D03*
M02*
