G04 Layer_Color=16711935*
%FSLAX25Y25*%
%MOIN*%
G70*
G01*
G75*
%ADD32C,0.01000*%
%ADD34C,0.00600*%
%ADD56C,0.00800*%
%ADD59C,0.00500*%
%ADD142C,0.00408*%
D32*
X556453Y348398D02*
Y346398D01*
X557453Y345399D01*
X561451D01*
X562451Y346398D01*
Y348398D01*
X561451Y349397D01*
X557453D01*
X556453Y348398D01*
X558452Y351397D02*
X561451D01*
X562451Y352396D01*
Y355396D01*
X558452D01*
X557453Y358395D02*
X558452D01*
Y357395D01*
Y359394D01*
Y358395D01*
X561451D01*
X562451Y359394D01*
Y362393D02*
Y364393D01*
Y363393D01*
X556453D01*
Y362393D01*
X562451Y367392D02*
Y369391D01*
Y368391D01*
X558452D01*
Y367392D01*
X562451Y372390D02*
X558452D01*
Y375389D01*
X559452Y376389D01*
X562451D01*
Y381387D02*
Y379388D01*
X561451Y378388D01*
X559452D01*
X558452Y379388D01*
Y381387D01*
X559452Y382387D01*
X560452D01*
Y378388D01*
X172744Y297358D02*
X170744D01*
X169745Y296358D01*
Y292360D01*
X170744Y291360D01*
X172744D01*
X173743Y292360D01*
Y296358D01*
X172744Y297358D01*
X175743Y295359D02*
Y292360D01*
X176742Y291360D01*
X179742D01*
Y295359D01*
X182740Y296358D02*
Y295359D01*
X181741D01*
X183740D01*
X182740D01*
Y292360D01*
X183740Y291360D01*
X186739D02*
X188739D01*
X187739D01*
Y297358D01*
X186739D01*
X191738Y291360D02*
X193737D01*
X192737D01*
Y295359D01*
X191738D01*
X196736Y291360D02*
Y295359D01*
X199735D01*
X200735Y294359D01*
Y291360D01*
X205733D02*
X203734D01*
X202734Y292360D01*
Y294359D01*
X203734Y295359D01*
X205733D01*
X206733Y294359D01*
Y293359D01*
X202734D01*
D34*
X423516Y449494D02*
G03*
X423516Y449494I-5700J0D01*
G01*
X585199Y298700D02*
G03*
X585199Y298700I-5700J0D01*
G01*
X402099Y229800D02*
G03*
X402099Y229800I-5700J0D01*
G01*
X675699Y220000D02*
G03*
X675699Y220000I-5700J0D01*
G01*
X224999Y184500D02*
G03*
X224999Y184500I-5700J0D01*
G01*
X429216Y424594D02*
G03*
X427437Y428419I-5000J1D01*
G01*
X417516Y459294D02*
G03*
X411452Y442036I300J-9800D01*
G01*
X417516Y459294D02*
G03*
X494633Y468209I-12450J445697D01*
G01*
X571599Y287900D02*
G03*
X570430Y291114I-5000J1D01*
G01*
X570460Y306285D02*
G03*
X570447Y291131I9039J-7585D01*
G01*
X570430Y306286D02*
G03*
X571599Y309500I-3831J3213D01*
G01*
X605723Y346507D02*
G03*
X607999Y350700I-2723J4192D01*
G01*
X612999Y389300D02*
G03*
X607999Y384300I0J-5000D01*
G01*
X626699Y389300D02*
G03*
X631645Y393561I0J5001D01*
G01*
X631737Y393533D02*
G03*
X575037Y451940I-50637J7568D01*
G01*
X574399Y451900D02*
G03*
X574991Y451936I-7J5000D01*
G01*
X527599Y451900D02*
G03*
X522599Y446900I0J-5000D01*
G01*
X517599Y429800D02*
G03*
X522599Y434800I0J5000D01*
G01*
X445899Y429800D02*
G03*
X440899Y424800I0J-5000D01*
G01*
Y321400D02*
G03*
X445899Y316400I5000J0D01*
G01*
Y281000D02*
G03*
X440899Y276000I0J-5000D01*
G01*
Y172600D02*
G03*
X445899Y167600I5000J0D01*
G01*
X522599Y162600D02*
G03*
X517599Y167600I-5000J0D01*
G01*
X522599Y150600D02*
G03*
X527599Y145600I5000J0D01*
G01*
X574991Y145565D02*
G03*
X574399Y145600I-591J-4965D01*
G01*
X575037Y145561D02*
G03*
X631737Y203968I6063J50840D01*
G01*
X631645Y203939D02*
G03*
X626699Y208200I-4946J-740D01*
G01*
X607999Y213200D02*
G03*
X612999Y208200I5000J0D01*
G01*
X607999Y247500D02*
G03*
X605723Y251694I-5000J1D01*
G01*
X271199Y163500D02*
G03*
X276199Y158500I5000J0D01*
G01*
X382799D02*
G03*
X387799Y163500I0J5000D01*
G01*
X392799Y240200D02*
G03*
X387799Y235200I0J-5000D01*
G01*
X404799Y240200D02*
G03*
X409799Y245200I0J5000D01*
G01*
X415668Y285124D02*
G03*
X409799Y280200I-869J-4924D01*
G01*
X415703Y285110D02*
G03*
X429866Y305911I2396J13590D01*
G01*
X429099Y308500D02*
G03*
X429836Y305888I4999J1D01*
G01*
X433768Y460030D02*
G03*
X494640Y468206I-28767J444871D01*
G01*
X661737Y443060D02*
G03*
X581986Y486002I-65737J-26559D01*
G01*
X661607Y154177D02*
G03*
X661859Y442599I-357708J144524D01*
G01*
X581986Y111399D02*
G03*
X661737Y154341I14014J69501D01*
G01*
X494914Y129176D02*
G03*
X374398Y137286I-90055J-438713D01*
G01*
X248123Y137498D02*
G03*
X374671Y137370I64179J895306D01*
G01*
X222012Y154064D02*
G03*
X248120Y137445I27788J14837D01*
G01*
X207365Y185649D02*
G03*
X221998Y154053I285528J113050D01*
G01*
X211131Y192424D02*
G03*
X207351Y185660I868J-4923D01*
G01*
X271199Y197100D02*
G03*
X265331Y202024I-5000J0D01*
G01*
X599716Y309524D02*
Y340524D01*
X605716Y346524D01*
X571616Y309524D02*
X599716D01*
X571616Y287824D02*
X599716D01*
Y257724D02*
Y287824D01*
Y257724D02*
X605716Y251724D01*
X429116Y308624D02*
X429216Y424624D01*
X411416Y441994D02*
X427416Y428394D01*
X607999Y350700D02*
Y384300D01*
X612999Y389300D02*
X626699D01*
X527599Y451900D02*
X574399D01*
X522599Y434800D02*
Y446900D01*
X445899Y429800D02*
X517599D01*
X440899Y321400D02*
Y424800D01*
X445899Y316400D02*
X507799D01*
Y281000D02*
Y316400D01*
X445899Y281000D02*
X507799D01*
X440899Y172600D02*
Y276000D01*
X445899Y167600D02*
X517599D01*
X522599Y150600D02*
Y162600D01*
X527599Y145600D02*
X574399D01*
X612999Y208200D02*
X626699D01*
X607999Y213200D02*
Y247500D01*
X276199Y158500D02*
X382799D01*
X387799Y163500D02*
Y235200D01*
X392799Y240200D02*
X404799D01*
X409799Y245200D02*
Y280200D01*
X211099Y192400D02*
X265399Y202000D01*
X271199Y163500D02*
Y197100D01*
X494499Y468200D02*
X581999Y486000D01*
X494146Y129372D02*
X581999Y111500D01*
X271199Y197100D02*
G03*
X265331Y202024I-5000J0D01*
G01*
X211131Y192424D02*
G03*
X207351Y185660I868J-4923D01*
G01*
X207365Y185649D02*
G03*
X221998Y154053I285528J113050D01*
G01*
X222012Y154064D02*
G03*
X248120Y137445I27788J14837D01*
G01*
X248123Y137498D02*
G03*
X374671Y137370I64179J895306D01*
G01*
X494138Y129335D02*
G03*
X375560Y137364I-89279J-438871D01*
G01*
X578946Y112082D02*
G03*
X661773Y154430I17054J68818D01*
G01*
X662305Y155917D02*
G03*
X662238Y441653I-358406J142783D01*
G01*
X661737Y443060D02*
G03*
X581986Y486002I-65737J-26559D01*
G01*
X429099Y308500D02*
G03*
X429836Y305888I4999J1D01*
G01*
X415703Y285110D02*
G03*
X429866Y305911I2396J13590D01*
G01*
X415668Y285124D02*
G03*
X409799Y280200I-869J-4924D01*
G01*
X404799Y240200D02*
G03*
X409799Y245200I0J5000D01*
G01*
X392799Y240200D02*
G03*
X387799Y235200I0J-5000D01*
G01*
X382799Y158500D02*
G03*
X387799Y163500I0J5000D01*
G01*
X271199D02*
G03*
X276199Y158500I5000J0D01*
G01*
X417516Y459294D02*
G03*
X494633Y468209I-12450J445697D01*
G01*
X417516Y459294D02*
G03*
X411452Y442036I300J-9800D01*
G01*
X429216Y424594D02*
G03*
X427437Y428419I-5000J1D01*
G01*
X494146Y129372D02*
X578955Y112119D01*
X494543Y468209D02*
X581999Y486000D01*
X271199Y163500D02*
Y197100D01*
X211099Y192400D02*
X265399Y202000D01*
X409799Y245200D02*
Y280200D01*
X392799Y240200D02*
X404799D01*
X387799Y163500D02*
Y235200D01*
X276199Y158500D02*
X382799D01*
X411416Y441994D02*
X427416Y428394D01*
X429117Y309399D02*
X429216Y424624D01*
X374671Y137370D02*
X375554D01*
X661773Y154430D02*
X662305Y155917D01*
X661737Y443060D02*
X662238Y441653D01*
X494543Y468209D02*
X494633D01*
X429099Y308500D02*
Y309381D01*
X429117Y309399D01*
D56*
X176000Y87000D02*
Y515000D01*
X709000D01*
Y87000D02*
Y515000D01*
X176000Y87000D02*
X709000D01*
D59*
X237351Y243251D02*
X367273D01*
Y412543D01*
X237351D02*
X367273D01*
X237351Y243251D02*
Y412543D01*
D142*
X472512Y170766D02*
X472059Y171219D01*
X471152D01*
X470699Y170766D01*
Y168953D01*
X471152Y168500D01*
X472059D01*
X472512Y168953D01*
X473418Y171219D02*
Y168953D01*
X473872Y168500D01*
X474778D01*
X475231Y168953D01*
Y171219D01*
X476137D02*
X477950D01*
X477044D01*
Y168500D01*
X480216Y171219D02*
X479310D01*
X478857Y170766D01*
Y168953D01*
X479310Y168500D01*
X480216D01*
X480669Y168953D01*
Y170766D01*
X480216Y171219D01*
X481576D02*
Y168953D01*
X482029Y168500D01*
X482935D01*
X483388Y168953D01*
Y171219D01*
X484295D02*
X486107D01*
X485201D01*
Y168500D01*
X442352Y222004D02*
X441899Y221551D01*
Y220644D01*
X442352Y220191D01*
X444165D01*
X444618Y220644D01*
Y221551D01*
X444165Y222004D01*
X441899Y222910D02*
X444165D01*
X444618Y223364D01*
Y224270D01*
X444165Y224723D01*
X441899D01*
Y225630D02*
Y227442D01*
Y226536D01*
X444618D01*
X441899Y229708D02*
Y228802D01*
X442352Y228349D01*
X444165D01*
X444618Y228802D01*
Y229708D01*
X444165Y230161D01*
X442352D01*
X441899Y229708D01*
Y231068D02*
X444165D01*
X444618Y231521D01*
Y232427D01*
X444165Y232881D01*
X441899D01*
Y233787D02*
Y235600D01*
Y234693D01*
X444618D01*
X476903Y279447D02*
X476450Y279900D01*
X475544D01*
X475091Y279447D01*
Y277634D01*
X475544Y277181D01*
X476450D01*
X476903Y277634D01*
X477810Y279900D02*
Y277634D01*
X478263Y277181D01*
X479170D01*
X479623Y277634D01*
Y279900D01*
X480529D02*
X482342D01*
X481435D01*
Y277181D01*
X484608Y279900D02*
X483701D01*
X483248Y279447D01*
Y277634D01*
X483701Y277181D01*
X484608D01*
X485061Y277634D01*
Y279447D01*
X484608Y279900D01*
X485967D02*
Y277634D01*
X486420Y277181D01*
X487327D01*
X487780Y277634D01*
Y279900D01*
X488686D02*
X490499D01*
X489593D01*
Y277181D01*
X475012Y319766D02*
X474559Y320219D01*
X473652D01*
X473199Y319766D01*
Y317953D01*
X473652Y317500D01*
X474559D01*
X475012Y317953D01*
X475918Y320219D02*
Y317953D01*
X476371Y317500D01*
X477278D01*
X477731Y317953D01*
Y320219D01*
X478637D02*
X480450D01*
X479544D01*
Y317500D01*
X482716Y320219D02*
X481810D01*
X481356Y319766D01*
Y317953D01*
X481810Y317500D01*
X482716D01*
X483169Y317953D01*
Y319766D01*
X482716Y320219D01*
X484076D02*
Y317953D01*
X484529Y317500D01*
X485435D01*
X485888Y317953D01*
Y320219D01*
X486795D02*
X488608D01*
X487701D01*
Y317500D01*
X509352Y294004D02*
X508899Y293551D01*
Y292645D01*
X509352Y292191D01*
X511165D01*
X511618Y292645D01*
Y293551D01*
X511165Y294004D01*
X508899Y294911D02*
X511165D01*
X511618Y295364D01*
Y296270D01*
X511165Y296723D01*
X508899D01*
Y297630D02*
Y299442D01*
Y298536D01*
X511618D01*
X508899Y301708D02*
Y300802D01*
X509352Y300349D01*
X511165D01*
X511618Y300802D01*
Y301708D01*
X511165Y302162D01*
X509352D01*
X508899Y301708D01*
Y303068D02*
X511165D01*
X511618Y303521D01*
Y304427D01*
X511165Y304881D01*
X508899D01*
Y305787D02*
Y307600D01*
Y306693D01*
X511618D01*
X604533Y218613D02*
X604080Y218159D01*
Y217253D01*
X604533Y216800D01*
X606346D01*
X606799Y217253D01*
Y218159D01*
X606346Y218613D01*
X604080Y219519D02*
X606346D01*
X606799Y219972D01*
Y220878D01*
X606346Y221332D01*
X604080D01*
Y222238D02*
Y224051D01*
Y223144D01*
X606799D01*
X604080Y226317D02*
Y225410D01*
X604533Y224957D01*
X606346D01*
X606799Y225410D01*
Y226317D01*
X606346Y226770D01*
X604533D01*
X604080Y226317D01*
Y227676D02*
X606346D01*
X606799Y228129D01*
Y229036D01*
X606346Y229489D01*
X604080D01*
Y230395D02*
Y232208D01*
Y231302D01*
X606799D01*
X604533Y369112D02*
X604080Y368659D01*
Y367753D01*
X604533Y367300D01*
X606346D01*
X606799Y367753D01*
Y368659D01*
X606346Y369112D01*
X604080Y370019D02*
X606346D01*
X606799Y370472D01*
Y371378D01*
X606346Y371832D01*
X604080D01*
Y372738D02*
Y374551D01*
Y373644D01*
X606799D01*
X604080Y376817D02*
Y375910D01*
X604533Y375457D01*
X606346D01*
X606799Y375910D01*
Y376817D01*
X606346Y377270D01*
X604533D01*
X604080Y376817D01*
Y378176D02*
X606346D01*
X606799Y378629D01*
Y379536D01*
X606346Y379989D01*
X604080D01*
Y380895D02*
Y382708D01*
Y381802D01*
X606799D01*
X552403Y449946D02*
X551950Y450400D01*
X551044D01*
X550591Y449946D01*
Y448134D01*
X551044Y447681D01*
X551950D01*
X552403Y448134D01*
X553310Y450400D02*
Y448134D01*
X553763Y447681D01*
X554670D01*
X555123Y448134D01*
Y450400D01*
X556029D02*
X557842D01*
X556935D01*
Y447681D01*
X560108Y450400D02*
X559201D01*
X558748Y449946D01*
Y448134D01*
X559201Y447681D01*
X560108D01*
X560561Y448134D01*
Y449946D01*
X560108Y450400D01*
X561467D02*
Y448134D01*
X561920Y447681D01*
X562827D01*
X563280Y448134D01*
Y450400D01*
X564186D02*
X565999D01*
X565093D01*
Y447681D01*
X478404Y427947D02*
X477950Y428400D01*
X477044D01*
X476591Y427947D01*
Y426134D01*
X477044Y425681D01*
X477950D01*
X478404Y426134D01*
X479310Y428400D02*
Y426134D01*
X479763Y425681D01*
X480669D01*
X481123Y426134D01*
Y428400D01*
X482029D02*
X483842D01*
X482935D01*
Y425681D01*
X486108Y428400D02*
X485201D01*
X484748Y427947D01*
Y426134D01*
X485201Y425681D01*
X486108D01*
X486561Y426134D01*
Y427947D01*
X486108Y428400D01*
X487467D02*
Y426134D01*
X487921Y425681D01*
X488827D01*
X489280Y426134D01*
Y428400D01*
X490186D02*
X491999D01*
X491093D01*
Y425681D01*
X442452Y385504D02*
X441999Y385051D01*
Y384144D01*
X442452Y383691D01*
X444265D01*
X444718Y384144D01*
Y385051D01*
X444265Y385504D01*
X441999Y386410D02*
X444265D01*
X444718Y386864D01*
Y387770D01*
X444265Y388223D01*
X441999D01*
Y389130D02*
Y390942D01*
Y390036D01*
X444718D01*
X441999Y393208D02*
Y392302D01*
X442452Y391849D01*
X444265D01*
X444718Y392302D01*
Y393208D01*
X444265Y393661D01*
X442452D01*
X441999Y393208D01*
Y394568D02*
X444265D01*
X444718Y395021D01*
Y395927D01*
X444265Y396381D01*
X441999D01*
Y397287D02*
Y399100D01*
Y398193D01*
X444718D01*
X558012Y148766D02*
X557559Y149219D01*
X556652D01*
X556199Y148766D01*
Y146953D01*
X556652Y146500D01*
X557559D01*
X558012Y146953D01*
X558918Y149219D02*
Y146953D01*
X559372Y146500D01*
X560278D01*
X560731Y146953D01*
Y149219D01*
X561637D02*
X563450D01*
X562544D01*
Y146500D01*
X565716Y149219D02*
X564810D01*
X564357Y148766D01*
Y146953D01*
X564810Y146500D01*
X565716D01*
X566169Y146953D01*
Y148766D01*
X565716Y149219D01*
X567076D02*
Y146953D01*
X567529Y146500D01*
X568435D01*
X568888Y146953D01*
Y149219D01*
X569795D02*
X571607D01*
X570701D01*
Y146500D01*
M02*
