G04 Layer_Physical_Order=2*
G04 Layer_Color=36540*
%FSLAX25Y25*%
%MOIN*%
G70*
G01*
G75*
%ADD32C,0.01000*%
%ADD34C,0.00600*%
%ADD39C,0.02000*%
%ADD56C,0.00800*%
%ADD59C,0.00500*%
%ADD60C,0.12800*%
%ADD61C,0.06299*%
%ADD65R,0.04725X0.04725*%
%ADD66C,0.15000*%
%ADD68C,0.17700*%
%ADD69C,0.02400*%
%ADD70C,0.02500*%
%ADD71C,0.04400*%
%ADD75C,0.02200*%
G36*
X600993Y486317D02*
X605961Y485783D01*
X610878Y484895D01*
X615719Y483660D01*
X620460Y482082D01*
X625076Y480170D01*
X629544Y477933D01*
X633842Y475384D01*
X637946Y472534D01*
X641836Y469399D01*
X645493Y465994D01*
X648898Y462337D01*
X652033Y458447D01*
X654883Y454342D01*
X657433Y450045D01*
X659669Y445577D01*
X660859Y442705D01*
X660859Y442705D01*
X660859Y442705D01*
X660895Y442688D01*
X661219Y441778D01*
X661373Y441346D01*
X661386Y441314D01*
X661386Y441314D01*
X661768Y440391D01*
X666042Y429080D01*
X669959Y417640D01*
X673514Y406083D01*
X676705Y394421D01*
X679528Y382663D01*
X681980Y370823D01*
X684059Y358912D01*
X685762Y346941D01*
X687089Y334922D01*
X688038Y322868D01*
X688607Y310790D01*
X688797Y298700D01*
X688607Y286610D01*
X688038Y274532D01*
X687089Y262478D01*
X685762Y250460D01*
X684059Y238489D01*
X681980Y226578D01*
X679528Y214738D01*
X676705Y202980D01*
X673514Y191317D01*
X669959Y179761D01*
X666042Y168321D01*
X661768Y157010D01*
X661456Y156255D01*
X661455Y156256D01*
X661441Y156226D01*
X661285Y155791D01*
X660931Y154799D01*
X660895Y154783D01*
X660895D01*
X660895Y154783D01*
X659669Y151823D01*
X657433Y147355D01*
X654883Y143058D01*
X652033Y138954D01*
X648898Y135063D01*
X645493Y131406D01*
X641836Y128002D01*
X637946Y124866D01*
X633842Y122017D01*
X629544Y119467D01*
X625076Y117231D01*
X620460Y115319D01*
X615719Y113741D01*
X610878Y112505D01*
X605961Y111618D01*
X603923Y111399D01*
X588077D01*
X586038Y111618D01*
X581121Y112505D01*
X579181Y113000D01*
X579138Y113018D01*
X494329Y130271D01*
X494193Y130271D01*
X482794Y132453D01*
X469906Y134532D01*
X456963Y136236D01*
X443975Y137563D01*
X430955Y138512D01*
X417913Y139081D01*
X410913Y139183D01*
X410681Y139626D01*
X410866Y139902D01*
X411044Y140800D01*
X410866Y141697D01*
X410357Y142458D01*
X409597Y142966D01*
X408699Y143145D01*
X408364Y143078D01*
X408168Y143518D01*
X408161Y143548D01*
X408666Y144302D01*
X408844Y145200D01*
X408666Y146097D01*
X408157Y146858D01*
X407397Y147366D01*
X406499Y147545D01*
X405602Y147366D01*
X404841Y146858D01*
X404333Y146097D01*
X404154Y145200D01*
X404333Y144302D01*
X404841Y143542D01*
X405602Y143033D01*
X406499Y142855D01*
X406835Y142921D01*
X407030Y142481D01*
X407037Y142452D01*
X406533Y141697D01*
X406354Y140800D01*
X406533Y139902D01*
X406676Y139687D01*
X406437Y139248D01*
X404859Y139271D01*
X391806Y139081D01*
X378763Y138512D01*
X375589Y138280D01*
X375554Y138287D01*
X375097D01*
X374605Y138314D01*
X374605Y138314D01*
X374605Y138314D01*
X367866Y137826D01*
X349358Y136869D01*
X330834Y136294D01*
X312302Y136102D01*
X293770Y136294D01*
X275246Y136869D01*
X256738Y137826D01*
X248191Y138445D01*
X248191Y138445D01*
Y138445D01*
X247713Y138419D01*
X246374Y138494D01*
X242991Y139069D01*
X239694Y140019D01*
X236523Y141332D01*
X233520Y142992D01*
X230722Y144978D01*
X228163Y147264D01*
X225877Y149823D01*
X223891Y152621D01*
X222847Y154510D01*
X222847Y154510D01*
X222847Y154510D01*
X222813Y154520D01*
X219088Y161641D01*
X214371Y171501D01*
X210008Y181524D01*
X208248Y185998D01*
X208248D01*
X208054Y186443D01*
X207915Y187500D01*
X208054Y188557D01*
X208462Y189542D01*
X209111Y190388D01*
X209957Y191037D01*
X210942Y191446D01*
X211296Y191492D01*
X211294Y191502D01*
X265559Y201096D01*
X265575Y201102D01*
X266199Y201185D01*
X267256Y201045D01*
X268242Y200637D01*
X269088Y199988D01*
X269737Y199142D01*
X270145Y198157D01*
X270221Y197575D01*
X270282Y197100D01*
D01*
X270282Y196606D01*
Y163500D01*
X270271D01*
X270385Y162343D01*
X270722Y161231D01*
X271270Y160206D01*
X272007Y159308D01*
X272905Y158570D01*
X273930Y158022D01*
X275043Y157685D01*
X276199Y157571D01*
Y157582D01*
X382799D01*
Y157571D01*
X383956Y157685D01*
X385068Y158022D01*
X386093Y158570D01*
X386991Y159308D01*
X387729Y160206D01*
X388276Y161231D01*
X388614Y162343D01*
X388728Y163500D01*
X388717D01*
Y227566D01*
X389217Y227640D01*
X389437Y226916D01*
X390133Y225613D01*
X391070Y224471D01*
X392212Y223534D01*
X393515Y222837D01*
X394929Y222408D01*
X396399Y222263D01*
X397869Y222408D01*
X399283Y222837D01*
X400586Y223534D01*
X401728Y224471D01*
X402665Y225613D01*
X403362Y226916D01*
X403791Y228329D01*
X403935Y229800D01*
X403791Y231270D01*
X403362Y232684D01*
X402665Y233987D01*
X401728Y235129D01*
X400586Y236066D01*
X399283Y236762D01*
X397869Y237191D01*
X396399Y237336D01*
X394929Y237191D01*
X393515Y236762D01*
X392212Y236066D01*
X391070Y235129D01*
X390133Y233987D01*
X389437Y232684D01*
X389217Y231959D01*
X388717Y232033D01*
Y235200D01*
X388715Y235208D01*
X388853Y236257D01*
X389262Y237242D01*
X389911Y238088D01*
X390757Y238737D01*
X391742Y239145D01*
X392791Y239284D01*
X392799Y239282D01*
X404799D01*
Y239271D01*
X405956Y239385D01*
X407068Y239722D01*
X408093Y240270D01*
X408991Y241008D01*
X409728Y241906D01*
X410276Y242931D01*
X410614Y244043D01*
X410728Y245200D01*
X410717D01*
Y280200D01*
X410715Y280207D01*
X410853Y281257D01*
X411262Y282242D01*
X411911Y283088D01*
X412757Y283737D01*
X413742Y284145D01*
X414799Y284285D01*
X415504Y284192D01*
X415793Y284136D01*
X415793Y284136D01*
X416036Y284117D01*
X418100Y283955D01*
X420406Y284136D01*
X422656Y284676D01*
X424794Y285562D01*
X426767Y286771D01*
X428526Y288274D01*
X430029Y290033D01*
X431238Y292006D01*
X432124Y294144D01*
X432664Y296393D01*
X432845Y298700D01*
X432664Y301007D01*
X432124Y303257D01*
X431238Y305395D01*
X430633Y306381D01*
X430634Y306381D01*
X430527Y306542D01*
X430153Y307443D01*
X430015Y308492D01*
X430017Y308500D01*
Y309310D01*
X430034Y309398D01*
X430134Y424594D01*
X430145D01*
X430145Y424594D01*
X430097Y425078D01*
X430031Y425751D01*
X429693Y426863D01*
X429145Y427888D01*
X428408Y428787D01*
X428398Y428795D01*
X428020Y429111D01*
D01*
X427632Y429414D01*
X412379Y442379D01*
X412068Y442757D01*
Y442757D01*
X411525Y443203D01*
X410419Y444551D01*
X409596Y446089D01*
X409090Y447758D01*
X408919Y449494D01*
X409090Y451230D01*
X409596Y452899D01*
X410419Y454437D01*
X411525Y455785D01*
X412873Y456892D01*
X414411Y457714D01*
X416081Y458220D01*
X417532Y458363D01*
X417542Y458354D01*
Y458354D01*
X417542Y458354D01*
X418061Y458362D01*
X431046Y458928D01*
X444008Y459873D01*
X456938Y461194D01*
X469824Y462890D01*
X482655Y464961D01*
X494822Y467289D01*
Y467289D01*
X495304Y467427D01*
X582156Y485095D01*
X582171Y485085D01*
X582171Y485085D01*
X582171Y485085D01*
X586038Y485783D01*
X591006Y486317D01*
X596000Y486495D01*
X600993Y486317D01*
D02*
G37*
G36*
X366204Y244220D02*
X352267D01*
X352217Y244720D01*
X352354Y244747D01*
X352949Y245145D01*
X353347Y245741D01*
X353487Y246443D01*
X353347Y247145D01*
X352949Y247741D01*
X352354Y248138D01*
X351652Y248278D01*
X350949Y248138D01*
X350354Y247741D01*
X349956Y247145D01*
X349816Y246443D01*
X349956Y245741D01*
X350354Y245145D01*
X350949Y244747D01*
X351086Y244720D01*
X351037Y244220D01*
X238220D01*
Y333151D01*
X238720Y333320D01*
X239001Y332954D01*
X239826Y332321D01*
X240787Y331923D01*
X241818Y331787D01*
X242850Y331923D01*
X243811Y332321D01*
X244636Y332954D01*
X245269Y333779D01*
X245667Y334740D01*
X245802Y335771D01*
X245667Y336802D01*
X245269Y337763D01*
X244636Y338588D01*
X243811Y339222D01*
X242850Y339619D01*
X241818Y339755D01*
X240787Y339619D01*
X239826Y339222D01*
X239001Y338588D01*
X238720Y338222D01*
X238220Y338392D01*
Y343151D01*
X238720Y343320D01*
X239001Y342954D01*
X239826Y342321D01*
X240787Y341923D01*
X241818Y341787D01*
X242850Y341923D01*
X243811Y342321D01*
X244636Y342954D01*
X245269Y343779D01*
X245667Y344740D01*
X245802Y345771D01*
X245667Y346802D01*
X245269Y347763D01*
X244636Y348588D01*
X243811Y349221D01*
X242850Y349620D01*
X241818Y349755D01*
X240787Y349620D01*
X239826Y349221D01*
X239001Y348588D01*
X238720Y348222D01*
X238220Y348392D01*
Y411574D01*
X366204D01*
Y244220D01*
D02*
G37*
%LPC*%
G36*
X602924Y465138D02*
Y461519D01*
X606544D01*
X606467Y462102D01*
X606049Y463111D01*
X605384Y463978D01*
X604517Y464643D01*
X603507Y465061D01*
X602924Y465138D01*
D02*
G37*
G36*
X601924D02*
X601341Y465061D01*
X600331Y464643D01*
X599465Y463978D01*
X598800Y463111D01*
X598381Y462102D01*
X598305Y461519D01*
X601924D01*
Y465138D01*
D02*
G37*
G36*
X561174Y465126D02*
Y461507D01*
X564794D01*
X564717Y462090D01*
X564299Y463099D01*
X563634Y463966D01*
X562767Y464631D01*
X561757Y465049D01*
X561174Y465126D01*
D02*
G37*
G36*
X560174D02*
X559591Y465049D01*
X558581Y464631D01*
X557715Y463966D01*
X557050Y463099D01*
X556631Y462090D01*
X556555Y461507D01*
X560174D01*
Y465126D01*
D02*
G37*
G36*
X606544Y460519D02*
X602924D01*
Y456899D01*
X603507Y456976D01*
X604517Y457394D01*
X605384Y458059D01*
X606049Y458926D01*
X606467Y459936D01*
X606544Y460519D01*
D02*
G37*
G36*
X601924D02*
X598305D01*
X598381Y459936D01*
X598800Y458926D01*
X599465Y458059D01*
X600331Y457394D01*
X601341Y456976D01*
X601924Y456899D01*
Y460519D01*
D02*
G37*
G36*
X564794Y460507D02*
X561174D01*
Y456887D01*
X561757Y456964D01*
X562767Y457382D01*
X563634Y458047D01*
X564299Y458914D01*
X564717Y459924D01*
X564794Y460507D01*
D02*
G37*
G36*
X560174D02*
X556555D01*
X556631Y459924D01*
X557050Y458914D01*
X557715Y458047D01*
X558581Y457382D01*
X559591Y456964D01*
X560174Y456887D01*
Y460507D01*
D02*
G37*
G36*
X592581Y465305D02*
X591472Y465159D01*
X590438Y464731D01*
X589550Y464049D01*
X588869Y463162D01*
X588441Y462128D01*
X588295Y461019D01*
X588441Y459909D01*
X588869Y458876D01*
X589550Y457988D01*
X590438Y457307D01*
X591472Y456879D01*
X592581Y456733D01*
X593690Y456879D01*
X594724Y457307D01*
X595612Y457988D01*
X596293Y458876D01*
X596721Y459909D01*
X596867Y461019D01*
X596721Y462128D01*
X596293Y463162D01*
X595612Y464049D01*
X594724Y464731D01*
X593690Y465159D01*
X592581Y465305D01*
D02*
G37*
G36*
X582738D02*
X581629Y465159D01*
X580595Y464731D01*
X579707Y464049D01*
X579026Y463162D01*
X578598Y462128D01*
X578452Y461019D01*
X578598Y459909D01*
X579026Y458876D01*
X579707Y457988D01*
X580595Y457307D01*
X581629Y456879D01*
X582738Y456733D01*
X583848Y456879D01*
X584881Y457307D01*
X585769Y457988D01*
X586450Y458876D01*
X586878Y459909D01*
X587024Y461019D01*
X586878Y462128D01*
X586450Y463162D01*
X585769Y464049D01*
X584881Y464731D01*
X583848Y465159D01*
X582738Y465305D01*
D02*
G37*
G36*
X550831Y465293D02*
X549722Y465147D01*
X548688Y464719D01*
X547800Y464038D01*
X547119Y463150D01*
X546691Y462116D01*
X546545Y461007D01*
X546691Y459897D01*
X547119Y458864D01*
X547800Y457976D01*
X548688Y457295D01*
X549722Y456867D01*
X550831Y456720D01*
X551940Y456867D01*
X552974Y457295D01*
X553862Y457976D01*
X554543Y458864D01*
X554971Y459897D01*
X555117Y461007D01*
X554971Y462116D01*
X554543Y463150D01*
X553862Y464038D01*
X552974Y464719D01*
X551940Y465147D01*
X550831Y465293D01*
D02*
G37*
G36*
X540988D02*
X539879Y465147D01*
X538845Y464719D01*
X537957Y464038D01*
X537276Y463150D01*
X536848Y462116D01*
X536702Y461007D01*
X536848Y459897D01*
X537276Y458864D01*
X537957Y457976D01*
X538845Y457295D01*
X539879Y456867D01*
X540988Y456720D01*
X542098Y456867D01*
X543131Y457295D01*
X544019Y457976D01*
X544700Y458864D01*
X545128Y459897D01*
X545274Y461007D01*
X545128Y462116D01*
X544700Y463150D01*
X544019Y464038D01*
X543131Y464719D01*
X542098Y465147D01*
X540988Y465293D01*
D02*
G37*
G36*
X581100Y453250D02*
X576555Y453051D01*
X575379Y452896D01*
X574877Y452879D01*
X574877Y452879D01*
X574404Y452816D01*
X574399Y452817D01*
X527599D01*
Y452828D01*
X526442Y452714D01*
X525330Y452377D01*
X524305Y451829D01*
X523407Y451092D01*
X522670Y450193D01*
X522122Y449168D01*
X521784Y448056D01*
X521671Y446900D01*
X521681D01*
Y434800D01*
X521683Y434792D01*
X521545Y433743D01*
X521137Y432757D01*
X520488Y431911D01*
X519642Y431262D01*
X518656Y430854D01*
X517607Y430716D01*
X517599Y430717D01*
X445899D01*
Y430728D01*
X444742Y430614D01*
X443630Y430277D01*
X442605Y429729D01*
X441707Y428992D01*
X440970Y428093D01*
X440422Y427069D01*
X440085Y425956D01*
X439971Y424800D01*
X439982D01*
Y321400D01*
X439971D01*
X440085Y320243D01*
X440422Y319131D01*
X440970Y318106D01*
X441707Y317208D01*
X442605Y316470D01*
X443630Y315922D01*
X444742Y315585D01*
X445899Y315471D01*
Y315482D01*
X506882D01*
Y281917D01*
X445899D01*
Y281928D01*
X444742Y281814D01*
X443630Y281477D01*
X442605Y280929D01*
X441707Y280192D01*
X440970Y279293D01*
X440422Y278269D01*
X440085Y277156D01*
X439971Y276000D01*
X439982D01*
Y192200D01*
X439779Y192139D01*
X439481Y192076D01*
X438749Y192565D01*
X438384Y192638D01*
X438278Y193169D01*
X438757Y193489D01*
X439266Y194249D01*
X439444Y195147D01*
X439266Y196044D01*
X438757Y196805D01*
X437997Y197313D01*
X437099Y197492D01*
X436202Y197313D01*
X435441Y196805D01*
X434933Y196044D01*
X434754Y195147D01*
X434933Y194249D01*
X435441Y193489D01*
X436202Y192980D01*
X436566Y192908D01*
X436672Y192377D01*
X436193Y192057D01*
X435685Y191296D01*
X435506Y190399D01*
X435685Y189501D01*
X436193Y188741D01*
X436954Y188232D01*
X437851Y188054D01*
X438749Y188232D01*
X439481Y188722D01*
X439779Y188659D01*
X439982Y188597D01*
Y172600D01*
X439971D01*
X440085Y171443D01*
X440422Y170331D01*
X440970Y169306D01*
X441707Y168408D01*
X442605Y167670D01*
X443630Y167122D01*
X444742Y166785D01*
X445899Y166671D01*
Y166682D01*
X517599D01*
X517607Y166684D01*
X518656Y166545D01*
X519642Y166137D01*
X520488Y165488D01*
X521137Y164642D01*
X521545Y163657D01*
X521683Y162608D01*
X521681Y162600D01*
Y150600D01*
X521671D01*
X521784Y149443D01*
X522122Y148331D01*
X522670Y147306D01*
X523407Y146408D01*
X524305Y145670D01*
X525330Y145122D01*
X526442Y144785D01*
X527599Y144671D01*
Y144682D01*
X573923D01*
X574399Y144682D01*
X574399Y144682D01*
X574399Y144682D01*
X574879Y144622D01*
X574881Y144622D01*
X574891Y144621D01*
X575380Y144604D01*
X576555Y144449D01*
X581100Y144251D01*
X585645Y144449D01*
X590155Y145043D01*
X594597Y146028D01*
X598936Y147396D01*
X603139Y149137D01*
X607174Y151238D01*
X611011Y153682D01*
X614621Y156451D01*
X617975Y159525D01*
X621048Y162879D01*
X623818Y166489D01*
X626262Y170326D01*
X628363Y174361D01*
X630104Y178564D01*
X631472Y182903D01*
X632457Y187345D01*
X633051Y191855D01*
X633249Y196400D01*
X633051Y200945D01*
X632635Y204102D01*
X632628Y204101D01*
X632585Y204319D01*
X632477Y204480D01*
X632177Y205468D01*
X631629Y206493D01*
X630892Y207392D01*
X629994Y208129D01*
X628968Y208677D01*
X627856Y209014D01*
X627184Y209081D01*
X626700Y209128D01*
X626699Y209128D01*
X626203Y209117D01*
X612999D01*
X612991Y209116D01*
X611942Y209254D01*
X610957Y209662D01*
X610111Y210311D01*
X609461Y211157D01*
X609053Y212142D01*
X608915Y213192D01*
X608917Y213200D01*
Y247004D01*
X608928Y247499D01*
X608928Y247501D01*
X608881Y247980D01*
X608814Y248657D01*
X608476Y249770D01*
X607929Y250795D01*
X607191Y251693D01*
X606367Y252369D01*
X606365Y252373D01*
X600634Y258104D01*
Y287824D01*
X600564Y288175D01*
X600365Y288473D01*
X600067Y288671D01*
X599716Y288741D01*
X572445D01*
X572414Y289057D01*
X572076Y290170D01*
X571529Y291194D01*
X571296Y291478D01*
X571295Y291482D01*
X571142Y291711D01*
X571175Y291740D01*
X570695Y292303D01*
X569802Y293759D01*
X569149Y295337D01*
X568750Y296997D01*
X568616Y298700D01*
X568750Y300402D01*
X569149Y302063D01*
X569802Y303641D01*
X570695Y305097D01*
X571188Y305674D01*
X571154Y305703D01*
X571308Y305934D01*
X571309Y305937D01*
X571529Y306205D01*
X572076Y307230D01*
X572414Y308342D01*
X572440Y308606D01*
X599716D01*
X600067Y308676D01*
X600365Y308875D01*
X600564Y309173D01*
X600634Y309524D01*
Y340144D01*
X605892Y345402D01*
X606225Y345734D01*
X606293Y345770D01*
X606610Y346030D01*
X607192Y346508D01*
X607929Y347406D01*
X608476Y348431D01*
X608814Y349543D01*
X608880Y350215D01*
X608928Y350699D01*
X608928Y350700D01*
X608928D01*
X608917Y350711D01*
Y384300D01*
X608915Y384308D01*
X609053Y385357D01*
X609461Y386342D01*
X610111Y387188D01*
X610957Y387837D01*
X611942Y388246D01*
X612991Y388384D01*
X612999Y388382D01*
X626203D01*
X626699Y388371D01*
X626700Y388371D01*
X627179Y388418D01*
X627856Y388485D01*
X628968Y388823D01*
X629994Y389370D01*
X630892Y390108D01*
X631629Y391006D01*
X632177Y392031D01*
X632478Y393021D01*
X632585Y393182D01*
X632628Y393400D01*
X632635Y393398D01*
X633051Y396555D01*
X633249Y401100D01*
X633051Y405645D01*
X632457Y410156D01*
X631472Y414597D01*
X630104Y418936D01*
X628363Y423139D01*
X626262Y427175D01*
X623818Y431012D01*
X621048Y434621D01*
X617975Y437975D01*
X614621Y441049D01*
X611011Y443818D01*
X607174Y446263D01*
X603139Y448364D01*
X598936Y450105D01*
X594597Y451473D01*
X590155Y452457D01*
X585645Y453051D01*
X581100Y453250D01*
D02*
G37*
G36*
X627351Y458540D02*
X626532Y458377D01*
X625837Y457913D01*
X625373Y457218D01*
X625210Y456399D01*
X625373Y455579D01*
X625837Y454885D01*
X626532Y454421D01*
X627351Y454258D01*
X627919Y454371D01*
X628323Y453967D01*
X628210Y453399D01*
X628373Y452579D01*
X628837Y451885D01*
X629532Y451421D01*
X630351Y451258D01*
X631171Y451421D01*
X631865Y451885D01*
X632329Y452579D01*
X632492Y453399D01*
X632329Y454218D01*
X631865Y454913D01*
X631171Y455377D01*
X630351Y455540D01*
X629783Y455427D01*
X629379Y455831D01*
X629492Y456399D01*
X629329Y457218D01*
X628865Y457913D01*
X628170Y458377D01*
X627351Y458540D01*
D02*
G37*
G36*
X635799Y451141D02*
X634980Y450978D01*
X634285Y450514D01*
X633821Y449819D01*
X633658Y449000D01*
X633821Y448180D01*
X634285Y447486D01*
X634980Y447022D01*
X635799Y446859D01*
X636619Y447022D01*
X637313Y447486D01*
X637777Y448180D01*
X637940Y449000D01*
X637777Y449819D01*
X637313Y450514D01*
X636619Y450978D01*
X635799Y451141D01*
D02*
G37*
G36*
X417951Y457135D02*
X416481Y456990D01*
X415067Y456561D01*
X413764Y455865D01*
X412622Y454928D01*
X411685Y453786D01*
X410989Y452483D01*
X410560Y451069D01*
X410415Y449599D01*
X410560Y448128D01*
X410989Y446715D01*
X411685Y445412D01*
X412622Y444270D01*
X413764Y443332D01*
X415067Y442636D01*
X416481Y442207D01*
X417951Y442062D01*
X419421Y442207D01*
X420835Y442636D01*
X422138Y443332D01*
X423280Y444270D01*
X424217Y445412D01*
X424914Y446715D01*
X425343Y448128D01*
X425487Y449599D01*
X425343Y451069D01*
X424914Y452483D01*
X424217Y453786D01*
X423280Y454928D01*
X422138Y455865D01*
X420835Y456561D01*
X419421Y456990D01*
X417951Y457135D01*
D02*
G37*
G36*
X508405Y444667D02*
Y441048D01*
X512025D01*
X511948Y441631D01*
X511530Y442640D01*
X510865Y443507D01*
X509998Y444172D01*
X508988Y444590D01*
X508405Y444667D01*
D02*
G37*
G36*
X466037D02*
Y441048D01*
X469657D01*
X469580Y441631D01*
X469162Y442640D01*
X468497Y443507D01*
X467630Y444172D01*
X466620Y444590D01*
X466037Y444667D01*
D02*
G37*
G36*
X507405D02*
X506822Y444590D01*
X505813Y444172D01*
X504946Y443507D01*
X504281Y442640D01*
X503862Y441631D01*
X503786Y441048D01*
X507405D01*
Y444667D01*
D02*
G37*
G36*
X465037D02*
X464454Y444590D01*
X463445Y444172D01*
X462578Y443507D01*
X461913Y442640D01*
X461494Y441631D01*
X461418Y441048D01*
X465037D01*
Y444667D01*
D02*
G37*
G36*
X512025Y440048D02*
X508405D01*
Y436428D01*
X508988Y436505D01*
X509998Y436923D01*
X510865Y437588D01*
X511530Y438455D01*
X511948Y439465D01*
X512025Y440048D01*
D02*
G37*
G36*
X469657D02*
X466037D01*
Y436428D01*
X466620Y436505D01*
X467630Y436923D01*
X468497Y437588D01*
X469162Y438455D01*
X469580Y439465D01*
X469657Y440048D01*
D02*
G37*
G36*
X507405D02*
X503786D01*
X503862Y439465D01*
X504281Y438455D01*
X504946Y437588D01*
X505813Y436923D01*
X506822Y436505D01*
X507405Y436428D01*
Y440048D01*
D02*
G37*
G36*
X465037D02*
X461418D01*
X461494Y439465D01*
X461913Y438455D01*
X462578Y437588D01*
X463445Y436923D01*
X464454Y436505D01*
X465037Y436428D01*
Y440048D01*
D02*
G37*
G36*
X498062Y444834D02*
X496953Y444688D01*
X495919Y444260D01*
X495031Y443578D01*
X494350Y442691D01*
X493922Y441657D01*
X493776Y440548D01*
X493922Y439438D01*
X494350Y438405D01*
X495031Y437517D01*
X495919Y436836D01*
X496953Y436408D01*
X498062Y436262D01*
X499171Y436408D01*
X500205Y436836D01*
X501093Y437517D01*
X501774Y438405D01*
X502202Y439438D01*
X502348Y440548D01*
X502202Y441657D01*
X501774Y442691D01*
X501093Y443578D01*
X500205Y444260D01*
X499171Y444688D01*
X498062Y444834D01*
D02*
G37*
G36*
X488219D02*
X487110Y444688D01*
X486076Y444260D01*
X485188Y443578D01*
X484507Y442691D01*
X484079Y441657D01*
X483933Y440548D01*
X484079Y439438D01*
X484507Y438405D01*
X485188Y437517D01*
X486076Y436836D01*
X487110Y436408D01*
X488219Y436262D01*
X489328Y436408D01*
X490362Y436836D01*
X491250Y437517D01*
X491931Y438405D01*
X492359Y439438D01*
X492505Y440548D01*
X492359Y441657D01*
X491931Y442691D01*
X491250Y443578D01*
X490362Y444260D01*
X489328Y444688D01*
X488219Y444834D01*
D02*
G37*
G36*
X455694D02*
X454585Y444688D01*
X453551Y444260D01*
X452663Y443578D01*
X451982Y442691D01*
X451554Y441657D01*
X451408Y440548D01*
X451554Y439438D01*
X451982Y438405D01*
X452663Y437517D01*
X453551Y436836D01*
X454585Y436408D01*
X455694Y436262D01*
X456804Y436408D01*
X457837Y436836D01*
X458725Y437517D01*
X459406Y438405D01*
X459834Y439438D01*
X459980Y440548D01*
X459834Y441657D01*
X459406Y442691D01*
X458725Y443578D01*
X457837Y444260D01*
X456804Y444688D01*
X455694Y444834D01*
D02*
G37*
G36*
X445851D02*
X444742Y444688D01*
X443708Y444260D01*
X442820Y443578D01*
X442139Y442691D01*
X441711Y441657D01*
X441565Y440548D01*
X441711Y439438D01*
X442139Y438405D01*
X442820Y437517D01*
X443708Y436836D01*
X444742Y436408D01*
X445851Y436262D01*
X446960Y436408D01*
X447994Y436836D01*
X448882Y437517D01*
X449563Y438405D01*
X449991Y439438D01*
X450137Y440548D01*
X449991Y441657D01*
X449563Y442691D01*
X448882Y443578D01*
X447994Y444260D01*
X446960Y444688D01*
X445851Y444834D01*
D02*
G37*
G36*
X661699Y419645D02*
X660802Y419466D01*
X660041Y418958D01*
X659533Y418197D01*
X659354Y417300D01*
X659533Y416402D01*
X660041Y415641D01*
X660802Y415133D01*
X661699Y414955D01*
X661871Y414783D01*
X661854Y414700D01*
X662033Y413802D01*
X662541Y413041D01*
X663302Y412533D01*
X664199Y412355D01*
X665097Y412533D01*
X665857Y413041D01*
X666366Y413802D01*
X666544Y414700D01*
X666366Y415597D01*
X665857Y416358D01*
X665097Y416866D01*
X664199Y417045D01*
X664028Y417216D01*
X664044Y417300D01*
X663866Y418197D01*
X663357Y418958D01*
X662597Y419466D01*
X661699Y419645D01*
D02*
G37*
G36*
X658351Y413040D02*
X657532Y412877D01*
X656837Y412413D01*
X656373Y411718D01*
X656210Y410899D01*
X656373Y410079D01*
X656837Y409385D01*
X657532Y408921D01*
X658351Y408758D01*
X659170Y408921D01*
X659865Y409385D01*
X660329Y410079D01*
X660492Y410899D01*
X660329Y411718D01*
X659865Y412413D01*
X659170Y412877D01*
X658351Y413040D01*
D02*
G37*
G36*
X648351Y401540D02*
X647532Y401377D01*
X646837Y400913D01*
X646373Y400218D01*
X646210Y399399D01*
X646373Y398579D01*
X646837Y397885D01*
X647532Y397421D01*
X648351Y397258D01*
X649170Y397421D01*
X649865Y397885D01*
X650329Y398579D01*
X650492Y399399D01*
X650329Y400218D01*
X649865Y400913D01*
X649170Y401377D01*
X648351Y401540D01*
D02*
G37*
G36*
Y391540D02*
X647532Y391377D01*
X646837Y390913D01*
X646373Y390218D01*
X646210Y389399D01*
X646373Y388579D01*
X646837Y387885D01*
X647532Y387421D01*
X648351Y387258D01*
X649170Y387421D01*
X649865Y387885D01*
X650329Y388579D01*
X650492Y389399D01*
X650329Y390218D01*
X649865Y390913D01*
X649170Y391377D01*
X648351Y391540D01*
D02*
G37*
G36*
X646351Y386540D02*
X645532Y386377D01*
X644837Y385913D01*
X644373Y385218D01*
X644210Y384399D01*
X644373Y383579D01*
X644837Y382885D01*
X645532Y382421D01*
X646351Y382258D01*
X647170Y382421D01*
X647865Y382885D01*
X648329Y383579D01*
X648492Y384399D01*
X648329Y385218D01*
X647865Y385913D01*
X647170Y386377D01*
X646351Y386540D01*
D02*
G37*
G36*
X654351Y378540D02*
X653532Y378377D01*
X652837Y377913D01*
X652373Y377218D01*
X652210Y376399D01*
X652373Y375579D01*
X652837Y374885D01*
X653532Y374421D01*
X654351Y374258D01*
X655170Y374421D01*
X655865Y374885D01*
X656329Y375579D01*
X656492Y376399D01*
X656329Y377218D01*
X655865Y377913D01*
X655170Y378377D01*
X654351Y378540D01*
D02*
G37*
G36*
X621499Y365145D02*
X620602Y364966D01*
X619841Y364458D01*
X619333Y363697D01*
X619154Y362800D01*
X619333Y361902D01*
X619841Y361141D01*
X620602Y360633D01*
X621499Y360455D01*
X622397Y360633D01*
X623157Y361141D01*
X623666Y361902D01*
X623844Y362800D01*
X623666Y363697D01*
X623157Y364458D01*
X622397Y364966D01*
X621499Y365145D01*
D02*
G37*
G36*
X680351Y357540D02*
X679532Y357377D01*
X678837Y356913D01*
X678373Y356218D01*
X678210Y355399D01*
X678373Y354579D01*
X678837Y353885D01*
X679532Y353421D01*
X680351Y353258D01*
X681171Y353421D01*
X681865Y353885D01*
X682329Y354579D01*
X682492Y355399D01*
X682329Y356218D01*
X681865Y356913D01*
X681171Y357377D01*
X680351Y357540D01*
D02*
G37*
G36*
X631299Y357445D02*
X630402Y357266D01*
X629641Y356758D01*
X629133Y355997D01*
X628954Y355100D01*
X629133Y354202D01*
X629641Y353442D01*
X630402Y352933D01*
X631299Y352755D01*
X632197Y352933D01*
X632957Y353442D01*
X633466Y354202D01*
X633644Y355100D01*
X633466Y355997D01*
X632957Y356758D01*
X632197Y357266D01*
X631299Y357445D01*
D02*
G37*
G36*
X650987Y356641D02*
X649556Y356500D01*
X647699Y355937D01*
X645988Y355022D01*
X644488Y353791D01*
X643258Y352292D01*
X642343Y350580D01*
X642304Y350451D01*
X641842Y350260D01*
X640956Y350734D01*
X639353Y351220D01*
X638187Y351335D01*
Y342843D01*
Y334351D01*
X639353Y334466D01*
X640956Y334952D01*
X642432Y335741D01*
X643727Y336803D01*
X644789Y338098D01*
X645142Y338758D01*
X645632Y338855D01*
X645988Y338563D01*
X647699Y337649D01*
X649556Y337085D01*
X650987Y336944D01*
Y346793D01*
Y356641D01*
D02*
G37*
G36*
X621299Y353245D02*
X620402Y353066D01*
X619641Y352558D01*
X619133Y351797D01*
X618954Y350900D01*
X619133Y350002D01*
X619641Y349241D01*
X620402Y348733D01*
X621299Y348555D01*
X622197Y348733D01*
X622957Y349241D01*
X623466Y350002D01*
X623644Y350900D01*
X623466Y351797D01*
X622957Y352558D01*
X622197Y353066D01*
X621299Y353245D01*
D02*
G37*
G36*
X651987Y356641D02*
Y347293D01*
X661336D01*
X661195Y348724D01*
X660631Y350580D01*
X659717Y352292D01*
X658486Y353791D01*
X656986Y355022D01*
X655275Y355937D01*
X653418Y356500D01*
X651987Y356641D01*
D02*
G37*
G36*
X637187Y351335D02*
X636021Y351220D01*
X634419Y350734D01*
X632942Y349944D01*
X631648Y348882D01*
X630585Y347588D01*
X629796Y346111D01*
X629310Y344509D01*
X629195Y343343D01*
X637187D01*
Y351335D01*
D02*
G37*
G36*
X619599Y346945D02*
X618702Y346766D01*
X617941Y346258D01*
X617433Y345497D01*
X617254Y344600D01*
X617433Y343702D01*
X617941Y342941D01*
X618702Y342433D01*
X619599Y342255D01*
X620497Y342433D01*
X621257Y342941D01*
X621766Y343702D01*
X621944Y344600D01*
X621766Y345497D01*
X621257Y346258D01*
X620497Y346766D01*
X619599Y346945D01*
D02*
G37*
G36*
X661336Y346293D02*
X651987D01*
Y336944D01*
X653418Y337085D01*
X655275Y337649D01*
X656986Y338563D01*
X658486Y339794D01*
X659717Y341294D01*
X660631Y343005D01*
X661195Y344862D01*
X661336Y346293D01*
D02*
G37*
G36*
X637187Y342343D02*
X629195D01*
X629310Y341176D01*
X629796Y339574D01*
X630585Y338098D01*
X631648Y336803D01*
X632942Y335741D01*
X634419Y334952D01*
X636021Y334466D01*
X637187Y334351D01*
Y342343D01*
D02*
G37*
G36*
X651487Y333878D02*
X649690Y333737D01*
X647938Y333316D01*
X646273Y332626D01*
X644736Y331685D01*
X643366Y330514D01*
X642195Y329144D01*
X641254Y327607D01*
X640564Y325942D01*
X640143Y324189D01*
X640002Y322393D01*
X640143Y320596D01*
X640564Y318844D01*
X641254Y317178D01*
X642195Y315642D01*
X643366Y314271D01*
X644736Y313101D01*
X646273Y312159D01*
X647938Y311469D01*
X649690Y311049D01*
X651487Y310907D01*
X653284Y311049D01*
X655036Y311469D01*
X656701Y312159D01*
X658238Y313101D01*
X659609Y314271D01*
X660779Y315642D01*
X661721Y317178D01*
X662410Y318844D01*
X662831Y320596D01*
X662972Y322393D01*
X662831Y324189D01*
X662410Y325942D01*
X661721Y327607D01*
X660779Y329144D01*
X659609Y330514D01*
X658238Y331685D01*
X656701Y332626D01*
X655036Y333316D01*
X653284Y333737D01*
X651487Y333878D01*
D02*
G37*
G36*
X636515Y312432D02*
X635142Y312297D01*
X633821Y311896D01*
X632604Y311246D01*
X631537Y310370D01*
X630662Y309304D01*
X630012Y308087D01*
X629611Y306766D01*
X629476Y305393D01*
X629611Y304019D01*
X630012Y302699D01*
X630662Y301482D01*
X631537Y300415D01*
X632604Y299540D01*
X633821Y298889D01*
X635142Y298489D01*
X636515Y298353D01*
X637888Y298489D01*
X639209Y298889D01*
X640426Y299540D01*
X641493Y300415D01*
X642368Y301482D01*
X643019Y302699D01*
X643419Y304019D01*
X643554Y305393D01*
X643419Y306766D01*
X643019Y308087D01*
X642368Y309304D01*
X641493Y310370D01*
X640426Y311246D01*
X639209Y311896D01*
X637888Y312297D01*
X636515Y312432D01*
D02*
G37*
G36*
X579499Y306236D02*
X578029Y306091D01*
X576615Y305662D01*
X575312Y304966D01*
X574170Y304029D01*
X573233Y302887D01*
X572537Y301584D01*
X572108Y300170D01*
X571963Y298700D01*
X572108Y297229D01*
X572537Y295816D01*
X573233Y294513D01*
X574170Y293371D01*
X575312Y292434D01*
X576615Y291737D01*
X578029Y291308D01*
X579499Y291163D01*
X580969Y291308D01*
X582383Y291737D01*
X583686Y292434D01*
X584828Y293371D01*
X585765Y294513D01*
X586462Y295816D01*
X586891Y297229D01*
X587035Y298700D01*
X586891Y300170D01*
X586462Y301584D01*
X585765Y302887D01*
X584828Y304029D01*
X583686Y304966D01*
X582383Y305662D01*
X580969Y306091D01*
X579499Y306236D01*
D02*
G37*
G36*
X651715Y304428D02*
X650265Y304285D01*
X648870Y303862D01*
X647585Y303174D01*
X646458Y302250D01*
X645533Y301123D01*
X644846Y299838D01*
X644423Y298443D01*
X644280Y296993D01*
X644423Y295542D01*
X644846Y294147D01*
X645533Y292862D01*
X646458Y291736D01*
X647585Y290811D01*
X648870Y290124D01*
X650265Y289701D01*
X651715Y289558D01*
X653166Y289701D01*
X654560Y290124D01*
X655846Y290811D01*
X656972Y291736D01*
X657897Y292862D01*
X658584Y294147D01*
X659007Y295542D01*
X659150Y296993D01*
X659007Y298443D01*
X658584Y299838D01*
X657897Y301123D01*
X656972Y302250D01*
X655846Y303174D01*
X654560Y303862D01*
X653166Y304285D01*
X651715Y304428D01*
D02*
G37*
G36*
X447851Y293730D02*
X447032Y293567D01*
X446337Y293103D01*
X445873Y292408D01*
X445710Y291589D01*
X445873Y290769D01*
X446337Y290075D01*
X447032Y289611D01*
X447851Y289448D01*
X448670Y289611D01*
X449365Y290075D01*
X449829Y290769D01*
X449992Y291589D01*
X449829Y292408D01*
X449365Y293103D01*
X448670Y293567D01*
X447851Y293730D01*
D02*
G37*
G36*
X486037Y292182D02*
X483174D01*
Y289320D01*
X486037D01*
Y292182D01*
D02*
G37*
G36*
X482174D02*
X479312D01*
Y289320D01*
X482174D01*
Y292182D01*
D02*
G37*
G36*
X616715Y295782D02*
X615734Y295653D01*
X614820Y295275D01*
X614035Y294672D01*
X613433Y293888D01*
X613055Y292973D01*
X612925Y291993D01*
X613055Y291012D01*
X613433Y290098D01*
X614035Y289313D01*
X614820Y288711D01*
X615734Y288332D01*
X616715Y288203D01*
X617696Y288332D01*
X618610Y288711D01*
X619395Y289313D01*
X619997Y290098D01*
X620376Y291012D01*
X620505Y291993D01*
X620376Y292973D01*
X619997Y293888D01*
X619395Y294672D01*
X618610Y295275D01*
X617696Y295653D01*
X616715Y295782D01*
D02*
G37*
G36*
X486037Y288320D02*
X483174D01*
Y285457D01*
X486037D01*
Y288320D01*
D02*
G37*
G36*
X482174D02*
X479312D01*
Y285457D01*
X482174D01*
Y288320D01*
D02*
G37*
G36*
X496037Y292282D02*
X489112D01*
Y285357D01*
X496037D01*
Y292282D01*
D02*
G37*
G36*
X476237D02*
X469312D01*
Y285357D01*
X476237D01*
Y292282D01*
D02*
G37*
G36*
X626715Y290782D02*
X625734Y290653D01*
X624820Y290275D01*
X624035Y289672D01*
X623433Y288888D01*
X623055Y287973D01*
X622926Y286993D01*
X623055Y286012D01*
X623433Y285098D01*
X624035Y284313D01*
X624820Y283711D01*
X625734Y283332D01*
X626715Y283203D01*
X627696Y283332D01*
X628610Y283711D01*
X629395Y284313D01*
X629997Y285098D01*
X630376Y286012D01*
X630505Y286993D01*
X630376Y287973D01*
X629997Y288888D01*
X629395Y289672D01*
X628610Y290275D01*
X627696Y290653D01*
X626715Y290782D01*
D02*
G37*
G36*
X616715Y285782D02*
X615734Y285653D01*
X614820Y285275D01*
X614035Y284672D01*
X613433Y283888D01*
X613055Y282974D01*
X612925Y281993D01*
X613055Y281012D01*
X613433Y280098D01*
X614035Y279313D01*
X614820Y278711D01*
X615734Y278332D01*
X616715Y278203D01*
X617696Y278332D01*
X618610Y278711D01*
X619395Y279313D01*
X619997Y280098D01*
X620376Y281012D01*
X620505Y281993D01*
X620376Y282974D01*
X619997Y283888D01*
X619395Y284672D01*
X618610Y285275D01*
X617696Y285653D01*
X616715Y285782D01*
D02*
G37*
G36*
X425099Y275345D02*
X424202Y275166D01*
X423441Y274658D01*
X423199Y274296D01*
X422699D01*
X422457Y274658D01*
X421697Y275166D01*
X420799Y275345D01*
X419902Y275166D01*
X419141Y274658D01*
X418633Y273897D01*
X418454Y273000D01*
X418633Y272102D01*
X419141Y271341D01*
X419902Y270833D01*
X420670Y270680D01*
X420654Y270600D01*
X420833Y269702D01*
X421341Y268941D01*
X422102Y268433D01*
X422999Y268255D01*
X423897Y268433D01*
X424657Y268941D01*
X424815Y269178D01*
X425416D01*
X425641Y268842D01*
X426402Y268333D01*
X427299Y268155D01*
X428197Y268333D01*
X428957Y268842D01*
X429466Y269602D01*
X429644Y270500D01*
X429466Y271397D01*
X428957Y272158D01*
X428197Y272666D01*
X427409Y272823D01*
X427444Y273000D01*
X427266Y273897D01*
X426757Y274658D01*
X425997Y275166D01*
X425099Y275345D01*
D02*
G37*
G36*
X626715Y280782D02*
X625734Y280653D01*
X624820Y280275D01*
X624035Y279672D01*
X623433Y278888D01*
X623055Y277974D01*
X622926Y276993D01*
X623055Y276012D01*
X623433Y275098D01*
X624035Y274313D01*
X624820Y273711D01*
X625734Y273332D01*
X626715Y273203D01*
X627696Y273332D01*
X628610Y273711D01*
X629395Y274313D01*
X629997Y275098D01*
X630376Y276012D01*
X630505Y276993D01*
X630376Y277974D01*
X629997Y278888D01*
X629395Y279672D01*
X628610Y280275D01*
X627696Y280653D01*
X626715Y280782D01*
D02*
G37*
G36*
X616715Y275782D02*
X615734Y275653D01*
X614820Y275275D01*
X614035Y274672D01*
X613433Y273888D01*
X613055Y272973D01*
X612925Y271993D01*
X613055Y271012D01*
X613433Y270098D01*
X614035Y269313D01*
X614820Y268711D01*
X615734Y268332D01*
X616715Y268203D01*
X617696Y268332D01*
X618610Y268711D01*
X619395Y269313D01*
X619997Y270098D01*
X620376Y271012D01*
X620505Y271993D01*
X620376Y272973D01*
X619997Y273888D01*
X619395Y274672D01*
X618610Y275275D01*
X617696Y275653D01*
X616715Y275782D01*
D02*
G37*
G36*
X626715Y270782D02*
X625734Y270653D01*
X624820Y270275D01*
X624035Y269672D01*
X623433Y268888D01*
X623055Y267973D01*
X622926Y266993D01*
X623055Y266012D01*
X623433Y265098D01*
X624035Y264313D01*
X624820Y263711D01*
X625734Y263332D01*
X626715Y263203D01*
X627696Y263332D01*
X628610Y263711D01*
X629395Y264313D01*
X629997Y265098D01*
X630376Y266012D01*
X630505Y266993D01*
X630376Y267973D01*
X629997Y268888D01*
X629395Y269672D01*
X628610Y270275D01*
X627696Y270653D01*
X626715Y270782D01*
D02*
G37*
G36*
X420351Y265040D02*
X419532Y264877D01*
X418837Y264413D01*
X418373Y263718D01*
X418210Y262899D01*
X418373Y262079D01*
X418837Y261385D01*
X419532Y260921D01*
X420351Y260758D01*
X420358Y260759D01*
X420611Y260506D01*
X420725Y260322D01*
X420873Y259579D01*
X421337Y258885D01*
X422032Y258421D01*
X422851Y258258D01*
X423670Y258421D01*
X424365Y258885D01*
X424829Y259579D01*
X424992Y260399D01*
X424829Y261218D01*
X424365Y261913D01*
X423670Y262377D01*
X422851Y262540D01*
X422845Y262539D01*
X422591Y262792D01*
X422477Y262975D01*
X422329Y263718D01*
X421865Y264413D01*
X421171Y264877D01*
X420351Y265040D01*
D02*
G37*
G36*
X616715Y265782D02*
X615734Y265653D01*
X614820Y265275D01*
X614035Y264672D01*
X613433Y263888D01*
X613055Y262973D01*
X612925Y261993D01*
X613055Y261012D01*
X613433Y260098D01*
X614035Y259313D01*
X614820Y258711D01*
X615734Y258332D01*
X616715Y258203D01*
X617696Y258332D01*
X618610Y258711D01*
X619395Y259313D01*
X619997Y260098D01*
X620376Y261012D01*
X620505Y261993D01*
X620376Y262973D01*
X619997Y263888D01*
X619395Y264672D01*
X618610Y265275D01*
X617696Y265653D01*
X616715Y265782D01*
D02*
G37*
G36*
X626715Y260782D02*
X625734Y260653D01*
X624820Y260275D01*
X624035Y259672D01*
X623433Y258888D01*
X623055Y257974D01*
X622926Y256993D01*
X623055Y256012D01*
X623433Y255098D01*
X624035Y254313D01*
X624820Y253711D01*
X625734Y253332D01*
X626715Y253203D01*
X627696Y253332D01*
X628610Y253711D01*
X629395Y254313D01*
X629997Y255098D01*
X630376Y256012D01*
X630505Y256993D01*
X630376Y257974D01*
X629997Y258888D01*
X629395Y259672D01*
X628610Y260275D01*
X627696Y260653D01*
X626715Y260782D01*
D02*
G37*
G36*
X651715Y259427D02*
X650265Y259285D01*
X648870Y258862D01*
X647585Y258174D01*
X646458Y257250D01*
X645533Y256123D01*
X644846Y254838D01*
X644423Y253443D01*
X644280Y251993D01*
X644423Y250542D01*
X644846Y249148D01*
X645533Y247862D01*
X646458Y246736D01*
X647585Y245811D01*
X648870Y245124D01*
X650265Y244701D01*
X651715Y244558D01*
X653166Y244701D01*
X654560Y245124D01*
X655846Y245811D01*
X656972Y246736D01*
X657897Y247862D01*
X658584Y249148D01*
X659007Y250542D01*
X659150Y251993D01*
X659007Y253443D01*
X658584Y254838D01*
X657897Y256123D01*
X656972Y257250D01*
X655846Y258174D01*
X654560Y258862D01*
X653166Y259285D01*
X651715Y259427D01*
D02*
G37*
G36*
X424751Y246579D02*
X423932Y246416D01*
X423237Y245952D01*
X422773Y245257D01*
X422610Y244438D01*
X422773Y243618D01*
X423228Y242938D01*
X422773Y242257D01*
X422610Y241438D01*
X422773Y240618D01*
X423237Y239924D01*
X423932Y239459D01*
X424751Y239297D01*
X425570Y239459D01*
X426265Y239924D01*
X426729Y240618D01*
X426892Y241438D01*
X426729Y242257D01*
X426274Y242938D01*
X426729Y243618D01*
X426892Y244438D01*
X426729Y245257D01*
X426265Y245952D01*
X425570Y246416D01*
X424751Y246579D01*
D02*
G37*
G36*
X636515Y250532D02*
X635142Y250397D01*
X633821Y249996D01*
X632604Y249346D01*
X631537Y248470D01*
X630662Y247404D01*
X630012Y246187D01*
X629611Y244866D01*
X629476Y243493D01*
X629611Y242119D01*
X630012Y240799D01*
X630662Y239582D01*
X631537Y238515D01*
X632604Y237640D01*
X633821Y236989D01*
X635142Y236589D01*
X636515Y236453D01*
X637888Y236589D01*
X639209Y236989D01*
X640426Y237640D01*
X641493Y238515D01*
X642368Y239582D01*
X643019Y240799D01*
X643419Y242119D01*
X643554Y243493D01*
X643419Y244866D01*
X643019Y246187D01*
X642368Y247404D01*
X641493Y248470D01*
X640426Y249346D01*
X639209Y249996D01*
X637888Y250397D01*
X636515Y250532D01*
D02*
G37*
G36*
X424251Y236329D02*
X423432Y236166D01*
X422737Y235702D01*
X422273Y235007D01*
X422110Y234188D01*
X422273Y233368D01*
X422728Y232688D01*
X422273Y232007D01*
X422110Y231188D01*
X422273Y230368D01*
X422737Y229674D01*
X423432Y229209D01*
X424251Y229047D01*
X425070Y229209D01*
X425765Y229674D01*
X426229Y230368D01*
X426392Y231188D01*
X426229Y232007D01*
X425774Y232688D01*
X426229Y233368D01*
X426392Y234188D01*
X426229Y235007D01*
X425765Y235702D01*
X425070Y236166D01*
X424251Y236329D01*
D02*
G37*
G36*
X427232Y222559D02*
X426412Y222396D01*
X425718Y221932D01*
X425253Y221238D01*
X425091Y220418D01*
X425253Y219599D01*
X425718Y218904D01*
X426412Y218440D01*
X427232Y218277D01*
X428051Y218440D01*
X428746Y218904D01*
X429210Y219599D01*
X429373Y220418D01*
X429210Y221238D01*
X428746Y221932D01*
X428051Y222396D01*
X427232Y222559D01*
D02*
G37*
G36*
X631351Y222540D02*
X630532Y222377D01*
X629837Y221913D01*
X629373Y221218D01*
X629210Y220399D01*
X629373Y219579D01*
X629837Y218885D01*
X630532Y218421D01*
X631351Y218258D01*
X632170Y218421D01*
X632865Y218885D01*
X633329Y219579D01*
X633492Y220399D01*
X633329Y221218D01*
X632865Y221913D01*
X632170Y222377D01*
X631351Y222540D01*
D02*
G37*
G36*
X426951Y217579D02*
X426132Y217416D01*
X425437Y216952D01*
X424973Y216257D01*
X424810Y215438D01*
X424973Y214618D01*
X425437Y213924D01*
X426132Y213459D01*
X426951Y213297D01*
X427771Y213459D01*
X428465Y213924D01*
X428929Y214618D01*
X429092Y215438D01*
X428929Y216257D01*
X428465Y216952D01*
X427771Y217416D01*
X426951Y217579D01*
D02*
G37*
G36*
X669999Y227536D02*
X668529Y227391D01*
X667115Y226962D01*
X665812Y226266D01*
X664670Y225329D01*
X663733Y224187D01*
X663036Y222884D01*
X662608Y221470D01*
X662463Y220000D01*
X662608Y218529D01*
X663036Y217116D01*
X663733Y215813D01*
X664670Y214671D01*
X665812Y213734D01*
X667115Y213037D01*
X668529Y212608D01*
X669999Y212463D01*
X671469Y212608D01*
X672883Y213037D01*
X674186Y213734D01*
X675328Y214671D01*
X676265Y215813D01*
X676962Y217116D01*
X677391Y218529D01*
X677535Y220000D01*
X677391Y221470D01*
X676962Y222884D01*
X676265Y224187D01*
X675328Y225329D01*
X674186Y226266D01*
X672883Y226962D01*
X671469Y227391D01*
X669999Y227536D01*
D02*
G37*
G36*
X626351Y215665D02*
X625532Y215502D01*
X624837Y215038D01*
X624373Y214343D01*
X624210Y213524D01*
X624373Y212704D01*
X624837Y212010D01*
X625532Y211546D01*
X626351Y211383D01*
X627171Y211546D01*
X627865Y212010D01*
X628329Y212704D01*
X628492Y213524D01*
X628329Y214343D01*
X627865Y215038D01*
X627171Y215502D01*
X626351Y215665D01*
D02*
G37*
G36*
X413851Y212840D02*
X413032Y212677D01*
X412337Y212213D01*
X411873Y211518D01*
X411710Y210699D01*
X411873Y209879D01*
X412227Y209349D01*
X411873Y208818D01*
X411710Y207999D01*
X411873Y207179D01*
X412337Y206485D01*
X413032Y206021D01*
X413851Y205858D01*
X414671Y206021D01*
X415365Y206485D01*
X415829Y207179D01*
X415992Y207999D01*
X415829Y208818D01*
X415475Y209349D01*
X415829Y209879D01*
X415992Y210699D01*
X415829Y211518D01*
X415365Y212213D01*
X414671Y212677D01*
X413851Y212840D01*
D02*
G37*
G36*
X436351Y207540D02*
X435532Y207377D01*
X434837Y206913D01*
X434373Y206218D01*
X434210Y205399D01*
X434373Y204579D01*
X434837Y203885D01*
X435532Y203421D01*
X436351Y203258D01*
X437171Y203421D01*
X437865Y203885D01*
X438329Y204579D01*
X438492Y205399D01*
X438329Y206218D01*
X437865Y206913D01*
X437171Y207377D01*
X436351Y207540D01*
D02*
G37*
G36*
X402699Y207040D02*
X401880Y206877D01*
X401185Y206413D01*
X400721Y205718D01*
X400558Y204899D01*
X400721Y204079D01*
X401185Y203385D01*
X401880Y202921D01*
X402699Y202758D01*
X403518Y202921D01*
X404213Y203385D01*
X404677Y204079D01*
X404840Y204899D01*
X404677Y205718D01*
X404213Y206413D01*
X403518Y206877D01*
X402699Y207040D01*
D02*
G37*
G36*
X436351Y202540D02*
X435532Y202377D01*
X434837Y201913D01*
X434373Y201218D01*
X434210Y200399D01*
X434373Y199579D01*
X434837Y198885D01*
X435532Y198421D01*
X436351Y198258D01*
X437171Y198421D01*
X437865Y198885D01*
X438329Y199579D01*
X438492Y200399D01*
X438329Y201218D01*
X437865Y201913D01*
X437171Y202377D01*
X436351Y202540D01*
D02*
G37*
G36*
X235451Y194640D02*
X234632Y194477D01*
X233937Y194013D01*
X233473Y193318D01*
X233310Y192499D01*
X233473Y191679D01*
X233937Y190985D01*
X234632Y190521D01*
X235451Y190358D01*
X236270Y190521D01*
X236965Y190985D01*
X237429Y191679D01*
X237592Y192499D01*
X237429Y193318D01*
X236965Y194013D01*
X236270Y194477D01*
X235451Y194640D01*
D02*
G37*
G36*
X645598Y193444D02*
X644701Y193265D01*
X643940Y192757D01*
X643432Y191996D01*
X643253Y191099D01*
X643432Y190201D01*
X643940Y189441D01*
X644313Y189191D01*
Y188590D01*
X644115Y188457D01*
X643606Y187696D01*
X643428Y186799D01*
X643606Y185901D01*
X644115Y185141D01*
X644875Y184632D01*
X645773Y184454D01*
X646670Y184632D01*
X647431Y185141D01*
X647939Y185901D01*
X648118Y186799D01*
X647939Y187696D01*
X647431Y188457D01*
X647058Y188706D01*
Y189308D01*
X647256Y189441D01*
X647765Y190201D01*
X647943Y191099D01*
X647765Y191996D01*
X647256Y192757D01*
X646496Y193265D01*
X645598Y193444D01*
D02*
G37*
G36*
X414051Y187579D02*
X413232Y187416D01*
X412537Y186952D01*
X412073Y186257D01*
X411910Y185438D01*
X412073Y184618D01*
X412537Y183924D01*
X413232Y183459D01*
X414051Y183297D01*
X414871Y183459D01*
X415565Y183924D01*
X416029Y184618D01*
X416192Y185438D01*
X416029Y186257D01*
X415565Y186952D01*
X414871Y187416D01*
X414051Y187579D01*
D02*
G37*
G36*
X257351Y183540D02*
X256532Y183377D01*
X255837Y182913D01*
X255373Y182218D01*
X255210Y181399D01*
X255373Y180579D01*
X255837Y179885D01*
X256532Y179421D01*
X257351Y179258D01*
X258171Y179421D01*
X258865Y179885D01*
X259329Y180579D01*
X259492Y181399D01*
X259329Y182218D01*
X258865Y182913D01*
X258171Y183377D01*
X257351Y183540D01*
D02*
G37*
G36*
X425851Y187540D02*
X425032Y187377D01*
X424337Y186913D01*
X423873Y186218D01*
X423710Y185399D01*
X423873Y184579D01*
X424337Y183885D01*
X424843Y183547D01*
X424872Y183419D01*
X424838Y182988D01*
X424193Y182557D01*
X423685Y181796D01*
X423506Y180899D01*
X423685Y180001D01*
X424193Y179241D01*
X424954Y178732D01*
X425851Y178554D01*
X426749Y178732D01*
X427509Y179241D01*
X428018Y180001D01*
X428196Y180899D01*
X428018Y181796D01*
X427509Y182557D01*
X426864Y182988D01*
X426830Y183419D01*
X426859Y183547D01*
X427365Y183885D01*
X427829Y184579D01*
X427992Y185399D01*
X427829Y186218D01*
X427365Y186913D01*
X426671Y187377D01*
X425851Y187540D01*
D02*
G37*
G36*
X219299Y192036D02*
X217829Y191891D01*
X216415Y191462D01*
X215112Y190766D01*
X213970Y189829D01*
X213033Y188687D01*
X212336Y187384D01*
X211908Y185970D01*
X211763Y184500D01*
X211908Y183029D01*
X212336Y181616D01*
X213033Y180313D01*
X213970Y179171D01*
X215112Y178234D01*
X216415Y177537D01*
X217829Y177108D01*
X219299Y176963D01*
X220769Y177108D01*
X222183Y177537D01*
X223486Y178234D01*
X224628Y179171D01*
X225565Y180313D01*
X226262Y181616D01*
X226691Y183029D01*
X226835Y184500D01*
X226691Y185970D01*
X226262Y187384D01*
X225565Y188687D01*
X224628Y189829D01*
X223486Y190766D01*
X222183Y191462D01*
X220769Y191891D01*
X219299Y192036D01*
D02*
G37*
G36*
X426199Y177919D02*
X425302Y177740D01*
X424541Y177232D01*
X424033Y176471D01*
X423854Y175574D01*
X424033Y174676D01*
X424541Y173916D01*
X425302Y173407D01*
X426199Y173229D01*
X427097Y173407D01*
X427857Y173916D01*
X428366Y174676D01*
X428544Y175574D01*
X428366Y176471D01*
X427857Y177232D01*
X427097Y177740D01*
X426199Y177919D01*
D02*
G37*
G36*
X257599Y175545D02*
X256702Y175366D01*
X255941Y174858D01*
X255433Y174097D01*
X255254Y173200D01*
X255433Y172302D01*
X255941Y171542D01*
X256702Y171033D01*
X257599Y170855D01*
X258497Y171033D01*
X259257Y171542D01*
X259766Y172302D01*
X259944Y173200D01*
X259766Y174097D01*
X259257Y174858D01*
X258497Y175366D01*
X257599Y175545D01*
D02*
G37*
G36*
X400851Y172040D02*
X400032Y171877D01*
X399337Y171413D01*
X398873Y170718D01*
X398710Y169899D01*
X398873Y169079D01*
X399337Y168385D01*
X400032Y167921D01*
X400851Y167758D01*
X401671Y167921D01*
X402365Y168385D01*
X402829Y169079D01*
X402992Y169899D01*
X402829Y170718D01*
X402365Y171413D01*
X401671Y171877D01*
X400851Y172040D01*
D02*
G37*
G36*
X254851Y170540D02*
X254032Y170377D01*
X253337Y169913D01*
X252873Y169218D01*
X252710Y168399D01*
X252873Y167579D01*
X253337Y166885D01*
X254032Y166421D01*
X254851Y166258D01*
X255670Y166421D01*
X256365Y166885D01*
X256829Y167579D01*
X256992Y168399D01*
X256829Y169218D01*
X256365Y169913D01*
X255670Y170377D01*
X254851Y170540D01*
D02*
G37*
G36*
X413299Y169919D02*
X412402Y169740D01*
X411641Y169232D01*
X411133Y168471D01*
X410954Y167574D01*
X411133Y166676D01*
X411641Y165916D01*
X412402Y165407D01*
X413299Y165229D01*
X414197Y165407D01*
X414957Y165916D01*
X415466Y166676D01*
X415644Y167574D01*
X415466Y168471D01*
X414957Y169232D01*
X414197Y169740D01*
X413299Y169919D01*
D02*
G37*
G36*
X437151Y167995D02*
X436234Y167812D01*
X435457Y167293D01*
X434937Y166516D01*
X434755Y165599D01*
X434937Y164682D01*
X435457Y163904D01*
X436234Y163385D01*
X437151Y163203D01*
X438068Y163385D01*
X438845Y163904D01*
X439365Y164682D01*
X439547Y165599D01*
X439365Y166516D01*
X438845Y167293D01*
X438068Y167812D01*
X437151Y167995D01*
D02*
G37*
G36*
X425599Y159544D02*
X424702Y159365D01*
X423941Y158857D01*
X423842Y158709D01*
X423342D01*
X423309Y158757D01*
X422549Y159265D01*
X421651Y159444D01*
X420754Y159265D01*
X419993Y158757D01*
X419485Y157996D01*
X419306Y157099D01*
X419485Y156201D01*
X419993Y155440D01*
X420754Y154932D01*
X421651Y154754D01*
X422549Y154932D01*
X423309Y155440D01*
X423409Y155589D01*
X423909D01*
X423941Y155541D01*
X424702Y155032D01*
X425599Y154854D01*
X426497Y155032D01*
X427257Y155541D01*
X427803Y155457D01*
X428454Y155022D01*
X429351Y154844D01*
X430249Y155022D01*
X431009Y155531D01*
X431518Y156291D01*
X431696Y157189D01*
X431518Y158086D01*
X431009Y158847D01*
X430249Y159355D01*
X429351Y159534D01*
X428454Y159355D01*
X427693Y158847D01*
X427147Y158930D01*
X426497Y159365D01*
X425599Y159544D01*
D02*
G37*
G36*
X266351Y160540D02*
X265532Y160377D01*
X264837Y159913D01*
X264373Y159218D01*
X264210Y158399D01*
X264373Y157579D01*
X264837Y156885D01*
X265532Y156421D01*
X266351Y156258D01*
X267171Y156421D01*
X267865Y156885D01*
X268329Y157579D01*
X268492Y158399D01*
X268329Y159218D01*
X267865Y159913D01*
X267171Y160377D01*
X266351Y160540D01*
D02*
G37*
G36*
X243599Y160945D02*
X242702Y160766D01*
X241941Y160258D01*
X241433Y159497D01*
X241254Y158600D01*
X241433Y157702D01*
X241941Y156941D01*
X242702Y156433D01*
X243599Y156255D01*
X244497Y156433D01*
X245257Y156941D01*
X245766Y157702D01*
X245944Y158600D01*
X245766Y159497D01*
X245257Y160258D01*
X244497Y160766D01*
X243599Y160945D01*
D02*
G37*
G36*
X322851Y157040D02*
X322032Y156877D01*
X321337Y156413D01*
X320873Y155718D01*
X320710Y154899D01*
X320873Y154079D01*
X321337Y153385D01*
X322032Y152921D01*
X322851Y152758D01*
X323671Y152921D01*
X324365Y153385D01*
X324829Y154079D01*
X324992Y154899D01*
X324829Y155718D01*
X324365Y156413D01*
X323671Y156877D01*
X322851Y157040D01*
D02*
G37*
G36*
X249852Y156744D02*
X248955Y156565D01*
X248194Y156057D01*
X247686Y155296D01*
X247507Y154399D01*
X247686Y153501D01*
X248194Y152741D01*
X248955Y152232D01*
X249852Y152054D01*
X250750Y152232D01*
X251510Y152741D01*
X252019Y153501D01*
X252197Y154399D01*
X252019Y155296D01*
X251510Y156057D01*
X250750Y156565D01*
X249852Y156744D01*
D02*
G37*
G36*
X229499Y152545D02*
X228602Y152366D01*
X227841Y151858D01*
X227333Y151097D01*
X227154Y150200D01*
X227333Y149302D01*
X227841Y148541D01*
X228602Y148033D01*
X229499Y147855D01*
X230397Y148033D01*
X231157Y148541D01*
X231666Y149302D01*
X231844Y150200D01*
X231666Y151097D01*
X231157Y151858D01*
X230397Y152366D01*
X229499Y152545D01*
D02*
G37*
G36*
X637499Y151945D02*
X636602Y151766D01*
X635841Y151258D01*
X635333Y150497D01*
X635154Y149600D01*
X635333Y148702D01*
X635841Y147942D01*
X636602Y147433D01*
X637499Y147255D01*
X638397Y147433D01*
X639157Y147942D01*
X639666Y148702D01*
X639844Y149600D01*
X639666Y150497D01*
X639157Y151258D01*
X638397Y151766D01*
X637499Y151945D01*
D02*
G37*
G36*
X410650Y150041D02*
X409831Y149878D01*
X409136Y149414D01*
X408672Y148719D01*
X408509Y147900D01*
X408672Y147080D01*
X409136Y146386D01*
X409831Y145922D01*
X410650Y145759D01*
X411470Y145922D01*
X411566Y145596D01*
X411585Y145501D01*
X412093Y144740D01*
X412854Y144232D01*
X413751Y144054D01*
X414649Y144232D01*
X415051Y144501D01*
X415493Y143841D01*
X416254Y143332D01*
X417151Y143154D01*
X418049Y143332D01*
X418809Y143841D01*
X419318Y144601D01*
X419496Y145499D01*
X419318Y146396D01*
X418809Y147157D01*
X418049Y147665D01*
X417151Y147844D01*
X416254Y147665D01*
X415851Y147396D01*
X415409Y148057D01*
X414649Y148565D01*
X413751Y148744D01*
X413157Y148626D01*
X412628Y148719D01*
X412164Y149414D01*
X411470Y149878D01*
X410650Y150041D01*
D02*
G37*
G36*
X242351Y145540D02*
X241532Y145377D01*
X240837Y144913D01*
X240373Y144218D01*
X240210Y143399D01*
X240373Y142579D01*
X240837Y141885D01*
X241532Y141421D01*
X242351Y141258D01*
X243170Y141421D01*
X243865Y141885D01*
X244329Y142579D01*
X244492Y143399D01*
X244329Y144218D01*
X243865Y144913D01*
X243170Y145377D01*
X242351Y145540D01*
D02*
G37*
G36*
X435998Y145040D02*
X435179Y144877D01*
X434484Y144413D01*
X434020Y143718D01*
X433857Y142899D01*
X434020Y142079D01*
X434484Y141385D01*
X435179Y140921D01*
X435998Y140758D01*
X436818Y140921D01*
X437512Y141385D01*
X437976Y142079D01*
X438139Y142899D01*
X437976Y143718D01*
X437512Y144413D01*
X436818Y144877D01*
X435998Y145040D01*
D02*
G37*
G36*
X612099Y144345D02*
X611202Y144166D01*
X610441Y143658D01*
X609933Y142897D01*
X609754Y142000D01*
X609933Y141102D01*
X610441Y140341D01*
X611202Y139833D01*
X612099Y139655D01*
X612997Y139833D01*
X613757Y140341D01*
X614266Y141102D01*
X614444Y142000D01*
X614266Y142897D01*
X613757Y143658D01*
X612997Y144166D01*
X612099Y144345D01*
D02*
G37*
G36*
X422951Y144344D02*
X422054Y144165D01*
X421293Y143657D01*
X420785Y142896D01*
X420606Y141999D01*
X420785Y141101D01*
X421293Y140340D01*
X422054Y139832D01*
X422951Y139654D01*
X423849Y139832D01*
X424609Y140340D01*
X425118Y141101D01*
X425296Y141999D01*
X425118Y142896D01*
X424609Y143657D01*
X423849Y144165D01*
X422951Y144344D01*
D02*
G37*
G36*
X609351Y138540D02*
X608532Y138377D01*
X607837Y137913D01*
X607373Y137218D01*
X607210Y136399D01*
X607373Y135579D01*
X607837Y134885D01*
X608532Y134421D01*
X609351Y134258D01*
X610171Y134421D01*
X610865Y134885D01*
X611329Y135579D01*
X611492Y136399D01*
X611329Y137218D01*
X610865Y137913D01*
X610171Y138377D01*
X609351Y138540D01*
D02*
G37*
G36*
X597351Y137540D02*
X596532Y137377D01*
X595837Y136913D01*
X595373Y136218D01*
X595210Y135399D01*
X595373Y134579D01*
X595837Y133885D01*
X596532Y133421D01*
X597351Y133258D01*
X598171Y133421D01*
X598865Y133885D01*
X599329Y134579D01*
X599492Y135399D01*
X599329Y136218D01*
X598865Y136913D01*
X598171Y137377D01*
X597351Y137540D01*
D02*
G37*
G36*
X591351D02*
X590532Y137377D01*
X589837Y136913D01*
X589373Y136218D01*
X589210Y135399D01*
X589373Y134579D01*
X589837Y133885D01*
X590532Y133421D01*
X591351Y133258D01*
X592170Y133421D01*
X592865Y133885D01*
X593329Y134579D01*
X593492Y135399D01*
X593329Y136218D01*
X592865Y136913D01*
X592170Y137377D01*
X591351Y137540D01*
D02*
G37*
G36*
X613351Y128744D02*
X612454Y128565D01*
X611693Y128057D01*
X611185Y127296D01*
X611006Y126399D01*
X611185Y125501D01*
X611693Y124741D01*
X612010Y124528D01*
Y124028D01*
X611837Y123913D01*
X611373Y123218D01*
X611210Y122399D01*
X611373Y121579D01*
X611837Y120885D01*
X612532Y120421D01*
X613351Y120258D01*
X614171Y120421D01*
X614865Y120885D01*
X615329Y121579D01*
X615492Y122399D01*
X615329Y123218D01*
X614865Y123913D01*
X614692Y124028D01*
Y124528D01*
X615009Y124741D01*
X615518Y125501D01*
X615696Y126399D01*
X615518Y127296D01*
X615009Y128057D01*
X614249Y128565D01*
X613351Y128744D01*
D02*
G37*
G36*
X362351Y410278D02*
X361649Y410138D01*
X361054Y409741D01*
X360656Y409145D01*
X360516Y408443D01*
X360656Y407740D01*
X361054Y407145D01*
X361649Y406747D01*
X362351Y406608D01*
X363054Y406747D01*
X363649Y407145D01*
X364047Y407740D01*
X364187Y408443D01*
X364047Y409145D01*
X363649Y409741D01*
X363054Y410138D01*
X362351Y410278D01*
D02*
G37*
G36*
X253451Y409878D02*
X252749Y409738D01*
X252154Y409341D01*
X251756Y408745D01*
X251616Y408043D01*
X251756Y407340D01*
X252154Y406745D01*
X252749Y406347D01*
X253451Y406208D01*
X254154Y406347D01*
X254749Y406745D01*
X255147Y407340D01*
X255287Y408043D01*
X255147Y408745D01*
X254749Y409341D01*
X254154Y409738D01*
X253451Y409878D01*
D02*
G37*
G36*
X342452Y409778D02*
X341749Y409638D01*
X341154Y409241D01*
X340756Y408645D01*
X340616Y407943D01*
X340756Y407240D01*
X341154Y406645D01*
X341749Y406247D01*
X342452Y406108D01*
X343154Y406247D01*
X343749Y406645D01*
X344147Y407240D01*
X344287Y407943D01*
X344147Y408645D01*
X343749Y409241D01*
X343154Y409638D01*
X342452Y409778D01*
D02*
G37*
G36*
X291752D02*
X291049Y409638D01*
X290454Y409241D01*
X290056Y408645D01*
X289916Y407943D01*
X290056Y407240D01*
X290454Y406645D01*
X291049Y406247D01*
X291752Y406108D01*
X292454Y406247D01*
X293049Y406645D01*
X293447Y407240D01*
X293587Y407943D01*
X293447Y408645D01*
X293049Y409241D01*
X292454Y409638D01*
X291752Y409778D01*
D02*
G37*
G36*
X269652D02*
X268949Y409638D01*
X268354Y409241D01*
X267956Y408645D01*
X267816Y407943D01*
X267956Y407240D01*
X268354Y406645D01*
X268949Y406247D01*
X269652Y406108D01*
X270354Y406247D01*
X270949Y406645D01*
X271347Y407240D01*
X271487Y407943D01*
X271347Y408645D01*
X270949Y409241D01*
X270354Y409638D01*
X269652Y409778D01*
D02*
G37*
G36*
X308552Y409678D02*
X307849Y409538D01*
X307254Y409141D01*
X306856Y408545D01*
X306716Y407843D01*
X306856Y407140D01*
X307254Y406545D01*
X307849Y406147D01*
X308552Y406008D01*
X309254Y406147D01*
X309849Y406545D01*
X310247Y407140D01*
X310387Y407843D01*
X310247Y408545D01*
X309849Y409141D01*
X309254Y409538D01*
X308552Y409678D01*
D02*
G37*
G36*
X242763Y406110D02*
X242061Y405971D01*
X241466Y405573D01*
X241068Y404977D01*
X240928Y404275D01*
X241068Y403573D01*
X241466Y402977D01*
X242061Y402580D01*
X242763Y402440D01*
X243466Y402580D01*
X244061Y402977D01*
X244459Y403573D01*
X244599Y404275D01*
X244459Y404977D01*
X244061Y405573D01*
X243466Y405971D01*
X242763Y406110D01*
D02*
G37*
G36*
X356937Y404929D02*
X356234Y404790D01*
X355639Y404392D01*
X355241Y403796D01*
X355101Y403094D01*
X355241Y402392D01*
X355639Y401796D01*
X356234Y401399D01*
X356937Y401259D01*
X357639Y401399D01*
X358234Y401796D01*
X358632Y402392D01*
X358772Y403094D01*
X358632Y403796D01*
X358234Y404392D01*
X357639Y404790D01*
X356937Y404929D01*
D02*
G37*
G36*
X334633Y401043D02*
X333746Y400926D01*
X332919Y400584D01*
X332208Y400039D01*
X332058D01*
X331348Y400584D01*
X330521Y400926D01*
X329633Y401043D01*
X328746Y400926D01*
X327919Y400584D01*
X327208Y400039D01*
X327058D01*
X326348Y400584D01*
X325521Y400926D01*
X324633Y401043D01*
X323746Y400926D01*
X322919Y400584D01*
X322208Y400039D01*
X322058D01*
X321348Y400584D01*
X320521Y400926D01*
X319633Y401043D01*
X318746Y400926D01*
X317919Y400584D01*
X317209Y400039D01*
X317058D01*
X316348Y400584D01*
X315521Y400926D01*
X314633Y401043D01*
X313746Y400926D01*
X312919Y400584D01*
X312209Y400039D01*
X312058D01*
X311348Y400584D01*
X310521Y400926D01*
X309633Y401043D01*
X308746Y400926D01*
X307919Y400584D01*
X307208Y400039D01*
X307058D01*
X306348Y400584D01*
X305521Y400926D01*
X304633Y401043D01*
X303746Y400926D01*
X302919Y400584D01*
X302208Y400039D01*
X302058D01*
X301348Y400584D01*
X300521Y400926D01*
X299633Y401043D01*
X298746Y400926D01*
X297919Y400584D01*
X297208Y400039D01*
X297058D01*
X296348Y400584D01*
X295521Y400926D01*
X294633Y401043D01*
X293746Y400926D01*
X292919Y400584D01*
X292209Y400039D01*
X292058D01*
X291348Y400584D01*
X290521Y400926D01*
X289633Y401043D01*
X288746Y400926D01*
X287919Y400584D01*
X287209Y400039D01*
X287058D01*
X286348Y400584D01*
X285521Y400926D01*
X284633Y401043D01*
X283746Y400926D01*
X282919Y400584D01*
X282208Y400039D01*
X282058D01*
X281348Y400584D01*
X280521Y400926D01*
X279633Y401043D01*
X278746Y400926D01*
X277919Y400584D01*
X277208Y400039D01*
X277058D01*
X276348Y400584D01*
X275521Y400926D01*
X274633Y401043D01*
X273746Y400926D01*
X272919Y400584D01*
X272208Y400039D01*
X271978Y399738D01*
X271330Y399715D01*
X270995Y399972D01*
X270338Y400244D01*
X269633Y400337D01*
X268929Y400244D01*
X268272Y399972D01*
X268108Y399846D01*
X269987Y397967D01*
X269633Y397614D01*
X269987Y397260D01*
X268108Y395381D01*
X268272Y395255D01*
X268929Y394983D01*
X269633Y394890D01*
X270338Y394983D01*
X270995Y395255D01*
X271330Y395512D01*
X271978Y395490D01*
X272208Y395189D01*
X272919Y394644D01*
X273746Y394301D01*
X274633Y394184D01*
X275521Y394301D01*
X276348Y394644D01*
X277058Y395189D01*
X277208D01*
X277919Y394644D01*
X278746Y394301D01*
X279633Y394184D01*
X280521Y394301D01*
X281348Y394644D01*
X282058Y395189D01*
X282208D01*
X282919Y394644D01*
X283746Y394301D01*
X284633Y394184D01*
X285521Y394301D01*
X286348Y394644D01*
X287058Y395189D01*
X287209D01*
X287919Y394644D01*
X288746Y394301D01*
X289633Y394184D01*
X290521Y394301D01*
X291348Y394644D01*
X292058Y395189D01*
X292209D01*
X292919Y394644D01*
X293746Y394301D01*
X294633Y394184D01*
X295521Y394301D01*
X296348Y394644D01*
X297058Y395189D01*
X297208D01*
X297919Y394644D01*
X298746Y394301D01*
X299633Y394184D01*
X300521Y394301D01*
X301348Y394644D01*
X302058Y395189D01*
X302208D01*
X302919Y394644D01*
X303746Y394301D01*
X304633Y394184D01*
X305521Y394301D01*
X306348Y394644D01*
X307058Y395189D01*
X307208D01*
X307919Y394644D01*
X308746Y394301D01*
X309633Y394184D01*
X310521Y394301D01*
X311348Y394644D01*
X312058Y395189D01*
X312209D01*
X312919Y394644D01*
X313746Y394301D01*
X314633Y394184D01*
X315521Y394301D01*
X316348Y394644D01*
X317058Y395189D01*
X317209D01*
X317919Y394644D01*
X318746Y394301D01*
X319633Y394184D01*
X320521Y394301D01*
X321348Y394644D01*
X322058Y395189D01*
X322208D01*
X322919Y394644D01*
X323746Y394301D01*
X324633Y394184D01*
X325521Y394301D01*
X326348Y394644D01*
X327058Y395189D01*
X327208D01*
X327919Y394644D01*
X328746Y394301D01*
X329633Y394184D01*
X330521Y394301D01*
X331348Y394644D01*
X332058Y395189D01*
X332208D01*
X332919Y394644D01*
X333746Y394301D01*
X334633Y394184D01*
X335521Y394301D01*
X336348Y394644D01*
X337058Y395189D01*
X337603Y395899D01*
X337946Y396726D01*
X338063Y397614D01*
X337946Y398501D01*
X337603Y399328D01*
X337058Y400039D01*
X336348Y400584D01*
X335521Y400926D01*
X334633Y401043D01*
D02*
G37*
G36*
X264633Y400337D02*
X263929Y400244D01*
X263272Y399972D01*
X263108Y399846D01*
X264633Y398321D01*
X266159Y399846D01*
X265995Y399972D01*
X265338Y400244D01*
X264633Y400337D01*
D02*
G37*
G36*
X259633D02*
X258928Y400244D01*
X258272Y399972D01*
X258108Y399846D01*
X259633Y398321D01*
X261159Y399846D01*
X260995Y399972D01*
X260338Y400244D01*
X259633Y400337D01*
D02*
G37*
G36*
X267376Y399164D02*
X266891D01*
X265340Y397614D01*
X266891Y396064D01*
X267376D01*
X268926Y397614D01*
X267376Y399164D01*
D02*
G37*
G36*
X262376D02*
X261891D01*
X260340Y397614D01*
X261891Y396064D01*
X262376D01*
X263926Y397614D01*
X262376Y399164D01*
D02*
G37*
G36*
X257376D02*
X256891D01*
X255341Y397614D01*
X256891Y396064D01*
X257376D01*
X258926Y397614D01*
X257376Y399164D01*
D02*
G37*
G36*
X264633Y396907D02*
X263108Y395381D01*
X263272Y395255D01*
X263929Y394983D01*
X264633Y394890D01*
X265338Y394983D01*
X265995Y395255D01*
X266159Y395381D01*
X264633Y396907D01*
D02*
G37*
G36*
X259633D02*
X258108Y395381D01*
X258272Y395255D01*
X258928Y394983D01*
X259633Y394890D01*
X260338Y394983D01*
X260995Y395255D01*
X261159Y395381D01*
X259633Y396907D01*
D02*
G37*
G36*
X249633Y401043D02*
X248746Y400926D01*
X247919Y400584D01*
X247208Y400039D01*
X246663Y399328D01*
X246321Y398501D01*
X246204Y397614D01*
X246321Y396726D01*
X246663Y395899D01*
X247208Y395189D01*
X247919Y394644D01*
X248746Y394301D01*
X249633Y394184D01*
X250521Y394301D01*
X251348Y394644D01*
X252058Y395189D01*
X252289Y395490D01*
X252937Y395512D01*
X253272Y395255D01*
X253928Y394983D01*
X254633Y394890D01*
X255338Y394983D01*
X255995Y395255D01*
X256159Y395381D01*
X254280Y397260D01*
X254633Y397614D01*
X254280Y397967D01*
X256159Y399846D01*
X255995Y399972D01*
X255338Y400244D01*
X254633Y400337D01*
X253928Y400244D01*
X253272Y399972D01*
X252937Y399715D01*
X252289Y399738D01*
X252058Y400039D01*
X251348Y400584D01*
X250521Y400926D01*
X249633Y401043D01*
D02*
G37*
G36*
X303952Y392178D02*
X303249Y392038D01*
X302654Y391641D01*
X302256Y391045D01*
X302116Y390343D01*
X302256Y389640D01*
X302654Y389045D01*
X303249Y388647D01*
X303952Y388508D01*
X304654Y388647D01*
X305249Y389045D01*
X305647Y389640D01*
X305787Y390343D01*
X305647Y391045D01*
X305249Y391641D01*
X304654Y392038D01*
X303952Y392178D01*
D02*
G37*
G36*
X299352D02*
X298649Y392038D01*
X298054Y391641D01*
X297656Y391045D01*
X297516Y390343D01*
X297656Y389640D01*
X298054Y389045D01*
X298649Y388647D01*
X299352Y388508D01*
X300054Y388647D01*
X300649Y389045D01*
X301047Y389640D01*
X301187Y390343D01*
X301047Y391045D01*
X300649Y391641D01*
X300054Y392038D01*
X299352Y392178D01*
D02*
G37*
G36*
X334552Y391778D02*
X333849Y391638D01*
X333254Y391241D01*
X332856Y390645D01*
X332716Y389943D01*
X332856Y389241D01*
X333254Y388645D01*
X333849Y388247D01*
X334552Y388108D01*
X335254Y388247D01*
X335849Y388645D01*
X336247Y389241D01*
X336387Y389943D01*
X336247Y390645D01*
X335849Y391241D01*
X335254Y391638D01*
X334552Y391778D01*
D02*
G37*
G36*
X309651Y391578D02*
X308949Y391438D01*
X308354Y391041D01*
X307956Y390445D01*
X307816Y389743D01*
X307956Y389040D01*
X308354Y388445D01*
X308949Y388047D01*
X309651Y387908D01*
X310354Y388047D01*
X310949Y388445D01*
X311347Y389040D01*
X311487Y389743D01*
X311347Y390445D01*
X310949Y391041D01*
X310354Y391438D01*
X309651Y391578D01*
D02*
G37*
G36*
X314633Y391496D02*
X313931Y391356D01*
X313336Y390959D01*
X312938Y390363D01*
X312798Y389661D01*
X312938Y388959D01*
X313336Y388363D01*
X313931Y387965D01*
X314633Y387826D01*
X315336Y387965D01*
X315931Y388363D01*
X316329Y388959D01*
X316469Y389661D01*
X316329Y390363D01*
X315931Y390959D01*
X315336Y391356D01*
X314633Y391496D01*
D02*
G37*
G36*
X284651Y378978D02*
X283949Y378838D01*
X283354Y378441D01*
X282956Y377845D01*
X282874Y377434D01*
X282856Y377345D01*
X282347D01*
X282329Y377434D01*
X282247Y377845D01*
X281849Y378441D01*
X281254Y378838D01*
X280552Y378978D01*
X279849Y378838D01*
X279254Y378441D01*
X278856Y377845D01*
X278716Y377143D01*
X278856Y376441D01*
X279254Y375845D01*
X279849Y375447D01*
X280552Y375308D01*
X281254Y375447D01*
X281849Y375845D01*
X282247Y376441D01*
X282329Y376852D01*
X282347Y376941D01*
X282856D01*
X282874Y376852D01*
X282956Y376441D01*
X283354Y375845D01*
X283949Y375447D01*
X284651Y375308D01*
X285354Y375447D01*
X285949Y375845D01*
X286347Y376441D01*
X286487Y377143D01*
X286347Y377845D01*
X285949Y378441D01*
X285354Y378838D01*
X284651Y378978D01*
D02*
G37*
G36*
X334552Y380678D02*
X333849Y380538D01*
X333254Y380141D01*
X332856Y379545D01*
X332716Y378843D01*
X332856Y378140D01*
X333254Y377545D01*
X333849Y377147D01*
X334552Y377008D01*
X335254Y377147D01*
X335849Y377545D01*
X336247Y378140D01*
X336387Y378843D01*
X336247Y379545D01*
X335849Y380141D01*
X335254Y380538D01*
X334552Y380678D01*
D02*
G37*
G36*
X294752Y380478D02*
X294049Y380338D01*
X293454Y379941D01*
X293056Y379345D01*
X292916Y378643D01*
X293056Y377941D01*
X293454Y377345D01*
X294049Y376947D01*
X294752Y376808D01*
X295454Y376947D01*
X296049Y377345D01*
X296447Y377941D01*
X296587Y378643D01*
X296447Y379345D01*
X296049Y379941D01*
X295454Y380338D01*
X294752Y380478D01*
D02*
G37*
G36*
X318851Y379178D02*
X318149Y379038D01*
X317554Y378641D01*
X317156Y378045D01*
X317016Y377343D01*
X317156Y376641D01*
X317554Y376045D01*
X318149Y375647D01*
X318851Y375508D01*
X319554Y375647D01*
X320149Y376045D01*
X320547Y376641D01*
X320687Y377343D01*
X320547Y378045D01*
X320149Y378641D01*
X319554Y379038D01*
X318851Y379178D01*
D02*
G37*
G36*
X289651Y378578D02*
X288949Y378438D01*
X288354Y378041D01*
X287956Y377445D01*
X287816Y376743D01*
X287956Y376041D01*
X288354Y375445D01*
X288949Y375047D01*
X289651Y374908D01*
X290354Y375047D01*
X290949Y375445D01*
X291347Y376041D01*
X291487Y376743D01*
X291347Y377445D01*
X290949Y378041D01*
X290354Y378438D01*
X289651Y378578D01*
D02*
G37*
G36*
X252852Y378078D02*
X252149Y377938D01*
X251554Y377541D01*
X251156Y376945D01*
X251016Y376243D01*
X251156Y375540D01*
X251554Y374945D01*
X252149Y374547D01*
X252852Y374408D01*
X253554Y374547D01*
X254149Y374945D01*
X254547Y375540D01*
X254687Y376243D01*
X254547Y376945D01*
X254149Y377541D01*
X253554Y377938D01*
X252852Y378078D01*
D02*
G37*
G36*
X243451Y375525D02*
X242749Y375385D01*
X242154Y374987D01*
X241756Y374392D01*
X241616Y373689D01*
X241756Y372987D01*
X242154Y372392D01*
X242749Y371994D01*
X243451Y371854D01*
X244154Y371994D01*
X244749Y372392D01*
X245147Y372987D01*
X245287Y373689D01*
X245147Y374392D01*
X244749Y374987D01*
X244154Y375385D01*
X243451Y375525D01*
D02*
G37*
G36*
X317251Y374878D02*
X316549Y374738D01*
X315954Y374341D01*
X315556Y373745D01*
X315416Y373043D01*
X315556Y372340D01*
X315954Y371745D01*
X316549Y371347D01*
X317251Y371208D01*
X317954Y371347D01*
X318549Y371745D01*
X318947Y372340D01*
X319087Y373043D01*
X318947Y373745D01*
X318549Y374341D01*
X317954Y374738D01*
X317251Y374878D01*
D02*
G37*
G36*
X277751Y374678D02*
X277049Y374538D01*
X276454Y374141D01*
X276056Y373545D01*
X275916Y372843D01*
X276056Y372141D01*
X276454Y371545D01*
X277049Y371147D01*
X277751Y371008D01*
X278454Y371147D01*
X279049Y371545D01*
X279447Y372141D01*
X279587Y372843D01*
X279447Y373545D01*
X279049Y374141D01*
X278454Y374538D01*
X277751Y374678D01*
D02*
G37*
G36*
X352212Y374614D02*
X351510Y374475D01*
X350914Y374077D01*
X350516Y373481D01*
X350377Y372779D01*
X350516Y372077D01*
X350914Y371481D01*
X351510Y371084D01*
X352212Y370944D01*
X352914Y371084D01*
X353510Y371481D01*
X353907Y372077D01*
X354047Y372779D01*
X353907Y373481D01*
X353510Y374077D01*
X352914Y374475D01*
X352212Y374614D01*
D02*
G37*
G36*
X268952Y374478D02*
X268249Y374338D01*
X267654Y373941D01*
X267256Y373345D01*
X267116Y372643D01*
X267256Y371940D01*
X267654Y371345D01*
X268249Y370947D01*
X268952Y370808D01*
X269654Y370947D01*
X270249Y371345D01*
X270647Y371940D01*
X270787Y372643D01*
X270647Y373345D01*
X270249Y373941D01*
X269654Y374338D01*
X268952Y374478D01*
D02*
G37*
G36*
X264452Y374378D02*
X263749Y374238D01*
X263154Y373841D01*
X262756Y373245D01*
X262616Y372543D01*
X262756Y371841D01*
X263154Y371245D01*
X263749Y370847D01*
X264452Y370708D01*
X265154Y370847D01*
X265749Y371245D01*
X266147Y371841D01*
X266287Y372543D01*
X266147Y373245D01*
X265749Y373841D01*
X265154Y374238D01*
X264452Y374378D01*
D02*
G37*
G36*
X257951Y374078D02*
X257249Y373938D01*
X256654Y373541D01*
X256256Y372945D01*
X256116Y372243D01*
X256256Y371540D01*
X256654Y370945D01*
X257249Y370547D01*
X257951Y370408D01*
X258654Y370547D01*
X259249Y370945D01*
X259647Y371540D01*
X259787Y372243D01*
X259647Y372945D01*
X259249Y373541D01*
X258654Y373938D01*
X257951Y374078D01*
D02*
G37*
G36*
X249633Y373996D02*
X248931Y373856D01*
X248336Y373459D01*
X247938Y372863D01*
X247798Y372161D01*
X247938Y371459D01*
X248336Y370863D01*
X248931Y370465D01*
X249633Y370326D01*
X250336Y370465D01*
X250931Y370863D01*
X251329Y371459D01*
X251469Y372161D01*
X251329Y372863D01*
X250931Y373459D01*
X250336Y373856D01*
X249633Y373996D01*
D02*
G37*
G36*
X324751Y373478D02*
X324049Y373338D01*
X323454Y372941D01*
X323056Y372345D01*
X322916Y371643D01*
X323056Y370940D01*
X323454Y370345D01*
X324049Y369947D01*
X324751Y369808D01*
X325454Y369947D01*
X326049Y370345D01*
X326447Y370940D01*
X326587Y371643D01*
X326447Y372345D01*
X326049Y372941D01*
X325454Y373338D01*
X324751Y373478D01*
D02*
G37*
G36*
X256751Y369378D02*
X256049Y369238D01*
X255454Y368841D01*
X255056Y368245D01*
X254916Y367543D01*
X255056Y366841D01*
X255454Y366245D01*
X256049Y365847D01*
X256751Y365708D01*
X257454Y365847D01*
X258049Y366245D01*
X258447Y366841D01*
X258587Y367543D01*
X258447Y368245D01*
X258049Y368841D01*
X257454Y369238D01*
X256751Y369378D01*
D02*
G37*
G36*
X268151Y368178D02*
X267449Y368038D01*
X266854Y367641D01*
X266456Y367045D01*
X266316Y366343D01*
X266456Y365640D01*
X266854Y365045D01*
X267449Y364647D01*
X268151Y364508D01*
X268854Y364647D01*
X269449Y365045D01*
X269847Y365640D01*
X269987Y366343D01*
X269847Y367045D01*
X269449Y367641D01*
X268854Y368038D01*
X268151Y368178D01*
D02*
G37*
G36*
X324952Y365976D02*
X324288Y365844D01*
X323726Y365469D01*
X323350Y364906D01*
X323218Y364243D01*
X323350Y363580D01*
X323726Y363017D01*
X324288Y362642D01*
X324952Y362509D01*
X325615Y362642D01*
X326177Y363017D01*
X326553Y363580D01*
X326685Y364243D01*
X326553Y364906D01*
X326177Y365469D01*
X325615Y365844D01*
X324952Y365976D01*
D02*
G37*
G36*
X246751Y364878D02*
X246049Y364738D01*
X245454Y364341D01*
X245056Y363745D01*
X244916Y363043D01*
X245056Y362340D01*
X245454Y361745D01*
X246049Y361347D01*
X246751Y361208D01*
X247454Y361347D01*
X248049Y361745D01*
X248447Y362340D01*
X248587Y363043D01*
X248447Y363745D01*
X248049Y364341D01*
X247454Y364738D01*
X246751Y364878D01*
D02*
G37*
G36*
X342845Y357676D02*
X342182Y357544D01*
X341933Y357378D01*
X341545Y357202D01*
X341158Y357378D01*
X340909Y357544D01*
X340245Y357676D01*
X339582Y357544D01*
X339020Y357169D01*
X338644Y356606D01*
X338512Y355943D01*
X338644Y355279D01*
X339020Y354717D01*
X339582Y354342D01*
X340245Y354209D01*
X340909Y354342D01*
X341158Y354508D01*
X341545Y354683D01*
X341933Y354508D01*
X342182Y354342D01*
X342845Y354209D01*
X343509Y354342D01*
X344071Y354717D01*
X344447Y355279D01*
X344579Y355943D01*
X344447Y356606D01*
X344071Y357169D01*
X343509Y357544D01*
X342845Y357676D01*
D02*
G37*
G36*
X329252Y360678D02*
X328549Y360538D01*
X327954Y360141D01*
X327556Y359545D01*
X327416Y358843D01*
X327556Y358140D01*
X327954Y357545D01*
X328549Y357147D01*
X329252Y357008D01*
X329954Y357147D01*
X330549Y357545D01*
X330947Y358140D01*
X331087Y358843D01*
X330947Y359545D01*
X330549Y360141D01*
X329954Y360538D01*
X329252Y360678D01*
D02*
G37*
G36*
X320352Y358576D02*
X319688Y358444D01*
X319126Y358068D01*
X318750Y357506D01*
X318618Y356843D01*
X318750Y356179D01*
X319126Y355617D01*
X319688Y355241D01*
X320352Y355110D01*
X321015Y355241D01*
X321577Y355617D01*
X321953Y356179D01*
X322085Y356843D01*
X321953Y357506D01*
X321577Y358068D01*
X321015Y358444D01*
X320352Y358576D01*
D02*
G37*
G36*
X325851Y354676D02*
X325188Y354544D01*
X324626Y354169D01*
X324250Y353606D01*
X324118Y352943D01*
X324250Y352279D01*
X324626Y351717D01*
X325188Y351342D01*
X325851Y351209D01*
X326515Y351342D01*
X327077Y351717D01*
X327453Y352279D01*
X327585Y352943D01*
X327453Y353606D01*
X327077Y354169D01*
X326515Y354544D01*
X325851Y354676D01*
D02*
G37*
G36*
X358752Y354376D02*
X358088Y354244D01*
X357526Y353869D01*
X357150Y353306D01*
X357018Y352643D01*
X357150Y351979D01*
X357526Y351417D01*
X358088Y351042D01*
X358752Y350909D01*
X359415Y351042D01*
X359977Y351417D01*
X360353Y351979D01*
X360485Y352643D01*
X360353Y353306D01*
X359977Y353869D01*
X359415Y354244D01*
X358752Y354376D01*
D02*
G37*
G36*
X267951Y356178D02*
X267249Y356038D01*
X266654Y355641D01*
X266256Y355045D01*
X266116Y354343D01*
X266256Y353641D01*
X266654Y353045D01*
Y352840D01*
X266256Y352245D01*
X266116Y351543D01*
X266256Y350840D01*
X266654Y350245D01*
X267249Y349847D01*
X267951Y349708D01*
X268654Y349847D01*
X269249Y350245D01*
X269647Y350840D01*
X269787Y351543D01*
X269647Y352245D01*
X269249Y352840D01*
Y353045D01*
X269647Y353641D01*
X269787Y354343D01*
X269647Y355045D01*
X269249Y355641D01*
X268654Y356038D01*
X267951Y356178D01*
D02*
G37*
G36*
X254351Y352378D02*
X253649Y352238D01*
X253054Y351841D01*
X252656Y351245D01*
X252516Y350543D01*
X252593Y350158D01*
X252190Y349706D01*
X251818Y349755D01*
X250787Y349620D01*
X249826Y349221D01*
X249001Y348588D01*
X248368Y347763D01*
X247970Y346802D01*
X247834Y345771D01*
X247970Y344740D01*
X248368Y343779D01*
X249001Y342954D01*
X249826Y342321D01*
X250787Y341923D01*
X251818Y341787D01*
X252597Y341890D01*
X252990Y341491D01*
X252999Y341461D01*
X252916Y341043D01*
X253056Y340340D01*
X253301Y339974D01*
X252970Y339570D01*
X252850Y339619D01*
X251818Y339755D01*
X250787Y339619D01*
X249826Y339222D01*
X249001Y338588D01*
X248368Y337763D01*
X247970Y336802D01*
X247834Y335771D01*
X247970Y334740D01*
X248368Y333779D01*
X249001Y332954D01*
X249826Y332321D01*
X250787Y331923D01*
X251818Y331787D01*
X252850Y331923D01*
X253811Y332321D01*
X254142Y332575D01*
X254512Y332229D01*
X254456Y332145D01*
X254316Y331443D01*
X254456Y330740D01*
X254854Y330145D01*
X255449Y329747D01*
X256152Y329608D01*
X256854Y329747D01*
X257449Y330145D01*
X257847Y330740D01*
X257987Y331443D01*
X257847Y332145D01*
X257449Y332741D01*
X256854Y333138D01*
X256152Y333278D01*
X255449Y333138D01*
X255363Y333081D01*
X255017Y333451D01*
X255269Y333779D01*
X255667Y334740D01*
X255802Y335771D01*
X255667Y336802D01*
X255269Y337763D01*
X254636Y338588D01*
X254402Y338767D01*
X254614Y339235D01*
X254751Y339208D01*
X255454Y339347D01*
X256049Y339745D01*
X256447Y340340D01*
X256587Y341043D01*
X256447Y341745D01*
X256049Y342341D01*
X255454Y342738D01*
X255147Y342799D01*
X254940Y343351D01*
X255269Y343779D01*
X255667Y344740D01*
X255747Y345348D01*
X255798Y345416D01*
X256297Y345698D01*
X256751Y345608D01*
X257454Y345747D01*
X258049Y346145D01*
X258447Y346741D01*
X258587Y347443D01*
X258447Y348145D01*
X258049Y348741D01*
X257454Y349138D01*
X256751Y349278D01*
X256199Y349168D01*
X255869Y349572D01*
X255869Y349573D01*
X256047Y349840D01*
X256187Y350543D01*
X256047Y351245D01*
X255649Y351841D01*
X255054Y352238D01*
X254351Y352378D01*
D02*
G37*
G36*
X348726Y347247D02*
X348024Y347107D01*
X347429Y346709D01*
X347224D01*
X346629Y347107D01*
X345926Y347247D01*
X345224Y347107D01*
X344629Y346709D01*
X344231Y346114D01*
X344091Y345411D01*
X344231Y344709D01*
X344629Y344114D01*
X345224Y343716D01*
X345926Y343576D01*
X346629Y343716D01*
X347224Y344114D01*
X347429D01*
X348024Y343716D01*
X348726Y343576D01*
X349429Y343716D01*
X350024Y344114D01*
X350422Y344709D01*
X350562Y345411D01*
X350422Y346114D01*
X350024Y346709D01*
X349429Y347107D01*
X348726Y347247D01*
D02*
G37*
G36*
X263452Y349478D02*
X262749Y349338D01*
X262154Y348941D01*
X261756Y348345D01*
X261616Y347643D01*
X261756Y346940D01*
X262154Y346345D01*
X262749Y345947D01*
X263452Y345808D01*
X264154Y345947D01*
X264749Y346345D01*
X265147Y346940D01*
X265287Y347643D01*
X265147Y348345D01*
X264749Y348941D01*
X264154Y349338D01*
X263452Y349478D01*
D02*
G37*
G36*
X317652Y346078D02*
X316949Y345938D01*
X316354Y345541D01*
X315956Y344945D01*
X315816Y344243D01*
X315956Y343541D01*
X316354Y342945D01*
X316949Y342547D01*
X317652Y342408D01*
X318354Y342547D01*
X318949Y342945D01*
X319347Y343541D01*
X319487Y344243D01*
X319347Y344945D01*
X318949Y345541D01*
X318354Y345938D01*
X317652Y346078D01*
D02*
G37*
G36*
X356351Y345776D02*
X355688Y345644D01*
X355126Y345269D01*
X354750Y344706D01*
X354618Y344043D01*
X354750Y343379D01*
X355126Y342817D01*
X355688Y342442D01*
X356351Y342309D01*
X357015Y342442D01*
X357577Y342817D01*
X357953Y343379D01*
X358085Y344043D01*
X357953Y344706D01*
X357577Y345269D01*
X357015Y345644D01*
X356351Y345776D01*
D02*
G37*
G36*
X278984Y340362D02*
X278281Y340223D01*
X277686Y339825D01*
X277414Y339418D01*
X276871Y339372D01*
X276836Y339384D01*
X276738Y339529D01*
X276143Y339927D01*
X275441Y340067D01*
X274738Y339927D01*
X274143Y339529D01*
X273745Y338934D01*
X273605Y338232D01*
X273745Y337529D01*
X274143Y336934D01*
X274738Y336536D01*
X275441Y336397D01*
X276143Y336536D01*
X276738Y336934D01*
X277010Y337341D01*
X277554Y337387D01*
X277589Y337375D01*
X277686Y337229D01*
X278281Y336831D01*
X278984Y336692D01*
X279686Y336831D01*
X280281Y337229D01*
X280679Y337825D01*
X280819Y338527D01*
X280679Y339229D01*
X280281Y339825D01*
X279686Y340223D01*
X278984Y340362D01*
D02*
G37*
G36*
X285251Y342978D02*
X284549Y342838D01*
X283954Y342441D01*
X283556Y341845D01*
X283416Y341143D01*
X283556Y340441D01*
X283954Y339845D01*
X284549Y339447D01*
X285251Y339308D01*
X285954Y339447D01*
X286549Y339845D01*
X286947Y340441D01*
X287087Y341143D01*
X286947Y341845D01*
X286549Y342441D01*
X285954Y342838D01*
X285251Y342978D01*
D02*
G37*
G36*
X309299Y342331D02*
X308596Y342191D01*
X308001Y341793D01*
X307603Y341198D01*
X307463Y340495D01*
X307603Y339793D01*
X308001Y339198D01*
X308596Y338800D01*
X309299Y338660D01*
X310001Y338800D01*
X310596Y339198D01*
X310994Y339793D01*
X311134Y340495D01*
X310994Y341198D01*
X310596Y341793D01*
X310001Y342191D01*
X309299Y342331D01*
D02*
G37*
G36*
X303393Y341937D02*
X302691Y341797D01*
X302096Y341400D01*
X301698Y340804D01*
X301558Y340102D01*
X301698Y339400D01*
X302096Y338804D01*
X302691Y338406D01*
X303393Y338267D01*
X304096Y338406D01*
X304691Y338804D01*
X305089Y339400D01*
X305228Y340102D01*
X305089Y340804D01*
X304691Y341400D01*
X304096Y341797D01*
X303393Y341937D01*
D02*
G37*
G36*
X299062Y341543D02*
X298360Y341404D01*
X297765Y341006D01*
X297367Y340410D01*
X297227Y339708D01*
X297367Y339006D01*
X297765Y338410D01*
X298360Y338013D01*
X299062Y337873D01*
X299765Y338013D01*
X300360Y338410D01*
X300758Y339006D01*
X300898Y339708D01*
X300758Y340410D01*
X300360Y341006D01*
X299765Y341404D01*
X299062Y341543D01*
D02*
G37*
G36*
X356252Y340776D02*
X355588Y340644D01*
X355026Y340268D01*
X354650Y339706D01*
X354518Y339043D01*
X354650Y338380D01*
X355026Y337817D01*
X355588Y337441D01*
X356252Y337310D01*
X356915Y337441D01*
X357477Y337817D01*
X357853Y338380D01*
X357985Y339043D01*
X357853Y339706D01*
X357477Y340268D01*
X356915Y340644D01*
X356252Y340776D01*
D02*
G37*
G36*
X288039Y339575D02*
X287337Y339435D01*
X286741Y339037D01*
X286343Y338442D01*
X286204Y337740D01*
X286343Y337037D01*
X286741Y336442D01*
X287337Y336044D01*
X288039Y335904D01*
X288741Y336044D01*
X289337Y336442D01*
X289735Y337037D01*
X289874Y337740D01*
X289735Y338442D01*
X289337Y339037D01*
X288741Y339435D01*
X288039Y339575D01*
D02*
G37*
G36*
X269535Y339162D02*
X268833Y339022D01*
X268237Y338624D01*
X267839Y338029D01*
X267700Y337326D01*
X267839Y336624D01*
X268237Y336029D01*
X268833Y335631D01*
X269535Y335491D01*
X270237Y335631D01*
X270833Y336029D01*
X271231Y336624D01*
X271370Y337326D01*
X271231Y338029D01*
X270833Y338624D01*
X270237Y339022D01*
X269535Y339162D01*
D02*
G37*
G36*
X339152Y335676D02*
X338488Y335544D01*
X337926Y335169D01*
X337550Y334606D01*
X337418Y333943D01*
X337550Y333279D01*
X337926Y332717D01*
X338488Y332342D01*
X339152Y332209D01*
X339815Y332342D01*
X340377Y332717D01*
X340753Y333279D01*
X340885Y333943D01*
X340753Y334606D01*
X340377Y335169D01*
X339815Y335544D01*
X339152Y335676D01*
D02*
G37*
G36*
X328852Y331976D02*
X328188Y331844D01*
X327626Y331469D01*
X327250Y330906D01*
X327118Y330243D01*
X327250Y329579D01*
X327626Y329017D01*
X328188Y328642D01*
X328852Y328509D01*
X329515Y328642D01*
X330077Y329017D01*
X330453Y329579D01*
X330585Y330243D01*
X330453Y330906D01*
X330077Y331469D01*
X329515Y331844D01*
X328852Y331976D01*
D02*
G37*
G36*
X288039Y328691D02*
X287337Y328551D01*
X286741Y328153D01*
X286343Y327558D01*
X286204Y326855D01*
X286343Y326153D01*
X286741Y325558D01*
X287337Y325160D01*
X288039Y325020D01*
X288741Y325160D01*
X289337Y325558D01*
X289735Y326153D01*
X289874Y326855D01*
X289735Y327558D01*
X289337Y328153D01*
X288741Y328551D01*
X288039Y328691D01*
D02*
G37*
G36*
X358783Y327776D02*
X358120Y327644D01*
X357557Y327269D01*
X357182Y326706D01*
X357050Y326043D01*
X357182Y325379D01*
X357557Y324817D01*
X358120Y324442D01*
X358783Y324309D01*
X359446Y324442D01*
X360009Y324817D01*
X360384Y325379D01*
X360516Y326043D01*
X360384Y326706D01*
X360009Y327269D01*
X359446Y327644D01*
X358783Y327776D01*
D02*
G37*
G36*
X308118Y326978D02*
X307415Y326838D01*
X306820Y326441D01*
X306422Y325845D01*
X306282Y325143D01*
X306422Y324441D01*
X306820Y323845D01*
X307415Y323447D01*
X308118Y323308D01*
X308820Y323447D01*
X309415Y323845D01*
X309813Y324441D01*
X309953Y325143D01*
X309813Y325845D01*
X309415Y326441D01*
X308820Y326838D01*
X308118Y326978D01*
D02*
G37*
G36*
X327751Y327878D02*
X327049Y327738D01*
X326454Y327341D01*
X326056Y326745D01*
X325916Y326043D01*
X326056Y325341D01*
X326454Y324745D01*
X327049Y324347D01*
X327751Y324208D01*
X328454Y324347D01*
X328493Y324374D01*
X328933Y324066D01*
X329050Y323480D01*
X329426Y322917D01*
X329988Y322541D01*
X330651Y322410D01*
X331315Y322541D01*
X331877Y322917D01*
X332253Y323480D01*
X332385Y324143D01*
X332253Y324806D01*
X331877Y325368D01*
X331315Y325744D01*
X330651Y325876D01*
X330039Y325754D01*
X329584Y326030D01*
X329587Y326043D01*
X329447Y326745D01*
X329049Y327341D01*
X328454Y327738D01*
X327751Y327878D01*
D02*
G37*
G36*
X339152Y325776D02*
X338488Y325644D01*
X337926Y325269D01*
X337550Y324706D01*
X337418Y324043D01*
X337550Y323379D01*
X337926Y322817D01*
X338488Y322442D01*
X339152Y322309D01*
X339815Y322442D01*
X340377Y322817D01*
X340753Y323379D01*
X340885Y324043D01*
X340753Y324706D01*
X340377Y325269D01*
X339815Y325644D01*
X339152Y325776D01*
D02*
G37*
G36*
X294752Y323378D02*
X294049Y323238D01*
X293454Y322841D01*
X293056Y322245D01*
X292961Y321767D01*
X292483Y321352D01*
X292352Y321378D01*
X291649Y321238D01*
X291054Y320841D01*
X290656Y320245D01*
X290516Y319543D01*
X290656Y318841D01*
X291054Y318245D01*
X291649Y317847D01*
X292352Y317708D01*
X293054Y317847D01*
X293649Y318245D01*
X294047Y318841D01*
X294142Y319319D01*
X294620Y319734D01*
X294752Y319708D01*
X295454Y319847D01*
X296049Y320245D01*
X296447Y320841D01*
X296587Y321543D01*
X296447Y322245D01*
X296049Y322841D01*
X295454Y323238D01*
X294752Y323378D01*
D02*
G37*
G36*
X273151Y324176D02*
X272488Y324044D01*
X271926Y323669D01*
X271550Y323106D01*
X271418Y322443D01*
X271550Y321779D01*
X271926Y321217D01*
X272488Y320842D01*
X273151Y320709D01*
X273815Y320842D01*
X274377Y321217D01*
X274753Y321779D01*
X274885Y322443D01*
X274753Y323106D01*
X274377Y323669D01*
X273815Y324044D01*
X273151Y324176D01*
D02*
G37*
G36*
X339551Y320776D02*
X338888Y320644D01*
X338326Y320269D01*
X337950Y319706D01*
X337818Y319043D01*
X337950Y318379D01*
X338326Y317817D01*
X338888Y317442D01*
X339551Y317309D01*
X340215Y317442D01*
X340777Y317817D01*
X341153Y318379D01*
X341285Y319043D01*
X341153Y319706D01*
X340777Y320269D01*
X340215Y320644D01*
X339551Y320776D01*
D02*
G37*
G36*
X248151Y318378D02*
X247449Y318238D01*
X246854Y317841D01*
X246456Y317245D01*
X246316Y316543D01*
X246456Y315841D01*
X246854Y315245D01*
X247449Y314847D01*
X248151Y314708D01*
X248854Y314847D01*
X249449Y315245D01*
X249847Y315841D01*
X249987Y316543D01*
X249847Y317245D01*
X249449Y317841D01*
X248854Y318238D01*
X248151Y318378D01*
D02*
G37*
G36*
X356152Y315876D02*
X355488Y315744D01*
X354926Y315369D01*
X354550Y314806D01*
X354418Y314143D01*
X354550Y313479D01*
X354926Y312917D01*
X355488Y312542D01*
X356152Y312409D01*
X356815Y312542D01*
X357377Y312917D01*
X357753Y313479D01*
X357885Y314143D01*
X357753Y314806D01*
X357377Y315369D01*
X356815Y315744D01*
X356152Y315876D01*
D02*
G37*
G36*
X266752Y317578D02*
X266049Y317438D01*
X265454Y317041D01*
X265056Y316445D01*
X264916Y315743D01*
X265056Y315040D01*
X265454Y314445D01*
X266049Y314047D01*
X266547Y313948D01*
X267016Y313743D01*
X267156Y313040D01*
X267554Y312445D01*
X268149Y312047D01*
X268851Y311908D01*
X269554Y312047D01*
X270149Y312445D01*
X270547Y313040D01*
X270687Y313743D01*
X270547Y314445D01*
X270149Y315041D01*
X269554Y315438D01*
X269056Y315538D01*
X268587Y315743D01*
X268447Y316445D01*
X268049Y317041D01*
X267454Y317438D01*
X266752Y317578D01*
D02*
G37*
G36*
X304181Y314378D02*
X303478Y314238D01*
X302883Y313841D01*
X302485Y313245D01*
X302345Y312543D01*
X302485Y311841D01*
X302883Y311245D01*
X303478Y310847D01*
X304181Y310708D01*
X304883Y310847D01*
X305478Y311245D01*
X305876Y311841D01*
X306016Y312543D01*
X305876Y313245D01*
X305478Y313841D01*
X304883Y314238D01*
X304181Y314378D01*
D02*
G37*
G36*
X356252Y310876D02*
X355588Y310744D01*
X355026Y310368D01*
X354650Y309806D01*
X354518Y309143D01*
X354650Y308479D01*
X355026Y307917D01*
X355588Y307541D01*
X356252Y307410D01*
X356915Y307541D01*
X357477Y307917D01*
X357853Y308479D01*
X357985Y309143D01*
X357853Y309806D01*
X357477Y310368D01*
X356915Y310744D01*
X356252Y310876D01*
D02*
G37*
G36*
X314452Y309276D02*
X313788Y309144D01*
X313226Y308769D01*
X312850Y308206D01*
X312718Y307543D01*
X312850Y306879D01*
X313226Y306317D01*
X313788Y305942D01*
X314452Y305809D01*
X315115Y305942D01*
X315677Y306317D01*
X316053Y306879D01*
X316185Y307543D01*
X316053Y308206D01*
X315677Y308769D01*
X315115Y309144D01*
X314452Y309276D01*
D02*
G37*
G36*
X266752Y307678D02*
X266049Y307538D01*
X265454Y307141D01*
X265056Y306545D01*
X264916Y305843D01*
X265056Y305140D01*
X265454Y304545D01*
X266049Y304147D01*
X266752Y304008D01*
X267454Y304147D01*
X268049Y304545D01*
X268447Y305140D01*
X268587Y305843D01*
X268447Y306545D01*
X268049Y307141D01*
X267454Y307538D01*
X266752Y307678D01*
D02*
G37*
G36*
X248252Y305378D02*
X247549Y305238D01*
X246954Y304841D01*
X246556Y304245D01*
X246416Y303543D01*
X246556Y302840D01*
X246954Y302245D01*
X247549Y301847D01*
X248252Y301708D01*
X248954Y301847D01*
X249549Y302245D01*
X249947Y302840D01*
X250087Y303543D01*
X249947Y304245D01*
X249549Y304841D01*
X248954Y305238D01*
X248252Y305378D01*
D02*
G37*
G36*
X280152Y304378D02*
X279449Y304238D01*
X278854Y303841D01*
X278456Y303245D01*
X278316Y302543D01*
X278456Y301840D01*
X278657Y301539D01*
X278754Y301041D01*
X278383Y300486D01*
X278259Y300371D01*
X277887Y300217D01*
X277854Y300238D01*
X277151Y300378D01*
X276449Y300238D01*
X275854Y299841D01*
X275456Y299245D01*
X275316Y298543D01*
X275456Y297840D01*
X275854Y297245D01*
X276449Y296847D01*
X277151Y296708D01*
X277854Y296847D01*
X278449Y297245D01*
X278847Y297840D01*
X278854Y297878D01*
X279229Y298033D01*
X279396Y298038D01*
X280051Y297908D01*
X280754Y298047D01*
X281349Y298445D01*
X281747Y299041D01*
X281887Y299743D01*
X281747Y300445D01*
X281546Y300746D01*
X281449Y301245D01*
X281847Y301840D01*
X281987Y302543D01*
X281847Y303245D01*
X281449Y303841D01*
X280854Y304238D01*
X280152Y304378D01*
D02*
G37*
G36*
X267566Y303463D02*
X266864Y303323D01*
X266269Y302926D01*
X265871Y302330D01*
X265731Y301628D01*
X265871Y300926D01*
X266269Y300330D01*
X266864Y299932D01*
X267566Y299793D01*
X268269Y299932D01*
X268864Y300330D01*
X269262Y300926D01*
X269402Y301628D01*
X269262Y302330D01*
X268864Y302926D01*
X268269Y303323D01*
X267566Y303463D01*
D02*
G37*
G36*
X315670Y303114D02*
X314967Y302974D01*
X314372Y302576D01*
X313974Y301981D01*
X313834Y301279D01*
X313974Y300576D01*
X314372Y299981D01*
X314967Y299583D01*
X315670Y299443D01*
X316372Y299583D01*
X316967Y299981D01*
X317365Y300576D01*
X317505Y301279D01*
X317365Y301981D01*
X316967Y302576D01*
X316372Y302974D01*
X315670Y303114D01*
D02*
G37*
G36*
X327463Y302567D02*
X326760Y302427D01*
X326165Y302029D01*
X325767Y301434D01*
X325627Y300732D01*
X325767Y300029D01*
X326165Y299434D01*
X326760Y299036D01*
X327463Y298897D01*
X328165Y299036D01*
X328760Y299434D01*
X329158Y300029D01*
X329298Y300732D01*
X329158Y301434D01*
X328760Y302029D01*
X328165Y302427D01*
X327463Y302567D01*
D02*
G37*
G36*
X308051Y299778D02*
X307349Y299638D01*
X306754Y299241D01*
X306356Y298645D01*
X306216Y297943D01*
X306356Y297240D01*
X306754Y296645D01*
X306443Y296279D01*
X306354Y296338D01*
X305651Y296478D01*
X305427Y296943D01*
X305347Y297345D01*
X304949Y297941D01*
X304354Y298338D01*
X303651Y298478D01*
X302949Y298338D01*
X302354Y297941D01*
X301956Y297345D01*
X301816Y296643D01*
X301956Y295940D01*
X302354Y295345D01*
X302949Y294947D01*
X303651Y294808D01*
X303876Y294342D01*
X303956Y293940D01*
X304354Y293345D01*
X304949Y292947D01*
X305651Y292808D01*
X306354Y292947D01*
X306949Y293345D01*
X307347Y293940D01*
X307487Y294643D01*
X307347Y295345D01*
X306949Y295940D01*
X307260Y296307D01*
X307349Y296247D01*
X307828Y296152D01*
X308057Y296101D01*
X308391Y295665D01*
X308456Y295340D01*
X308854Y294745D01*
X309449Y294347D01*
X310152Y294208D01*
X310249Y293738D01*
X309654Y293341D01*
X309256Y292745D01*
X309116Y292043D01*
X309256Y291340D01*
X309654Y290745D01*
X310249Y290347D01*
X310951Y290208D01*
X311654Y290347D01*
X312249Y290745D01*
X312647Y291340D01*
X312787Y292043D01*
X312647Y292745D01*
X312249Y293341D01*
X311654Y293738D01*
X310951Y293878D01*
X310854Y294347D01*
X311449Y294745D01*
X311567Y294922D01*
X312169D01*
X312354Y294645D01*
X312949Y294247D01*
X313651Y294108D01*
X314354Y294247D01*
X314949Y294645D01*
X315347Y295240D01*
X315487Y295943D01*
X315347Y296645D01*
X314949Y297241D01*
X314354Y297638D01*
X313651Y297778D01*
X312949Y297638D01*
X312354Y297241D01*
X312236Y297064D01*
X311634D01*
X311449Y297341D01*
X310854Y297738D01*
X310375Y297834D01*
X310146Y297885D01*
X309812Y298320D01*
X309747Y298645D01*
X309349Y299241D01*
X308754Y299638D01*
X308051Y299778D01*
D02*
G37*
G36*
X254341Y302567D02*
X253638Y302427D01*
X253043Y302029D01*
X252645Y301434D01*
X252505Y300732D01*
X252645Y300029D01*
X253043Y299434D01*
X253638Y299036D01*
X253734Y299017D01*
X253799Y298747D01*
X253787Y298497D01*
X253254Y298141D01*
X252856Y297545D01*
X252716Y296843D01*
X252856Y296141D01*
X253254Y295545D01*
X253849Y295147D01*
X254552Y295008D01*
X255254Y295147D01*
X255849Y295545D01*
X256247Y296141D01*
X256387Y296843D01*
X256247Y297545D01*
X255849Y298141D01*
X255254Y298538D01*
X255158Y298557D01*
X255093Y298827D01*
X255105Y299078D01*
X255638Y299434D01*
X256036Y300029D01*
X256176Y300732D01*
X256036Y301434D01*
X255638Y302029D01*
X255043Y302427D01*
X254341Y302567D01*
D02*
G37*
G36*
X329852Y298378D02*
X329149Y298238D01*
X328554Y297841D01*
X328156Y297245D01*
X328016Y296543D01*
X328156Y295841D01*
X328554Y295245D01*
X329149Y294847D01*
X329852Y294708D01*
X330554Y294847D01*
X331149Y295245D01*
X331547Y295841D01*
X331687Y296543D01*
X331547Y297245D01*
X331149Y297841D01*
X330554Y298238D01*
X329852Y298378D01*
D02*
G37*
G36*
X338039Y292725D02*
X337337Y292585D01*
X336741Y292187D01*
X336343Y291592D01*
X336204Y290889D01*
X336343Y290187D01*
X336741Y289592D01*
X337337Y289194D01*
X338039Y289054D01*
X338741Y289194D01*
X339337Y289592D01*
X339735Y290187D01*
X339874Y290889D01*
X339735Y291592D01*
X339337Y292187D01*
X338741Y292585D01*
X338039Y292725D01*
D02*
G37*
G36*
X322352Y287378D02*
X321649Y287238D01*
X321054Y286841D01*
X320656Y286245D01*
X320606Y285996D01*
X320097D01*
X320047Y286245D01*
X319649Y286841D01*
X319054Y287238D01*
X318352Y287378D01*
X317649Y287238D01*
X317054Y286841D01*
X316656Y286245D01*
X316516Y285543D01*
X316656Y284840D01*
X317054Y284245D01*
X317649Y283847D01*
X318352Y283708D01*
X319054Y283847D01*
X319649Y284245D01*
X320047Y284840D01*
X320097Y285090D01*
X320606D01*
X320656Y284840D01*
X321054Y284245D01*
X321649Y283847D01*
X322352Y283708D01*
X323054Y283847D01*
X323649Y284245D01*
X324047Y284840D01*
X324187Y285543D01*
X324047Y286245D01*
X323649Y286841D01*
X323054Y287238D01*
X322352Y287378D01*
D02*
G37*
G36*
X248128Y284254D02*
X247425Y284114D01*
X246830Y283717D01*
X246432Y283121D01*
X246292Y282419D01*
X246432Y281716D01*
X246830Y281121D01*
X247425Y280723D01*
X248128Y280584D01*
X248830Y280723D01*
X249425Y281121D01*
X249823Y281716D01*
X249963Y282419D01*
X249823Y283121D01*
X249425Y283717D01*
X248830Y284114D01*
X248128Y284254D01*
D02*
G37*
G36*
X242251Y283978D02*
X241549Y283838D01*
X240954Y283441D01*
X240556Y282845D01*
X240416Y282143D01*
X240556Y281440D01*
X240954Y280845D01*
X241549Y280447D01*
X242251Y280308D01*
X242954Y280447D01*
X243549Y280845D01*
X243947Y281440D01*
X244087Y282143D01*
X243947Y282845D01*
X243549Y283441D01*
X242954Y283838D01*
X242251Y283978D01*
D02*
G37*
G36*
X262551Y283378D02*
X261849Y283238D01*
X261254Y282841D01*
X260856Y282245D01*
X260716Y281543D01*
X260856Y280840D01*
X261254Y280245D01*
X261849Y279847D01*
X262551Y279708D01*
X263254Y279847D01*
X263849Y280245D01*
X264247Y280840D01*
X264387Y281543D01*
X264247Y282245D01*
X263849Y282841D01*
X263254Y283238D01*
X262551Y283378D01*
D02*
G37*
G36*
X339951Y277778D02*
X339249Y277638D01*
X338813Y277347D01*
X338349Y277141D01*
X337754Y277538D01*
X337052Y277678D01*
X336349Y277538D01*
X335754Y277141D01*
X335356Y276545D01*
X335216Y275843D01*
X335356Y275141D01*
X335754Y274545D01*
X336349Y274147D01*
X337052Y274008D01*
X337754Y274147D01*
X338190Y274439D01*
X338654Y274645D01*
X339249Y274247D01*
X339951Y274108D01*
X340654Y274247D01*
X341249Y274645D01*
X341647Y275240D01*
X341787Y275943D01*
X341647Y276645D01*
X341249Y277241D01*
X340654Y277638D01*
X339951Y277778D01*
D02*
G37*
G36*
X298451Y279378D02*
X297749Y279238D01*
X297154Y278841D01*
X296756Y278245D01*
X296616Y277543D01*
X296756Y276840D01*
X297154Y276245D01*
X297749Y275847D01*
X298451Y275708D01*
X299154Y275847D01*
X299749Y276245D01*
X300147Y276840D01*
X300287Y277543D01*
X300147Y278245D01*
X299749Y278841D01*
X299154Y279238D01*
X298451Y279378D01*
D02*
G37*
G36*
X280210Y280520D02*
X279507Y280380D01*
X278912Y279982D01*
X278514Y279387D01*
X278375Y278685D01*
X278514Y277982D01*
X278732Y277656D01*
X278788Y277522D01*
X278829Y277419D01*
X278661Y277045D01*
X278654Y277041D01*
X278256Y276445D01*
X278116Y275743D01*
X278256Y275041D01*
X278654Y274445D01*
X279249Y274047D01*
X279728Y273952D01*
X280116Y273643D01*
X280256Y272940D01*
X280654Y272345D01*
X281249Y271947D01*
X281951Y271808D01*
X282654Y271947D01*
X283249Y272345D01*
X283647Y272940D01*
X283787Y273643D01*
X283647Y274345D01*
X283249Y274941D01*
X282654Y275338D01*
X282175Y275434D01*
X281787Y275743D01*
X281647Y276445D01*
X281249Y277041D01*
X281501Y277382D01*
X281507Y277387D01*
X281507Y277387D01*
X281905Y277982D01*
X282045Y278685D01*
X281905Y279387D01*
X281507Y279982D01*
X280912Y280380D01*
X280210Y280520D01*
D02*
G37*
G36*
X329651Y274778D02*
X328949Y274638D01*
X328354Y274241D01*
X327956Y273645D01*
X327816Y272943D01*
X327956Y272240D01*
X328354Y271645D01*
X328949Y271247D01*
X329651Y271108D01*
X330354Y271247D01*
X330949Y271645D01*
X331347Y272240D01*
X331487Y272943D01*
X331347Y273645D01*
X330949Y274241D01*
X330354Y274638D01*
X329651Y274778D01*
D02*
G37*
G36*
X363851Y270778D02*
X363149Y270638D01*
X362554Y270241D01*
X362156Y269645D01*
X362016Y268943D01*
X362156Y268240D01*
X362554Y267645D01*
X363149Y267247D01*
X363851Y267108D01*
X364554Y267247D01*
X365149Y267645D01*
X365547Y268240D01*
X365687Y268943D01*
X365547Y269645D01*
X365149Y270241D01*
X364554Y270638D01*
X363851Y270778D01*
D02*
G37*
G36*
X344732Y269890D02*
X344029Y269750D01*
X343434Y269352D01*
X343036Y268757D01*
X342897Y268055D01*
X343036Y267352D01*
X343434Y266757D01*
X344029Y266359D01*
X344732Y266219D01*
X345434Y266359D01*
X346029Y266757D01*
X346427Y267352D01*
X346567Y268055D01*
X346427Y268757D01*
X346029Y269352D01*
X345434Y269750D01*
X344732Y269890D01*
D02*
G37*
G36*
X336852Y271978D02*
X336149Y271838D01*
X335554Y271441D01*
X335156Y270845D01*
X335016Y270143D01*
X335099Y269726D01*
X335051Y269678D01*
X334349Y269538D01*
X333754Y269141D01*
X333356Y268545D01*
X333216Y267843D01*
X333356Y267141D01*
X333754Y266545D01*
X334349Y266147D01*
X335051Y266008D01*
X335754Y266147D01*
X336152Y266413D01*
X336368Y266535D01*
X336785Y266298D01*
X336954Y266045D01*
X337549Y265647D01*
X338251Y265508D01*
X338954Y265647D01*
X339549Y266045D01*
X339947Y266640D01*
X340087Y267343D01*
X339947Y268045D01*
X339549Y268641D01*
X338954Y269038D01*
X338848Y269059D01*
X338566Y269536D01*
X338687Y270143D01*
X338547Y270845D01*
X338149Y271441D01*
X337554Y271838D01*
X336852Y271978D01*
D02*
G37*
G36*
X272685Y273818D02*
X271601Y273675D01*
X270590Y273257D01*
X269723Y272591D01*
X269057Y271724D01*
X268639Y270713D01*
X268496Y269629D01*
X268639Y268545D01*
X269057Y267535D01*
X269723Y266668D01*
X270590Y266002D01*
X271601Y265584D01*
X272685Y265441D01*
X273769Y265584D01*
X274779Y266002D01*
X275646Y266668D01*
X276312Y267535D01*
X276730Y268545D01*
X276873Y269629D01*
X276730Y270713D01*
X276312Y271724D01*
X275646Y272591D01*
X274779Y273257D01*
X273769Y273675D01*
X272685Y273818D01*
D02*
G37*
G36*
X262685D02*
X261600Y273675D01*
X260590Y273257D01*
X259723Y272591D01*
X259057Y271724D01*
X258639Y270713D01*
X258496Y269629D01*
X258639Y268545D01*
X259057Y267535D01*
X259723Y266668D01*
X260590Y266002D01*
X261600Y265584D01*
X262685Y265441D01*
X263769Y265584D01*
X264779Y266002D01*
X265646Y266668D01*
X266312Y267535D01*
X266730Y268545D01*
X266873Y269629D01*
X266730Y270713D01*
X266312Y271724D01*
X265646Y272591D01*
X264779Y273257D01*
X263769Y273675D01*
X262685Y273818D01*
D02*
G37*
G36*
X249062Y277951D02*
X247670Y277813D01*
X246330Y277407D01*
X245096Y276747D01*
X244014Y275859D01*
X243126Y274777D01*
X242466Y273543D01*
X242060Y272203D01*
X241923Y270811D01*
X242060Y269418D01*
X242466Y268078D01*
X243126Y266844D01*
X244014Y265762D01*
X245096Y264874D01*
X246330Y264214D01*
X247670Y263808D01*
X249062Y263671D01*
X250455Y263808D01*
X251795Y264214D01*
X253029Y264874D01*
X254111Y265762D01*
X254999Y266844D01*
X255659Y268078D01*
X256065Y269418D01*
X256202Y270811D01*
X256065Y272203D01*
X255659Y273543D01*
X254999Y274777D01*
X254111Y275859D01*
X253029Y276747D01*
X251795Y277407D01*
X250455Y277813D01*
X249062Y277951D01*
D02*
G37*
G36*
X286752Y267778D02*
X286049Y267638D01*
X285454Y267241D01*
X285056Y266645D01*
X284916Y265943D01*
X285056Y265241D01*
X285178Y265057D01*
X285154Y264440D01*
X284756Y263845D01*
X284616Y263143D01*
X284756Y262440D01*
X285154Y261845D01*
X285749Y261447D01*
X286452Y261308D01*
X287154Y261447D01*
X287749Y261845D01*
X288147Y262440D01*
X288287Y263143D01*
X288147Y263845D01*
X288025Y264029D01*
X288049Y264645D01*
X288447Y265241D01*
X288587Y265943D01*
X288447Y266645D01*
X288049Y267241D01*
X287454Y267638D01*
X286752Y267778D01*
D02*
G37*
G36*
X281252Y264878D02*
X280549Y264738D01*
X279954Y264341D01*
X279556Y263745D01*
X279416Y263043D01*
X279556Y262340D01*
X279657Y262190D01*
X279449Y261638D01*
X278854Y261241D01*
X278456Y260645D01*
X278416Y260446D01*
X277907D01*
X277847Y260745D01*
X277449Y261341D01*
X276854Y261738D01*
X276151Y261878D01*
X275449Y261738D01*
X274854Y261341D01*
X274456Y260745D01*
X274316Y260043D01*
X274456Y259341D01*
X274854Y258745D01*
X275449Y258347D01*
X276151Y258208D01*
X276854Y258347D01*
X277449Y258745D01*
X277847Y259341D01*
X277887Y259540D01*
X278397D01*
X278456Y259241D01*
X278854Y258645D01*
X279449Y258247D01*
X280152Y258108D01*
X280854Y258247D01*
X281449Y258645D01*
X281847Y259241D01*
X281987Y259943D01*
X281847Y260645D01*
X281746Y260796D01*
X281954Y261347D01*
X282549Y261745D01*
X282947Y262340D01*
X283087Y263043D01*
X282947Y263745D01*
X282549Y264341D01*
X281954Y264738D01*
X281252Y264878D01*
D02*
G37*
G36*
X271652Y263978D02*
X270949Y263838D01*
X270354Y263441D01*
X269956Y262845D01*
X269816Y262143D01*
X269956Y261440D01*
X270354Y260845D01*
X270949Y260447D01*
X271652Y260308D01*
X272354Y260447D01*
X272949Y260845D01*
X273347Y261440D01*
X273487Y262143D01*
X273347Y262845D01*
X272949Y263441D01*
X272354Y263838D01*
X271652Y263978D01*
D02*
G37*
G36*
X242763Y262803D02*
X242061Y262664D01*
X241466Y262266D01*
X241068Y261670D01*
X240928Y260968D01*
X241068Y260266D01*
X241466Y259670D01*
X242061Y259273D01*
X242763Y259133D01*
X243466Y259273D01*
X244061Y259670D01*
X244459Y260266D01*
X244599Y260968D01*
X244459Y261670D01*
X244061Y262266D01*
X243466Y262664D01*
X242763Y262803D01*
D02*
G37*
G36*
X258511Y262410D02*
X257809Y262270D01*
X257214Y261872D01*
X256816Y261277D01*
X256676Y260574D01*
X256816Y259872D01*
X257214Y259277D01*
X257809Y258879D01*
X258511Y258739D01*
X259214Y258879D01*
X259809Y259277D01*
X260207Y259872D01*
X260347Y260574D01*
X260207Y261277D01*
X259809Y261872D01*
X259214Y262270D01*
X258511Y262410D01*
D02*
G37*
G36*
X310244Y260286D02*
X309541Y260146D01*
X308946Y259748D01*
X308548Y259153D01*
X308408Y258451D01*
X308548Y257748D01*
X308946Y257153D01*
X309541Y256755D01*
X310244Y256615D01*
X310946Y256755D01*
X311541Y257153D01*
X311939Y257748D01*
X312079Y258451D01*
X311939Y259153D01*
X311541Y259748D01*
X310946Y260146D01*
X310244Y260286D01*
D02*
G37*
G36*
X295851Y259578D02*
X295149Y259438D01*
X294554Y259041D01*
X294156Y258445D01*
X294016Y257743D01*
X294156Y257041D01*
X294554Y256445D01*
X295149Y256047D01*
X295851Y255908D01*
X296554Y256047D01*
X297149Y256445D01*
X297547Y257041D01*
X297687Y257743D01*
X297547Y258445D01*
X297149Y259041D01*
X296554Y259438D01*
X295851Y259578D01*
D02*
G37*
G36*
X360283Y258669D02*
X359581Y258530D01*
X358985Y258132D01*
X358587Y257537D01*
X358448Y256834D01*
X358587Y256132D01*
X358985Y255537D01*
X359581Y255139D01*
X360283Y254999D01*
X360985Y255139D01*
X361581Y255537D01*
X361979Y256132D01*
X362118Y256834D01*
X361979Y257537D01*
X361581Y258132D01*
X360985Y258530D01*
X360283Y258669D01*
D02*
G37*
G36*
X344732Y260835D02*
X344029Y260695D01*
X343434Y260297D01*
X343036Y259702D01*
X342897Y258999D01*
X343036Y258297D01*
X343434Y257702D01*
X343554Y257622D01*
Y257452D01*
X343498Y257057D01*
X343156Y256545D01*
X343016Y255843D01*
X343156Y255140D01*
X343554Y254545D01*
X344149Y254147D01*
X344851Y254008D01*
X345554Y254147D01*
X346149Y254545D01*
X346547Y255140D01*
X346687Y255843D01*
X346547Y256545D01*
X346149Y257141D01*
X346029Y257221D01*
Y257391D01*
X346085Y257785D01*
X346427Y258297D01*
X346567Y258999D01*
X346427Y259702D01*
X346029Y260297D01*
X345434Y260695D01*
X344732Y260835D01*
D02*
G37*
G36*
X328151Y260578D02*
X327449Y260438D01*
X326854Y260041D01*
X326456Y259445D01*
X326316Y258743D01*
X326456Y258040D01*
X326717Y257650D01*
X326813Y257293D01*
X326717Y256935D01*
X326456Y256545D01*
X326316Y255843D01*
X326456Y255140D01*
X326854Y254545D01*
X327449Y254147D01*
X328151Y254008D01*
X328854Y254147D01*
X329449Y254545D01*
X329847Y255140D01*
X329987Y255843D01*
X329847Y256545D01*
X329586Y256935D01*
X329490Y257293D01*
X329586Y257650D01*
X329847Y258040D01*
X329987Y258743D01*
X329847Y259445D01*
X329449Y260041D01*
X328854Y260438D01*
X328151Y260578D01*
D02*
G37*
G36*
X362052Y251678D02*
X361349Y251538D01*
X360754Y251141D01*
X360356Y250545D01*
X360216Y249843D01*
X360356Y249141D01*
X360754Y248545D01*
X361349Y248147D01*
X362052Y248008D01*
X362754Y248147D01*
X363349Y248545D01*
X363747Y249141D01*
X363887Y249843D01*
X363747Y250545D01*
X363349Y251141D01*
X362754Y251538D01*
X362052Y251678D01*
D02*
G37*
G36*
X325751Y251378D02*
X325049Y251238D01*
X324454Y250841D01*
X324056Y250245D01*
X323916Y249543D01*
X324056Y248840D01*
X324454Y248245D01*
X325049Y247847D01*
X325751Y247708D01*
X326454Y247847D01*
X327049Y248245D01*
X327447Y248840D01*
X327587Y249543D01*
X327447Y250245D01*
X327049Y250841D01*
X326454Y251238D01*
X325751Y251378D01*
D02*
G37*
G36*
X317566Y249363D02*
X316864Y249223D01*
X316269Y248826D01*
X315871Y248230D01*
X315731Y247528D01*
X315871Y246826D01*
X316269Y246230D01*
X316864Y245832D01*
X317566Y245693D01*
X318269Y245832D01*
X318864Y246230D01*
X319262Y246826D01*
X319402Y247528D01*
X319262Y248230D01*
X318864Y248826D01*
X318269Y249223D01*
X317566Y249363D01*
D02*
G37*
%LPD*%
D32*
X159748Y349191D02*
X158748Y350191D01*
X156749D01*
X155749Y349191D01*
Y348191D01*
X156749Y347192D01*
X158748D01*
X159748Y346192D01*
Y345193D01*
X158748Y344193D01*
X156749D01*
X155749Y345193D01*
X161747Y344193D02*
X163747D01*
X162747D01*
Y348191D01*
X161747D01*
X168745Y342194D02*
X169745D01*
X170744Y343193D01*
Y348191D01*
X167745D01*
X166746Y347192D01*
Y345193D01*
X167745Y344193D01*
X170744D01*
X176742D02*
X172744D01*
X176742Y348191D01*
Y349191D01*
X175743Y350191D01*
X173743D01*
X172744Y349191D01*
X180741Y344193D02*
X178742Y346192D01*
Y348191D01*
X180741Y350191D01*
X183740D02*
Y344193D01*
X187739D01*
X189738Y349191D02*
X190738Y350191D01*
X192737D01*
X193737Y349191D01*
Y348191D01*
X192737Y347192D01*
X191738D01*
X192737D01*
X193737Y346192D01*
Y345193D01*
X192737Y344193D01*
X190738D01*
X189738Y345193D01*
X196736Y343193D02*
X197736Y344193D01*
Y345193D01*
X196736D01*
Y344193D01*
X197736D01*
X196736Y343193D01*
X195736Y342194D01*
X201734Y344193D02*
Y350191D01*
X204733D01*
X205733Y349191D01*
Y347192D01*
X204733Y346192D01*
X201734D01*
X208732Y344193D02*
X210731D01*
X211731Y345193D01*
Y347192D01*
X210731Y348191D01*
X208732D01*
X207732Y347192D01*
Y345193D01*
X208732Y344193D01*
X213731D02*
X216729D01*
X217729Y345193D01*
X216729Y346192D01*
X214730D01*
X213731Y347192D01*
X214730Y348191D01*
X217729D01*
X219728Y344193D02*
X221728Y346192D01*
Y348191D01*
X219728Y350191D01*
X172744Y297358D02*
X170744D01*
X169745Y296358D01*
Y292360D01*
X170744Y291360D01*
X172744D01*
X173743Y292360D01*
Y296358D01*
X172744Y297358D01*
X175743Y295359D02*
Y292360D01*
X176742Y291360D01*
X179742D01*
Y295359D01*
X182740Y296358D02*
Y295359D01*
X181741D01*
X183740D01*
X182740D01*
Y292360D01*
X183740Y291360D01*
X186739D02*
X188739D01*
X187739D01*
Y297358D01*
X186739D01*
X191738Y291360D02*
X193737D01*
X192737D01*
Y295359D01*
X191738D01*
X196736Y291360D02*
Y295359D01*
X199735D01*
X200735Y294359D01*
Y291360D01*
X205733D02*
X203734D01*
X202734Y292360D01*
Y294359D01*
X203734Y295359D01*
X205733D01*
X206733Y294359D01*
Y293359D01*
X202734D01*
X161747Y272943D02*
Y278941D01*
X163747Y276942D01*
X165746Y278941D01*
Y272943D01*
X167745Y276942D02*
Y273942D01*
X168745Y272943D01*
X171744D01*
Y276942D01*
X173743Y272943D02*
X175743D01*
X174743D01*
Y278941D01*
X173743D01*
X179742Y277941D02*
Y276942D01*
X178742D01*
X180741D01*
X179742D01*
Y273942D01*
X180741Y272943D01*
X183740D02*
X185740D01*
X184740D01*
Y276942D01*
X183740D01*
X188739Y272943D02*
X190738D01*
X189738D01*
Y278941D01*
X188739D01*
X194737Y276942D02*
X196736D01*
X197736Y275942D01*
Y272943D01*
X194737D01*
X193737Y273942D01*
X194737Y274942D01*
X197736D01*
X199735Y276942D02*
Y273942D01*
X200735Y272943D01*
X203734D01*
Y271943D01*
X202734Y270943D01*
X201734D01*
X203734Y272943D02*
Y276942D01*
X208732Y272943D02*
X206733D01*
X205733Y273942D01*
Y275942D01*
X206733Y276942D01*
X208732D01*
X209732Y275942D01*
Y274942D01*
X205733D01*
X211731Y276942D02*
Y272943D01*
Y274942D01*
X212731Y275942D01*
X213731Y276942D01*
X214730D01*
X556453Y348398D02*
Y346398D01*
X557453Y345399D01*
X561451D01*
X562451Y346398D01*
Y348398D01*
X561451Y349397D01*
X557453D01*
X556453Y348398D01*
X558452Y351397D02*
X561451D01*
X562451Y352396D01*
Y355396D01*
X558452D01*
X557453Y358395D02*
X558452D01*
Y357395D01*
Y359394D01*
Y358395D01*
X561451D01*
X562451Y359394D01*
Y362393D02*
Y364393D01*
Y363393D01*
X556453D01*
Y362393D01*
X562451Y367392D02*
Y369391D01*
Y368391D01*
X558452D01*
Y367392D01*
X562451Y372390D02*
X558452D01*
Y375389D01*
X559452Y376389D01*
X562451D01*
Y381387D02*
Y379388D01*
X561451Y378388D01*
X559452D01*
X558452Y379388D01*
Y381387D01*
X559452Y382387D01*
X560452D01*
Y378388D01*
X582951Y345399D02*
X576953D01*
X578952Y347398D01*
X576953Y349397D01*
X582951D01*
X578952Y351397D02*
X581952D01*
X582951Y352396D01*
Y355396D01*
X578952D01*
X582951Y357395D02*
Y359394D01*
Y358395D01*
X576953D01*
Y357395D01*
X577953Y363393D02*
X578952D01*
Y362393D01*
Y364393D01*
Y363393D01*
X581952D01*
X582951Y364393D01*
Y367392D02*
Y369391D01*
Y368391D01*
X578952D01*
Y367392D01*
X576953Y372390D02*
X582951D01*
Y376389D01*
X578952Y379388D02*
Y381387D01*
X579952Y382387D01*
X582951D01*
Y379388D01*
X581952Y378388D01*
X580952Y379388D01*
Y382387D01*
X578952Y384386D02*
X581952D01*
X582951Y385386D01*
Y388385D01*
X583951D01*
X584950Y387385D01*
Y386385D01*
X582951Y388385D02*
X578952D01*
X582951Y393383D02*
Y391384D01*
X581952Y390384D01*
X579952D01*
X578952Y391384D01*
Y393383D01*
X579952Y394383D01*
X580952D01*
Y390384D01*
X578952Y396382D02*
X582951D01*
X580952D01*
X579952Y397382D01*
X578952Y398382D01*
Y399381D01*
D34*
X271199Y197100D02*
G03*
X265331Y202024I-5000J0D01*
G01*
X211131Y192424D02*
G03*
X207351Y185660I868J-4923D01*
G01*
X207365Y185649D02*
G03*
X221998Y154053I285528J113050D01*
G01*
X222012Y154064D02*
G03*
X248120Y137445I27788J14837D01*
G01*
X248123Y137498D02*
G03*
X374671Y137370I64179J895306D01*
G01*
X494138Y129335D02*
G03*
X375560Y137364I-89279J-438871D01*
G01*
X578946Y112082D02*
G03*
X661773Y154430I17054J68818D01*
G01*
X662305Y155917D02*
G03*
X662238Y441653I-358406J142783D01*
G01*
X661737Y443060D02*
G03*
X581986Y486002I-65737J-26559D01*
G01*
X429099Y308500D02*
G03*
X429836Y305888I4999J1D01*
G01*
X415703Y285110D02*
G03*
X429866Y305911I2396J13590D01*
G01*
X415668Y285124D02*
G03*
X409799Y280200I-869J-4924D01*
G01*
X404799Y240200D02*
G03*
X409799Y245200I0J5000D01*
G01*
X392799Y240200D02*
G03*
X387799Y235200I0J-5000D01*
G01*
X382799Y158500D02*
G03*
X387799Y163500I0J5000D01*
G01*
X271199D02*
G03*
X276199Y158500I5000J0D01*
G01*
X417516Y459294D02*
G03*
X494633Y468209I-12450J445697D01*
G01*
X417516Y459294D02*
G03*
X411452Y442036I300J-9800D01*
G01*
X429216Y424594D02*
G03*
X427437Y428419I-5000J1D01*
G01*
X494146Y129372D02*
X578955Y112119D01*
X494543Y468209D02*
X581999Y486000D01*
X271199Y163500D02*
Y197100D01*
X211099Y192400D02*
X265399Y202000D01*
X409799Y245200D02*
Y280200D01*
X392799Y240200D02*
X404799D01*
X387799Y163500D02*
Y235200D01*
X276199Y158500D02*
X382799D01*
X411416Y441994D02*
X427416Y428394D01*
X429117Y309399D02*
X429216Y424624D01*
X374671Y137370D02*
X375554D01*
X661773Y154430D02*
X662305Y155917D01*
X661737Y443060D02*
X662238Y441653D01*
X494543Y468209D02*
X494633D01*
X429099Y308500D02*
Y309381D01*
X429117Y309399D01*
D39*
X362720Y325974D02*
D03*
X293851Y310943D02*
D03*
X362752Y299743D02*
D03*
X362651Y352743D02*
D03*
X314599Y154500D02*
D03*
X413712Y225438D02*
D03*
X423851Y255399D02*
D03*
X437851Y235399D02*
D03*
X413851Y189899D02*
D03*
X648851Y415399D02*
D03*
X669099Y238700D02*
D03*
X638799Y442900D02*
D03*
X234399Y174500D02*
D03*
X239099Y163300D02*
D03*
X287999Y154500D02*
D03*
X651351Y206899D02*
D03*
X673901Y340349D02*
D03*
X436451Y210399D02*
D03*
X413751Y202699D02*
D03*
D56*
X176000Y87000D02*
Y515000D01*
X709000D01*
Y87000D02*
Y515000D01*
X176000Y87000D02*
X709000D01*
D59*
X237351Y243251D02*
X367273D01*
Y412543D01*
X237351D02*
X367273D01*
X237351Y243251D02*
Y412543D01*
D60*
X219299Y184500D02*
D03*
X579499Y298700D02*
D03*
X669999Y220000D02*
D03*
X396399Y229800D02*
D03*
D61*
X465537Y440548D02*
D03*
X507905D02*
D03*
X560674Y461007D02*
D03*
X602424Y461019D02*
D03*
D65*
X482674Y288820D02*
D03*
D66*
X637687Y342843D02*
D03*
D68*
X651487Y346793D02*
D03*
D69*
X629351Y143399D02*
D03*
X476099Y446300D02*
D03*
X507799Y448400D02*
D03*
X399099Y188700D02*
D03*
Y208700D02*
D03*
X219099Y168700D02*
D03*
X593351Y293399D02*
D03*
Y303399D02*
D03*
X659099Y258700D02*
D03*
X569099Y118700D02*
D03*
X589099D02*
D03*
X482351Y303399D02*
D03*
X569099Y468700D02*
D03*
X619099Y458700D02*
D03*
X659099Y388700D02*
D03*
X660910Y298700D02*
D03*
X679099Y278700D02*
D03*
Y308700D02*
D03*
Y368700D02*
D03*
X659099D02*
D03*
X447351Y306399D02*
D03*
X455199Y292600D02*
D03*
X629099Y328700D02*
D03*
D70*
X436351Y170360D02*
D03*
X462851Y152899D02*
D03*
X495351D02*
D03*
X515351Y160899D02*
D03*
D71*
X254633Y397614D02*
D03*
X259633D02*
D03*
X264633D02*
D03*
X269633D02*
D03*
D75*
X287752Y306643D02*
D03*
X315352Y320143D02*
D03*
X356051Y366443D02*
D03*
X348275Y269236D02*
D03*
X333314Y257031D02*
D03*
X287752Y257643D02*
D03*
X259752Y342543D02*
D03*
X270551Y293643D02*
D03*
X264352Y286743D02*
D03*
X242271Y311723D02*
D03*
X250014Y360181D02*
D03*
X315992Y336165D02*
D03*
X277409Y351495D02*
D03*
X287251D02*
D03*
X302999D02*
D03*
X327151Y290943D02*
D03*
X322751Y280343D02*
D03*
X348111Y258803D02*
D03*
X289452Y276743D02*
D03*
X315951Y263343D02*
D03*
X321652Y290743D02*
D03*
X303393Y372385D02*
D03*
X347881Y401519D02*
D03*
X283708Y324354D02*
D03*
M02*
