G04 Layer_Color=8388736*
%FSLAX25Y25*%
%MOIN*%
G70*
G01*
G75*
%ADD32C,0.01000*%
%ADD34C,0.00600*%
%ADD56C,0.00800*%
%ADD59C,0.00500*%
D32*
X556453Y348398D02*
Y346398D01*
X557453Y345399D01*
X561451D01*
X562451Y346398D01*
Y348398D01*
X561451Y349397D01*
X557453D01*
X556453Y348398D01*
X558452Y351397D02*
X561451D01*
X562451Y352396D01*
Y355396D01*
X558452D01*
X557453Y358395D02*
X558452D01*
Y357395D01*
Y359394D01*
Y358395D01*
X561451D01*
X562451Y359394D01*
Y362393D02*
Y364393D01*
Y363393D01*
X556453D01*
Y362393D01*
X562451Y367392D02*
Y369391D01*
Y368391D01*
X558452D01*
Y367392D01*
X562451Y372390D02*
X558452D01*
Y375389D01*
X559452Y376389D01*
X562451D01*
Y381387D02*
Y379388D01*
X561451Y378388D01*
X559452D01*
X558452Y379388D01*
Y381387D01*
X559452Y382387D01*
X560452D01*
Y378388D01*
X172744Y297358D02*
X170744D01*
X169745Y296358D01*
Y292360D01*
X170744Y291360D01*
X172744D01*
X173743Y292360D01*
Y296358D01*
X172744Y297358D01*
X175743Y295359D02*
Y292360D01*
X176742Y291360D01*
X179742D01*
Y295359D01*
X182740Y296358D02*
Y295359D01*
X181741D01*
X183740D01*
X182740D01*
Y292360D01*
X183740Y291360D01*
X186739D02*
X188739D01*
X187739D01*
Y297358D01*
X186739D01*
X191738Y291360D02*
X193737D01*
X192737D01*
Y295359D01*
X191738D01*
X196736Y291360D02*
Y295359D01*
X199735D01*
X200735Y294359D01*
Y291360D01*
X205733D02*
X203734D01*
X202734Y292360D01*
Y294359D01*
X203734Y295359D01*
X205733D01*
X206733Y294359D01*
Y293359D01*
X202734D01*
X556453Y348398D02*
Y346398D01*
X557453Y345399D01*
X561451D01*
X562451Y346398D01*
Y348398D01*
X561451Y349397D01*
X557453D01*
X556453Y348398D01*
X558452Y351397D02*
X561451D01*
X562451Y352396D01*
Y355396D01*
X558452D01*
X557453Y358395D02*
X558452D01*
Y357395D01*
Y359394D01*
Y358395D01*
X561451D01*
X562451Y359394D01*
Y362393D02*
Y364393D01*
Y363393D01*
X556453D01*
Y362393D01*
X562451Y367392D02*
Y369391D01*
Y368391D01*
X558452D01*
Y367392D01*
X562451Y372390D02*
X558452D01*
Y375389D01*
X559452Y376389D01*
X562451D01*
Y381387D02*
Y379388D01*
X561451Y378388D01*
X559452D01*
X558452Y379388D01*
Y381387D01*
X559452Y382387D01*
X560452D01*
Y378388D01*
X172744Y297358D02*
X170744D01*
X169745Y296358D01*
Y292360D01*
X170744Y291360D01*
X172744D01*
X173743Y292360D01*
Y296358D01*
X172744Y297358D01*
X175743Y295359D02*
Y292360D01*
X176742Y291360D01*
X179742D01*
Y295359D01*
X182740Y296358D02*
Y295359D01*
X181741D01*
X183740D01*
X182740D01*
Y292360D01*
X183740Y291360D01*
X186739D02*
X188739D01*
X187739D01*
Y297358D01*
X186739D01*
X191738Y291360D02*
X193737D01*
X192737D01*
Y295359D01*
X191738D01*
X196736Y291360D02*
Y295359D01*
X199735D01*
X200735Y294359D01*
Y291360D01*
X205733D02*
X203734D01*
X202734Y292360D01*
Y294359D01*
X203734Y295359D01*
X205733D01*
X206733Y294359D01*
Y293359D01*
X202734D01*
D34*
X271199Y197100D02*
G03*
X265331Y202024I-5000J0D01*
G01*
X211131Y192424D02*
G03*
X207351Y185660I868J-4923D01*
G01*
X207365Y185649D02*
G03*
X221998Y154053I285528J113050D01*
G01*
X222012Y154064D02*
G03*
X248120Y137445I27788J14837D01*
G01*
X248123Y137498D02*
G03*
X374671Y137370I64179J895306D01*
G01*
X494138Y129335D02*
G03*
X375560Y137364I-89279J-438871D01*
G01*
X578946Y112082D02*
G03*
X661773Y154430I17054J68818D01*
G01*
X662305Y155917D02*
G03*
X662238Y441653I-358406J142783D01*
G01*
X661737Y443060D02*
G03*
X581986Y486002I-65737J-26559D01*
G01*
X429099Y308500D02*
G03*
X429836Y305888I4999J1D01*
G01*
X415703Y285110D02*
G03*
X429866Y305911I2396J13590D01*
G01*
X415668Y285124D02*
G03*
X409799Y280200I-869J-4924D01*
G01*
X404799Y240200D02*
G03*
X409799Y245200I0J5000D01*
G01*
X392799Y240200D02*
G03*
X387799Y235200I0J-5000D01*
G01*
X382799Y158500D02*
G03*
X387799Y163500I0J5000D01*
G01*
X271199D02*
G03*
X276199Y158500I5000J0D01*
G01*
X417516Y459294D02*
G03*
X494633Y468209I-12450J445697D01*
G01*
X417516Y459294D02*
G03*
X411452Y442036I300J-9800D01*
G01*
X429216Y424594D02*
G03*
X427437Y428419I-5000J1D01*
G01*
X494146Y129372D02*
X578955Y112119D01*
X494543Y468209D02*
X581999Y486000D01*
X271199Y163500D02*
Y197100D01*
X211099Y192400D02*
X265399Y202000D01*
X409799Y245200D02*
Y280200D01*
X392799Y240200D02*
X404799D01*
X387799Y163500D02*
Y235200D01*
X276199Y158500D02*
X382799D01*
X411416Y441994D02*
X427416Y428394D01*
X429117Y309399D02*
X429216Y424624D01*
X374671Y137370D02*
X375554D01*
X661773Y154430D02*
X662305Y155917D01*
X661737Y443060D02*
X662238Y441653D01*
X494543Y468209D02*
X494633D01*
X429099Y308500D02*
Y309381D01*
X429117Y309399D01*
X271199Y197100D02*
G03*
X265331Y202024I-5000J0D01*
G01*
X211131Y192424D02*
G03*
X207351Y185660I868J-4923D01*
G01*
X207365Y185649D02*
G03*
X221998Y154053I285528J113050D01*
G01*
X222012Y154064D02*
G03*
X248120Y137445I27788J14837D01*
G01*
X248123Y137498D02*
G03*
X374671Y137370I64179J895306D01*
G01*
X494138Y129335D02*
G03*
X375560Y137364I-89279J-438871D01*
G01*
X578946Y112082D02*
G03*
X661773Y154430I17054J68818D01*
G01*
X662305Y155917D02*
G03*
X662238Y441653I-358406J142783D01*
G01*
X661737Y443060D02*
G03*
X581986Y486002I-65737J-26559D01*
G01*
X429099Y308500D02*
G03*
X429836Y305888I4999J1D01*
G01*
X415703Y285110D02*
G03*
X429866Y305911I2396J13590D01*
G01*
X415668Y285124D02*
G03*
X409799Y280200I-869J-4924D01*
G01*
X404799Y240200D02*
G03*
X409799Y245200I0J5000D01*
G01*
X392799Y240200D02*
G03*
X387799Y235200I0J-5000D01*
G01*
X382799Y158500D02*
G03*
X387799Y163500I0J5000D01*
G01*
X271199D02*
G03*
X276199Y158500I5000J0D01*
G01*
X417516Y459294D02*
G03*
X494633Y468209I-12450J445697D01*
G01*
X417516Y459294D02*
G03*
X411452Y442036I300J-9800D01*
G01*
X429216Y424594D02*
G03*
X427437Y428419I-5000J1D01*
G01*
X494146Y129372D02*
X578955Y112119D01*
X494543Y468209D02*
X581999Y486000D01*
X271199Y163500D02*
Y197100D01*
X211099Y192400D02*
X265399Y202000D01*
X409799Y245200D02*
Y280200D01*
X392799Y240200D02*
X404799D01*
X387799Y163500D02*
Y235200D01*
X276199Y158500D02*
X382799D01*
X411416Y441994D02*
X427416Y428394D01*
X429117Y309399D02*
X429216Y424624D01*
X374671Y137370D02*
X375554D01*
X661773Y154430D02*
X662305Y155917D01*
X661737Y443060D02*
X662238Y441653D01*
X494543Y468209D02*
X494633D01*
X429099Y308500D02*
Y309381D01*
X429117Y309399D01*
D56*
X176000Y87000D02*
Y515000D01*
X709000D01*
Y87000D02*
Y515000D01*
X176000Y87000D02*
X709000D01*
X176000D02*
Y515000D01*
X709000D01*
Y87000D02*
Y515000D01*
X176000Y87000D02*
X709000D01*
D59*
X237351Y243251D02*
X367273D01*
Y412543D01*
X237351D02*
X367273D01*
X237351Y243251D02*
Y412543D01*
Y243251D02*
X367273D01*
Y412543D01*
X237351D02*
X367273D01*
X237351Y243251D02*
Y412543D01*
M02*
