G04 Layer_Physical_Order=4*
G04 Layer_Color=16711680*
%FSLAX25Y25*%
%MOIN*%
G70*
G01*
G75*
%ADD10R,0.03543X0.02559*%
%ADD11R,0.02559X0.03543*%
%ADD12R,0.02559X0.02165*%
%ADD14R,0.02165X0.02559*%
%ADD32C,0.01000*%
%ADD33C,0.01600*%
%ADD34C,0.00600*%
%ADD35C,0.01500*%
%ADD37C,0.01200*%
%ADD39C,0.02000*%
%ADD54C,0.00984*%
%ADD55C,0.00787*%
%ADD56C,0.00800*%
%ADD59C,0.00500*%
%ADD60C,0.12800*%
%ADD61C,0.06299*%
%ADD62C,0.05315*%
%ADD63C,0.11811*%
%ADD64C,0.12598*%
%ADD65R,0.04725X0.04725*%
%ADD66C,0.15000*%
%ADD67C,0.20700*%
%ADD68C,0.17700*%
%ADD69C,0.02400*%
%ADD70C,0.02500*%
%ADD71C,0.04400*%
%ADD72C,0.05500*%
%ADD73C,0.05906*%
%ADD74C,0.10500*%
%ADD75C,0.02200*%
%ADD76R,0.03000X0.07000*%
%ADD77O,0.07087X0.01181*%
%ADD78O,0.01181X0.07087*%
%ADD79O,0.01181X0.08268*%
%ADD80O,0.08268X0.01181*%
%ADD81R,0.06102X0.07480*%
%ADD82R,0.09055X0.07480*%
%ADD83R,0.01575X0.05512*%
G36*
X600993Y486317D02*
X605961Y485783D01*
X610878Y484895D01*
X615719Y483660D01*
X620460Y482082D01*
X625076Y480170D01*
X629544Y477933D01*
X633842Y475384D01*
X637946Y472534D01*
X641836Y469399D01*
X645493Y465994D01*
X648898Y462337D01*
X652033Y458447D01*
X654883Y454342D01*
X657433Y450045D01*
X659669Y445577D01*
X660859Y442705D01*
X660859Y442705D01*
X660859Y442705D01*
X660895Y442688D01*
X661219Y441778D01*
X661373Y441346D01*
X661386Y441314D01*
X661386Y441314D01*
X661768Y440391D01*
X666042Y429080D01*
X669959Y417640D01*
X673514Y406083D01*
X676705Y394421D01*
X679528Y382663D01*
X681980Y370823D01*
X684059Y358912D01*
X685762Y346941D01*
X687089Y334922D01*
X688038Y322868D01*
X688607Y310790D01*
X688797Y298700D01*
X688607Y286610D01*
X688038Y274532D01*
X687089Y262478D01*
X685762Y250460D01*
X684059Y238489D01*
X681980Y226578D01*
X679528Y214738D01*
X676705Y202980D01*
X673514Y191317D01*
X669959Y179761D01*
X666042Y168321D01*
X661768Y157010D01*
X661456Y156255D01*
X661455Y156256D01*
X661441Y156226D01*
X661285Y155791D01*
X660931Y154799D01*
X660895Y154783D01*
X660895D01*
X660895Y154783D01*
X659669Y151823D01*
X657433Y147355D01*
X654883Y143058D01*
X652033Y138954D01*
X648898Y135063D01*
X645493Y131406D01*
X641836Y128002D01*
X637946Y124866D01*
X633842Y122017D01*
X629544Y119467D01*
X625076Y117231D01*
X620460Y115319D01*
X615719Y113741D01*
X610878Y112505D01*
X605961Y111618D01*
X600993Y111084D01*
X596000Y110905D01*
X591006Y111084D01*
X586038Y111618D01*
X581121Y112505D01*
X579181Y113000D01*
X579138Y113018D01*
X494329Y130271D01*
X494193Y130271D01*
X482794Y132453D01*
X469906Y134532D01*
X456963Y136236D01*
X443975Y137563D01*
X430955Y138512D01*
X417913Y139081D01*
X411136Y139180D01*
X410854Y139657D01*
X410981Y139926D01*
X411466Y140074D01*
X411500Y140051D01*
X411851Y139981D01*
X421251D01*
X421602Y140051D01*
X421664Y140092D01*
X422054Y139832D01*
X422951Y139654D01*
X423849Y139832D01*
X424609Y140340D01*
X425118Y141101D01*
X425134Y141181D01*
X427571D01*
X429401Y139351D01*
X429699Y139152D01*
X430050Y139082D01*
X510370D01*
X523702Y125750D01*
X524000Y125551D01*
X524351Y125481D01*
X611198D01*
X611693Y124741D01*
X612010Y124528D01*
Y124028D01*
X611837Y123913D01*
X611373Y123218D01*
X611210Y122399D01*
X611373Y121579D01*
X611837Y120885D01*
X612532Y120421D01*
X613351Y120258D01*
X614171Y120421D01*
X614865Y120885D01*
X615264Y121481D01*
X618351D01*
X618702Y121551D01*
X619000Y121750D01*
X658000Y160750D01*
X658199Y161048D01*
X658269Y161399D01*
Y207399D01*
X658199Y207750D01*
X658000Y208048D01*
X645000Y221048D01*
X644702Y221247D01*
X644351Y221316D01*
X633264D01*
X632865Y221913D01*
X632170Y222377D01*
X631351Y222540D01*
X630532Y222377D01*
X629837Y221913D01*
X629373Y221218D01*
X629210Y220399D01*
X629373Y219579D01*
X629837Y218885D01*
X630351Y218541D01*
X630199Y218041D01*
X617596D01*
X616917Y218721D01*
Y249841D01*
X616847Y250192D01*
X616648Y250490D01*
X606934Y260203D01*
X607033Y319018D01*
X624242Y342761D01*
X624287Y342859D01*
X624347Y342949D01*
X624361Y343020D01*
X624392Y343087D01*
X624396Y343194D01*
X624417Y343300D01*
Y346100D01*
X624347Y346451D01*
X624148Y346749D01*
X622537Y348359D01*
X622601Y349003D01*
X622957Y349241D01*
X623466Y350002D01*
X623644Y350900D01*
X623466Y351797D01*
X622957Y352558D01*
X622197Y353066D01*
X621471Y353211D01*
X621165Y353689D01*
X621439Y354182D01*
X629146D01*
X629641Y353442D01*
X630402Y352933D01*
X631299Y352755D01*
X632197Y352933D01*
X632957Y353442D01*
X633466Y354202D01*
X633644Y355100D01*
X633466Y355997D01*
X632957Y356758D01*
X632197Y357266D01*
X631299Y357445D01*
X630402Y357266D01*
X629641Y356758D01*
X629146Y356017D01*
X620899D01*
X620774Y355993D01*
X620647Y355982D01*
X620600Y355958D01*
X620548Y355947D01*
X620442Y355877D01*
X620329Y355818D01*
X620294Y355778D01*
X620250Y355749D01*
X620180Y355643D01*
X620097Y355545D01*
X602973Y324728D01*
X602533Y324966D01*
X621316Y360491D01*
X621499Y360455D01*
X622397Y360633D01*
X623157Y361141D01*
X623666Y361902D01*
X623844Y362800D01*
X623666Y363697D01*
X623157Y364458D01*
X622397Y364966D01*
X621499Y365145D01*
X620602Y364966D01*
X619841Y364458D01*
X619333Y363697D01*
X619154Y362800D01*
X619333Y361902D01*
X619698Y361356D01*
X601119Y326218D01*
X600634Y326338D01*
Y340144D01*
X605892Y345402D01*
X606225Y345734D01*
X606293Y345770D01*
X606610Y346030D01*
X607192Y346508D01*
X607929Y347406D01*
X608476Y348431D01*
X608814Y349543D01*
X608880Y350215D01*
X608928Y350699D01*
X608928Y350700D01*
X608928D01*
X608917Y350711D01*
Y384300D01*
X608915Y384308D01*
X609053Y385357D01*
X609461Y386342D01*
X610111Y387188D01*
X610957Y387837D01*
X611942Y388246D01*
X612991Y388384D01*
X612999Y388382D01*
X626203D01*
X626699Y388371D01*
X626700Y388371D01*
X627179Y388418D01*
X627856Y388485D01*
X628968Y388823D01*
X629994Y389370D01*
X630892Y390108D01*
X631629Y391006D01*
X632177Y392031D01*
X632478Y393021D01*
X632585Y393182D01*
X632628Y393400D01*
X632635Y393398D01*
X633051Y396555D01*
X633249Y401100D01*
X633051Y405645D01*
X632457Y410156D01*
X631472Y414597D01*
X630104Y418936D01*
X628363Y423139D01*
X626262Y427175D01*
X623818Y431012D01*
X621048Y434621D01*
X617975Y437975D01*
X614621Y441049D01*
X611011Y443818D01*
X607174Y446263D01*
X603139Y448364D01*
X598936Y450105D01*
X594597Y451473D01*
X590155Y452457D01*
X585645Y453051D01*
X581100Y453250D01*
X576555Y453051D01*
X575379Y452896D01*
X574877Y452879D01*
X574877Y452879D01*
X574404Y452816D01*
X574399Y452817D01*
X527599D01*
Y452828D01*
X526442Y452714D01*
X525330Y452377D01*
X524305Y451829D01*
X523407Y451092D01*
X522670Y450193D01*
X522122Y449168D01*
X521784Y448056D01*
X521671Y446900D01*
X521681D01*
Y434800D01*
X521683Y434792D01*
X521545Y433743D01*
X521137Y432757D01*
X520488Y431911D01*
X519642Y431262D01*
X518656Y430854D01*
X517607Y430716D01*
X517599Y430717D01*
X445899D01*
Y430728D01*
X444742Y430614D01*
X443630Y430277D01*
X442605Y429729D01*
X441707Y428992D01*
X440970Y428093D01*
X440422Y427069D01*
X440085Y425956D01*
X439971Y424800D01*
X439982D01*
Y321400D01*
X439971D01*
X440085Y320243D01*
X440422Y319131D01*
X440970Y318106D01*
X441707Y317208D01*
X442605Y316470D01*
X443630Y315922D01*
X444742Y315585D01*
X445899Y315471D01*
Y315482D01*
X506882D01*
Y281917D01*
X445899D01*
Y281928D01*
X444742Y281814D01*
X443630Y281477D01*
X442605Y280929D01*
X441707Y280192D01*
X440970Y279293D01*
X440422Y278269D01*
X440085Y277156D01*
X439971Y276000D01*
X439982D01*
Y220011D01*
X439481Y219766D01*
X439269Y219931D01*
Y228899D01*
X439199Y229250D01*
X439000Y229548D01*
X435769Y232779D01*
Y287848D01*
X435717Y288109D01*
Y448224D01*
X441384Y453982D01*
X498899D01*
X499250Y454052D01*
X499548Y454251D01*
X506879Y461582D01*
X528199D01*
X528550Y461652D01*
X528848Y461851D01*
X538579Y471582D01*
X557599D01*
X557950Y471652D01*
X558248Y471851D01*
X560179Y473782D01*
X615519D01*
X660781Y428520D01*
Y419453D01*
X660279Y419117D01*
X659779Y419384D01*
Y427899D01*
X659779Y427899D01*
X659670Y428445D01*
X659361Y428908D01*
X638260Y450009D01*
X637796Y450318D01*
X637390Y450399D01*
X637313Y450514D01*
X636619Y450978D01*
X635799Y451141D01*
X634980Y450978D01*
X634285Y450514D01*
X633821Y449819D01*
X633658Y449000D01*
X633821Y448180D01*
X634285Y447486D01*
X634980Y447022D01*
X635799Y446859D01*
X636619Y447022D01*
X636973Y447258D01*
X656924Y427307D01*
Y412471D01*
X656837Y412413D01*
X656373Y411718D01*
X656210Y410899D01*
X656373Y410079D01*
X656837Y409385D01*
X657532Y408921D01*
X658351Y408758D01*
X658453Y408778D01*
X669924Y397307D01*
Y364399D01*
X669924Y364399D01*
X670032Y363853D01*
X670342Y363389D01*
X678230Y355501D01*
X678210Y355399D01*
X678373Y354579D01*
X678837Y353885D01*
X679532Y353421D01*
X680351Y353258D01*
X681171Y353421D01*
X681865Y353885D01*
X682329Y354579D01*
X682492Y355399D01*
X682329Y356218D01*
X681865Y356913D01*
X681171Y357377D01*
X680351Y357540D01*
X680249Y357520D01*
X672779Y364990D01*
Y397899D01*
X672779Y397899D01*
X672670Y398445D01*
X672361Y398908D01*
X672361Y398908D01*
X660472Y410797D01*
X660492Y410899D01*
X660329Y411718D01*
X659865Y412413D01*
X659779Y412471D01*
Y415215D01*
X660279Y415483D01*
X660802Y415133D01*
X661699Y414955D01*
X661871Y414783D01*
X661854Y414700D01*
X662033Y413802D01*
X662541Y413041D01*
X663302Y412533D01*
X664199Y412355D01*
X665097Y412533D01*
X665857Y413041D01*
X666366Y413802D01*
X666544Y414700D01*
X666366Y415597D01*
X665857Y416358D01*
X665117Y416853D01*
Y429600D01*
X665047Y429951D01*
X664848Y430249D01*
X617848Y477249D01*
X617550Y477448D01*
X617199Y477517D01*
X559799D01*
X559448Y477448D01*
X559150Y477249D01*
X556519Y474617D01*
X537399D01*
X537048Y474547D01*
X536750Y474349D01*
X527019Y464617D01*
X505899D01*
X505548Y464547D01*
X505250Y464349D01*
X497920Y457018D01*
X440201Y457117D01*
X440193Y457116D01*
X440185Y457117D01*
X440018Y457081D01*
X439849Y457048D01*
X439843Y457044D01*
X439835Y457042D01*
X439694Y456945D01*
X439551Y456850D01*
X439547Y456843D01*
X439541Y456839D01*
X432941Y450039D01*
X432847Y449894D01*
X432751Y449751D01*
X432750Y449744D01*
X432746Y449738D01*
X432715Y449569D01*
X432682Y449400D01*
Y303074D01*
X432182Y303015D01*
X432124Y303257D01*
X431238Y305395D01*
X430633Y306381D01*
X430634Y306381D01*
X430527Y306542D01*
X430153Y307443D01*
X430015Y308492D01*
X430017Y308500D01*
Y309310D01*
X430034Y309398D01*
X430134Y424594D01*
X430145D01*
X430145Y424594D01*
X430097Y425078D01*
X430031Y425751D01*
X429693Y426863D01*
X429145Y427888D01*
X428408Y428787D01*
X428398Y428795D01*
X428020Y429111D01*
D01*
X427632Y429414D01*
X412379Y442379D01*
X412068Y442757D01*
Y442757D01*
X411525Y443203D01*
X410419Y444551D01*
X409596Y446089D01*
X409090Y447758D01*
X408919Y449494D01*
X409090Y451230D01*
X409596Y452899D01*
X410419Y454437D01*
X411525Y455785D01*
X412873Y456892D01*
X414411Y457714D01*
X416081Y458220D01*
X417532Y458363D01*
X417542Y458354D01*
Y458354D01*
X417542Y458354D01*
X418061Y458362D01*
X431046Y458928D01*
X444008Y459873D01*
X456938Y461194D01*
X469824Y462890D01*
X482655Y464961D01*
X494822Y467289D01*
Y467289D01*
X495304Y467427D01*
X582156Y485095D01*
X582171Y485085D01*
X582171Y485085D01*
X582171Y485085D01*
X586038Y485783D01*
X591006Y486317D01*
X596000Y486495D01*
X600993Y486317D01*
D02*
G37*
G36*
X327954Y357545D02*
X328549Y357147D01*
X329252Y357008D01*
X329732Y357103D01*
X330232Y356778D01*
Y353865D01*
X330030Y353664D01*
X329809Y353333D01*
X329732Y352943D01*
Y351158D01*
X329270Y350966D01*
X327537Y352700D01*
X327585Y352943D01*
X327453Y353606D01*
X327077Y354169D01*
X326515Y354544D01*
X325851Y354676D01*
X325188Y354544D01*
X324626Y354169D01*
X324250Y353606D01*
X324118Y352943D01*
X324250Y352279D01*
X324626Y351717D01*
X325188Y351342D01*
X325851Y351209D01*
X326095Y351258D01*
X328215Y349138D01*
X328184Y348929D01*
X327639Y348552D01*
X327540Y348572D01*
X326955Y348456D01*
X326883Y348408D01*
X327894Y347396D01*
X327540Y347043D01*
X327894Y346689D01*
X326743Y345539D01*
X326682Y345215D01*
X325954Y344729D01*
X325468Y344001D01*
X325297Y343143D01*
X325423Y342512D01*
X324645Y341734D01*
X324564Y341789D01*
X323866Y341928D01*
X317960D01*
X317262Y341789D01*
X316669Y341393D01*
X316330Y340885D01*
X315937Y340928D01*
X315830Y340968D01*
Y341779D01*
X316102Y341961D01*
X316497Y342553D01*
X316636Y343251D01*
Y349157D01*
X316497Y349856D01*
X316102Y350448D01*
X315509Y350844D01*
X314811Y350983D01*
X314112Y350844D01*
X313826Y350653D01*
X313541Y350844D01*
X312842Y350983D01*
X312143Y350844D01*
X311858Y350653D01*
X311572Y350844D01*
X310874Y350983D01*
X310175Y350844D01*
X309889Y350653D01*
X309604Y350844D01*
X308905Y350983D01*
X308206Y350844D01*
X307921Y350653D01*
X307635Y350844D01*
X306937Y350983D01*
X306238Y350844D01*
X305646Y350448D01*
X305446Y350149D01*
X305394Y350184D01*
X304968Y350269D01*
X304943Y350264D01*
X304643Y350714D01*
X304695Y350793D01*
X304835Y351495D01*
X304695Y352197D01*
X304297Y352793D01*
X303702Y353190D01*
X302999Y353330D01*
X302297Y353190D01*
X301702Y352793D01*
X301304Y352197D01*
X301164Y351495D01*
X301227Y351179D01*
X301031Y350983D01*
X300332Y350844D01*
X300047Y350653D01*
X299761Y350844D01*
X299062Y350983D01*
X298364Y350844D01*
X298078Y350653D01*
X297793Y350844D01*
X297094Y350983D01*
X296395Y350844D01*
X296110Y350653D01*
X295824Y350844D01*
X295126Y350983D01*
X294427Y350844D01*
X294141Y350653D01*
X293856Y350844D01*
X293157Y350983D01*
X292458Y350844D01*
X292173Y350653D01*
X291887Y350844D01*
X291189Y350983D01*
X290490Y350844D01*
X290204Y350653D01*
X289919Y350844D01*
X289220Y350983D01*
X289024Y351179D01*
X289087Y351495D01*
X288947Y352197D01*
X288549Y352793D01*
X287954Y353190D01*
X287599Y353261D01*
X287434Y353803D01*
X289454Y355823D01*
X318988D01*
X319126Y355617D01*
X319688Y355241D01*
X320352Y355110D01*
X321015Y355241D01*
X321577Y355617D01*
X321953Y356179D01*
X322085Y356843D01*
X321989Y357323D01*
X322297Y357823D01*
X327768D01*
X327954Y357545D01*
D02*
G37*
G36*
X366204Y268259D02*
X362459D01*
X363885Y266833D01*
X363177Y266126D01*
X361752Y267552D01*
Y266195D01*
X361251Y266146D01*
X361225Y266280D01*
X361004Y266610D01*
X360329Y267285D01*
X360295Y267720D01*
X360342Y267915D01*
X365327Y272900D01*
X365327Y272900D01*
X365569Y273262D01*
X365654Y273689D01*
X365654Y273689D01*
Y283218D01*
X365569Y283644D01*
X365327Y284006D01*
X365327Y284006D01*
X360967Y288367D01*
Y292205D01*
X360967Y292205D01*
X360882Y292632D01*
X360640Y292993D01*
X352067Y301567D01*
Y308781D01*
X352913Y309628D01*
X354190D01*
X354544Y309273D01*
X354518Y309143D01*
X354650Y308479D01*
X355026Y307917D01*
X355588Y307541D01*
X356252Y307410D01*
X356400Y307287D01*
Y306590D01*
X356828D01*
X357200Y306281D01*
X357200Y306090D01*
Y303429D01*
X358429Y304658D01*
X359137Y303951D01*
X357907Y302722D01*
X360366Y302722D01*
X360437Y302251D01*
Y302022D01*
X361505D01*
Y300937D01*
X361150Y300406D01*
X361018Y299743D01*
X361150Y299079D01*
X361526Y298517D01*
X362088Y298142D01*
X362752Y298009D01*
X363415Y298142D01*
X363977Y298517D01*
X364353Y299079D01*
X364485Y299743D01*
X364353Y300406D01*
X363977Y300969D01*
X363935Y300996D01*
Y302022D01*
X365003D01*
Y306981D01*
X364903D01*
Y311549D01*
X365003Y311563D01*
Y316463D01*
Y320915D01*
Y325577D01*
X365003Y325874D01*
X365003D01*
Y326077D01*
X365003D01*
Y331036D01*
X363935D01*
Y331563D01*
X365003D01*
Y336522D01*
X365003D01*
X365003Y336563D01*
X365003D01*
Y341522D01*
X365003D01*
X365003Y341563D01*
X365003D01*
Y346522D01*
X365003D01*
Y346698D01*
X365003D01*
Y351657D01*
X364497D01*
X364268Y352157D01*
X364385Y352743D01*
X364253Y353406D01*
X363877Y353969D01*
X363315Y354344D01*
X362651Y354476D01*
X361988Y354344D01*
X361426Y353969D01*
X361050Y353406D01*
X360918Y352743D01*
X361035Y352157D01*
X360806Y351657D01*
X360437D01*
Y351428D01*
X360366Y350957D01*
X359937Y350957D01*
X357907D01*
X359137Y349728D01*
X358586Y349178D01*
X359137Y348627D01*
X357907Y347398D01*
X360366Y347398D01*
X360437Y346928D01*
Y346698D01*
X360010Y346522D01*
X356500D01*
Y345898D01*
X356351Y345776D01*
X355688Y345644D01*
X355126Y345269D01*
X354750Y344706D01*
X354618Y344043D01*
X354694Y343661D01*
X354334Y343245D01*
X352764D01*
X352338Y343161D01*
X351976Y342919D01*
X351976Y342919D01*
X349763Y340706D01*
X349521Y340344D01*
X349436Y339917D01*
X349436Y339917D01*
Y319167D01*
X348665Y318395D01*
X348203Y318586D01*
Y321622D01*
X348103Y321630D01*
Y326589D01*
X348103D01*
Y326597D01*
X348103D01*
Y331556D01*
X348103D01*
Y331563D01*
X348103D01*
Y336522D01*
X339600D01*
Y335981D01*
X339214Y335664D01*
X339152Y335676D01*
X338488Y335544D01*
X338412Y335493D01*
X337971Y335729D01*
Y360759D01*
X337894Y361150D01*
X337672Y361480D01*
X327889Y371264D01*
X327558Y371485D01*
X327168Y371562D01*
X326653D01*
X326587Y371643D01*
X326447Y372345D01*
X326049Y372941D01*
X325454Y373338D01*
X324751Y373478D01*
X324049Y373338D01*
X323454Y372941D01*
X323056Y372345D01*
X322916Y371643D01*
X323056Y370940D01*
X323148Y370803D01*
X322912Y370362D01*
X321274D01*
X319005Y372631D01*
X319087Y373043D01*
X318947Y373745D01*
X318549Y374341D01*
X317954Y374738D01*
X317251Y374878D01*
X316549Y374738D01*
X315954Y374341D01*
X315556Y373745D01*
X315416Y373043D01*
X315556Y372340D01*
X315954Y371745D01*
X316549Y371347D01*
X317251Y371208D01*
X317496Y371256D01*
X319128Y369624D01*
X318937Y369162D01*
X314674D01*
X306255Y377581D01*
X306447Y378043D01*
X325449D01*
Y376168D01*
X325449Y376168D01*
X325534Y375741D01*
X325776Y375380D01*
X327901Y373254D01*
X327901Y373254D01*
X328263Y373013D01*
X328689Y372928D01*
X328690Y372928D01*
X330827D01*
X339736Y364019D01*
Y357575D01*
X339582Y357544D01*
X339020Y357169D01*
X338644Y356606D01*
X338512Y355943D01*
X338644Y355279D01*
X339020Y354717D01*
X339582Y354342D01*
X340245Y354209D01*
X340909Y354342D01*
X341471Y354717D01*
X341620D01*
X342182Y354342D01*
X342845Y354209D01*
X343509Y354342D01*
X344071Y354717D01*
X344447Y355279D01*
X344579Y355943D01*
X344447Y356606D01*
X344071Y357169D01*
X343509Y357544D01*
X343354Y357575D01*
Y365055D01*
X343269Y365482D01*
X343027Y365844D01*
X332653Y376219D01*
X332291Y376461D01*
X331864Y376545D01*
X331864Y376545D01*
X329726D01*
X329067Y377205D01*
Y378043D01*
X338251D01*
Y390043D01*
X306033D01*
X305787Y390343D01*
X305647Y391045D01*
X305249Y391641D01*
X304654Y392038D01*
X303952Y392178D01*
X303623Y392113D01*
X302755Y392981D01*
X302947Y393443D01*
X338601D01*
Y398943D01*
X336102Y401443D01*
X318867D01*
Y402681D01*
X320013Y403828D01*
X337090D01*
X345517Y395400D01*
Y348438D01*
X345063Y347983D01*
X344821Y347622D01*
X344736Y347195D01*
X344736Y347195D01*
Y346781D01*
X344629Y346709D01*
X344231Y346114D01*
X344091Y345411D01*
X344231Y344709D01*
X344629Y344114D01*
X345224Y343716D01*
X345926Y343576D01*
X346629Y343716D01*
X347224Y344114D01*
X347429D01*
X348024Y343716D01*
X348726Y343576D01*
X349429Y343716D01*
X350024Y344114D01*
X350422Y344709D01*
X350562Y345411D01*
X350422Y346114D01*
X350024Y346709D01*
X349841Y346831D01*
Y347320D01*
X349841Y347320D01*
X349757Y347747D01*
X349515Y348109D01*
X349135Y348488D01*
Y396436D01*
X349135Y396436D01*
X349050Y396863D01*
X348809Y397225D01*
X338915Y407119D01*
X338553Y407361D01*
X338126Y407445D01*
X338126Y407445D01*
X318977D01*
X318550Y407361D01*
X318188Y407119D01*
X318188Y407119D01*
X315576Y404506D01*
X315334Y404144D01*
X315249Y403718D01*
X315249Y403718D01*
Y401443D01*
X313601D01*
X312601Y402443D01*
X245101D01*
Y393443D01*
X294810D01*
X297582Y390671D01*
X297516Y390343D01*
X297270Y390043D01*
X245251D01*
Y378043D01*
X248614D01*
Y373644D01*
X248336Y373459D01*
X247938Y372863D01*
X247798Y372161D01*
X247938Y371459D01*
X248336Y370863D01*
X248931Y370465D01*
X249633Y370326D01*
X250336Y370465D01*
X250931Y370863D01*
X251329Y371459D01*
X251469Y372161D01*
X251329Y372863D01*
X250931Y373459D01*
X250653Y373644D01*
Y378043D01*
X257556D01*
X257748Y377581D01*
X257230Y377064D01*
X257010Y376733D01*
X256932Y376343D01*
Y373726D01*
X256654Y373541D01*
X256256Y372945D01*
X256116Y372243D01*
X256256Y371540D01*
X256654Y370945D01*
X257249Y370547D01*
X257951Y370408D01*
X258654Y370547D01*
X259249Y370945D01*
X259647Y371540D01*
X259787Y372243D01*
X259647Y372945D01*
X259249Y373541D01*
X258971Y373726D01*
Y375921D01*
X260354Y377304D01*
X260575Y377635D01*
X260653Y378025D01*
Y378043D01*
X263614D01*
Y374148D01*
X263154Y373841D01*
X262756Y373245D01*
X262616Y372543D01*
X262756Y371841D01*
X263154Y371245D01*
X263749Y370847D01*
X264452Y370708D01*
X265154Y370847D01*
X265749Y371245D01*
X266147Y371841D01*
X266287Y372543D01*
X266147Y373245D01*
X265749Y373841D01*
X265653Y373905D01*
Y378043D01*
X268614D01*
Y377447D01*
X268231Y377064D01*
X268009Y376733D01*
X267932Y376343D01*
Y374126D01*
X267654Y373941D01*
X267256Y373345D01*
X267116Y372643D01*
X267256Y371940D01*
X267654Y371345D01*
X268249Y370947D01*
X268952Y370808D01*
X269654Y370947D01*
X270249Y371345D01*
X270647Y371940D01*
X270787Y372643D01*
X270647Y373345D01*
X270249Y373941D01*
X269971Y374126D01*
Y375921D01*
X270354Y376304D01*
X270575Y376635D01*
X270653Y377025D01*
Y378043D01*
X273614D01*
Y375961D01*
X273691Y375571D01*
X273912Y375240D01*
X275981Y373171D01*
X275916Y372843D01*
X276056Y372141D01*
X276454Y371545D01*
X277049Y371147D01*
X277751Y371008D01*
X278454Y371147D01*
X279049Y371545D01*
X279447Y372141D01*
X279587Y372843D01*
X279447Y373545D01*
X279049Y374141D01*
X278454Y374538D01*
X277751Y374678D01*
X277423Y374613D01*
X275653Y376383D01*
Y378043D01*
X278617D01*
X278691Y377671D01*
X278791Y377521D01*
X278716Y377143D01*
X278856Y376441D01*
X279254Y375845D01*
X279849Y375447D01*
X280552Y375308D01*
X281254Y375447D01*
X281849Y375845D01*
X282247Y376441D01*
X282347Y376941D01*
X282856D01*
X282956Y376441D01*
X283354Y375845D01*
X283949Y375447D01*
X284651Y375308D01*
X285354Y375447D01*
X285949Y375845D01*
X286347Y376441D01*
X286487Y377143D01*
X286407Y377543D01*
X286771Y378043D01*
X287754D01*
X288021Y377543D01*
X287956Y377445D01*
X287816Y376743D01*
X287956Y376041D01*
X288354Y375445D01*
X288949Y375047D01*
X289651Y374908D01*
X290354Y375047D01*
X290949Y375445D01*
X291347Y376041D01*
X291487Y376743D01*
X291347Y377445D01*
X291282Y377543D01*
X291549Y378043D01*
X299910D01*
X303250Y374702D01*
X303141Y374262D01*
X303069Y374176D01*
X298158D01*
Y368233D01*
X303117D01*
Y370245D01*
X303149Y370267D01*
X303442Y370560D01*
X304095Y370690D01*
X304691Y371088D01*
X305089Y371683D01*
X305167Y372078D01*
X305710Y372243D01*
X311731Y366222D01*
X312061Y366001D01*
X312452Y365923D01*
X323506D01*
X323644Y365639D01*
X323696Y365423D01*
X323350Y364906D01*
X323218Y364243D01*
X323350Y363580D01*
X323726Y363017D01*
X324288Y362642D01*
X324952Y362509D01*
X325615Y362642D01*
X326177Y363017D01*
X326438Y363043D01*
X328484Y360997D01*
X328361Y360413D01*
X327954Y360141D01*
X327768Y359862D01*
X288638D01*
X288248Y359785D01*
X287917Y359564D01*
X280625Y352272D01*
X280404Y351941D01*
X280326Y351551D01*
Y351232D01*
X279826Y350893D01*
X279378Y350983D01*
X279181Y351179D01*
X279244Y351495D01*
X279104Y352197D01*
X278707Y352793D01*
X278111Y353190D01*
X277409Y353330D01*
X276707Y353190D01*
X276111Y352793D01*
X275713Y352197D01*
X275574Y351495D01*
X275637Y351179D01*
X275441Y350983D01*
X274742Y350844D01*
X274456Y350653D01*
X274171Y350844D01*
X273472Y350983D01*
X273023Y350893D01*
X272523Y351232D01*
Y352291D01*
X272445Y352681D01*
X272224Y353012D01*
X270173Y355064D01*
X269842Y355285D01*
X269451Y355362D01*
X269435D01*
X269249Y355641D01*
X268654Y356038D01*
X267951Y356178D01*
X267249Y356038D01*
X266654Y355641D01*
X266256Y355045D01*
X266116Y354343D01*
X266256Y353641D01*
X266654Y353045D01*
Y352840D01*
X266256Y352245D01*
X266116Y351543D01*
X266256Y350840D01*
X266331Y350728D01*
X266276Y350448D01*
X265880Y349856D01*
X265741Y349157D01*
Y347923D01*
X265241Y347874D01*
X265147Y348345D01*
X264749Y348941D01*
X264154Y349338D01*
X263452Y349478D01*
X262749Y349338D01*
X262154Y348941D01*
X261756Y348345D01*
X261616Y347643D01*
X261756Y346940D01*
X262025Y346538D01*
X261943Y346313D01*
X261745Y346062D01*
X258595D01*
X258328Y346562D01*
X258447Y346741D01*
X258587Y347443D01*
X258447Y348145D01*
X258049Y348741D01*
X257771Y348926D01*
Y366059D01*
X258049Y366245D01*
X258447Y366841D01*
X258587Y367543D01*
X258447Y368245D01*
X258049Y368841D01*
X257454Y369238D01*
X256751Y369378D01*
X256049Y369238D01*
X255454Y368841D01*
X255056Y368245D01*
X254916Y367543D01*
X255056Y366841D01*
X255454Y366245D01*
X255732Y366059D01*
Y348926D01*
X255454Y348741D01*
X255312Y348528D01*
X254697Y348508D01*
X254636Y348588D01*
X253811Y349221D01*
X252850Y349620D01*
X251818Y349755D01*
X250787Y349620D01*
X249826Y349221D01*
X249001Y348588D01*
X248368Y347763D01*
X247970Y346802D01*
X247834Y345771D01*
X247970Y344740D01*
X248368Y343779D01*
X249001Y342954D01*
X249826Y342321D01*
X250692Y341962D01*
X250592Y341462D01*
X247569D01*
X245262Y343770D01*
X245269Y343779D01*
X245667Y344740D01*
X245802Y345771D01*
X245667Y346802D01*
X245269Y347763D01*
X244636Y348588D01*
X243811Y349221D01*
X242850Y349620D01*
X241818Y349755D01*
X240787Y349620D01*
X239826Y349221D01*
X239001Y348588D01*
X238720Y348222D01*
X238220Y348392D01*
Y411574D01*
X366204D01*
Y268259D01*
D02*
G37*
G36*
X304542Y342224D02*
X304968Y342140D01*
X305394Y342224D01*
X305446Y342259D01*
X305646Y341961D01*
X305917Y341779D01*
Y337375D01*
X304939Y336397D01*
X300666D01*
X300082Y336981D01*
Y338225D01*
X300360Y338410D01*
X300758Y339006D01*
X300898Y339708D01*
X300758Y340410D01*
X300360Y341006D01*
X300267Y341068D01*
X300462Y341539D01*
X301031Y341426D01*
X301730Y341565D01*
X302015Y341756D01*
X302301Y341565D01*
X302999Y341426D01*
X303698Y341565D01*
X304291Y341961D01*
X304490Y342259D01*
X304542Y342224D01*
D02*
G37*
G36*
X284858D02*
X285283Y342140D01*
X285708Y342224D01*
X285761Y342259D01*
X285961Y341961D01*
X286553Y341565D01*
X286696Y341536D01*
X286861Y340994D01*
X285413Y339547D01*
X280467D01*
X280281Y339825D01*
X279686Y340223D01*
X278984Y340362D01*
X278281Y340223D01*
X277686Y339825D01*
X277288Y339229D01*
X277149Y338527D01*
X277288Y337825D01*
X277666Y337259D01*
X277631Y337099D01*
X277490Y336759D01*
X275177D01*
X270900Y341036D01*
X271146Y341497D01*
X271503Y341426D01*
X272202Y341565D01*
X272488Y341756D01*
X272773Y341565D01*
X273472Y341426D01*
X274171Y341565D01*
X274456Y341756D01*
X274742Y341565D01*
X275441Y341426D01*
X276139Y341565D01*
X276425Y341756D01*
X276710Y341565D01*
X277409Y341426D01*
X278108Y341565D01*
X278393Y341756D01*
X278679Y341565D01*
X279378Y341426D01*
X280076Y341565D01*
X280362Y341756D01*
X280647Y341565D01*
X281346Y341426D01*
X282045Y341565D01*
X282330Y341756D01*
X282616Y341565D01*
X283314Y341426D01*
X284013Y341565D01*
X284605Y341961D01*
X284805Y342259D01*
X284858Y342224D01*
D02*
G37*
G36*
X316257Y339486D02*
X316273Y339403D01*
X316669Y338811D01*
X316968Y338611D01*
X316933Y338559D01*
X316880Y338294D01*
X316802Y338113D01*
X316380Y337923D01*
X315992Y338000D01*
X315289Y337860D01*
X314694Y337463D01*
X314296Y336867D01*
X314156Y336165D01*
X314296Y335463D01*
X314694Y334867D01*
X315289Y334469D01*
X315664Y334395D01*
X316135Y334196D01*
X316273Y333498D01*
X316464Y333212D01*
X316273Y332927D01*
X316135Y332228D01*
X316273Y331529D01*
X316464Y331244D01*
X316273Y330958D01*
X316135Y330259D01*
X316273Y329561D01*
X316464Y329275D01*
X316273Y328990D01*
X316135Y328291D01*
X316224Y327842D01*
X315885Y327342D01*
X313234D01*
X312844Y327264D01*
X312513Y327043D01*
X308530Y323061D01*
X308310Y322730D01*
X308232Y322340D01*
Y303258D01*
X307770Y303066D01*
X302971Y307865D01*
Y326621D01*
X315531Y339181D01*
X315744Y339500D01*
X315801Y339509D01*
X316257Y339486D01*
D02*
G37*
G36*
X258242Y343523D02*
X258056Y343245D01*
X257916Y342543D01*
X257961Y342320D01*
X257813Y341789D01*
X257621Y341660D01*
X257220Y341393D01*
X256825Y340800D01*
X256686Y340102D01*
X256825Y339403D01*
X257220Y338811D01*
X257519Y338611D01*
X257484Y338559D01*
X257399Y338133D01*
X257447Y337897D01*
X256995Y337656D01*
X256863Y337773D01*
X254872Y339764D01*
X254542Y339985D01*
X254394Y340014D01*
X253244Y341164D01*
X252913Y341385D01*
X252786Y341410D01*
X252802Y341917D01*
X252850Y341923D01*
X253811Y342321D01*
X254636Y342954D01*
X255269Y343779D01*
X255370Y344023D01*
X257975D01*
X258242Y343523D01*
D02*
G37*
G36*
X294849Y341028D02*
X294832Y340943D01*
Y331943D01*
X294910Y331553D01*
X295130Y331222D01*
X296932Y329420D01*
Y322428D01*
X296469Y322261D01*
X296432Y322268D01*
X296049Y322841D01*
X295454Y323238D01*
X294752Y323378D01*
X294049Y323238D01*
X293454Y322841D01*
X293268Y322562D01*
X285167D01*
X285006Y323056D01*
X285404Y323652D01*
X285543Y324354D01*
X285404Y325056D01*
X285006Y325652D01*
X284411Y326049D01*
X283708Y326189D01*
X283006Y326049D01*
X282411Y325652D01*
X282013Y325056D01*
X281873Y324354D01*
X282013Y323652D01*
X282411Y323056D01*
X282249Y322562D01*
X281474D01*
X276993Y327043D01*
X276662Y327264D01*
X276272Y327342D01*
X266492D01*
X266153Y327842D01*
X266243Y328291D01*
X266104Y328990D01*
X265913Y329275D01*
X266104Y329561D01*
X266243Y330259D01*
X266104Y330958D01*
X265913Y331244D01*
X266104Y331529D01*
X266243Y332228D01*
X266104Y332927D01*
X265913Y333212D01*
X266104Y333498D01*
X266243Y334196D01*
X266104Y334895D01*
X265913Y335181D01*
X266003Y335316D01*
X266195Y335444D01*
X266797Y336046D01*
X267018Y336377D01*
X267095Y336767D01*
Y339535D01*
X267274Y339609D01*
X267596Y339689D01*
X267877Y339501D01*
X268267Y339423D01*
X269629D01*
X274034Y335019D01*
X274364Y334798D01*
X274755Y334720D01*
X288867D01*
X289258Y334798D01*
X289588Y335019D01*
X293878Y339308D01*
X294099Y339639D01*
X294177Y340029D01*
Y340874D01*
X294677Y341142D01*
X294849Y341028D01*
D02*
G37*
G36*
X239001Y342954D02*
X239826Y342321D01*
X240787Y341923D01*
X241818Y341787D01*
X242850Y341923D01*
X243811Y342321D01*
X243820Y342328D01*
X246426Y339722D01*
X246757Y339501D01*
X247147Y339423D01*
X249268D01*
X249438Y338923D01*
X249001Y338588D01*
X248368Y337763D01*
X247970Y336802D01*
X247834Y335771D01*
X247970Y334740D01*
X248368Y333779D01*
X249001Y332954D01*
X249240Y332771D01*
X249231Y332165D01*
X249221Y332155D01*
X244730Y327664D01*
X244510Y327333D01*
X244432Y326943D01*
Y312832D01*
X244342Y312763D01*
X243666Y312875D01*
X243569Y313021D01*
X242973Y313419D01*
X242271Y313558D01*
X241569Y313419D01*
X240973Y313021D01*
X240576Y312425D01*
X240436Y311723D01*
X240576Y311021D01*
X240973Y310425D01*
X241569Y310028D01*
X242271Y309888D01*
X242973Y310028D01*
X243569Y310425D01*
X243666Y310571D01*
X244342Y310683D01*
X244432Y310615D01*
Y304765D01*
X241649Y301982D01*
X241428Y301651D01*
X241350Y301261D01*
Y296223D01*
X239890D01*
Y290280D01*
X241350D01*
Y283705D01*
X240954Y283441D01*
X240556Y282845D01*
X240416Y282143D01*
X240481Y281815D01*
X239680Y281013D01*
X239459Y280683D01*
X239382Y280293D01*
Y266193D01*
X239459Y265803D01*
X239680Y265472D01*
X247831Y257322D01*
X248161Y257101D01*
X248552Y257023D01*
X276406D01*
Y247563D01*
X315420D01*
Y248139D01*
X315787Y248460D01*
X315920Y248460D01*
X318639D01*
X317213Y249886D01*
X317920Y250593D01*
X319346Y249167D01*
X319346Y252738D01*
X319846Y252941D01*
X320205Y252712D01*
Y247760D01*
X321665D01*
Y247610D01*
X321743Y247220D01*
X321964Y246889D01*
X324170Y244682D01*
X323979Y244220D01*
X238220D01*
Y334659D01*
X238720Y334759D01*
X238980Y334132D01*
X239194Y333853D01*
X241111Y335771D01*
X239194Y337689D01*
X238980Y337410D01*
X238720Y336784D01*
X238220Y336883D01*
Y343151D01*
X238720Y343320D01*
X239001Y342954D01*
D02*
G37*
G36*
X332332Y351844D02*
Y314537D01*
X327358Y309562D01*
X326377D01*
X326060Y309625D01*
X325941D01*
X325602Y310125D01*
X325691Y310574D01*
X325552Y311273D01*
X325361Y311559D01*
X325552Y311844D01*
X325691Y312543D01*
X325552Y313242D01*
X325361Y313527D01*
X325552Y313813D01*
X325691Y314511D01*
X325552Y315210D01*
X325361Y315496D01*
X325552Y315781D01*
X325691Y316480D01*
X325552Y317179D01*
X325157Y317771D01*
X324858Y317970D01*
X324893Y318023D01*
X324978Y318448D01*
X324893Y318874D01*
X324858Y318926D01*
X325157Y319126D01*
X325338Y319397D01*
X326371D01*
X326665Y318957D01*
X327393Y318471D01*
X328252Y318300D01*
X329110Y318471D01*
X329838Y318957D01*
X330324Y319684D01*
X330495Y320543D01*
X330324Y321401D01*
X329838Y322129D01*
X329110Y322615D01*
X328252Y322786D01*
X327393Y322615D01*
X326665Y322129D01*
X326363Y321676D01*
X325983Y321675D01*
X325638Y322116D01*
X325691Y322385D01*
X325552Y323084D01*
X325361Y323370D01*
X325552Y323655D01*
X325691Y324354D01*
X325552Y325052D01*
X325552Y325053D01*
X325611Y325174D01*
X325637Y325184D01*
X326167Y325174D01*
X326454Y324745D01*
X327049Y324347D01*
X327751Y324208D01*
X328454Y324347D01*
X329049Y324745D01*
X329447Y325341D01*
X329587Y326043D01*
X329447Y326745D01*
X329049Y327341D01*
X328454Y327738D01*
X327751Y327878D01*
X327423Y327813D01*
X326497Y328740D01*
X326704Y329240D01*
X327477D01*
X327626Y329017D01*
X328188Y328642D01*
X328852Y328509D01*
X329515Y328642D01*
X330077Y329017D01*
X330453Y329579D01*
X330585Y330243D01*
X330453Y330906D01*
X330077Y331469D01*
X329515Y331844D01*
X328852Y331976D01*
X328188Y331844D01*
X327840Y331612D01*
X327782Y331624D01*
X327619Y332168D01*
X331472Y336022D01*
X331694Y336353D01*
X331771Y336743D01*
Y352067D01*
X331832Y352109D01*
X332332Y351844D01*
D02*
G37*
G36*
X338488Y332342D02*
X339152Y332209D01*
X339214Y332222D01*
X339600Y331905D01*
Y331563D01*
X343040D01*
X343140Y331562D01*
X343285Y331356D01*
X343048Y330878D01*
X343026Y330856D01*
X341007D01*
X342236Y329626D01*
X341686Y329076D01*
X342236Y328526D01*
X341007Y327297D01*
X343466Y327297D01*
X343499Y327081D01*
X343537Y326597D01*
X343537Y326589D01*
X343499Y326105D01*
X343466Y325889D01*
X343037Y325889D01*
X341007D01*
X342236Y324660D01*
X341686Y324110D01*
X342236Y323559D01*
X341007Y322330D01*
X343026Y322330D01*
X343285Y321830D01*
X343140Y321624D01*
X343040Y321622D01*
X339700D01*
Y320898D01*
X339551Y320776D01*
X338888Y320644D01*
X338471Y320366D01*
X337971Y320569D01*
Y332157D01*
X338412Y332392D01*
X338488Y332342D01*
D02*
G37*
G36*
X354217Y339497D02*
X354532Y339110D01*
X354518Y339043D01*
X354650Y338380D01*
X355026Y337817D01*
X355588Y337441D01*
X356252Y337310D01*
X356500Y337105D01*
Y336563D01*
X359954D01*
X360056Y336555D01*
X360205Y336322D01*
X359937Y335822D01*
X357907D01*
X359137Y334593D01*
X358586Y334043D01*
X359137Y333492D01*
X357907Y332263D01*
X360366Y332263D01*
X360437Y331793D01*
Y331563D01*
X361505D01*
Y331036D01*
X360437D01*
Y330806D01*
X360366Y330336D01*
X359937Y330336D01*
X357907D01*
X359137Y329107D01*
X358586Y328556D01*
X359137Y328006D01*
X357907Y326777D01*
X360366Y326777D01*
X360399Y326561D01*
X360437Y326077D01*
X360437Y325874D01*
X360399Y325390D01*
X360366Y325174D01*
X359937Y325174D01*
X357907D01*
X359137Y323945D01*
X358586Y323394D01*
X359137Y322844D01*
X357907Y321615D01*
X360314Y321615D01*
X360430Y321141D01*
X360392Y320894D01*
X360017Y320722D01*
X357907D01*
X359137Y319493D01*
X358586Y318943D01*
X359137Y318392D01*
X357907Y317163D01*
X359864Y317163D01*
X360110Y316663D01*
X360001Y316522D01*
X356500D01*
Y316162D01*
X356152Y315876D01*
X355488Y315744D01*
X354926Y315369D01*
X354550Y314806D01*
X354418Y314143D01*
X354529Y313585D01*
X354190Y313245D01*
X351877D01*
X351877Y313245D01*
X351450Y313160D01*
X351088Y312919D01*
X348776Y310606D01*
X348534Y310244D01*
X348449Y309818D01*
X348449Y309818D01*
Y300530D01*
X348449Y300530D01*
X348534Y300103D01*
X348776Y299742D01*
X357349Y291168D01*
Y287330D01*
X357349Y287330D01*
X357434Y286904D01*
X357676Y286542D01*
X362036Y282181D01*
Y279244D01*
X361536Y279195D01*
X361482Y279470D01*
X361240Y279831D01*
X361240Y279831D01*
X355567Y285505D01*
Y289505D01*
X355567Y289505D01*
X355482Y289932D01*
X355240Y290293D01*
X346667Y298867D01*
Y311281D01*
X352727Y317342D01*
X352727Y317342D01*
X352969Y317704D01*
X353054Y318130D01*
X353054Y318130D01*
Y338881D01*
X353687Y339514D01*
X354217Y339497D01*
D02*
G37*
G36*
X279316Y304705D02*
X279326Y304669D01*
X279175Y304055D01*
X278854Y303841D01*
X278456Y303245D01*
X278316Y302543D01*
X278456Y301840D01*
X278657Y301539D01*
X278754Y301041D01*
X278383Y300486D01*
X278259Y300371D01*
X277887Y300217D01*
X277854Y300238D01*
X277151Y300378D01*
X276449Y300238D01*
X275854Y299841D01*
X275456Y299245D01*
X275316Y298543D01*
X275456Y297840D01*
X275854Y297245D01*
X276449Y296847D01*
X277151Y296708D01*
X277480Y296773D01*
X278358Y295895D01*
Y291783D01*
X277858Y291444D01*
X277409Y291534D01*
X276710Y291395D01*
X276425Y291204D01*
X276139Y291395D01*
X275441Y291534D01*
X274742Y291395D01*
X274456Y291204D01*
X274171Y291395D01*
X273472Y291534D01*
X272773Y291395D01*
X272488Y291204D01*
X272202Y291395D01*
X271523Y291530D01*
X271484Y291597D01*
X271353Y292014D01*
X271849Y292345D01*
X272247Y292940D01*
X272387Y293643D01*
X272247Y294345D01*
X271849Y294941D01*
X271254Y295338D01*
X270551Y295478D01*
X269849Y295338D01*
X269254Y294941D01*
X268856Y294345D01*
X268716Y293643D01*
X268856Y292940D01*
X269254Y292345D01*
X269849Y291947D01*
X270532Y291811D01*
X270572Y291745D01*
X270705Y291328D01*
X270213Y290999D01*
X270013Y290700D01*
X269960Y290736D01*
X269535Y290820D01*
X269110Y290736D01*
X269057Y290700D01*
X268857Y290999D01*
X268265Y291395D01*
X267566Y291534D01*
X266868Y291395D01*
X266276Y290999D01*
X265880Y290407D01*
X265741Y289708D01*
Y288581D01*
X265241Y288314D01*
X265054Y288438D01*
X264352Y288578D01*
X263649Y288438D01*
X263054Y288041D01*
X262984Y287936D01*
X262484Y288087D01*
Y291032D01*
X264417D01*
X265115Y291171D01*
X265708Y291567D01*
X266104Y292159D01*
X266243Y292858D01*
X266104Y293556D01*
X265913Y293842D01*
X266104Y294128D01*
X266243Y294826D01*
X266104Y295525D01*
X265913Y295811D01*
X266104Y296096D01*
X266243Y296795D01*
X266104Y297493D01*
X265913Y297779D01*
X266104Y298065D01*
X266243Y298763D01*
X266104Y299462D01*
X265913Y299748D01*
X266104Y300033D01*
X266243Y300732D01*
X266104Y301431D01*
X265913Y301716D01*
X266104Y302002D01*
X266243Y302700D01*
X266104Y303399D01*
X265913Y303685D01*
X266104Y303970D01*
X266135Y304130D01*
X266752Y304008D01*
X267454Y304147D01*
X268049Y304545D01*
X268235Y304823D01*
X279228D01*
X279316Y304705D01*
D02*
G37*
G36*
X338888Y317442D02*
X339551Y317309D01*
X339700Y317187D01*
Y316663D01*
X346280D01*
X346471Y316201D01*
X343376Y313106D01*
X343134Y312744D01*
X343049Y312317D01*
X343049Y312317D01*
Y297830D01*
X343049Y297830D01*
X343134Y297404D01*
X343376Y297042D01*
X351949Y288468D01*
Y284430D01*
X351949Y284430D01*
X352034Y284003D01*
X352276Y283642D01*
X357111Y278807D01*
X356919Y278345D01*
X351085D01*
Y285378D01*
X350946Y286076D01*
X350550Y286668D01*
X349958Y287064D01*
X349259Y287203D01*
X348561Y287064D01*
X348275Y286873D01*
X347990Y287064D01*
X347291Y287203D01*
X346592Y287064D01*
X346307Y286873D01*
X346021Y287064D01*
X345322Y287203D01*
X344624Y287064D01*
X344338Y286873D01*
X344053Y287064D01*
X343354Y287203D01*
X342655Y287064D01*
X342370Y286873D01*
X342084Y287064D01*
X341385Y287203D01*
X340687Y287064D01*
X340401Y286873D01*
X340115Y287064D01*
X339417Y287203D01*
X338718Y287064D01*
X338433Y286873D01*
X338147Y287064D01*
X337448Y287203D01*
X336750Y287064D01*
X336464Y286873D01*
X336178Y287064D01*
X335480Y287203D01*
X334977Y287103D01*
X334453Y287173D01*
X334232Y287504D01*
X333619Y288118D01*
X333826Y288618D01*
X333835Y288618D01*
Y288618D01*
X333870Y288618D01*
X336355D01*
X334929Y290044D01*
X335636Y290751D01*
X337063Y289325D01*
Y292454D01*
X335636Y291028D01*
X335283Y291381D01*
X334929Y291028D01*
X333504Y292454D01*
X333504Y288984D01*
Y288949D01*
D01*
X333504Y288940D01*
X333450Y288918D01*
X333032Y288745D01*
X332883Y288853D01*
X332873Y288864D01*
X332823Y288897D01*
X332644Y289027D01*
Y293861D01*
X330220D01*
X329842Y294238D01*
X330042Y294745D01*
X330554Y294847D01*
X331149Y295245D01*
X331547Y295841D01*
X331687Y296543D01*
X331547Y297245D01*
X331149Y297841D01*
X330554Y298238D01*
X329852Y298378D01*
X329149Y298238D01*
X328554Y297841D01*
X328436Y297664D01*
X327278D01*
X327029Y297831D01*
X326600Y297916D01*
X326600Y297916D01*
X326009D01*
X325622Y298416D01*
X325691Y298763D01*
X325602Y299212D01*
X325657Y299294D01*
X326165Y299434D01*
X326760Y299036D01*
X327463Y298897D01*
X328165Y299036D01*
X328760Y299434D01*
X329158Y300029D01*
X329298Y300732D01*
X329208Y301181D01*
X329549Y301681D01*
X332651D01*
X333042Y301758D01*
X333372Y301979D01*
X337672Y306279D01*
X337894Y306610D01*
X337971Y307000D01*
Y317517D01*
X338471Y317720D01*
X338888Y317442D01*
D02*
G37*
G36*
X600096Y308657D02*
X600524Y308379D01*
X600553Y288948D01*
X600068Y288672D01*
X600054Y288674D01*
X599716Y288741D01*
X572445D01*
X572414Y289057D01*
X572076Y290170D01*
X571529Y291194D01*
X571296Y291478D01*
X571295Y291482D01*
X571142Y291711D01*
X571175Y291740D01*
X570695Y292303D01*
X569802Y293759D01*
X569149Y295337D01*
X568750Y296997D01*
X568616Y298700D01*
X568750Y300402D01*
X569149Y302063D01*
X569802Y303641D01*
X570695Y305097D01*
X571188Y305674D01*
X571154Y305703D01*
X571308Y305934D01*
X571309Y305937D01*
X571529Y306205D01*
X572076Y307230D01*
X572414Y308342D01*
X572440Y308606D01*
X599716D01*
X600023Y308667D01*
X600096Y308657D01*
D02*
G37*
G36*
X432682Y294326D02*
Y276268D01*
X432220Y276077D01*
X430848Y277449D01*
X430550Y277647D01*
X430199Y277717D01*
X421599D01*
X421248Y277647D01*
X420950Y277449D01*
X420150Y276649D01*
X419951Y276351D01*
X419881Y276000D01*
Y275153D01*
X419141Y274658D01*
X418633Y273897D01*
X418454Y273000D01*
X418633Y272102D01*
X419141Y271341D01*
X419902Y270833D01*
X420670Y270680D01*
X420654Y270600D01*
X420833Y269702D01*
X421341Y268941D01*
X422102Y268433D01*
X422999Y268255D01*
X423897Y268433D01*
X424657Y268941D01*
X424815Y269178D01*
X425416D01*
X425641Y268842D01*
X426381Y268347D01*
Y246475D01*
X425881Y246208D01*
X425570Y246416D01*
X424751Y246579D01*
X423932Y246416D01*
X423237Y245952D01*
X422773Y245257D01*
X422610Y244438D01*
X422773Y243618D01*
X423228Y242938D01*
X422773Y242257D01*
X422610Y241438D01*
X422773Y240618D01*
X423237Y239924D01*
X423932Y239459D01*
X424751Y239297D01*
X425570Y239459D01*
X425881Y239667D01*
X426381Y239400D01*
Y235679D01*
X425881Y235528D01*
X425765Y235702D01*
X425070Y236166D01*
X424251Y236329D01*
X423432Y236166D01*
X422737Y235702D01*
X422273Y235007D01*
X422110Y234188D01*
X422273Y233368D01*
X422728Y232688D01*
X422273Y232007D01*
X422110Y231188D01*
X422273Y230368D01*
X422737Y229674D01*
X423432Y229209D01*
X424251Y229047D01*
X425070Y229209D01*
X425765Y229674D01*
X425881Y229848D01*
X426381Y229696D01*
Y228951D01*
X426451Y228600D01*
X426650Y228302D01*
X428933Y226019D01*
Y222408D01*
X428434Y222141D01*
X428051Y222396D01*
X427232Y222559D01*
X426412Y222396D01*
X425718Y221932D01*
X425253Y221238D01*
X425091Y220418D01*
X425253Y219599D01*
X425718Y218904D01*
X425730Y218776D01*
X419202Y212248D01*
X419003Y211950D01*
X418933Y211599D01*
Y207567D01*
X418472Y207376D01*
X415852Y209995D01*
X415992Y210699D01*
X415829Y211518D01*
X415365Y212213D01*
X414671Y212677D01*
X413851Y212840D01*
X413032Y212677D01*
X412867Y212567D01*
X412427Y212803D01*
Y214955D01*
X419409Y221937D01*
X419718Y222400D01*
X419827Y222947D01*
X419827Y222947D01*
Y256855D01*
X421648Y258677D01*
X422032Y258421D01*
X422851Y258258D01*
X423670Y258421D01*
X424365Y258885D01*
X424829Y259579D01*
X424992Y260399D01*
X424829Y261218D01*
X424365Y261913D01*
X423670Y262377D01*
X422928Y262525D01*
X422744Y262639D01*
X422591Y262792D01*
X422477Y262975D01*
X422329Y263718D01*
X421865Y264413D01*
X421171Y264877D01*
X420351Y265040D01*
X419532Y264877D01*
X418837Y264413D01*
X418373Y263718D01*
X418210Y262899D01*
X418278Y262556D01*
X414986Y259264D01*
X414721Y258867D01*
X414628Y258399D01*
Y226410D01*
X414689Y226103D01*
Y224967D01*
X401834Y212112D01*
X401569Y211715D01*
X401476Y211247D01*
Y206607D01*
X401185Y206413D01*
X400721Y205718D01*
X400558Y204899D01*
X400721Y204079D01*
X401185Y203385D01*
X401880Y202921D01*
X402699Y202758D01*
X403518Y202921D01*
X404213Y203385D01*
X404677Y204079D01*
X404840Y204899D01*
X404677Y205718D01*
X404213Y206413D01*
X403923Y206607D01*
Y210740D01*
X409144Y215962D01*
X409605Y215715D01*
X409572Y215547D01*
X409572Y215547D01*
Y188490D01*
X409572Y188490D01*
X409680Y187943D01*
X409990Y187480D01*
X411930Y185540D01*
X411910Y185438D01*
X412073Y184618D01*
X412537Y183924D01*
X413232Y183459D01*
X414051Y183297D01*
X414871Y183459D01*
X415565Y183924D01*
X415934Y184475D01*
X416433Y184323D01*
Y156899D01*
X416503Y156548D01*
X416702Y156250D01*
X419501Y153451D01*
X419799Y153252D01*
X420150Y153182D01*
X439319D01*
X441623Y150878D01*
X441432Y150416D01*
X418031D01*
X417400Y151048D01*
X417102Y151247D01*
X416751Y151316D01*
X414831D01*
X413151Y152996D01*
X412854Y153195D01*
X412502Y153265D01*
X408890D01*
X408539Y153195D01*
X408242Y152996D01*
X408162Y152916D01*
X324564D01*
X324423Y153249D01*
X324386Y153416D01*
X324829Y154079D01*
X324992Y154899D01*
X324829Y155718D01*
X324365Y156413D01*
X323671Y156877D01*
X322851Y157040D01*
X322032Y156877D01*
X321337Y156413D01*
X320873Y155718D01*
X320710Y154899D01*
X320873Y154079D01*
X321316Y153416D01*
X321279Y153249D01*
X321138Y152916D01*
X273131D01*
X268352Y157695D01*
X268492Y158399D01*
X268329Y159218D01*
X267865Y159913D01*
X267171Y160377D01*
X266351Y160540D01*
X265532Y160377D01*
X264837Y159913D01*
X264373Y159218D01*
X264210Y158399D01*
X264373Y157579D01*
X264837Y156885D01*
X265532Y156421D01*
X266351Y156258D01*
X267055Y156397D01*
X271274Y152178D01*
X271082Y151716D01*
X267880D01*
X259817Y159780D01*
Y171600D01*
X259798Y171694D01*
X259797Y171791D01*
X259763Y171868D01*
X259747Y171951D01*
X259693Y172031D01*
X259655Y172120D01*
X259649Y172128D01*
X259766Y172302D01*
X259944Y173200D01*
X259766Y174097D01*
X259257Y174858D01*
X258497Y175366D01*
X257599Y175545D01*
X256702Y175366D01*
X256417Y175176D01*
X255917Y175443D01*
Y178667D01*
X256648Y179397D01*
X257351Y179258D01*
X258171Y179421D01*
X258865Y179885D01*
X259329Y180579D01*
X259492Y181399D01*
X259329Y182218D01*
X258865Y182913D01*
X258171Y183377D01*
X257351Y183540D01*
X256532Y183377D01*
X255837Y182913D01*
X255373Y182218D01*
X255210Y181399D01*
X255350Y180695D01*
X254350Y179696D01*
X254151Y179398D01*
X254082Y179047D01*
Y172100D01*
X254151Y171749D01*
X254350Y171451D01*
X254775Y171026D01*
X254603Y170491D01*
X254032Y170377D01*
X253337Y169913D01*
X252873Y169218D01*
X252710Y168399D01*
X252873Y167579D01*
X253337Y166885D01*
X253424Y166827D01*
Y157399D01*
X253424Y157399D01*
X253532Y156852D01*
X253842Y156389D01*
X263342Y146889D01*
X263342Y146889D01*
X263351Y146884D01*
X263390Y146799D01*
X263314Y146408D01*
X263110Y146387D01*
X250248Y159249D01*
X249950Y159448D01*
X249599Y159517D01*
X245752D01*
X245257Y160258D01*
X244517Y160753D01*
Y178151D01*
X244447Y178502D01*
X244248Y178800D01*
X236369Y186679D01*
Y190586D01*
X236965Y190985D01*
X237429Y191679D01*
X237592Y192499D01*
X237429Y193318D01*
X236965Y194013D01*
X236270Y194477D01*
X235451Y194640D01*
X234632Y194477D01*
X233937Y194013D01*
X233473Y193318D01*
X233310Y192499D01*
X233473Y191679D01*
X233937Y190985D01*
X234534Y190586D01*
Y186299D01*
X234603Y185948D01*
X234802Y185650D01*
X242682Y177771D01*
Y160753D01*
X241941Y160258D01*
X241433Y159497D01*
X241254Y158600D01*
X241433Y157702D01*
X241941Y156941D01*
X242702Y156433D01*
X243599Y156255D01*
X244497Y156433D01*
X245257Y156941D01*
X245752Y157682D01*
X249219D01*
X249681Y157220D01*
X249517Y156677D01*
X248955Y156565D01*
X248194Y156057D01*
X247686Y155296D01*
X247507Y154399D01*
X247686Y153501D01*
X248194Y152741D01*
X248955Y152232D01*
X249852Y152054D01*
X250726Y152227D01*
X260602Y142351D01*
X260802Y142217D01*
X260717Y141717D01*
X246330D01*
X244453Y143594D01*
X244329Y144218D01*
X243865Y144913D01*
X243269Y145311D01*
Y147001D01*
X243199Y147352D01*
X243000Y147650D01*
X239801Y150849D01*
X239503Y151048D01*
X239152Y151117D01*
X231652D01*
X231157Y151858D01*
X230397Y152366D01*
X229499Y152545D01*
X228602Y152366D01*
X227841Y151858D01*
X227333Y151097D01*
X227154Y150200D01*
X227333Y149302D01*
X227841Y148541D01*
X228602Y148033D01*
X229499Y147855D01*
X230397Y148033D01*
X231157Y148541D01*
X231652Y149282D01*
X238772D01*
X241434Y146621D01*
Y145311D01*
X240837Y144913D01*
X240373Y144218D01*
X240210Y143399D01*
X240373Y142579D01*
X240837Y141885D01*
X241532Y141421D01*
X242351Y141258D01*
X243170Y141421D01*
X243687Y141765D01*
X245301Y140151D01*
X245599Y139952D01*
X245950Y139882D01*
X406213D01*
X406291Y139750D01*
X406004Y139254D01*
X404859Y139271D01*
X391806Y139081D01*
X378763Y138512D01*
X375589Y138280D01*
X375554Y138287D01*
X375097D01*
X374605Y138314D01*
X374605Y138314D01*
X374605Y138314D01*
X367866Y137826D01*
X349358Y136869D01*
X330834Y136294D01*
X312302Y136102D01*
X293770Y136294D01*
X275246Y136869D01*
X256738Y137826D01*
X248191Y138445D01*
X248191Y138445D01*
Y138445D01*
X247713Y138419D01*
X246374Y138494D01*
X242991Y139069D01*
X239694Y140019D01*
X236523Y141332D01*
X233520Y142992D01*
X230722Y144978D01*
X228163Y147264D01*
X225877Y149823D01*
X223891Y152621D01*
X222847Y154510D01*
X222847Y154510D01*
X222847Y154510D01*
X222813Y154520D01*
X219088Y161641D01*
X214371Y171501D01*
X210008Y181524D01*
X208248Y185998D01*
X208248D01*
X208054Y186443D01*
X207915Y187500D01*
X208054Y188557D01*
X208462Y189542D01*
X209111Y190388D01*
X209957Y191037D01*
X210942Y191446D01*
X211296Y191492D01*
X211294Y191502D01*
X265559Y201096D01*
X265575Y201102D01*
X266199Y201185D01*
X267256Y201045D01*
X268242Y200637D01*
X269088Y199988D01*
X269737Y199142D01*
X270145Y198157D01*
X270221Y197575D01*
X270282Y197100D01*
D01*
X270282Y196606D01*
Y163500D01*
X270271D01*
X270385Y162343D01*
X270722Y161231D01*
X271270Y160206D01*
X272007Y159308D01*
X272905Y158570D01*
X273930Y158022D01*
X275043Y157685D01*
X276199Y157571D01*
Y157582D01*
X382799D01*
Y157571D01*
X383956Y157685D01*
X385068Y158022D01*
X386093Y158570D01*
X386991Y159308D01*
X387729Y160206D01*
X388276Y161231D01*
X388614Y162343D01*
X388728Y163500D01*
X388717D01*
Y227566D01*
X389217Y227640D01*
X389437Y226916D01*
X390133Y225613D01*
X391070Y224471D01*
X392212Y223534D01*
X393515Y222837D01*
X394929Y222408D01*
X396399Y222263D01*
X397869Y222408D01*
X399283Y222837D01*
X400586Y223534D01*
X401728Y224471D01*
X402665Y225613D01*
X403362Y226916D01*
X403791Y228329D01*
X403935Y229800D01*
X403791Y231270D01*
X403362Y232684D01*
X402665Y233987D01*
X401728Y235129D01*
X400586Y236066D01*
X399283Y236762D01*
X397869Y237191D01*
X396399Y237336D01*
X394929Y237191D01*
X393515Y236762D01*
X392212Y236066D01*
X391070Y235129D01*
X390133Y233987D01*
X389437Y232684D01*
X389217Y231959D01*
X388717Y232033D01*
Y235200D01*
X388715Y235208D01*
X388853Y236257D01*
X389262Y237242D01*
X389911Y238088D01*
X390757Y238737D01*
X391742Y239145D01*
X392791Y239284D01*
X392799Y239282D01*
X404799D01*
Y239271D01*
X405956Y239385D01*
X407068Y239722D01*
X408093Y240270D01*
X408991Y241008D01*
X409728Y241906D01*
X410276Y242931D01*
X410614Y244043D01*
X410728Y245200D01*
X410717D01*
Y280200D01*
X410715Y280207D01*
X410853Y281257D01*
X411262Y282242D01*
X411911Y283088D01*
X412757Y283737D01*
X413742Y284145D01*
X414799Y284285D01*
X415504Y284192D01*
X415793Y284136D01*
X415793Y284136D01*
X416036Y284117D01*
X418100Y283955D01*
X420406Y284136D01*
X422656Y284676D01*
X424794Y285562D01*
X426767Y286771D01*
X428526Y288274D01*
X430029Y290033D01*
X431238Y292006D01*
X432124Y294144D01*
X432182Y294385D01*
X432682Y294326D01*
D02*
G37*
G36*
X317332Y283753D02*
Y282365D01*
X314130Y279164D01*
X313910Y278833D01*
X313832Y278443D01*
Y267843D01*
X313910Y267453D01*
X314130Y267122D01*
X315297Y265956D01*
X315628Y265735D01*
X316005Y265660D01*
X315951Y265178D01*
X315249Y265038D01*
X314654Y264641D01*
X314256Y264045D01*
X314116Y263343D01*
X314256Y262641D01*
X314564Y262179D01*
X314176Y261860D01*
X305988Y270049D01*
Y271087D01*
X307251D01*
Y276046D01*
X298748D01*
Y274892D01*
X293177D01*
X291277Y276792D01*
X291147Y277445D01*
X290749Y278041D01*
X290154Y278438D01*
X289452Y278578D01*
X289395Y278567D01*
X289085Y279015D01*
X289153Y279123D01*
X300652D01*
X301042Y279201D01*
X301373Y279422D01*
X303720Y281770D01*
X303941Y282101D01*
X304447Y282081D01*
X304968Y281977D01*
X305667Y282116D01*
X305952Y282307D01*
X306238Y282116D01*
X306937Y281977D01*
X307635Y282116D01*
X307921Y282307D01*
X308206Y282116D01*
X308905Y281977D01*
X309604Y282116D01*
X309889Y282307D01*
X310175Y282116D01*
X310874Y281977D01*
X311572Y282116D01*
X311858Y282307D01*
X312143Y282116D01*
X312842Y281977D01*
X313541Y282116D01*
X313826Y282307D01*
X314112Y282116D01*
X314811Y281977D01*
X315509Y282116D01*
X316102Y282512D01*
X316497Y283104D01*
X316608Y283661D01*
X316953Y283861D01*
X317136Y283895D01*
X317332Y283753D01*
D02*
G37*
G36*
X284584Y282116D02*
X285283Y281977D01*
X285982Y282116D01*
X286270Y281732D01*
X286270Y281703D01*
X281575Y277009D01*
X281249Y277041D01*
X280654Y277438D01*
X279952Y277578D01*
X279249Y277438D01*
X278929Y277224D01*
X278429Y277491D01*
Y281728D01*
X278929Y282066D01*
X279378Y281977D01*
X280076Y282116D01*
X280362Y282307D01*
X280647Y282116D01*
X281346Y281977D01*
X282045Y282116D01*
X282330Y282307D01*
X282616Y282116D01*
X283314Y281977D01*
X284013Y282116D01*
X284299Y282307D01*
X284584Y282116D01*
D02*
G37*
G36*
X250055Y306629D02*
X250232Y306203D01*
Y288843D01*
X250309Y288453D01*
X250531Y288122D01*
X256032Y282621D01*
Y273906D01*
X255532Y273780D01*
X254999Y274777D01*
X254111Y275859D01*
X253029Y276747D01*
X251795Y277407D01*
X250455Y277813D01*
X249062Y277951D01*
X247670Y277813D01*
X246330Y277407D01*
X245096Y276747D01*
X244014Y275859D01*
X243126Y274777D01*
X242466Y273543D01*
X242060Y272203D01*
X241923Y270811D01*
X242060Y269418D01*
X242466Y268078D01*
X243126Y266844D01*
X244014Y265762D01*
X245096Y264874D01*
X246330Y264214D01*
X247670Y263808D01*
X249062Y263671D01*
X250455Y263808D01*
X251795Y264214D01*
X253029Y264874D01*
X254111Y265762D01*
X254999Y266844D01*
X255532Y267841D01*
X256032Y267716D01*
Y265243D01*
X256109Y264853D01*
X256330Y264522D01*
X261290Y259562D01*
X261083Y259062D01*
X248974D01*
X241421Y266616D01*
Y279870D01*
X241923Y280373D01*
X242251Y280308D01*
X242954Y280447D01*
X243549Y280845D01*
X243947Y281440D01*
X244087Y282143D01*
X243947Y282845D01*
X243549Y283441D01*
X243389Y283547D01*
Y290280D01*
X244849D01*
Y296223D01*
X243389D01*
Y300839D01*
X246172Y303622D01*
X246393Y303953D01*
X246471Y304343D01*
Y306140D01*
X246496Y306629D01*
X246971Y306629D01*
X250055Y306629D01*
D02*
G37*
G36*
X344624Y276604D02*
X345322Y276465D01*
X346021Y276604D01*
X346307Y276795D01*
X346592Y276604D01*
X347291Y276465D01*
X347990Y276604D01*
X348275Y276795D01*
X348561Y276604D01*
X349214Y276474D01*
X349344Y275821D01*
X349535Y275535D01*
X349344Y275249D01*
X349205Y274551D01*
X349344Y273852D01*
X349740Y273260D01*
X350039Y273060D01*
X350004Y273008D01*
X349919Y272582D01*
X350004Y272157D01*
X350039Y272104D01*
X349740Y271905D01*
X349344Y271312D01*
X349295Y271063D01*
X348977Y270931D01*
X348275Y271071D01*
X347573Y270931D01*
X346977Y270533D01*
X346580Y269938D01*
X346440Y269236D01*
X346580Y268533D01*
X346977Y267938D01*
X347573Y267540D01*
X348275Y267401D01*
X348887Y267522D01*
X349166Y267315D01*
X349301Y267155D01*
X349205Y266677D01*
X349344Y265978D01*
X349740Y265386D01*
X350039Y265186D01*
X350004Y265134D01*
X349919Y264708D01*
X350004Y264283D01*
X350039Y264230D01*
X349740Y264031D01*
X349559Y263759D01*
X344148D01*
X343758Y263682D01*
X343427Y263461D01*
X342867Y262900D01*
X342405Y263091D01*
Y267509D01*
X342327Y267899D01*
X342106Y268230D01*
X339473Y270864D01*
X339142Y271085D01*
X338752Y271162D01*
X338519D01*
X338323Y271438D01*
X338411Y271746D01*
X338526Y271949D01*
X338856Y272015D01*
X339187Y272236D01*
X340672Y273722D01*
X340894Y274053D01*
X340971Y274443D01*
Y274459D01*
X341249Y274645D01*
X341647Y275240D01*
X341787Y275943D01*
X341671Y276522D01*
X342084Y276604D01*
X342370Y276795D01*
X342655Y276604D01*
X343354Y276465D01*
X344053Y276604D01*
X344338Y276795D01*
X344624Y276604D01*
D02*
G37*
G36*
X262867Y285724D02*
X263054Y285445D01*
X263649Y285047D01*
X264352Y284908D01*
X265054Y285047D01*
X265241Y285172D01*
X265741Y284905D01*
Y283803D01*
X265880Y283104D01*
X266276Y282512D01*
X266868Y282116D01*
X267566Y281977D01*
X268265Y282116D01*
X268857Y282512D01*
X269057Y282810D01*
X269110Y282775D01*
X269535Y282691D01*
X269960Y282775D01*
X270013Y282810D01*
X270213Y282512D01*
X270484Y282330D01*
Y280914D01*
X268190D01*
Y274971D01*
X272503D01*
X272530Y274838D01*
X272751Y274507D01*
X273005Y274253D01*
X272784Y273805D01*
X272685Y273818D01*
X271601Y273675D01*
X270590Y273257D01*
X269723Y272591D01*
X269252Y271978D01*
X269209Y271964D01*
X268662Y272030D01*
X268572Y272164D01*
X266533Y274203D01*
X266202Y274424D01*
X265812Y274502D01*
X264634D01*
X263965Y275171D01*
X264172Y275671D01*
X266624D01*
X265198Y277097D01*
X265905Y277804D01*
X267331Y276378D01*
Y279507D01*
X265905Y278081D01*
X265551Y278435D01*
X265198Y278081D01*
X263772Y279507D01*
Y276071D01*
X263272Y275864D01*
X260471Y278665D01*
Y283821D01*
X262185Y285535D01*
X262289Y285690D01*
X262811Y285741D01*
X262867Y285724D01*
D02*
G37*
G36*
X328876Y276604D02*
X328966Y276586D01*
X330431Y275122D01*
X330761Y274901D01*
X331152Y274823D01*
X335543D01*
X335714Y274605D01*
X335754Y274545D01*
X335768Y274536D01*
X335844Y274438D01*
X335705Y273977D01*
X335537D01*
X335147Y273899D01*
X334816Y273678D01*
X332230Y271092D01*
X332010Y270761D01*
X331932Y270371D01*
Y262602D01*
X331120Y261791D01*
X327909D01*
X327571Y262291D01*
X327660Y262740D01*
X327521Y263438D01*
X327330Y263724D01*
X327521Y264009D01*
X327660Y264708D01*
X327521Y265407D01*
X327330Y265692D01*
X327521Y265978D01*
X327660Y266677D01*
X327521Y267375D01*
X327330Y267661D01*
X327521Y267947D01*
X327660Y268645D01*
X327521Y269344D01*
X327330Y269629D01*
X327521Y269915D01*
X327660Y270614D01*
X327521Y271312D01*
X327330Y271598D01*
X327521Y271884D01*
X327660Y272582D01*
X327521Y273281D01*
X327125Y273873D01*
X326826Y274073D01*
X326862Y274125D01*
X326946Y274551D01*
X326862Y274976D01*
X326826Y275029D01*
X327125Y275228D01*
X327521Y275821D01*
X327651Y276474D01*
X328305Y276604D01*
X328590Y276795D01*
X328876Y276604D01*
D02*
G37*
G36*
X287719Y277262D02*
X287616Y276743D01*
X287756Y276041D01*
X288154Y275445D01*
X288749Y275047D01*
X289403Y274917D01*
X291691Y272629D01*
X292121Y272342D01*
X292628Y272241D01*
X298748D01*
Y271087D01*
X303948D01*
Y269626D01*
X304026Y269236D01*
X304247Y268905D01*
X315071Y258082D01*
X315277Y257944D01*
X315130Y257444D01*
X289750D01*
X289587Y257643D01*
X289447Y258345D01*
X289049Y258941D01*
X288454Y259338D01*
X287752Y259478D01*
X287049Y259338D01*
X286454Y258941D01*
X286056Y258345D01*
X285916Y257643D01*
X285753Y257444D01*
X280013D01*
X279791Y257944D01*
X279972Y258143D01*
X280152Y258108D01*
X280854Y258247D01*
X281449Y258645D01*
X281847Y259241D01*
X281987Y259943D01*
X281847Y260645D01*
X281746Y260796D01*
X281954Y261347D01*
X282549Y261745D01*
X282947Y262340D01*
X283087Y263043D01*
X282947Y263745D01*
X282549Y264341D01*
X282306Y264503D01*
X282501Y264974D01*
X282757Y264923D01*
X285268D01*
X285454Y264645D01*
X286049Y264247D01*
X286752Y264108D01*
X287454Y264247D01*
X288049Y264645D01*
X288447Y265241D01*
X288587Y265943D01*
X288471Y266523D01*
X288750Y267023D01*
X289025D01*
X289507Y266980D01*
Y261175D01*
X290441Y262109D01*
X291148Y261402D01*
X290215Y260468D01*
X291367D01*
Y259768D01*
X303018D01*
Y267680D01*
X299464D01*
X299414Y267933D01*
X299193Y268264D01*
X297493Y269964D01*
X297162Y270185D01*
X296772Y270262D01*
X283274D01*
X282191Y271345D01*
X282355Y271888D01*
X282654Y271947D01*
X283249Y272345D01*
X283647Y272940D01*
X283787Y273643D01*
X283721Y273971D01*
X287259Y277508D01*
X287719Y277262D01*
D02*
G37*
G36*
X328151Y256908D02*
X328456Y256968D01*
X330409Y255015D01*
X330370Y254464D01*
X330252Y254385D01*
X330052Y254086D01*
X330000Y254121D01*
X329574Y254206D01*
X329149Y254121D01*
X328788Y253880D01*
X328392D01*
X328031Y254121D01*
X328022Y254123D01*
X327623Y254680D01*
X327660Y254866D01*
X327521Y255564D01*
X327330Y255850D01*
X327521Y256136D01*
X327660Y256834D01*
X327803Y256977D01*
X328151Y256908D01*
D02*
G37*
G36*
X363885Y251953D02*
X362459Y250527D01*
X366204D01*
Y249169D01*
X366196Y248673D01*
X363344D01*
X364770Y247247D01*
X364063Y246540D01*
X362637Y247966D01*
Y244220D01*
X361778D01*
Y249373D01*
X360318D01*
Y251491D01*
X361004Y252176D01*
X361225Y252507D01*
X361251Y252640D01*
X361752Y252591D01*
Y251234D01*
X363177Y252660D01*
X363885Y251953D01*
D02*
G37*
G36*
X326494Y252661D02*
Y246007D01*
X326503Y245962D01*
X326484Y245922D01*
X326047Y245689D01*
X324438Y247298D01*
X324629Y247760D01*
X325164D01*
Y253040D01*
X325834D01*
X325994Y253072D01*
X326494Y252661D01*
D02*
G37*
G36*
X352472Y249029D02*
X352702D01*
X353172Y248957D01*
Y245792D01*
X352808Y245462D01*
X351371D01*
X351054Y245849D01*
X351085Y246007D01*
Y253040D01*
X352472D01*
Y249029D01*
D02*
G37*
G36*
X435702Y218750D02*
X437534Y216919D01*
Y207879D01*
X437055Y207400D01*
X436351Y207540D01*
X435569Y207384D01*
X435454Y207392D01*
X435069Y207598D01*
Y218865D01*
X435569Y218950D01*
X435702Y218750D01*
D02*
G37*
G36*
X610198Y248461D02*
Y213624D01*
X610268Y213273D01*
X610467Y212975D01*
X613367Y210075D01*
X613665Y209876D01*
X614016Y209806D01*
X630936D01*
X647068Y193674D01*
X647042Y193501D01*
X646501Y193261D01*
X646496Y193265D01*
X645598Y193444D01*
X644701Y193265D01*
X643940Y192757D01*
X643432Y191996D01*
X643253Y191099D01*
X643427Y190225D01*
X642802Y189601D01*
X642603Y189303D01*
X642533Y188952D01*
Y181432D01*
X600319Y139217D01*
X524579D01*
X512848Y150949D01*
X512550Y151147D01*
X512199Y151217D01*
X458330D01*
X442152Y167396D01*
X442488Y167767D01*
X442605Y167670D01*
X443630Y167122D01*
X444742Y166785D01*
X445899Y166671D01*
Y166682D01*
X517599D01*
X517607Y166684D01*
X518656Y166545D01*
X519642Y166137D01*
X520488Y165488D01*
X521137Y164642D01*
X521545Y163657D01*
X521683Y162608D01*
X521681Y162600D01*
Y150600D01*
X521671D01*
X521784Y149443D01*
X522122Y148331D01*
X522670Y147306D01*
X523407Y146408D01*
X524305Y145670D01*
X525330Y145122D01*
X526442Y144785D01*
X527599Y144671D01*
Y144682D01*
X573923D01*
X574399Y144682D01*
X574399Y144682D01*
X574399Y144682D01*
X574879Y144622D01*
X574881Y144622D01*
X574891Y144621D01*
X575380Y144604D01*
X576555Y144449D01*
X581100Y144251D01*
X585645Y144449D01*
X590155Y145043D01*
X594597Y146028D01*
X598936Y147396D01*
X603139Y149137D01*
X607174Y151238D01*
X611011Y153682D01*
X614621Y156451D01*
X617975Y159525D01*
X621048Y162879D01*
X623818Y166489D01*
X626262Y170326D01*
X628363Y174361D01*
X630104Y178564D01*
X631472Y182903D01*
X632457Y187345D01*
X633051Y191855D01*
X633249Y196400D01*
X633051Y200945D01*
X632635Y204102D01*
X632628Y204101D01*
X632585Y204319D01*
X632477Y204480D01*
X632177Y205468D01*
X631629Y206493D01*
X630892Y207392D01*
X629994Y208129D01*
X628968Y208677D01*
X627856Y209014D01*
X627184Y209081D01*
X626700Y209128D01*
X626699Y209128D01*
X626203Y209117D01*
X612999D01*
X612991Y209116D01*
X611942Y209254D01*
X610957Y209662D01*
X610111Y210311D01*
X609461Y211157D01*
X609053Y212142D01*
X608915Y213192D01*
X608917Y213200D01*
Y247004D01*
X608928Y247499D01*
X608928Y247501D01*
X608881Y247980D01*
X608814Y248657D01*
X608564Y249482D01*
X609008Y249738D01*
X610198Y248461D01*
D02*
G37*
G36*
X413032Y206021D02*
X413851Y205858D01*
X414555Y205997D01*
X416433Y204119D01*
Y186552D01*
X415934Y186400D01*
X415565Y186952D01*
X414871Y187416D01*
X414051Y187579D01*
X413949Y187558D01*
X412427Y189081D01*
Y205895D01*
X412867Y206130D01*
X413032Y206021D01*
D02*
G37*
G36*
X437851Y188054D02*
X437933Y187986D01*
Y169399D01*
X437500Y169016D01*
X435228D01*
X434569Y169676D01*
Y177419D01*
X436400Y179250D01*
X436599Y179548D01*
X436669Y179899D01*
Y187867D01*
X437169Y188189D01*
X437851Y188054D01*
D02*
G37*
G36*
X653846Y178190D02*
X653880Y167279D01*
X638373Y151771D01*
X637499Y151945D01*
X636602Y151766D01*
X635841Y151258D01*
X635333Y150497D01*
X635154Y149600D01*
X635333Y148702D01*
X635841Y147942D01*
X636582Y147447D01*
Y144927D01*
X621071Y129416D01*
X612481D01*
X612130Y129347D01*
X611832Y129148D01*
X611201Y128516D01*
X603474D01*
X603266Y129016D01*
X608648Y134397D01*
X609351Y134258D01*
X610171Y134421D01*
X610865Y134885D01*
X611329Y135579D01*
X611475Y136313D01*
X611602Y136338D01*
X611900Y136537D01*
X612099Y136835D01*
X612103Y136852D01*
X653136Y177886D01*
X653335Y178183D01*
X653346Y178238D01*
X653846Y178190D01*
D02*
G37*
G36*
X656433Y207019D02*
Y161779D01*
X638858Y144204D01*
X638398Y144450D01*
X638417Y144547D01*
Y147447D01*
X639157Y147942D01*
X639666Y148702D01*
X639844Y149600D01*
X639670Y150473D01*
X655448Y166251D01*
X655449Y166252D01*
X655450Y166253D01*
X655547Y166399D01*
X655647Y166549D01*
X655647Y166550D01*
X655648Y166551D01*
X655683Y166727D01*
X655717Y166900D01*
X655717Y166901D01*
X655717Y166903D01*
X655617Y198627D01*
X655581Y198803D01*
X655546Y198977D01*
X655546Y198977D01*
X655546Y198977D01*
X655451Y199119D01*
X655346Y199274D01*
X636746Y217774D01*
X636597Y217873D01*
X636450Y217971D01*
X636449Y217972D01*
X636448Y217972D01*
X636275Y218006D01*
X636099Y218041D01*
X632503D01*
X632351Y218541D01*
X632865Y218885D01*
X633264Y219481D01*
X643971D01*
X656433Y207019D01*
D02*
G37*
%LPC*%
G36*
X602924Y465138D02*
Y461519D01*
X606544D01*
X606467Y462102D01*
X606049Y463111D01*
X605384Y463978D01*
X604517Y464643D01*
X603507Y465061D01*
X602924Y465138D01*
D02*
G37*
G36*
X601924D02*
X601341Y465061D01*
X600331Y464643D01*
X599465Y463978D01*
X598800Y463111D01*
X598381Y462102D01*
X598305Y461519D01*
X601924D01*
Y465138D01*
D02*
G37*
G36*
X561174Y465126D02*
Y461507D01*
X564794D01*
X564717Y462090D01*
X564299Y463099D01*
X563634Y463966D01*
X562767Y464631D01*
X561757Y465049D01*
X561174Y465126D01*
D02*
G37*
G36*
X560174D02*
X559591Y465049D01*
X558581Y464631D01*
X557715Y463966D01*
X557050Y463099D01*
X556631Y462090D01*
X556555Y461507D01*
X560174D01*
Y465126D01*
D02*
G37*
G36*
X606544Y460519D02*
X602924D01*
Y456899D01*
X603507Y456976D01*
X604517Y457394D01*
X605384Y458059D01*
X606049Y458926D01*
X606467Y459936D01*
X606544Y460519D01*
D02*
G37*
G36*
X601924D02*
X598305D01*
X598381Y459936D01*
X598800Y458926D01*
X599465Y458059D01*
X600331Y457394D01*
X601341Y456976D01*
X601924Y456899D01*
Y460519D01*
D02*
G37*
G36*
X564794Y460507D02*
X561174D01*
Y456887D01*
X561757Y456964D01*
X562767Y457382D01*
X563634Y458047D01*
X564299Y458914D01*
X564717Y459924D01*
X564794Y460507D01*
D02*
G37*
G36*
X560174D02*
X556555D01*
X556631Y459924D01*
X557050Y458914D01*
X557715Y458047D01*
X558581Y457382D01*
X559591Y456964D01*
X560174Y456887D01*
Y460507D01*
D02*
G37*
G36*
X592581Y465305D02*
X591472Y465159D01*
X590438Y464731D01*
X589550Y464049D01*
X588869Y463162D01*
X588441Y462128D01*
X588295Y461019D01*
X588441Y459909D01*
X588869Y458876D01*
X589550Y457988D01*
X590438Y457307D01*
X591472Y456879D01*
X592581Y456733D01*
X593690Y456879D01*
X594724Y457307D01*
X595612Y457988D01*
X596293Y458876D01*
X596721Y459909D01*
X596867Y461019D01*
X596721Y462128D01*
X596293Y463162D01*
X595612Y464049D01*
X594724Y464731D01*
X593690Y465159D01*
X592581Y465305D01*
D02*
G37*
G36*
X582738D02*
X581629Y465159D01*
X580595Y464731D01*
X579707Y464049D01*
X579026Y463162D01*
X578598Y462128D01*
X578452Y461019D01*
X578598Y459909D01*
X579026Y458876D01*
X579707Y457988D01*
X580595Y457307D01*
X581629Y456879D01*
X582738Y456733D01*
X583848Y456879D01*
X584881Y457307D01*
X585769Y457988D01*
X586450Y458876D01*
X586878Y459909D01*
X587024Y461019D01*
X586878Y462128D01*
X586450Y463162D01*
X585769Y464049D01*
X584881Y464731D01*
X583848Y465159D01*
X582738Y465305D01*
D02*
G37*
G36*
X550831Y465293D02*
X549722Y465147D01*
X548688Y464719D01*
X547800Y464038D01*
X547119Y463150D01*
X546691Y462116D01*
X546545Y461007D01*
X546691Y459897D01*
X547119Y458864D01*
X547800Y457976D01*
X548688Y457295D01*
X549722Y456867D01*
X550831Y456720D01*
X551940Y456867D01*
X552974Y457295D01*
X553862Y457976D01*
X554543Y458864D01*
X554971Y459897D01*
X555117Y461007D01*
X554971Y462116D01*
X554543Y463150D01*
X553862Y464038D01*
X552974Y464719D01*
X551940Y465147D01*
X550831Y465293D01*
D02*
G37*
G36*
X540988D02*
X539879Y465147D01*
X538845Y464719D01*
X537957Y464038D01*
X537276Y463150D01*
X536848Y462116D01*
X536702Y461007D01*
X536848Y459897D01*
X537276Y458864D01*
X537957Y457976D01*
X538845Y457295D01*
X539879Y456867D01*
X540988Y456720D01*
X542098Y456867D01*
X543131Y457295D01*
X544019Y457976D01*
X544700Y458864D01*
X545128Y459897D01*
X545274Y461007D01*
X545128Y462116D01*
X544700Y463150D01*
X544019Y464038D01*
X543131Y464719D01*
X542098Y465147D01*
X540988Y465293D01*
D02*
G37*
G36*
X417951Y457135D02*
X416481Y456990D01*
X415067Y456561D01*
X413764Y455865D01*
X412622Y454928D01*
X411685Y453786D01*
X410989Y452483D01*
X410560Y451069D01*
X410415Y449599D01*
X410560Y448128D01*
X410989Y446715D01*
X411685Y445412D01*
X412622Y444270D01*
X413764Y443332D01*
X415067Y442636D01*
X416481Y442207D01*
X417951Y442062D01*
X419421Y442207D01*
X420835Y442636D01*
X422138Y443332D01*
X423280Y444270D01*
X424217Y445412D01*
X424914Y446715D01*
X425343Y448128D01*
X425487Y449599D01*
X425343Y451069D01*
X424914Y452483D01*
X424217Y453786D01*
X423280Y454928D01*
X422138Y455865D01*
X420835Y456561D01*
X419421Y456990D01*
X417951Y457135D01*
D02*
G37*
G36*
X508405Y444667D02*
Y441048D01*
X512025D01*
X511948Y441631D01*
X511530Y442640D01*
X510865Y443507D01*
X509998Y444172D01*
X508988Y444590D01*
X508405Y444667D01*
D02*
G37*
G36*
X466037D02*
Y441048D01*
X469657D01*
X469580Y441631D01*
X469162Y442640D01*
X468497Y443507D01*
X467630Y444172D01*
X466620Y444590D01*
X466037Y444667D01*
D02*
G37*
G36*
X507405D02*
X506822Y444590D01*
X505813Y444172D01*
X504946Y443507D01*
X504281Y442640D01*
X503862Y441631D01*
X503786Y441048D01*
X507405D01*
Y444667D01*
D02*
G37*
G36*
X465037D02*
X464454Y444590D01*
X463445Y444172D01*
X462578Y443507D01*
X461913Y442640D01*
X461494Y441631D01*
X461418Y441048D01*
X465037D01*
Y444667D01*
D02*
G37*
G36*
X512025Y440048D02*
X508405D01*
Y436428D01*
X508988Y436505D01*
X509998Y436923D01*
X510865Y437588D01*
X511530Y438455D01*
X511948Y439465D01*
X512025Y440048D01*
D02*
G37*
G36*
X469657D02*
X466037D01*
Y436428D01*
X466620Y436505D01*
X467630Y436923D01*
X468497Y437588D01*
X469162Y438455D01*
X469580Y439465D01*
X469657Y440048D01*
D02*
G37*
G36*
X507405D02*
X503786D01*
X503862Y439465D01*
X504281Y438455D01*
X504946Y437588D01*
X505813Y436923D01*
X506822Y436505D01*
X507405Y436428D01*
Y440048D01*
D02*
G37*
G36*
X465037D02*
X461418D01*
X461494Y439465D01*
X461913Y438455D01*
X462578Y437588D01*
X463445Y436923D01*
X464454Y436505D01*
X465037Y436428D01*
Y440048D01*
D02*
G37*
G36*
X498062Y444834D02*
X496953Y444688D01*
X495919Y444260D01*
X495031Y443578D01*
X494350Y442691D01*
X493922Y441657D01*
X493776Y440548D01*
X493922Y439438D01*
X494350Y438405D01*
X495031Y437517D01*
X495919Y436836D01*
X496953Y436408D01*
X498062Y436262D01*
X499171Y436408D01*
X500205Y436836D01*
X501093Y437517D01*
X501774Y438405D01*
X502202Y439438D01*
X502348Y440548D01*
X502202Y441657D01*
X501774Y442691D01*
X501093Y443578D01*
X500205Y444260D01*
X499171Y444688D01*
X498062Y444834D01*
D02*
G37*
G36*
X488219D02*
X487110Y444688D01*
X486076Y444260D01*
X485188Y443578D01*
X484507Y442691D01*
X484079Y441657D01*
X483933Y440548D01*
X484079Y439438D01*
X484507Y438405D01*
X485188Y437517D01*
X486076Y436836D01*
X487110Y436408D01*
X488219Y436262D01*
X489328Y436408D01*
X490362Y436836D01*
X491250Y437517D01*
X491931Y438405D01*
X492359Y439438D01*
X492505Y440548D01*
X492359Y441657D01*
X491931Y442691D01*
X491250Y443578D01*
X490362Y444260D01*
X489328Y444688D01*
X488219Y444834D01*
D02*
G37*
G36*
X455694D02*
X454585Y444688D01*
X453551Y444260D01*
X452663Y443578D01*
X451982Y442691D01*
X451554Y441657D01*
X451408Y440548D01*
X451554Y439438D01*
X451982Y438405D01*
X452663Y437517D01*
X453551Y436836D01*
X454585Y436408D01*
X455694Y436262D01*
X456804Y436408D01*
X457837Y436836D01*
X458725Y437517D01*
X459406Y438405D01*
X459834Y439438D01*
X459980Y440548D01*
X459834Y441657D01*
X459406Y442691D01*
X458725Y443578D01*
X457837Y444260D01*
X456804Y444688D01*
X455694Y444834D01*
D02*
G37*
G36*
X445851D02*
X444742Y444688D01*
X443708Y444260D01*
X442820Y443578D01*
X442139Y442691D01*
X441711Y441657D01*
X441565Y440548D01*
X441711Y439438D01*
X442139Y438405D01*
X442820Y437517D01*
X443708Y436836D01*
X444742Y436408D01*
X445851Y436262D01*
X446960Y436408D01*
X447994Y436836D01*
X448882Y437517D01*
X449563Y438405D01*
X449991Y439438D01*
X450137Y440548D01*
X449991Y441657D01*
X449563Y442691D01*
X448882Y443578D01*
X447994Y444260D01*
X446960Y444688D01*
X445851Y444834D01*
D02*
G37*
G36*
X627351Y458540D02*
X626532Y458377D01*
X625837Y457913D01*
X625373Y457218D01*
X625210Y456399D01*
X625373Y455579D01*
X625837Y454885D01*
X626434Y454486D01*
Y447399D01*
X626503Y447048D01*
X626702Y446750D01*
X640434Y433019D01*
Y396399D01*
X640503Y396048D01*
X640702Y395750D01*
X646350Y390102D01*
X646210Y389399D01*
X646373Y388579D01*
X646837Y387885D01*
X647434Y387486D01*
X647592Y386937D01*
X647055Y386400D01*
X646351Y386540D01*
X645532Y386377D01*
X644837Y385913D01*
X644373Y385218D01*
X644210Y384399D01*
X644373Y383579D01*
X644837Y382885D01*
X645532Y382421D01*
X646351Y382258D01*
X647170Y382421D01*
X647865Y382885D01*
X648329Y383579D01*
X648492Y384399D01*
X648352Y385102D01*
X651000Y387750D01*
X651199Y388048D01*
X651269Y388399D01*
Y390399D01*
X651199Y390750D01*
X651000Y391048D01*
X644269Y397779D01*
Y434399D01*
X644199Y434750D01*
X644000Y435048D01*
X631269Y447779D01*
Y451486D01*
X631865Y451885D01*
X632329Y452579D01*
X632492Y453399D01*
X632329Y454218D01*
X631865Y454913D01*
X631171Y455377D01*
X630351Y455540D01*
X629783Y455427D01*
X629379Y455831D01*
X629492Y456399D01*
X629329Y457218D01*
X628865Y457913D01*
X628170Y458377D01*
X627351Y458540D01*
D02*
G37*
G36*
X648351Y401540D02*
X647532Y401377D01*
X646837Y400913D01*
X646373Y400218D01*
X646210Y399399D01*
X646373Y398579D01*
X646837Y397885D01*
X647434Y397486D01*
Y396399D01*
X647503Y396048D01*
X647702Y395750D01*
X653434Y390019D01*
Y378311D01*
X652837Y377913D01*
X652373Y377218D01*
X652210Y376399D01*
X652373Y375579D01*
X652837Y374885D01*
X653532Y374421D01*
X654351Y374258D01*
X655170Y374421D01*
X655865Y374885D01*
X656329Y375579D01*
X656492Y376399D01*
X656329Y377218D01*
X655865Y377913D01*
X655269Y378311D01*
Y390399D01*
X655199Y390750D01*
X655000Y391048D01*
X649269Y396779D01*
Y397486D01*
X649865Y397885D01*
X650329Y398579D01*
X650492Y399399D01*
X650329Y400218D01*
X649865Y400913D01*
X649170Y401377D01*
X648351Y401540D01*
D02*
G37*
G36*
X650987Y356641D02*
X649556Y356500D01*
X647699Y355937D01*
X645988Y355022D01*
X644488Y353791D01*
X643258Y352292D01*
X642343Y350580D01*
X642304Y350451D01*
X641842Y350260D01*
X640956Y350734D01*
X639353Y351220D01*
X638187Y351335D01*
Y342843D01*
Y334351D01*
X639353Y334466D01*
X640956Y334952D01*
X642432Y335741D01*
X643727Y336803D01*
X644789Y338098D01*
X645142Y338758D01*
X645632Y338855D01*
X645988Y338563D01*
X647699Y337649D01*
X649556Y337085D01*
X650987Y336944D01*
Y346793D01*
Y356641D01*
D02*
G37*
G36*
X651987D02*
Y347293D01*
X661336D01*
X661195Y348724D01*
X660631Y350580D01*
X659717Y352292D01*
X658486Y353791D01*
X656986Y355022D01*
X655275Y355937D01*
X653418Y356500D01*
X651987Y356641D01*
D02*
G37*
G36*
X637187Y351335D02*
X636021Y351220D01*
X634419Y350734D01*
X632942Y349944D01*
X631648Y348882D01*
X630585Y347588D01*
X629796Y346111D01*
X629310Y344509D01*
X629195Y343343D01*
X637187D01*
Y351335D01*
D02*
G37*
G36*
X661336Y346293D02*
X651987D01*
Y336944D01*
X653418Y337085D01*
X655275Y337649D01*
X656986Y338563D01*
X658486Y339794D01*
X659717Y341294D01*
X660631Y343005D01*
X661195Y344862D01*
X661336Y346293D01*
D02*
G37*
G36*
X637187Y342343D02*
X629195D01*
X629310Y341176D01*
X629796Y339574D01*
X630585Y338098D01*
X631648Y336803D01*
X632942Y335741D01*
X634419Y334952D01*
X636021Y334466D01*
X637187Y334351D01*
Y342343D01*
D02*
G37*
G36*
X651487Y333878D02*
X649690Y333737D01*
X647938Y333316D01*
X646273Y332626D01*
X644736Y331685D01*
X643366Y330514D01*
X642195Y329144D01*
X641254Y327607D01*
X640564Y325942D01*
X640143Y324189D01*
X640002Y322393D01*
X640143Y320596D01*
X640564Y318844D01*
X641254Y317178D01*
X642195Y315642D01*
X643366Y314271D01*
X644736Y313101D01*
X646273Y312159D01*
X647938Y311469D01*
X649690Y311049D01*
X651487Y310907D01*
X653284Y311049D01*
X655036Y311469D01*
X656701Y312159D01*
X658238Y313101D01*
X659609Y314271D01*
X660779Y315642D01*
X661721Y317178D01*
X662410Y318844D01*
X662831Y320596D01*
X662972Y322393D01*
X662831Y324189D01*
X662410Y325942D01*
X661721Y327607D01*
X660779Y329144D01*
X659609Y330514D01*
X658238Y331685D01*
X656701Y332626D01*
X655036Y333316D01*
X653284Y333737D01*
X651487Y333878D01*
D02*
G37*
G36*
X636515Y312432D02*
X635142Y312297D01*
X633821Y311896D01*
X632604Y311246D01*
X631537Y310370D01*
X630662Y309304D01*
X630012Y308087D01*
X629611Y306766D01*
X629476Y305393D01*
X629611Y304019D01*
X630012Y302699D01*
X630662Y301482D01*
X631537Y300415D01*
X632604Y299540D01*
X633821Y298889D01*
X635142Y298489D01*
X636515Y298353D01*
X637888Y298489D01*
X639209Y298889D01*
X640426Y299540D01*
X641493Y300415D01*
X642368Y301482D01*
X643019Y302699D01*
X643419Y304019D01*
X643554Y305393D01*
X643419Y306766D01*
X643019Y308087D01*
X642368Y309304D01*
X641493Y310370D01*
X640426Y311246D01*
X639209Y311896D01*
X637888Y312297D01*
X636515Y312432D01*
D02*
G37*
G36*
X651715Y304428D02*
X650265Y304285D01*
X648870Y303862D01*
X647585Y303174D01*
X646458Y302250D01*
X645533Y301123D01*
X644846Y299838D01*
X644423Y298443D01*
X644280Y296993D01*
X644423Y295542D01*
X644846Y294147D01*
X645533Y292862D01*
X646458Y291736D01*
X647585Y290811D01*
X648870Y290124D01*
X650265Y289701D01*
X651715Y289558D01*
X653166Y289701D01*
X654560Y290124D01*
X655846Y290811D01*
X656972Y291736D01*
X657897Y292862D01*
X658584Y294147D01*
X659007Y295542D01*
X659150Y296993D01*
X659007Y298443D01*
X658584Y299838D01*
X657897Y301123D01*
X656972Y302250D01*
X655846Y303174D01*
X654560Y303862D01*
X653166Y304285D01*
X651715Y304428D01*
D02*
G37*
G36*
X447851Y293730D02*
X447032Y293567D01*
X446337Y293103D01*
X445873Y292408D01*
X445710Y291589D01*
X445873Y290769D01*
X446337Y290075D01*
X447032Y289611D01*
X447851Y289448D01*
X448670Y289611D01*
X449365Y290075D01*
X449829Y290769D01*
X449992Y291589D01*
X449829Y292408D01*
X449365Y293103D01*
X448670Y293567D01*
X447851Y293730D01*
D02*
G37*
G36*
X486037Y292182D02*
X483174D01*
Y289320D01*
X486037D01*
Y292182D01*
D02*
G37*
G36*
X482174D02*
X479312D01*
Y289320D01*
X482174D01*
Y292182D01*
D02*
G37*
G36*
X616715Y295782D02*
X615734Y295653D01*
X614820Y295275D01*
X614035Y294672D01*
X613433Y293888D01*
X613055Y292973D01*
X612925Y291993D01*
X613055Y291012D01*
X613433Y290098D01*
X614035Y289313D01*
X614820Y288711D01*
X615734Y288332D01*
X616715Y288203D01*
X617696Y288332D01*
X618610Y288711D01*
X619395Y289313D01*
X619997Y290098D01*
X620376Y291012D01*
X620505Y291993D01*
X620376Y292973D01*
X619997Y293888D01*
X619395Y294672D01*
X618610Y295275D01*
X617696Y295653D01*
X616715Y295782D01*
D02*
G37*
G36*
X486037Y288320D02*
X483174D01*
Y285457D01*
X486037D01*
Y288320D01*
D02*
G37*
G36*
X482174D02*
X479312D01*
Y285457D01*
X482174D01*
Y288320D01*
D02*
G37*
G36*
X496037Y292282D02*
X489112D01*
Y285357D01*
X496037D01*
Y292282D01*
D02*
G37*
G36*
X476237D02*
X469312D01*
Y285357D01*
X476237D01*
Y292282D01*
D02*
G37*
G36*
X626715Y290782D02*
X625734Y290653D01*
X624820Y290275D01*
X624035Y289672D01*
X623433Y288888D01*
X623055Y287973D01*
X622926Y286993D01*
X623055Y286012D01*
X623433Y285098D01*
X624035Y284313D01*
X624820Y283711D01*
X625734Y283332D01*
X626715Y283203D01*
X627696Y283332D01*
X628610Y283711D01*
X629395Y284313D01*
X629997Y285098D01*
X630376Y286012D01*
X630505Y286993D01*
X630376Y287973D01*
X629997Y288888D01*
X629395Y289672D01*
X628610Y290275D01*
X627696Y290653D01*
X626715Y290782D01*
D02*
G37*
G36*
X616715Y285782D02*
X615734Y285653D01*
X614820Y285275D01*
X614035Y284672D01*
X613433Y283888D01*
X613055Y282974D01*
X612925Y281993D01*
X613055Y281012D01*
X613433Y280098D01*
X614035Y279313D01*
X614820Y278711D01*
X615734Y278332D01*
X616715Y278203D01*
X617696Y278332D01*
X618610Y278711D01*
X619395Y279313D01*
X619997Y280098D01*
X620376Y281012D01*
X620505Y281993D01*
X620376Y282974D01*
X619997Y283888D01*
X619395Y284672D01*
X618610Y285275D01*
X617696Y285653D01*
X616715Y285782D01*
D02*
G37*
G36*
X626715Y280782D02*
X625734Y280653D01*
X624820Y280275D01*
X624035Y279672D01*
X623433Y278888D01*
X623055Y277974D01*
X622926Y276993D01*
X623055Y276012D01*
X623433Y275098D01*
X624035Y274313D01*
X624820Y273711D01*
X625734Y273332D01*
X626715Y273203D01*
X627696Y273332D01*
X628610Y273711D01*
X629395Y274313D01*
X629997Y275098D01*
X630376Y276012D01*
X630505Y276993D01*
X630376Y277974D01*
X629997Y278888D01*
X629395Y279672D01*
X628610Y280275D01*
X627696Y280653D01*
X626715Y280782D01*
D02*
G37*
G36*
X616715Y275782D02*
X615734Y275653D01*
X614820Y275275D01*
X614035Y274672D01*
X613433Y273888D01*
X613055Y272973D01*
X612925Y271993D01*
X613055Y271012D01*
X613433Y270098D01*
X614035Y269313D01*
X614820Y268711D01*
X615734Y268332D01*
X616715Y268203D01*
X617696Y268332D01*
X618610Y268711D01*
X619395Y269313D01*
X619997Y270098D01*
X620376Y271012D01*
X620505Y271993D01*
X620376Y272973D01*
X619997Y273888D01*
X619395Y274672D01*
X618610Y275275D01*
X617696Y275653D01*
X616715Y275782D01*
D02*
G37*
G36*
X626715Y270782D02*
X625734Y270653D01*
X624820Y270275D01*
X624035Y269672D01*
X623433Y268888D01*
X623055Y267973D01*
X622926Y266993D01*
X623055Y266012D01*
X623433Y265098D01*
X624035Y264313D01*
X624820Y263711D01*
X625734Y263332D01*
X626715Y263203D01*
X627696Y263332D01*
X628610Y263711D01*
X629395Y264313D01*
X629997Y265098D01*
X630376Y266012D01*
X630505Y266993D01*
X630376Y267973D01*
X629997Y268888D01*
X629395Y269672D01*
X628610Y270275D01*
X627696Y270653D01*
X626715Y270782D01*
D02*
G37*
G36*
X616715Y265782D02*
X615734Y265653D01*
X614820Y265275D01*
X614035Y264672D01*
X613433Y263888D01*
X613055Y262973D01*
X612925Y261993D01*
X613055Y261012D01*
X613433Y260098D01*
X614035Y259313D01*
X614820Y258711D01*
X615734Y258332D01*
X616715Y258203D01*
X617696Y258332D01*
X618610Y258711D01*
X619395Y259313D01*
X619997Y260098D01*
X620376Y261012D01*
X620505Y261993D01*
X620376Y262973D01*
X619997Y263888D01*
X619395Y264672D01*
X618610Y265275D01*
X617696Y265653D01*
X616715Y265782D01*
D02*
G37*
G36*
X626715Y260782D02*
X625734Y260653D01*
X624820Y260275D01*
X624035Y259672D01*
X623433Y258888D01*
X623055Y257974D01*
X622926Y256993D01*
X623055Y256012D01*
X623433Y255098D01*
X624035Y254313D01*
X624820Y253711D01*
X625734Y253332D01*
X626715Y253203D01*
X627696Y253332D01*
X628610Y253711D01*
X629395Y254313D01*
X629997Y255098D01*
X630376Y256012D01*
X630505Y256993D01*
X630376Y257974D01*
X629997Y258888D01*
X629395Y259672D01*
X628610Y260275D01*
X627696Y260653D01*
X626715Y260782D01*
D02*
G37*
G36*
X651715Y259427D02*
X650265Y259285D01*
X648870Y258862D01*
X647585Y258174D01*
X646458Y257250D01*
X645533Y256123D01*
X644846Y254838D01*
X644423Y253443D01*
X644280Y251993D01*
X644423Y250542D01*
X644846Y249148D01*
X645533Y247862D01*
X646458Y246736D01*
X647585Y245811D01*
X648870Y245124D01*
X650265Y244701D01*
X651715Y244558D01*
X653166Y244701D01*
X654560Y245124D01*
X655846Y245811D01*
X656972Y246736D01*
X657897Y247862D01*
X658584Y249148D01*
X659007Y250542D01*
X659150Y251993D01*
X659007Y253443D01*
X658584Y254838D01*
X657897Y256123D01*
X656972Y257250D01*
X655846Y258174D01*
X654560Y258862D01*
X653166Y259285D01*
X651715Y259427D01*
D02*
G37*
G36*
X636515Y250532D02*
X635142Y250397D01*
X633821Y249996D01*
X632604Y249346D01*
X631537Y248470D01*
X630662Y247404D01*
X630012Y246187D01*
X629611Y244866D01*
X629476Y243493D01*
X629611Y242119D01*
X630012Y240799D01*
X630662Y239582D01*
X631537Y238515D01*
X632604Y237640D01*
X633821Y236989D01*
X635142Y236589D01*
X636515Y236453D01*
X637888Y236589D01*
X639209Y236989D01*
X640426Y237640D01*
X641493Y238515D01*
X642368Y239582D01*
X643019Y240799D01*
X643419Y242119D01*
X643554Y243493D01*
X643419Y244866D01*
X643019Y246187D01*
X642368Y247404D01*
X641493Y248470D01*
X640426Y249346D01*
X639209Y249996D01*
X637888Y250397D01*
X636515Y250532D01*
D02*
G37*
G36*
X669999Y227536D02*
X668529Y227391D01*
X667115Y226962D01*
X665812Y226266D01*
X664670Y225329D01*
X663733Y224187D01*
X663036Y222884D01*
X662608Y221470D01*
X662463Y220000D01*
X662608Y218529D01*
X663036Y217116D01*
X663733Y215813D01*
X664670Y214671D01*
X665812Y213734D01*
X667115Y213037D01*
X668529Y212608D01*
X669999Y212463D01*
X671469Y212608D01*
X672883Y213037D01*
X674186Y213734D01*
X675328Y214671D01*
X676265Y215813D01*
X676962Y217116D01*
X677391Y218529D01*
X677535Y220000D01*
X677391Y221470D01*
X676962Y222884D01*
X676265Y224187D01*
X675328Y225329D01*
X674186Y226266D01*
X672883Y226962D01*
X671469Y227391D01*
X669999Y227536D01*
D02*
G37*
G36*
X326175Y347700D02*
X326127Y347628D01*
X326011Y347043D01*
X326127Y346458D01*
X326175Y346385D01*
X326833Y347043D01*
X326175Y347700D01*
D02*
G37*
G36*
X347881Y403355D02*
X347179Y403215D01*
X346584Y402817D01*
X346186Y402221D01*
X346046Y401519D01*
X346186Y400817D01*
X346584Y400221D01*
X347179Y399824D01*
X347881Y399684D01*
X348584Y399824D01*
X349179Y400221D01*
X349577Y400817D01*
X349717Y401519D01*
X349577Y402221D01*
X349179Y402817D01*
X348584Y403215D01*
X347881Y403355D01*
D02*
G37*
G36*
X296592Y373476D02*
X294447D01*
X295519Y372404D01*
X296592Y373476D01*
D02*
G37*
G36*
X293740Y372769D02*
Y369640D01*
X295166Y371066D01*
X295519Y370712D01*
X295873Y371066D01*
X297299Y369640D01*
Y372769D01*
X295873Y371343D01*
X295519Y371696D01*
X295166Y371343D01*
X293740Y372769D01*
D02*
G37*
G36*
X295519Y370005D02*
X294447Y368933D01*
X296592D01*
X295519Y370005D01*
D02*
G37*
G36*
X356051Y368278D02*
X355349Y368138D01*
X354754Y367741D01*
X354356Y367145D01*
X354216Y366443D01*
X354356Y365740D01*
X354754Y365145D01*
X355349Y364747D01*
X356051Y364608D01*
X356754Y364747D01*
X357349Y365145D01*
X357747Y365740D01*
X357887Y366443D01*
X357747Y367145D01*
X357349Y367741D01*
X356754Y368138D01*
X356051Y368278D01*
D02*
G37*
G36*
X250014Y362016D02*
X249311Y361876D01*
X248716Y361478D01*
X248318Y360883D01*
X248178Y360181D01*
X248318Y359478D01*
X248716Y358883D01*
X249311Y358485D01*
X250014Y358345D01*
X250716Y358485D01*
X251311Y358883D01*
X251709Y359478D01*
X251849Y360181D01*
X251709Y360883D01*
X251311Y361478D01*
X250716Y361876D01*
X250014Y362016D01*
D02*
G37*
G36*
X357200Y350250D02*
Y348105D01*
X358273Y349178D01*
X357200Y350250D01*
D02*
G37*
G36*
X241818Y339049D02*
X240970Y338937D01*
X240179Y338610D01*
X239901Y338396D01*
X241818Y336478D01*
X243736Y338396D01*
X243458Y338610D01*
X242667Y338937D01*
X241818Y339049D01*
D02*
G37*
G36*
X244443Y337689D02*
X242526Y335771D01*
X244443Y333853D01*
X244657Y334132D01*
X244985Y334923D01*
X245096Y335771D01*
X244985Y336620D01*
X244657Y337410D01*
X244443Y337689D01*
D02*
G37*
G36*
X241818Y335064D02*
X239901Y333146D01*
X240179Y332932D01*
X240970Y332605D01*
X241818Y332493D01*
X242667Y332605D01*
X243458Y332932D01*
X243736Y333146D01*
X241818Y335064D01*
D02*
G37*
G36*
X340300Y330149D02*
Y328004D01*
X341373Y329076D01*
X340300Y330149D01*
D02*
G37*
G36*
Y325182D02*
Y323037D01*
X341373Y324110D01*
X340300Y325182D01*
D02*
G37*
G36*
X357200Y335115D02*
Y332970D01*
X358273Y334043D01*
X357200Y335115D01*
D02*
G37*
G36*
Y329629D02*
Y327484D01*
X358273Y328556D01*
X357200Y329629D01*
D02*
G37*
G36*
Y324467D02*
Y322322D01*
X358273Y323394D01*
X357200Y324467D01*
D02*
G37*
G36*
Y320015D02*
Y317870D01*
X358273Y318943D01*
X357200Y320015D01*
D02*
G37*
G36*
X336355Y293161D02*
X334211D01*
X335283Y292089D01*
X336355Y293161D01*
D02*
G37*
G36*
X579499Y306236D02*
X578029Y306091D01*
X576615Y305662D01*
X575312Y304966D01*
X574170Y304029D01*
X573233Y302887D01*
X572537Y301584D01*
X572108Y300170D01*
X571963Y298700D01*
X572108Y297229D01*
X572537Y295816D01*
X573233Y294513D01*
X574170Y293371D01*
X575312Y292434D01*
X576615Y291737D01*
X578029Y291308D01*
X579499Y291163D01*
X580969Y291308D01*
X582383Y291737D01*
X583686Y292434D01*
X584828Y293371D01*
X585765Y294513D01*
X586462Y295816D01*
X586891Y297229D01*
X587035Y298700D01*
X586891Y300170D01*
X586462Y301584D01*
X585765Y302887D01*
X584828Y304029D01*
X583686Y304966D01*
X582383Y305662D01*
X580969Y306091D01*
X579499Y306236D01*
D02*
G37*
G36*
X219299Y192036D02*
X217829Y191891D01*
X216415Y191462D01*
X215112Y190766D01*
X213970Y189829D01*
X213033Y188687D01*
X212336Y187384D01*
X211908Y185970D01*
X211763Y184500D01*
X211908Y183029D01*
X212336Y181616D01*
X213033Y180313D01*
X213970Y179171D01*
X215112Y178234D01*
X216415Y177537D01*
X217829Y177108D01*
X219299Y176963D01*
X220769Y177108D01*
X222183Y177537D01*
X223486Y178234D01*
X224628Y179171D01*
X225565Y180313D01*
X226262Y181616D01*
X226691Y183029D01*
X226835Y184500D01*
X226691Y185970D01*
X226262Y187384D01*
X225565Y188687D01*
X224628Y189829D01*
X223486Y190766D01*
X222183Y191462D01*
X220769Y191891D01*
X219299Y192036D01*
D02*
G37*
G36*
X400851Y172040D02*
X400032Y171877D01*
X399337Y171413D01*
X398873Y170718D01*
X398710Y169899D01*
X398873Y169079D01*
X399337Y168385D01*
X400032Y167921D01*
X400851Y167758D01*
X401194Y167826D01*
X402311Y166709D01*
X402708Y166443D01*
X403176Y166350D01*
X411350D01*
X411641Y165916D01*
X412402Y165407D01*
X413299Y165229D01*
X414197Y165407D01*
X414957Y165916D01*
X415466Y166676D01*
X415644Y167574D01*
X415466Y168471D01*
X414957Y169232D01*
X414197Y169740D01*
X413299Y169919D01*
X412402Y169740D01*
X411641Y169232D01*
X411350Y168797D01*
X403683D01*
X402924Y169556D01*
X402992Y169899D01*
X402829Y170718D01*
X402365Y171413D01*
X401671Y171877D01*
X400851Y172040D01*
D02*
G37*
G36*
X248560Y295523D02*
X246415D01*
X247488Y294451D01*
X248560Y295523D01*
D02*
G37*
G36*
X249267Y294816D02*
X247841Y293390D01*
X247488Y293744D01*
X247134Y293390D01*
X245708Y294816D01*
Y291687D01*
X247134Y293113D01*
X247488Y292759D01*
X247841Y293113D01*
X249267Y291687D01*
Y294816D01*
D02*
G37*
G36*
X247488Y292052D02*
X246415Y290980D01*
X248560D01*
X247488Y292052D01*
D02*
G37*
G36*
X266624Y280215D02*
X264479D01*
X265551Y279142D01*
X266624Y280215D01*
D02*
G37*
%LPD*%
D10*
X364023Y257425D02*
D03*
Y252307D02*
D03*
Y266480D02*
D03*
Y261362D02*
D03*
D11*
X330165Y290889D02*
D03*
X335283D02*
D03*
X270670Y277943D02*
D03*
X265551D02*
D03*
X242370Y293251D02*
D03*
X247488D02*
D03*
X359299Y246401D02*
D03*
X364417D02*
D03*
X322685Y250732D02*
D03*
X317566D02*
D03*
X295519Y371204D02*
D03*
X300637D02*
D03*
D12*
X248275Y312149D02*
D03*
Y308212D02*
D03*
X354952Y251311D02*
D03*
Y247374D02*
D03*
D14*
X301031Y273567D02*
D03*
X304968D02*
D03*
X362720Y328556D02*
D03*
X358783D02*
D03*
X362720Y334043D02*
D03*
X358783D02*
D03*
X362720Y344043D02*
D03*
X358783D02*
D03*
X358783Y339043D02*
D03*
X362720D02*
D03*
X345920Y319143D02*
D03*
X341983D02*
D03*
X345820Y329076D02*
D03*
X341883D02*
D03*
X345820Y324110D02*
D03*
X341883D02*
D03*
X362720Y314043D02*
D03*
X358783D02*
D03*
X362720Y323394D02*
D03*
X358783D02*
D03*
X358683Y309069D02*
D03*
X362620D02*
D03*
X345820Y334043D02*
D03*
X341883D02*
D03*
X358783Y349178D02*
D03*
X362720D02*
D03*
Y318943D02*
D03*
X358783D02*
D03*
Y304501D02*
D03*
X362720D02*
D03*
D32*
X536453Y344899D02*
X542451D01*
Y347898D01*
X541452Y348897D01*
X540452D01*
X539452Y347898D01*
Y344899D01*
Y347898D01*
X538452Y348897D01*
X537453D01*
X536453Y347898D01*
Y344899D01*
X542451Y351897D02*
Y353896D01*
X541452Y354895D01*
X539452D01*
X538452Y353896D01*
Y351897D01*
X539452Y350897D01*
X541452D01*
X542451Y351897D01*
X537453Y357894D02*
X538452D01*
Y356895D01*
Y358894D01*
Y357894D01*
X541452D01*
X542451Y358894D01*
X320913Y318443D02*
X330051D01*
X330651Y319043D02*
Y324143D01*
X330051Y318443D02*
X330651Y319043D01*
X320913Y318443D02*
Y318448D01*
X320451Y347043D02*
X327540D01*
X317652Y344243D02*
X320451Y347043D01*
X358752Y352643D02*
X358783Y352611D01*
Y349178D02*
Y352611D01*
Y326043D02*
Y328556D01*
Y323394D02*
Y326043D01*
Y328556D02*
Y333719D01*
Y318943D02*
Y323394D01*
X341883Y324110D02*
Y329076D01*
X339152Y324043D02*
X339218Y324110D01*
X341883D01*
X363851Y268943D02*
Y269143D01*
Y268226D02*
Y268943D01*
Y268226D02*
X364811Y267267D01*
X364023Y252307D02*
Y252700D01*
Y249971D02*
Y252307D01*
X362052Y249843D02*
X362152Y249943D01*
X364052D01*
X351652Y246443D02*
X354611D01*
X335283Y290889D02*
X338039D01*
X325259Y249551D02*
X327606D01*
X285251Y341143D02*
X285283Y341174D01*
Y346204D01*
X317161Y338133D02*
X320913D01*
X316251Y339043D02*
X317161Y338133D01*
X316251Y339043D02*
Y341043D01*
X317652Y342443D01*
Y344243D01*
X322291Y274551D02*
X328044D01*
X329651Y272943D01*
X364023Y249971D02*
X364052Y249943D01*
Y246766D02*
X364417Y246401D01*
X364052Y246766D02*
Y249943D01*
X354611Y246443D02*
X354952Y246784D01*
X325259Y249551D02*
X325267Y249543D01*
X325751D01*
X329574Y249551D02*
Y254220D01*
X328151Y255643D02*
X329574Y254220D01*
X328151Y255643D02*
Y255843D01*
X328051Y255943D02*
X328151Y255843D01*
X327652Y255943D02*
X328051D01*
X344732Y268055D02*
Y270417D01*
X346897Y272582D01*
X354574D01*
X344732Y266480D02*
Y268055D01*
Y266480D02*
X346503Y264708D01*
X354574D01*
X248275Y303567D02*
Y308212D01*
X304968Y341677D02*
Y346204D01*
X303393Y340102D02*
X304968Y341677D01*
X364023Y266480D02*
X364811Y267267D01*
X163247Y340191D02*
Y334193D01*
X166246D01*
X167245Y335192D01*
Y336192D01*
X166246Y337192D01*
X163247D01*
X166246D01*
X167245Y338192D01*
Y339191D01*
X166246Y340191D01*
X163247D01*
X170245Y334193D02*
X172244D01*
X173244Y335192D01*
Y337192D01*
X172244Y338192D01*
X170245D01*
X169245Y337192D01*
Y335192D01*
X170245Y334193D01*
X176243Y339191D02*
Y338192D01*
X175243D01*
X177242D01*
X176243D01*
Y335192D01*
X177242Y334193D01*
X186239Y340191D02*
Y334193D01*
X190238D01*
X193237Y338192D02*
X195237D01*
X196236Y337192D01*
Y334193D01*
X193237D01*
X192237Y335192D01*
X193237Y336192D01*
X196236D01*
X198235Y338192D02*
Y335192D01*
X199235Y334193D01*
X202234D01*
Y333193D01*
X201235Y332193D01*
X200235D01*
X202234Y334193D02*
Y338192D01*
X207233Y334193D02*
X205233D01*
X204234Y335192D01*
Y337192D01*
X205233Y338192D01*
X207233D01*
X208232Y337192D01*
Y336192D01*
X204234D01*
X210232Y338192D02*
Y334193D01*
Y336192D01*
X211231Y337192D01*
X212231Y338192D01*
X213231D01*
X556453Y348398D02*
Y346398D01*
X557453Y345399D01*
X561451D01*
X562451Y346398D01*
Y348398D01*
X561451Y349397D01*
X557453D01*
X556453Y348398D01*
X558452Y351397D02*
X561451D01*
X562451Y352396D01*
Y355396D01*
X558452D01*
X557453Y358395D02*
X558452D01*
Y357395D01*
Y359394D01*
Y358395D01*
X561451D01*
X562451Y359394D01*
Y362393D02*
Y364393D01*
Y363393D01*
X556453D01*
Y362393D01*
X562451Y367392D02*
Y369391D01*
Y368391D01*
X558452D01*
Y367392D01*
X562451Y372390D02*
X558452D01*
Y375389D01*
X559452Y376389D01*
X562451D01*
Y381387D02*
Y379388D01*
X561451Y378388D01*
X559452D01*
X558452Y379388D01*
Y381387D01*
X559452Y382387D01*
X560452D01*
Y378388D01*
X172744Y297358D02*
X170744D01*
X169745Y296358D01*
Y292360D01*
X170744Y291360D01*
X172744D01*
X173743Y292360D01*
Y296358D01*
X172744Y297358D01*
X175743Y295359D02*
Y292360D01*
X176742Y291360D01*
X179742D01*
Y295359D01*
X182740Y296358D02*
Y295359D01*
X181741D01*
X183740D01*
X182740D01*
Y292360D01*
X183740Y291360D01*
X186739D02*
X188739D01*
X187739D01*
Y297358D01*
X186739D01*
X191738Y291360D02*
X193737D01*
X192737D01*
Y295359D01*
X191738D01*
X196736Y291360D02*
Y295359D01*
X199735D01*
X200735Y294359D01*
Y291360D01*
X205733D02*
X203734D01*
X202734Y292360D01*
Y294359D01*
X203734Y295359D01*
X205733D01*
X206733Y294359D01*
Y293359D01*
X202734D01*
X582951Y345399D02*
X576953D01*
X578952Y347398D01*
X576953Y349397D01*
X582951D01*
X578952Y351397D02*
X581952D01*
X582951Y352396D01*
Y355396D01*
X578952D01*
X582951Y357395D02*
Y359394D01*
Y358395D01*
X576953D01*
Y357395D01*
X577953Y363393D02*
X578952D01*
Y362393D01*
Y364393D01*
Y363393D01*
X581952D01*
X582951Y364393D01*
Y367392D02*
Y369391D01*
Y368391D01*
X578952D01*
Y367392D01*
X576953Y372390D02*
X582951D01*
Y376389D01*
X578952Y379388D02*
Y381387D01*
X579952Y382387D01*
X582951D01*
Y379388D01*
X581952Y378388D01*
X580952Y379388D01*
Y382387D01*
X578952Y384386D02*
X581952D01*
X582951Y385386D01*
Y388385D01*
X583951D01*
X584950Y387385D01*
Y386385D01*
X582951Y388385D02*
X578952D01*
X582951Y393383D02*
Y391384D01*
X581952Y390384D01*
X579952D01*
X578952Y391384D01*
Y393383D01*
X579952Y394383D01*
X580952D01*
Y390384D01*
X578952Y396382D02*
X582951D01*
X580952D01*
X579952Y397382D01*
X578952Y398382D01*
Y399381D01*
X161747Y272943D02*
Y278941D01*
X163747Y276942D01*
X165746Y278941D01*
Y272943D01*
X167745Y276942D02*
Y273942D01*
X168745Y272943D01*
X171744D01*
Y276942D01*
X173743Y272943D02*
X175743D01*
X174743D01*
Y278941D01*
X173743D01*
X179742Y277941D02*
Y276942D01*
X178742D01*
X180741D01*
X179742D01*
Y273942D01*
X180741Y272943D01*
X183740D02*
X185740D01*
X184740D01*
Y276942D01*
X183740D01*
X188739Y272943D02*
X190738D01*
X189738D01*
Y278941D01*
X188739D01*
X194737Y276942D02*
X196736D01*
X197736Y275942D01*
Y272943D01*
X194737D01*
X193737Y273942D01*
X194737Y274942D01*
X197736D01*
X199735Y276942D02*
Y273942D01*
X200735Y272943D01*
X203734D01*
Y271943D01*
X202734Y270943D01*
X201734D01*
X203734Y272943D02*
Y276942D01*
X208732Y272943D02*
X206733D01*
X205733Y273942D01*
Y275942D01*
X206733Y276942D01*
X208732D01*
X209732Y275942D01*
Y274942D01*
X205733D01*
X211731Y276942D02*
Y272943D01*
Y274942D01*
X212731Y275942D01*
X213731Y276942D01*
X214730D01*
D33*
X410650Y147899D02*
Y147900D01*
X418399Y222947D02*
Y257447D01*
X254851Y157399D02*
Y168399D01*
Y157399D02*
X264351Y147899D01*
X635799Y449000D02*
X637250D01*
X658351Y427899D01*
Y410899D02*
Y427899D01*
X418399Y257447D02*
X421351Y260399D01*
X422851D01*
X428036Y145199D02*
X430336Y142899D01*
X435998D01*
X410999Y215547D02*
X418399Y222947D01*
X410999Y188490D02*
X414051Y185438D01*
X264351Y147899D02*
X410650D01*
X410999Y188490D02*
Y215547D01*
X626715Y266993D02*
X626985Y266724D01*
X658351Y410899D02*
X671351Y397899D01*
Y364399D02*
Y397899D01*
Y364399D02*
X680351Y355399D01*
X410650Y144504D02*
Y147899D01*
Y144504D02*
X412555Y142599D01*
X419874D01*
X422474Y145199D02*
X428036D01*
X419874Y142599D02*
X422474Y145199D01*
D34*
X417651Y149499D02*
X442500D01*
X445399Y146600D01*
X416751Y150399D02*
X417651Y149499D01*
X414451Y150399D02*
X416751D01*
X412502Y152347D02*
X414451Y150399D01*
X408890Y152347D02*
X412502D01*
X408542Y151999D02*
X408890Y152347D01*
X272751Y151999D02*
X408542D01*
X266351Y158399D02*
X272751Y151999D01*
X267500Y150799D02*
X409039D01*
X409387Y151147D01*
X411972D01*
X413921Y149199D01*
X416151D01*
X409935Y149822D02*
X411424Y149823D01*
X266600Y149599D02*
X409662D01*
X257599Y158600D02*
X266600Y149599D01*
X411424Y149823D02*
X413750Y147499D01*
X262999Y145200D02*
X406499D01*
X261251Y143000D02*
X409750D01*
X637499Y144547D02*
Y149600D01*
X621451Y128499D02*
X637499Y144547D01*
X612481Y128499D02*
X621451D01*
X618351Y122399D02*
X657351Y161399D01*
X652487Y178535D02*
Y197053D01*
X611251Y137299D02*
X652487Y178535D01*
X427299Y228951D02*
Y270500D01*
X428499Y229751D02*
X431351Y226899D01*
X428499Y229751D02*
Y252100D01*
X429699Y230551D02*
X432851Y227399D01*
X429699Y230551D02*
Y251400D01*
X433599Y231651D02*
X436351Y228899D01*
X433599Y231651D02*
Y449400D01*
X434851Y232399D02*
X438351Y228899D01*
X434851Y232399D02*
Y287848D01*
X425851Y185399D02*
Y195026D01*
X434799Y287900D02*
X434851Y287848D01*
X425099Y273000D02*
X428399D01*
X420799D02*
Y276000D01*
X429399Y253000D02*
Y272000D01*
X430699Y252400D02*
Y273100D01*
X434799Y287900D02*
Y448600D01*
X445399Y146600D02*
X510099D01*
X601416Y324817D02*
X621499Y362800D01*
X611116Y213624D02*
X614016Y210724D01*
X631316D01*
X611099Y248841D02*
X611116Y248824D01*
Y213624D02*
Y248824D01*
X601416Y324817D02*
X601516Y259124D01*
X611099Y248841D01*
X257599Y158600D02*
Y169500D01*
X254999Y172100D02*
X257599Y169500D01*
X254999Y172100D02*
Y179047D01*
X612599Y249241D02*
X612716Y248557D01*
Y215224D02*
Y248557D01*
Y215224D02*
X614816Y213524D01*
X626351D01*
X603016Y322917D02*
X620899Y355100D01*
X602916Y259524D02*
X603016Y322917D01*
X602916Y259524D02*
X612599Y249241D01*
X620899Y355100D02*
X631299D01*
X614199Y249641D02*
X614516Y249324D01*
Y217024D02*
Y249324D01*
Y217024D02*
X615916Y215624D01*
X633916D01*
X652487Y197053D01*
X604516Y321817D02*
X619599Y344600D01*
X604416Y259724D02*
X604516Y321817D01*
X604416Y259724D02*
X614199Y249641D01*
X445999Y147800D02*
X510899D01*
X439699Y154100D02*
X445999Y147800D01*
X636099Y217124D02*
X654699Y198624D01*
X617216Y217124D02*
X636099D01*
X615999Y218341D02*
X617216Y217124D01*
X615999Y218341D02*
Y249841D01*
X606116Y319317D02*
X623499Y343300D01*
X606016Y259824D02*
X606116Y319317D01*
X606016Y259824D02*
X615999Y249841D01*
X623499Y343300D02*
Y346100D01*
X621299Y348300D02*
X623499Y346100D01*
X621299Y348300D02*
Y350900D01*
X654699Y198624D02*
X654799Y166900D01*
X258899Y159400D02*
Y171600D01*
X257799Y173200D02*
X258899Y171600D01*
X257599Y173200D02*
X257799D01*
X428499Y252100D02*
X429399Y253000D01*
X428399Y273000D02*
X429399Y272000D01*
X249599Y158600D02*
X262999Y145200D01*
X243599Y158600D02*
X249599D01*
X433599Y449400D02*
X440199Y456200D01*
X498299Y456100D01*
X505899Y463700D01*
X527399D01*
X537399Y473700D01*
X556899D01*
X559799Y476600D01*
X617199D01*
X664199Y429600D01*
Y414700D02*
Y429600D01*
X615899Y474700D02*
X661699Y428900D01*
Y417300D02*
Y428900D01*
X559799Y474700D02*
X615899D01*
X434799Y448600D02*
X440999Y454900D01*
X498899D01*
X506499Y462500D01*
X528199D01*
X538199Y472500D01*
X557599D01*
X559799Y474700D01*
X512199Y150300D02*
X524199Y138300D01*
X429699Y251400D02*
X430699Y252400D01*
X428399Y275400D02*
X430699Y273100D01*
X423899Y275400D02*
X428399D01*
X422999Y274500D02*
X423899Y275400D01*
X422999Y270600D02*
Y274500D01*
X430199Y276800D02*
X432099Y274900D01*
X421599Y276800D02*
X430199D01*
X420799Y276000D02*
X421599Y276800D01*
X425851Y195026D02*
X429851Y199026D01*
X427299Y228951D02*
X429851Y226399D01*
X436351Y200399D02*
X439699Y203747D01*
Y218051D01*
X429851Y199026D02*
Y226399D01*
X427232Y218979D02*
Y220418D01*
X457950Y150300D02*
X512199D01*
X457350Y149000D02*
X511599D01*
X436351Y219399D02*
Y228899D01*
X438351Y219399D02*
X439699Y218051D01*
X438351Y219399D02*
Y228899D01*
X435651Y165599D02*
X437151D01*
X430751Y170499D02*
X435651Y165599D01*
X425851Y180899D02*
X431351Y186399D01*
Y226899D01*
X426399Y175574D02*
X432851Y182026D01*
Y227399D01*
X438251Y168099D02*
X457350Y149000D01*
X435751Y179899D02*
Y193799D01*
X437099Y195147D01*
X430751Y170499D02*
Y177499D01*
X434151Y180899D01*
Y228199D01*
X432099Y230251D02*
Y274900D01*
Y230251D02*
X434151Y228199D01*
X436351Y219399D02*
X438451Y217299D01*
X436351Y205399D02*
X438451Y207499D01*
Y217299D01*
X434848Y168099D02*
X438251D01*
X433651Y169296D02*
X434848Y168099D01*
X433651Y169296D02*
Y177799D01*
X435751Y179899D01*
X438851Y169399D02*
X457950Y150300D01*
X438851Y169399D02*
Y189399D01*
X437851Y190399D02*
X438851Y189399D01*
X645773Y180273D02*
Y186799D01*
X648299Y178200D02*
Y193741D01*
X631316Y210724D02*
X648299Y193741D01*
X600699Y138300D02*
X643451Y181052D01*
Y188952D01*
X645598Y191099D01*
X418651Y160099D02*
X421651Y157099D01*
X419851Y162947D02*
X425599Y157199D01*
X419851Y211599D02*
X427232Y218979D01*
X418651Y160099D02*
Y205899D01*
X419851Y162947D02*
Y211599D01*
X421151Y165389D02*
X429351Y157189D01*
X421151Y165389D02*
Y209638D01*
X426951Y215438D01*
X417351Y156899D02*
X420150Y154100D01*
X439699D01*
X258899Y159400D02*
X267500Y150799D01*
X427951Y142099D02*
X430050Y140000D01*
X422451Y142099D02*
X427951D01*
X444650Y144300D02*
X509599D01*
X440651Y148299D02*
X444650Y144300D01*
X420451Y148299D02*
X440651D01*
X413851Y207999D02*
X417351Y204499D01*
Y156899D02*
Y204499D01*
X413851Y210699D02*
X418651Y205899D01*
X249852Y154399D02*
X261251Y143000D01*
X229499Y150200D02*
X239152D01*
X245950Y140800D02*
X408699D01*
X239152Y150200D02*
X242351Y147001D01*
Y143399D02*
Y147001D01*
Y143399D02*
X243351D01*
X245950Y140800D01*
X243599Y158600D02*
Y178151D01*
X254999Y179047D02*
X257351Y181399D01*
X607451Y136196D02*
Y137186D01*
X608564Y138299D01*
X610138D01*
X611251Y137186D01*
Y137299D01*
X612099Y142000D02*
X648299Y178200D01*
X631351Y220399D02*
X644351D01*
X657351Y207399D01*
X430050Y140000D02*
X510750D01*
X524351Y126399D01*
X509599Y144300D02*
X526300Y127599D01*
X611581D02*
X612481Y128499D01*
X510099Y146600D02*
X527300Y129399D01*
X602351D02*
X609351Y136399D01*
X524351Y126399D02*
X613351D01*
X526300Y127599D02*
X611581D01*
X527300Y129399D02*
X602351D01*
X510899Y147800D02*
X527300Y131399D01*
X602654D02*
X607451Y136196D01*
X527300Y131399D02*
X602654D01*
X511599Y149000D02*
X527200Y133399D01*
X598898D01*
X645773Y180273D01*
X591351Y135399D02*
Y138300D01*
X524199D02*
X591351D01*
X600699D01*
X598898Y133399D02*
Y133852D01*
X597351Y135399D02*
X598898Y133852D01*
X641351Y396399D02*
X648351Y389399D01*
X641351Y396399D02*
Y433399D01*
X627351Y447399D02*
X641351Y433399D01*
X627351Y447399D02*
Y456399D01*
X646351Y384399D02*
X650351Y388399D01*
Y390399D01*
X643351Y397399D02*
X650351Y390399D01*
X643351Y397399D02*
Y434399D01*
X630351Y447399D02*
X643351Y434399D01*
X630351Y447399D02*
Y453399D01*
X648351Y396399D02*
Y399399D01*
Y396399D02*
X654351Y390399D01*
Y376399D02*
Y390399D01*
X637499Y149600D02*
X654799Y166900D01*
X613351Y122399D02*
X618351D01*
X657351Y161399D02*
Y207399D01*
X421251Y140899D02*
X422451Y142099D01*
X411851Y140899D02*
X421251D01*
X409750Y143000D02*
X411851Y140899D01*
X417151Y144999D02*
X420451Y148299D01*
X413750Y147499D02*
X413751Y146399D01*
X417151Y144999D02*
Y148199D01*
X416151Y149199D02*
X417151Y148199D01*
X235451Y186299D02*
X243599Y178151D01*
X235451Y186299D02*
Y192499D01*
X261522Y322443D02*
X273151D01*
X261464Y322385D02*
X261522Y322443D01*
X300751Y293443D02*
X302852Y291343D01*
X305651Y300643D02*
X305766Y300757D01*
X309251Y299820D02*
X310152Y298920D01*
X302852Y291343D02*
X306252D01*
X303451Y292643D02*
X306580D01*
X307980Y294043D02*
X310980D01*
X306580Y292643D02*
X307980Y294043D01*
X315551Y300163D02*
X316951Y298763D01*
X315670Y300281D02*
Y301279D01*
X315551Y300163D02*
X315670Y300281D01*
X305651Y294643D02*
Y300643D01*
X308051Y297943D02*
Y301343D01*
X309251Y299820D02*
Y322340D01*
X310452Y300317D02*
X312651Y298117D01*
X310452Y300317D02*
Y321843D01*
X311852Y300614D02*
X313851Y298614D01*
X311852Y300614D02*
Y320643D01*
X310152Y296043D02*
Y298920D01*
X303651Y296643D02*
Y299843D01*
X303751Y299943D01*
X306252Y291343D02*
X306937Y290658D01*
X310896Y292043D02*
X310951D01*
X310874Y292065D02*
X310896Y292043D01*
X310980Y294043D02*
X311080Y294143D01*
X312623D01*
X312651Y296943D02*
X313651Y295943D01*
X312623Y294143D02*
X312823Y293943D01*
X314480D01*
X315651Y295114D01*
X301451Y294643D02*
X303451Y292643D01*
X312842Y290633D02*
X313551Y291343D01*
X312842Y286755D02*
Y290633D01*
X320913Y330259D02*
X328835D01*
X328852Y330243D01*
X311852Y320643D02*
X313594Y322385D01*
X313851Y298571D02*
Y298614D01*
X312651Y296943D02*
Y298117D01*
X313851Y298571D02*
X315651Y296771D01*
X320913Y300732D02*
X327463D01*
X320944Y302732D02*
X328291D01*
X320913Y302700D02*
X320944Y302732D01*
X328322Y302700D02*
X332651D01*
X328291Y302732D02*
X328322Y302700D01*
X296052Y294643D02*
X301451D01*
X295151Y293443D02*
X300751D01*
X276751Y311843D02*
X295151Y293443D01*
X276952Y313743D02*
X296052Y294643D01*
X268851Y313743D02*
X276952D01*
X269780Y311843D02*
X276751D01*
X289220Y293243D02*
Y296774D01*
X280152Y305843D02*
X289220Y296774D01*
X266752Y305843D02*
X280152D01*
X301952Y307443D02*
X308051Y301343D01*
X297952Y305743D02*
X303751Y299943D01*
X314452Y307543D02*
X314651D01*
X314851Y307743D01*
X314752Y307843D02*
X314851Y307743D01*
X315651Y295114D02*
Y296771D01*
X313551Y291343D02*
X316652D01*
X317352Y290643D01*
X306937Y286755D02*
Y290658D01*
X336951Y307000D02*
Y360759D01*
X325851Y370543D02*
X327168D01*
X326680Y364243D02*
X331252Y359671D01*
X324952Y364243D02*
X326680D01*
X333351Y314114D02*
Y359268D01*
X325677Y366943D02*
X333351Y359268D01*
X312452Y366943D02*
X325677D01*
X334552Y308537D02*
Y359765D01*
X326174Y368143D02*
X334552Y359765D01*
X314251Y368143D02*
X326174D01*
X335752Y307769D02*
Y360262D01*
X326671Y369343D02*
X335752Y360262D01*
X320851Y369343D02*
X326671D01*
X327168Y370543D02*
X336951Y360759D01*
X331252Y353443D02*
Y359671D01*
X330751Y352943D02*
X331252Y353443D01*
X325851Y352943D02*
X329552Y349243D01*
X330751Y336743D02*
Y352943D01*
X326237Y332228D02*
X330751Y336743D01*
X320913Y332228D02*
X326237D01*
X332651Y302700D02*
X336951Y307000D01*
X332651Y304669D02*
X335752Y307769D01*
X332651Y306637D02*
X334552Y308537D01*
X327780Y308543D02*
X333351Y314114D01*
X283314Y351126D02*
X289032Y356843D01*
X320352D01*
X288638Y358843D02*
X329252D01*
X281346Y351551D02*
X288638Y358843D01*
X329552Y341843D02*
Y349243D01*
X327151Y339443D02*
X329552Y341843D01*
X345820Y329076D02*
Y334043D01*
Y324110D02*
X345920Y324009D01*
Y319143D02*
Y324009D01*
X339152Y333943D02*
X339251Y334043D01*
X341883D01*
X341883Y319043D02*
X341983Y319143D01*
X339551Y319043D02*
X341883D01*
X313594Y322385D02*
X320913D01*
X312963Y324354D02*
X320913D01*
X310452Y321843D02*
X312963Y324354D01*
X313234Y326322D02*
X320913D01*
X309251Y322340D02*
X313234Y326322D01*
X300451Y306071D02*
X305766Y300757D01*
X301952Y307443D02*
Y327043D01*
X300451Y306071D02*
Y327743D01*
X314752Y307843D02*
Y314443D01*
X316789Y316480D01*
X320913D01*
X301952Y327043D02*
X314811Y339902D01*
X295851Y331943D02*
X297952Y329843D01*
Y305743D02*
Y329843D01*
X300451Y327743D02*
X312842Y340133D01*
X295851Y331943D02*
Y340943D01*
X314811Y339902D02*
Y346204D01*
Y339902D02*
Y340243D01*
X312842Y340133D02*
Y346204D01*
X325503Y328291D02*
X327751Y326043D01*
X320913Y328291D02*
X325503D01*
X328126Y320417D02*
X328252Y320543D01*
X320913Y320417D02*
X328126D01*
X240401Y280293D02*
X242251Y282143D01*
X240401Y266193D02*
Y280293D01*
Y266193D02*
X248552Y258043D01*
X251252Y288843D02*
X257051Y283043D01*
Y265243D02*
Y283043D01*
Y265243D02*
X262251Y260043D01*
X259452Y278243D02*
X264212Y273482D01*
X259452Y278243D02*
Y284243D01*
X261464Y286255D01*
X254952Y288112D02*
X258252Y284812D01*
Y266143D02*
Y284812D01*
Y266143D02*
X262251Y262143D01*
X267851Y267443D02*
Y271443D01*
X265812Y273482D02*
X267851Y271443D01*
X264212Y273482D02*
X265812D01*
X267851Y267443D02*
X270451Y264843D01*
X275552D01*
X322685Y247610D02*
Y250732D01*
Y247610D02*
X325851Y244443D01*
X356651D01*
X358610Y246401D01*
X359299D01*
X249999Y328291D02*
X261464D01*
X248151Y326443D02*
X249999Y328291D01*
X248151Y316543D02*
Y326443D01*
X249952Y331443D02*
X256152D01*
X245451Y326943D02*
X249952Y331443D01*
X245451Y304343D02*
Y326943D01*
X274633Y375961D02*
Y384306D01*
Y375961D02*
X277751Y372843D01*
X279633Y378061D02*
Y384306D01*
Y378061D02*
X280552Y377143D01*
X289633Y376761D02*
Y384306D01*
Y376761D02*
X289651Y376743D01*
X284633Y384306D02*
X284651Y384288D01*
Y377143D02*
Y384288D01*
X266385Y277897D02*
Y281477D01*
X269633Y377025D02*
Y384306D01*
X268952Y376343D02*
X269633Y377025D01*
X268952Y372643D02*
Y376343D01*
X264633Y372725D02*
Y384306D01*
X277151Y298543D02*
X279378Y296317D01*
Y286755D02*
Y296317D01*
X283314Y286755D02*
Y296880D01*
X280051Y299743D02*
X280451D01*
X283314Y296880D01*
X280152Y302543D02*
X285283Y297411D01*
Y286755D02*
Y297411D01*
X262251Y262143D02*
X271652D01*
X282757Y265943D02*
X286752D01*
X277409Y274685D02*
Y286755D01*
Y274685D02*
X282852Y269243D01*
X298472Y263724D02*
Y267543D01*
X296772Y269243D02*
X298472Y267543D01*
X282852Y269243D02*
X296772D01*
X275441Y274957D02*
X282354Y268043D01*
X273472Y275228D02*
X282757Y265943D01*
X295913Y263724D02*
Y266643D01*
X294513Y268043D02*
X295913Y266643D01*
X282354Y268043D02*
X294513D01*
X275441Y274957D02*
Y286755D01*
X273472Y275228D02*
Y286755D01*
X262251Y260043D02*
X276151D01*
X278252Y258043D02*
X280152Y259943D01*
X248552Y258043D02*
X278252D01*
X256135Y294826D02*
X261464D01*
X254952Y288112D02*
Y293643D01*
X256135Y294826D01*
X251252Y316543D02*
X253157Y318448D01*
X261464D01*
X254552Y296843D02*
X254599Y296795D01*
X256152D01*
X261464Y286255D02*
Y292858D01*
X242251Y282143D02*
X242370Y282261D01*
Y293251D01*
X286452Y263143D02*
X290214D01*
X290795Y263724D01*
X286452Y262543D02*
Y263143D01*
X299062Y282554D02*
Y286755D01*
X289220Y341911D02*
Y346204D01*
X285836Y338527D02*
X289220Y341911D01*
X278984Y338527D02*
X285836D01*
X270052Y340443D02*
X274755Y335740D01*
X268267Y340443D02*
X270052D01*
X263452Y345258D02*
X268267Y340443D01*
X274755Y335740D02*
X288867D01*
X263452Y345258D02*
Y347643D01*
X288867Y335740D02*
X293157Y340029D01*
Y346204D01*
X266076Y336767D02*
Y340818D01*
X242370Y301261D02*
X245451Y304343D01*
X242370Y293251D02*
Y301261D01*
X267851Y351843D02*
X267951Y351743D01*
Y351543D02*
Y351743D01*
Y351543D02*
X268251D01*
X269535Y350259D01*
Y346204D02*
Y350259D01*
X267951Y354343D02*
X269451D01*
X271503Y352291D01*
Y346204D02*
Y352291D01*
X266752Y312943D02*
Y315743D01*
X256452Y335143D02*
Y336743D01*
Y335143D02*
X257398Y334196D01*
X261464D01*
X265474Y336165D02*
X266076Y336767D01*
X261464Y336165D02*
X265474D01*
X281051Y321543D02*
X294752D01*
X276272Y326322D02*
X281051Y321543D01*
X261464Y326322D02*
X276272D01*
X280651Y319543D02*
X292352D01*
X275840Y324354D02*
X280651Y319543D01*
X261464Y324354D02*
X275840D01*
X317566Y247228D02*
X317752Y247043D01*
X317566Y247228D02*
Y250732D01*
X266452Y281543D02*
X269052D01*
X262551D02*
X266452D01*
X266385Y281477D02*
X266452Y281543D01*
X269052D02*
X269535Y282026D01*
Y286755D01*
X271503Y277897D02*
Y286755D01*
X256751Y348443D02*
Y367543D01*
X291189Y286755D02*
Y292506D01*
X290452Y293243D02*
X291189Y292506D01*
X289220Y293243D02*
X290452D01*
X289220Y286755D02*
Y293243D01*
X315792Y258803D02*
X322291D01*
X256552Y300732D02*
X261464D01*
X254341D02*
X256552D01*
Y305943D01*
X257246Y306637D01*
X261464D01*
X254252Y300643D02*
X254341Y300732D01*
X256152Y296795D02*
X261464D01*
X256152D02*
Y298043D01*
X256872Y298763D01*
X261464D01*
X257951Y372243D02*
Y376343D01*
X259633Y378025D01*
Y384610D01*
X249633Y372161D02*
Y384610D01*
X344732Y258999D02*
X346584Y260852D01*
X354574Y252503D02*
Y254866D01*
Y252503D02*
X354968Y252110D01*
X363551Y256834D02*
X364102Y257385D01*
X322252Y251559D02*
Y254826D01*
X354574Y266677D02*
X354603Y266705D01*
X354494Y260852D02*
X354574Y260771D01*
X346584Y260852D02*
X354494D01*
X322291Y260771D02*
X331543D01*
X291189Y340889D02*
Y346204D01*
X288039Y337740D02*
X291189Y340889D01*
X308905Y340889D02*
Y346204D01*
Y340889D02*
X309299Y340495D01*
X251252Y288843D02*
Y316543D01*
X267951Y311743D02*
X269680D01*
X266752Y312943D02*
X267951Y311743D01*
X269680D02*
X269780Y311843D01*
X297094Y342185D02*
Y346204D01*
X295851Y340943D02*
X297094Y342185D01*
X304968Y286755D02*
Y291443D01*
X331543Y281834D02*
Y286351D01*
X317352Y289343D02*
Y290643D01*
X332152Y288143D02*
X333511Y286783D01*
Y281834D02*
Y286783D01*
X359299Y246401D02*
Y251913D01*
X360283Y252897D02*
Y256834D01*
X359299Y251913D02*
X360283Y252897D01*
X354574Y256834D02*
X360283D01*
X363551D01*
X342732Y261323D02*
X344148Y262740D01*
X342732Y257962D02*
Y261323D01*
Y257962D02*
X344851Y255843D01*
X344148Y262740D02*
X354574D01*
X331543Y260771D02*
X332951Y262180D01*
X341385Y249551D02*
Y267509D01*
X339417Y249551D02*
Y266178D01*
X338251Y267343D02*
X339417Y266178D01*
X337448Y249551D02*
Y263346D01*
X335051Y265743D02*
X337448Y263346D01*
X335051Y265743D02*
Y267843D01*
X329574Y277420D02*
Y281834D01*
X331543Y249551D02*
Y255323D01*
X328151Y258714D02*
Y258743D01*
Y258714D02*
X331543Y255323D01*
X302999Y282491D02*
Y286755D01*
X279952Y275743D02*
X281751D01*
X298451Y281943D02*
X299062Y282554D01*
X281951Y273643D02*
X288452Y280143D01*
X300652D01*
X302999Y282491D01*
X281751Y275743D02*
X287951Y281943D01*
X298451D01*
X304968Y269626D02*
X315792Y258803D01*
X332951Y262180D02*
Y270371D01*
X335537Y272957D02*
X338466D01*
X339951Y274443D01*
Y275943D01*
X332951Y270371D02*
X335537Y272957D01*
X329574Y277420D02*
X331152Y275843D01*
X337052D01*
X310874Y286755D02*
Y292065D01*
X316951Y298763D02*
X320913D01*
X316352Y269343D02*
X317049Y268645D01*
X322291D01*
X314811Y286755D02*
X315598Y287543D01*
X326314D01*
X317352Y289343D02*
X317951Y288743D01*
X326811D01*
X327411Y288143D01*
X332152D01*
X326314Y287543D02*
X326988Y286868D01*
X331026D01*
X331543Y286351D01*
X316352Y277843D02*
X322352Y283843D01*
Y285543D01*
X316352Y269343D02*
Y277843D01*
X314851Y267843D02*
X316018Y266677D01*
X314851Y267843D02*
Y278443D01*
X318352Y281943D01*
Y285543D01*
X316018Y266677D02*
X322291D01*
X338752Y270143D02*
X341385Y267509D01*
X336852Y270143D02*
X338752D01*
X275552Y264843D02*
X277351Y263043D01*
X281252D01*
X304968Y269626D02*
Y272582D01*
X354574Y266677D02*
X359496D01*
X360283Y265889D01*
Y261362D02*
X364023D01*
X360283Y256834D02*
Y261362D01*
Y265889D01*
X248151Y312273D02*
Y316543D01*
X305362Y335378D02*
X306937Y336952D01*
Y346204D01*
X299062Y336559D02*
Y339708D01*
Y336559D02*
X300244Y335378D01*
X305362D01*
X283314Y346204D02*
Y351126D01*
X281346Y346204D02*
Y351551D01*
X327151Y335143D02*
Y339443D01*
X320913Y334196D02*
X326205D01*
X327151Y335143D01*
X338039Y290889D02*
X338039Y290889D01*
X326123Y308543D02*
X327780D01*
X326060Y308606D02*
X326123Y308543D01*
X320913Y308606D02*
X326060D01*
X320913Y306637D02*
X332651D01*
X320913Y304669D02*
X332651D01*
X304633Y377761D02*
Y384306D01*
Y377761D02*
X314251Y368143D01*
X299633Y379761D02*
X312452Y366943D01*
X299633Y379761D02*
Y384306D01*
X317251Y372943D02*
X320851Y369343D01*
X317251Y372943D02*
Y373043D01*
X299633Y394661D02*
X303952Y390343D01*
X299633Y394661D02*
Y397614D01*
X324751Y371643D02*
X325851Y370543D01*
X294633Y395061D02*
X299352Y390343D01*
X294633Y395061D02*
Y397614D01*
X251818Y345771D02*
X252547Y345043D01*
X261852D01*
X266076Y340818D01*
X253923Y339043D02*
X254152D01*
X256452Y336743D01*
X241818Y345771D02*
X247147Y340443D01*
X252523D01*
X253923Y339043D01*
X271199Y197100D02*
G03*
X265331Y202024I-5000J0D01*
G01*
X211131Y192424D02*
G03*
X207351Y185660I868J-4923D01*
G01*
X207365Y185649D02*
G03*
X221998Y154053I285528J113050D01*
G01*
X222012Y154064D02*
G03*
X248120Y137445I27788J14837D01*
G01*
X248123Y137498D02*
G03*
X374671Y137370I64179J895306D01*
G01*
X494138Y129335D02*
G03*
X375560Y137364I-89279J-438871D01*
G01*
X578946Y112082D02*
G03*
X661773Y154430I17054J68818D01*
G01*
X662305Y155917D02*
G03*
X662238Y441653I-358406J142783D01*
G01*
X661737Y443060D02*
G03*
X581986Y486002I-65737J-26559D01*
G01*
X429099Y308500D02*
G03*
X429836Y305888I4999J1D01*
G01*
X415703Y285110D02*
G03*
X429866Y305911I2396J13590D01*
G01*
X415668Y285124D02*
G03*
X409799Y280200I-869J-4924D01*
G01*
X404799Y240200D02*
G03*
X409799Y245200I0J5000D01*
G01*
X392799Y240200D02*
G03*
X387799Y235200I0J-5000D01*
G01*
X382799Y158500D02*
G03*
X387799Y163500I0J5000D01*
G01*
X271199D02*
G03*
X276199Y158500I5000J0D01*
G01*
X417516Y459294D02*
G03*
X494633Y468209I-12450J445697D01*
G01*
X417516Y459294D02*
G03*
X411452Y442036I300J-9800D01*
G01*
X429216Y424594D02*
G03*
X427437Y428419I-5000J1D01*
G01*
X494146Y129372D02*
X578955Y112119D01*
X494543Y468209D02*
X581999Y486000D01*
X271199Y163500D02*
Y197100D01*
X211099Y192400D02*
X265399Y202000D01*
X409799Y245200D02*
Y280200D01*
X392799Y240200D02*
X404799D01*
X387799Y163500D02*
Y235200D01*
X276199Y158500D02*
X382799D01*
X411416Y441994D02*
X427416Y428394D01*
X429117Y309399D02*
X429216Y424624D01*
X374671Y137370D02*
X375554D01*
X661773Y154430D02*
X662305Y155917D01*
X661737Y443060D02*
X662238Y441653D01*
X494543Y468209D02*
X494633D01*
X429099Y308500D02*
Y309381D01*
X429117Y309399D01*
D35*
X294633Y377061D02*
Y384306D01*
X289633Y394061D02*
Y397614D01*
Y394061D02*
X294633Y389061D01*
Y384306D02*
Y389061D01*
X294752Y377179D02*
Y378643D01*
X294633Y377061D02*
X294752Y377179D01*
Y375243D02*
Y378643D01*
X294652Y375143D02*
X294752Y375243D01*
X295519Y371204D02*
Y374275D01*
X294652Y375143D02*
X295519Y374275D01*
X309633Y378761D02*
Y384306D01*
Y378761D02*
X311052Y377343D01*
X318851D02*
X319633Y378125D01*
Y384306D01*
X314633Y377425D02*
Y384306D01*
X314551Y377343D02*
X314633Y377425D01*
X311052Y377343D02*
X314551D01*
X318851D01*
X314633Y384306D02*
Y389661D01*
X309633Y384306D02*
Y389725D01*
X309651Y389743D01*
X334633Y384306D02*
Y389861D01*
X334552Y389943D02*
X334633Y389861D01*
Y378925D02*
Y384306D01*
X334552Y378843D02*
X334633Y378925D01*
D37*
X415851Y226410D02*
Y258399D01*
Y226410D02*
X415912Y226349D01*
Y224527D02*
Y226349D01*
X415851Y224465D02*
X415912Y224527D01*
X415851Y224399D02*
Y224465D01*
X402699Y211247D02*
X415851Y224399D01*
X402699Y204899D02*
Y211247D01*
X415851Y258399D02*
X420351Y262899D01*
X400851Y169899D02*
X403176Y167574D01*
X413299D01*
X252552Y376243D02*
X252852D01*
X254633Y378025D01*
Y384610D01*
X292628Y273567D02*
X300047D01*
X289452Y276743D02*
X292628Y273567D01*
X300637Y371204D02*
X302212D01*
X303787Y372779D02*
X303787D01*
X303393Y372385D02*
X303787Y372779D01*
X302212Y371204D02*
X303787Y372779D01*
D39*
X327540Y343143D02*
D03*
X328252Y320543D02*
D03*
X327540Y347043D02*
D03*
X314599Y154500D02*
D03*
X410650Y147900D02*
D03*
X413712Y225438D02*
D03*
X402699Y204899D02*
D03*
X423851Y255399D02*
D03*
X437851Y235399D02*
D03*
X425851Y185399D02*
D03*
X436351Y200399D02*
D03*
Y205399D02*
D03*
X413851Y189899D02*
D03*
X658351Y410899D02*
D03*
X648851Y415399D02*
D03*
X322851Y154899D02*
D03*
X422851Y260399D02*
D03*
X420351Y262899D02*
D03*
X635799Y449000D02*
D03*
X669099Y238700D02*
D03*
X638799Y442900D02*
D03*
X234399Y174500D02*
D03*
X239099Y163300D02*
D03*
X287999Y154500D02*
D03*
X651351Y206899D02*
D03*
X673901Y340349D02*
D03*
X447851Y291589D02*
D03*
X254851Y168399D02*
D03*
X436451Y210399D02*
D03*
X427232Y220418D02*
D03*
X426951Y215438D02*
D03*
X424751Y241438D02*
D03*
Y244438D02*
D03*
X435998Y142899D02*
D03*
X414051Y185438D02*
D03*
X413751Y202699D02*
D03*
X413851Y207999D02*
D03*
Y210699D02*
D03*
X424251Y231188D02*
D03*
Y234188D02*
D03*
X242351Y143399D02*
D03*
X257351Y181399D02*
D03*
X266351Y158399D02*
D03*
X609351Y136399D02*
D03*
X626351Y213524D02*
D03*
X631351Y220399D02*
D03*
X613351Y122399D02*
D03*
X591351Y135399D02*
D03*
X597351D02*
D03*
X680351Y355399D02*
D03*
X648351Y389399D02*
D03*
X627351Y456399D02*
D03*
X646351Y384399D02*
D03*
X630351Y453399D02*
D03*
X648351Y399399D02*
D03*
X654351Y376399D02*
D03*
X400851Y169899D02*
D03*
X235451Y192499D02*
D03*
X330651Y324143D02*
D03*
X362720Y325974D02*
D03*
X273151Y322443D02*
D03*
X328852Y330243D02*
D03*
X314452Y307543D02*
D03*
X293851Y310943D02*
D03*
X324952Y364243D02*
D03*
X325851Y352943D02*
D03*
X320352Y356843D02*
D03*
X342845Y355943D02*
D03*
X340245D02*
D03*
X356152Y314143D02*
D03*
X356252Y309143D02*
D03*
Y339043D02*
D03*
X356351Y344043D02*
D03*
X358752Y352643D02*
D03*
X362752Y299743D02*
D03*
X362651Y352743D02*
D03*
X358783Y326043D02*
D03*
X339152Y324043D02*
D03*
Y333943D02*
D03*
X339551Y319043D02*
D03*
D54*
X362720Y334043D02*
Y344043D01*
Y328556D02*
Y334043D01*
Y325974D02*
Y328556D01*
Y318943D02*
Y323394D01*
Y314043D02*
Y318943D01*
Y304501D02*
Y314043D01*
Y299774D02*
Y304501D01*
Y323394D02*
Y325974D01*
Y299774D02*
X362752Y299743D01*
X362720Y344043D02*
Y349178D01*
X362651Y349246D02*
Y352743D01*
Y349246D02*
X362720Y349178D01*
D55*
X348726Y345411D02*
Y347320D01*
X348020Y348026D02*
X348726Y347320D01*
X348020Y348026D02*
Y396436D01*
X345851Y345486D02*
X345926Y345411D01*
X345851Y345486D02*
Y347195D01*
X346633Y347976D01*
Y395862D01*
X342239Y356549D02*
X342845Y355943D01*
X340245D02*
X340851Y356549D01*
X342239D02*
Y365055D01*
X331864Y375430D02*
X342239Y365055D01*
X340851Y356549D02*
Y364481D01*
X331289Y374043D02*
X340851Y364481D01*
X356152Y313630D02*
Y314143D01*
X354651Y312130D02*
X356152Y313630D01*
X351877Y312130D02*
X354651D01*
X354651Y310743D02*
X356252Y309143D01*
X352451Y310743D02*
X354651D01*
X349564Y309818D02*
X351877Y312130D01*
X350952Y309243D02*
X352451Y310743D01*
X349564Y300530D02*
Y309818D01*
X350952Y301105D02*
Y309243D01*
Y301105D02*
X359852Y292205D01*
Y287905D02*
Y292205D01*
X349564Y300530D02*
X358464Y291630D01*
Y287330D02*
Y291630D01*
X359852Y287905D02*
X364539Y283218D01*
Y273689D02*
Y283218D01*
X358464Y287330D02*
X363152Y282643D01*
Y274263D02*
Y282643D01*
X353064Y284430D02*
X359064Y278430D01*
X356351Y343530D02*
Y344043D01*
X354952Y342130D02*
X356351Y343530D01*
X356252Y339043D02*
Y339443D01*
X354952Y340743D02*
X356252Y339443D01*
X352764Y342130D02*
X354952D01*
X350552Y339917D02*
X352764Y342130D01*
X353339Y340743D02*
X354952D01*
X351939Y339343D02*
X353339Y340743D01*
X350552Y318705D02*
Y339917D01*
X351939Y318130D02*
Y339343D01*
X345551Y311743D02*
X351939Y318130D01*
X344164Y312317D02*
X350552Y318705D01*
X344164Y297830D02*
Y312317D01*
X345551Y298405D02*
Y311743D01*
X344164Y297830D02*
X353064Y288930D01*
X345551Y298405D02*
X354451Y289505D01*
Y285043D02*
Y289505D01*
X353064Y284430D02*
Y288930D01*
X358683Y314143D02*
X358783Y314043D01*
X356152Y314143D02*
X358683D01*
X356252Y309143D02*
X356325Y309069D01*
X358683D01*
X358783Y339043D02*
X358783Y339043D01*
X356252Y339043D02*
X358783D01*
X356351Y344043D02*
X356351Y344043D01*
X358783D01*
X354574Y274551D02*
X358708D01*
X354574Y276519D02*
X358715D01*
X327952Y376743D02*
X329264Y375430D01*
X326564Y376168D02*
X328689Y374043D01*
X327952Y376743D02*
Y379343D01*
X326564Y376168D02*
Y379343D01*
X327952D02*
X329633Y381025D01*
X324633Y381274D02*
X326564Y379343D01*
X329633Y381025D02*
Y384306D01*
X324633Y381274D02*
Y384306D01*
X337551Y404943D02*
X346633Y395862D01*
X319551Y404943D02*
X337551D01*
X338126Y406330D02*
X348020Y396436D01*
X318977Y406330D02*
X338126D01*
X317752Y403143D02*
X319551Y404943D01*
X316364Y403718D02*
X318977Y406330D01*
X317752Y399496D02*
Y403143D01*
X316364Y399344D02*
Y403718D01*
X317752Y399496D02*
X319633Y397614D01*
X314633D02*
X316364Y399344D01*
X329264Y375430D02*
X331864D01*
X328689Y374043D02*
X331289D01*
X354574Y270614D02*
X359502D01*
X354574Y268645D02*
X359496D01*
X364539Y273689D01*
X359502Y270614D02*
X363152Y274263D01*
X358708Y274551D02*
X360452Y276294D01*
X358715Y276519D02*
X359064Y276869D01*
Y278430D01*
X360452Y276294D02*
Y279043D01*
X354451Y285043D02*
X360452Y279043D01*
D56*
X326600Y296795D02*
X326852Y296543D01*
X329852D01*
X327668Y294826D02*
X330165Y292329D01*
X320913Y294826D02*
X327668D01*
X330165Y290889D02*
Y292329D01*
X324599Y340102D02*
X327540Y343043D01*
X320913Y340102D02*
X324599D01*
X333302Y257031D02*
X335480Y254853D01*
X332921Y257412D02*
X333302Y257031D01*
X335480Y249551D02*
Y254853D01*
X333302Y257031D02*
X333314D01*
X248052Y282495D02*
X248128Y282419D01*
X248052Y282495D02*
Y289643D01*
X247488Y290207D02*
X248052Y289643D01*
X247488Y290207D02*
Y293251D01*
X259792Y340102D02*
X261464D01*
X259752Y340143D02*
X259792Y340102D01*
X259752Y340143D02*
Y342543D01*
X264352Y286743D02*
X264364Y286755D01*
X267566D01*
X315992Y336165D02*
X320913D01*
X277409Y346204D02*
Y351185D01*
X287251Y346204D02*
Y351043D01*
X302999Y346204D02*
Y351495D01*
X320913Y296795D02*
X326600D01*
X322291Y276519D02*
Y277782D01*
X322751Y278243D02*
Y280343D01*
X322291Y277782D02*
X322751Y278243D01*
X348111Y258803D02*
X354574D01*
X321652Y290743D02*
Y292119D01*
X320913Y292858D02*
X321652Y292119D01*
X348052Y258743D02*
X348111Y258803D01*
X254751Y340543D02*
Y341043D01*
Y340543D02*
X257161Y338133D01*
X261464D01*
X176000Y87000D02*
Y515000D01*
X709000D01*
Y87000D02*
Y515000D01*
X176000Y87000D02*
X709000D01*
D59*
X237351Y243251D02*
X367273D01*
Y412543D01*
X237351D02*
X367273D01*
X237351Y243251D02*
Y412543D01*
D60*
X417951Y449599D02*
D03*
X219299Y184500D02*
D03*
X579499Y298700D02*
D03*
X669999Y220000D02*
D03*
X396399Y229800D02*
D03*
D61*
X445851Y440548D02*
D03*
X465537D02*
D03*
X455694D02*
D03*
X488219D02*
D03*
X507905D02*
D03*
X498062D02*
D03*
X540988Y461007D02*
D03*
X560674D02*
D03*
X550831D02*
D03*
X582738Y461019D02*
D03*
X602424D02*
D03*
X592581D02*
D03*
D62*
X616715Y271993D02*
D03*
Y261993D02*
D03*
Y281993D02*
D03*
Y291993D02*
D03*
X626715Y276993D02*
D03*
Y286993D02*
D03*
Y256993D02*
D03*
Y266993D02*
D03*
D63*
X636515Y243493D02*
D03*
Y305393D02*
D03*
D64*
X651715Y251993D02*
D03*
Y296993D02*
D03*
D65*
X482674Y288820D02*
D03*
X472774D02*
D03*
X492574D02*
D03*
D66*
X637687Y342843D02*
D03*
D67*
X651487Y322393D02*
D03*
D68*
Y346793D02*
D03*
D69*
X406499Y145200D02*
D03*
X629351Y143399D02*
D03*
X437099Y195147D02*
D03*
X437851Y190399D02*
D03*
X427299Y270500D02*
D03*
X425099Y273000D02*
D03*
X420799D02*
D03*
X621499Y362800D02*
D03*
X631299Y355100D02*
D03*
X619599Y344600D02*
D03*
X621299Y350900D02*
D03*
X637499Y149600D02*
D03*
X257599Y173200D02*
D03*
X243599Y158600D02*
D03*
X413299Y167574D02*
D03*
X664199Y414700D02*
D03*
X661699Y417300D02*
D03*
X408699Y140800D02*
D03*
X229499Y150200D02*
D03*
X426199Y175574D02*
D03*
X422999Y270600D02*
D03*
X476099Y446300D02*
D03*
X507799Y448400D02*
D03*
X399099Y188700D02*
D03*
Y208700D02*
D03*
X219099Y168700D02*
D03*
X593351Y293399D02*
D03*
Y303399D02*
D03*
X659099Y258700D02*
D03*
X569099Y118700D02*
D03*
X589099D02*
D03*
X482351Y303399D02*
D03*
X569099Y468700D02*
D03*
X619099Y458700D02*
D03*
X659099Y388700D02*
D03*
X660910Y298700D02*
D03*
X679099Y278700D02*
D03*
Y308700D02*
D03*
Y368700D02*
D03*
X659099D02*
D03*
X447351Y306399D02*
D03*
X455199Y292600D02*
D03*
X629099Y328700D02*
D03*
X425851Y180899D02*
D03*
X421651Y157099D02*
D03*
X425599Y157199D02*
D03*
X429351Y157189D02*
D03*
X645773Y186799D02*
D03*
X645598Y191099D02*
D03*
X413751Y146399D02*
D03*
X417151Y145499D02*
D03*
X422951Y141999D02*
D03*
X249852Y154399D02*
D03*
X613351Y126399D02*
D03*
X612099Y142000D02*
D03*
D70*
X437151Y165599D02*
D03*
X436351Y170360D02*
D03*
X462851Y152899D02*
D03*
X495351D02*
D03*
X515351Y160899D02*
D03*
D71*
X314633Y397614D02*
D03*
X249633D02*
D03*
X254633D02*
D03*
X259633D02*
D03*
X264633D02*
D03*
X269633D02*
D03*
X274633D02*
D03*
X279633D02*
D03*
X284633D02*
D03*
X289633D02*
D03*
X294633D02*
D03*
X299633D02*
D03*
X304633D02*
D03*
X309633D02*
D03*
X329633D02*
D03*
X324633D02*
D03*
X319633D02*
D03*
X334633D02*
D03*
D72*
X251818Y335771D02*
D03*
X241818D02*
D03*
X251818Y345771D02*
D03*
X241818D02*
D03*
D73*
X272685Y269629D02*
D03*
X262685D02*
D03*
D74*
X249062Y270811D02*
D03*
D75*
X315670Y301279D02*
D03*
X305651Y294643D02*
D03*
X308051Y297943D02*
D03*
X310152Y296043D02*
D03*
X303651Y296643D02*
D03*
X310951Y292043D02*
D03*
X313651Y295943D02*
D03*
X329852Y296543D02*
D03*
X327463Y300732D02*
D03*
X287752Y306643D02*
D03*
X315352Y320143D02*
D03*
X308118Y325143D02*
D03*
X327751Y326043D02*
D03*
X363851Y268943D02*
D03*
X362052Y249843D02*
D03*
X246751Y363043D02*
D03*
X243451Y373689D02*
D03*
X351652Y246443D02*
D03*
X356051Y366443D02*
D03*
X253451Y408043D02*
D03*
X269652Y407943D02*
D03*
X291752D02*
D03*
X277751Y372843D02*
D03*
X280552Y377143D02*
D03*
X289651Y376743D02*
D03*
X284651Y377143D02*
D03*
X294752Y378643D02*
D03*
X268952Y372643D02*
D03*
X264452Y372543D02*
D03*
X348275Y269236D02*
D03*
X344732Y268055D02*
D03*
X338039Y290889D02*
D03*
X333314Y257031D02*
D03*
X299062Y339708D02*
D03*
X248128Y282419D02*
D03*
X277151Y298543D02*
D03*
X280051Y299743D02*
D03*
X280152Y302543D02*
D03*
X271652Y262143D02*
D03*
X286752Y265943D02*
D03*
X276151Y260043D02*
D03*
X281951Y273643D02*
D03*
X279952Y275743D02*
D03*
X254552Y296843D02*
D03*
X287752Y257643D02*
D03*
X280152Y259943D02*
D03*
X242251Y282143D02*
D03*
X295851Y257743D02*
D03*
X286452Y263143D02*
D03*
X285251Y341143D02*
D03*
X263452Y347643D02*
D03*
X256152Y331443D02*
D03*
X254351Y350543D02*
D03*
X259752Y342543D02*
D03*
X267951Y351543D02*
D03*
Y354343D02*
D03*
X268851Y313743D02*
D03*
X266752Y315743D02*
D03*
Y305843D02*
D03*
X294752Y321543D02*
D03*
X292352Y319543D02*
D03*
X317566Y247528D02*
D03*
X310244Y258451D02*
D03*
X280210Y278685D02*
D03*
X267566Y301628D02*
D03*
X288039Y326855D02*
D03*
X275441Y338232D02*
D03*
X269535Y337326D02*
D03*
X262551Y281543D02*
D03*
X256751Y367543D02*
D03*
Y347443D02*
D03*
X270551Y293643D02*
D03*
X264352Y286743D02*
D03*
X254341Y300732D02*
D03*
X248151Y316543D02*
D03*
X242271Y311723D02*
D03*
X250014Y360181D02*
D03*
X257951Y372243D02*
D03*
X252852Y376243D02*
D03*
X249633Y372161D02*
D03*
X268151Y366343D02*
D03*
X344732Y258999D02*
D03*
X360283Y256834D02*
D03*
X288039Y337740D02*
D03*
X278984Y338527D02*
D03*
X309299Y340495D02*
D03*
X315992Y336165D02*
D03*
X277409Y351495D02*
D03*
X287251D02*
D03*
X302999D02*
D03*
X317652Y344243D02*
D03*
X327151Y290943D02*
D03*
X322751Y280343D02*
D03*
X329651Y272943D02*
D03*
X348111Y258803D02*
D03*
X344851Y255843D02*
D03*
X338251Y267343D02*
D03*
X335051Y267843D02*
D03*
X325751Y249543D02*
D03*
X328151Y255843D02*
D03*
Y258743D02*
D03*
X289452Y276743D02*
D03*
X298451Y277543D02*
D03*
X315951Y263343D02*
D03*
X339951Y275943D02*
D03*
X337052Y275843D02*
D03*
X321652Y290743D02*
D03*
X322352Y285543D02*
D03*
X318352D02*
D03*
X242763Y260968D02*
D03*
X258511Y260574D02*
D03*
X248252Y303543D02*
D03*
X242763Y404275D02*
D03*
X336852Y270143D02*
D03*
X281252Y263043D02*
D03*
X303393Y340102D02*
D03*
X303393Y372385D02*
D03*
X347881Y401519D02*
D03*
X283708Y324354D02*
D03*
X352212Y372779D02*
D03*
X304181Y312543D02*
D03*
X356937Y403094D02*
D03*
X317251Y373043D02*
D03*
X303952Y390343D02*
D03*
X324751Y371643D02*
D03*
X299352Y390343D02*
D03*
X318851Y377343D02*
D03*
X314633Y389661D02*
D03*
X309651Y389743D02*
D03*
X334552Y389943D02*
D03*
Y378843D02*
D03*
X345926Y345411D02*
D03*
X348726D02*
D03*
X308552Y407843D02*
D03*
X342452Y407943D02*
D03*
X362351Y408443D02*
D03*
X329252Y358843D02*
D03*
X254751Y341043D02*
D03*
D76*
X249633Y384306D02*
D03*
X254633D02*
D03*
X259633D02*
D03*
X264633D02*
D03*
X269633D02*
D03*
X274633D02*
D03*
X279633D02*
D03*
X284633D02*
D03*
X289633D02*
D03*
X294633D02*
D03*
X299633D02*
D03*
X304633D02*
D03*
X309633D02*
D03*
X314633D02*
D03*
X334633D02*
D03*
X329633D02*
D03*
X324633D02*
D03*
X319633D02*
D03*
D77*
X261464Y340102D02*
D03*
Y338133D02*
D03*
Y336165D02*
D03*
Y334196D02*
D03*
Y332228D02*
D03*
Y330259D02*
D03*
Y328291D02*
D03*
Y326322D02*
D03*
Y324354D02*
D03*
Y322385D02*
D03*
Y320417D02*
D03*
Y318448D02*
D03*
Y316480D02*
D03*
Y314511D02*
D03*
Y312543D02*
D03*
Y310574D02*
D03*
Y308606D02*
D03*
Y306637D02*
D03*
Y304669D02*
D03*
Y302700D02*
D03*
Y300732D02*
D03*
Y298763D02*
D03*
Y296795D02*
D03*
Y294826D02*
D03*
Y292858D02*
D03*
X320913D02*
D03*
Y294826D02*
D03*
Y296795D02*
D03*
Y298763D02*
D03*
Y300732D02*
D03*
Y310574D02*
D03*
Y312543D02*
D03*
Y314511D02*
D03*
Y316480D02*
D03*
Y318448D02*
D03*
Y320417D02*
D03*
Y322385D02*
D03*
Y324354D02*
D03*
Y326322D02*
D03*
Y328291D02*
D03*
Y330259D02*
D03*
Y332228D02*
D03*
Y334196D02*
D03*
Y336165D02*
D03*
Y338133D02*
D03*
Y340102D02*
D03*
Y308606D02*
D03*
Y304669D02*
D03*
Y302700D02*
D03*
Y306637D02*
D03*
D78*
X267566Y286755D02*
D03*
X269535D02*
D03*
X271503D02*
D03*
X273472D02*
D03*
X275441D02*
D03*
X277409D02*
D03*
X279378D02*
D03*
X281346D02*
D03*
X283314D02*
D03*
X285283D02*
D03*
X287251D02*
D03*
X289220D02*
D03*
X291189D02*
D03*
X293157D02*
D03*
X295126D02*
D03*
X297094D02*
D03*
X299062D02*
D03*
X301031D02*
D03*
X302999D02*
D03*
X304968D02*
D03*
X306937D02*
D03*
X308905D02*
D03*
X310874D02*
D03*
X312842D02*
D03*
X314811D02*
D03*
Y346204D02*
D03*
X312842D02*
D03*
X310874D02*
D03*
X308905D02*
D03*
X306937D02*
D03*
X304968D02*
D03*
X302999D02*
D03*
X301031D02*
D03*
X299062D02*
D03*
X297094D02*
D03*
X295126D02*
D03*
X293157D02*
D03*
X291189D02*
D03*
X289220D02*
D03*
X287251D02*
D03*
X285283D02*
D03*
X283314D02*
D03*
X281346D02*
D03*
X279378D02*
D03*
X277409D02*
D03*
X275441D02*
D03*
X273472D02*
D03*
X271503D02*
D03*
X269535D02*
D03*
X267566D02*
D03*
D79*
X327606Y281834D02*
D03*
X329574D02*
D03*
X331543D02*
D03*
X333511D02*
D03*
X335480D02*
D03*
X337448D02*
D03*
X339417D02*
D03*
X341385D02*
D03*
X343354D02*
D03*
X345322D02*
D03*
X347291D02*
D03*
X349259D02*
D03*
Y249551D02*
D03*
X347291D02*
D03*
X345322D02*
D03*
X343354D02*
D03*
X341385D02*
D03*
X339417D02*
D03*
X337448D02*
D03*
X335480D02*
D03*
X333511D02*
D03*
X331543D02*
D03*
X329574D02*
D03*
X327606D02*
D03*
D80*
X354574Y272582D02*
D03*
Y266677D02*
D03*
Y264708D02*
D03*
Y262740D02*
D03*
Y260771D02*
D03*
Y258803D02*
D03*
Y256834D02*
D03*
Y254866D02*
D03*
X322291D02*
D03*
Y256834D02*
D03*
Y258803D02*
D03*
Y260771D02*
D03*
Y262740D02*
D03*
Y264708D02*
D03*
Y266677D02*
D03*
Y268645D02*
D03*
Y270614D02*
D03*
Y272582D02*
D03*
Y274551D02*
D03*
Y276519D02*
D03*
X354574D02*
D03*
Y274551D02*
D03*
Y270614D02*
D03*
Y268645D02*
D03*
D81*
X291878Y252503D02*
D03*
X299948D02*
D03*
D82*
X282133D02*
D03*
X309693D02*
D03*
D83*
X290795Y263724D02*
D03*
X293354D02*
D03*
X295913D02*
D03*
X298472D02*
D03*
X301031D02*
D03*
M02*
